<?xml version="1.0" standalone="no"?>
<!DOCTYPE svg PUBLIC "-//W3C//DTD SVG 1.1//EN" "http://www.w3.org/Graphics/SVG/1.1/DTD/svg11.dtd" >
<svg xmlns="http://www.w3.org/2000/svg" xmlns:xlink="http://www.w3.org/1999/xlink" version="1.1">
<metadata>
Created by FontForge 20201107 at Wed Sep 25 07:29:05 2024
 By 
Copyright (c) 2012 by The Fontry. All rights reserved.
</metadata>
<defs>
<font id="AvengeanceHeroicAvengerNormal" horiz-adv-x="1583" >
  <font-face 
    font-family="Avengeance Heroic Avenger"
    font-weight="400"
    font-stretch="normal"
    units-per-em="2048"
    panose-1="0 0 0 0 0 0 0 0 0 0"
    ascent="1536"
    descent="-512"
    x-height="1489"
    cap-height="2107"
    bbox="-475 -684 7186 2109"
    underline-thickness="102"
    underline-position="-204"
    unicode-range="U+0020-F8FF"
  />
<missing-glyph horiz-adv-x="256" 
 />
    <glyph glyph-name=".notdef" horiz-adv-x="256" 
 />
    <glyph glyph-name=".null" horiz-adv-x="0" 
 />
    <glyph glyph-name="nonmarkingreturn" horiz-adv-x="682" 
 />
    <glyph glyph-name="space" unicode=" " horiz-adv-x="256" 
 />
    <glyph glyph-name="exclam" unicode="!" horiz-adv-x="448" 
d="M219 373l258 1116h375l-406 -1116h-227zM82 0l84 283h293l-86 -283h-291z" />
    <glyph glyph-name="quotedbl" unicode="&#x22;" horiz-adv-x="731" 
d="M840 1489h297l-260 -623h-177zM475 1489h299l-262 -623h-176z" />
    <glyph glyph-name="numbersign" unicode="#" 
d="M791 6q-196 0 -362.5 97.5t-263.5 264.5t-97 363t97 363t263.5 264.5t362.5 97.5t363 -97.5t264.5 -264.5t97.5 -363t-97.5 -363t-264.5 -264.5t-363 -97.5zM791 104q128 0 244 50t199 134t132 200t49 243t-49 242.5t-132 199.5t-199 133.5t-244 49.5q-169 0 -313.5 -84
t-229 -228t-84.5 -313t84.5 -313.5t229 -229t313.5 -84.5zM791 147q-118 0 -225.5 46.5t-186.5 124.5t-125.5 186.5t-46.5 226.5q0 157 79 290t213.5 210.5t291.5 77.5t291 -77.5t212 -210.5t78 -290q0 -119 -46.5 -227t-124.5 -186t-185 -124.5t-225 -46.5zM791 238
q57 0 110 20.5t94 55t70.5 69.5t52.5 74q-319 -84 -655 0q23 -39 52.5 -74t70.5 -69.5t94 -55t111 -20.5zM442 487q346 -79 699 0l110 177h-921zM715 731h155l-77 187zM602 874q7 -8 38.5 7.5t29.5 21.5q-15 29 -45.5 111t-55.5 119q-7 9 -38.5 -6t-58 -36.5t-21.5 -27.5z
M983 874l147 189q5 6 -21 27.5t-57 36.5t-38 6q-30 -39 -61 -129.5t-35 -100.5q-7 -4 19 -19q35 -19 46 -10zM1321 25v77h-31v23h84v-23h-31v-77h-22zM1384 25v100h31l19 -78l18 78h29v-100h-19v77l-20 -77h-19l-20 77v-77h-19z" />
    <glyph glyph-name="dollar" unicode="$" 
d="M791 6q-196 0 -362.5 97.5t-263.5 264.5t-97 363t97 363t263.5 264.5t362.5 97.5t363 -97.5t264.5 -264.5t97.5 -363t-97.5 -363t-264.5 -264.5t-363 -97.5zM791 104q128 0 244 50t199 134t132 200t49 243t-49 242.5t-132 199.5t-199 133.5t-244 49.5q-169 0 -313.5 -84
t-229 -228t-84.5 -313t84.5 -313.5t229 -229t313.5 -84.5zM791 147q-118 0 -225.5 46.5t-186.5 124.5t-125.5 186.5t-46.5 226.5q0 157 79 290t213.5 210.5t291.5 77.5t291 -77.5t212 -210.5t78 -290q0 -119 -46.5 -227t-124.5 -186t-185 -124.5t-225 -46.5zM791 238
q57 0 110 20.5t94 55t70.5 69.5t52.5 74q-319 -84 -655 0q23 -39 52.5 -74t70.5 -69.5t94 -55t111 -20.5zM442 487q346 -79 699 0l110 177h-921zM715 731h155l-77 187zM602 874q7 -8 38.5 7.5t29.5 21.5q-15 29 -45.5 111t-55.5 119q-7 9 -38.5 -6t-58 -36.5t-21.5 -27.5z
M983 874l147 189q5 6 -21 27.5t-57 36.5t-38 6q-30 -39 -61 -129.5t-35 -100.5q-7 -4 19 -19q35 -19 46 -10zM1321 25v77h-31v23h84v-23h-31v-77h-22zM1384 25v100h31l19 -78l18 78h29v-100h-19v77l-20 -77h-19l-20 77v-77h-19z" />
    <glyph glyph-name="percent" unicode="%" 
d="M791 6q-196 0 -362.5 97.5t-263.5 264.5t-97 363t97 363t263.5 264.5t362.5 97.5t363 -97.5t264.5 -264.5t97.5 -363t-97.5 -363t-264.5 -264.5t-363 -97.5zM791 104q128 0 244 50t199 134t132 200t49 243t-49 242.5t-132 199.5t-199 133.5t-244 49.5q-169 0 -313.5 -84
t-229 -228t-84.5 -313t84.5 -313.5t229 -229t313.5 -84.5zM791 147q-118 0 -225.5 46.5t-186.5 124.5t-125.5 186.5t-46.5 226.5q0 157 79 290t213.5 210.5t291.5 77.5t291 -77.5t212 -210.5t78 -290q0 -119 -46.5 -227t-124.5 -186t-185 -124.5t-225 -46.5zM791 238
q57 0 110 20.5t94 55t70.5 69.5t52.5 74q-319 -84 -655 0q23 -39 52.5 -74t70.5 -69.5t94 -55t111 -20.5zM442 487q346 -79 699 0l110 177h-921zM715 731h155l-77 187zM602 874q7 -8 38.5 7.5t29.5 21.5q-15 29 -45.5 111t-55.5 119q-7 9 -38.5 -6t-58 -36.5t-21.5 -27.5z
M983 874l147 189q5 6 -21 27.5t-57 36.5t-38 6q-30 -39 -61 -129.5t-35 -100.5q-7 -4 19 -19q35 -19 46 -10zM1321 25v77h-31v23h84v-23h-31v-77h-22zM1384 25v100h31l19 -78l18 78h29v-100h-19v77l-20 -77h-19l-20 77v-77h-19z" />
    <glyph glyph-name="ampersand" unicode="&#x26;" horiz-adv-x="1189" 
d="M713 383l-111 309q-19 0 -33 -15.5t-20 -41.5l-94 -318q-9 -29 -3.5 -39t27.5 -12q74 -4 103 19zM1384 934l-73 -340q-12 -58 -49 -84l-222 -168l17 -47q2 -12 18 -12h170l-102 -283h-203q-64 0 -90 57l-49 107q-110 -101 -165.5 -132.5t-113.5 -31.5h-174
q-75 0 -132 33.5t-82 97.5t1 156l111 375q66 212 291 212q-3 6 -10.5 21.5t-11 23.5t-11 25t-9.5 26t-6.5 27t-3 28.5t1.5 29.5q13 63 22.5 102t26.5 90t35 82t47 65t64.5 52.5t84.5 30.5t110 12h411l-80 -268h-293q-46 0 -71.5 -11t-36.5 -49l-14 -49q-6 -29 10 -76
l160 -467l67 52q28 22 31 45l55 268h268z" />
    <glyph glyph-name="quotesingle" unicode="'" horiz-adv-x="366" 
d="M336 866l139 623h297l-260 -623h-176z" />
    <glyph glyph-name="parenleft" unicode="(" 
d="M791 6q-196 0 -362.5 97.5t-263.5 264.5t-97 363t97 363t263.5 264.5t362.5 97.5t363 -97.5t264.5 -264.5t97.5 -363t-97.5 -363t-264.5 -264.5t-363 -97.5zM791 104q128 0 244 50t199 134t132 200t49 243t-49 242.5t-132 199.5t-199 133.5t-244 49.5q-169 0 -313.5 -84
t-229 -228t-84.5 -313t84.5 -313.5t229 -229t313.5 -84.5zM791 147q-118 0 -225.5 46.5t-186.5 124.5t-125.5 186.5t-46.5 226.5q0 157 79 290t213.5 210.5t291.5 77.5t291 -77.5t212 -210.5t78 -290q0 -119 -46.5 -227t-124.5 -186t-185 -124.5t-225 -46.5zM791 238
q57 0 110 20.5t94 55t70.5 69.5t52.5 74q-319 -84 -655 0q23 -39 52.5 -74t70.5 -69.5t94 -55t111 -20.5zM442 487q346 -79 699 0l110 177h-921zM715 731h155l-77 187zM602 874q7 -8 38.5 7.5t29.5 21.5q-15 29 -45.5 111t-55.5 119q-7 9 -38.5 -6t-58 -36.5t-21.5 -27.5z
M983 874l147 189q5 6 -21 27.5t-57 36.5t-38 6q-30 -39 -61 -129.5t-35 -100.5q-7 -4 19 -19q35 -19 46 -10zM1321 25v77h-31v23h84v-23h-31v-77h-22zM1384 25v100h31l19 -78l18 78h29v-100h-19v77l-20 -77h-19l-20 77v-77h-19z" />
    <glyph glyph-name="parenright" unicode=")" 
d="M791 6q-196 0 -362.5 97.5t-263.5 264.5t-97 363t97 363t263.5 264.5t362.5 97.5t363 -97.5t264.5 -264.5t97.5 -363t-97.5 -363t-264.5 -264.5t-363 -97.5zM791 104q128 0 244 50t199 134t132 200t49 243t-49 242.5t-132 199.5t-199 133.5t-244 49.5q-169 0 -313.5 -84
t-229 -228t-84.5 -313t84.5 -313.5t229 -229t313.5 -84.5zM791 147q-118 0 -225.5 46.5t-186.5 124.5t-125.5 186.5t-46.5 226.5q0 157 79 290t213.5 210.5t291.5 77.5t291 -77.5t212 -210.5t78 -290q0 -119 -46.5 -227t-124.5 -186t-185 -124.5t-225 -46.5zM791 238
q57 0 110 20.5t94 55t70.5 69.5t52.5 74q-319 -84 -655 0q23 -39 52.5 -74t70.5 -69.5t94 -55t111 -20.5zM442 487q346 -79 699 0l110 177h-921zM715 731h155l-77 187zM602 874q7 -8 38.5 7.5t29.5 21.5q-15 29 -45.5 111t-55.5 119q-7 9 -38.5 -6t-58 -36.5t-21.5 -27.5z
M983 874l147 189q5 6 -21 27.5t-57 36.5t-38 6q-30 -39 -61 -129.5t-35 -100.5q-7 -4 19 -19q35 -19 46 -10zM1321 25v77h-31v23h84v-23h-31v-77h-22zM1384 25v100h31l19 -78l18 78h29v-100h-19v77l-20 -77h-19l-20 77v-77h-19z" />
    <glyph glyph-name="asterisk" unicode="*" 
d="M791 6q-196 0 -362.5 97.5t-263.5 264.5t-97 363t97 363t263.5 264.5t362.5 97.5t363 -97.5t264.5 -264.5t97.5 -363t-97.5 -363t-264.5 -264.5t-363 -97.5zM791 104q128 0 244 50t199 134t132 200t49 243t-49 242.5t-132 199.5t-199 133.5t-244 49.5q-169 0 -313.5 -84
t-229 -228t-84.5 -313t84.5 -313.5t229 -229t313.5 -84.5zM791 147q-118 0 -225.5 46.5t-186.5 124.5t-125.5 186.5t-46.5 226.5q0 157 79 290t213.5 210.5t291.5 77.5t291 -77.5t212 -210.5t78 -290q0 -119 -46.5 -227t-124.5 -186t-185 -124.5t-225 -46.5zM791 238
q57 0 110 20.5t94 55t70.5 69.5t52.5 74q-319 -84 -655 0q23 -39 52.5 -74t70.5 -69.5t94 -55t111 -20.5zM442 487q346 -79 699 0l110 177h-921zM715 731h155l-77 187zM602 874q7 -8 38.5 7.5t29.5 21.5q-15 29 -45.5 111t-55.5 119q-7 9 -38.5 -6t-58 -36.5t-21.5 -27.5z
M983 874l147 189q5 6 -21 27.5t-57 36.5t-38 6q-30 -39 -61 -129.5t-35 -100.5q-7 -4 19 -19q35 -19 46 -10zM1321 25v77h-31v23h84v-23h-31v-77h-22zM1384 25v100h31l19 -78l18 78h29v-100h-19v77l-20 -77h-19l-20 77v-77h-19z" />
    <glyph glyph-name="plus" unicode="+" 
d="M791 6q-196 0 -362.5 97.5t-263.5 264.5t-97 363t97 363t263.5 264.5t362.5 97.5t363 -97.5t264.5 -264.5t97.5 -363t-97.5 -363t-264.5 -264.5t-363 -97.5zM791 104q128 0 244 50t199 134t132 200t49 243t-49 242.5t-132 199.5t-199 133.5t-244 49.5q-169 0 -313.5 -84
t-229 -228t-84.5 -313t84.5 -313.5t229 -229t313.5 -84.5zM791 147q-118 0 -225.5 46.5t-186.5 124.5t-125.5 186.5t-46.5 226.5q0 157 79 290t213.5 210.5t291.5 77.5t291 -77.5t212 -210.5t78 -290q0 -119 -46.5 -227t-124.5 -186t-185 -124.5t-225 -46.5zM791 238
q57 0 110 20.5t94 55t70.5 69.5t52.5 74q-319 -84 -655 0q23 -39 52.5 -74t70.5 -69.5t94 -55t111 -20.5zM442 487q346 -79 699 0l110 177h-921zM715 731h155l-77 187zM602 874q7 -8 38.5 7.5t29.5 21.5q-15 29 -45.5 111t-55.5 119q-7 9 -38.5 -6t-58 -36.5t-21.5 -27.5z
M983 874l147 189q5 6 -21 27.5t-57 36.5t-38 6q-30 -39 -61 -129.5t-35 -100.5q-7 -4 19 -19q35 -19 46 -10zM1321 25v77h-31v23h84v-23h-31v-77h-22zM1384 25v100h31l19 -78l18 78h29v-100h-19v77l-20 -77h-19l-20 77v-77h-19z" />
    <glyph glyph-name="comma" unicode="," horiz-adv-x="393" 
d="M51 0l84 283h293l-86 -283l-207 -207l64 207h-148z" />
    <glyph glyph-name="hyphen" unicode="-" horiz-adv-x="503" 
d="M236 629l77 264h402l-78 -264h-401z" />
    <glyph glyph-name="period" unicode="." horiz-adv-x="393" 
d="M51 0l84 283h293l-86 -283h-291z" />
    <glyph glyph-name="slash" unicode="/" 
d="M791 6q-196 0 -362.5 97.5t-263.5 264.5t-97 363t97 363t263.5 264.5t362.5 97.5t363 -97.5t264.5 -264.5t97.5 -363t-97.5 -363t-264.5 -264.5t-363 -97.5zM791 104q128 0 244 50t199 134t132 200t49 243t-49 242.5t-132 199.5t-199 133.5t-244 49.5q-169 0 -313.5 -84
t-229 -228t-84.5 -313t84.5 -313.5t229 -229t313.5 -84.5zM791 147q-118 0 -225.5 46.5t-186.5 124.5t-125.5 186.5t-46.5 226.5q0 157 79 290t213.5 210.5t291.5 77.5t291 -77.5t212 -210.5t78 -290q0 -119 -46.5 -227t-124.5 -186t-185 -124.5t-225 -46.5zM791 238
q57 0 110 20.5t94 55t70.5 69.5t52.5 74q-319 -84 -655 0q23 -39 52.5 -74t70.5 -69.5t94 -55t111 -20.5zM442 487q346 -79 699 0l110 177h-921zM715 731h155l-77 187zM602 874q7 -8 38.5 7.5t29.5 21.5q-15 29 -45.5 111t-55.5 119q-7 9 -38.5 -6t-58 -36.5t-21.5 -27.5z
M983 874l147 189q5 6 -21 27.5t-57 36.5t-38 6q-30 -39 -61 -129.5t-35 -100.5q-7 -4 19 -19q35 -19 46 -10zM1321 25v77h-31v23h84v-23h-31v-77h-22zM1384 25v100h31l19 -78l18 78h29v-100h-19v77l-20 -77h-19l-20 77v-77h-19z" />
    <glyph glyph-name="zero" unicode="0" horiz-adv-x="868" 
d="M1147 1122l-238 -809q-102 -350 -467 -340q-53 1 -101.5 13.5t-95.5 40.5t-73 72.5t-34 110t20 152.5l252 859q48 158 157.5 228.5t278.5 70.5q202 0 281 -99t20 -299zM594 289l262 895q14 43 2.5 67.5t-55.5 24.5q-40 0 -61 -22t-33 -64l-265 -893q-25 -83 52 -86
q40 -2 63 16.5t35 61.5z" />
    <glyph glyph-name="one" unicode="1" horiz-adv-x="518" 
d="M897 1489l-440 -1489h-320l359 1221h-140l207 268h334z" />
    <glyph glyph-name="two" unicode="2" horiz-adv-x="845" 
d="M918 713l-238 -195q-116 -94 -153 -141t-42 -94h394l-103 -283h-694q13 89 30.5 162.5t48 157t80 156t115.5 126.5l326 270q93 73 106 119l62 219q6 20 0 29.5t-27 9.5h-80q-31 0 -41 -37l-49 -168h-284l131 445h510q101 0 144.5 -56t12.5 -159l-104 -359
q-18 -57 -58 -110.5t-87 -91.5z" />
    <glyph glyph-name="three" unicode="3" horiz-adv-x="727" 
d="M692 1221h-293l78 268h430q98 0 141.5 -54t18.5 -139l-117 -395q-20 -72 -62 -106.5t-134 -40.5q43 -6 69.5 -25.5t35 -48t7 -58.5t-11.5 -61l-121 -414q-22 -74 -78.5 -110.5t-156.5 -36.5h-430l84 283h260q15 0 22 1t17 4.5t16.5 12.5t11.5 25l70 233q10 30 -0.5 50
t-42.5 20h-203l78 264h209q28 0 45 9t27 40l65 221q11 29 4 43.5t-39 14.5z" />
    <glyph glyph-name="four" unicode="4" horiz-adv-x="931" 
d="M1067 539l-66 -224h-127l-94 -315h-307l94 315h-444l90 314l578 860h430l-281 -950h127zM471 539h160l157 540l-309 -514z" />
    <glyph glyph-name="five" unicode="5" horiz-adv-x="796" 
d="M1053 1221h-334l-98 -332h208q78 0 113.5 -48t11.5 -130l-178 -607q-14 -50 -57 -77t-109 -27h-518l84 283h291q37 0 46 6.5t19 32.5l82 276q7 27 -24 27h-354l253 864h644z" />
    <glyph glyph-name="six" unicode="6" horiz-adv-x="868" 
d="M1036 750l-149 -512q-70 -238 -283 -238h-293q-120 0 -168.5 73.5t-9.5 202.5l293 998q62 215 291 215h471l-76 -268h-352q-46 0 -58 -45l-55 -191h225q116 0 155.5 -58t8.5 -177zM604 299l127 436q9 29 1 40t-40 11h-104l-146 -495q-7 -25 5.5 -34t39.5 -9h60
q26 0 38 12.5t19 38.5z" />
    <glyph glyph-name="seven" unicode="7" horiz-adv-x="774" 
d="M1176 1489l-48 -162l-608 -1327h-325l575 1221h-373l80 268h699z" />
    <glyph glyph-name="eight" unicode="8" horiz-adv-x="884" 
d="M332 942l119 399q22 74 78.5 111t156.5 37h358q99 0 144 -54.5t20 -138.5l-112 -381q-20 -72 -61.5 -106.5t-133.5 -40.5q43 -4 70 -23.5t35 -48.5t6.5 -59t-11.5 -62l-118 -409q-50 -166 -228 -166h-383q-98 0 -142 59t-17 150l116 393q20 74 63 110.5t134 39.5
q-56 7 -83 39t-24.5 71t13.5 80zM838 1249h-62q-27 0 -40 -7.5t-23 -37.5l-84 -276q-12 -28 -5 -47t38 -19h67q19 0 28 1.5t19 12t17 31.5l84 285q10 29 2 43t-41 14zM487 248h58q19 0 29.5 2t21 12.5t16.5 30.5l93 309q11 28 4 45t-39 17h-66q-26 0 -40.5 -9.5t-24.5 -40.5
l-93 -309q-10 -29 -1 -43t42 -14z" />
    <glyph glyph-name="nine" unicode="9" horiz-adv-x="872" 
d="M262 715l166 569q33 112 100 158.5t181 46.5h299q250 0 180 -246l-309 -1050q-31 -110 -95.5 -151.5t-189.5 -41.5h-467l82 283h334q28 0 42.5 9t24.5 42l43 139h-237q-108 0 -147.5 65t-6.5 177zM717 1212l-144 -483q-7 -22 3 -32.5t30 -10.5h111l157 533
q7 26 -2.5 34.5t-35.5 8.5h-58q-46 0 -61 -50z" />
    <glyph glyph-name="colon" unicode=":" horiz-adv-x="395" 
d="M272 758l84 282h293l-86 -282h-291zM51 0l84 283h293l-86 -283h-291z" />
    <glyph glyph-name="semicolon" unicode=";" horiz-adv-x="395" 
d="M272 758l84 282h293l-86 -282h-291zM51 0l84 283h293l-86 -283l-207 -207l64 207h-148z" />
    <glyph glyph-name="less" unicode="&#x3c;" horiz-adv-x="772" 
d="M1272 1810h-185l-446 -1513h184l-88 -297h-686l86 297h158l446 1513h-184l88 297h715z" />
    <glyph glyph-name="equal" unicode="=" horiz-adv-x="962" 
d="M1528 2107l-559 -1896q-34 -113 -108.5 -162t-188.5 -49h-348q-73 0 -125.5 30.5t-73.5 89.5t4 146l217 733h344l-194 -659q-16 -43 22 -43h80q33 0 47.5 14.5t26.5 59.5l422 1439h-465l188 297h711z" />
    <glyph glyph-name="greater" unicode="&#x3e;" horiz-adv-x="964" 
d="M1030 1810h-448l88 297h868l-889 -1790h373l-119 -317h-790z" />
    <glyph glyph-name="question" unicode="?" horiz-adv-x="874" 
d="M766 1270q-22 0 -30.5 -10t-16.5 -37l-53 -183h-308l95 324q9 30 23.5 52.5t35 36t37 21.5t43.5 11t41 3.5t42 0.5h13h373q97 0 131.5 -59t9.5 -142l-172 -579q-11 -40 -51.5 -71.5t-110.5 -31.5h-213l-67 -233h-287l125 424h274q50 0 64 51l106 356q12 43 6 54
q-6 12 -32 12h-78zM190 0l84 283h293l-86 -283h-291z" />
    <glyph glyph-name="at" unicode="@" horiz-adv-x="1273" 
d="M1307 285h-285q-84 -19 -164 -19q-120 0 -168 62t-16 176l133 459q19 55 70 92.5t108 52t119 14.5q97 0 156 -22l30 108q9 34 -1.5 46t-41.5 12h-467q-51 0 -61 -43l-291 -990q-15 -55 37 -55h696l-121 -178h-751q-104 0 -151 64t-19 163l307 1053q34 118 102 163.5
t170 45.5h795q71 0 105 -43.5t14 -120.5zM975 496h106l127 432h-104q-39 0 -49 -37l-105 -359q-5 -19 4 -27.5t21 -8.5z" />
    <glyph glyph-name="A" unicode="A" horiz-adv-x="1341" 
d="M1405 379l-115 -379h-346l14 45zM1389 424l-410 -303l55 184h-485l-492 -678h-407l1825 2480h436l-484 -1652l-241 368l164 568l-596 -816h358l55 183z" />
    <glyph glyph-name="B" unicode="B" horiz-adv-x="958" 
d="M635 0h-584l518 1761h344l-159 -549h118q37 0 57 13t34 59l129 445q10 38 -4.5 59.5t-51.5 21.5h-616l188 297h670q114 0 159 -68t13 -175l-207 -693q-35 -122 -172 -122q47 -4 71.5 -36.5t23.5 -81.5t-17 -110l-176 -598q-65 -223 -338 -223zM676 946l-193 -649h115
q52 0 68 53l157 535q16 61 -45 61h-102z" />
    <glyph glyph-name="C" unicode="C" horiz-adv-x="874" 
d="M1499 2107l-172 -581l-340 -78l115 387h-119q-28 0 -42 -10t-21 -37l-410 -1397q-22 -74 57 -74h373l-172 -317h-401q-61 0 -110 17.5t-84.5 54.5t-43 95.5t13.5 139.5l482 1643q27 90 79 123.5t144 33.5h651z" />
    <glyph glyph-name="D" unicode="D" horiz-adv-x="966" 
d="M672 350l407 1389q19 71 -57 71h-602l188 297h670q115 0 164 -68.5t18 -174.5l-483 -1641q-65 -223 -338 -223h-586l516 1761h344l-432 -1464h123q52 0 68 53z" />
    <glyph glyph-name="E" unicode="E" horiz-adv-x="778" 
d="M569 1761h344l-157 -538h329l-88 -303h-331l-177 -603h367l-174 -317h-631zM1341 2107l-86 -297h-835l188 297h733z" />
    <glyph glyph-name="F" unicode="F" horiz-adv-x="747" 
d="M51 0l518 1761h344l-157 -538h311l-90 -303h-311l-271 -920h-344zM1341 2107l-86 -297h-835l188 297h733z" />
    <glyph glyph-name="G" unicode="G" horiz-adv-x="980" 
d="M895 2107h551l-90 -297h-361q-37 0 -55.5 -13.5t-28.5 -51.5l-403 -1368q-12 -43 5.5 -61.5t64.5 -18.5h90l219 741h-78l96 303h414l-383 -1304l-399 -203l49 166h-137q-77 0 -139 21.5t-107 68.5t-55 120.5t18 178.5l448 1522q33 111 101 153.5t180 42.5z" />
    <glyph glyph-name="H" unicode="H" horiz-adv-x="966" 
d="M1202 1059l-407 -297l53 182h-172l-281 -944h-344l621 2107h344l-262 -893h174l55 187zM770 682l442 326l-297 -1008h-348zM1239 1096l-240 366l191 645h346z" />
    <glyph glyph-name="I" unicode="I" horiz-adv-x="772" 
d="M727 1761h346l-426 -1444h184l-94 -317h-686l92 317h158zM1272 1810h-737l122 297h703z" />
    <glyph glyph-name="J" unicode="J" horiz-adv-x="962" 
d="M1440 1810h-811l188 297h711zM1079 1761h346l-456 -1550q-34 -112 -109 -161.5t-188 -49.5h-348q-73 0 -125.5 30.5t-73.5 89.5t4 146l217 733h344l-194 -659q-16 -43 22 -43h80q33 0 47.5 14.5t26.5 59.5z" />
    <glyph glyph-name="K" unicode="K" horiz-adv-x="962" 
d="M653 870l-258 -870h-344l256 870h346zM322 920l350 1187h338l-291 -991h18l482 991h354l-514 -1013q58 -5 89 -38.5t32.5 -83t-13.5 -108.5l-256 -864h-346l248 836q14 41 2 62.5t-55 21.5h-438z" />
    <glyph glyph-name="L" unicode="L" horiz-adv-x="780" 
d="M496 317h360l-174 -317h-479q-52 0 -88.5 45t-14.5 123l572 1939h350z" />
    <glyph glyph-name="M" unicode="M" horiz-adv-x="1468" 
d="M1423 1761l-518 -1761h-344l518 1761h344zM913 1761l-518 -1761h-344l518 1761h344zM1071 0l512 1739q19 71 -57 71h-1106l188 297h1176q115 0 163 -68.5t17 -174.5l-549 -1864h-344z" />
    <glyph glyph-name="N" unicode="N" horiz-adv-x="960" 
d="M913 1761l-518 -1761h-344l518 1761h344zM561 0l512 1739q19 71 -57 71h-596l188 297h666q115 0 163 -68.5t17 -174.5l-549 -1864h-344z" />
    <glyph glyph-name="O" unicode="O" horiz-adv-x="970" 
d="M680 350l403 1389q19 71 -57 71h-606l188 297h674q115 0 164 -68.5t18 -174.5l-477 -1641q-65 -223 -338 -223h-315q-117 0 -177.5 76.5t-21.5 210.5l434 1474h344l-415 -1411q-16 -53 37 -53h83q47 0 62 53z" />
    <glyph glyph-name="P" unicode="P" horiz-adv-x="958" 
d="M664 907h122q32 0 53 17t35 63l218 742q10 38 -4.5 59.5t-51.5 21.5h-616l188 297h670q114 0 159 -68t13 -175l-297 -998q-9 -28 -16.5 -48t-22.5 -49.5t-36 -50t-49 -40.5t-69 -29.5t-90 -9.5l-284 2l-191 -641h-344l518 1761h344z" />
    <glyph glyph-name="Q" unicode="Q" horiz-adv-x="970" 
d="M236 -252l83 252q-116 0 -170 75.5t-14 211.5l434 1474h344l-415 -1411q-8 -25 2.5 -39t36.5 -14h65q58 0 72 53l409 1389q19 71 -57 71h-606l188 297h674q115 0 164 -68.5t18 -174.5l-483 -1641q-65 -223 -326 -223l-80 -252h-339z" />
    <glyph glyph-name="R" unicode="R" horiz-adv-x="958" 
d="M729 1130h123q33 0 54 17t34 63l152 519q10 38 -4.5 59.5t-51.5 21.5h-616l188 297h670q114 0 159 -68t13 -175l-231 -774q-35 -123 -172 -123q47 -4 71 -36.5t23 -81.5t-17 -110l-219 -739h-344l238 803q16 61 -45 61h-103l-256 -864h-344l518 1761h344z" />
    <glyph glyph-name="S" unicode="S" horiz-adv-x="944" 
d="M399 1176h559q126 0 182.5 -72.5t12.5 -220.5l-209 -711q-16 -54 -45 -90t-67 -53t-73.5 -23t-80.5 -6h-404q-90 0 -136.5 65t-16.5 164l102 353h326l-78 -258q-7 -24 3 -32.5t32 -8.5h78q29 0 43.5 10t21.5 37l166 561q5 12 0.5 20.5t-22.5 8.5h-469zM756 1225h-342
l209 706q15 54 42 90.5t63 54t70.5 24.5t78.5 7h636l-170 -581l-346 -78l115 387h-129q-28 0 -42 -10t-21 -37z" />
    <glyph glyph-name="T" unicode="T" horiz-adv-x="454" 
d="M573 1761h347l-521 -1761h-344zM1237 1810h-965l129 297h924z" />
    <glyph glyph-name="U" unicode="U" horiz-adv-x="960" 
d="M672 2107h344l-508 -1724q-13 -47 1.5 -66.5t61.5 -19.5h76l535 1810h344l-611 -2070l-399 -203l49 166h-155q-357 0 -254 354z" />
    <glyph glyph-name="V" unicode="V" horiz-adv-x="919" 
d="M381 0l289 2107h338l-199 -1171l451 1171h346l-895 -2107h-330z" />
    <glyph glyph-name="W" unicode="W" horiz-adv-x="1456" 
d="M381 0l278 2107h353l-168 -1054l416 1054h270l-168 -1054l405 1054h365l-922 -2107h-309l150 918l-355 -918h-315z" />
    <glyph glyph-name="X" unicode="X" horiz-adv-x="970" 
d="M1540 2107l-272 -929q-39 -128 -211 -125q80 -4 111 -60.5t8 -130.5l-256 -862h-347l258 877q9 22 0.5 38.5t-40.5 16.5h-52q-37 0 -52.5 -9t-22.5 -36l-265 -887h-348l260 879q12 37 24.5 62t36 52.5t61 42.5t89.5 17q-77 6 -104 52.5t-6 117.5l260 884h352l-260 -880
q-8 -30 3 -40.5t40 -10.5h59q29 0 45.5 11.5t24.5 45.5l256 874h348z" />
    <glyph glyph-name="Y" unicode="Y" horiz-adv-x="968" 
d="M532 2107h351l47 -807l397 807h365l-1092 -2107h-360l409 805z" />
    <glyph glyph-name="Z" unicode="Z" horiz-adv-x="964" 
d="M1544 2107l-162 -297h-800l149 297h813zM113 0l880 1761h365l-709 -1444h373l-119 -317h-790z" />
    <glyph glyph-name="bracketleft" unicode="[" horiz-adv-x="778" 
d="M100 168l572 1939h669l-86 -297h-325l-174 -587h329l-88 -303h-329l-179 -603h367l-174 -317h-479q-52 0 -88.5 45t-14.5 123z" />
    <glyph glyph-name="backslash" unicode="\" horiz-adv-x="778" 
d="M1341 2107l-86 -297h-327l-172 -587h329l-88 -303h-331l-177 -603h367l-174 -317h-475q-52 0 -90.5 45t-16.5 123l494 1675l-31 264h778z" />
    <glyph glyph-name="bracketright" unicode="]" horiz-adv-x="778" 
d="M489 317h367l-174 -317h-479q-52 2 -88.5 46t-14.5 122l469 1593h344l-157 -538h329l-88 -303h-331zM1341 2107l-86 -297h-835l188 297h733z" />
    <glyph glyph-name="asciicircum" unicode="^" horiz-adv-x="778" 
d="M51 0l619 2107h671l-86 -297h-327l-172 -587h329l-88 -303h-331l-177 -603h367l-174 -317h-631z" />
    <glyph glyph-name="underscore" unicode="_" horiz-adv-x="745" 
d="M-20 -293l77 264h668l-78 -264h-667z" />
    <glyph glyph-name="grave" unicode="`" 
d="M791 6q-196 0 -362.5 97.5t-263.5 264.5t-97 363t97 363t263.5 264.5t362.5 97.5t363 -97.5t264.5 -264.5t97.5 -363t-97.5 -363t-264.5 -264.5t-363 -97.5zM791 104q128 0 244 50t199 134t132 200t49 243t-49 242.5t-132 199.5t-199 133.5t-244 49.5q-169 0 -313.5 -84
t-229 -228t-84.5 -313t84.5 -313.5t229 -229t313.5 -84.5zM791 147q-118 0 -225.5 46.5t-186.5 124.5t-125.5 186.5t-46.5 226.5q0 157 79 290t213.5 210.5t291.5 77.5t291 -77.5t212 -210.5t78 -290q0 -119 -46.5 -227t-124.5 -186t-185 -124.5t-225 -46.5zM791 238
q57 0 110 20.5t94 55t70.5 69.5t52.5 74q-319 -84 -655 0q23 -39 52.5 -74t70.5 -69.5t94 -55t111 -20.5zM442 487q346 -79 699 0l110 177h-921zM715 731h155l-77 187zM602 874q7 -8 38.5 7.5t29.5 21.5q-15 29 -45.5 111t-55.5 119q-7 9 -38.5 -6t-58 -36.5t-21.5 -27.5z
M983 874l147 189q5 6 -21 27.5t-57 36.5t-38 6q-30 -39 -61 -129.5t-35 -100.5q-7 -4 19 -19q35 -19 46 -10zM1321 25v77h-31v23h84v-23h-31v-77h-22zM1384 25v100h31l19 -78l18 78h29v-100h-19v77l-20 -77h-19l-20 77v-77h-19z" />
    <glyph glyph-name="a" unicode="a" horiz-adv-x="929" 
d="M686 492l117 673l-271 -673h154zM342 0h-322l654 1489h440l-203 -1489h-307l47 268h-202z" />
    <glyph glyph-name="b" unicode="b" horiz-adv-x="868" 
d="M612 862h101q32 0 48.5 11.5t26.5 44.5l80 270q20 61 -41 61h-100zM51 0l438 1489h555q101 0 138 -55t12 -140l-131 -448q-12 -44 -57 -75t-117 -28q73 -4 97 -56.5t5 -117.5l-123 -411q-48 -158 -233 -158h-584zM432 248h111q26 0 40.5 10t24.5 41l88 299q18 66 -43 66
h-98z" />
    <glyph glyph-name="c" unicode="c" horiz-adv-x="823" 
d="M1217 1489l-134 -453l-299 -69l82 282h-100q-26 0 -38 -9t-19 -36l-252 -856q-10 -35 1 -50t44 -15h342l-111 -283h-403q-74 0 -126 27t-77.5 87.5t4.5 157.5l318 1078q24 79 70 109t126 30h572z" />
    <glyph glyph-name="d" unicode="d" horiz-adv-x="868" 
d="M825 1249h-98l-295 -1001h98q35 0 50.5 11.5t23.5 39.5l260 885q11 32 3 48.5t-42 16.5zM51 0l438 1489h590q79 0 113 -50.5t14 -117.5l-329 -1120q-15 -53 -36.5 -88.5t-48 -58t-68 -34.5t-86.5 -16t-114 -4h-473z" />
    <glyph glyph-name="e" unicode="e" horiz-adv-x="684" 
d="M51 0l438 1489h586l-80 -268h-274l-96 -328h268l-78 -264h-268l-103 -346h285l-102 -283h-576z" />
    <glyph glyph-name="f" unicode="f" horiz-adv-x="692" 
d="M51 0l438 1489h596l-79 -268h-285l-96 -328h280l-78 -264h-280l-185 -629h-311z" />
    <glyph glyph-name="g" unicode="g" horiz-adv-x="864" 
d="M647 1489h512l-80 -268h-319q-26 0 -39.5 -9t-20.5 -36l-256 -869q-16 -59 48 -59h104l113 381h-64l78 264h356l-245 -836l-345 -174l33 117h-190q-54 0 -97.5 15.5t-75.5 48.5t-38.5 85.5t12.5 126.5l316 1074q23 79 71 109t127 30z" />
    <glyph glyph-name="h" unicode="h" horiz-adv-x="874" 
d="M1262 1489l-439 -1489h-307l184 629h-155l-187 -629h-307l438 1489h308l-174 -596h155l176 596h308z" />
    <glyph glyph-name="i" unicode="i" horiz-adv-x="419" 
d="M807 1489l-438 -1489h-318l438 1489h318z" />
    <glyph glyph-name="j" unicode="j" horiz-adv-x="849" 
d="M111 203l131 440h286l-108 -364q-10 -31 20 -31h90q24 0 34.5 10t19.5 41l270 922h-319l110 268h592l-395 -1339q-45 -150 -209 -150h-377q-81 0 -126 55t-19 148z" />
    <glyph glyph-name="k" unicode="k" horiz-adv-x="868" 
d="M946 1489h301l-186 -633q-16 -49 -58.5 -81.5t-117.5 -31.5q72 -4 95.5 -56t4.5 -118l-168 -569h-307l170 575q10 29 1.5 44.5t-38.5 15.5h-96l-189 -635h-307l438 1489h308l-187 -635h92q56 0 74 57z" />
    <glyph glyph-name="l" unicode="l" horiz-adv-x="747" 
d="M51 0l438 1489h330l-354 -1206h336l-107 -283h-643z" />
    <glyph glyph-name="m" unicode="m" horiz-adv-x="1128" 
d="M672 362l-66 465l-246 -827h-309l438 1489h308l53 -520l348 520h320l-441 -1489h-309l244 827z" />
    <glyph glyph-name="n" unicode="n" horiz-adv-x="845" 
d="M51 0l438 1489h265l10 -576l170 576h299l-438 -1489h-248l-27 594l-178 -594h-291z" />
    <glyph glyph-name="o" unicode="o" horiz-adv-x="868" 
d="M764 1249q-36 0 -47 -37l-275 -927q-10 -37 29 -37h80q39 0 49 37l272 925q10 39 -30 39h-78zM639 1489h446q71 0 105.5 -51.5t15.5 -118.5l-342 -1161q-48 -158 -239 -158h-367q-83 0 -128.5 56t-18.5 147l335 1140q18 66 69 106t124 40z" />
    <glyph glyph-name="p" unicode="p" horiz-adv-x="843" 
d="M489 440l-129 -440h-309l438 1489h547q96 0 132 -56.5t12 -134.5l-205 -698q-14 -49 -46.5 -84.5t-77.5 -53t-91.5 -27t-100 -8.5t-92 4t-78.5 9zM555 666h111q26 0 38.5 11t22.5 46l137 465q16 61 -47 61h-90z" />
    <glyph glyph-name="q" unicode="q" horiz-adv-x="868" 
d="M248 -178l57 178h-47q-83 0 -128.5 56t-18.5 147l335 1140q18 66 69 106t124 40h446q71 0 105.5 -51.5t15.5 -118.5l-342 -1161q-48 -158 -233 -158h-58l-55 -178h-270zM764 1249q-36 0 -47 -37l-275 -927q-10 -37 29 -37h80q39 0 49 37l272 925q10 39 -30 39h-78z" />
    <glyph glyph-name="r" unicode="r" horiz-adv-x="870" 
d="M547 635l-187 -635h-309l438 1489h564q95 0 132.5 -55.5t14.5 -133.5l-149 -505q-10 -36 -44 -62t-87 -26q26 -4 44 -22.5t25 -54t-10 -87.5l-160 -543h-309l172 584q16 51 -33 51h-102zM610 854h107q53 0 71 57l82 277q19 61 -47 61h-96z" />
    <glyph glyph-name="s" unicode="s" horiz-adv-x="768" 
d="M1028 1221h-270q-43 0 -56 -43l-88 -304h166q89 0 129 -51t9 -155l-170 -578q-11 -42 -54 -66t-94 -24h-506l84 283h258q40 0 54 10.5t24 40.5l72 252q7 20 -15 20h-163q-180 0 -129 180l170 578q17 49 47 78t62 38t73 9h477z" />
    <glyph glyph-name="t" unicode="t" horiz-adv-x="792" 
d="M475 1489h721l-80 -268h-209l-354 -1221h-307l362 1221h-213z" />
    <glyph glyph-name="u" unicode="u" horiz-adv-x="866" 
d="M799 1489h-2l-346 -1178q-10 -33 3 -47t48 -14h80l364 1239h307l-422 -1432l-356 -174l35 117h-178q-80 0 -132.5 28t-75 89t8.5 159l356 1213h310z" />
    <glyph glyph-name="v" unicode="v" horiz-adv-x="839" 
d="M266 0l197 1489h309l-119 -701l283 701h317l-653 -1489h-334z" />
    <glyph glyph-name="w" unicode="w" horiz-adv-x="1243" 
d="M463 1489h309l-117 -684l283 684h238l-119 -684l282 684h318l-653 -1489h-299l88 543l-234 -543h-293z" />
    <glyph glyph-name="x" unicode="x" horiz-adv-x="890" 
d="M1270 1489l-187 -633q-36 -116 -190 -113q71 -4 99 -54.5t7 -119.5l-168 -569h-311l172 582q15 53 -39 53h-47q-34 0 -46.5 -8.5t-20.5 -34.5l-177 -592h-311l172 584q11 35 22.5 57.5t32.5 48t55 39.5t81 16q-69 0 -94 43.5t-5 108.5l174 592h312l-172 -588
q-7 -27 3.5 -37t37.5 -10h55q25 0 38.5 10.5t22.5 42.5l172 582h312z" />
    <glyph glyph-name="y" unicode="y" horiz-adv-x="886" 
d="M432 465h-80q-79 0 -109 46t-5 128l251 850h310l-221 -744q-10 -25 -4 -41t34 -16h72q29 0 41.5 10.5t21.5 40.5l222 750h309l-256 -864q-23 -79 -70.5 -119.5t-136.5 -40.5h-88l-135 -465h-291z" />
    <glyph glyph-name="z" unicode="z" horiz-adv-x="749" 
d="M705 1221h-312l80 268h678l-606 -1206h258l-107 -283h-616z" />
    <glyph glyph-name="braceleft" unicode="{" horiz-adv-x="747" 
d="M51 0l543 1843l-31 264h778l-86 -297h-327l-172 -587h311l-90 -303h-311l-271 -920h-344z" />
    <glyph glyph-name="bar" unicode="|" horiz-adv-x="778" 
d="M1341 2107l-86 -297h-327l-172 -587h331l-94 -303h-327l-177 -603h367l-174 -317h-631l543 1843l-27 264h774z" />
    <glyph glyph-name="braceright" unicode="}" horiz-adv-x="530" 
d="M426 2107h965l-88 -297h-304l-532 -1810h-346l532 1810h-315z" />
    <glyph glyph-name="asciitilde" unicode="~" horiz-adv-x="747" 
d="M1341 2107l-86 -297h-327l-172 -587h311l-90 -303h-311l-267 -920h-348l621 2107h669z" />
    <glyph glyph-name="exclamdown" unicode="&#xa1;" 
d="M791 6q-196 0 -362.5 97.5t-263.5 264.5t-97 363t97 363t263.5 264.5t362.5 97.5t363 -97.5t264.5 -264.5t97.5 -363t-97.5 -363t-264.5 -264.5t-363 -97.5zM791 104q128 0 244 50t199 134t132 200t49 243t-49 242.5t-132 199.5t-199 133.5t-244 49.5q-169 0 -313.5 -84
t-229 -228t-84.5 -313t84.5 -313.5t229 -229t313.5 -84.5zM791 147q-118 0 -225.5 46.5t-186.5 124.5t-125.5 186.5t-46.5 226.5q0 157 79 290t213.5 210.5t291.5 77.5t291 -77.5t212 -210.5t78 -290q0 -119 -46.5 -227t-124.5 -186t-185 -124.5t-225 -46.5zM791 238
q57 0 110 20.5t94 55t70.5 69.5t52.5 74q-319 -84 -655 0q23 -39 52.5 -74t70.5 -69.5t94 -55t111 -20.5zM442 487q346 -79 699 0l110 177h-921zM715 731h155l-77 187zM602 874q7 -8 38.5 7.5t29.5 21.5q-15 29 -45.5 111t-55.5 119q-7 9 -38.5 -6t-58 -36.5t-21.5 -27.5z
M983 874l147 189q5 6 -21 27.5t-57 36.5t-38 6q-30 -39 -61 -129.5t-35 -100.5q-7 -4 19 -19q35 -19 46 -10zM1321 25v77h-31v23h84v-23h-31v-77h-22zM1384 25v100h31l19 -78l18 78h29v-100h-19v77l-20 -77h-19l-20 77v-77h-19z" />
    <glyph glyph-name="cent" unicode="&#xa2;" 
d="M791 6q-196 0 -362.5 97.5t-263.5 264.5t-97 363t97 363t263.5 264.5t362.5 97.5t363 -97.5t264.5 -264.5t97.5 -363t-97.5 -363t-264.5 -264.5t-363 -97.5zM791 104q128 0 244 50t199 134t132 200t49 243t-49 242.5t-132 199.5t-199 133.5t-244 49.5q-169 0 -313.5 -84
t-229 -228t-84.5 -313t84.5 -313.5t229 -229t313.5 -84.5zM791 147q-118 0 -225.5 46.5t-186.5 124.5t-125.5 186.5t-46.5 226.5q0 157 79 290t213.5 210.5t291.5 77.5t291 -77.5t212 -210.5t78 -290q0 -119 -46.5 -227t-124.5 -186t-185 -124.5t-225 -46.5zM791 238
q57 0 110 20.5t94 55t70.5 69.5t52.5 74q-319 -84 -655 0q23 -39 52.5 -74t70.5 -69.5t94 -55t111 -20.5zM442 487q346 -79 699 0l110 177h-921zM715 731h155l-77 187zM602 874q7 -8 38.5 7.5t29.5 21.5q-15 29 -45.5 111t-55.5 119q-7 9 -38.5 -6t-58 -36.5t-21.5 -27.5z
M983 874l147 189q5 6 -21 27.5t-57 36.5t-38 6q-30 -39 -61 -129.5t-35 -100.5q-7 -4 19 -19q35 -19 46 -10zM1321 25v77h-31v23h84v-23h-31v-77h-22zM1384 25v100h31l19 -78l18 78h29v-100h-19v77l-20 -77h-19l-20 77v-77h-19z" />
    <glyph glyph-name="sterling" unicode="&#xa3;" 
d="M791 6q-196 0 -362.5 97.5t-263.5 264.5t-97 363t97 363t263.5 264.5t362.5 97.5t363 -97.5t264.5 -264.5t97.5 -363t-97.5 -363t-264.5 -264.5t-363 -97.5zM791 104q128 0 244 50t199 134t132 200t49 243t-49 242.5t-132 199.5t-199 133.5t-244 49.5q-169 0 -313.5 -84
t-229 -228t-84.5 -313t84.5 -313.5t229 -229t313.5 -84.5zM791 147q-118 0 -225.5 46.5t-186.5 124.5t-125.5 186.5t-46.5 226.5q0 157 79 290t213.5 210.5t291.5 77.5t291 -77.5t212 -210.5t78 -290q0 -119 -46.5 -227t-124.5 -186t-185 -124.5t-225 -46.5zM791 238
q57 0 110 20.5t94 55t70.5 69.5t52.5 74q-319 -84 -655 0q23 -39 52.5 -74t70.5 -69.5t94 -55t111 -20.5zM442 487q346 -79 699 0l110 177h-921zM715 731h155l-77 187zM602 874q7 -8 38.5 7.5t29.5 21.5q-15 29 -45.5 111t-55.5 119q-7 9 -38.5 -6t-58 -36.5t-21.5 -27.5z
M983 874l147 189q5 6 -21 27.5t-57 36.5t-38 6q-30 -39 -61 -129.5t-35 -100.5q-7 -4 19 -19q35 -19 46 -10zM1321 25v77h-31v23h84v-23h-31v-77h-22zM1384 25v100h31l19 -78l18 78h29v-100h-19v77l-20 -77h-19l-20 77v-77h-19z" />
    <glyph glyph-name="currency" unicode="&#xa4;" 
d="M791 6q-196 0 -362.5 97.5t-263.5 264.5t-97 363t97 363t263.5 264.5t362.5 97.5t363 -97.5t264.5 -264.5t97.5 -363t-97.5 -363t-264.5 -264.5t-363 -97.5zM791 104q128 0 244 50t199 134t132 200t49 243t-49 242.5t-132 199.5t-199 133.5t-244 49.5q-169 0 -313.5 -84
t-229 -228t-84.5 -313t84.5 -313.5t229 -229t313.5 -84.5zM791 147q-118 0 -225.5 46.5t-186.5 124.5t-125.5 186.5t-46.5 226.5q0 157 79 290t213.5 210.5t291.5 77.5t291 -77.5t212 -210.5t78 -290q0 -119 -46.5 -227t-124.5 -186t-185 -124.5t-225 -46.5zM791 238
q57 0 110 20.5t94 55t70.5 69.5t52.5 74q-319 -84 -655 0q23 -39 52.5 -74t70.5 -69.5t94 -55t111 -20.5zM442 487q346 -79 699 0l110 177h-921zM715 731h155l-77 187zM602 874q7 -8 38.5 7.5t29.5 21.5q-15 29 -45.5 111t-55.5 119q-7 9 -38.5 -6t-58 -36.5t-21.5 -27.5z
M983 874l147 189q5 6 -21 27.5t-57 36.5t-38 6q-30 -39 -61 -129.5t-35 -100.5q-7 -4 19 -19q35 -19 46 -10zM1321 25v77h-31v23h84v-23h-31v-77h-22zM1384 25v100h31l19 -78l18 78h29v-100h-19v77l-20 -77h-19l-20 77v-77h-19z" />
    <glyph glyph-name="yen" unicode="&#xa5;" horiz-adv-x="966" 
d="M1536 2107l-621 -2107h-344l277 944h-172l-281 -944h-344l621 2107h344l-260 -893h172l264 893h344z" />
    <glyph glyph-name="brokenbar" unicode="&#xa6;" horiz-adv-x="1241" 
d="M768 514l-10 729l-365 -1243h-342l621 2107h336l8 -737l444 737h350l-622 -2107h-344l366 1243z" />
    <glyph glyph-name="section" unicode="&#xa7;" horiz-adv-x="968" 
d="M831 1479l-436 -1479h-344l623 2107h280l123 -415l123 415h340l-622 -2107h-340l354 1198z" />
    <glyph glyph-name="dieresis" unicode="&#xa8;" 
d="M791 6q-196 0 -362.5 97.5t-263.5 264.5t-97 363t97 363t263.5 264.5t362.5 97.5t363 -97.5t264.5 -264.5t97.5 -363t-97.5 -363t-264.5 -264.5t-363 -97.5zM791 104q128 0 244 50t199 134t132 200t49 243t-49 242.5t-132 199.5t-199 133.5t-244 49.5q-169 0 -313.5 -84
t-229 -228t-84.5 -313t84.5 -313.5t229 -229t313.5 -84.5zM791 147q-118 0 -225.5 46.5t-186.5 124.5t-125.5 186.5t-46.5 226.5q0 157 79 290t213.5 210.5t291.5 77.5t291 -77.5t212 -210.5t78 -290q0 -119 -46.5 -227t-124.5 -186t-185 -124.5t-225 -46.5zM791 238
q57 0 110 20.5t94 55t70.5 69.5t52.5 74q-319 -84 -655 0q23 -39 52.5 -74t70.5 -69.5t94 -55t111 -20.5zM442 487q346 -79 699 0l110 177h-921zM715 731h155l-77 187zM602 874q7 -8 38.5 7.5t29.5 21.5q-15 29 -45.5 111t-55.5 119q-7 9 -38.5 -6t-58 -36.5t-21.5 -27.5z
M983 874l147 189q5 6 -21 27.5t-57 36.5t-38 6q-30 -39 -61 -129.5t-35 -100.5q-7 -4 19 -19q35 -19 46 -10zM1321 25v77h-31v23h84v-23h-31v-77h-22zM1384 25v100h31l19 -78l18 78h29v-100h-19v77l-20 -77h-19l-20 77v-77h-19z" />
    <glyph glyph-name="copyright" unicode="&#xa9;" horiz-adv-x="1675" 
d="M840 1489q202 0 374 -96.5t275.5 -270t103.5 -385.5q0 -161 -61 -303t-163 -241t-240 -156t-289 -57q-204 0 -377 96.5t-277 271t-104 389.5q0 159 61 300t164 239.5t242 155.5t291 57zM840 1362q-169 0 -308 -81.5t-219 -225t-80 -318.5q0 -134 47 -251.5t128 -200
t193 -129.5t239 -47q125 0 236.5 47t191.5 129.5t127 200t47 251.5q0 175 -79.5 318.5t-217.5 225t-305 81.5zM1098 596h135q-29 -148 -129.5 -235t-239.5 -87q-198 0 -320 132t-122 333q0 202 118.5 330.5t317.5 128.5q147 0 249.5 -82.5t123.5 -230.5h-133
q-17 84 -81.5 134t-156.5 50q-134 0 -210.5 -92.5t-76.5 -235.5q0 -139 81 -238.5t210 -99.5q93 0 157.5 53t76.5 140z" />
    <glyph glyph-name="ordfeminine" unicode="&#xaa;" horiz-adv-x="878" 
d="M717 1212l-96 -319h163l105 356h-125q-36 0 -47 -37zM827 0h-305l187 629h-164l-187 -629h-307l398 1350q19 64 71.5 101.5t124.5 37.5h621z" />
    <glyph glyph-name="guillemotleft" unicode="&#xab;" horiz-adv-x="968" 
d="M913 1759l-159 -545h180l172 596h-125q-54 0 -68 -51zM918 0h-347l279 938h-178l-277 -938h-344l563 1911q26 91 101 143.5t178 52.5h645z" />
    <glyph glyph-name="logicalnot" unicode="&#xac;" horiz-adv-x="1081" 
d="M1649 2109l-553 -991l-29 -1118h-322l29 770l-379 -770h-344l602 1137l-20 972h332l-19 -702l359 702h344z" />
    <glyph glyph-name="uni00AD" unicode="&#xad;" horiz-adv-x="923" 
d="M1012 1489h317l-407 -698l-17 -791h-293l13 535l-260 -535h-318l428 807l-18 682h299l-2 -483z" />
    <glyph glyph-name="registered" unicode="&#xae;" horiz-adv-x="1695" 
d="M852 1509q151 0 290.5 -57.5t243.5 -157t166 -242t62 -302.5q0 -164 -62 -309t-166 -245t-243 -158t-291 -58q-155 0 -296 58t-245.5 158t-166.5 244.5t-62 309.5q0 161 62 303t166.5 241.5t246 157t295.5 57.5zM852 1380q-173 0 -314 -82t-221.5 -226.5t-80.5 -321.5
q0 -183 80.5 -329.5t221.5 -228t314 -81.5q127 0 239 48t193.5 131.5t128.5 203t47 256.5q0 177 -80 321.5t-219.5 226.5t-308.5 82zM686 688v-383h-129v883h334q154 0 229.5 -61t75.5 -189q-3 -113 -62.5 -173t-160.5 -73l248 -387h-148l-235 383h-152zM686 797h164
q39 0 65.5 2t57.5 10.5t49 24t30.5 44t12.5 68.5q0 137 -193 137h-186v-286z" />
    <glyph glyph-name="macron" unicode="&#xaf;" horiz-adv-x="1695" 
d="M1358 1769l6 -264q-181 -17 -342.5 -99t-278.5 -208.5t-185.5 -296.5t-68.5 -356q0 -197 76.5 -376t206 -308t308 -205t374.5 -76q207 0 390.5 80.5t318.5 224.5h331q-167 -261 -442 -415t-598 -154q-250 0 -477.5 97.5t-392 262t-262 392t-97.5 477.5q0 238 88.5 456
t240 380t361 266t443.5 122z" />
    <glyph glyph-name="degree" unicode="&#xb0;" horiz-adv-x="980" 
d="M518 684h-80q-90 0 -123.5 49.5t-7.5 140.5l365 1233h342l-328 -1110q-11 -31 -3.5 -49t40.5 -18h78q31 0 44.5 12t26.5 45l330 1120h344l-368 -1249q-26 -87 -79.5 -130.5t-154.5 -43.5h-90l-201 -684h-336z" />
    <glyph glyph-name="plusminus" unicode="&#xb1;" horiz-adv-x="1853" 
d="M1454 0l94 305h-487l-492 -678h-407l1833 2480h428l-621 -2107h-348zM1626 575l260 859l-620 -859h360zM709 -268l151 213q263 -207 596 -207q284 0 514 147h400q-170 -192 -407.5 -300.5t-506.5 -108.5q-207 0 -398 67t-349 189zM590 285l-174 -228q-180 291 -180 639
q0 166 44 325t122.5 293t191 247t246.5 191.5t292 122.5t324 44q116 0 238 -23l-178 -241q-203 13 -391.5 -58t-325.5 -200.5t-219 -313t-82 -387.5q0 -216 92 -411z" />
    <glyph glyph-name="twosuperior" unicode="&#xb2;" horiz-adv-x="1748" 
d="M1552 0l43 305h-473l-381 -678h-407l1407 2480h436l-270 -2107h-355zM1632 575l135 904l-483 -904h348zM618 225l-145 -252q-237 321 -237 723q0 169 45 329.5t125.5 296.5t197 249.5t255 191.5t303.5 119.5t339 36.5l-153 -268q-177 -20 -334.5 -102.5t-270.5 -208.5
t-179 -293.5t-66 -350.5q0 -257 120 -471zM817 -344l125 229q235 -147 514 -147t514 147h400q-170 -192 -407.5 -300.5t-506.5 -108.5q-348 0 -639 180z" />
    <glyph glyph-name="threesuperior" unicode="&#xb3;" horiz-adv-x="2021" 
d="M1970 2107v-2107h-338v305h-497l-338 -743h-369l1161 2545h381zM1260 575h372v820zM653 172l-125 -268q-139 164 -215.5 367.5t-76.5 424.5q0 237 90 455t242.5 380.5t364 265.5t445.5 120l-131 -287q-213 -48 -383 -181.5t-268 -331t-98 -421.5q0 -140 41 -276t114 -248
zM1964 -115h401q-171 -191 -407.5 -300t-501.5 -109q-309 0 -577 145l108 242q214 -125 469 -125q268 0 508 147z" />
    <glyph glyph-name="acute" unicode="&#xb4;" 
d="M791 6q-196 0 -362.5 97.5t-263.5 264.5t-97 363t97 363t263.5 264.5t362.5 97.5t363 -97.5t264.5 -264.5t97.5 -363t-97.5 -363t-264.5 -264.5t-363 -97.5zM791 104q128 0 244 50t199 134t132 200t49 243t-49 242.5t-132 199.5t-199 133.5t-244 49.5q-169 0 -313.5 -84
t-229 -228t-84.5 -313t84.5 -313.5t229 -229t313.5 -84.5zM791 147q-118 0 -225.5 46.5t-186.5 124.5t-125.5 186.5t-46.5 226.5q0 157 79 290t213.5 210.5t291.5 77.5t291 -77.5t212 -210.5t78 -290q0 -119 -46.5 -227t-124.5 -186t-185 -124.5t-225 -46.5zM791 238
q57 0 110 20.5t94 55t70.5 69.5t52.5 74q-319 -84 -655 0q23 -39 52.5 -74t70.5 -69.5t94 -55t111 -20.5zM442 487q346 -79 699 0l110 177h-921zM715 731h155l-77 187zM602 874q7 -8 38.5 7.5t29.5 21.5q-15 29 -45.5 111t-55.5 119q-7 9 -38.5 -6t-58 -36.5t-21.5 -27.5z
M983 874l147 189q5 6 -21 27.5t-57 36.5t-38 6q-30 -39 -61 -129.5t-35 -100.5q-7 -4 19 -19q35 -19 46 -10zM1321 25v77h-31v23h84v-23h-31v-77h-22zM1384 25v100h31l19 -78l18 78h29v-100h-19v77l-20 -77h-19l-20 77v-77h-19z" />
    <glyph glyph-name="mu" unicode="&#xb5;" horiz-adv-x="931" 
d="M1139 879l-207 -707q-16 -54 -45 -90t-67 -53t-73.5 -23t-80.5 -6h-412q-89 0 -129.5 55.5t-11.5 151.5l110 375h320l-78 -265q-13 -45 29 -45h73q29 0 44 10t22 37l160 547q5 12 0 20.5t-23 8.5h-197q-261 0 -188 252l231 784q20 71 64 112t89 52.5t105 11.5h613
l-172 -581l-340 -78l117 387h-119q-28 0 -42.5 -10t-21.5 -37l-184 -617h217q82 0 135 -29.5t73.5 -94.5t-11.5 -168z" />
    <glyph glyph-name="mu" unicode="&#x3bc;" horiz-adv-x="931" 
d="M1139 879l-207 -707q-16 -54 -45 -90t-67 -53t-73.5 -23t-80.5 -6h-412q-89 0 -129.5 55.5t-11.5 151.5l110 375h320l-78 -265q-13 -45 29 -45h73q29 0 44 10t22 37l160 547q5 12 0 20.5t-23 8.5h-197q-261 0 -188 252l231 784q20 71 64 112t89 52.5t105 11.5h613
l-172 -581l-340 -78l117 387h-119q-28 0 -42.5 -10t-21.5 -37l-184 -617h217q82 0 135 -29.5t73.5 -94.5t-11.5 -168z" />
    <glyph glyph-name="paragraph" unicode="&#xb6;" horiz-adv-x="925" 
d="M1323 1810h-334q-63 0 -80 -61l-155 -532h200q134 0 183 -77t12 -204l-236 -805q-38 -131 -206 -131h-551l94 317h282q56 0 76.5 13t32.5 57l147 494q6 15 2.5 22.5t-22.5 7.5h-199q-127 0 -170 63t-8 179l227 774q27 91 95.5 135.5t167.5 44.5h530z" />
    <glyph glyph-name="periodcentered" unicode="&#xb7;" 
d="M791 6q-196 0 -362.5 97.5t-263.5 264.5t-97 363t97 363t263.5 264.5t362.5 97.5t363 -97.5t264.5 -264.5t97.5 -363t-97.5 -363t-264.5 -264.5t-363 -97.5zM791 104q128 0 244 50t199 134t132 200t49 243t-49 242.5t-132 199.5t-199 133.5t-244 49.5q-169 0 -313.5 -84
t-229 -228t-84.5 -313t84.5 -313.5t229 -229t313.5 -84.5zM791 147q-118 0 -225.5 46.5t-186.5 124.5t-125.5 186.5t-46.5 226.5q0 157 79 290t213.5 210.5t291.5 77.5t291 -77.5t212 -210.5t78 -290q0 -119 -46.5 -227t-124.5 -186t-185 -124.5t-225 -46.5zM791 238
q57 0 110 20.5t94 55t70.5 69.5t52.5 74q-319 -84 -655 0q23 -39 52.5 -74t70.5 -69.5t94 -55t111 -20.5zM442 487q346 -79 699 0l110 177h-921zM715 731h155l-77 187zM602 874q7 -8 38.5 7.5t29.5 21.5q-15 29 -45.5 111t-55.5 119q-7 9 -38.5 -6t-58 -36.5t-21.5 -27.5z
M983 874l147 189q5 6 -21 27.5t-57 36.5t-38 6q-30 -39 -61 -129.5t-35 -100.5q-7 -4 19 -19q35 -19 46 -10zM1321 25v77h-31v23h84v-23h-31v-77h-22zM1384 25v100h31l19 -78l18 78h29v-100h-19v77l-20 -77h-19l-20 77v-77h-19z" />
    <glyph glyph-name="cedilla" unicode="&#xb8;" horiz-adv-x="1640" 
d="M1346 1772l-82 -279q-218 -45 -394 -180t-277 -336.5t-101 -429.5q0 -157 49 -304.5t138 -267t207.5 -209.5t265 -139t302.5 -49q205 0 387 81t320 226h333q-171 -262 -445.5 -415.5t-594.5 -153.5q-166 0 -325.5 44.5t-294 124t-248 193.5t-193 249t-124 294.5
t-44.5 325.5q0 235 88 452t237.5 379.5t357 267.5t438.5 126z" />
    <glyph glyph-name="onesuperior" unicode="&#xb9;" horiz-adv-x="1640" 
d="M2163 -115h331q-167 -261 -442 -415t-598 -154q-250 0 -477.5 97.5t-392 262t-262 392t-97.5 477.5q0 245 93 468.5t250.5 387t375.5 264.5t459 111l-37 -267q-182 -17 -344 -99t-279 -209t-185.5 -298t-68.5 -358q0 -197 76.5 -376t206 -308t308 -205t374.5 -76
q207 0 390.5 80.5t318.5 224.5z" />
    <glyph glyph-name="ordmasculine" unicode="&#xba;" horiz-adv-x="1861" 
d="M2163 -115h331q-167 -261 -442 -415t-598 -154q-250 0 -477.5 97.5t-392 262t-262 392t-97.5 477.5q0 237 87 454.5t236 379.5t355 267t436 126l23 -263q-145 -14 -278.5 -69.5t-240.5 -145t-187 -204.5t-123.5 -255.5t-43.5 -289.5q0 -197 76.5 -376t206 -308t308 -205
t374.5 -76q207 0 390.5 80.5t318.5 224.5z" />
    <glyph glyph-name="guillemotright" unicode="&#xbb;" horiz-adv-x="1695" 
d="M1397 1776l-140 -283q-218 -46 -392.5 -180.5t-275 -336t-100.5 -431.5q0 -197 76.5 -376t206 -308t308 -205t374.5 -76q207 0 390.5 80.5t318.5 224.5h331q-167 -261 -442 -415t-598 -154q-250 0 -477.5 97.5t-392 262t-262 392t-97.5 477.5q0 163 42 319t117 289
t183 245.5t236.5 193t280.5 129t313 55.5z" />
    <glyph glyph-name="onequarter" unicode="&#xbc;" horiz-adv-x="1853" 
d="M709 -268l151 213q263 -207 596 -207q284 0 514 147h400q-170 -192 -407.5 -300.5t-506.5 -108.5q-207 0 -398 67t-349 189zM590 285l-174 -228q-180 291 -180 639q0 166 44 325t122.5 293t191 247t246.5 191.5t292 122.5t324 44q116 0 238 -23l-178 -241
q-203 13 -391.5 -58t-325.5 -200.5t-219 -313t-82 -387.5q0 -216 92 -411zM1917 379l-115 -379h-346l14 45zM1901 424l-410 -303l55 184h-485l-492 -678h-407l1825 2480h436l-484 -1652l-241 368l164 568l-596 -816h358l55 183z" />
    <glyph glyph-name="onehalf" unicode="&#xbd;" horiz-adv-x="1748" 
d="M618 225l-145 -252q-237 321 -237 723q0 169 45 329.5t125.5 296.5t197 249.5t255 191.5t303.5 119.5t339 36.5l-153 -268q-177 -20 -334.5 -102.5t-270.5 -208.5t-179 -293.5t-66 -350.5q0 -257 120 -471zM817 -344l125 229q235 -147 514 -147t514 147h400
q-170 -192 -407.5 -300.5t-506.5 -108.5q-348 0 -639 180zM1956 379l-49 -379h-344l6 43zM1931 424l-356 -305l24 186h-477l-381 -678h-407l1407 2480h436l-211 -1648l-305 368l65 572l-442 -824h346l23 183z" />
    <glyph glyph-name="threequarters" unicode="&#xbe;" horiz-adv-x="2021" 
d="M653 172l-125 -268q-139 164 -215.5 367.5t-76.5 424.5q0 237 90 455t242.5 380.5t364 265.5t445.5 120l-131 -287q-213 -48 -383 -181.5t-268 -331t-98 -421.5q0 -140 41 -276t114 -248zM1964 -115h401q-171 -191 -407.5 -300t-501.5 -109q-309 0 -577 145l108 242
q214 -125 469 -125q268 0 508 147zM1970 410v-410h-338v49zM1933 438l-301 -319v186h-497l-338 -743h-369l1161 2545h381v-1638l-338 362v564l-372 -820h372v185z" />
    <glyph glyph-name="questiondown" unicode="&#xbf;" 
d="M791 6q-196 0 -362.5 97.5t-263.5 264.5t-97 363t97 363t263.5 264.5t362.5 97.5t363 -97.5t264.5 -264.5t97.5 -363t-97.5 -363t-264.5 -264.5t-363 -97.5zM791 104q128 0 244 50t199 134t132 200t49 243t-49 242.5t-132 199.5t-199 133.5t-244 49.5q-169 0 -313.5 -84
t-229 -228t-84.5 -313t84.5 -313.5t229 -229t313.5 -84.5zM791 147q-118 0 -225.5 46.5t-186.5 124.5t-125.5 186.5t-46.5 226.5q0 157 79 290t213.5 210.5t291.5 77.5t291 -77.5t212 -210.5t78 -290q0 -119 -46.5 -227t-124.5 -186t-185 -124.5t-225 -46.5zM791 238
q57 0 110 20.5t94 55t70.5 69.5t52.5 74q-319 -84 -655 0q23 -39 52.5 -74t70.5 -69.5t94 -55t111 -20.5zM442 487q346 -79 699 0l110 177h-921zM715 731h155l-77 187zM602 874q7 -8 38.5 7.5t29.5 21.5q-15 29 -45.5 111t-55.5 119q-7 9 -38.5 -6t-58 -36.5t-21.5 -27.5z
M983 874l147 189q5 6 -21 27.5t-57 36.5t-38 6q-30 -39 -61 -129.5t-35 -100.5q-7 -4 19 -19q35 -19 46 -10zM1321 25v77h-31v23h84v-23h-31v-77h-22zM1384 25v100h31l19 -78l18 78h29v-100h-19v77l-20 -77h-19l-20 77v-77h-19z" />
    <glyph glyph-name="Agrave" unicode="&#xc0;" horiz-adv-x="747" 
d="M-57 -373l651 2216l-31 264h778l-86 -297h-327l-172 -587h311l-90 -303h-311l-379 -1293h-344z" />
    <glyph glyph-name="Aacute" unicode="&#xc1;" horiz-adv-x="747" 
d="M1341 2107l-86 -297h-327l-172 -587h311l-90 -303h-311l-377 -1293h-348l731 2480h669z" />
    <glyph glyph-name="Acircumflex" unicode="&#xc2;" horiz-adv-x="530" 
d="M426 2107h965l-88 -297h-304l-643 -2183h-346l643 2183h-315z" />
    <glyph glyph-name="Atilde" unicode="&#xc3;" horiz-adv-x="980" 
d="M518 684h-80q-90 0 -123.5 49.5t-7.5 140.5l365 1233h342l-328 -1110q-11 -31 -3.5 -49t40.5 -18h78q31 0 44.5 12t26.5 45l330 1120h344l-368 -1249q-26 -87 -79.5 -130.5t-154.5 -43.5h-90l-309 -1057h-336z" />
    <glyph glyph-name="Adieresis" unicode="&#xc4;" 
d="M791 6q-196 0 -362.5 97.5t-263.5 264.5t-97 363t97 363t263.5 264.5t362.5 97.5t363 -97.5t264.5 -264.5t97.5 -363t-97.5 -363t-264.5 -264.5t-363 -97.5zM791 104q128 0 244 50t199 134t132 200t49 243t-49 242.5t-132 199.5t-199 133.5t-244 49.5q-169 0 -313.5 -84
t-229 -228t-84.5 -313t84.5 -313.5t229 -229t313.5 -84.5zM791 147q-118 0 -225.5 46.5t-186.5 124.5t-125.5 186.5t-46.5 226.5q0 157 79 290t213.5 210.5t291.5 77.5t291 -77.5t212 -210.5t78 -290q0 -119 -46.5 -227t-124.5 -186t-185 -124.5t-225 -46.5zM791 238
q57 0 110 20.5t94 55t70.5 69.5t52.5 74q-319 -84 -655 0q23 -39 52.5 -74t70.5 -69.5t94 -55t111 -20.5zM442 487q346 -79 699 0l110 177h-921zM715 731h155l-77 187zM602 874q7 -8 38.5 7.5t29.5 21.5q-15 29 -45.5 111t-55.5 119q-7 9 -38.5 -6t-58 -36.5t-21.5 -27.5z
M983 874l147 189q5 6 -21 27.5t-57 36.5t-38 6q-30 -39 -61 -129.5t-35 -100.5q-7 -4 19 -19q35 -19 46 -10zM1321 25v77h-31v23h84v-23h-31v-77h-22zM1384 25v100h31l19 -78l18 78h29v-100h-19v77l-20 -77h-19l-20 77v-77h-19z" />
    <glyph glyph-name="Aring" unicode="&#xc5;" 
d="M791 6q-196 0 -362.5 97.5t-263.5 264.5t-97 363t97 363t263.5 264.5t362.5 97.5t363 -97.5t264.5 -264.5t97.5 -363t-97.5 -363t-264.5 -264.5t-363 -97.5zM791 104q128 0 244 50t199 134t132 200t49 243t-49 242.5t-132 199.5t-199 133.5t-244 49.5q-169 0 -313.5 -84
t-229 -228t-84.5 -313t84.5 -313.5t229 -229t313.5 -84.5zM791 147q-118 0 -225.5 46.5t-186.5 124.5t-125.5 186.5t-46.5 226.5q0 157 79 290t213.5 210.5t291.5 77.5t291 -77.5t212 -210.5t78 -290q0 -119 -46.5 -227t-124.5 -186t-185 -124.5t-225 -46.5zM791 238
q57 0 110 20.5t94 55t70.5 69.5t52.5 74q-319 -84 -655 0q23 -39 52.5 -74t70.5 -69.5t94 -55t111 -20.5zM442 487q346 -79 699 0l110 177h-921zM715 731h155l-77 187zM602 874q7 -8 38.5 7.5t29.5 21.5q-15 29 -45.5 111t-55.5 119q-7 9 -38.5 -6t-58 -36.5t-21.5 -27.5z
M983 874l147 189q5 6 -21 27.5t-57 36.5t-38 6q-30 -39 -61 -129.5t-35 -100.5q-7 -4 19 -19q35 -19 46 -10zM1321 25v77h-31v23h84v-23h-31v-77h-22zM1384 25v100h31l19 -78l18 78h29v-100h-19v77l-20 -77h-19l-20 77v-77h-19z" />
    <glyph glyph-name="AE" unicode="&#xc6;" 
d="M791 6q-196 0 -362.5 97.5t-263.5 264.5t-97 363t97 363t263.5 264.5t362.5 97.5t363 -97.5t264.5 -264.5t97.5 -363t-97.5 -363t-264.5 -264.5t-363 -97.5zM791 104q128 0 244 50t199 134t132 200t49 243t-49 242.5t-132 199.5t-199 133.5t-244 49.5q-169 0 -313.5 -84
t-229 -228t-84.5 -313t84.5 -313.5t229 -229t313.5 -84.5zM791 147q-118 0 -225.5 46.5t-186.5 124.5t-125.5 186.5t-46.5 226.5q0 157 79 290t213.5 210.5t291.5 77.5t291 -77.5t212 -210.5t78 -290q0 -119 -46.5 -227t-124.5 -186t-185 -124.5t-225 -46.5zM791 238
q57 0 110 20.5t94 55t70.5 69.5t52.5 74q-319 -84 -655 0q23 -39 52.5 -74t70.5 -69.5t94 -55t111 -20.5zM442 487q346 -79 699 0l110 177h-921zM715 731h155l-77 187zM602 874q7 -8 38.5 7.5t29.5 21.5q-15 29 -45.5 111t-55.5 119q-7 9 -38.5 -6t-58 -36.5t-21.5 -27.5z
M983 874l147 189q5 6 -21 27.5t-57 36.5t-38 6q-30 -39 -61 -129.5t-35 -100.5q-7 -4 19 -19q35 -19 46 -10zM1321 25v77h-31v23h84v-23h-31v-77h-22zM1384 25v100h31l19 -78l18 78h29v-100h-19v77l-20 -77h-19l-20 77v-77h-19z" />
    <glyph glyph-name="Ccedilla" unicode="&#xc7;" 
d="M791 6q-196 0 -362.5 97.5t-263.5 264.5t-97 363t97 363t263.5 264.5t362.5 97.5t363 -97.5t264.5 -264.5t97.5 -363t-97.5 -363t-264.5 -264.5t-363 -97.5zM791 104q128 0 244 50t199 134t132 200t49 243t-49 242.5t-132 199.5t-199 133.5t-244 49.5q-169 0 -313.5 -84
t-229 -228t-84.5 -313t84.5 -313.5t229 -229t313.5 -84.5zM791 147q-118 0 -225.5 46.5t-186.5 124.5t-125.5 186.5t-46.5 226.5q0 157 79 290t213.5 210.5t291.5 77.5t291 -77.5t212 -210.5t78 -290q0 -119 -46.5 -227t-124.5 -186t-185 -124.5t-225 -46.5zM791 238
q57 0 110 20.5t94 55t70.5 69.5t52.5 74q-319 -84 -655 0q23 -39 52.5 -74t70.5 -69.5t94 -55t111 -20.5zM442 487q346 -79 699 0l110 177h-921zM715 731h155l-77 187zM602 874q7 -8 38.5 7.5t29.5 21.5q-15 29 -45.5 111t-55.5 119q-7 9 -38.5 -6t-58 -36.5t-21.5 -27.5z
M983 874l147 189q5 6 -21 27.5t-57 36.5t-38 6q-30 -39 -61 -129.5t-35 -100.5q-7 -4 19 -19q35 -19 46 -10zM1321 25v77h-31v23h84v-23h-31v-77h-22zM1384 25v100h31l19 -78l18 78h29v-100h-19v77l-20 -77h-19l-20 77v-77h-19z" />
    <glyph glyph-name="Egrave" unicode="&#xc8;" 
d="M791 6q-196 0 -362.5 97.5t-263.5 264.5t-97 363t97 363t263.5 264.5t362.5 97.5t363 -97.5t264.5 -264.5t97.5 -363t-97.5 -363t-264.5 -264.5t-363 -97.5zM791 104q128 0 244 50t199 134t132 200t49 243t-49 242.5t-132 199.5t-199 133.5t-244 49.5q-169 0 -313.5 -84
t-229 -228t-84.5 -313t84.5 -313.5t229 -229t313.5 -84.5zM791 147q-118 0 -225.5 46.5t-186.5 124.5t-125.5 186.5t-46.5 226.5q0 157 79 290t213.5 210.5t291.5 77.5t291 -77.5t212 -210.5t78 -290q0 -119 -46.5 -227t-124.5 -186t-185 -124.5t-225 -46.5zM791 238
q57 0 110 20.5t94 55t70.5 69.5t52.5 74q-319 -84 -655 0q23 -39 52.5 -74t70.5 -69.5t94 -55t111 -20.5zM442 487q346 -79 699 0l110 177h-921zM715 731h155l-77 187zM602 874q7 -8 38.5 7.5t29.5 21.5q-15 29 -45.5 111t-55.5 119q-7 9 -38.5 -6t-58 -36.5t-21.5 -27.5z
M983 874l147 189q5 6 -21 27.5t-57 36.5t-38 6q-30 -39 -61 -129.5t-35 -100.5q-7 -4 19 -19q35 -19 46 -10zM1321 25v77h-31v23h84v-23h-31v-77h-22zM1384 25v100h31l19 -78l18 78h29v-100h-19v77l-20 -77h-19l-20 77v-77h-19z" />
    <glyph glyph-name="Eacute" unicode="&#xc9;" 
d="M791 6q-196 0 -362.5 97.5t-263.5 264.5t-97 363t97 363t263.5 264.5t362.5 97.5t363 -97.5t264.5 -264.5t97.5 -363t-97.5 -363t-264.5 -264.5t-363 -97.5zM791 104q128 0 244 50t199 134t132 200t49 243t-49 242.5t-132 199.5t-199 133.5t-244 49.5q-169 0 -313.5 -84
t-229 -228t-84.5 -313t84.5 -313.5t229 -229t313.5 -84.5zM791 147q-118 0 -225.5 46.5t-186.5 124.5t-125.5 186.5t-46.5 226.5q0 157 79 290t213.5 210.5t291.5 77.5t291 -77.5t212 -210.5t78 -290q0 -119 -46.5 -227t-124.5 -186t-185 -124.5t-225 -46.5zM791 238
q57 0 110 20.5t94 55t70.5 69.5t52.5 74q-319 -84 -655 0q23 -39 52.5 -74t70.5 -69.5t94 -55t111 -20.5zM442 487q346 -79 699 0l110 177h-921zM715 731h155l-77 187zM602 874q7 -8 38.5 7.5t29.5 21.5q-15 29 -45.5 111t-55.5 119q-7 9 -38.5 -6t-58 -36.5t-21.5 -27.5z
M983 874l147 189q5 6 -21 27.5t-57 36.5t-38 6q-30 -39 -61 -129.5t-35 -100.5q-7 -4 19 -19q35 -19 46 -10zM1321 25v77h-31v23h84v-23h-31v-77h-22zM1384 25v100h31l19 -78l18 78h29v-100h-19v77l-20 -77h-19l-20 77v-77h-19z" />
    <glyph glyph-name="Ecircumflex" unicode="&#xca;" 
d="M791 6q-196 0 -362.5 97.5t-263.5 264.5t-97 363t97 363t263.5 264.5t362.5 97.5t363 -97.5t264.5 -264.5t97.5 -363t-97.5 -363t-264.5 -264.5t-363 -97.5zM791 104q128 0 244 50t199 134t132 200t49 243t-49 242.5t-132 199.5t-199 133.5t-244 49.5q-169 0 -313.5 -84
t-229 -228t-84.5 -313t84.5 -313.5t229 -229t313.5 -84.5zM791 147q-118 0 -225.5 46.5t-186.5 124.5t-125.5 186.5t-46.5 226.5q0 157 79 290t213.5 210.5t291.5 77.5t291 -77.5t212 -210.5t78 -290q0 -119 -46.5 -227t-124.5 -186t-185 -124.5t-225 -46.5zM791 238
q57 0 110 20.5t94 55t70.5 69.5t52.5 74q-319 -84 -655 0q23 -39 52.5 -74t70.5 -69.5t94 -55t111 -20.5zM442 487q346 -79 699 0l110 177h-921zM715 731h155l-77 187zM602 874q7 -8 38.5 7.5t29.5 21.5q-15 29 -45.5 111t-55.5 119q-7 9 -38.5 -6t-58 -36.5t-21.5 -27.5z
M983 874l147 189q5 6 -21 27.5t-57 36.5t-38 6q-30 -39 -61 -129.5t-35 -100.5q-7 -4 19 -19q35 -19 46 -10zM1321 25v77h-31v23h84v-23h-31v-77h-22zM1384 25v100h31l19 -78l18 78h29v-100h-19v77l-20 -77h-19l-20 77v-77h-19z" />
    <glyph glyph-name="Edieresis" unicode="&#xcb;" 
d="M791 6q-196 0 -362.5 97.5t-263.5 264.5t-97 363t97 363t263.5 264.5t362.5 97.5t363 -97.5t264.5 -264.5t97.5 -363t-97.5 -363t-264.5 -264.5t-363 -97.5zM791 104q128 0 244 50t199 134t132 200t49 243t-49 242.5t-132 199.5t-199 133.5t-244 49.5q-169 0 -313.5 -84
t-229 -228t-84.5 -313t84.5 -313.5t229 -229t313.5 -84.5zM791 147q-118 0 -225.5 46.5t-186.5 124.5t-125.5 186.5t-46.5 226.5q0 157 79 290t213.5 210.5t291.5 77.5t291 -77.5t212 -210.5t78 -290q0 -119 -46.5 -227t-124.5 -186t-185 -124.5t-225 -46.5zM791 238
q57 0 110 20.5t94 55t70.5 69.5t52.5 74q-319 -84 -655 0q23 -39 52.5 -74t70.5 -69.5t94 -55t111 -20.5zM442 487q346 -79 699 0l110 177h-921zM715 731h155l-77 187zM602 874q7 -8 38.5 7.5t29.5 21.5q-15 29 -45.5 111t-55.5 119q-7 9 -38.5 -6t-58 -36.5t-21.5 -27.5z
M983 874l147 189q5 6 -21 27.5t-57 36.5t-38 6q-30 -39 -61 -129.5t-35 -100.5q-7 -4 19 -19q35 -19 46 -10zM1321 25v77h-31v23h84v-23h-31v-77h-22zM1384 25v100h31l19 -78l18 78h29v-100h-19v77l-20 -77h-19l-20 77v-77h-19z" />
    <glyph glyph-name="Igrave" unicode="&#xcc;" 
d="M791 6q-196 0 -362.5 97.5t-263.5 264.5t-97 363t97 363t263.5 264.5t362.5 97.5t363 -97.5t264.5 -264.5t97.5 -363t-97.5 -363t-264.5 -264.5t-363 -97.5zM791 104q128 0 244 50t199 134t132 200t49 243t-49 242.5t-132 199.5t-199 133.5t-244 49.5q-169 0 -313.5 -84
t-229 -228t-84.5 -313t84.5 -313.5t229 -229t313.5 -84.5zM791 147q-118 0 -225.5 46.5t-186.5 124.5t-125.5 186.5t-46.5 226.5q0 157 79 290t213.5 210.5t291.5 77.5t291 -77.5t212 -210.5t78 -290q0 -119 -46.5 -227t-124.5 -186t-185 -124.5t-225 -46.5zM791 238
q57 0 110 20.5t94 55t70.5 69.5t52.5 74q-319 -84 -655 0q23 -39 52.5 -74t70.5 -69.5t94 -55t111 -20.5zM442 487q346 -79 699 0l110 177h-921zM715 731h155l-77 187zM602 874q7 -8 38.5 7.5t29.5 21.5q-15 29 -45.5 111t-55.5 119q-7 9 -38.5 -6t-58 -36.5t-21.5 -27.5z
M983 874l147 189q5 6 -21 27.5t-57 36.5t-38 6q-30 -39 -61 -129.5t-35 -100.5q-7 -4 19 -19q35 -19 46 -10zM1321 25v77h-31v23h84v-23h-31v-77h-22zM1384 25v100h31l19 -78l18 78h29v-100h-19v77l-20 -77h-19l-20 77v-77h-19z" />
    <glyph glyph-name="Iacute" unicode="&#xcd;" 
d="M791 6q-196 0 -362.5 97.5t-263.5 264.5t-97 363t97 363t263.5 264.5t362.5 97.5t363 -97.5t264.5 -264.5t97.5 -363t-97.5 -363t-264.5 -264.5t-363 -97.5zM791 104q128 0 244 50t199 134t132 200t49 243t-49 242.5t-132 199.5t-199 133.5t-244 49.5q-169 0 -313.5 -84
t-229 -228t-84.5 -313t84.5 -313.5t229 -229t313.5 -84.5zM791 147q-118 0 -225.5 46.5t-186.5 124.5t-125.5 186.5t-46.5 226.5q0 157 79 290t213.5 210.5t291.5 77.5t291 -77.5t212 -210.5t78 -290q0 -119 -46.5 -227t-124.5 -186t-185 -124.5t-225 -46.5zM791 238
q57 0 110 20.5t94 55t70.5 69.5t52.5 74q-319 -84 -655 0q23 -39 52.5 -74t70.5 -69.5t94 -55t111 -20.5zM442 487q346 -79 699 0l110 177h-921zM715 731h155l-77 187zM602 874q7 -8 38.5 7.5t29.5 21.5q-15 29 -45.5 111t-55.5 119q-7 9 -38.5 -6t-58 -36.5t-21.5 -27.5z
M983 874l147 189q5 6 -21 27.5t-57 36.5t-38 6q-30 -39 -61 -129.5t-35 -100.5q-7 -4 19 -19q35 -19 46 -10zM1321 25v77h-31v23h84v-23h-31v-77h-22zM1384 25v100h31l19 -78l18 78h29v-100h-19v77l-20 -77h-19l-20 77v-77h-19z" />
    <glyph glyph-name="Icircumflex" unicode="&#xce;" 
d="M791 6q-196 0 -362.5 97.5t-263.5 264.5t-97 363t97 363t263.5 264.5t362.5 97.5t363 -97.5t264.5 -264.5t97.5 -363t-97.5 -363t-264.5 -264.5t-363 -97.5zM791 104q128 0 244 50t199 134t132 200t49 243t-49 242.5t-132 199.5t-199 133.5t-244 49.5q-169 0 -313.5 -84
t-229 -228t-84.5 -313t84.5 -313.5t229 -229t313.5 -84.5zM791 147q-118 0 -225.5 46.5t-186.5 124.5t-125.5 186.5t-46.5 226.5q0 157 79 290t213.5 210.5t291.5 77.5t291 -77.5t212 -210.5t78 -290q0 -119 -46.5 -227t-124.5 -186t-185 -124.5t-225 -46.5zM791 238
q57 0 110 20.5t94 55t70.5 69.5t52.5 74q-319 -84 -655 0q23 -39 52.5 -74t70.5 -69.5t94 -55t111 -20.5zM442 487q346 -79 699 0l110 177h-921zM715 731h155l-77 187zM602 874q7 -8 38.5 7.5t29.5 21.5q-15 29 -45.5 111t-55.5 119q-7 9 -38.5 -6t-58 -36.5t-21.5 -27.5z
M983 874l147 189q5 6 -21 27.5t-57 36.5t-38 6q-30 -39 -61 -129.5t-35 -100.5q-7 -4 19 -19q35 -19 46 -10zM1321 25v77h-31v23h84v-23h-31v-77h-22zM1384 25v100h31l19 -78l18 78h29v-100h-19v77l-20 -77h-19l-20 77v-77h-19z" />
    <glyph glyph-name="Idieresis" unicode="&#xcf;" 
d="M791 6q-196 0 -362.5 97.5t-263.5 264.5t-97 363t97 363t263.5 264.5t362.5 97.5t363 -97.5t264.5 -264.5t97.5 -363t-97.5 -363t-264.5 -264.5t-363 -97.5zM791 104q128 0 244 50t199 134t132 200t49 243t-49 242.5t-132 199.5t-199 133.5t-244 49.5q-169 0 -313.5 -84
t-229 -228t-84.5 -313t84.5 -313.5t229 -229t313.5 -84.5zM791 147q-118 0 -225.5 46.5t-186.5 124.5t-125.5 186.5t-46.5 226.5q0 157 79 290t213.5 210.5t291.5 77.5t291 -77.5t212 -210.5t78 -290q0 -119 -46.5 -227t-124.5 -186t-185 -124.5t-225 -46.5zM791 238
q57 0 110 20.5t94 55t70.5 69.5t52.5 74q-319 -84 -655 0q23 -39 52.5 -74t70.5 -69.5t94 -55t111 -20.5zM442 487q346 -79 699 0l110 177h-921zM715 731h155l-77 187zM602 874q7 -8 38.5 7.5t29.5 21.5q-15 29 -45.5 111t-55.5 119q-7 9 -38.5 -6t-58 -36.5t-21.5 -27.5z
M983 874l147 189q5 6 -21 27.5t-57 36.5t-38 6q-30 -39 -61 -129.5t-35 -100.5q-7 -4 19 -19q35 -19 46 -10zM1321 25v77h-31v23h84v-23h-31v-77h-22zM1384 25v100h31l19 -78l18 78h29v-100h-19v77l-20 -77h-19l-20 77v-77h-19z" />
    <glyph glyph-name="Eth" unicode="&#xd0;" 
d="M791 6q-196 0 -362.5 97.5t-263.5 264.5t-97 363t97 363t263.5 264.5t362.5 97.5t363 -97.5t264.5 -264.5t97.5 -363t-97.5 -363t-264.5 -264.5t-363 -97.5zM791 104q128 0 244 50t199 134t132 200t49 243t-49 242.5t-132 199.5t-199 133.5t-244 49.5q-169 0 -313.5 -84
t-229 -228t-84.5 -313t84.5 -313.5t229 -229t313.5 -84.5zM791 147q-118 0 -225.5 46.5t-186.5 124.5t-125.5 186.5t-46.5 226.5q0 157 79 290t213.5 210.5t291.5 77.5t291 -77.5t212 -210.5t78 -290q0 -119 -46.5 -227t-124.5 -186t-185 -124.5t-225 -46.5zM791 238
q57 0 110 20.5t94 55t70.5 69.5t52.5 74q-319 -84 -655 0q23 -39 52.5 -74t70.5 -69.5t94 -55t111 -20.5zM442 487q346 -79 699 0l110 177h-921zM715 731h155l-77 187zM602 874q7 -8 38.5 7.5t29.5 21.5q-15 29 -45.5 111t-55.5 119q-7 9 -38.5 -6t-58 -36.5t-21.5 -27.5z
M983 874l147 189q5 6 -21 27.5t-57 36.5t-38 6q-30 -39 -61 -129.5t-35 -100.5q-7 -4 19 -19q35 -19 46 -10zM1321 25v77h-31v23h84v-23h-31v-77h-22zM1384 25v100h31l19 -78l18 78h29v-100h-19v77l-20 -77h-19l-20 77v-77h-19z" />
    <glyph glyph-name="Ntilde" unicode="&#xd1;" 
d="M791 6q-196 0 -362.5 97.5t-263.5 264.5t-97 363t97 363t263.5 264.5t362.5 97.5t363 -97.5t264.5 -264.5t97.5 -363t-97.5 -363t-264.5 -264.5t-363 -97.5zM791 104q128 0 244 50t199 134t132 200t49 243t-49 242.5t-132 199.5t-199 133.5t-244 49.5q-169 0 -313.5 -84
t-229 -228t-84.5 -313t84.5 -313.5t229 -229t313.5 -84.5zM791 147q-118 0 -225.5 46.5t-186.5 124.5t-125.5 186.5t-46.5 226.5q0 157 79 290t213.5 210.5t291.5 77.5t291 -77.5t212 -210.5t78 -290q0 -119 -46.5 -227t-124.5 -186t-185 -124.5t-225 -46.5zM791 238
q57 0 110 20.5t94 55t70.5 69.5t52.5 74q-319 -84 -655 0q23 -39 52.5 -74t70.5 -69.5t94 -55t111 -20.5zM442 487q346 -79 699 0l110 177h-921zM715 731h155l-77 187zM602 874q7 -8 38.5 7.5t29.5 21.5q-15 29 -45.5 111t-55.5 119q-7 9 -38.5 -6t-58 -36.5t-21.5 -27.5z
M983 874l147 189q5 6 -21 27.5t-57 36.5t-38 6q-30 -39 -61 -129.5t-35 -100.5q-7 -4 19 -19q35 -19 46 -10zM1321 25v77h-31v23h84v-23h-31v-77h-22zM1384 25v100h31l19 -78l18 78h29v-100h-19v77l-20 -77h-19l-20 77v-77h-19z" />
    <glyph glyph-name="Ograve" unicode="&#xd2;" 
d="M791 6q-196 0 -362.5 97.5t-263.5 264.5t-97 363t97 363t263.5 264.5t362.5 97.5t363 -97.5t264.5 -264.5t97.5 -363t-97.5 -363t-264.5 -264.5t-363 -97.5zM791 104q128 0 244 50t199 134t132 200t49 243t-49 242.5t-132 199.5t-199 133.5t-244 49.5q-169 0 -313.5 -84
t-229 -228t-84.5 -313t84.5 -313.5t229 -229t313.5 -84.5zM791 147q-118 0 -225.5 46.5t-186.5 124.5t-125.5 186.5t-46.5 226.5q0 157 79 290t213.5 210.5t291.5 77.5t291 -77.5t212 -210.5t78 -290q0 -119 -46.5 -227t-124.5 -186t-185 -124.5t-225 -46.5zM791 238
q57 0 110 20.5t94 55t70.5 69.5t52.5 74q-319 -84 -655 0q23 -39 52.5 -74t70.5 -69.5t94 -55t111 -20.5zM442 487q346 -79 699 0l110 177h-921zM715 731h155l-77 187zM602 874q7 -8 38.5 7.5t29.5 21.5q-15 29 -45.5 111t-55.5 119q-7 9 -38.5 -6t-58 -36.5t-21.5 -27.5z
M983 874l147 189q5 6 -21 27.5t-57 36.5t-38 6q-30 -39 -61 -129.5t-35 -100.5q-7 -4 19 -19q35 -19 46 -10zM1321 25v77h-31v23h84v-23h-31v-77h-22zM1384 25v100h31l19 -78l18 78h29v-100h-19v77l-20 -77h-19l-20 77v-77h-19z" />
    <glyph glyph-name="Oacute" unicode="&#xd3;" 
d="M791 6q-196 0 -362.5 97.5t-263.5 264.5t-97 363t97 363t263.5 264.5t362.5 97.5t363 -97.5t264.5 -264.5t97.5 -363t-97.5 -363t-264.5 -264.5t-363 -97.5zM791 104q128 0 244 50t199 134t132 200t49 243t-49 242.5t-132 199.5t-199 133.5t-244 49.5q-169 0 -313.5 -84
t-229 -228t-84.5 -313t84.5 -313.5t229 -229t313.5 -84.5zM791 147q-118 0 -225.5 46.5t-186.5 124.5t-125.5 186.5t-46.5 226.5q0 157 79 290t213.5 210.5t291.5 77.5t291 -77.5t212 -210.5t78 -290q0 -119 -46.5 -227t-124.5 -186t-185 -124.5t-225 -46.5zM791 238
q57 0 110 20.5t94 55t70.5 69.5t52.5 74q-319 -84 -655 0q23 -39 52.5 -74t70.5 -69.5t94 -55t111 -20.5zM442 487q346 -79 699 0l110 177h-921zM715 731h155l-77 187zM602 874q7 -8 38.5 7.5t29.5 21.5q-15 29 -45.5 111t-55.5 119q-7 9 -38.5 -6t-58 -36.5t-21.5 -27.5z
M983 874l147 189q5 6 -21 27.5t-57 36.5t-38 6q-30 -39 -61 -129.5t-35 -100.5q-7 -4 19 -19q35 -19 46 -10zM1321 25v77h-31v23h84v-23h-31v-77h-22zM1384 25v100h31l19 -78l18 78h29v-100h-19v77l-20 -77h-19l-20 77v-77h-19z" />
    <glyph glyph-name="Ocircumflex" unicode="&#xd4;" 
d="M791 6q-196 0 -362.5 97.5t-263.5 264.5t-97 363t97 363t263.5 264.5t362.5 97.5t363 -97.5t264.5 -264.5t97.5 -363t-97.5 -363t-264.5 -264.5t-363 -97.5zM791 104q128 0 244 50t199 134t132 200t49 243t-49 242.5t-132 199.5t-199 133.5t-244 49.5q-169 0 -313.5 -84
t-229 -228t-84.5 -313t84.5 -313.5t229 -229t313.5 -84.5zM791 147q-118 0 -225.5 46.5t-186.5 124.5t-125.5 186.5t-46.5 226.5q0 157 79 290t213.5 210.5t291.5 77.5t291 -77.5t212 -210.5t78 -290q0 -119 -46.5 -227t-124.5 -186t-185 -124.5t-225 -46.5zM791 238
q57 0 110 20.5t94 55t70.5 69.5t52.5 74q-319 -84 -655 0q23 -39 52.5 -74t70.5 -69.5t94 -55t111 -20.5zM442 487q346 -79 699 0l110 177h-921zM715 731h155l-77 187zM602 874q7 -8 38.5 7.5t29.5 21.5q-15 29 -45.5 111t-55.5 119q-7 9 -38.5 -6t-58 -36.5t-21.5 -27.5z
M983 874l147 189q5 6 -21 27.5t-57 36.5t-38 6q-30 -39 -61 -129.5t-35 -100.5q-7 -4 19 -19q35 -19 46 -10zM1321 25v77h-31v23h84v-23h-31v-77h-22zM1384 25v100h31l19 -78l18 78h29v-100h-19v77l-20 -77h-19l-20 77v-77h-19z" />
    <glyph glyph-name="Otilde" unicode="&#xd5;" 
d="M791 6q-196 0 -362.5 97.5t-263.5 264.5t-97 363t97 363t263.5 264.5t362.5 97.5t363 -97.5t264.5 -264.5t97.5 -363t-97.5 -363t-264.5 -264.5t-363 -97.5zM791 104q128 0 244 50t199 134t132 200t49 243t-49 242.5t-132 199.5t-199 133.5t-244 49.5q-169 0 -313.5 -84
t-229 -228t-84.5 -313t84.5 -313.5t229 -229t313.5 -84.5zM791 147q-118 0 -225.5 46.5t-186.5 124.5t-125.5 186.5t-46.5 226.5q0 157 79 290t213.5 210.5t291.5 77.5t291 -77.5t212 -210.5t78 -290q0 -119 -46.5 -227t-124.5 -186t-185 -124.5t-225 -46.5zM791 238
q57 0 110 20.5t94 55t70.5 69.5t52.5 74q-319 -84 -655 0q23 -39 52.5 -74t70.5 -69.5t94 -55t111 -20.5zM442 487q346 -79 699 0l110 177h-921zM715 731h155l-77 187zM602 874q7 -8 38.5 7.5t29.5 21.5q-15 29 -45.5 111t-55.5 119q-7 9 -38.5 -6t-58 -36.5t-21.5 -27.5z
M983 874l147 189q5 6 -21 27.5t-57 36.5t-38 6q-30 -39 -61 -129.5t-35 -100.5q-7 -4 19 -19q35 -19 46 -10zM1321 25v77h-31v23h84v-23h-31v-77h-22zM1384 25v100h31l19 -78l18 78h29v-100h-19v77l-20 -77h-19l-20 77v-77h-19z" />
    <glyph glyph-name="Odieresis" unicode="&#xd6;" 
d="M791 6q-196 0 -362.5 97.5t-263.5 264.5t-97 363t97 363t263.5 264.5t362.5 97.5t363 -97.5t264.5 -264.5t97.5 -363t-97.5 -363t-264.5 -264.5t-363 -97.5zM791 104q128 0 244 50t199 134t132 200t49 243t-49 242.5t-132 199.5t-199 133.5t-244 49.5q-169 0 -313.5 -84
t-229 -228t-84.5 -313t84.5 -313.5t229 -229t313.5 -84.5zM791 147q-118 0 -225.5 46.5t-186.5 124.5t-125.5 186.5t-46.5 226.5q0 157 79 290t213.5 210.5t291.5 77.5t291 -77.5t212 -210.5t78 -290q0 -119 -46.5 -227t-124.5 -186t-185 -124.5t-225 -46.5zM791 238
q57 0 110 20.5t94 55t70.5 69.5t52.5 74q-319 -84 -655 0q23 -39 52.5 -74t70.5 -69.5t94 -55t111 -20.5zM442 487q346 -79 699 0l110 177h-921zM715 731h155l-77 187zM602 874q7 -8 38.5 7.5t29.5 21.5q-15 29 -45.5 111t-55.5 119q-7 9 -38.5 -6t-58 -36.5t-21.5 -27.5z
M983 874l147 189q5 6 -21 27.5t-57 36.5t-38 6q-30 -39 -61 -129.5t-35 -100.5q-7 -4 19 -19q35 -19 46 -10zM1321 25v77h-31v23h84v-23h-31v-77h-22zM1384 25v100h31l19 -78l18 78h29v-100h-19v77l-20 -77h-19l-20 77v-77h-19z" />
    <glyph glyph-name="multiply" unicode="&#xd7;" 
d="M791 6q-196 0 -362.5 97.5t-263.5 264.5t-97 363t97 363t263.5 264.5t362.5 97.5t363 -97.5t264.5 -264.5t97.5 -363t-97.5 -363t-264.5 -264.5t-363 -97.5zM791 104q128 0 244 50t199 134t132 200t49 243t-49 242.5t-132 199.5t-199 133.5t-244 49.5q-169 0 -313.5 -84
t-229 -228t-84.5 -313t84.5 -313.5t229 -229t313.5 -84.5zM791 147q-118 0 -225.5 46.5t-186.5 124.5t-125.5 186.5t-46.5 226.5q0 157 79 290t213.5 210.5t291.5 77.5t291 -77.5t212 -210.5t78 -290q0 -119 -46.5 -227t-124.5 -186t-185 -124.5t-225 -46.5zM791 238
q57 0 110 20.5t94 55t70.5 69.5t52.5 74q-319 -84 -655 0q23 -39 52.5 -74t70.5 -69.5t94 -55t111 -20.5zM442 487q346 -79 699 0l110 177h-921zM715 731h155l-77 187zM602 874q7 -8 38.5 7.5t29.5 21.5q-15 29 -45.5 111t-55.5 119q-7 9 -38.5 -6t-58 -36.5t-21.5 -27.5z
M983 874l147 189q5 6 -21 27.5t-57 36.5t-38 6q-30 -39 -61 -129.5t-35 -100.5q-7 -4 19 -19q35 -19 46 -10zM1321 25v77h-31v23h84v-23h-31v-77h-22zM1384 25v100h31l19 -78l18 78h29v-100h-19v77l-20 -77h-19l-20 77v-77h-19z" />
    <glyph glyph-name="Oslash" unicode="&#xd8;" 
d="M791 6q-196 0 -362.5 97.5t-263.5 264.5t-97 363t97 363t263.5 264.5t362.5 97.5t363 -97.5t264.5 -264.5t97.5 -363t-97.5 -363t-264.5 -264.5t-363 -97.5zM791 104q128 0 244 50t199 134t132 200t49 243t-49 242.5t-132 199.5t-199 133.5t-244 49.5q-169 0 -313.5 -84
t-229 -228t-84.5 -313t84.5 -313.5t229 -229t313.5 -84.5zM791 147q-118 0 -225.5 46.5t-186.5 124.5t-125.5 186.5t-46.5 226.5q0 157 79 290t213.5 210.5t291.5 77.5t291 -77.5t212 -210.5t78 -290q0 -119 -46.5 -227t-124.5 -186t-185 -124.5t-225 -46.5zM791 238
q57 0 110 20.5t94 55t70.5 69.5t52.5 74q-319 -84 -655 0q23 -39 52.5 -74t70.5 -69.5t94 -55t111 -20.5zM442 487q346 -79 699 0l110 177h-921zM715 731h155l-77 187zM602 874q7 -8 38.5 7.5t29.5 21.5q-15 29 -45.5 111t-55.5 119q-7 9 -38.5 -6t-58 -36.5t-21.5 -27.5z
M983 874l147 189q5 6 -21 27.5t-57 36.5t-38 6q-30 -39 -61 -129.5t-35 -100.5q-7 -4 19 -19q35 -19 46 -10zM1321 25v77h-31v23h84v-23h-31v-77h-22zM1384 25v100h31l19 -78l18 78h29v-100h-19v77l-20 -77h-19l-20 77v-77h-19z" />
    <glyph glyph-name="Ugrave" unicode="&#xd9;" 
d="M791 6q-196 0 -362.5 97.5t-263.5 264.5t-97 363t97 363t263.5 264.5t362.5 97.5t363 -97.5t264.5 -264.5t97.5 -363t-97.5 -363t-264.5 -264.5t-363 -97.5zM791 104q128 0 244 50t199 134t132 200t49 243t-49 242.5t-132 199.5t-199 133.5t-244 49.5q-169 0 -313.5 -84
t-229 -228t-84.5 -313t84.5 -313.5t229 -229t313.5 -84.5zM791 147q-118 0 -225.5 46.5t-186.5 124.5t-125.5 186.5t-46.5 226.5q0 157 79 290t213.5 210.5t291.5 77.5t291 -77.5t212 -210.5t78 -290q0 -119 -46.5 -227t-124.5 -186t-185 -124.5t-225 -46.5zM791 238
q57 0 110 20.5t94 55t70.5 69.5t52.5 74q-319 -84 -655 0q23 -39 52.5 -74t70.5 -69.5t94 -55t111 -20.5zM442 487q346 -79 699 0l110 177h-921zM715 731h155l-77 187zM602 874q7 -8 38.5 7.5t29.5 21.5q-15 29 -45.5 111t-55.5 119q-7 9 -38.5 -6t-58 -36.5t-21.5 -27.5z
M983 874l147 189q5 6 -21 27.5t-57 36.5t-38 6q-30 -39 -61 -129.5t-35 -100.5q-7 -4 19 -19q35 -19 46 -10zM1321 25v77h-31v23h84v-23h-31v-77h-22zM1384 25v100h31l19 -78l18 78h29v-100h-19v77l-20 -77h-19l-20 77v-77h-19z" />
    <glyph glyph-name="Uacute" unicode="&#xda;" 
d="M791 6q-196 0 -362.5 97.5t-263.5 264.5t-97 363t97 363t263.5 264.5t362.5 97.5t363 -97.5t264.5 -264.5t97.5 -363t-97.5 -363t-264.5 -264.5t-363 -97.5zM791 104q128 0 244 50t199 134t132 200t49 243t-49 242.5t-132 199.5t-199 133.5t-244 49.5q-169 0 -313.5 -84
t-229 -228t-84.5 -313t84.5 -313.5t229 -229t313.5 -84.5zM791 147q-118 0 -225.5 46.5t-186.5 124.5t-125.5 186.5t-46.5 226.5q0 157 79 290t213.5 210.5t291.5 77.5t291 -77.5t212 -210.5t78 -290q0 -119 -46.5 -227t-124.5 -186t-185 -124.5t-225 -46.5zM791 238
q57 0 110 20.5t94 55t70.5 69.5t52.5 74q-319 -84 -655 0q23 -39 52.5 -74t70.5 -69.5t94 -55t111 -20.5zM442 487q346 -79 699 0l110 177h-921zM715 731h155l-77 187zM602 874q7 -8 38.5 7.5t29.5 21.5q-15 29 -45.5 111t-55.5 119q-7 9 -38.5 -6t-58 -36.5t-21.5 -27.5z
M983 874l147 189q5 6 -21 27.5t-57 36.5t-38 6q-30 -39 -61 -129.5t-35 -100.5q-7 -4 19 -19q35 -19 46 -10zM1321 25v77h-31v23h84v-23h-31v-77h-22zM1384 25v100h31l19 -78l18 78h29v-100h-19v77l-20 -77h-19l-20 77v-77h-19z" />
    <glyph glyph-name="Ucircumflex" unicode="&#xdb;" 
d="M791 6q-196 0 -362.5 97.5t-263.5 264.5t-97 363t97 363t263.5 264.5t362.5 97.5t363 -97.5t264.5 -264.5t97.5 -363t-97.5 -363t-264.5 -264.5t-363 -97.5zM791 104q128 0 244 50t199 134t132 200t49 243t-49 242.5t-132 199.5t-199 133.5t-244 49.5q-169 0 -313.5 -84
t-229 -228t-84.5 -313t84.5 -313.5t229 -229t313.5 -84.5zM791 147q-118 0 -225.5 46.5t-186.5 124.5t-125.5 186.5t-46.5 226.5q0 157 79 290t213.5 210.5t291.5 77.5t291 -77.5t212 -210.5t78 -290q0 -119 -46.5 -227t-124.5 -186t-185 -124.5t-225 -46.5zM791 238
q57 0 110 20.5t94 55t70.5 69.5t52.5 74q-319 -84 -655 0q23 -39 52.5 -74t70.5 -69.5t94 -55t111 -20.5zM442 487q346 -79 699 0l110 177h-921zM715 731h155l-77 187zM602 874q7 -8 38.5 7.5t29.5 21.5q-15 29 -45.5 111t-55.5 119q-7 9 -38.5 -6t-58 -36.5t-21.5 -27.5z
M983 874l147 189q5 6 -21 27.5t-57 36.5t-38 6q-30 -39 -61 -129.5t-35 -100.5q-7 -4 19 -19q35 -19 46 -10zM1321 25v77h-31v23h84v-23h-31v-77h-22zM1384 25v100h31l19 -78l18 78h29v-100h-19v77l-20 -77h-19l-20 77v-77h-19z" />
    <glyph glyph-name="Udieresis" unicode="&#xdc;" 
d="M791 6q-196 0 -362.5 97.5t-263.5 264.5t-97 363t97 363t263.5 264.5t362.5 97.5t363 -97.5t264.5 -264.5t97.5 -363t-97.5 -363t-264.5 -264.5t-363 -97.5zM791 104q128 0 244 50t199 134t132 200t49 243t-49 242.5t-132 199.5t-199 133.5t-244 49.5q-169 0 -313.5 -84
t-229 -228t-84.5 -313t84.5 -313.5t229 -229t313.5 -84.5zM791 147q-118 0 -225.5 46.5t-186.5 124.5t-125.5 186.5t-46.5 226.5q0 157 79 290t213.5 210.5t291.5 77.5t291 -77.5t212 -210.5t78 -290q0 -119 -46.5 -227t-124.5 -186t-185 -124.5t-225 -46.5zM791 238
q57 0 110 20.5t94 55t70.5 69.5t52.5 74q-319 -84 -655 0q23 -39 52.5 -74t70.5 -69.5t94 -55t111 -20.5zM442 487q346 -79 699 0l110 177h-921zM715 731h155l-77 187zM602 874q7 -8 38.5 7.5t29.5 21.5q-15 29 -45.5 111t-55.5 119q-7 9 -38.5 -6t-58 -36.5t-21.5 -27.5z
M983 874l147 189q5 6 -21 27.5t-57 36.5t-38 6q-30 -39 -61 -129.5t-35 -100.5q-7 -4 19 -19q35 -19 46 -10zM1321 25v77h-31v23h84v-23h-31v-77h-22zM1384 25v100h31l19 -78l18 78h29v-100h-19v77l-20 -77h-19l-20 77v-77h-19z" />
    <glyph glyph-name="Yacute" unicode="&#xdd;" horiz-adv-x="1572" 
d="M1100 1722v-278q-271 -109 -439.5 -353t-168.5 -544q0 -157 49 -304.5t138 -267t207.5 -209.5t265 -139t302.5 -49q205 0 387 81t320 226h333q-171 -262 -445.5 -415.5t-594.5 -153.5q-166 0 -325.5 44.5t-294 124t-248 193.5t-193 249t-124 294.5t-44.5 325.5
q0 203 66 393.5t182.5 342.5t277.5 266.5t349 172.5z" />
    <glyph glyph-name="Thorn" unicode="&#xde;" 
d="M791 6q-196 0 -362.5 97.5t-263.5 264.5t-97 363t97 363t263.5 264.5t362.5 97.5t363 -97.5t264.5 -264.5t97.5 -363t-97.5 -363t-264.5 -264.5t-363 -97.5zM791 104q128 0 244 50t199 134t132 200t49 243t-49 242.5t-132 199.5t-199 133.5t-244 49.5q-169 0 -313.5 -84
t-229 -228t-84.5 -313t84.5 -313.5t229 -229t313.5 -84.5zM791 147q-118 0 -225.5 46.5t-186.5 124.5t-125.5 186.5t-46.5 226.5q0 157 79 290t213.5 210.5t291.5 77.5t291 -77.5t212 -210.5t78 -290q0 -119 -46.5 -227t-124.5 -186t-185 -124.5t-225 -46.5zM791 238
q57 0 110 20.5t94 55t70.5 69.5t52.5 74q-319 -84 -655 0q23 -39 52.5 -74t70.5 -69.5t94 -55t111 -20.5zM442 487q346 -79 699 0l110 177h-921zM715 731h155l-77 187zM602 874q7 -8 38.5 7.5t29.5 21.5q-15 29 -45.5 111t-55.5 119q-7 9 -38.5 -6t-58 -36.5t-21.5 -27.5z
M983 874l147 189q5 6 -21 27.5t-57 36.5t-38 6q-30 -39 -61 -129.5t-35 -100.5q-7 -4 19 -19q35 -19 46 -10zM1321 25v77h-31v23h84v-23h-31v-77h-22zM1384 25v100h31l19 -78l18 78h29v-100h-19v77l-20 -77h-19l-20 77v-77h-19z" />
    <glyph glyph-name="germandbls" unicode="&#xdf;" 
d="M791 6q-196 0 -362.5 97.5t-263.5 264.5t-97 363t97 363t263.5 264.5t362.5 97.5t363 -97.5t264.5 -264.5t97.5 -363t-97.5 -363t-264.5 -264.5t-363 -97.5zM791 104q128 0 244 50t199 134t132 200t49 243t-49 242.5t-132 199.5t-199 133.5t-244 49.5q-169 0 -313.5 -84
t-229 -228t-84.5 -313t84.5 -313.5t229 -229t313.5 -84.5zM791 147q-118 0 -225.5 46.5t-186.5 124.5t-125.5 186.5t-46.5 226.5q0 157 79 290t213.5 210.5t291.5 77.5t291 -77.5t212 -210.5t78 -290q0 -119 -46.5 -227t-124.5 -186t-185 -124.5t-225 -46.5zM791 238
q57 0 110 20.5t94 55t70.5 69.5t52.5 74q-319 -84 -655 0q23 -39 52.5 -74t70.5 -69.5t94 -55t111 -20.5zM442 487q346 -79 699 0l110 177h-921zM715 731h155l-77 187zM602 874q7 -8 38.5 7.5t29.5 21.5q-15 29 -45.5 111t-55.5 119q-7 9 -38.5 -6t-58 -36.5t-21.5 -27.5z
M983 874l147 189q5 6 -21 27.5t-57 36.5t-38 6q-30 -39 -61 -129.5t-35 -100.5q-7 -4 19 -19q35 -19 46 -10zM1321 25v77h-31v23h84v-23h-31v-77h-22zM1384 25v100h31l19 -78l18 78h29v-100h-19v77l-20 -77h-19l-20 77v-77h-19z" />
    <glyph glyph-name="agrave" unicode="&#xe0;" horiz-adv-x="929" 
d="M686 492l119 679l-268 -679h149zM188 -373h-321l807 1862h440l-203 -1489h-307l47 268h-198z" />
    <glyph glyph-name="aacute" unicode="&#xe1;" horiz-adv-x="692" 
d="M-57 -373l546 1862h596l-79 -268h-285l-96 -328h280l-78 -264h-280l-293 -1002h-311z" />
    <glyph glyph-name="acircumflex" unicode="&#xe2;" horiz-adv-x="874" 
d="M1262 1489l-439 -1489h-307l184 629h-155l-297 -1002h-307l548 1862h308l-174 -596h155l176 596h308z" />
    <glyph glyph-name="atilde" unicode="&#xe3;" horiz-adv-x="419" 
d="M807 1489l-549 -1862h-317l548 1862h318z" />
    <glyph glyph-name="adieresis" unicode="&#xe4;" horiz-adv-x="868" 
d="M946 1489h301l-186 -633q-16 -49 -58.5 -81.5t-117.5 -31.5q72 -4 95.5 -56t4.5 -118l-168 -569h-307l170 575q10 29 1.5 44.5t-38.5 15.5h-96l-299 -1008h-307l548 1862h308l-187 -635h92q56 0 74 57z" />
    <glyph glyph-name="aring" unicode="&#xe5;" horiz-adv-x="1128" 
d="M672 362l-66 465l-356 -1200h-309l548 1862h308l53 -520l348 520h320l-441 -1489h-309l244 827z" />
    <glyph glyph-name="ae" unicode="&#xe6;" horiz-adv-x="845" 
d="M-59 -373l548 1862h265l10 -576l170 576h299l-438 -1489h-248l-27 594l-289 -967h-290z" />
    <glyph glyph-name="ccedilla" unicode="&#xe7;" horiz-adv-x="843" 
d="M489 440l-239 -813h-309l548 1862h547q96 0 132 -56.5t12 -134.5l-205 -698q-14 -49 -46.5 -84.5t-77.5 -53t-91.5 -27t-100 -8.5t-92 4t-78.5 9zM555 666h111q26 0 38.5 11t22.5 46l137 465q16 61 -47 61h-90z" />
    <glyph glyph-name="egrave" unicode="&#xe8;" horiz-adv-x="870" 
d="M547 635l-297 -1008h-309l548 1862h564q95 0 132.5 -55.5t14.5 -133.5l-149 -505q-10 -36 -44 -62t-87 -26q26 -4 44 -22.5t25 -54t-10 -87.5l-160 -543h-309l172 584q16 51 -33 51h-102zM610 854h107q53 0 71 57l82 277q19 61 -47 61h-96z" />
    <glyph glyph-name="eacute" unicode="&#xe9;" horiz-adv-x="792" 
d="M475 1489h721l-80 -268h-209l-463 -1594h-309l473 1594h-213z" />
    <glyph glyph-name="ecircumflex" unicode="&#xea;" horiz-adv-x="890" 
d="M1270 1489l-187 -633q-36 -116 -190 -113q71 -4 99 -54.5t7 -119.5l-168 -569h-311l172 582q15 53 -39 53h-47q-34 0 -46.5 -8.5t-20.5 -34.5l-287 -965h-311l282 957q22 72 62.5 114.5t128.5 46.5q-69 0 -94 43.5t-5 108.5l174 592h312l-172 -588q-7 -27 3.5 -37
t37.5 -10h55q25 0 38.5 10.5t22.5 42.5l172 582h312z" />
    <glyph glyph-name="edieresis" unicode="&#xeb;" horiz-adv-x="886" 
d="M432 465h-80q-79 0 -109 46t-5 128l251 850h310l-221 -744q-10 -25 -4 -41t34 -16h72q29 0 41.5 10.5t21.5 40.5l222 750h309l-256 -864q-23 -79 -70.5 -119.5t-136.5 -40.5h-88l-244 -838h-291z" />
    <glyph glyph-name="igrave" unicode="&#xec;" horiz-adv-x="747" 
d="M-57 -373l626 2134h344l-157 -538h311l-90 -303h-311l-379 -1293h-344zM1341 2107l-86 -297h-835l188 297h733z" />
    <glyph glyph-name="iacute" unicode="&#xed;" horiz-adv-x="966" 
d="M1202 1059l-407 -297l53 182h-172l-391 -1317h-344l731 2480h344l-262 -893h174l55 187zM770 682l442 326l-297 -1008h-348zM1239 1096l-240 366l191 645h346z" />
    <glyph glyph-name="icircumflex" unicode="&#xee;" horiz-adv-x="962" 
d="M653 870l-368 -1243h-344l366 1243h346zM322 920l350 1187h338l-291 -991h18l482 991h354l-514 -1013q58 -5 89 -38.5t32.5 -83t-13.5 -108.5l-256 -864h-346l248 836q14 41 2 62.5t-55 21.5h-438z" />
    <glyph glyph-name="idieresis" unicode="&#xef;" horiz-adv-x="1468" 
d="M1423 1761l-518 -1761h-344l518 1761h344zM913 1761l-628 -2134h-344l628 2134h344zM1071 0l512 1739q19 71 -57 71h-1106l188 297h1176q115 0 163 -68.5t17 -174.5l-549 -1864h-344z" />
    <glyph glyph-name="eth" unicode="&#xf0;" horiz-adv-x="960" 
d="M913 1761l-628 -2134h-344l628 2134h344zM561 0l512 1739q19 71 -57 71h-596l188 297h666q115 0 163 -68.5t17 -174.5l-549 -1864h-344z" />
    <glyph glyph-name="ntilde" unicode="&#xf1;" horiz-adv-x="958" 
d="M664 907h122q32 0 53 17t35 63l218 742q10 38 -4.5 59.5t-51.5 21.5h-616l188 297h670q114 0 159 -68t13 -175l-297 -998q-9 -28 -16.5 -48t-22.5 -49.5t-36 -50t-49 -40.5t-69 -29.5t-90 -9.5l-284 2l-301 -1014h-344l628 2134h344z" />
    <glyph glyph-name="ograve" unicode="&#xf2;" horiz-adv-x="958" 
d="M729 1130h123q33 0 54 17t34 63l152 519q10 38 -4.5 59.5t-51.5 21.5h-616l188 297h670q114 0 159 -68t13 -175l-231 -774q-35 -123 -172 -123q47 -4 71 -36.5t23 -81.5t-17 -110l-219 -739h-344l238 803q16 61 -45 61h-103l-364 -1237h-344l626 2134h344z" />
    <glyph glyph-name="oacute" unicode="&#xf3;" horiz-adv-x="454" 
d="M573 1761h347l-631 -2134h-344zM1237 1810h-965l129 297h924z" />
    <glyph glyph-name="ocircumflex" unicode="&#xf4;" horiz-adv-x="970" 
d="M1540 2107l-272 -929q-39 -128 -211 -125q80 -4 111 -60.5t8 -130.5l-256 -862h-347l258 877q9 22 0.5 38.5t-40.5 16.5h-52q-37 0 -52.5 -9t-22.5 -36l-375 -1260h-348l370 1252q11 36 24 62t36 53t61 42t90 17q-77 6 -104 52.5t-6 117.5l260 884h352l-260 -880
q-8 -30 3 -40.5t40 -10.5h59q29 0 45.5 11.5t24.5 45.5l256 874h348z" />
    <glyph glyph-name="otilde" unicode="&#xf5;" horiz-adv-x="968" 
d="M532 2107h351l47 -807l397 807h365l-1276 -2480h-361l594 1178z" />
    <glyph glyph-name="odieresis" unicode="&#xf6;" horiz-adv-x="921" 
d="M436 -373h-334l416 854l-74 1008h306l26 -551l256 551h316z" />
    <glyph glyph-name="divide" unicode="&#xf7;" horiz-adv-x="878" 
d="M717 1212l-96 -319h163l105 356h-125q-36 0 -47 -37zM827 0h-305l187 629h-164l-297 -1002h-307l508 1723q19 64 71.5 101.5t124.5 37.5h621z" />
    <glyph glyph-name="oslash" unicode="&#xf8;" horiz-adv-x="923" 
d="M1012 1489h317l-407 -698l-17 -791h-293l13 535l-459 -908h-318l627 1180l-18 682h299l-2 -483z" />
    <glyph glyph-name="ugrave" unicode="&#xf9;" horiz-adv-x="968" 
d="M913 1759l-159 -545h180l172 596h-125q-54 0 -68 -51zM918 0h-347l279 938h-178l-387 -1311h-344l673 2284q26 91 101 143.5t178 52.5h645z" />
    <glyph glyph-name="uacute" unicode="&#xfa;" horiz-adv-x="1081" 
d="M1649 2109l-553 -991l-29 -1118h-322l29 770l-575 -1143h-344l798 1510l-20 972h332l-19 -702l359 702h344z" />
    <glyph glyph-name="ucircumflex" unicode="&#xfb;" horiz-adv-x="966" 
d="M1536 2107l-621 -2107h-344l277 944h-172l-389 -1317h-344l729 2480h344l-260 -893h172l264 893h344z" />
    <glyph glyph-name="udieresis" unicode="&#xfc;" horiz-adv-x="1241" 
d="M768 514l-10 729l-473 -1616h-342l729 2480h336l8 -737l444 737h350l-622 -2107h-344l366 1243z" />
    <glyph glyph-name="yacute" unicode="&#xfd;" horiz-adv-x="968" 
d="M831 1479l-546 -1852h-344l733 2480h280l123 -415l123 415h340l-622 -2107h-340l354 1198z" />
    <glyph glyph-name="thorn" unicode="&#xfe;" horiz-adv-x="1103" 
d="M707 1653h-41l-142 -955h183v955zM-14 -373l452 2480h615v-2107h-346v379h-244l-129 -752h-348z" />
    <glyph glyph-name="ydieresis" unicode="&#xff;" horiz-adv-x="1073" 
d="M817 698l184 955h-49l-301 -955h166zM272 -373h-354l901 2480h553l-350 -2107h-338l74 379h-219z" />
    <glyph glyph-name="OE" unicode="&#x152;" horiz-adv-x="921" 
d="M618 0h-333l233 481l-74 1008h306l26 -551l256 551h316z" />
    <glyph glyph-name="oe" unicode="&#x153;" horiz-adv-x="1966" 
d="M1468 1778l-96 -265q-178 -14 -340 -96.5t-280.5 -210t-189 -300t-70.5 -359.5q0 -157 49 -304.5t138 -267t207.5 -209.5t265 -139t302.5 -49q205 0 387 81t320 226h333q-171 -262 -445.5 -415.5t-594.5 -153.5q-166 0 -325.5 44.5t-294 124t-248 193.5t-193 249
t-124 294.5t-44.5 325.5q0 171 46 333.5t128.5 297.5t198.5 248.5t252.5 191.5t295 120t322.5 40z" />
    <glyph glyph-name="Scaron" unicode="&#x160;" horiz-adv-x="448" 
d="M51 0v1489h307l-20 -711l188 711h310l-439 -1489h-346z" />
    <glyph glyph-name="scaron" unicode="&#x161;" horiz-adv-x="696" 
d="M174 0l307 1489h305l-163 -727l323 727h324l-756 -1489h-340z" />
    <glyph glyph-name="Ydieresis" unicode="&#x178;" horiz-adv-x="888" 
d="M51 2107h342l-22 -1026l264 1026h246l-33 -1026l264 1026h348l-622 -2107h-306l31 809l-229 -809h-283v2107z" />
    <glyph glyph-name="Zcaron" unicode="&#x17d;" 
d="M791 6q-196 0 -362.5 97.5t-263.5 264.5t-97 363t97 363t263.5 264.5t362.5 97.5t363 -97.5t264.5 -264.5t97.5 -363t-97.5 -363t-264.5 -264.5t-363 -97.5zM791 104q128 0 244 50t199 134t132 200t49 243t-49 242.5t-132 199.5t-199 133.5t-244 49.5q-169 0 -313.5 -84
t-229 -228t-84.5 -313t84.5 -313.5t229 -229t313.5 -84.5zM791 147q-118 0 -225.5 46.5t-186.5 124.5t-125.5 186.5t-46.5 226.5q0 157 79 290t213.5 210.5t291.5 77.5t291 -77.5t212 -210.5t78 -290q0 -119 -46.5 -227t-124.5 -186t-185 -124.5t-225 -46.5zM791 238
q57 0 110 20.5t94 55t70.5 69.5t52.5 74q-319 -84 -655 0q23 -39 52.5 -74t70.5 -69.5t94 -55t111 -20.5zM442 487q346 -79 699 0l110 177h-921zM715 731h155l-77 187zM602 874q7 -8 38.5 7.5t29.5 21.5q-15 29 -45.5 111t-55.5 119q-7 9 -38.5 -6t-58 -36.5t-21.5 -27.5z
M983 874l147 189q5 6 -21 27.5t-57 36.5t-38 6q-30 -39 -61 -129.5t-35 -100.5q-7 -4 19 -19q35 -19 46 -10zM1321 25v77h-31v23h84v-23h-31v-77h-22zM1384 25v100h31l19 -78l18 78h29v-100h-19v77l-20 -77h-19l-20 77v-77h-19z" />
    <glyph glyph-name="zcaron" unicode="&#x17e;" horiz-adv-x="405" 
d="M51 0v2107h342l-28 -1011l266 1011h342l-619 -2107h-303z" />
    <glyph glyph-name="florin" unicode="&#x192;" horiz-adv-x="1351" 
d="M1300 410v-410h-337v49zM1264 438l-301 -319v186h-498l-309 -678h-369l1133 2480h380v-1638l-337 362v564l-373 -820h373v185z" />
    <glyph glyph-name="circumflex" unicode="&#x2c6;" 
d="M791 6q-196 0 -362.5 97.5t-263.5 264.5t-97 363t97 363t263.5 264.5t362.5 97.5t363 -97.5t264.5 -264.5t97.5 -363t-97.5 -363t-264.5 -264.5t-363 -97.5zM791 104q128 0 244 50t199 134t132 200t49 243t-49 242.5t-132 199.5t-199 133.5t-244 49.5q-169 0 -313.5 -84
t-229 -228t-84.5 -313t84.5 -313.5t229 -229t313.5 -84.5zM791 147q-118 0 -225.5 46.5t-186.5 124.5t-125.5 186.5t-46.5 226.5q0 157 79 290t213.5 210.5t291.5 77.5t291 -77.5t212 -210.5t78 -290q0 -119 -46.5 -227t-124.5 -186t-185 -124.5t-225 -46.5zM791 238
q57 0 110 20.5t94 55t70.5 69.5t52.5 74q-319 -84 -655 0q23 -39 52.5 -74t70.5 -69.5t94 -55t111 -20.5zM442 487q346 -79 699 0l110 177h-921zM715 731h155l-77 187zM602 874q7 -8 38.5 7.5t29.5 21.5q-15 29 -45.5 111t-55.5 119q-7 9 -38.5 -6t-58 -36.5t-21.5 -27.5z
M983 874l147 189q5 6 -21 27.5t-57 36.5t-38 6q-30 -39 -61 -129.5t-35 -100.5q-7 -4 19 -19q35 -19 46 -10zM1321 25v77h-31v23h84v-23h-31v-77h-22zM1384 25v100h31l19 -78l18 78h29v-100h-19v77l-20 -77h-19l-20 77v-77h-19z" />
    <glyph glyph-name="tilde" unicode="&#x2dc;" horiz-adv-x="1996" 
d="M1141 1735l-56 -297q-264 -109 -428.5 -351t-164.5 -540q0 -157 49 -304.5t138 -267t207.5 -209.5t265 -139t302.5 -49q205 0 387 81t320 226h333q-171 -262 -445.5 -415.5t-594.5 -153.5q-166 0 -325.5 44.5t-294 124t-248 193.5t-193 249t-124 294.5t-44.5 325.5
q0 210 69.5 406t191.5 350.5t291 267t364 164.5z" />
    <glyph glyph-name="endash" unicode="&#x2013;" horiz-adv-x="849" 
d="M51 1489h305l-16 -711l186 711h238l-23 -711l187 711h309l-440 -1489h-308l17 543l-162 -543h-293v1489z" />
    <glyph glyph-name="emdash" unicode="&#x2014;" horiz-adv-x="1249" 
d="M449 1489h305l-64 -711l234 711h243l-75 -711l237 711h320l-557 -1489h-308l56 543l-201 -543h-291z" />
    <glyph glyph-name="quoteleft" unicode="&#x2018;" horiz-adv-x="1103" 
d="M707 1653h-41l-142 -955h183v955zM51 0l387 2107h615v-2107h-346v379h-244l-64 -379h-348z" />
    <glyph glyph-name="quoteright" unicode="&#x2019;" 
d="M791 6q-196 0 -362.5 97.5t-263.5 264.5t-97 363t97 363t263.5 264.5t362.5 97.5t363 -97.5t264.5 -264.5t97.5 -363t-97.5 -363t-264.5 -264.5t-363 -97.5zM791 104q128 0 244 50t199 134t132 200t49 243t-49 242.5t-132 199.5t-199 133.5t-244 49.5q-169 0 -313.5 -84
t-229 -228t-84.5 -313t84.5 -313.5t229 -229t313.5 -84.5zM791 147q-118 0 -225.5 46.5t-186.5 124.5t-125.5 186.5t-46.5 226.5q0 157 79 290t213.5 210.5t291.5 77.5t291 -77.5t212 -210.5t78 -290q0 -119 -46.5 -227t-124.5 -186t-185 -124.5t-225 -46.5zM791 238
q57 0 110 20.5t94 55t70.5 69.5t52.5 74q-319 -84 -655 0q23 -39 52.5 -74t70.5 -69.5t94 -55t111 -20.5zM442 487q346 -79 699 0l110 177h-921zM715 731h155l-77 187zM602 874q7 -8 38.5 7.5t29.5 21.5q-15 29 -45.5 111t-55.5 119q-7 9 -38.5 -6t-58 -36.5t-21.5 -27.5z
M983 874l147 189q5 6 -21 27.5t-57 36.5t-38 6q-30 -39 -61 -129.5t-35 -100.5q-7 -4 19 -19q35 -19 46 -10zM1321 25v77h-31v23h84v-23h-31v-77h-22zM1384 25v100h31l19 -78l18 78h29v-100h-19v77l-20 -77h-19l-20 77v-77h-19z" />
    <glyph glyph-name="quotesinglbase" unicode="&#x201a;" horiz-adv-x="940" 
d="M1147 379l-49 -379h-344l6 43zM1122 424l-356 -305l25 186h-478l-381 -678h-407l1407 2480h436l-211 -1648l-305 368l66 572l-443 -824h346l23 183z" />
    <glyph glyph-name="quotedblleft" unicode="&#x201c;" horiz-adv-x="1073" 
d="M817 698l184 955h-49l-301 -955h166zM406 0h-355l768 2107h553l-350 -2107h-338l74 379h-219z" />
    <glyph glyph-name="quotedblright" unicode="&#x201d;" 
d="M791 6q-196 0 -362.5 97.5t-263.5 264.5t-97 363t97 363t263.5 264.5t362.5 97.5t363 -97.5t264.5 -264.5t97.5 -363t-97.5 -363t-264.5 -264.5t-363 -97.5zM791 104q128 0 244 50t199 134t132 200t49 243t-49 242.5t-132 199.5t-199 133.5t-244 49.5q-169 0 -313.5 -84
t-229 -228t-84.5 -313t84.5 -313.5t229 -229t313.5 -84.5zM791 147q-118 0 -225.5 46.5t-186.5 124.5t-125.5 186.5t-46.5 226.5q0 157 79 290t213.5 210.5t291.5 77.5t291 -77.5t212 -210.5t78 -290q0 -119 -46.5 -227t-124.5 -186t-185 -124.5t-225 -46.5zM791 238
q57 0 110 20.5t94 55t70.5 69.5t52.5 74q-319 -84 -655 0q23 -39 52.5 -74t70.5 -69.5t94 -55t111 -20.5zM442 487q346 -79 699 0l110 177h-921zM715 731h155l-77 187zM602 874q7 -8 38.5 7.5t29.5 21.5q-15 29 -45.5 111t-55.5 119q-7 9 -38.5 -6t-58 -36.5t-21.5 -27.5z
M983 874l147 189q5 6 -21 27.5t-57 36.5t-38 6q-30 -39 -61 -129.5t-35 -100.5q-7 -4 19 -19q35 -19 46 -10zM1321 25v77h-31v23h84v-23h-31v-77h-22zM1384 25v100h31l19 -78l18 78h29v-100h-19v77l-20 -77h-19l-20 77v-77h-19z" />
    <glyph glyph-name="quotedblbase" unicode="&#x201e;" horiz-adv-x="1341" 
d="M942 0l94 305h-487l-492 -678h-407l1833 2480h428l-621 -2107h-348zM1114 575l260 859l-620 -859h360z" />
    <glyph glyph-name="dagger" unicode="&#x2020;" horiz-adv-x="1351" 
d="M1300 2107v-2107h-337v305h-498l-309 -678h-369l1133 2480h380zM590 575h373v820z" />
    <glyph glyph-name="daggerdbl" unicode="&#x2021;" 
d="M791 6q-196 0 -362.5 97.5t-263.5 264.5t-97 363t97 363t263.5 264.5t362.5 97.5t363 -97.5t264.5 -264.5t97.5 -363t-97.5 -363t-264.5 -264.5t-363 -97.5zM791 104q128 0 244 50t199 134t132 200t49 243t-49 242.5t-132 199.5t-199 133.5t-244 49.5q-169 0 -313.5 -84
t-229 -228t-84.5 -313t84.5 -313.5t229 -229t313.5 -84.5zM791 147q-118 0 -225.5 46.5t-186.5 124.5t-125.5 186.5t-46.5 226.5q0 157 79 290t213.5 210.5t291.5 77.5t291 -77.5t212 -210.5t78 -290q0 -119 -46.5 -227t-124.5 -186t-185 -124.5t-225 -46.5zM791 238
q57 0 110 20.5t94 55t70.5 69.5t52.5 74q-319 -84 -655 0q23 -39 52.5 -74t70.5 -69.5t94 -55t111 -20.5zM442 487q346 -79 699 0l110 177h-921zM715 731h155l-77 187zM602 874q7 -8 38.5 7.5t29.5 21.5q-15 29 -45.5 111t-55.5 119q-7 9 -38.5 -6t-58 -36.5t-21.5 -27.5z
M983 874l147 189q5 6 -21 27.5t-57 36.5t-38 6q-30 -39 -61 -129.5t-35 -100.5q-7 -4 19 -19q35 -19 46 -10zM1321 25v77h-31v23h84v-23h-31v-77h-22zM1384 25v100h31l19 -78l18 78h29v-100h-19v77l-20 -77h-19l-20 77v-77h-19z" />
    <glyph glyph-name="bullet" unicode="&#x2022;" horiz-adv-x="1257" 
d="M848 1270q143 0 264 -70.5t191.5 -192t70.5 -264.5t-70.5 -264t-191.5 -191.5t-264 -70.5q-173 0 -312.5 104.5t-189.5 266.5h168q45 -95 135.5 -153t198.5 -58q154 0 262.5 107.5t108.5 258.5q0 154 -108.5 262.5t-262.5 108.5q-107 0 -196 -58t-134 -153h-172
q53 162 191 264.5t311 102.5zM336 627q-14 57 -14 116q0 69 14 121h512v158l262 -279l-262 -276v160h-512z" />
    <glyph glyph-name="ellipsis" unicode="&#x2026;" horiz-adv-x="1148" 
d="M743 0l43 305h-473l-381 -678h-407l1407 2480h436l-270 -2107h-355zM823 575l135 904l-483 -904h348z" />
    <glyph glyph-name="perthousand" unicode="&#x2030;" 
d="M791 6q-196 0 -362.5 97.5t-263.5 264.5t-97 363t97 363t263.5 264.5t362.5 97.5t363 -97.5t264.5 -264.5t97.5 -363t-97.5 -363t-264.5 -264.5t-363 -97.5zM791 104q128 0 244 50t199 134t132 200t49 243t-49 242.5t-132 199.5t-199 133.5t-244 49.5q-169 0 -313.5 -84
t-229 -228t-84.5 -313t84.5 -313.5t229 -229t313.5 -84.5zM791 147q-118 0 -225.5 46.5t-186.5 124.5t-125.5 186.5t-46.5 226.5q0 157 79 290t213.5 210.5t291.5 77.5t291 -77.5t212 -210.5t78 -290q0 -119 -46.5 -227t-124.5 -186t-185 -124.5t-225 -46.5zM791 238
q57 0 110 20.5t94 55t70.5 69.5t52.5 74q-319 -84 -655 0q23 -39 52.5 -74t70.5 -69.5t94 -55t111 -20.5zM442 487q346 -79 699 0l110 177h-921zM715 731h155l-77 187zM602 874q7 -8 38.5 7.5t29.5 21.5q-15 29 -45.5 111t-55.5 119q-7 9 -38.5 -6t-58 -36.5t-21.5 -27.5z
M983 874l147 189q5 6 -21 27.5t-57 36.5t-38 6q-30 -39 -61 -129.5t-35 -100.5q-7 -4 19 -19q35 -19 46 -10zM1321 25v77h-31v23h84v-23h-31v-77h-22zM1384 25v100h31l19 -78l18 78h29v-100h-19v77l-20 -77h-19l-20 77v-77h-19z" />
    <glyph glyph-name="guilsinglleft" unicode="&#x2039;" horiz-adv-x="839" 
d="M348 0l101 1489h309l-80 -717l244 717h317l-557 -1489h-334z" />
    <glyph glyph-name="guilsinglright" unicode="&#x203a;" horiz-adv-x="1099" 
d="M481 1489h307l-165 -684l329 684h238l-166 -684l330 684h319l-760 -1489h-299l127 543l-272 -543h-295z" />
    <glyph glyph-name="Euro" unicode="&#x20ac;" 
d="M791 6q-196 0 -362.5 97.5t-263.5 264.5t-97 363t97 363t263.5 264.5t362.5 97.5t363 -97.5t264.5 -264.5t97.5 -363t-97.5 -363t-264.5 -264.5t-363 -97.5zM791 104q128 0 244 50t199 134t132 200t49 243t-49 242.5t-132 199.5t-199 133.5t-244 49.5q-169 0 -313.5 -84
t-229 -228t-84.5 -313t84.5 -313.5t229 -229t313.5 -84.5zM791 147q-118 0 -225.5 46.5t-186.5 124.5t-125.5 186.5t-46.5 226.5q0 157 79 290t213.5 210.5t291.5 77.5t291 -77.5t212 -210.5t78 -290q0 -119 -46.5 -227t-124.5 -186t-185 -124.5t-225 -46.5zM791 238
q57 0 110 20.5t94 55t70.5 69.5t52.5 74q-319 -84 -655 0q23 -39 52.5 -74t70.5 -69.5t94 -55t111 -20.5zM442 487q346 -79 699 0l110 177h-921zM715 731h155l-77 187zM602 874q7 -8 38.5 7.5t29.5 21.5q-15 29 -45.5 111t-55.5 119q-7 9 -38.5 -6t-58 -36.5t-21.5 -27.5z
M983 874l147 189q5 6 -21 27.5t-57 36.5t-38 6q-30 -39 -61 -129.5t-35 -100.5q-7 -4 19 -19q35 -19 46 -10zM1321 25v77h-31v23h84v-23h-31v-77h-22zM1384 25v100h31l19 -78l18 78h29v-100h-19v77l-20 -77h-19l-20 77v-77h-19z" />
    <glyph glyph-name="trademark" unicode="&#x2122;" horiz-adv-x="1374" 
d="M530 1489v-100h-172v-648h-122v648h-175v100h469zM995 758h-88l-176 516v-533h-123v748h166l178 -520l174 520h166v-748h-121v533z" />
    <glyph glyph-name="AVENGERS_old" unicode="&#xe001;" horiz-adv-x="7270" 
d="M5782 635l-187 -635h-309l438 1489h553q96 0 135 -56.5t13 -132.5l-150 -505q-10 -37 -41 -62.5t-84 -25.5q25 -4 42.5 -23t23.5 -54.5t-11 -88.5l-161 -541h-308l175 584q16 51 -31 51h-98zM1896 0v1489h306l-19 -698l182 698h306l-428 -1489h-347zM2980 0l442 1489h268
l5 -512l151 512h307l-438 -1489h-268l-4 555l-164 -555h-299zM5847 854h94q54 0 72 57l86 277q16 61 -47 61h-90zM1466 49l338 361v-410h-338v49zM1767 438l-301 -319v186h-491l-309 -678h-375l1132 2480h381v-1638l-338 362v564l-370 -820h370v185zM4403 1489h529l-80 -268
h-336q-26 0 -39.5 -9.5t-20.5 -37.5l-254 -861q-19 -59 48 -59h102l113 375h-64l78 264h350l-252 -842l-331 -168l32 117h-190q-54 0 -97.5 15.5t-75.5 48.5t-38.5 85.5t12.5 126.5l316 1074q25 79 72 109t126 30zM4635 0l442 1489h559l-82 -268h-248l-96 -328h244l-82 -264
h-242l-102 -346h276l-102 -283h-567zM7096 1221h-266q-39 0 -55 -43l-84 -304h166q89 0 128.5 -52t8.5 -156l-170 -578q-11 -42 -52.5 -65t-92.5 -23h-496l80 268h248q40 0 53.5 10.5t23.5 40.5l76 267q7 20 -14 20h-164q-180 0 -129 180l170 578q17 49 47 78t62 38t73 9
h467zM2329 0l438 1489h561l-80 -268h-250l-96 -328h244l-80 -264h-244l-102 -346h278l-106 -283h-563z" />
    <glyph glyph-name="AVENGERS_new" unicode="&#xe002;" horiz-adv-x="7270" 
d="M1896 0v1489h306l-19 -698l182 698h306l-428 -1489h-347zM2980 0l442 1489h268l5 -512l151 512h307l-438 -1489h-268l-4 555l-164 -555h-299zM1466 49l338 361v-410h-338v49zM1767 438l-301 -319v186h-491l-309 -678h-375l1132 2480h381v-1638l-338 362v564l-370 -820
h370v185zM4653 0l442 1489h560l-82 -268h-248l-96 -328h243l-82 -264h-241l-103 -346h277l-103 -283h-567zM2329 0l438 1489h561l-80 -268h-250l-96 -328h244l-80 -264h-244l-102 -346h278l-106 -283h-563zM4870 1221h-219q-34 0 -51 -17q-134 -144 -201 -252
q-22 -38 -33 -75l-164 -555q-12 -44 -1 -59t51 -15h98l113 381h-64l78 264h356l-245 -836l-345 -174l33 117h-203q-104 0 -164.5 71.5t-23.5 198.5l225 764q13 46 45 99q53 82 120.5 153.5t174.5 169.5q38 33 90 33h410zM5851 842h103q28 0 45.5 10t27.5 41l88 295
q18 61 -45 61h-98zM5800 631l-191 -631h-305l439 1489h555q49 0 83.5 -17t49 -43.5t19 -58.5t-6.5 -63l-166 -566q-17 -55 -65 -82.5t-115 -27.5l10 -631h-307v631zM7098 1221h-256q-20 0 -26 -17q-17 -52 -13 -76l111 -696q14 -83 -10 -151l-68 -191q-15 -42 -56 -66
t-97 -24h-457l86 283h221q34 0 43 28q13 44 14.5 69t-6.5 77l-104 540q-3 15 -4.5 29t-1.5 29t0.5 25.5t2.5 26.5t3 23t4 23.5t4 20.5q16 90 57 200q39 115 209 115h432z" />
    <glyph glyph-name="MrSmiley" unicode="&#xf8ff;" 
d="M791 6q-196 0 -362.5 97.5t-263.5 264.5t-97 363t97 363t263.5 264.5t362.5 97.5t363 -97.5t264.5 -264.5t97.5 -363t-97.5 -363t-264.5 -264.5t-363 -97.5zM791 104q128 0 244 50t199 134t132 200t49 243t-49 242.5t-132 199.5t-199 133.5t-244 49.5q-169 0 -313.5 -84
t-229 -228t-84.5 -313t84.5 -313.5t229 -229t313.5 -84.5zM791 147q-118 0 -225.5 46.5t-186.5 124.5t-125.5 186.5t-46.5 226.5q0 157 79 290t213.5 210.5t291.5 77.5t291 -77.5t212 -210.5t78 -290q0 -119 -46.5 -227t-124.5 -186t-185 -124.5t-225 -46.5zM791 238
q57 0 110 20.5t94 55t70.5 69.5t52.5 74q-319 -84 -655 0q23 -39 52.5 -74t70.5 -69.5t94 -55t111 -20.5zM442 487q346 -79 699 0l110 177h-921zM715 731h155l-77 187zM602 874q7 -8 38.5 7.5t29.5 21.5q-15 29 -45.5 111t-55.5 119q-7 9 -38.5 -6t-58 -36.5t-21.5 -27.5z
M983 874l147 189q5 6 -21 27.5t-57 36.5t-38 6q-30 -39 -61 -129.5t-35 -100.5q-7 -4 19 -19q35 -19 46 -10zM1321 25v77h-31v23h84v-23h-31v-77h-22zM1384 25v100h31l19 -78l18 78h29v-100h-19v77l-20 -77h-19l-20 77v-77h-19z" />
    <glyph glyph-name="CR" horiz-adv-x="256" 
 />
    </font>
</defs>
</svg>
