<svg xmlns="http://www.w3.org/2000/svg">
<defs>
<font id="Chiro-Regular" horiz-adv-x="176" vert-adv-y="1000" >
  <font-face 
    font-family="Chiro"
    font-weight="400"
    font-stretch="normal"
    units-per-em="1000"
    panose-1="2 0 5 0 0 0 0 0 0 0"
    ascent="814"
    descent="-186"
    x-height="467"
    cap-height="603"
    bbox="-269 -176 1020 769"
    underline-thickness="19"
    underline-position="-22"
    unicode-range="U+0020-FB06"
  />
<missing-glyph horiz-adv-x="770" vert-adv-y="0" 
d="M283 582q1 -1 2 -1q2 0 2 2l-2 22h3l11 -87h-2q-8 44 -25 64.5t-38 20.5q-18 0 -29 -12t-11 -29q0 -20 13 -36t40 -40q31 -27 47 -48t16 -50q0 -45 -30 -71t-70 -26q-39 0 -67.5 25t-28.5 69q0 41 25 64t57 23q24 0 40.5 -13t16.5 -37q0 -15 -9.5 -27.5t-29.5 -17.5
q-2 -1 -4 -1q-4 0 -4 3q0 4 6 5q19 3 29 13.5t10 24.5q0 23 -16 35.5t-39 12.5q-30 0 -54.5 -22.5t-24.5 -62.5q0 -42 27 -65.5t64 -23.5q35 0 61 21.5t26 60.5q0 28 -15 48t-45 47q-27 23 -40 40t-13 39q0 24 15 38.5t37 14.5q28 0 49 -23zM355 577q0 -10 -12 -12
q-10 0 -12 12q0 10 12 12q10 0 12 -12zM353 542v-209q0 -11 23 -10v-2h-64v2q25 0 23 10v176q0 6 -5 8t-18 2v2q29 0 40 21h1zM556 542v-55q10 54 44 54q17 0 27.5 -13.5t10.5 -40.5v-154q0 -11 22 -10v-2h-63v2q25 0 22 10v154q0 45 -26 45q-16 0 -26.5 -21.5t-10.5 -65.5
v-112q0 -11 23 -10v-2h-64v2q25 0 23 10v176q0 6 -5 8t-18 2v2q29 0 40 21h1zM500 534.5q5 -6.5 5 -16.5q0 -12 -10 -13q-9 0 -9 13q0 17 -5 17q-3 0 -6.5 -9.5t-3.5 -24.5q4 -17 4 -39q0 -32 -10 -55t-34 -23q-11 0 -20 6l-7 -16q-3 -7 -3 -12q0 -22 35 -23q31 -1 42 -9
t11 -25q0 -23 -23.5 -45t-51.5 -22q-38 0 -38 33q0 22 17 53q1 3 3 3q3 0 3 -3q0 -1 -1 -3q-19 -24 -19 -41q0 -25 40 -25q27 0 46.5 13.5t19.5 29.5q0 11 -9 17t-32 6q-28 0 -40.5 6t-17.5 21l23 43q-23 18 -23 71q0 33 10.5 56t34.5 23q26 0 38 -32q1 16 6.5 24t12.5 8
t12 -6.5zM409 520.5q-4 -17.5 -4 -51.5q0 -31 9 -57t23 -26q13 0 16.5 17t3.5 53q0 31 -8.5 56.5t-23.5 25.5q-12 0 -16 -17.5zM553 305v-284q0 -19 23 -19v-2h-8q-14 0 -23.5 7t-9.5 22v25q-5 -27 -16 -41.5t-25 -14.5q-23 0 -34 36.5t-11 75.5t11 74.5t34 35.5

<glyph glyph-name="uniFB00" unicode="ff" horiz-adv-x="379" vert-adv-y="0" 
d="M108 459v-434q0 -22 48 -20v-5h-136v5q27 0 37.5 4.5t10.5 15.5v434h-48v8h48v2q0 91 23.5 134.5t55.5 43.5q24 0 41.5 -22t17.5 -57q0 -15 -6 -23t-15 -8t-15.5 8.5t-6.5 22.5q0 31 -9.5 48.5t-22.5 17.5q-14 0 -24.5 -20.5t-10.5 -59.5q0 -38 11 -87h114v2
q0 91 23.5 134.5t55.5 43.5q24 0 41.5 -22t17.5 -57q0 -15 -6 -23t-15 -8t-15.5 8.5t-6.5 22.5q0 31 -9.5 48.5t-22.5 17.5q-14 0 -24.5 -20.5t-10.5 -59.5q0 -38 11 -87h68v-8h-67v-434q0 -22 48 -20v-5h-136v5q27 0 37.5 4.5t10.5 15.5v434h-113z" />
    <glyph glyph-name="uniFB01" unicode="fi" horiz-adv-x="334" vert-adv-y="0" 
d="M242.5 618.5q27.5 -28.5 27.5 -66.5q0 -15 -6 -23t-15 -8t-15.5 8t-6.5 23q0 33 -19 57.5t-47 24.5q-25 0 -45 -21t-20 -59t11 -87h142q11 0 13 6h4v-448q0 -22 48 -20v-5h-136v5q27 0 37.5 4.5t10.5 15.5v420q0 14 -17 14h-101v-434q0 -22 48 -20v-5h-136v5
q27 0 37.5 4.5t10.5 15.5v434h-48v8h48v2q0 96 31.5 137t77.5 41q38 0 65.5 -28.5z" />
    <glyph glyph-name="uniFB02" unicode="fl" horiz-adv-x="334" vert-adv-y="0" 
d="M226 552q0 38 -17.5 60t-47.5 22q-25 0 -45 -21t-20 -59t11 -87h68v-8h-67v-434q0 -22 48 -20v-5h-136v5q27 0 37.5 4.5t10.5 15.5v434h-48v8h48v2q0 96 31.5 137t77.5 41q36 0 61 -26q17 9 24 28h4v-624q0 -22 48 -20v-5h-136v5q27 0 37.5 4.5t10.5 15.5v527z" />
    <glyph glyph-name="uniFB03" unicode="ffi" horiz-adv-x="488" vert-adv-y="0" 
d="M108 459v-434q0 -22 48 -20v-5h-136v5q27 0 37.5 4.5t10.5 15.5v434h-48v8h48v2q0 91 23.5 134.5t55.5 43.5q24 0 41.5 -22t17.5 -57q0 -15 -6 -23t-15 -8t-15.5 8.5t-6.5 22.5q0 31 -9.5 48.5t-22.5 17.5q-14 0 -24.5 -20.5t-10.5 -59.5q0 -38 11 -87h115v2
q0 96 31.5 137t77.5 41q38 0 65.5 -28.5t27.5 -66.5q0 -15 -6 -23t-15 -8t-15.5 8t-6.5 23q0 33 -19 57.5t-47 24.5q-25 0 -45 -21t-20 -59t11 -87h142q11 0 13 6h4v-448q0 -22 48 -20v-5h-136v5q27 0 37.5 4.5t10.5 15.5v420q0 14 -17 14h-101v-434q0 -22 48 -20v-5h-136v5
q27 0 37.5 4.5t10.5 15.5v434h-114z" />
    <glyph glyph-name="uniFB04" unicode="ffl" horiz-adv-x="487" vert-adv-y="0" 
d="M108 459v-434q0 -22 48 -20v-5h-136v5q27 0 37.5 4.5t10.5 15.5v434h-48v8h48v2q0 91 23.5 134.5t55.5 43.5q24 0 41.5 -22t17.5 -57q0 -15 -6 -23t-15 -8t-15.5 8.5t-6.5 22.5q0 31 -9.5 48.5t-22.5 17.5q-14 0 -24.5 -20.5t-10.5 -59.5q0 -38 11 -87h114v2
q0 96 31.5 137t77.5 41q36 0 61 -26q17 9 24 28h4v-624q0 -22 48 -20v-5h-136v5q27 0 37.5 4.5t10.5 15.5v527q0 38 -17.5 60t-47.5 22q-25 0 -45 -21t-20 -59t11 -87h68v-8h-67v-434q0 -22 48 -20v-5h-136v5q27 0 37.5 4.5t10.5 15.5v434h-113z" />
    <glyph glyph-name=".notdef" horiz-adv-x="770" vert-adv-y="0" 
d="M283 582q1 -1 2 -1q2 0 2 2l-2 22h3l11 -87h-2q-8 44 -25 64.5t-38 20.5q-18 0 -29 -12t-11 -29q0 -20 13 -36t40 -40q31 -27 47 -48t16 -50q0 -45 -30 -71t-70 -26q-39 0 -67.5 25t-28.5 69q0 41 25 64t57 23q24 0 40.5 -13t16.5 -37q0 -15 -9.5 -27.5t-29.5 -17.5
q-2 -1 -4 -1q-4 0 -4 3q0 4 6 5q19 3 29 13.5t10 24.5q0 23 -16 35.5t-39 12.5q-30 0 -54.5 -22.5t-24.5 -62.5q0 -42 27 -65.5t64 -23.5q35 0 61 21.5t26 60.5q0 28 -15 48t-45 47q-27 23 -40 40t-13 39q0 24 15 38.5t37 14.5q28 0 49 -23zM355 577q0 -10 -12 -12
q-10 0 -12 12q0 10 12 12q10 0 12 -12zM353 542v-209q0 -11 23 -10v-2h-64v2q25 0 23 10v176q0 6 -5 8t-18 2v2q29 0 40 21h1zM556 542v-55q10 54 44 54q17 0 27.5 -13.5t10.5 -40.5v-154q0 -11 22 -10v-2h-63v2q25 0 22 10v154q0 45 -26 45q-16 0 -26.5 -21.5t-10.5 -65.5
v-112q0 -11 23 -10v-2h-64v2q25 0 23 10v176q0 6 -5 8t-18 2v2q29 0 40 21h1zM500 534.5q5 -6.5 5 -16.5q0 -12 -10 -13q-9 0 -9 13q0 17 -5 17q-3 0 -6.5 -9.5t-3.5 -24.5q4 -17 4 -39q0 -32 -10 -55t-34 -23q-11 0 -20 6l-7 -16q-3 -7 -3 -12q0 -22 35 -23q31 -1 42 -9
t11 -25q0 -23 -23.5 -45t-51.5 -22q-38 0 -38 33q0 22 17 53q1 3 3 3q3 0 3 -3q0 -1 -1 -3q-19 -24 -19 -41q0 -25 40 -25q27 0 46.5 13.5t19.5 29.5q0 11 -9 17t-32 6q-28 0 -40.5 6t-17.5 21l23 43q-23 18 -23 71q0 33 10.5 56t34.5 23q26 0 38 -32q1 16 6.5 24t12.5 8
t12 -6.5zM409 520.5q-4 -17.5 -4 -51.5q0 -31 9 -57t23 -26q13 0 16.5 17t3.5 53q0 31 -8.5 56.5t-23.5 25.5q-12 0 -16 -17.5zM553 305v-284q0 -19 23 -19v-2h-8q-14 0 -23.5 7t-9.5 22v25q-5 -27 -16 -41.5t-25 -14.5q-23 0 -34 36.5t-11 75.5t11 74.5t34 35.5
q14 0 25 -13.5t16 -40.5v105q0 6 -5 8t-18 2v2q29 0 40 22h1zM189 261q1 -1 2 -1t1 2v1l-1 21l3 1l10 -88h-1q-8 45 -25 65t-38 20q-18 0 -29 -12t-11 -29q0 -19 13 -35.5t40 -39.5q31 -28 47 -49t16 -49q0 -46 -30 -71.5t-70 -25.5q-39 0 -67.5 24.5t-28.5 68.5q0 42 25 65
t57 23q24 0 40.5 -13.5t16.5 -37.5q0 -15 -9.5 -27t-29.5 -17q-2 -1 -4 -1q-4 0 -4 3t6 4q19 4 29 14.5t10 23.5q-1 23 -16.5 36t-38.5 13q-30 0 -54.5 -22.5t-24.5 -63.5q0 -42 27 -65.5t64 -23.5q35 0 61 22t26 60q0 28 -15 48.5t-45 46.5q-27 24 -40 41t-13 38
q0 24 14.5 39t37.5 15q27 0 49 -24zM257 278v-59h37v-3h-37v-187q0 -23 14 -23q7 0 12.5 9.5t5.5 24.5q0 7 -1 16q-1 6 -1 9q0 5 3 5q5 0 5 -9q0 -30 -8.5 -46t-21.5 -16q-11 0 -18.5 10.5t-7.5 28.5v178h-23v2q17 0 27.5 12.5t12.5 47.5h1zM624 257q0 -11 -12 -13
q-10 0 -12 13q0 10 12 12q10 0 12 -12zM622 222v-210q0 -11 22 -10v-2h-63v2q25 0 22 10v177q0 6 -5 8t-17 2v2q28 0 39 21h2zM341 221v-168q0 -45 26 -45q16 0 26 21.5t10 65.5v93q0 6 -5 8t-17 2v2q29 0 39 21h2v-200q0 -19 23 -19v-2h-8q-14 0 -24 7t-10 22v24
q-9 -54 -43 -54q-17 0 -27.5 13.5t-10.5 40.5v135q0 6 -5 8t-18 2v2q29 0 40 21h2zM738 185.5q12 -34.5 12 -75.5t-12 -76t-41 -35t-41 35t-12 76t12 75.5t41 34.5t41 -34.5zM668 188.5q-5 -28.5 -5 -73.5v-5q0 -37 10.5 -72t29.5 -35q18 0 23 28.5t5 72.5v6
q0 36 -10.5 71.5t-29.5 35.5q-18 0 -23 -28.5zM478 187q-10 -26 -10 -77q0 -50 10 -77t24 -27q13 0 23 23.5t10 66.5v29q0 43 -10 65.5t-23 22.5q-14 0 -24 -26z" />
    <glyph glyph-name=".null" horiz-adv-x="0" vert-adv-y="0" 
 />
    <glyph glyph-name="nonmarkingreturn" horiz-adv-x="333" 
 />
    <glyph glyph-name="space" unicode=" " horiz-adv-x="170" vert-adv-y="0" 
 />
    <glyph glyph-name="space" unicode="&#xa0;" horiz-adv-x="170" vert-adv-y="0" 
 />
    <glyph glyph-name="exclam" unicode="!" horiz-adv-x="92" vert-adv-y="0" 
d="M64.5 42.5q7.5 -7.5 7.5 -18.5t-7.5 -18.5t-18.5 -7.5t-18.5 7.5t-7.5 18.5t7.5 18.5t18.5 7.5t18.5 -7.5zM61 601q6 -8 6 -23q0 -96 -9 -277.5l-9 -181.5h-6l-9 181.5t-9 277.5q0 15 6.5 23t14.5 8q9 0 15 -8z" />
    <glyph glyph-name="quotedbl" unicode="&#x22;" horiz-adv-x="174" vert-adv-y="0" 
d="M37.5 601.5q5.5 5.5 14.5 5.5q17 0 26 -11t9 -30q0 -25 -16.5 -56.5t-47.5 -60.5l-3 4q44 45 44 75q0 11 -5.5 19.5t-14.5 18.5q-12 13 -12 20q0 10 5.5 15.5zM104 601.5q6 5.5 15 5.5q17 0 26 -11t9 -30q0 -25 -16.5 -56.5t-47.5 -60.5l-3 4q43 45 43 75q0 11 -5 19.5
t-14 18.5q-13 13 -13 20q0 10 6 15.5z" />
    <glyph glyph-name="numbersign" unicode="#" horiz-adv-x="273" vert-adv-y="0" 
d="M45 -4h-25l52 263h-46v26h51l6 34h-46v25h51l52 263h25l-52 -263h63l52 263h25l-52 -263h45v-25h-50l-7 -34h46v-26h-51l-51 -263h-25l51 263h-62zM171 319h-63l-6 -34h62z" />
    <glyph glyph-name="dollar" unicode="$" horiz-adv-x="338" vert-adv-y="0" 
d="M178 635v-28q45 -8 82 -48q3 -3 5 -3q3 0 3 5v1l-2 46h4l23 -186l-4 -1q-20 84 -47.5 127t-63.5 52v-241q3 -2 7 -6q66 -56 99.5 -99.5t33.5 -101.5q0 -71 -39.5 -113t-100.5 -44v-37h-18v37q-64 5 -107 53q-3 3 -4 3q-3 0 -3 -6v-1l3 -53h-5l-24 190l5 1
q21 -83 57 -126.5t78 -51.5v321q-59 51 -87 87.5t-28 82.5q0 51 31.5 82.5t79.5 31.5h2q1 0 2 -1v27h18zM156 603q-38 0 -62 -25t-24 -61q0 -38 23 -70.5t67 -70.5v227h-4zM178 2q46 0 77.5 35.5t31.5 86.5q0 54 -28.5 96t-80.5 88v-306z" />
    <glyph glyph-name="percent" unicode="%" horiz-adv-x="421" vert-adv-y="0" 
d="M153.5 568q19.5 -44 19.5 -109q0 -64 -19.5 -108.5t-56.5 -44.5t-57 44.5t-20 108.5q0 65 20 109t57 44t56.5 -44zM346 612l-249 -612h-19l249 612h19zM40 459q0 -148 57 -148q56 0 56 148t-56 148q-57 0 -57 -148zM381.5 262.5q19.5 -44.5 19.5 -108.5q0 -65 -19.5 -109
t-56.5 -44t-57 44t-20 109q0 64 20 108.5t57 44.5t56.5 -44.5zM268 154q0 -148 57 -148q56 0 56 148t-56 148q-57 0 -57 -148z" />
    <glyph glyph-name="ampersand" unicode="&#x26;" horiz-adv-x="547" vert-adv-y="0" 
d="M53 311.5q33 55.5 92 89.5v19q0 91 32.5 138.5t74.5 47.5q29 0 49 -22.5t20 -60.5t-19 -75t-44 -61t-37 -24q-11 0 -11 11q0 6 6.5 12.5t22.5 17.5q35 25 55.5 50.5t20.5 68.5q0 32 -15.5 50.5t-37.5 18.5q-33 0 -58.5 -38.5t-25.5 -109.5q0 -128 44 -231t113 -152
q43 38 68.5 98t25.5 139q0 33 -8.5 58t-23.5 53q-12 23 -12 30q0 11 11 11q17 0 31.5 -37.5t14.5 -99.5q0 -85 -27 -150t-73 -106q45 -30 92 -30q21 0 51.5 12t53.5 32l2 -2q-32 -33 -68.5 -52t-64.5 -19q-51 0 -99 34q-55 -34 -115 -34q-73 0 -123.5 51.5t-50.5 144.5
q0 62 33 117.5zM302 37q-65 50 -108.5 147t-48.5 212q-44 -33 -65.5 -87t-21.5 -115q0 -88 43 -135.5t107 -47.5q48 0 94 26z" />
    <glyph glyph-name="quotesingle" unicode="'" horiz-adv-x="107" vert-adv-y="0" 
d="M37.5 601.5q5.5 5.5 14.5 5.5q17 0 26 -11t9 -30q0 -25 -16.5 -56.5t-47.5 -60.5l-3 4q44 45 44 75q0 11 -5.5 19.5t-14.5 18.5q-12 13 -12 20q0 10 5.5 15.5z" />
    <glyph glyph-name="parenleft" unicode="(" horiz-adv-x="172" vert-adv-y="0" 
d="M152 605q-47 -37 -70 -125.5t-23 -216.5q0 -129 23 -217t70 -126l-2 -3q-54 44 -92 133t-38 213q0 123 38 212t92 133z" />
    <glyph glyph-name="parenright" unicode=")" horiz-adv-x="172" vert-adv-y="0" 
d="M114.5 475q37.5 -89 37.5 -212q0 -124 -37.5 -213t-92.5 -133l-2 3q47 38 70 126t23 217q0 128 -23 216.5t-70 125.5l2 3q55 -44 92.5 -133z" />
    <glyph glyph-name="asterisk" unicode="*" horiz-adv-x="287" vert-adv-y="0" 
d="M238 395q-15 9 -40 30q-29 27 -52 40q0 -26 8 -65q7 -32 7 -49q0 -8 -5 -15t-12 -7q-8 0 -13 7t-5 15q0 17 7 49q8 39 8 65q-23 -13 -52 -40q-25 -21 -40 -30q-5 -3 -13 -3q-10 0 -14 7q-2 3 -2 7q0 12 12 19q15 9 46 19q38 13 61 26q-23 12 -61 25q-31 10 -46 19
q-12 7 -12 19q0 4 2 7q4 7 15 7q7 0 12 -3q15 -9 40 -30q30 -27 52 -40q0 26 -8 65q-7 32 -7 50q0 7 5 14t13 7q7 0 12 -7t5 -14q0 -18 -7 -50q-8 -39 -8 -65q23 13 52 40q25 21 40 30q6 3 13 3q10 0 14 -7q2 -3 2 -7q0 -12 -12 -19q-15 -9 -46 -19q-37 -13 -60 -25
q23 -13 60 -26q31 -10 46 -19q12 -7 12 -19q0 -4 -2 -7q-4 -7 -14 -7q-7 0 -13 3z" />
    <glyph glyph-name="plus" unicode="+" horiz-adv-x="446" vert-adv-y="0" 
d="M232 60h-18v194h-194v18h194v194h18v-194h194v-18h-194v-194z" />
    <glyph glyph-name="comma" unicode="," horiz-adv-x="107" vert-adv-y="0" 
d="M37.5 43.5q5.5 5.5 14.5 5.5q21 0 29 -17q6 -10 6 -24q0 -25 -16.5 -56.5t-47.5 -60.5l-3 4q44 45 44 75q0 11 -5.5 19.5t-14.5 18.5q-12 13 -12 20q0 10 5.5 15.5z" />
    <glyph glyph-name="hyphen" unicode="-" horiz-adv-x="446" vert-adv-y="0" 
d="M20 254v18h406v-18h-406z" />
    <glyph glyph-name="hyphen" unicode="&#xad;" horiz-adv-x="446" vert-adv-y="0" 
d="M20 254v18h406v-18h-406z" />
    <glyph glyph-name="period" unicode="." horiz-adv-x="92" vert-adv-y="0" 
d="M64.5 6.5q-7.5 -7.5 -18.5 -7.5t-18.5 7.5t-7.5 18.5t7.5 18.5t18.5 7.5t18.5 -7.5t7.5 -18.5t-7.5 -18.5z" />
    <glyph glyph-name="slash" unicode="/" horiz-adv-x="307" vert-adv-y="0" 
d="M287 609l-248 -612h-19l249 612h18z" />
    <glyph glyph-name="zero" unicode="0" horiz-adv-x="347" vert-adv-y="0" 
d="M287 523.5q40 -88.5 40 -217.5t-40 -217.5t-114 -88.5t-113.5 88.5t-39.5 217.5t39.5 217.5t113.5 88.5t114 -88.5zM85.5 522q-25.5 -84 -25.5 -216q0 -133 25.5 -216.5t87.5 -83.5t88 83.5t26 216.5q0 132 -26 216t-88 84t-87.5 -84z" />
    <glyph glyph-name="one" unicode="1" horiz-adv-x="256" vert-adv-y="0" 
d="M78 511q58 15 66 96h4v-582q0 -11 9.5 -14t38.5 -4l40 -2v-5h-216v5l40 2q29 1 38.5 4t9.5 14v474q0 7 -6 7h-4l-77 -15l-1 4z" />
    <glyph glyph-name="two" unicode="2" horiz-adv-x="319" vert-adv-y="0" 
d="M176 612q51 0 87 -37t36 -101q0 -62 -32 -108.5t-97 -108.5q-62 -60 -96 -106t-45 -108q17 33 55 33q28 0 87 -21q44 -15 59 -15q52 0 58 79l5 67l5 -1l-4 -121q-1 -64 -65 -64q-24 0 -44.5 9.5t-47.5 27.5q-21 14 -34 20.5t-27 6.5q-23 0 -36.5 -16t-13.5 -48h-6
q0 80 33 138t97 131q55 62 81.5 106.5t27.5 100.5v1q0 54 -29.5 86.5t-71.5 32.5q-38 0 -72 -29.5t-51 -86.5l-5 2q18 62 57.5 95t85.5 35h3z" />
    <glyph glyph-name="three" unicode="3" horiz-adv-x="358" vert-adv-y="0" 
d="M263.5 580q30.5 -31 30.5 -76q0 -37 -22 -71.5t-66 -60.5q65 -20 98.5 -71t33.5 -114q0 -58 -23 -100.5t-60.5 -64.5t-79.5 -22q-64 0 -109.5 52t-45.5 148q0 19 3.5 28.5t8.5 9.5q6 0 6 -11q0 -5 -2 -14q-3 -16 -3 -31q0 -83 39.5 -128t95.5 -45h1q55 1 95.5 44
t40.5 117q0 71 -41 121.5t-118 55.5v3q54 18 81.5 56.5t27.5 82.5q0 42 -24.5 72.5t-65.5 30.5h-1q-36 0 -66.5 -23.5t-46.5 -65.5l-4 1q19 51 53.5 79t82.5 28q50 0 80.5 -31z" />
    <glyph glyph-name="four" unicode="4" horiz-adv-x="357" vert-adv-y="0" 
d="M158 603q35 0 54.5 -20.5t19.5 -61.5q0 -115 -158 -333h153v171q33 23 36 75h4v-246h70v-2q-42 -3 -52 -37h-18v-124q0 -22 48 -20v-5h-136v5q26 0 37 4.5t11 15.5v124h-207v4l32 35q154 170 154 293q0 63 -32.5 90.5t-69.5 27.5v4h54z" />
    <glyph glyph-name="five" unicode="5" horiz-adv-x="352" vert-adv-y="0" 
d="M312 607l-11 -36h-184l-39 -117q127 -25 190.5 -97t63.5 -171q0 -73 -42 -129.5t-115 -56.5q-64 0 -109.5 52t-45.5 148q0 19 3.5 28.5t8.5 9.5q6 0 6 -11q0 -5 -2 -14q-3 -16 -3 -31q0 -84 40.5 -129t99.5 -45q62 0 96.5 49t34.5 117q0 88 -60.5 155.5t-181.5 89.5
l54 188h196z" />
    <glyph glyph-name="six" unicode="6" horiz-adv-x="332" vert-adv-y="0" 
d="M121 376q98 0 144.5 -57t46.5 -139q0 -74 -36.5 -127t-103.5 -53q-72 0 -112 62t-40 155q0 81 31 163t93 145t150 87l1 -5q-76 -22 -130 -86.5t-81.5 -148.5t-27.5 -165q0 -88 30 -144.5t86 -56.5q52 0 78.5 47.5t26.5 116.5q0 83 -38.5 141.5t-117.5 58.5v6z" />
    <glyph glyph-name="seven" unicode="7" horiz-adv-x="358" vert-adv-y="0" 
d="M219 0h-37q-39 0 -60.5 25t-21.5 84q0 75 46 192.5t140 262.5h-210q-28 0 -38 -21l-14 -30l-4 2l36 88h282v-4l-29 -35q-90 -109 -133 -221t-43 -198q0 -72 21 -106.5t65 -34.5v-4z" />
    <glyph glyph-name="eight" unicode="8" horiz-adv-x="353" vert-adv-y="0" 
d="M268.5 46q35.5 39 35.5 96q0 58 -33 101.5t-97 99.5q-57 50 -85 85.5t-28 79.5q0 47 33 75.5t84 28.5q56 0 89.5 -28.5t33.5 -74.5q0 -32 -19 -68.5t-58 -71.5l-3 4q65 60 65 126q0 46 -31.5 76.5t-76.5 30.5q-44 0 -68.5 -22.5t-24.5 -55.5q0 -42 27.5 -76t83.5 -82
q67 -58 102 -104t35 -109q0 -65 -42 -111t-113 -46q-69 0 -113.5 47.5t-44.5 114.5q0 53 31 104.5t94 90.5l2 -4q-54 -37 -80.5 -86t-26.5 -100q0 -66 39 -113t99 -47q55 0 90.5 39z" />
    <glyph glyph-name="nine" unicode="9" horiz-adv-x="332" vert-adv-y="0" 
d="M212 236q-98 0 -145 57t-47 138q0 75 36.5 128t103.5 53q72 0 112 -62t40 -155q0 -81 -30.5 -163t-92.5 -145t-150 -87l-2 5q76 22 130.5 86.5t82 148.5t27.5 165q0 88 -30.5 144.5t-86.5 56.5q-52 0 -78 -47.5t-26 -116.5q0 -84 38 -142.5t118 -58.5v-5z" />
    <glyph glyph-name="colon" unicode=":" horiz-adv-x="92" vert-adv-y="0" 
d="M64.5 5.5q-7.5 -7.5 -18.5 -7.5t-18.5 7.5t-7.5 18.5t7.5 18.5t18.5 7.5t18.5 -7.5t7.5 -18.5t-7.5 -18.5zM64.5 383.5q-7.5 -7.5 -18.5 -7.5t-18.5 7.5t-7.5 18.5t7.5 18.5t18.5 7.5t18.5 -7.5t7.5 -18.5t-7.5 -18.5z" />
    <glyph glyph-name="semicolon" unicode=";" horiz-adv-x="107" vert-adv-y="0" 
d="M77.5 381.5q-7.5 -7.5 -18.5 -7.5q-10 0 -18 7.5t-8 18.5t8 18.5t18 7.5q11 0 18.5 -7.5t7.5 -18.5t-7.5 -18.5zM37.5 42.5q5.5 5.5 14.5 5.5q17 0 26 -11t9 -30q0 -25 -16.5 -56.5t-47.5 -60.5l-3 4q44 45 44 75q0 11 -5.5 19.5t-14.5 18.5q-12 13 -12 20q0 10 5.5 15.5
z" />
    <glyph glyph-name="less" unicode="&#x3c;" horiz-adv-x="450" vert-adv-y="0" 
d="M430 444l-384 -174l384 -174v-22l-410 185v21l410 186v-22z" />
    <glyph glyph-name="equal" unicode="=" horiz-adv-x="446" vert-adv-y="0" 
d="M426 327h-406v18h406v-18zM426 187h-406v18h406v-18z" />
    <glyph glyph-name="greater" unicode="&#x3e;" horiz-adv-x="450" vert-adv-y="0" 
d="M430 280v-21l-410 -185v22l384 174l-384 174v22z" />
    <glyph glyph-name="question" unicode="?" horiz-adv-x="307" vert-adv-y="0" 
d="M250 571q37 -37 37 -99q0 -50 -17 -85.5t-51 -82.5q-37 -50 -55.5 -89.5t-18.5 -97.5h-6q0 55 14.5 96t42.5 94q26 49 39 84.5t13 80.5q0 60 -31.5 92t-74.5 32q-42 0 -72 -28.5t-30 -77.5q0 -9 3 -24q4 -13 4 -19q0 -14 -12 -15q-6 0 -10.5 7t-4.5 20q0 59 37 103.5
t98 45.5q58 0 95 -37zM159.5 40.5q7.5 -7.5 7.5 -18.5t-7.5 -18.5t-18.5 -7.5t-18.5 7.5t-7.5 18.5t7.5 18.5t18.5 7.5t18.5 -7.5z" />
    <glyph glyph-name="at" unicode="@" horiz-adv-x="588" vert-adv-y="0" 
d="M280 437q-32 -52 -58 -167q-15 -74 -15 -127q0 -47 11.5 -71t29.5 -24q28 0 58.5 47t52.5 144l13 62q12 57 12 100t-12 65.5t-31 22.5q-29 0 -61 -52zM517 545.5q51 -68.5 51 -171.5q0 -75 -25 -147.5t-67.5 -119t-91.5 -46.5q-19 0 -32.5 13.5t-13.5 42.5q0 15 4 33h-2
q-23 -58 -53 -88t-59 -30q-31 0 -44.5 33t-13.5 86q0 57 13 119q10 49 31 103.5t50.5 92.5t63.5 38q29 0 46 -27.5t17 -86.5v-1l10 49q37 28 50 68h4l-79 -373q-2 -8 -2 -16q0 -28 24 -28q44 0 79.5 38.5t56 100t20.5 126.5q0 100 -49.5 167t-150.5 67q-97 0 -170.5 -57.5
t-113 -147t-39.5 -181.5q0 -107 54.5 -178t159.5 -71q35 0 86 18q30 11 43 11q16 0 18 -11q0 -13 -35 -23.5t-111 -10.5q-109 0 -167.5 81t-58.5 199q0 97 40 188.5t117 150t183 58.5t157 -68.5z" />
    <glyph glyph-name="A" unicode="A" horiz-adv-x="410" vert-adv-y="0" 
d="M205 608l136 -582q3 -12 13 -16.5t36 -4.5v-5h-137v5q48 0 48 17v4l-112 474l-81 -328q19 36 52 50t84 14v-3q-50 0 -72 -19t-33 -58l-17 -63q-25 -89 -102 -103v1q44 16 55 64l16 68l111 485h3z" />
    <glyph glyph-name="B" unicode="B" horiz-adv-x="513" vert-adv-y="0" 
d="M398 603v-4h-8q-52 0 -107.5 -30t-96.5 -89.5t-53 -141.5q18 54 65.5 84t104.5 30q49 0 92.5 -23.5t70.5 -71t27 -116.5q0 -62 -37 -118t-102.5 -89.5t-146.5 -33.5h-187v5q27 0 37.5 4.5t10.5 15.5v553q0 23 -48 21v4h378zM125 598q-18 0 -17 -20v-553q0 -11 4 -15
t13 -4h82q112 0 178.5 68.5t66.5 166.5q0 97 -48 148t-115 51q-64 0 -112 -44.5t-48 -118.5q0 -61 27 -95.5t54 -47.5q11 -5 11 -13q0 -5 -8 -7q-4 0 -12 5q-28 18 -53 60t-25 98v10q2 113 41.5 185.5t111.5 125.5h-151z" />
    <glyph glyph-name="C" unicode="C" horiz-adv-x="603" vert-adv-y="0" 
d="M562 422l-4 -1q-18 83 -87.5 132.5t-155.5 49.5q-67 0 -125 -32.5t-93.5 -100.5t-35.5 -169q0 -95 36.5 -162t96 -100.5t127.5 -33.5q66 0 122.5 28t90.5 84.5t34 136.5q0 15 7 15q8 0 8 -15q0 -78 -38.5 -137t-101 -90.5t-133.5 -31.5q-75 0 -141.5 34.5t-107.5 103.5
t-41 168q0 88 36 158t101.5 109.5t150.5 39.5q130 0 218 -59q4 -2 6 -2q5 0 5 7v1l-3 53h5z" />
    <glyph glyph-name="D" unicode="D" horiz-adv-x="478" vert-adv-y="0" 
d="M186 603q124 -2 198 -84.5t74 -216.5q0 -89 -34 -157.5t-96 -106.5t-142 -38h-166v5q27 0 37.5 4.5t10.5 15.5v553q0 23 -48 21v4h166zM125 598q-18 0 -17 -20v-553q0 -11 4 -15t13 -4h61q108 0 170 81.5t62 214.5t-62 214.5t-170 81.5h-61z" />
    <glyph glyph-name="E" unicode="E" horiz-adv-x="336" vert-adv-y="0" 
d="M289 608l17 -143h-3q-14 76 -45 104t-106 28h-27q-18 0 -17 -19v-238h43q31 0 42.5 26.5t14.5 68.5h3v-196h-3q-4 43 -15 69t-42 26h-43v-309q0 -11 4 -15t13 -4h27q76 0 108 26t45 101l8 48h3l-23 -186h-3q-2 5 -9 5h-261v5q27 0 37.5 4.5t10.5 15.5v553q0 23 -48 21v4
h257q7 0 9 5h3z" />
    <glyph glyph-name="F" unicode="F" horiz-adv-x="326" vert-adv-y="0" 
d="M289 608l17 -142l-3 -1q-14 76 -45 104.5t-106 28.5h-27q-18 0 -17 -20v-238h43q31 0 42.5 26.5t14.5 68.5h3v-196h-3q-4 43 -15 69t-42 26h-43v-309q0 -22 48 -20v-5h-136v5q27 0 37.5 4.5t10.5 15.5v553q0 23 -48 21v4h257q7 0 9 5h3z" />
    <glyph glyph-name="G" unicode="G" horiz-adv-x="612" vert-adv-y="0" 
d="M526 548q4 -2 6 -2q5 0 5 7v1l-3 53l5 1l23 -186l-4 -1q-18 83 -87.5 132t-155.5 49q-67 0 -125 -32.5t-93.5 -100t-35.5 -168.5q0 -95 37 -161.5t96 -100t124 -33.5q58 0 107 26t79.5 75.5t30.5 119.5v14q0 23 -49 21v4h106v-4q-18 0 -18 -21v-247h-4l-23 193h-3
q-14 -90 -84 -141t-160 -51q-72 0 -136 34t-104 103t-40 169q0 88 36 157.5t101.5 109.5t150.5 40q130 0 218 -60z" />
    <glyph glyph-name="H" unicode="H" horiz-adv-x="412" vert-adv-y="0" 
d="M156 603v-4q-27 0 -37.5 -4.5t-10.5 -16.5v-238h196v238q0 23 -48 21v4h136v-4q-27 0 -37.5 -4.5t-10.5 -16.5v-553q0 -22 48 -20v-5h-136v5q27 0 37.5 4.5t10.5 15.5v309h-196v-309q0 -22 48 -20v-5h-136v5q27 0 37.5 4.5t10.5 15.5v553q0 23 -48 21v4h136z" />
    <glyph glyph-name="I" unicode="I" vert-adv-y="0" 
d="M156 603v-4q-27 0 -37.5 -4.5t-10.5 -16.5v-553q0 -22 48 -20v-5h-136v5q27 0 37.5 4.5t10.5 15.5v553q0 23 -48 21v4h136z" />
    <glyph glyph-name="J" unicode="J" horiz-adv-x="329" vert-adv-y="0" 
d="M309 603v-5q-26 0 -37 -4.5t-11 -15.5v-476q0 -54 -32 -81t-74 -27q-31 0 -57.5 15.5t-44.5 37.5q-2 3 -4 3q-3 0 -3 -5v-1l3 -54h-5l-24 190l4 1q28 -106 61 -144t71 -38q31 0 48.5 24t17.5 65v490q0 22 -49 20v5h136z" />
    <glyph glyph-name="K" unicode="K" horiz-adv-x="430" vert-adv-y="0" 
d="M342 598.5q12 -8.5 12 -18.5q0 -6 -4 -10.5t-11 -4.5q-11 0 -27 12q-17 14 -32 14q-46 0 -92 -55.5t-74 -140.5q26 21 62 21t67 -27t46 -86l65 -245q13 -50 56 -71l-1 -2q-81 23 -98 86l-63 234q-14 54 -36 77.5t-49 23.5q-30 0 -55 -25v-355q0 -23 48 -21v-5h-136v5
q27 0 37.5 4.5t10.5 16.5v553q0 22 -48 20v5h136v-5q-27 0 -37.5 -4.5t-10.5 -15.5v-182q30 93 80.5 151.5t117.5 58.5q24 0 36 -8.5z" />
    <glyph glyph-name="L" unicode="L" horiz-adv-x="336" vert-adv-y="0" 
d="M156 603v-4q-27 0 -37.5 -5t-10.5 -16v-553q0 -11 4 -15t13 -4h27q76 0 108 26t45 101l8 48h3l-23 -186h-3q-2 5 -9 5h-261v5q27 0 37.5 4.5t10.5 15.5v553q0 23 -48 21v4h136z" />
    <glyph glyph-name="M" unicode="M" horiz-adv-x="456" vert-adv-y="0" 
d="M105 603l125 -519l117 519h89v-4q-26 0 -37 -5t-11 -16v-553q0 -23 48 -20v-5h-135v5q26 0 37 4.5t11 15.5v533l-134 -564h-3l-137 563l6 -532q0 -11 11 -15.5t37 -4.5v-5h-109v5q27 0 37.5 4.5t10.5 15.5v553q0 23 -48 21v4h85z" />
    <glyph glyph-name="N" unicode="N" horiz-adv-x="383" vert-adv-y="0" 
d="M103 603l204 -496l-5 471q0 11 -11 16t-37 5v4h109v-4q-27 0 -37.5 -5t-10.5 -16v-584h-4l-236 574l6 -543q0 -11 11 -15.5t37 -4.5v-5h-109v5q27 0 37.5 4.5t10.5 15.5v553q0 23 -48 21v4h83z" />
    <glyph glyph-name="O" unicode="O" horiz-adv-x="621" vert-adv-y="0" 
d="M461 568q66 -41 103 -111.5t37 -154.5q0 -85 -37 -155t-103 -111t-150 -41h-1q-84 0 -150.5 41t-103 111t-36.5 155q0 84 36.5 154.5t103 111.5t150.5 41q85 0 151 -41zM172.5 562.5q-52.5 -37.5 -82 -105t-29.5 -154.5v-1q0 -80 38 -149t99.5 -109.5t129.5 -40.5
t120.5 38t82 106t29.5 155q0 85 -37.5 153.5t-99.5 106.5t-130 38t-120.5 -37.5z" />
    <glyph glyph-name="P" unicode="P" horiz-adv-x="412" vert-adv-y="0" 
d="M142 603q121 0 185.5 -54.5t64.5 -152.5t-64.5 -152.5t-185.5 -54.5h-17v5h17q105 0 157.5 55t52.5 147t-52.5 147t-157.5 55h-17q-18 0 -17 -20v-553q0 -22 48 -20v-5h-136v5q27 0 37.5 4.5t10.5 15.5v553q0 23 -48 21v4h122z" />
    <glyph glyph-name="Q" unicode="Q" horiz-adv-x="622" vert-adv-y="0" 
d="M461 569q66 -41 103 -111t37 -155q0 -84 -37 -154.5t-103 -111.5t-150 -41h-1q-84 0 -150.5 41t-103 111.5t-36.5 154.5q0 85 36.5 155t103 111t150.5 41q85 0 151 -41zM172.5 563.5q-52.5 -37.5 -82 -105t-29.5 -153.5v-2q0 -80 38 -148.5t99.5 -109t129.5 -40.5
t120.5 37.5t82 105.5t29.5 155q0 86 -37.5 154t-99.5 106t-130 38t-120.5 -37.5zM203 -28q22 20 68 20q32 0 61.5 -12.5t73.5 -38.5q48 -27 81.5 -41t71.5 -14q68 0 123 38l1 -2q-76 -60 -148 -60q-42 0 -81 15.5t-93 44.5q-42 23 -67.5 34t-48.5 11q-30 0 -43.5 -11.5
t-13.5 -26.5q0 -22 20 -29q10 -4 10 -11q0 -6 -7 -6q-4 0 -9 2q-21 13 -21 40t22 47z" />
    <glyph glyph-name="R" unicode="R" horiz-adv-x="462" vert-adv-y="0" 
d="M181 603q70 0 119 -26.5t74 -69t25 -90.5q0 -71 -50.5 -125t-141.5 -61q56 -11 85.5 -45.5t58.5 -95.5q23 -47 42 -72t49 -33v-2q-61 6 -91 40t-59 97q-26 56 -50 83t-70 27h-47v4h56q84 1 131.5 54.5t47.5 127.5t-47.5 127.5t-131.5 53.5h-56q-18 0 -17 -19v-553
q0 -23 48 -20v-5h-136v5q27 0 37.5 4.5t10.5 15.5v553q0 23 -48 21v4h161z" />
    <glyph glyph-name="S" unicode="S" horiz-adv-x="338" vert-adv-y="0" 
d="M255.5 36.5q31.5 35.5 31.5 86.5q0 60 -32.5 103.5t-96.5 99.5q-57 50 -85 86t-28 82q0 52 31.5 83t79.5 31q59 0 104 -50q3 -3 5 -3q3 0 3 5v1l-2 46l4 1l24 -186l-4 -1q-12 65 -32.5 105.5t-46.5 58t-55 17.5q-38 0 -62 -25t-24 -61q0 -43 28.5 -78t86.5 -85
q66 -57 99.5 -100.5t33.5 -100.5q0 -74 -41.5 -116t-104.5 -42q-72 0 -119 53q-3 3 -4 3q-3 0 -3 -5v-1l3 -54h-5l-24 190l4 1q17 -90 61.5 -135t93.5 -45q45 0 76.5 35.5z" />
    <glyph glyph-name="T" unicode="T" horiz-adv-x="367" vert-adv-y="0" 
d="M40 608q2 -5 10 -5h267q7 0 10 5h2l18 -142l-5 -1q-12 71 -40 102t-70 31h-12q-18 0 -17 -20v-553q0 -22 48 -20v-5h-135v5q26 0 37 4.5t11 15.5v553q0 11 -4 15.5t-14 4.5h-12q-41 0 -69 -31t-40 -102l-5 1l17 142h3z" />
    <glyph glyph-name="U" unicode="U" horiz-adv-x="379" vert-adv-y="0" 
d="M156 604v-5q-27 0 -37.5 -4.5t-10.5 -16.5v-466q0 -46 27 -71t66 -25q41 0 72 29t31 79l-7 454q0 12 -10.5 16.5t-37.5 4.5v5h110v-5q-27 0 -37.5 -4.5t-10.5 -16.5v-454q0 -61 -36 -95t-86 -34q-49 0 -85 34t-36 95v454q0 23 -48 21v5h136z" />
    <glyph glyph-name="V" unicode="V" horiz-adv-x="414" vert-adv-y="0" 
d="M394 603v-4q-26 0 -37.5 -5t-14.5 -16l-134 -584h-3l-137 584q-3 12 -12.5 16.5t-35.5 4.5v4h137v-4q-49 0 -49 -17q0 -2 1 -4l115 -487l106 487v5q0 17 -44 16v4h108z" />
    <glyph glyph-name="W" unicode="W" horiz-adv-x="569" vert-adv-y="0" 
d="M549 603v-4q-26 0 -37.5 -5t-13.5 -16l-135 -584h-3l-75 321l-77 -321h-3l-137 584q-3 12 -12.5 16.5t-35.5 4.5v4h137v-4q-49 0 -49 -17q0 -2 1 -4l115 -488l56 246l-57 242q-3 12 -12.5 16.5t-35.5 4.5v4h137v-4q-49 0 -49 -17q0 -2 1 -4l115 -487l106 487q1 2 1 4
q0 18 -45 17v4h108z" />
    <glyph glyph-name="X" unicode="X" horiz-adv-x="368" vert-adv-y="0" 
d="M161 603v-4q-44 0 -44 -15q0 -3 1 -6l77 -240l84 240q1 3 1 6q0 15 -45 15v4h108v-4q-26 0 -37 -5t-15 -16l-92 -252l96 -301q4 -11 15.5 -15.5t37.5 -4.5v-5h-137v5q44 0 44 15q0 2 -1 5l-79 246l-90 -246q-1 -3 -1 -5q0 -15 44 -15v-5h-108v5q26 0 37 4.5t15 15.5
l99 259l-94 294q-4 11 -15.5 16t-37.5 5v4h137z" />
    <glyph glyph-name="Y" unicode="Y" horiz-adv-x="414" vert-adv-y="0" 
d="M394 603v-4q-26 0 -37 -5t-15 -16l-115 -370v-183q0 -22 48 -20v-5h-136v5q27 0 37.5 4.5t10.5 15.5v180l-119 373q-4 12 -13.5 16.5t-34.5 4.5v4h137v-4q-49 0 -49 -16q0 -2 1 -5l114 -358l107 358q1 3 1 5q0 16 -45 16v4h108z" />
    <glyph glyph-name="Z" unicode="Z" horiz-adv-x="306" vert-adv-y="0" 
d="M45 608q2 -5 9 -5h227v-4l-217 -593h58q71 0 105.5 28t47.5 99l8 48h3l-23 -186h-3q-2 5 -9 5h-231v5l217 592h-54q-76 0 -109 -26.5t-46 -101.5l-3 1l17 138h3z" />
    <glyph glyph-name="bracketleft" unicode="[" horiz-adv-x="119" vert-adv-y="0" 
d="M20 608h79v-30h-40v-631h40v-30h-79v691z" />
    <glyph glyph-name="backslash" unicode="\" horiz-adv-x="307" vert-adv-y="0" 
d="M287 -3h-18l-249 612h19z" />
    <glyph glyph-name="bracketright" unicode="]" horiz-adv-x="119" vert-adv-y="0" 
d="M99 608v-691h-79v30h40v631h-40v30h79z" />
    <glyph glyph-name="asciicircum" unicode="^" horiz-adv-x="353" vert-adv-y="0" 
d="M167 665h20l146 -323h-22l-135 297l-134 -297h-22z" />
    <glyph glyph-name="underscore" unicode="_" horiz-adv-x="364" vert-adv-y="0" 
d="M20 -14h324v-19h-324v19z" />
    <glyph glyph-name="grave" unicode="`" horiz-adv-x="147" vert-adv-y="0" 
d="M125 503l-91 49q-14 9 -14 19q0 7 4.5 11.5t12.5 4.5q9 0 22 -14l68 -68z" />
    <glyph glyph-name="a" unicode="a" horiz-adv-x="306" vert-adv-y="0" 
d="M72 471q5 -16 15 -16q5 0 19 5q32 10 58 10q36 0 60 -29.5t24 -84.5v-311q0 -22 7 -31t31 -9v-4h-15q-62 0 -62 61v105q-15 -82 -52 -125.5t-76 -43.5q-26 0 -43.5 21t-17.5 58t20.5 64.5t63.5 65.5q52 46 78.5 83.5t26.5 92.5q0 81 -51 81q-30 0 -58.5 -29t-43.5 -100
l-3 1l17 135h2zM209 333q-9 -32 -27 -56t-49 -54q-37 -37 -55 -65t-18 -70q0 -31 12.5 -48.5t32.5 -17.5q24 0 48 26t40 78.5t16 128.5v78z" />
    <glyph glyph-name="b" unicode="b" horiz-adv-x="310" vert-adv-y="0" 
d="M108 649v-295q10 57 33.5 86t52.5 29q35 0 56.5 -38.5t30.5 -92.5t9 -103q0 -84 -23 -161.5t-73 -77.5q-29 0 -52.5 30t-33.5 89v-54q0 -61 -62 -61h-16v5q25 0 31.5 8t6.5 31v534q0 12 -10.5 16.5t-37.5 4.5v4q30 0 54 13.5t30 32.5h4zM128.5 405q-20.5 -48 -20.5 -140
v-61q0 -92 21 -142t49 -50q29 0 51 57.5t22 165.5q0 107 -22 162.5t-51 55.5t-49.5 -48z" />
    <glyph glyph-name="c" unicode="c" horiz-adv-x="273" vert-adv-y="0" 
d="M247 336q-13 65 -40.5 97t-63.5 32q-39 0 -61 -51.5t-22 -178.5q0 -73 13.5 -123.5t35 -76t45.5 -25.5q39 0 64 52t25 165q0 9 5 9t5 -7q0 -90 -26.5 -161t-89.5 -71t-90 75.5t-27 162.5q0 102 30 168.5t94 66.5q20 0 49 -8q17 -5 23 -5q12 0 16 15h2l17 -135z" />
    <glyph glyph-name="d" unicode="d" horiz-adv-x="300" vert-adv-y="0" 
d="M242 649v-605q0 -23 6.5 -31t31.5 -8v-5h-16q-62 0 -62 61v54q-10 -59 -33.5 -89t-52.5 -30q-50 0 -73 77.5t-23 161.5q0 49 9.5 103t31 92.5t55.5 38.5q29 0 52.5 -29t33.5 -86v224q0 12 -10.5 16.5t-37.5 4.5v4q30 0 54 13.5t31 32.5h3zM81.5 397.5
q-21.5 -55.5 -21.5 -162.5q0 -108 21.5 -165.5t50.5 -57.5t49.5 50t20.5 142v61q0 92 -20.5 140t-49.5 48t-50.5 -55.5z" />
    <glyph glyph-name="e" unicode="e" horiz-adv-x="274" vert-adv-y="0" 
d="M254 468l-188 -322q11 -66 35 -101t53 -35q39 0 64 52t25 165q0 9 5 9t5 -7q0 -90 -26.5 -161t-89.5 -71t-90 75.5t-27 162.5q0 61 11 113.5t37 87t71 34.5q25 0 45 -14.5t32 -37.5l35 52zM82.5 413q-22.5 -52 -22.5 -178q0 -43 5 -80l92 159q24 43 24 87q0 29 -11 46.5
t-31 17.5q-34 0 -56.5 -52z" />
    <glyph glyph-name="f" unicode="f" horiz-adv-x="226" vert-adv-y="0" 
d="M188.5 625q17.5 -22 17.5 -57q0 -15 -6 -23t-15 -8t-15.5 8.5t-6.5 22.5q0 31 -9.5 48.5t-22.5 17.5q-14 0 -24.5 -20.5t-10.5 -59.5q0 -38 11 -87h68v-8h-67v-434q0 -22 48 -20v-5h-136v5q27 0 37.5 4.5t10.5 15.5v434h-48v8h48v2q0 91 23.5 134.5t55.5 43.5
q24 0 41.5 -22z" />
    <glyph glyph-name="g" unicode="g" horiz-adv-x="316" vert-adv-y="0" 
d="M285 458q11 -14 11 -35q0 -13 -6 -20t-15 -7q-7 0 -13 7t-6 20q0 35 -11 35q-7 0 -14 -19.5t-7 -51.5q9 -36 9 -83q0 -69 -22 -118t-73 -49q-24 0 -42 12l-16 -33q-6 -14 -6 -27q0 -20 18 -33t56 -14q66 -2 90 -19.5t24 -53.5q0 -31 -23 -64.5t-60.5 -56t-75.5 -22.5
q-41 0 -62 18.5t-21 52.5q0 46 36 112q4 6 8 6q5 0 5 -5q0 -3 -2 -6q-39 -52 -39 -88q0 -26 21 -40.5t63 -14.5q58 0 99.5 29.5t42.5 62.5q0 24 -19 36.5t-69 12.5h-1q-58 0 -85 13.5t-37 43.5l49 93q-26 20 -37.5 61.5t-11.5 90.5q0 69 22 118t73 49q56 0 80 -67
q3 35 14.5 51.5t26.5 16.5t26 -14zM90.5 429q-8.5 -37 -8.5 -112q0 -65 19 -120t50 -55q27 0 35 36t8 113q0 66 -18.5 120.5t-50.5 54.5q-26 0 -34.5 -37z" />
    <glyph glyph-name="h" unicode="h" horiz-adv-x="349" vert-adv-y="0" 
d="M108 649v-294q10 57 34.5 85.5t58.5 28.5q36 0 58 -28.5t22 -85.5v-330q0 -22 48 -20v-5h-135v5q26 0 37 4.5t11 15.5v330q0 47 -14.5 71t-42.5 24q-34 0 -55.5 -46t-21.5 -138v-241q0 -22 48 -20v-5h-136v5q27 0 37.5 4.5t10.5 15.5v553q0 12 -10.5 16.5t-37.5 4.5v4
q30 0 54 13.5t30 32.5h4z" />
    <glyph glyph-name="i" unicode="i" vert-adv-y="0" 
d="M105 565q8 -8 8 -19q0 -10 -8 -18t-18 -8q-11 0 -19 8t-8 18q0 11 8 19t19 8q10 0 18 -8zM108 473v-448q0 -22 48 -20v-5h-136v5q27 0 37.5 4.5t10.5 15.5v377q0 12 -10.5 16.5t-37.5 4.5v4q30 0 54 13.5t30 32.5h4z" />
    <glyph glyph-name="j" unicode="j" horiz-adv-x="152" vert-adv-y="0" 
d="M124.5 566.5q7.5 -7.5 7.5 -18.5t-7.5 -18.5t-18.5 -7.5t-18.5 7.5t-7.5 18.5t7.5 18.5t18.5 7.5t18.5 -7.5zM127 474v-447q0 -58 -29 -109.5t-76 -92.5l-2 3q38 39 52.5 75t14.5 90v411q0 12 -10.5 16t-37.5 4v5q30 0 54 13.5t30 31.5h4z" />
    <glyph glyph-name="k" unicode="k" horiz-adv-x="361" vert-adv-y="0" 
d="M108 649v-377q15 94 59.5 146t95.5 52q20 0 29.5 -7t9.5 -15q0 -7 -5.5 -11.5t-15.5 -4.5t-28 7q-17 7 -26 7q-19 0 -42 -20t-42.5 -60t-28.5 -97q10 24 26.5 36t35.5 12q23 0 42.5 -17.5t26.5 -46.5l47 -198q13 -52 49 -63l-1 -2q-74 14 -90 77l-46 187q-6 22 -19 35.5
t-27 13.5h-1q-17 0 -30.5 -18.5t-17.5 -55.5q-1 -21 -1 -42v-161q0 -23 48 -21v-5h-136v5q27 0 37.5 4.5t10.5 16.5v553q0 12 -10.5 16t-37.5 4v5q30 0 54 13.5t30 31.5h4z" />
    <glyph glyph-name="l" unicode="l" vert-adv-y="0" 
d="M108 649v-624q0 -22 48 -20v-5h-136v5q27 0 37.5 4.5t10.5 15.5v553q0 12 -10.5 16.5t-37.5 4.5v4q30 0 54 13.5t30 32.5h4z" />
    <glyph glyph-name="m" unicode="m" horiz-adv-x="523" vert-adv-y="0" 
d="M108 473v-118q10 57 34.5 85.5t58.5 28.5q36 0 58 -28.5t22 -85.5q11 57 35.5 85.5t58.5 28.5q36 0 58 -28.5t22 -85.5v-330q0 -22 48 -20v-5h-136v5q27 0 37.5 4.5t10.5 15.5v330q0 47 -14 71t-43 24q-34 0 -55.5 -46t-21.5 -139v-240q0 -22 48 -20v-5h-135v5
q26 0 37 4.5t11 15.5v330q0 47 -14.5 71t-42.5 24q-34 0 -55.5 -46t-21.5 -139v-240q0 -22 48 -20v-5h-136v5q27 0 37.5 4.5t10.5 15.5v377q0 12 -10.5 16.5t-37.5 4.5v4q30 0 54 13.5t30 32.5h4z" />
    <glyph glyph-name="n" unicode="n" horiz-adv-x="349" vert-adv-y="0" 
d="M108 473v-118q10 57 34.5 85.5t58.5 28.5q36 0 58 -28.5t22 -85.5v-330q0 -22 48 -20v-5h-135v5q26 0 37 4.5t11 15.5v330q0 47 -14.5 71t-42.5 24q-34 0 -55.5 -46t-21.5 -139v-240q0 -22 48 -20v-5h-136v5q27 0 37.5 4.5t10.5 15.5v377q0 12 -10.5 16.5t-37.5 4.5v4
q30 0 54 13.5t30 32.5h4z" />
    <glyph glyph-name="o" unicode="o" horiz-adv-x="265" vert-adv-y="0" 
d="M220 394q25 -74 25 -162t-25 -161.5t-88 -73.5q-62 0 -87 73.5t-25 161.5q0 89 25 162.5t87 73.5q63 0 88 -74zM70.5 398q-10.5 -62 -10.5 -165q0 -78 22 -153.5t63 -75.5q39 0 49.5 62.5t10.5 165.5q0 78 -22.5 153t-63.5 75q-38 0 -48.5 -62z" />
    <glyph glyph-name="p" unicode="p" horiz-adv-x="310" vert-adv-y="0" 
d="M108 473v-118q10 58 33.5 86.5t52.5 28.5q35 0 56.5 -38t30.5 -92.5t9 -103.5q0 -83 -23 -160.5t-73 -77.5q-29 0 -52.5 30t-33.5 88v-267q0 -22 48 -20v-5h-136v5q27 0 37.5 4.5t10.5 15.5v554q0 12 -10.5 16t-37.5 4v5q30 0 54 13.5t30 31.5h4zM128.5 406.5
q-20.5 -48.5 -20.5 -139.5v-62q0 -62 10 -105t26 -64.5t34 -21.5q29 0 51 57t22 165t-22 163.5t-51 55.5t-49.5 -48.5z" />
    <glyph glyph-name="q" unicode="q" horiz-adv-x="310" vert-adv-y="0" 
d="M242 472v-623q0 -22 48 -20v-5h-136v5q27 0 37.5 4.5t10.5 15.5v267q-10 -58 -33.5 -88t-52.5 -30q-50 0 -73 77.5t-23 160.5q0 49 9.5 103.5t31 92.5t55.5 38q29 0 52.5 -28.5t33.5 -86.5v49q31 28 36 68h4zM81.5 399.5q-21.5 -55.5 -21.5 -163.5t21.5 -165t50.5 -57
q18 0 34 21.5t26 63t10 106.5v62q0 91 -20.5 139.5t-49.5 48.5t-50.5 -55.5z" />
    <glyph glyph-name="r" unicode="r" horiz-adv-x="262" vert-adv-y="0" 
d="M108 473v-123q9 55 28.5 87t44.5 32q27 0 44 -25t17 -63q0 -13 -6 -20t-14 -7t-14 7t-6 20q0 34 -6.5 53t-24.5 19q-27 0 -45 -53t-18 -143v-232q0 -22 48 -20v-5h-136v5q27 0 37.5 4.5t10.5 15.5v377q0 12 -10.5 16.5t-37.5 4.5v4q30 0 54 13.5t30 32.5h4z" />
    <glyph glyph-name="s" unicode="s" horiz-adv-x="244" vert-adv-y="0" 
d="M173.5 29.5q18.5 24.5 18.5 73.5q0 44 -22.5 77.5t-65.5 77.5q-39 40 -58 68t-19 63q0 31 20.5 56t61.5 25q19 0 49 -7q17 -4 23 -4q12 0 15 11h3l18 -134h-2l-1 -1q-14 69 -38 99.5t-67 30.5q-25 0 -41.5 -16t-16.5 -45q0 -28 18.5 -53.5t56.5 -63.5q48 -48 73 -85
t25 -84q0 -54 -27 -86.5t-73 -32.5q-51 0 -86 43q-4 6 -7 6q-2 0 -3 -8l-3 -41h-5v179h3q9 -93 37 -133t64 -40q31 0 49.5 24.5z" />
    <glyph glyph-name="t" unicode="t" horiz-adv-x="208" vert-adv-y="0" 
d="M108 592v-125h78v-7h-78v-398q0 -50 29 -50q15 0 27 20.5t12 53.5q0 14 -3 34q-2 13 -2 19q0 9 6 9q4 0 7.5 -5.5t3.5 -16.5q0 -64 -18 -96t-46 -32q-24 0 -40 22t-16 60v380h-48v5q36 0 58.5 26.5t25.5 100.5h4z" />
    <glyph glyph-name="u" unicode="u" horiz-adv-x="339" vert-adv-y="0" 
d="M108 471v-359q0 -47 14.5 -71t42.5 -24q34 0 55.5 46t21.5 138v200q0 12 -11 16t-37 4v5q29 0 53 13.5t31 31.5h3v-426q0 -23 6.5 -31.5t31.5 -8.5v-5h-16q-61 0 -61 61v51q-11 -57 -35.5 -85.5t-58.5 -28.5q-36 0 -58 28.5t-22 85.5v289q0 12 -10.5 16t-37.5 4v5
q30 0 54 13.5t30 31.5h4z" />
    <glyph glyph-name="v" unicode="v" horiz-adv-x="349" vert-adv-y="0" 
d="M157 467v-4q-49 0 -49 -17q0 -2 1 -4l83 -354l77 354v4q0 17 -48 17v4h108v-4q-25 0 -35 -4.5t-13 -16.5l-105 -448h-3l-105 448q-3 12 -12.5 16.5t-35.5 4.5v4h137z" />
    <glyph glyph-name="w" unicode="w" horiz-adv-x="466" vert-adv-y="0" 
d="M249 471l60 -382l77 353v4q0 17 -49 17v4h109v-4q-26 0 -36 -4.5t-12 -16.5l-106 -448h-3l-54 347l-59 -347h-3l-105 448q-3 12 -12.5 16.5t-35.5 4.5v4h137v-4q-49 0 -49 -17q0 -2 1 -4l79 -337l58 366h3z" />
    <glyph glyph-name="x" unicode="x" horiz-adv-x="340" vert-adv-y="0" 
d="M161 467v-5q-45 0 -45 -13q0 -2 1 -5l63 -175l71 175q1 2 1 4q0 14 -45 14v5h109v-5q-26 0 -37 -4.5t-16 -15.5l-80 -182l85 -235q4 -12 15 -16t37 -4v-5h-137v5q26 0 35.5 2.5t9.5 9.5q0 2 -1 6l-69 191l-74 -191q-1 -3 -1 -5q0 -13 45 -13v-5h-108v5q26 0 36.5 4.5
t15.5 15.5l83 199l-78 218q-4 11 -15 15.5t-38 4.5v5h137z" />
    <glyph glyph-name="y" unicode="y" horiz-adv-x="349" vert-adv-y="0" 
d="M329 467v-4q-25 0 -35 -5t-13 -16l-104 -445q-18 -77 -32 -114t-26.5 -48t-30.5 -11q-26 0 -43 29v118h3q2 -106 46 -106q20 0 37.5 27.5t39.5 111.5l-103 438q-3 11 -12.5 16t-35.5 5v4h137v-4q-49 0 -49 -17q0 -2 1 -4l82 -349l78 349q1 2 1 4q0 17 -49 17v4h108z" />
    <glyph glyph-name="z" unicode="z" horiz-adv-x="264" vert-adv-y="0" 
d="M244 464l-181 -457l81 1q32 0 50.5 13.5t28.5 50t13 106.5h4v-182h-5q-4 4 -11 4h-204v6l182 457l-73 -2q-36 -1 -61 -31.5t-35 -94.5l-4 1l18 136h4q2 -5 9 -5h184v-3z" />
    <glyph glyph-name="braceleft" unicode="{" horiz-adv-x="178" vert-adv-y="0" 
d="M158 607q-35 -10 -48 -24t-13 -44q0 -19 10 -65q11 -56 11 -84q0 -47 -20.5 -75.5t-57.5 -49.5v-3q37 -21 57.5 -49.5t20.5 -74.5q0 -29 -11 -84q-10 -46 -10 -66q0 -29 13 -43.5t48 -23.5v-3q-52 12 -72 37t-20 70q0 16 5 53q8 58 8 100q0 36 -17 58.5t-42 24.5v5
q25 3 42 25.5t17 57.5q0 42 -8 100q-5 37 -5 54q0 45 20 70t72 36v-2z" />
    <glyph glyph-name="bar" unicode="|" horiz-adv-x="79" vert-adv-y="0" 
d="M20 769h39v-939h-39v939z" />
    <glyph glyph-name="braceright" unicode="}" horiz-adv-x="178" vert-adv-y="0" 
d="M30 607q82 -18 82 -104v-1q0 -17 -5 -53q-7 -58 -7 -100q0 -35 16.5 -57.5t41.5 -25.5v-5q-25 -2 -41.5 -24.5t-16.5 -58.5q0 -42 7 -100q5 -36 5 -53q0 -40 -18.5 -67.5t-63.5 -37.5l-9 -2l-1 3l11 3q27 7 38.5 23t11.5 41v1q0 19 -9 65q-11 55 -11 84q0 46 20.5 74.5
t56.5 49.5v3q-36 21 -56.5 49.5t-20.5 75.5q0 28 11 84q9 45 9 64v1q0 25 -11.5 41t-38.5 24l-11 3l1 2z" />
    <glyph glyph-name="asciitilde" unicode="~" horiz-adv-x="434" vert-adv-y="0" 
d="M20 209q6 28 29 44.5t59 16.5q27 0 55 -6t69 -17q72 -20 101 -20q50 0 71 43h10q-6 -28 -29 -44.5t-59 -16.5q-27 0 -55 6t-69 18q-71 20 -101 20q-50 0 -71 -44h-10z" />
    <glyph glyph-name="exclamdown" unicode="&#xa1;" horiz-adv-x="92" vert-adv-y="0" 
d="M31.5 -131.5q-6.5 8.5 -6.5 23.5q0 95 9 276.5l9 181.5h6l9 -181.5t9 -276.5q0 -15 -6 -23.5t-15 -8.5q-8 0 -14.5 8.5zM27.5 427q-7.5 8 -7.5 18q0 11 7.5 18.5t18.5 7.5t18.5 -7.5t7.5 -18.5q0 -10 -7.5 -18t-18.5 -8t-18.5 8z" />
    <glyph glyph-name="cent" unicode="&#xa2;" horiz-adv-x="273" vert-adv-y="0" 
d="M135 57q-62 1 -88.5 76.5t-26.5 161.5q0 98 28 163.5t87 71.5v74h14v-74q18 -1 44 -8q17 -5 23 -5q12 0 16 15h2l17 -135l-4 -1q-12 62 -38 94t-60 35v-454q2 -1 5 -1q39 0 64 52t25 165q0 9 5 9t5 -7q0 -85 -24 -154t-80 -77v-60h-14v59zM135 525q-23 -3 -39.5 -25.5
t-26 -72.5t-9.5 -132q0 -93 21.5 -150t53.5 -71v451z" />
    <glyph glyph-name="sterling" unicode="&#xa3;" horiz-adv-x="336" vert-adv-y="0" 
d="M79 291q-24 86 -24 155v1q0 73 40 116.5t94 43.5q44 0 73 -29.5t29 -87.5q0 -27 -16 -27q-10 0 -10 17q0 5 3 19q5 20 5 29q0 33 -22.5 51.5t-53.5 18.5q-45 0 -74 -36t-29 -106q0 -33 8.5 -80t18.5 -85h96v-14h-92q16 -61 16 -97q0 -41 -17 -81t-51 -66v-2h141
q50 0 68 33t31 117h3l-10 -86l-5 -36l-8 -64h-3q-2 5 -9 5h-261v5q43 21 62.5 62t19.5 91q0 42 -20 119h-48v14h45z" />
    <glyph glyph-name="currency" unicode="&#xa4;" horiz-adv-x="324" vert-adv-y="0" 
d="M98 258q17 -17 40 -24q12 -3 24 -3t24 3q23 7 40 24q16 16 23 40q4 12 4 23q0 12 -4 24q-7 24 -23 40q-17 17 -41 24q-12 3 -24 3q-11 0 -23 -4q-24 -7 -40 -23t-23 -39q-4 -13 -4 -25q0 -11 4 -23q6 -24 23 -40zM64 389l-44 43l30 30l43 -43q16 11 37 17q16 5 32 5
t31 -5q21 -6 38 -17l43 43l30 -30l-43 -43q11 -17 17 -38q5 -15 5 -31q0 -15 -5 -31q-6 -21 -17 -38l43 -43l-30 -30l-43 44q-17 -12 -38 -18q-15 -5 -31 -5q-15 0 -31 5q-21 6 -38 18l-43 -44l-30 30l44 43q-12 17 -18 38q-5 16 -5 31q0 16 5 32q6 21 18 37z" />
    <glyph glyph-name="yen" unicode="&#xa5;" horiz-adv-x="414" vert-adv-y="0" 
d="M227 123v-98q0 -22 48 -20v-5h-136v5q27 0 37.5 4.5t10.5 15.5v98h-135v18h135v52h-135v18h133l-117 367q-4 12 -13.5 16.5t-34.5 4.5v4h137v-4q-49 0 -49 -16q0 -2 1 -5l114 -358l107 358q1 3 1 5q0 16 -45 16v4h108v-4q-26 0 -37 -5t-15 -16l-114 -367h135v-18h-136
v-52h136v-18h-136z" />
    <glyph glyph-name="brokenbar" unicode="&#xa6;" horiz-adv-x="79" vert-adv-y="0" 
d="M59 254v-424h-39v424h39zM20 347v422h39v-422h-39z" />
    <glyph glyph-name="section" unicode="&#xa7;" horiz-adv-x="276" vert-adv-y="0" 
d="M223 559q3 -3 5 -3t2 5l-2 48h5l23 -190l-5 -1q-23 99 -56 142.5t-77 43.5q-36 0 -55.5 -20t-19.5 -51q0 -37 26 -64t78 -63q54 -37 81 -65.5t27 -67.5q0 -41 -42 -100q43 -40 43 -84q0 -41 -26.5 -67t-71.5 -26q-59 0 -105 51q-3 3 -5 3t-2 -5l2 -48l-5 -1l-23 191h2
t3 1q23 -99 56 -142.5t77 -43.5q36 0 55.5 20t19.5 51q0 36 -26 63.5t-78 63.5q-54 37 -81 65.5t-27 67.5q0 41 42 99q-43 41 -43 85q0 40 26.5 66.5t71.5 26.5q59 0 105 -51zM44 355q0 -40 26.5 -68.5t79.5 -64.5q41 -29 59 -44q23 40 23 73q0 40 -26.5 68t-79.5 65
q-41 29 -59 44q-23 -40 -23 -73z" />
    <glyph glyph-name="dieresis" unicode="&#xa8;" vert-adv-y="0" 
d="M64.5 565q7.5 -8 7.5 -19q0 -10 -7.5 -18t-18.5 -8t-18.5 8t-7.5 18q0 11 7.5 19t18.5 8t18.5 -8zM148.5 565q7.5 -8 7.5 -19q0 -10 -7.5 -18t-18.5 -8t-18.5 8t-7.5 18q0 11 7.5 19t18.5 8t18.5 -8z" />
    <glyph glyph-name="copyright" unicode="&#xa9;" horiz-adv-x="621" vert-adv-y="0" 
d="M461 567q66 -41 103 -111.5t37 -154.5q0 -85 -37 -155t-103 -111t-150 -41h-1q-84 0 -150.5 41t-103 111t-36.5 155q0 84 36.5 154.5t103 111.5t150.5 41q85 0 151 -41zM169 552.5q-62 -38.5 -96.5 -105t-34.5 -146.5t34.5 -146.5t96.5 -105.5t141 -39h1q79 0 141 39
t96 105.5t34 146.5t-34 146.5t-96 105t-142 38.5q-79 0 -141 -38.5zM479 381h-3q-12 57 -60.5 91t-107.5 34q-72 0 -123.5 -53t-51.5 -155q0 -66 25.5 -112t66.5 -69.5t87 -23.5q71 0 121 45t50 127q0 11 5 11t5 -11q0 -80 -58 -129t-130 -49q-77 -1 -138.5 54.5
t-61.5 156.5q0 92 55 151.5t144 59.5t150 -41q2 -1 4 -1q4 0 4 5v1l-2 36h3z" />
    <glyph glyph-name="ordfeminine" unicode="&#xaa;" horiz-adv-x="178" vert-adv-y="0" 
d="M46 606q3 -8 8 -8q2 0 9 3q16 5 29 5q18 0 30 -15t12 -42v-156q0 -19 24 -19v-3h-8q-36 3 -36 31v52q-7 -40 -25.5 -62t-37.5 -22q-14 0 -22.5 10.5t-8.5 29.5q0 18 10.5 31.5t31.5 32.5q26 23 39 42t13 46q0 41 -25 41q-15 0 -29 -14.5t-22 -50.5l-1 1l8 67h1zM114 537
q-4 -16 -13 -27.5t-25 -27.5q-18 -18 -27 -32t-9 -35q0 -15 6.5 -24t15.5 -9q20 0 36 30.5t16 85.5v39z" />
    <glyph glyph-name="guillemotleft" unicode="&#xab;" horiz-adv-x="278" vert-adv-y="0" 
d="M158 417l-93 -197l93 -197l-3 -3l-135 200l135 200zM258 417l-93 -197l93 -197l-3 -3l-135 200l135 200z" />
    <glyph glyph-name="logicalnot" unicode="&#xac;" horiz-adv-x="450" vert-adv-y="0" 
d="M20 375h410v-241h-48v192h-362v49z" />
    <glyph glyph-name="registered" unicode="&#xae;" horiz-adv-x="621" vert-adv-y="0" 
d="M461 569q66 -41 103 -111.5t37 -154.5q0 -85 -37 -155t-103 -111t-150 -41h-1q-84 0 -150.5 41t-103 111t-36.5 155q0 84 36.5 154.5t103 111.5t150.5 41q85 0 151 -41zM169 554.5q-62 -38.5 -96.5 -105t-34.5 -146.5t34.5 -146.5t96.5 -105.5t141 -39h1q79 0 141 39
t96 105.5t34 146.5t-34 146.5t-96 105t-142 38.5q-79 0 -141 -38.5zM287 511q71 0 111 -38t40 -91q0 -48 -35 -85.5t-98 -42.5q38 -7 58.5 -31t41.5 -66q16 -33 28.5 -50t33.5 -23v-1q-42 4 -63 27.5t-41 66.5q-18 39 -34.5 57.5t-47.5 18.5h-33v3h39q58 1 90.5 38t32.5 88
t-32.5 88t-90.5 37h-39q-12 0 -12 -13v-382q0 -16 33 -15v-3h-94v3q19 0 26.5 3.5t7.5 11.5v382q0 16 -34 14v3h112z" />
    <glyph glyph-name="macron" unicode="&#xaf;" horiz-adv-x="179" vert-adv-y="0" 
d="M20 537v13h139v-13h-139z" />
    <glyph glyph-name="degree" unicode="&#xb0;" horiz-adv-x="184" vert-adv-y="0" 
d="M92 686q-22 0 -38 -16t-16 -38q0 -23 16 -38q16 -16 38 -16q23 0 38 16q16 15 16 38q0 22 -16 38t-38 16zM92 704q30 0 51 -21t21 -51q0 -29 -21 -51q-22 -21 -51 -21q-31 0 -51 21q-21 21 -21 51t21 51t51 21z" />
    <glyph glyph-name="plusminus" unicode="&#xb1;" horiz-adv-x="464" vert-adv-y="0" 
d="M20 0v4h395v-4h-395zM250 60h-18v194h-194v18h194v194h18v-194h194v-18h-194v-194z" />
    <glyph glyph-name="uni00B2" unicode="&#xb2;" horiz-adv-x="181" vert-adv-y="0" 
d="M100 605q25 0 43 -18.5t18 -50.5q0 -31 -16 -54t-48 -55q-31 -30 -48 -53t-22 -53q8 16 27 16q14 0 43 -10q22 -8 30 -8q24 0 27 39l4 34h3l-2 -61q-1 -32 -32 -32q-19 0 -46 19q-21 13 -31 13q-11 0 -18 -8t-7 -24h-5q0 40 17 69t49 65q28 32 41.5 54t13.5 50v1
q0 27 -14 43t-35 16q-18 0 -35 -14.5t-26 -43.5l-4 1q9 31 28.5 47.5t42.5 17.5h2z" />
    <glyph glyph-name="uni00B3" unicode="&#xb3;" horiz-adv-x="199" vert-adv-y="0" 
d="M141.5 589q15.5 -16 15.5 -38q0 -18 -11 -35.5t-33 -30.5q33 -10 49.5 -35.5t16.5 -57.5q0 -43 -24 -68t-57 -25q-32 0 -55 26t-23 74q0 19 6 19q3 0 3 -5q0 -3 -1 -7q-2 -9 -2 -16q0 -41 21.5 -63t48.5 -22q28 0 47.5 21.5t19.5 57.5t-20.5 61t-59.5 27v2q27 9 40.5 28
t13.5 41t-12 37t-33 15q-18 0 -33.5 -11.5t-22.5 -33.5l-4 1q9 25 27 39.5t43 14.5q24 0 39.5 -16z" />
    <glyph glyph-name="acute" unicode="&#xb4;" horiz-adv-x="147" vert-adv-y="0" 
d="M87 573q14 14 23 14q16 0 17 -16q0 -10 -15 -19l-91 -49l-1 2z" />
    <glyph glyph-name="mu" unicode="&#xb5;" horiz-adv-x="349" vert-adv-y="0" 
d="M68 422q0 21 -11.5 30.5t-36.5 9.5v5q50 0 69 -12t19 -40v-303q0 -47 14.5 -71t42.5 -24q34 0 55.5 46t21.5 138v221q0 21 -11.5 30.5t-36.5 9.5v5q50 0 68.5 -12t18.5 -40v-370q0 -21 11 -30.5t37 -9.5v-5h-16q-30 0 -50.5 15t-20.5 46v51q-11 -57 -35.5 -85.5
t-58.5 -28.5q-27 0 -46 16v-51q-6 -8 -16 -8q-11 0 -18 8v459z" />
    <glyph glyph-name="paragraph" unicode="&#xb6;" horiz-adv-x="322" vert-adv-y="0" 
d="M302 585h-33v-585h-25v585h-40v-585h-25v311q-74 3 -116.5 43t-42.5 104q0 66 45 106.5t121 40.5h116v-20z" />
    <glyph glyph-name="periodcentered" unicode="&#xb7;" horiz-adv-x="92" vert-adv-y="0" 
d="M27.5 346.5q-7.5 7.5 -7.5 18.5q0 10 7.5 18t18.5 8t18.5 -8t7.5 -18q0 -11 -7.5 -18.5t-18.5 -7.5t-18.5 7.5z" />
    <glyph glyph-name="periodcentered" unicode="&#x2219;" horiz-adv-x="92" vert-adv-y="0" 
d="M27.5 346.5q-7.5 7.5 -7.5 18.5q0 10 7.5 18t18.5 8t18.5 -8t7.5 -18q0 -11 -7.5 -18.5t-18.5 -7.5t-18.5 7.5z" />
    <glyph glyph-name="cedilla" unicode="&#xb8;" horiz-adv-x="112" vert-adv-y="0" 
d="M63 2l-5 -7l-3 -7q17 -2 27 -14t10 -29q0 -23 -19 -42.5t-53 -23.5v3q24 1 39 16.5t15 34.5q0 14 -10 23.5t-30 9.5l22 36h7z" />
    <glyph glyph-name="uni00B9" unicode="&#xb9;" horiz-adv-x="148" vert-adv-y="0" 
d="M49 556q28 8 32 49h3v-289q0 -6 4.5 -7.5t19.5 -2.5l20 -1v-4h-108v4l20 1q15 1 19.5 2.5t4.5 6.5v234q0 3 -3 3h-2l-39 -7v4z" />
    <glyph glyph-name="ordmasculine" unicode="&#xba;" horiz-adv-x="153" vert-adv-y="0" 
d="M120.5 570q12.5 -37 12.5 -81t-12.5 -81t-44.5 -37q-31 0 -43.5 37t-12.5 81t12.5 81t43.5 37q32 0 44.5 -37zM45.5 572.5q-5.5 -30.5 -5.5 -77.5v-6q0 -39 11 -76.5t32 -37.5q19 0 24.5 30.5t5.5 77.5v6q0 39 -11.5 76.5t-31.5 37.5q-19 0 -24.5 -30.5z" />
    <glyph glyph-name="guillemotright" unicode="&#xbb;" horiz-adv-x="278" vert-adv-y="0" 
d="M258 220l-135 -200l-3 3l93 197l-93 197l3 3zM158 220l-135 -200l-3 3l93 197l-93 197l3 3z" />
    <glyph glyph-name="onequarter" unicode="&#xbc;" horiz-adv-x="427" vert-adv-y="0" 
d="M350 612l-249 -612h-19l249 612h19zM84 612v-289q0 -5 4.5 -6.5t19.5 -2.5l20 -1v-5h-108v5l20 1q15 1 19.5 2t4.5 7v233q0 4 -3 4q-1 0 -2 -1l-39 -7v4l29 8q28 7 32 48h3zM318 307q37 0 37 -41q0 -60 -78 -167h75v85q16 11 17 38h3v-123h35v-2q-21 -2 -26 -18h-9v-59
q0 -12 24 -11v-4h-68v4q13 0 18.5 2.5t5.5 8.5v59h-103v2l16 18q77 85 77 146v1q0 31 -16.5 44.5t-34.5 13.5v3h27z" />
    <glyph glyph-name="onehalf" unicode="&#xbd;" horiz-adv-x="433" vert-adv-y="0" 
d="M350 612l-249 -612h-19l249 612h19zM84 612v-289q0 -5 4.5 -6.5t19.5 -2.5l20 -1v-5h-108v5l20 1q15 1 19.5 2t4.5 7v233q0 4 -3 4q-1 0 -2 -1l-39 -7v4l29 8q28 7 32 48h3zM351 309q26 0 44 -18.5t18 -50.5q0 -31 -16 -54t-49 -55q-31 -30 -48 -53t-22 -53q8 16 27 16
q14 0 44 -10q22 -8 29 -8q24 0 27 39l4 34h3l-2 -61q0 -32 -32 -32q-19 0 -46 18q-21 14 -31 14q-11 0 -18 -8t-7 -24h-5q0 40 17 69t49 65q28 32 41.5 54t14.5 50v1q0 27 -14.5 43t-34.5 16q-19 0 -36 -15t-25 -43l-5 1q9 31 29 47.5t43 17.5h1z" />
    <glyph glyph-name="threequarters" unicode="&#xbe;" horiz-adv-x="438" vert-adv-y="0" 
d="M360 612l-248 -612h-19l249 612h18zM141.5 596.5q15.5 -15.5 15.5 -38.5q0 -18 -11 -35.5t-33 -29.5q33 -11 49.5 -36t16.5 -57q0 -43 -24 -68.5t-57 -25.5q-32 1 -55 26.5t-23 73.5q0 19 6 19q3 0 3 -5q0 -2 -1 -7q-2 -8 -2 -16q0 -40 21.5 -62t48.5 -22q28 0 47.5 21
t19.5 57t-20.5 61t-59.5 28v1q27 9 40.5 28.5t13.5 41.5q0 21 -12 36t-33 15q-18 0 -33.5 -11.5t-22.5 -32.5l-4 1q9 25 27 39t43 14q24 0 39.5 -15.5zM329 307q37 0 37 -41q0 -60 -78 -167h75v85q16 11 17 38h3v-123h35v-2q-21 -2 -26 -18h-9v-59q0 -12 24 -11v-4h-68v4
q13 0 18.5 2.5t5.5 8.5v59h-103v2l16 18q77 85 77 146v1q-1 31 -17 44.5t-35 13.5v3h28z" />
    <glyph glyph-name="questiondown" unicode="&#xbf;" horiz-adv-x="307" vert-adv-y="0" 
d="M57 -99.5q-37 36.5 -37 99.5q0 49 17 84.5t52 82.5q36 50 55 90t19 97h6q0 -54 -14.5 -95t-43.5 -94q-26 -50 -38.5 -85t-12.5 -80q0 -60 31 -92.5t75 -32.5q41 0 71.5 29t30.5 78q0 9 -4 24q-3 13 -3 19q0 13 12 15q6 0 10 -7t4 -21q0 -59 -36.5 -103.5t-98.5 -44.5
q-58 0 -95 36.5zM148 431.5q-8 7.5 -8 18.5q0 10 8 18t18 8q11 0 18.5 -8t7.5 -18q0 -11 -7.5 -18.5t-18.5 -7.5q-10 0 -18 7.5z" />
    <glyph glyph-name="Agrave" unicode="&#xc0;" horiz-adv-x="410" vert-adv-y="0" 
d="M205 608l136 -582q3 -12 13 -16.5t36 -4.5v-5h-137v5q48 0 48 17v4l-112 474l-81 -328q19 36 52 50t84 14v-3q-50 0 -72 -19t-33 -58l-17 -63q-25 -89 -102 -103v1q44 16 55 64l16 68l111 485h3zM237 639l-91 49q-14 9 -14 19q0 7 4.5 11.5t12.5 4.5q9 0 22 -14l68 -68z
" />
    <glyph glyph-name="Aacute" unicode="&#xc1;" horiz-adv-x="410" vert-adv-y="0" 
d="M205 608l136 -582q3 -12 13 -16.5t36 -4.5v-5h-137v5q48 0 48 17v4l-112 474l-81 -328q19 36 52 50t84 14v-3q-50 0 -72 -19t-33 -58l-17 -63q-25 -89 -102 -103v1q44 16 55 64l16 68l111 485h3zM211 709q14 14 23 14q16 0 17 -16q0 -10 -15 -19l-91 -49l-1 2z" />
    <glyph glyph-name="Acircumflex" unicode="&#xc2;" horiz-adv-x="410" vert-adv-y="0" 
d="M205 608l136 -582q3 -12 13 -16.5t36 -4.5v-5h-137v5q48 0 48 17v4l-112 474l-81 -328q19 36 52 50t84 14v-3q-50 0 -72 -19t-33 -58l-17 -63q-25 -89 -102 -103v1q44 16 55 64l16 68l111 485h3zM180 708q11 14 23 14t23 -14l51 -68l-1 -2l-73 59l-73 -59l-1 2z" />
    <glyph glyph-name="Atilde" unicode="&#xc3;" horiz-adv-x="410" vert-adv-y="0" 
d="M205 608l136 -582q3 -12 13 -16.5t36 -4.5v-5h-137v5q48 0 48 17v4l-112 474l-81 -328q19 36 52 50t84 14v-3q-50 0 -72 -19t-33 -58l-17 -63q-25 -89 -102 -103v1q44 16 55 64l16 68l111 485h3zM127 648q13 51 52 51q16 0 38 -16q17 -13 27 -13q26 0 33 29h2
q-13 -51 -52 -51q-16 0 -38 16q-17 13 -27 13q-26 0 -33 -29h-2z" />
    <glyph glyph-name="Adieresis" unicode="&#xc4;" horiz-adv-x="410" vert-adv-y="0" 
d="M205 608l136 -582q3 -12 13 -16.5t36 -4.5v-5h-137v5q48 0 48 17v4l-112 474l-81 -328q19 36 52 50t84 14v-3q-50 0 -72 -19t-33 -58l-17 -63q-25 -89 -102 -103v1q44 16 55 64l16 68l111 485h3zM179.5 701q7.5 -8 7.5 -19q0 -10 -7.5 -18t-18.5 -8t-18.5 8t-7.5 18
q0 11 7.5 19t18.5 8t18.5 -8zM263.5 701q7.5 -8 7.5 -19q0 -10 -7.5 -18t-18.5 -8t-18.5 8t-7.5 18q0 11 7.5 19t18.5 8t18.5 -8z" />
    <glyph glyph-name="Aring" unicode="&#xc5;" horiz-adv-x="410" vert-adv-y="0" 
d="M205 608l136 -582q3 -12 13 -16.5t36 -4.5v-5h-137v5q48 0 48 17v4l-112 474l-81 -328q19 36 52 50t84 14v-3q-50 0 -72 -19t-33 -58l-17 -63q-25 -89 -102 -103v1q44 16 55 64l16 68l111 485h3zM164 685q0 -16 11 -28q12 -11 28 -11t27 11q11 12 11 28t-11 28
q-12 11 -27 11q-16 0 -27 -11q-12 -12 -12 -28zM151 685q0 22 15 37t36 15q22 0 37 -15t15 -37t-15 -37t-37 -15q-21 0 -36 15t-15 37z" />
    <glyph glyph-name="AE" unicode="&#xc6;" horiz-adv-x="569" vert-adv-y="0" 
d="M539 466l-4 -1q-13 77 -44 105t-106 28h-28q-18 0 -17 -19v-238h44q31 0 42 26t14 69h4v-196h-4q-3 43 -14 68.5t-42 25.5h-44v-308q0 -11 4 -15.5t13 -4.5h28q76 0 107.5 26.5t44.5 101.5l9 48l3 -1l-23 -185h-3q-2 4 -9 4h-261v5q26 0 37 4.5t11 16.5l-112 474
l-81 -328q19 36 52 50t84 14v-3q-50 0 -72 -19t-33 -58l-17 -63q-25 -89 -102 -103v1q44 16 55 64l16 68l110 481h4l96 -544v519q0 22 -48 20v5h256q7 0 10 5h2z" />
    <glyph glyph-name="Ccedilla" unicode="&#xc7;" horiz-adv-x="603" vert-adv-y="0" 
d="M294 -5q-72 4 -134.5 39.5t-101 103.5t-38.5 163q0 88 36 158t101.5 109.5t150.5 39.5q130 0 218 -59q4 -2 6 -2q5 0 5 7v1l-3 53h5l23 -186l-4 -1q-18 83 -87.5 132.5t-155.5 49.5q-67 0 -125 -32.5t-93.5 -100.5t-35.5 -169q0 -95 36.5 -162t96 -100.5t127.5 -33.5
q66 0 122.5 28t90.5 84.5t34 136.5q0 15 7 15q8 0 8 -15q0 -78 -38.5 -137t-101 -90.5t-133.5 -31.5h-9v0l-1 -1l-3 -6q18 -2 27.5 -14t9.5 -29q0 -23 -19 -42.5t-53 -23.5v3q24 1 39 16.5t15 34.5q0 14 -10 23.5t-30 9.5z" />
    <glyph glyph-name="Egrave" unicode="&#xc8;" horiz-adv-x="336" vert-adv-y="0" 
d="M289 608l17 -143h-3q-14 76 -45 104t-106 28h-27q-18 0 -17 -19v-238h43q31 0 42.5 26.5t14.5 68.5h3v-196h-3q-4 43 -15 69t-42 26h-43v-309q0 -11 4 -15t13 -4h27q76 0 108 26t45 101l8 48h3l-23 -186h-3q-2 5 -9 5h-261v5q27 0 37.5 4.5t10.5 15.5v553q0 23 -48 21v4
h257q7 0 9 5h3zM208 639l-91 49q-14 9 -14 19q0 7 4.5 11.5t12.5 4.5q9 0 22 -14l68 -68z" />
    <glyph glyph-name="Eacute" unicode="&#xc9;" horiz-adv-x="336" vert-adv-y="0" 
d="M289 608l17 -143h-3q-14 76 -45 104t-106 28h-27q-18 0 -17 -19v-238h43q31 0 42.5 26.5t14.5 68.5h3v-196h-3q-4 43 -15 69t-42 26h-43v-309q0 -11 4 -15t13 -4h27q76 0 108 26t45 101l8 48h3l-23 -186h-3q-2 5 -9 5h-261v5q27 0 37.5 4.5t10.5 15.5v553q0 23 -48 21v4
h257q7 0 9 5h3zM182 709q14 14 23 14q16 0 17 -16q0 -10 -15 -19l-91 -49l-1 2z" />
    <glyph glyph-name="Ecircumflex" unicode="&#xca;" horiz-adv-x="336" vert-adv-y="0" 
d="M289 608l17 -143h-3q-14 76 -45 104t-106 28h-27q-18 0 -17 -19v-238h43q31 0 42.5 26.5t14.5 68.5h3v-196h-3q-4 43 -15 69t-42 26h-43v-309q0 -11 4 -15t13 -4h27q76 0 108 26t45 101l8 48h3l-23 -186h-3q-2 5 -9 5h-261v5q27 0 37.5 4.5t10.5 15.5v553q0 23 -48 21v4
h257q7 0 9 5h3zM151 708q11 14 23 14t23 -14l51 -68l-1 -2l-73 59l-73 -59l-1 2z" />
    <glyph glyph-name="Edieresis" unicode="&#xcb;" horiz-adv-x="336" vert-adv-y="0" 
d="M289 608l17 -143h-3q-14 76 -45 104t-106 28h-27q-18 0 -17 -19v-238h43q31 0 42.5 26.5t14.5 68.5h3v-196h-3q-4 43 -15 69t-42 26h-43v-309q0 -11 4 -15t13 -4h27q76 0 108 26t45 101l8 48h3l-23 -186h-3q-2 5 -9 5h-261v5q27 0 37.5 4.5t10.5 15.5v553q0 23 -48 21v4
h257q7 0 9 5h3zM150.5 701q7.5 -8 7.5 -19q0 -10 -7.5 -18t-18.5 -8t-18.5 8t-7.5 18q0 11 7.5 19t18.5 8t18.5 -8zM234.5 701q7.5 -8 7.5 -19q0 -10 -7.5 -18t-18.5 -8t-18.5 8t-7.5 18q0 11 7.5 19t18.5 8t18.5 -8z" />
    <glyph glyph-name="Igrave" unicode="&#xcc;" vert-adv-y="0" 
d="M156 603v-4q-27 0 -37.5 -4.5t-10.5 -16.5v-553q0 -22 48 -20v-5h-136v5q27 0 37.5 4.5t10.5 15.5v553q0 23 -48 21v4h136zM122 639l-91 49q-14 9 -14 19q0 7 4.5 11.5t12.5 4.5q9 0 22 -14l68 -68z" />
    <glyph glyph-name="Iacute" unicode="&#xcd;" vert-adv-y="0" 
d="M156 603v-4q-27 0 -37.5 -4.5t-10.5 -16.5v-553q0 -22 48 -20v-5h-136v5q27 0 37.5 4.5t10.5 15.5v553q0 23 -48 21v4h136zM96 709q14 14 23 14q16 0 17 -16q0 -10 -15 -19l-91 -49l-1 2z" />
    <glyph glyph-name="Icircumflex" unicode="&#xce;" vert-adv-y="0" 
d="M156 603v-4q-27 0 -37.5 -4.5t-10.5 -16.5v-553q0 -22 48 -20v-5h-136v5q27 0 37.5 4.5t10.5 15.5v553q0 23 -48 21v4h136zM65 708q11 14 23 14t23 -14l51 -68l-1 -2l-73 59l-73 -59l-1 2z" />
    <glyph glyph-name="Idieresis" unicode="&#xcf;" vert-adv-y="0" 
d="M156 603v-4q-27 0 -37.5 -4.5t-10.5 -16.5v-553q0 -22 48 -20v-5h-136v5q27 0 37.5 4.5t10.5 15.5v553q0 23 -48 21v4h136zM64.5 701q7.5 -8 7.5 -19q0 -10 -7.5 -18t-18.5 -8t-18.5 8t-7.5 18q0 11 7.5 19t18.5 8t18.5 -8zM148.5 701q7.5 -8 7.5 -19q0 -10 -7.5 -18
t-18.5 -8t-18.5 8t-7.5 18q0 11 7.5 19t18.5 8t18.5 -8z" />
    <glyph glyph-name="Eth" unicode="&#xd0;" horiz-adv-x="478" vert-adv-y="0" 
d="M186 603q124 -2 198 -84.5t74 -216.5q0 -89 -34 -157.5t-96 -106.5t-142 -38h-166v5q27 0 37.5 4.5t10.5 15.5v267h-28v19h28v267q0 23 -48 21v4h166zM125 598q-18 0 -17 -20v-267h154v-19h-154v-267q0 -11 4 -15t13 -4h61q108 0 170 81.5t62 214.5t-62 214.5t-170 81.5
h-61z" />
    <glyph glyph-name="Ntilde" unicode="&#xd1;" horiz-adv-x="383" vert-adv-y="0" 
d="M103 603l204 -496l-5 471q0 11 -11 16t-37 5v4h109v-4q-27 0 -37.5 -5t-10.5 -16v-584h-4l-236 574l6 -543q0 -11 11 -15.5t37 -4.5v-5h-109v5q27 0 37.5 4.5t10.5 15.5v553q0 23 -48 21v4h83zM116 648q13 51 52 51q16 0 38 -16q17 -13 27 -13q26 0 33 29h2
q-13 -51 -52 -51q-16 0 -38 16q-17 13 -27 13q-26 0 -33 -29h-2z" />
    <glyph glyph-name="Ograve" unicode="&#xd2;" horiz-adv-x="621" vert-adv-y="0" 
d="M461 568q66 -41 103 -111.5t37 -154.5q0 -85 -37 -155t-103 -111t-150 -41h-1q-84 0 -150.5 41t-103 111t-36.5 155q0 84 36.5 154.5t103 111.5t150.5 41q85 0 151 -41zM172.5 562.5q-52.5 -37.5 -82 -105t-29.5 -154.5v-1q0 -80 38 -149t99.5 -109.5t129.5 -40.5
t120.5 38t82 106t29.5 155q0 85 -37.5 153.5t-99.5 106.5t-130 38t-120.5 -37.5zM344 639l-91 49q-14 9 -14 19q0 7 4.5 11.5t12.5 4.5q9 0 22 -14l68 -68z" />
    <glyph glyph-name="Oacute" unicode="&#xd3;" horiz-adv-x="621" vert-adv-y="0" 
d="M461 568q66 -41 103 -111.5t37 -154.5q0 -85 -37 -155t-103 -111t-150 -41h-1q-84 0 -150.5 41t-103 111t-36.5 155q0 84 36.5 154.5t103 111.5t150.5 41q85 0 151 -41zM172.5 562.5q-52.5 -37.5 -82 -105t-29.5 -154.5v-1q0 -80 38 -149t99.5 -109.5t129.5 -40.5
t120.5 38t82 106t29.5 155q0 85 -37.5 153.5t-99.5 106.5t-130 38t-120.5 -37.5zM318 709q14 14 23 14q16 0 17 -16q0 -10 -15 -19l-91 -49l-1 2z" />
    <glyph glyph-name="Ocircumflex" unicode="&#xd4;" horiz-adv-x="621" vert-adv-y="0" 
d="M461 568q66 -41 103 -111.5t37 -154.5q0 -85 -37 -155t-103 -111t-150 -41h-1q-84 0 -150.5 41t-103 111t-36.5 155q0 84 36.5 154.5t103 111.5t150.5 41q85 0 151 -41zM172.5 562.5q-52.5 -37.5 -82 -105t-29.5 -154.5v-1q0 -80 38 -149t99.5 -109.5t129.5 -40.5
t120.5 38t82 106t29.5 155q0 85 -37.5 153.5t-99.5 106.5t-130 38t-120.5 -37.5zM287 708q11 14 23 14t23 -14l51 -68l-1 -2l-73 59l-73 -59l-1 2z" />
    <glyph glyph-name="Otilde" unicode="&#xd5;" horiz-adv-x="621" vert-adv-y="0" 
d="M461 568q66 -41 103 -111.5t37 -154.5q0 -85 -37 -155t-103 -111t-150 -41h-1q-84 0 -150.5 41t-103 111t-36.5 155q0 84 36.5 154.5t103 111.5t150.5 41q85 0 151 -41zM172.5 562.5q-52.5 -37.5 -82 -105t-29.5 -154.5v-1q0 -80 38 -149t99.5 -109.5t129.5 -40.5
t120.5 38t82 106t29.5 155q0 85 -37.5 153.5t-99.5 106.5t-130 38t-120.5 -37.5zM234 648q13 51 52 51q16 0 38 -16q17 -13 27 -13q26 0 33 29h2q-13 -51 -52 -51q-16 0 -38 16q-17 13 -27 13q-26 0 -33 -29h-2z" />
    <glyph glyph-name="Odieresis" unicode="&#xd6;" horiz-adv-x="621" vert-adv-y="0" 
d="M461 568q66 -41 103 -111.5t37 -154.5q0 -85 -37 -155t-103 -111t-150 -41h-1q-84 0 -150.5 41t-103 111t-36.5 155q0 84 36.5 154.5t103 111.5t150.5 41q85 0 151 -41zM172.5 562.5q-52.5 -37.5 -82 -105t-29.5 -154.5v-1q0 -80 38 -149t99.5 -109.5t129.5 -40.5
t120.5 38t82 106t29.5 155q0 85 -37.5 153.5t-99.5 106.5t-130 38t-120.5 -37.5zM286.5 701q7.5 -8 7.5 -19q0 -10 -7.5 -18t-18.5 -8t-18.5 8t-7.5 18q0 11 7.5 19t18.5 8t18.5 -8zM370.5 701q7.5 -8 7.5 -19q0 -10 -7.5 -18t-18.5 -8t-18.5 8t-7.5 18q0 11 7.5 19t18.5 8
t18.5 -8z" />
    <glyph glyph-name="multiply" unicode="&#xd7;" horiz-adv-x="340" vert-adv-y="0" 
d="M33 120l-13 13l137 137l-137 137l13 13l137 -137l137 137l13 -13l-137 -137l137 -137l-13 -13l-137 137z" />
    <glyph glyph-name="Oslash" unicode="&#xd8;" horiz-adv-x="621" vert-adv-y="0" 
d="M448 574l17 33h19l-22 -41q65 -40 102 -110t37 -155t-37 -155t-103 -111t-150 -41h-1q-75 0 -137 33l-18 -32h-18l22 41q-65 40 -102 110t-37 155q0 84 36.5 154.5t103 111.5t150.5 41q75 0 138 -34zM124.5 515.5q-63.5 -81.5 -63.5 -213.5v-1q0 -71 30.5 -134t81.5 -105
l263 490q-67 47 -143 47q-105 -2 -168.5 -83.5zM186 52q67 -50 142 -50q68 0 120.5 38t82 106t29.5 155q0 76 -30 138.5t-81 102.5z" />
    <glyph glyph-name="Ugrave" unicode="&#xd9;" horiz-adv-x="379" vert-adv-y="0" 
d="M156 604v-5q-27 0 -37.5 -4.5t-10.5 -16.5v-466q0 -46 27 -71t66 -25q41 0 72 29t31 79l-7 454q0 12 -10.5 16.5t-37.5 4.5v5h110v-5q-27 0 -37.5 -4.5t-10.5 -16.5v-454q0 -61 -36 -95t-86 -34q-49 0 -85 34t-36 95v454q0 23 -48 21v5h136zM223 639l-91 49q-14 9 -14 19
q0 7 4.5 11.5t12.5 4.5q9 0 22 -14l68 -68z" />
    <glyph glyph-name="Uacute" unicode="&#xda;" horiz-adv-x="379" vert-adv-y="0" 
d="M156 604v-5q-27 0 -37.5 -4.5t-10.5 -16.5v-466q0 -46 27 -71t66 -25q41 0 72 29t31 79l-7 454q0 12 -10.5 16.5t-37.5 4.5v5h110v-5q-27 0 -37.5 -4.5t-10.5 -16.5v-454q0 -61 -36 -95t-86 -34q-49 0 -85 34t-36 95v454q0 23 -48 21v5h136zM197 709q14 14 23 14
q16 0 17 -16q0 -10 -15 -19l-91 -49l-1 2z" />
    <glyph glyph-name="Ucircumflex" unicode="&#xdb;" horiz-adv-x="379" vert-adv-y="0" 
d="M156 604v-5q-27 0 -37.5 -4.5t-10.5 -16.5v-466q0 -46 27 -71t66 -25q41 0 72 29t31 79l-7 454q0 12 -10.5 16.5t-37.5 4.5v5h110v-5q-27 0 -37.5 -4.5t-10.5 -16.5v-454q0 -61 -36 -95t-86 -34q-49 0 -85 34t-36 95v454q0 23 -48 21v5h136zM166 708q11 14 23 14t23 -14
l51 -68l-1 -2l-73 59l-73 -59l-1 2z" />
    <glyph glyph-name="Udieresis" unicode="&#xdc;" horiz-adv-x="379" vert-adv-y="0" 
d="M156 604v-5q-27 0 -37.5 -4.5t-10.5 -16.5v-466q0 -46 27 -71t66 -25q41 0 72 29t31 79l-7 454q0 12 -10.5 16.5t-37.5 4.5v5h110v-5q-27 0 -37.5 -4.5t-10.5 -16.5v-454q0 -61 -36 -95t-86 -34q-49 0 -85 34t-36 95v454q0 23 -48 21v5h136zM165.5 701q7.5 -8 7.5 -19
q0 -10 -7.5 -18t-18.5 -8t-18.5 8t-7.5 18q0 11 7.5 19t18.5 8t18.5 -8zM249.5 701q7.5 -8 7.5 -19q0 -10 -7.5 -18t-18.5 -8t-18.5 8t-7.5 18q0 11 7.5 19t18.5 8t18.5 -8z" />
    <glyph glyph-name="Yacute" unicode="&#xdd;" horiz-adv-x="414" vert-adv-y="0" 
d="M394 603v-4q-26 0 -37 -5t-15 -16l-115 -370v-183q0 -22 48 -20v-5h-136v5q27 0 37.5 4.5t10.5 15.5v180l-119 373q-4 12 -13.5 16.5t-34.5 4.5v4h137v-4q-49 0 -49 -16q0 -2 1 -5l114 -358l107 358q1 3 1 5q0 16 -45 16v4h108zM215 709q14 14 23 14q16 0 17 -16
q0 -10 -15 -19l-91 -49l-1 2z" />
    <glyph glyph-name="Thorn" unicode="&#xde;" horiz-adv-x="412" vert-adv-y="0" 
d="M156 603v-4q-27 0 -37.5 -4.5t-10.5 -16.5v-73h34q121 0 185.5 -54.5t64.5 -152.5t-64.5 -152.5t-185.5 -54.5h-17v5h17q105 0 157.5 55t52.5 147t-52.5 147t-157.5 55h-17q-18 0 -17 -20v-455q0 -22 48 -20v-5h-136v5q27 0 37.5 4.5t10.5 15.5v553q0 23 -48 21v4h136z
" />
    <glyph glyph-name="germandbls" unicode="&#xdf;" horiz-adv-x="357" vert-adv-y="0" 
d="M233 622.5q23 -24.5 23 -61.5q0 -29 -15 -49t-45 -44q-23 -20 -34 -33.5t-11 -30.5q0 -29 20 -54t62 -63q51 -47 77.5 -83.5t26.5 -84.5q0 -54 -28.5 -87t-79.5 -33q-41 0 -75.5 31t-34.5 53q0 14 11 14q9 0 13 -12q13 -43 36.5 -61.5t49.5 -18.5q32 0 54 25t22 73
q0 45 -25 79t-73 79q-41 37 -60.5 62.5t-19.5 55.5q0 19 11 36.5t33 44.5q27 31 40.5 54t13.5 51q0 33 -18 54t-40 21q-28 0 -43.5 -28.5t-15.5 -85.5v-492q0 -17 -12 -25.5t-30 -8.5h-46v5q27 0 37.5 4.5t10.5 15.5v444q0 58 16 98.5t40 60t48 19.5q38 0 61 -24.5z" />
    <glyph glyph-name="agrave" unicode="&#xe0;" horiz-adv-x="306" vert-adv-y="0" 
d="M72 471q5 -16 15 -16q5 0 19 5q32 10 58 10q36 0 60 -29.5t24 -84.5v-311q0 -22 7 -31t31 -9v-4h-15q-62 0 -62 61v105q-15 -82 -52 -125.5t-76 -43.5q-26 0 -43.5 21t-17.5 58t20.5 64.5t63.5 65.5q52 46 78.5 83.5t26.5 92.5q0 81 -51 81q-30 0 -58.5 -29t-43.5 -100
l-3 1l17 135h2zM209 333q-9 -32 -27 -56t-49 -54q-37 -37 -55 -65t-18 -70q0 -31 12.5 -48.5t32.5 -17.5q24 0 48 26t40 78.5t16 128.5v78zM190 503l-91 49q-14 9 -14 19q0 7 4.5 11.5t12.5 4.5q9 0 22 -14l68 -68z" />
    <glyph glyph-name="aacute" unicode="&#xe1;" horiz-adv-x="306" vert-adv-y="0" 
d="M72 471q5 -16 15 -16q5 0 19 5q32 10 58 10q36 0 60 -29.5t24 -84.5v-311q0 -22 7 -31t31 -9v-4h-15q-62 0 -62 61v105q-15 -82 -52 -125.5t-76 -43.5q-26 0 -43.5 21t-17.5 58t20.5 64.5t63.5 65.5q52 46 78.5 83.5t26.5 92.5q0 81 -51 81q-30 0 -58.5 -29t-43.5 -100
l-3 1l17 135h2zM209 333q-9 -32 -27 -56t-49 -54q-37 -37 -55 -65t-18 -70q0 -31 12.5 -48.5t32.5 -17.5q24 0 48 26t40 78.5t16 128.5v78zM164 573q14 14 23 14q16 0 17 -16q0 -10 -15 -19l-91 -49l-1 2z" />
    <glyph glyph-name="acircumflex" unicode="&#xe2;" horiz-adv-x="306" vert-adv-y="0" 
d="M72 471q5 -16 15 -16q5 0 19 5q32 10 58 10q36 0 60 -29.5t24 -84.5v-311q0 -22 7 -31t31 -9v-4h-15q-62 0 -62 61v105q-15 -82 -52 -125.5t-76 -43.5q-26 0 -43.5 21t-17.5 58t20.5 64.5t63.5 65.5q52 46 78.5 83.5t26.5 92.5q0 81 -51 81q-30 0 -58.5 -29t-43.5 -100
l-3 1l17 135h2zM209 333q-9 -32 -27 -56t-49 -54q-37 -37 -55 -65t-18 -70q0 -31 12.5 -48.5t32.5 -17.5q24 0 48 26t40 78.5t16 128.5v78zM133 572q11 14 23 14t23 -14l51 -68l-1 -2l-73 59l-73 -59l-1 2z" />
    <glyph glyph-name="atilde" unicode="&#xe3;" horiz-adv-x="306" vert-adv-y="0" 
d="M72 471q5 -16 15 -16q5 0 19 5q32 10 58 10q36 0 60 -29.5t24 -84.5v-311q0 -22 7 -31t31 -9v-4h-15q-62 0 -62 61v105q-15 -82 -52 -125.5t-76 -43.5q-26 0 -43.5 21t-17.5 58t20.5 64.5t63.5 65.5q52 46 78.5 83.5t26.5 92.5q0 81 -51 81q-30 0 -58.5 -29t-43.5 -100
l-3 1l17 135h2zM209 333q-9 -32 -27 -56t-49 -54q-37 -37 -55 -65t-18 -70q0 -31 12.5 -48.5t32.5 -17.5q24 0 48 26t40 78.5t16 128.5v78zM80 512q13 51 52 51q16 0 38 -16q17 -13 27 -13q26 0 33 29h2q-13 -51 -52 -51q-16 0 -38 16q-17 13 -27 13q-26 0 -33 -29h-2z" />
    <glyph glyph-name="adieresis" unicode="&#xe4;" horiz-adv-x="306" vert-adv-y="0" 
d="M72 471q5 -16 15 -16q5 0 19 5q32 10 58 10q36 0 60 -29.5t24 -84.5v-311q0 -22 7 -31t31 -9v-4h-15q-62 0 -62 61v105q-15 -82 -52 -125.5t-76 -43.5q-26 0 -43.5 21t-17.5 58t20.5 64.5t63.5 65.5q52 46 78.5 83.5t26.5 92.5q0 81 -51 81q-30 0 -58.5 -29t-43.5 -100
l-3 1l17 135h2zM209 333q-9 -32 -27 -56t-49 -54q-37 -37 -55 -65t-18 -70q0 -31 12.5 -48.5t32.5 -17.5q24 0 48 26t40 78.5t16 128.5v78zM132.5 565q7.5 -8 7.5 -19q0 -10 -7.5 -18t-18.5 -8t-18.5 8t-7.5 18q0 11 7.5 19t18.5 8t18.5 -8zM216.5 565q7.5 -8 7.5 -19
q0 -10 -7.5 -18t-18.5 -8t-18.5 8t-7.5 18q0 11 7.5 19t18.5 8t18.5 -8z" />
    <glyph glyph-name="aring" unicode="&#xe5;" horiz-adv-x="306" vert-adv-y="0" 
d="M72 471q5 -16 15 -16q5 0 19 5q32 10 58 10q36 0 60 -29.5t24 -84.5v-311q0 -22 7 -31t31 -9v-4h-15q-62 0 -62 61v105q-15 -82 -52 -125.5t-76 -43.5q-26 0 -43.5 21t-17.5 58t20.5 64.5t63.5 65.5q52 46 78.5 83.5t26.5 92.5q0 81 -51 81q-30 0 -58.5 -29t-43.5 -100
l-3 1l17 135h2zM209 333q-9 -32 -27 -56t-49 -54q-37 -37 -55 -65t-18 -70q0 -31 12.5 -48.5t32.5 -17.5q24 0 48 26t40 78.5t16 128.5v78zM117 549q0 -16 11 -28q12 -11 28 -11t27 11q11 12 11 28t-11 28q-12 11 -27 11q-16 0 -27 -11q-12 -12 -12 -28zM104 549q0 22 15 37
t36 15q22 0 37 -15t15 -37t-15 -37t-37 -15q-21 0 -36 15t-15 37z" />
    <glyph glyph-name="ae" unicode="&#xe6;" horiz-adv-x="464" vert-adv-y="0" 
d="M444 468l-188 -322q10 -66 34.5 -101t52.5 -35q40 0 64.5 52t24.5 165q0 9 6 9q5 0 5 -8q0 -89 -26.5 -160t-90.5 -71q-49 0 -77 53t-35 116h-5q-15 -82 -52 -125.5t-76 -43.5q-26 0 -43.5 21t-17.5 58t20.5 64.5t63.5 65.5q52 46 78.5 83.5t26.5 92.5q0 81 -51 81
q-30 0 -58.5 -29t-43.5 -100l-3 1l17 135h2q5 -16 15 -16q5 0 19 5q32 10 58 10t46 -15.5t30 -45.5q31 62 88 62q26 0 46 -14.5t32 -37.5l35 52zM271.5 413q-22.5 -52 -22.5 -178q0 -43 6 -80l92 159q24 43 24 87q0 29 -11 46.5t-32 17.5q-34 0 -56.5 -52zM209 332
q-9 -32 -27 -56t-49 -54q-37 -37 -55 -65t-18 -70q0 -31 12.5 -48.5t32.5 -17.5q24 0 48 26t40 78.5t16 128.5v78z" />
    <glyph glyph-name="ccedilla" unicode="&#xe7;" horiz-adv-x="273" vert-adv-y="0" 
d="M131 -3q-59 4 -85 79t-26 159q0 102 30 168.5t94 66.5q20 0 49 -8q17 -5 23 -5q12 0 16 15h2l17 -135l-4 -1q-13 65 -40.5 97t-63.5 32q-39 0 -61 -51.5t-22 -178.5q0 -73 13.5 -123.5t35 -76t45.5 -25.5q39 0 64 52t25 165q0 9 5 9t5 -7q0 -89 -26.5 -160t-88.5 -72
l-1 -2l-4 -7q18 -2 27.5 -14t9.5 -29q0 -23 -19 -42.5t-53 -23.5v3q24 1 39 16.5t15 34.5q0 14 -10 23.5t-30 9.5z" />
    <glyph glyph-name="egrave" unicode="&#xe8;" horiz-adv-x="274" vert-adv-y="0" 
d="M254 468l-188 -322q11 -66 35 -101t53 -35q39 0 64 52t25 165q0 9 5 9t5 -7q0 -90 -26.5 -161t-89.5 -71t-90 75.5t-27 162.5q0 61 11 113.5t37 87t71 34.5q25 0 45 -14.5t32 -37.5l35 52zM82.5 413q-22.5 -52 -22.5 -178q0 -43 5 -80l92 159q24 43 24 87q0 29 -11 46.5
t-31 17.5q-34 0 -56.5 -52zM173 503l-91 49q-14 9 -14 19q0 7 4.5 11.5t12.5 4.5q9 0 22 -14l68 -68z" />
    <glyph glyph-name="eacute" unicode="&#xe9;" horiz-adv-x="274" vert-adv-y="0" 
d="M254 468l-188 -322q11 -66 35 -101t53 -35q39 0 64 52t25 165q0 9 5 9t5 -7q0 -90 -26.5 -161t-89.5 -71t-90 75.5t-27 162.5q0 61 11 113.5t37 87t71 34.5q25 0 45 -14.5t32 -37.5l35 52zM82.5 413q-22.5 -52 -22.5 -178q0 -43 5 -80l92 159q24 43 24 87q0 29 -11 46.5
t-31 17.5q-34 0 -56.5 -52zM147 573q14 14 23 14q16 0 17 -16q0 -10 -15 -19l-91 -49l-1 2z" />
    <glyph glyph-name="ecircumflex" unicode="&#xea;" horiz-adv-x="274" vert-adv-y="0" 
d="M254 468l-188 -322q11 -66 35 -101t53 -35q39 0 64 52t25 165q0 9 5 9t5 -7q0 -90 -26.5 -161t-89.5 -71t-90 75.5t-27 162.5q0 61 11 113.5t37 87t71 34.5q25 0 45 -14.5t32 -37.5l35 52zM82.5 413q-22.5 -52 -22.5 -178q0 -43 5 -80l92 159q24 43 24 87q0 29 -11 46.5
t-31 17.5q-34 0 -56.5 -52zM116 572q11 14 23 14t23 -14l51 -68l-1 -2l-73 59l-73 -59l-1 2z" />
    <glyph glyph-name="edieresis" unicode="&#xeb;" horiz-adv-x="274" vert-adv-y="0" 
d="M254 468l-188 -322q11 -66 35 -101t53 -35q39 0 64 52t25 165q0 9 5 9t5 -7q0 -90 -26.5 -161t-89.5 -71t-90 75.5t-27 162.5q0 61 11 113.5t37 87t71 34.5q25 0 45 -14.5t32 -37.5l35 52zM82.5 413q-22.5 -52 -22.5 -178q0 -43 5 -80l92 159q24 43 24 87q0 29 -11 46.5
t-31 17.5q-34 0 -56.5 -52zM115.5 565q7.5 -8 7.5 -19q0 -10 -7.5 -18t-18.5 -8t-18.5 8t-7.5 18q0 11 7.5 19t18.5 8t18.5 -8zM199.5 565q7.5 -8 7.5 -19q0 -10 -7.5 -18t-18.5 -8t-18.5 8t-7.5 18q0 11 7.5 19t18.5 8t18.5 -8z" />
    <glyph glyph-name="igrave" unicode="&#xec;" vert-adv-y="0" 
d="M108 473v-448q0 -22 48 -20v-5h-136v5q27 0 37.5 4.5t10.5 15.5v377q0 12 -10.5 16.5t-37.5 4.5v4q30 0 54 13.5t30 32.5h4zM114 503l-91 49q-14 9 -14 19q0 7 4.5 11.5t12.5 4.5q9 0 22 -14l68 -68z" />
    <glyph glyph-name="iacute" unicode="&#xed;" vert-adv-y="0" 
d="M108 473v-448q0 -22 48 -20v-5h-136v5q27 0 37.5 4.5t10.5 15.5v377q0 12 -10.5 16.5t-37.5 4.5v4q30 0 54 13.5t30 32.5h4zM88 573q14 14 23 14q16 0 17 -16q0 -10 -15 -19l-91 -49l-1 2z" />
    <glyph glyph-name="icircumflex" unicode="&#xee;" vert-adv-y="0" 
d="M108 473v-448q0 -22 48 -20v-5h-136v5q27 0 37.5 4.5t10.5 15.5v377q0 12 -10.5 16.5t-37.5 4.5v4q30 0 54 13.5t30 32.5h4zM57 572q11 14 23 14t23 -14l51 -68l-1 -2l-73 59l-73 -59l-1 2z" />
    <glyph glyph-name="idieresis" unicode="&#xef;" vert-adv-y="0" 
d="M108 473v-448q0 -22 48 -20v-5h-136v5q27 0 37.5 4.5t10.5 15.5v377q0 12 -10.5 16.5t-37.5 4.5v4q30 0 54 13.5t30 32.5h4zM56.5 565q7.5 -8 7.5 -19q0 -10 -7.5 -18t-18.5 -8t-18.5 8t-7.5 18q0 11 7.5 19t18.5 8t18.5 -8zM140.5 565q7.5 -8 7.5 -19q0 -10 -7.5 -18
t-18.5 -8t-18.5 8t-7.5 18q0 11 7.5 19t18.5 8t18.5 -8z" />
    <glyph glyph-name="eth" unicode="&#xf0;" horiz-adv-x="332" vert-adv-y="0" 
d="M99 313.5q-43 -59.5 -43 -143.5q0 -69 26 -116.5t78 -47.5q56 0 86.5 56.5t30.5 144.5q0 90 -32 178q-103 -12 -146 -71.5zM158 531l-76 -65h-26l91 76q-49 47 -110 65l2 5q66 -18 119 -60l61 51h25l-73 -62q69 -59 105 -147.5t36 -176.5q0 -93 -40 -155t-112 -62
q-67 0 -103.5 53t-36.5 127q0 81 51.5 139.5t171.5 70.5q-32 84 -85 141z" />
    <glyph glyph-name="ntilde" unicode="&#xf1;" horiz-adv-x="349" vert-adv-y="0" 
d="M108 473v-118q10 57 34.5 85.5t58.5 28.5q36 0 58 -28.5t22 -85.5v-330q0 -22 48 -20v-5h-135v5q26 0 37 4.5t11 15.5v330q0 47 -14.5 71t-42.5 24q-34 0 -55.5 -46t-21.5 -139v-240q0 -22 48 -20v-5h-136v5q27 0 37.5 4.5t10.5 15.5v377q0 12 -10.5 16.5t-37.5 4.5v4
q30 0 54 13.5t30 32.5h4zM99 512q13 51 52 51q16 0 38 -16q17 -13 27 -13q26 0 33 29h2q-13 -51 -52 -51q-16 0 -38 16q-17 13 -27 13q-26 0 -33 -29h-2z" />
    <glyph glyph-name="ograve" unicode="&#xf2;" horiz-adv-x="265" vert-adv-y="0" 
d="M220 394q25 -74 25 -162t-25 -161.5t-88 -73.5q-62 0 -87 73.5t-25 161.5q0 89 25 162.5t87 73.5q63 0 88 -74zM70.5 398q-10.5 -62 -10.5 -165q0 -78 22 -153.5t63 -75.5q39 0 49.5 62.5t10.5 165.5q0 78 -22.5 153t-63.5 75q-38 0 -48.5 -62zM166 503l-91 49
q-14 9 -14 19q0 7 4.5 11.5t12.5 4.5q9 0 22 -14l68 -68z" />
    <glyph glyph-name="oacute" unicode="&#xf3;" horiz-adv-x="265" vert-adv-y="0" 
d="M220 394q25 -74 25 -162t-25 -161.5t-88 -73.5q-62 0 -87 73.5t-25 161.5q0 89 25 162.5t87 73.5q63 0 88 -74zM70.5 398q-10.5 -62 -10.5 -165q0 -78 22 -153.5t63 -75.5q39 0 49.5 62.5t10.5 165.5q0 78 -22.5 153t-63.5 75q-38 0 -48.5 -62zM140 573q14 14 23 14
q16 0 17 -16q0 -10 -15 -19l-91 -49l-1 2z" />
    <glyph glyph-name="ocircumflex" unicode="&#xf4;" horiz-adv-x="265" vert-adv-y="0" 
d="M220 394q25 -74 25 -162t-25 -161.5t-88 -73.5q-62 0 -87 73.5t-25 161.5q0 89 25 162.5t87 73.5q63 0 88 -74zM70.5 398q-10.5 -62 -10.5 -165q0 -78 22 -153.5t63 -75.5q39 0 49.5 62.5t10.5 165.5q0 78 -22.5 153t-63.5 75q-38 0 -48.5 -62zM109 572q11 14 23 14
t23 -14l51 -68l-1 -2l-73 59l-73 -59l-1 2z" />
    <glyph glyph-name="otilde" unicode="&#xf5;" horiz-adv-x="265" vert-adv-y="0" 
d="M220 394q25 -74 25 -162t-25 -161.5t-88 -73.5q-62 0 -87 73.5t-25 161.5q0 89 25 162.5t87 73.5q63 0 88 -74zM70.5 398q-10.5 -62 -10.5 -165q0 -78 22 -153.5t63 -75.5q39 0 49.5 62.5t10.5 165.5q0 78 -22.5 153t-63.5 75q-38 0 -48.5 -62zM56 512q13 51 52 51
q16 0 38 -16q17 -13 27 -13q26 0 33 29h2q-13 -51 -52 -51q-16 0 -38 16q-17 13 -27 13q-26 0 -33 -29h-2z" />
    <glyph glyph-name="odieresis" unicode="&#xf6;" horiz-adv-x="265" vert-adv-y="0" 
d="M220 394q25 -74 25 -162t-25 -161.5t-88 -73.5q-62 0 -87 73.5t-25 161.5q0 89 25 162.5t87 73.5q63 0 88 -74zM70.5 398q-10.5 -62 -10.5 -165q0 -78 22 -153.5t63 -75.5q39 0 49.5 62.5t10.5 165.5q0 78 -22.5 153t-63.5 75q-38 0 -48.5 -62zM108.5 565q7.5 -8 7.5 -19
q0 -10 -7.5 -18t-18.5 -8t-18.5 8t-7.5 18q0 11 7.5 19t18.5 8t18.5 -8zM192.5 565q7.5 -8 7.5 -19q0 -10 -7.5 -18t-18.5 -8t-18.5 8t-7.5 18q0 11 7.5 19t18.5 8t18.5 -8z" />
    <glyph glyph-name="divide" unicode="&#xf7;" horiz-adv-x="446" vert-adv-y="0" 
d="M426 254h-406v18h406v-18zM241.5 358.5q-7.5 -7.5 -18.5 -7.5t-18.5 7.5t-7.5 18.5t7.5 18.5t18.5 7.5t18.5 -7.5t7.5 -18.5t-7.5 -18.5zM241.5 130.5q-7.5 -7.5 -18.5 -7.5t-18.5 7.5t-7.5 18.5t7.5 18.5t18.5 7.5t18.5 -7.5t7.5 -18.5t-7.5 -18.5z" />
    <glyph glyph-name="oslash" unicode="&#xf8;" horiz-adv-x="265" vert-adv-y="0" 
d="M238 470l-25 -61q32 -65 32 -176q0 -88 -25 -161.5t-88 -73.5q-42 0 -70 40l-16 -41h-19l25 60q-32 65 -32 176q0 88 25 161.5t87 73.5q44 0 71 -42l18 44h17zM70.5 398.5q-10.5 -62.5 -10.5 -165.5q0 -61 14 -122l110 269q-24 81 -65 81q-38 0 -48.5 -62.5zM81 84
q24 -79 64 -79q39 0 49.5 62.5t10.5 165.5q0 61 -14 122z" />
    <glyph glyph-name="ugrave" unicode="&#xf9;" horiz-adv-x="339" vert-adv-y="0" 
d="M108 471v-359q0 -47 14.5 -71t42.5 -24q34 0 55.5 46t21.5 138v200q0 12 -11 16t-37 4v5q29 0 53 13.5t31 31.5h3v-426q0 -23 6.5 -31.5t31.5 -8.5v-5h-16q-61 0 -61 61v51q-11 -57 -35.5 -85.5t-58.5 -28.5q-36 0 -58 28.5t-22 85.5v289q0 12 -10.5 16t-37.5 4v5
q30 0 54 13.5t30 31.5h4zM208 503l-91 49q-14 9 -14 19q0 7 4.5 11.5t12.5 4.5q9 0 22 -14l68 -68z" />
    <glyph glyph-name="uacute" unicode="&#xfa;" horiz-adv-x="339" vert-adv-y="0" 
d="M108 471v-359q0 -47 14.5 -71t42.5 -24q34 0 55.5 46t21.5 138v200q0 12 -11 16t-37 4v5q29 0 53 13.5t31 31.5h3v-426q0 -23 6.5 -31.5t31.5 -8.5v-5h-16q-61 0 -61 61v51q-11 -57 -35.5 -85.5t-58.5 -28.5q-36 0 -58 28.5t-22 85.5v289q0 12 -10.5 16t-37.5 4v5
q30 0 54 13.5t30 31.5h4zM182 573q14 14 23 14q16 0 17 -16q0 -10 -15 -19l-91 -49l-1 2z" />
    <glyph glyph-name="ucircumflex" unicode="&#xfb;" horiz-adv-x="339" vert-adv-y="0" 
d="M108 471v-359q0 -47 14.5 -71t42.5 -24q34 0 55.5 46t21.5 138v200q0 12 -11 16t-37 4v5q29 0 53 13.5t31 31.5h3v-426q0 -23 6.5 -31.5t31.5 -8.5v-5h-16q-61 0 -61 61v51q-11 -57 -35.5 -85.5t-58.5 -28.5q-36 0 -58 28.5t-22 85.5v289q0 12 -10.5 16t-37.5 4v5
q30 0 54 13.5t30 31.5h4zM151 572q11 14 23 14t23 -14l51 -68l-1 -2l-73 59l-73 -59l-1 2z" />
    <glyph glyph-name="udieresis" unicode="&#xfc;" horiz-adv-x="339" vert-adv-y="0" 
d="M108 471v-359q0 -47 14.5 -71t42.5 -24q34 0 55.5 46t21.5 138v200q0 12 -11 16t-37 4v5q29 0 53 13.5t31 31.5h3v-426q0 -23 6.5 -31.5t31.5 -8.5v-5h-16q-61 0 -61 61v51q-11 -57 -35.5 -85.5t-58.5 -28.5q-36 0 -58 28.5t-22 85.5v289q0 12 -10.5 16t-37.5 4v5
q30 0 54 13.5t30 31.5h4zM150.5 565q7.5 -8 7.5 -19q0 -10 -7.5 -18t-18.5 -8t-18.5 8t-7.5 18q0 11 7.5 19t18.5 8t18.5 -8zM234.5 565q7.5 -8 7.5 -19q0 -10 -7.5 -18t-18.5 -8t-18.5 8t-7.5 18q0 11 7.5 19t18.5 8t18.5 -8z" />
    <glyph glyph-name="yacute" unicode="&#xfd;" horiz-adv-x="349" vert-adv-y="0" 
d="M329 467v-4q-25 0 -35 -5t-13 -16l-104 -445q-18 -77 -32 -114t-26.5 -48t-30.5 -11q-26 0 -43 29v118h3q2 -106 46 -106q20 0 37.5 27.5t39.5 111.5l-103 438q-3 11 -12.5 16t-35.5 5v4h137v-4q-49 0 -49 -17q0 -2 1 -4l82 -349l78 349q1 2 1 4q0 17 -49 17v4h108z
M183 573q14 14 23 14q16 0 17 -16q0 -10 -15 -19l-91 -49l-1 2z" />
    <glyph glyph-name="thorn" unicode="&#xfe;" horiz-adv-x="310" vert-adv-y="0" 
d="M108 639v-283q10 58 33.5 86.5t52.5 28.5q35 0 56.5 -38t30.5 -92.5t9 -103.5q0 -83 -23 -160.5t-73 -77.5q-29 0 -52.5 30t-33.5 88v-267q0 -22 48 -20v-5h-136v5q27 0 37.5 4.5t10.5 15.5v719q0 12 -10.5 16t-37.5 4v5q30 0 54 13.5t30 31.5h4zM128.5 407.5
q-20.5 -48.5 -20.5 -139.5v-62q0 -62 10 -105t26 -64.5t34 -21.5q29 0 51 57t22 165t-22 163.5t-51 55.5t-49.5 -48.5z" />
    <glyph glyph-name="ydieresis" unicode="&#xff;" horiz-adv-x="349" vert-adv-y="0" 
d="M329 467v-4q-25 0 -35 -5t-13 -16l-104 -445q-18 -77 -32 -114t-26.5 -48t-30.5 -11q-26 0 -43 29v118h3q2 -106 46 -106q20 0 37.5 27.5t39.5 111.5l-103 438q-3 11 -12.5 16t-35.5 5v4h137v-4q-49 0 -49 -17q0 -2 1 -4l82 -349l78 349q1 2 1 4q0 17 -49 17v4h108z
M151.5 565q7.5 -8 7.5 -19q0 -10 -7.5 -18t-18.5 -8t-18.5 8t-7.5 18q0 11 7.5 19t18.5 8t18.5 -8zM235.5 565q7.5 -8 7.5 -19q0 -10 -7.5 -18t-18.5 -8t-18.5 8t-7.5 18q0 11 7.5 19t18.5 8t18.5 -8z" />
    <glyph glyph-name="Amacron" unicode="&#x100;" horiz-adv-x="410" vert-adv-y="0" 
d="M205 608l136 -582q3 -12 13 -16.5t36 -4.5v-5h-137v5q48 0 48 17v4l-112 474l-81 -328q19 36 52 50t84 14v-3q-50 0 -72 -19t-33 -58l-17 -63q-25 -89 -102 -103v1q44 16 55 64l16 68l111 485h3zM133 673v13h139v-13h-139z" />
    <glyph glyph-name="amacron" unicode="&#x101;" horiz-adv-x="306" vert-adv-y="0" 
d="M72 471q5 -16 15 -16q5 0 19 5q32 10 58 10q36 0 60 -29.5t24 -84.5v-311q0 -22 7 -31t31 -9v-4h-15q-62 0 -62 61v105q-15 -82 -52 -125.5t-76 -43.5q-26 0 -43.5 21t-17.5 58t20.5 64.5t63.5 65.5q52 46 78.5 83.5t26.5 92.5q0 81 -51 81q-30 0 -58.5 -29t-43.5 -100
l-3 1l17 135h2zM209 333q-9 -32 -27 -56t-49 -54q-37 -37 -55 -65t-18 -70q0 -31 12.5 -48.5t32.5 -17.5q24 0 48 26t40 78.5t16 128.5v78zM86 537v13h139v-13h-139z" />
    <glyph glyph-name="Abreve" unicode="&#x102;" horiz-adv-x="410" vert-adv-y="0" 
d="M205 608l136 -582q3 -12 13 -16.5t36 -4.5v-5h-137v5q48 0 48 17v4l-112 474l-81 -328q19 36 52 50t84 14v-3q-50 0 -72 -19t-33 -58l-17 -63q-25 -89 -102 -103v1q44 16 55 64l16 68l111 485h3zM144 708q3 -16 18 -30t41 -14q25 0 40 14t18 30h2q0 -29 -16.5 -49
t-43.5 -20q-28 0 -44.5 20t-16.5 49h2z" />
    <glyph glyph-name="abreve" unicode="&#x103;" horiz-adv-x="306" vert-adv-y="0" 
d="M72 471q5 -16 15 -16q5 0 19 5q32 10 58 10q36 0 60 -29.5t24 -84.5v-311q0 -22 7 -31t31 -9v-4h-15q-62 0 -62 61v105q-15 -82 -52 -125.5t-76 -43.5q-26 0 -43.5 21t-17.5 58t20.5 64.5t63.5 65.5q52 46 78.5 83.5t26.5 92.5q0 81 -51 81q-30 0 -58.5 -29t-43.5 -100
l-3 1l17 135h2zM209 333q-9 -32 -27 -56t-49 -54q-37 -37 -55 -65t-18 -70q0 -31 12.5 -48.5t32.5 -17.5q24 0 48 26t40 78.5t16 128.5v78zM90 572q2 -16 17 -30t41 -14t41 14t17 30h2q0 -29 -16 -49t-44 -20t-44.5 20t-16.5 49h3z" />
    <glyph glyph-name="Aogonek" unicode="&#x104;" horiz-adv-x="410" vert-adv-y="0" 
d="M270.5 -43q14.5 22 44.5 43h-62v5q48 0 48 17v4l-112 474l-81 -328q19 36 52 50t84 14v-3q-50 0 -72 -19t-33 -58l-17 -63q-25 -89 -102 -103v1q44 16 55 64l16 68l111 485h3l136 -582q3 -12 13 -16.5t36 -4.5v-5h-70q-21 -13 -32.5 -35t-11.5 -44q0 -18 7.5 -28.5
t22.5 -10.5q6 0 12 3v-3q-12 -5 -23 -5q-17 0 -28 11t-11 28q0 19 14.5 41z" />
    <glyph glyph-name="aogonek" unicode="&#x105;" horiz-adv-x="306" vert-adv-y="0" 
d="M209 333q-9 -32 -27 -56t-49 -54q-37 -37 -55 -65t-18 -70q0 -31 12.5 -48.5t32.5 -17.5q24 0 48 26t40 78.5t16 128.5v78zM194 -36q14 22 44 43q-29 13 -29 55v105q-15 -82 -52 -125.5t-76 -43.5q-26 0 -43.5 21t-17.5 58t20.5 64.5t63.5 65.5q52 46 78.5 83.5
t26.5 92.5q0 81 -51 81q-30 0 -58.5 -29t-43.5 -100l-3 1l17 135h2q5 -16 15 -16q5 0 19 5q32 10 58 10q36 0 60 -29.5t24 -84.5v-311q0 -22 7 -31t31 -9v-4h-15q-17 0 -30 4q-20 -13 -30.5 -34.5t-10.5 -42.5q0 -18 7.5 -28.5t22.5 -10.5q6 0 12 3v-3q-12 -5 -23 -5
q-17 0 -28 11t-11 28q0 19 14 41z" />
    <glyph glyph-name="Cacute" unicode="&#x106;" horiz-adv-x="603" vert-adv-y="0" 
d="M562 422l-4 -1q-18 83 -87.5 132.5t-155.5 49.5q-67 0 -125 -32.5t-93.5 -100.5t-35.5 -169q0 -95 36.5 -162t96 -100.5t127.5 -33.5q66 0 122.5 28t90.5 84.5t34 136.5q0 15 7 15q8 0 8 -15q0 -78 -38.5 -137t-101 -90.5t-133.5 -31.5q-75 0 -141.5 34.5t-107.5 103.5
t-41 168q0 88 36 158t101.5 109.5t150.5 39.5q130 0 218 -59q4 -2 6 -2q5 0 5 7v1l-3 53h5zM316 709q14 14 23 14q16 0 17 -16q0 -10 -15 -19l-91 -49l-1 2z" />
    <glyph glyph-name="cacute" unicode="&#x107;" horiz-adv-x="273" vert-adv-y="0" 
d="M247 336q-13 65 -40.5 97t-63.5 32q-39 0 -61 -51.5t-22 -178.5q0 -73 13.5 -123.5t35 -76t45.5 -25.5q39 0 64 52t25 165q0 9 5 9t5 -7q0 -90 -26.5 -161t-89.5 -71t-90 75.5t-27 162.5q0 102 30 168.5t94 66.5q20 0 49 -8q17 -5 23 -5q12 0 16 15h2l17 -135zM153 573
q14 14 23 14q16 0 17 -16q0 -10 -15 -19l-91 -49l-1 2z" />
    <glyph glyph-name="Ccircumflex" unicode="&#x108;" horiz-adv-x="603" vert-adv-y="0" 
d="M562 422l-4 -1q-18 83 -87.5 132.5t-155.5 49.5q-67 0 -125 -32.5t-93.5 -100.5t-35.5 -169q0 -95 36.5 -162t96 -100.5t127.5 -33.5q66 0 122.5 28t90.5 84.5t34 136.5q0 15 7 15q8 0 8 -15q0 -78 -38.5 -137t-101 -90.5t-133.5 -31.5q-75 0 -141.5 34.5t-107.5 103.5
t-41 168q0 88 36 158t101.5 109.5t150.5 39.5q130 0 218 -59q4 -2 6 -2q5 0 5 7v1l-3 53h5zM285 708q11 14 23 14t23 -14l51 -68l-1 -2l-73 59l-73 -59l-1 2z" />
    <glyph glyph-name="ccircumflex" unicode="&#x109;" horiz-adv-x="273" vert-adv-y="0" 
d="M247 336q-13 65 -40.5 97t-63.5 32q-39 0 -61 -51.5t-22 -178.5q0 -73 13.5 -123.5t35 -76t45.5 -25.5q39 0 64 52t25 165q0 9 5 9t5 -7q0 -90 -26.5 -161t-89.5 -71t-90 75.5t-27 162.5q0 102 30 168.5t94 66.5q20 0 49 -8q17 -5 23 -5q12 0 16 15h2l17 -135zM122 572
q11 14 23 14t23 -14l51 -68l-1 -2l-73 59l-73 -59l-1 2z" />
    <glyph glyph-name="Cdotaccent" unicode="&#x10a;" horiz-adv-x="603" vert-adv-y="0" 
d="M562 422l-4 -1q-18 83 -87.5 132.5t-155.5 49.5q-67 0 -125 -32.5t-93.5 -100.5t-35.5 -169q0 -95 36.5 -162t96 -100.5t127.5 -33.5q66 0 122.5 28t90.5 84.5t34 136.5q0 15 7 15q8 0 8 -15q0 -78 -38.5 -137t-101 -90.5t-133.5 -31.5q-75 0 -141.5 34.5t-107.5 103.5
t-41 168q0 88 36 158t101.5 109.5t150.5 39.5q130 0 218 -59q4 -2 6 -2q5 0 5 7v1l-3 53h5zM324.5 701q7.5 -8 7.5 -19q0 -10 -7.5 -18t-18.5 -8t-18.5 8t-7.5 18q0 11 7.5 19t18.5 8t18.5 -8z" />
    <glyph glyph-name="cdotaccent" unicode="&#x10b;" horiz-adv-x="273" vert-adv-y="0" 
d="M247 336q-13 65 -40.5 97t-63.5 32q-39 0 -61 -51.5t-22 -178.5q0 -73 13.5 -123.5t35 -76t45.5 -25.5q39 0 64 52t25 165q0 9 5 9t5 -7q0 -90 -26.5 -161t-89.5 -71t-90 75.5t-27 162.5q0 102 30 168.5t94 66.5q20 0 49 -8q17 -5 23 -5q12 0 16 15h2l17 -135zM161.5 565
q7.5 -8 7.5 -19q0 -10 -7.5 -18t-18.5 -8t-18.5 8t-7.5 18q0 11 7.5 19t18.5 8t18.5 -8z" />
    <glyph glyph-name="Ccaron" unicode="&#x10c;" horiz-adv-x="603" vert-adv-y="0" 
d="M562 422l-4 -1q-18 83 -87.5 132.5t-155.5 49.5q-67 0 -125 -32.5t-93.5 -100.5t-35.5 -169q0 -95 36.5 -162t96 -100.5t127.5 -33.5q66 0 122.5 28t90.5 84.5t34 136.5q0 15 7 15q8 0 8 -15q0 -78 -38.5 -137t-101 -90.5t-133.5 -31.5q-75 0 -141.5 34.5t-107.5 103.5
t-41 168q0 88 36 158t101.5 109.5t150.5 39.5q130 0 218 -59q4 -2 6 -2q5 0 5 7v1l-3 53h5zM235 722l73 -59l73 59l1 -2l-51 -68q-11 -14 -23 -14t-23 14l-51 68z" />
    <glyph glyph-name="ccaron" unicode="&#x10d;" horiz-adv-x="273" vert-adv-y="0" 
d="M247 336q-13 65 -40.5 97t-63.5 32q-39 0 -61 -51.5t-22 -178.5q0 -73 13.5 -123.5t35 -76t45.5 -25.5q39 0 64 52t25 165q0 9 5 9t5 -7q0 -90 -26.5 -161t-89.5 -71t-90 75.5t-27 162.5q0 102 30 168.5t94 66.5q20 0 49 -8q17 -5 23 -5q12 0 16 15h2l17 -135zM72 586
l73 -59l73 59l1 -2l-51 -68q-11 -14 -23 -14t-23 14l-51 68z" />
    <glyph glyph-name="Dcaron" unicode="&#x10e;" horiz-adv-x="478" vert-adv-y="0" 
d="M186 603q124 -2 198 -84.5t74 -216.5q0 -89 -34 -157.5t-96 -106.5t-142 -38h-166v5q27 0 37.5 4.5t10.5 15.5v553q0 23 -48 21v4h166zM125 598q-18 0 -17 -20v-553q0 -11 4 -15t13 -4h61q108 0 170 81.5t62 214.5t-62 214.5t-170 81.5h-61zM134 722l73 -59l73 59l1 -2
l-51 -68q-11 -14 -23 -14t-23 14l-51 68z" />
    <glyph glyph-name="dcaron" unicode="&#x10f;" horiz-adv-x="300" vert-adv-y="0" 
d="M242 649v-605q0 -23 6.5 -31t31.5 -8v-5h-16q-62 0 -62 61v54q-10 -59 -33.5 -89t-52.5 -30q-50 0 -73 77.5t-23 161.5q0 49 9.5 103t31 92.5t55.5 38.5q29 0 52.5 -29t33.5 -86v224q0 12 -10.5 16.5t-37.5 4.5v4q30 0 54 13.5t31 32.5h3zM81.5 397.5
q-21.5 -55.5 -21.5 -162.5q0 -108 21.5 -165.5t50.5 -57.5t49.5 50t20.5 142v61q0 92 -20.5 140t-49.5 48t-50.5 -55.5zM296.5 643.5q5.5 5.5 14.5 5.5q17 0 26 -11t9 -30q0 -25 -16.5 -56.5t-47.5 -60.5l-3 4q44 45 44 75q0 11 -5.5 19.5t-14.5 18.5q-12 13 -12 20
q0 10 5.5 15.5z" />
    <glyph glyph-name="Dcroat" unicode="&#x110;" horiz-adv-x="478" vert-adv-y="0" 
d="M186 603q124 -2 198 -84.5t74 -216.5q0 -89 -34 -157.5t-96 -106.5t-142 -38h-166v5q27 0 37.5 4.5t10.5 15.5v267h-28v19h28v267q0 23 -48 21v4h166zM125 598q-18 0 -17 -20v-267h154v-19h-154v-267q0 -11 4 -15t13 -4h61q108 0 170 81.5t62 214.5t-62 214.5t-170 81.5
h-61z" />
    <glyph glyph-name="dcroat" unicode="&#x111;" horiz-adv-x="310" vert-adv-y="0" 
d="M81.5 397.5q-21.5 -55.5 -21.5 -162.5q0 -108 21.5 -165.5t50.5 -57.5t49.5 50t20.5 142v61q0 92 -20.5 140t-49.5 48t-50.5 -55.5zM202 560v18q0 12 -10.5 16.5t-37.5 4.5v4q30 0 54 13.5t31 32.5h3v-89h34v-19h-34v-497q0 -21 11 -30t37 -9v-5h-16q-31 0 -51.5 15
t-20.5 46v54q-10 -59 -33.5 -89t-52.5 -30q-50 0 -73 77.5t-23 161.5q0 49 9.5 103t31 92.5t55.5 38.5q29 0 52.5 -29t33.5 -86v187h-87v19h87z" />
    <glyph glyph-name="Emacron" unicode="&#x112;" horiz-adv-x="336" vert-adv-y="0" 
d="M289 608l17 -143h-3q-14 76 -45 104t-106 28h-27q-18 0 -17 -19v-238h43q31 0 42.5 26.5t14.5 68.5h3v-196h-3q-4 43 -15 69t-42 26h-43v-309q0 -11 4 -15t13 -4h27q76 0 108 26t45 101l8 48h3l-23 -186h-3q-2 5 -9 5h-261v5q27 0 37.5 4.5t10.5 15.5v553q0 23 -48 21v4
h257q7 0 9 5h3zM104 673v13h139v-13h-139z" />
    <glyph glyph-name="emacron" unicode="&#x113;" horiz-adv-x="274" vert-adv-y="0" 
d="M254 468l-188 -322q11 -66 35 -101t53 -35q39 0 64 52t25 165q0 9 5 9t5 -7q0 -90 -26.5 -161t-89.5 -71t-90 75.5t-27 162.5q0 61 11 113.5t37 87t71 34.5q25 0 45 -14.5t32 -37.5l35 52zM82.5 413q-22.5 -52 -22.5 -178q0 -43 5 -80l92 159q24 43 24 87q0 29 -11 46.5
t-31 17.5q-34 0 -56.5 -52zM69 537v13h139v-13h-139z" />
    <glyph glyph-name="Ebreve" unicode="&#x114;" horiz-adv-x="336" vert-adv-y="0" 
d="M289 608l17 -143h-3q-14 76 -45 104t-106 28h-27q-18 0 -17 -19v-238h43q31 0 42.5 26.5t14.5 68.5h3v-196h-3q-4 43 -15 69t-42 26h-43v-309q0 -11 4 -15t13 -4h27q76 0 108 26t45 101l8 48h3l-23 -186h-3q-2 5 -9 5h-261v5q27 0 37.5 4.5t10.5 15.5v553q0 23 -48 21v4
h257q7 0 9 5h3zM115 708q3 -16 18 -30t41 -14q25 0 40 14t18 30h2q0 -29 -16.5 -49t-43.5 -20q-28 0 -44.5 20t-16.5 49h2z" />
    <glyph glyph-name="ebreve" unicode="&#x115;" horiz-adv-x="274" vert-adv-y="0" 
d="M254 468l-188 -322q11 -66 35 -101t53 -35q39 0 64 52t25 165q0 9 5 9t5 -7q0 -90 -26.5 -161t-89.5 -71t-90 75.5t-27 162.5q0 61 11 113.5t37 87t71 34.5q25 0 45 -14.5t32 -37.5l35 52zM82.5 413q-22.5 -52 -22.5 -178q0 -43 5 -80l92 159q24 43 24 87q0 29 -11 46.5
t-31 17.5q-34 0 -56.5 -52zM80 572q3 -16 18 -30t41 -14q25 0 40 14t18 30h2q0 -29 -16.5 -49t-43.5 -20q-28 0 -44.5 20t-16.5 49h2z" />
    <glyph glyph-name="Edotaccent" unicode="&#x116;" horiz-adv-x="336" vert-adv-y="0" 
d="M289 608l17 -143h-3q-14 76 -45 104t-106 28h-27q-18 0 -17 -19v-238h43q31 0 42.5 26.5t14.5 68.5h3v-196h-3q-4 43 -15 69t-42 26h-43v-309q0 -11 4 -15t13 -4h27q76 0 108 26t45 101l8 48h3l-23 -186h-3q-2 5 -9 5h-261v5q27 0 37.5 4.5t10.5 15.5v553q0 23 -48 21v4
h257q7 0 9 5h3zM190.5 701q7.5 -8 7.5 -19q0 -10 -7.5 -18t-18.5 -8t-18.5 8t-7.5 18q0 11 7.5 19t18.5 8t18.5 -8z" />
    <glyph glyph-name="edotaccent" unicode="&#x117;" horiz-adv-x="274" vert-adv-y="0" 
d="M254 468l-188 -322q11 -66 35 -101t53 -35q39 0 64 52t25 165q0 9 5 9t5 -7q0 -90 -26.5 -161t-89.5 -71t-90 75.5t-27 162.5q0 61 11 113.5t37 87t71 34.5q25 0 45 -14.5t32 -37.5l35 52zM82.5 413q-22.5 -52 -22.5 -178q0 -43 5 -80l92 159q24 43 24 87q0 29 -11 46.5
t-31 17.5q-34 0 -56.5 -52zM155.5 565q7.5 -8 7.5 -19q0 -10 -7.5 -18t-18.5 -8t-18.5 8t-7.5 18q0 11 7.5 19t18.5 8t18.5 -8z" />
    <glyph glyph-name="Eogonek" unicode="&#x118;" horiz-adv-x="336" vert-adv-y="0" 
d="M218.5 -43q14.5 22 43.5 43h-242v5q27 0 37.5 4.5t10.5 15.5v553q0 23 -48 21v4h257q7 0 9 5h3l17 -143h-3q-14 76 -45 104t-106 28h-27q-18 0 -17 -19v-238h43q31 0 42.5 26.5t14.5 68.5h3v-196h-3q-4 43 -15 69t-42 26h-43v-309q0 -11 4 -15t13 -4h27q76 0 108 26
t45 101l8 48h3l-23 -186h-3q-2 5 -9 5h-14q-21 -14 -32 -35.5t-11 -43.5q0 -18 7.5 -28.5t22.5 -10.5q6 0 12 3v-3q-12 -5 -23 -5q-17 0 -28 11t-11 28q0 19 14.5 41z" />
    <glyph glyph-name="eogonek" unicode="&#x119;" horiz-adv-x="274" vert-adv-y="0" 
d="M254 468l-188 -322q11 -66 35 -101t53 -35q39 0 64 52t25 165q0 9 5 9t5 -7q0 -90 -26.5 -161t-89.5 -71t-90 75.5t-27 162.5q0 61 11 113.5t37 87t71 34.5q25 0 45 -14.5t32 -37.5l35 52zM82.5 413q-22.5 -52 -22.5 -178q0 -43 5 -80l92 159q24 43 24 87q0 29 -11 46.5
t-31 17.5q-34 0 -56.5 -52zM184 2q-24 -13 -36 -35.5t-12 -45.5q0 -18 7.5 -28.5t22.5 -10.5q6 0 12 3v-3q-12 -5 -23 -5q-17 0 -28 11t-11 28q0 20 15 42.5t47 43.5h6z" />
    <glyph glyph-name="Ecaron" unicode="&#x11a;" horiz-adv-x="336" vert-adv-y="0" 
d="M289 608l17 -143h-3q-14 76 -45 104t-106 28h-27q-18 0 -17 -19v-238h43q31 0 42.5 26.5t14.5 68.5h3v-196h-3q-4 43 -15 69t-42 26h-43v-309q0 -11 4 -15t13 -4h27q76 0 108 26t45 101l8 48h3l-23 -186h-3q-2 5 -9 5h-261v5q27 0 37.5 4.5t10.5 15.5v553q0 23 -48 21v4
h257q7 0 9 5h3zM101 722l73 -59l73 59l1 -2l-51 -68q-11 -14 -23 -14t-23 14l-51 68z" />
    <glyph glyph-name="ecaron" unicode="&#x11b;" horiz-adv-x="274" vert-adv-y="0" 
d="M254 468l-188 -322q11 -66 35 -101t53 -35q39 0 64 52t25 165q0 9 5 9t5 -7q0 -90 -26.5 -161t-89.5 -71t-90 75.5t-27 162.5q0 61 11 113.5t37 87t71 34.5q25 0 45 -14.5t32 -37.5l35 52zM82.5 413q-22.5 -52 -22.5 -178q0 -43 5 -80l92 159q24 43 24 87q0 29 -11 46.5
t-31 17.5q-34 0 -56.5 -52zM66 586l73 -59l73 59l1 -2l-51 -68q-11 -14 -23 -14t-23 14l-51 68z" />
    <glyph glyph-name="Gcircumflex" unicode="&#x11c;" horiz-adv-x="612" vert-adv-y="0" 
d="M526 548q4 -2 6 -2q5 0 5 7v1l-3 53l5 1l23 -186l-4 -1q-18 83 -87.5 132t-155.5 49q-67 0 -125 -32.5t-93.5 -100t-35.5 -168.5q0 -95 37 -161.5t96 -100t124 -33.5q58 0 107 26t79.5 75.5t30.5 119.5v14q0 23 -49 21v4h106v-4q-18 0 -18 -21v-247h-4l-23 193h-3
q-14 -90 -84 -141t-160 -51q-72 0 -136 34t-104 103t-40 169q0 88 36 157.5t101.5 109.5t150.5 40q130 0 218 -60zM283 708q11 14 23 14t23 -14l51 -68l-1 -2l-73 59l-73 -59l-1 2z" />
    <glyph glyph-name="gcircumflex" unicode="&#x11d;" horiz-adv-x="316" vert-adv-y="0" 
d="M285 458q11 -14 11 -35q0 -13 -6 -20t-15 -7q-7 0 -13 7t-6 20q0 35 -11 35q-7 0 -14 -19.5t-7 -51.5q9 -36 9 -83q0 -69 -22 -118t-73 -49q-24 0 -42 12l-16 -33q-6 -14 -6 -27q0 -20 18 -33t56 -14q66 -2 90 -19.5t24 -53.5q0 -31 -23 -64.5t-60.5 -56t-75.5 -22.5
q-41 0 -62 18.5t-21 52.5q0 46 36 112q4 6 8 6q5 0 5 -5q0 -3 -2 -6q-39 -52 -39 -88q0 -26 21 -40.5t63 -14.5q58 0 99.5 29.5t42.5 62.5q0 24 -19 36.5t-69 12.5h-1q-58 0 -85 13.5t-37 43.5l49 93q-26 20 -37.5 61.5t-11.5 90.5q0 69 22 118t73 49q56 0 80 -67
q3 35 14.5 51.5t26.5 16.5t26 -14zM90.5 429q-8.5 -37 -8.5 -112q0 -65 19 -120t50 -55q27 0 35 36t8 113q0 66 -18.5 120.5t-50.5 54.5q-26 0 -34.5 -37zM116 572q11 14 23 14t23 -14l51 -68l-1 -2l-73 59l-73 -59l-1 2z" />
    <glyph glyph-name="Gbreve" unicode="&#x11e;" horiz-adv-x="612" vert-adv-y="0" 
d="M526 548q4 -2 6 -2q5 0 5 7v1l-3 53l5 1l23 -186l-4 -1q-18 83 -87.5 132t-155.5 49q-67 0 -125 -32.5t-93.5 -100t-35.5 -168.5q0 -95 37 -161.5t96 -100t124 -33.5q58 0 107 26t79.5 75.5t30.5 119.5v14q0 23 -49 21v4h106v-4q-18 0 -18 -21v-247h-4l-23 193h-3
q-14 -90 -84 -141t-160 -51q-72 0 -136 34t-104 103t-40 169q0 88 36 157.5t101.5 109.5t150.5 40q130 0 218 -60zM247 708q3 -16 18 -30t41 -14q25 0 40 14t18 30h2q0 -29 -16.5 -49t-43.5 -20q-28 0 -44.5 20t-16.5 49h2z" />
    <glyph glyph-name="gbreve" unicode="&#x11f;" horiz-adv-x="316" vert-adv-y="0" 
d="M285 458q11 -14 11 -35q0 -13 -6 -20t-15 -7q-7 0 -13 7t-6 20q0 35 -11 35q-7 0 -14 -19.5t-7 -51.5q9 -36 9 -83q0 -69 -22 -118t-73 -49q-24 0 -42 12l-16 -33q-6 -14 -6 -27q0 -20 18 -33t56 -14q66 -2 90 -19.5t24 -53.5q0 -31 -23 -64.5t-60.5 -56t-75.5 -22.5
q-41 0 -62 18.5t-21 52.5q0 46 36 112q4 6 8 6q5 0 5 -5q0 -3 -2 -6q-39 -52 -39 -88q0 -26 21 -40.5t63 -14.5q58 0 99.5 29.5t42.5 62.5q0 24 -19 36.5t-69 12.5h-1q-58 0 -85 13.5t-37 43.5l49 93q-26 20 -37.5 61.5t-11.5 90.5q0 69 22 118t73 49q56 0 80 -67
q3 35 14.5 51.5t26.5 16.5t26 -14zM90.5 429q-8.5 -37 -8.5 -112q0 -65 19 -120t50 -55q27 0 35 36t8 113q0 66 -18.5 120.5t-50.5 54.5q-26 0 -34.5 -37zM80 572q3 -16 18 -30t41 -14q25 0 40 14t18 30h2q0 -29 -16.5 -49t-43.5 -20q-28 0 -44.5 20t-16.5 49h2z" />
    <glyph glyph-name="Gdotaccent" unicode="&#x120;" horiz-adv-x="612" vert-adv-y="0" 
d="M526 548q4 -2 6 -2q5 0 5 7v1l-3 53l5 1l23 -186l-4 -1q-18 83 -87.5 132t-155.5 49q-67 0 -125 -32.5t-93.5 -100t-35.5 -168.5q0 -95 37 -161.5t96 -100t124 -33.5q58 0 107 26t79.5 75.5t30.5 119.5v14q0 23 -49 21v4h106v-4q-18 0 -18 -21v-247h-4l-23 193h-3
q-14 -90 -84 -141t-160 -51q-72 0 -136 34t-104 103t-40 169q0 88 36 157.5t101.5 109.5t150.5 40q130 0 218 -60zM322.5 701q7.5 -8 7.5 -19q0 -10 -7.5 -18t-18.5 -8t-18.5 8t-7.5 18q0 11 7.5 19t18.5 8t18.5 -8z" />
    <glyph glyph-name="gdotaccent" unicode="&#x121;" horiz-adv-x="316" vert-adv-y="0" 
d="M285 458q11 -14 11 -35q0 -13 -6 -20t-15 -7q-7 0 -13 7t-6 20q0 35 -11 35q-7 0 -14 -19.5t-7 -51.5q9 -36 9 -83q0 -69 -22 -118t-73 -49q-24 0 -42 12l-16 -33q-6 -14 -6 -27q0 -20 18 -33t56 -14q66 -2 90 -19.5t24 -53.5q0 -31 -23 -64.5t-60.5 -56t-75.5 -22.5
q-41 0 -62 18.5t-21 52.5q0 46 36 112q4 6 8 6q5 0 5 -5q0 -3 -2 -6q-39 -52 -39 -88q0 -26 21 -40.5t63 -14.5q58 0 99.5 29.5t42.5 62.5q0 24 -19 36.5t-69 12.5h-1q-58 0 -85 13.5t-37 43.5l49 93q-26 20 -37.5 61.5t-11.5 90.5q0 69 22 118t73 49q56 0 80 -67
q3 35 14.5 51.5t26.5 16.5t26 -14zM90.5 429q-8.5 -37 -8.5 -112q0 -65 19 -120t50 -55q27 0 35 36t8 113q0 66 -18.5 120.5t-50.5 54.5q-26 0 -34.5 -37zM155.5 565q7.5 -8 7.5 -19q0 -10 -7.5 -18t-18.5 -8t-18.5 8t-7.5 18q0 11 7.5 19t18.5 8t18.5 -8z" />
    <glyph glyph-name="uni0122" unicode="&#x122;" horiz-adv-x="612" vert-adv-y="0" 
d="M526 548q4 -2 6 -2q5 0 5 7v1l-3 53l5 1l23 -186l-4 -1q-18 83 -87.5 132t-155.5 49q-67 0 -125 -32.5t-93.5 -100t-35.5 -168.5q0 -95 37 -161.5t96 -100t124 -33.5q58 0 107 26t79.5 75.5t30.5 119.5v14q0 23 -49 21v4h106v-4q-18 0 -18 -21v-247h-4l-23 193h-3
q-14 -90 -84 -141t-160 -51q-72 0 -136 34t-104 103t-40 169q0 88 36 157.5t101.5 109.5t150.5 40q130 0 218 -60zM288 -26.5q6 5.5 15 5.5q20 0 29 -17q5 -10 5 -24q0 -28 -16 -55t-47 -32v4q21 5 30.5 17.5t9.5 27.5q0 11 -5 19.5t-15 18.5q-12 13 -12 20q0 10 6 15.5z
" />
    <glyph glyph-name="uni0123" unicode="&#x123;" horiz-adv-x="316" vert-adv-y="0" 
d="M285 458q11 -14 11 -35q0 -13 -6 -20t-15 -7q-7 0 -13 7t-6 20q0 35 -11 35q-7 0 -14 -19.5t-7 -51.5q9 -36 9 -83q0 -69 -22 -118t-73 -49q-24 0 -42 12l-16 -33q-6 -14 -6 -27q0 -20 18 -33t56 -14q66 -2 90 -19.5t24 -53.5q0 -31 -23 -64.5t-60.5 -56t-75.5 -22.5
q-41 0 -62 18.5t-21 52.5q0 46 36 112q4 6 8 6q5 0 5 -5q0 -3 -2 -6q-39 -52 -39 -88q0 -26 21 -40.5t63 -14.5q58 0 99.5 29.5t42.5 62.5q0 24 -19 36.5t-69 12.5h-1q-58 0 -85 13.5t-37 43.5l49 93q-26 20 -37.5 61.5t-11.5 90.5q0 69 22 118t73 49q56 0 80 -67
q3 35 14.5 51.5t26.5 16.5t26 -14zM90.5 429q-8.5 -37 -8.5 -112q0 -65 19 -120t50 -55q27 0 35 36t8 113q0 66 -18.5 120.5t-50.5 54.5q-26 0 -34.5 -37zM155 499.5q-6 -5.5 -15 -5.5q-20 0 -29 16q-5 10 -5 25q0 28 16 55t47 32v-4q-20 -5 -30 -17.5t-10 -27.5
q0 -11 5 -19.5t15 -18.5q12 -13 12 -20q0 -10 -6 -15.5z" />
    <glyph glyph-name="Hcircumflex" unicode="&#x124;" horiz-adv-x="412" vert-adv-y="0" 
d="M156 603v-4q-27 0 -37.5 -4.5t-10.5 -16.5v-238h196v238q0 23 -48 21v4h136v-4q-27 0 -37.5 -4.5t-10.5 -16.5v-553q0 -22 48 -20v-5h-136v5q27 0 37.5 4.5t10.5 15.5v309h-196v-309q0 -22 48 -20v-5h-136v5q27 0 37.5 4.5t10.5 15.5v553q0 23 -48 21v4h136zM183 708
q11 14 23 14t23 -14l51 -68l-1 -2l-73 59l-73 -59l-1 2z" />
    <glyph glyph-name="hcircumflex" unicode="&#x125;" horiz-adv-x="349" vert-adv-y="0" 
d="M108 649v-294q10 57 34.5 85.5t58.5 28.5q36 0 58 -28.5t22 -85.5v-330q0 -22 48 -20v-5h-135v5q26 0 37 4.5t11 15.5v330q0 47 -14.5 71t-42.5 24q-34 0 -55.5 -46t-21.5 -138v-241q0 -22 48 -20v-5h-136v5q27 0 37.5 4.5t10.5 15.5v553q0 12 -10.5 16.5t-37.5 4.5v4
q30 0 54 13.5t30 32.5h4zM81 754q11 14 23 14t23 -14l51 -68l-1 -2l-73 59l-73 -59l-1 2z" />
    <glyph glyph-name="Hbar" unicode="&#x126;" horiz-adv-x="412" vert-adv-y="0" 
d="M68 467v111q0 23 -48 21v4h136v-4q-27 0 -37.5 -4.5t-10.5 -16.5v-111h196v111q0 23 -48 21v4h136v-4q-27 0 -37.5 -4.5t-10.5 -16.5v-111h43v-13h-43v-429q0 -22 48 -20v-5h-136v5q27 0 37.5 4.5t10.5 15.5v309h-196v-309q0 -22 48 -20v-5h-136v5q27 0 37.5 4.5
t10.5 15.5v429h-44v13h44zM108 454v-114h196v114h-196z" />
    <glyph glyph-name="hbar" unicode="&#x127;" horiz-adv-x="349" vert-adv-y="0" 
d="M68 561v17q0 12 -10.5 16.5t-37.5 4.5v4q30 0 54 13.5t30 32.5h4v-88h71v-19h-71v-187q10 57 34.5 85.5t58.5 28.5q36 0 58 -28.5t22 -85.5v-330q0 -22 48 -20v-5h-135v5q26 0 37 4.5t11 15.5v330q0 47 -14.5 71t-42.5 24q-34 0 -55.5 -46t-21.5 -138v-241q0 -22 48 -20
v-5h-136v5q27 0 37.5 4.5t10.5 15.5v517h-40v19h40z" />
    <glyph glyph-name="Itilde" unicode="&#x128;" vert-adv-y="0" 
d="M156 603v-4q-27 0 -37.5 -4.5t-10.5 -16.5v-553q0 -22 48 -20v-5h-136v5q27 0 37.5 4.5t10.5 15.5v553q0 23 -48 21v4h136zM12 648q13 51 52 51q16 0 38 -16q17 -13 27 -13q26 0 33 29h2q-13 -51 -52 -51q-16 0 -38 16q-17 13 -27 13q-26 0 -33 -29h-2z" />
    <glyph glyph-name="itilde" unicode="&#x129;" vert-adv-y="0" 
d="M108 473v-448q0 -22 48 -20v-5h-136v5q27 0 37.5 4.5t10.5 15.5v377q0 12 -10.5 16.5t-37.5 4.5v4q30 0 54 13.5t30 32.5h4zM4 512q13 51 52 51q16 0 38 -16q17 -13 27 -13q26 0 33 29h2q-13 -51 -52 -51q-16 0 -38 16q-17 13 -27 13q-26 0 -33 -29h-2z" />
    <glyph glyph-name="Imacron" unicode="&#x12a;" vert-adv-y="0" 
d="M156 603v-4q-27 0 -37.5 -4.5t-10.5 -16.5v-553q0 -22 48 -20v-5h-136v5q27 0 37.5 4.5t10.5 15.5v553q0 23 -48 21v4h136zM18 673v13h139v-13h-139z" />
    <glyph glyph-name="imacron" unicode="&#x12b;" vert-adv-y="0" 
d="M108 473v-448q0 -22 48 -20v-5h-136v5q27 0 37.5 4.5t10.5 15.5v377q0 12 -10.5 16.5t-37.5 4.5v4q30 0 54 13.5t30 32.5h4zM10 537v13h139v-13h-139z" />
    <glyph glyph-name="Ibreve" unicode="&#x12c;" vert-adv-y="0" 
d="M156 603v-4q-27 0 -37.5 -4.5t-10.5 -16.5v-553q0 -22 48 -20v-5h-136v5q27 0 37.5 4.5t10.5 15.5v553q0 23 -48 21v4h136zM29 708q3 -16 18 -30t41 -14q25 0 40 14t18 30h2q0 -29 -16.5 -49t-43.5 -20q-28 0 -44.5 20t-16.5 49h2z" />
    <glyph glyph-name="ibreve" unicode="&#x12d;" vert-adv-y="0" 
d="M108 473v-448q0 -22 48 -20v-5h-136v5q27 0 37.5 4.5t10.5 15.5v377q0 12 -10.5 16.5t-37.5 4.5v4q30 0 54 13.5t30 32.5h4zM21 572q3 -16 18 -30t41 -14q25 0 40 14t18 30h2q0 -29 -16.5 -49t-43.5 -20q-28 0 -44.5 20t-16.5 49h2z" />
    <glyph glyph-name="Iogonek" unicode="&#x12e;" vert-adv-y="0" 
d="M46.5 -43q14.5 22 44.5 43h-71v5q27 0 37.5 4.5t10.5 15.5v553q0 23 -48 21v4h136v-4q-27 0 -37.5 -4.5t-10.5 -16.5v-553q0 -22 48 -20v-5h-60q-22 -14 -33 -35.5t-11 -43.5q0 -18 7.5 -28.5t22.5 -10.5q6 0 12 3v-3q-12 -5 -23 -5q-17 0 -28 11t-11 28q0 19 14.5 41z
" />
    <glyph glyph-name="iogonek" unicode="&#x12f;" vert-adv-y="0" 
d="M73.5 -43q14.5 22 44.5 43h-98v5q27 0 37.5 4.5t10.5 15.5v377q0 12 -10.5 16.5t-37.5 4.5v4q30 0 54 13.5t30 32.5h4v-448q0 -22 48 -20v-5h-33q-22 -14 -33 -35.5t-11 -43.5q0 -18 7.5 -28.5t22.5 -10.5q6 0 12 3v-3q-12 -5 -23 -5q-17 0 -28 11t-11 28q0 19 14.5 41z
M105 565q8 -8 8 -19q0 -10 -8 -18t-18 -8q-11 0 -19 8t-8 18q0 11 8 19t19 8q10 0 18 -8z" />
    <glyph glyph-name="Idotaccent" unicode="&#x130;" vert-adv-y="0" 
d="M156 603v-4q-27 0 -37.5 -4.5t-10.5 -16.5v-553q0 -22 48 -20v-5h-136v5q27 0 37.5 4.5t10.5 15.5v553q0 23 -48 21v4h136zM104.5 701q7.5 -8 7.5 -19q0 -10 -7.5 -18t-18.5 -8t-18.5 8t-7.5 18q0 11 7.5 19t18.5 8t18.5 -8z" />
    <glyph glyph-name="dotlessi" unicode="&#x131;" vert-adv-y="0" 
d="M108 473v-448q0 -22 48 -20v-5h-136v5q27 0 37.5 4.5t10.5 15.5v377q0 12 -10.5 16.5t-37.5 4.5v4q30 0 54 13.5t30 32.5h4z" />
    <glyph glyph-name="IJ" unicode="&#x132;" horiz-adv-x="327" vert-adv-y="0" 
d="M156 603v-4q-27 0 -37.5 -4.5t-10.5 -16.5v-553q0 -22 48 -20v-5h-136v5q27 0 37.5 4.5t10.5 15.5v553q0 23 -48 21v4h136zM307 603v-5q-26 0 -37 -4.5t-11 -15.5v-612q0 -54 -32 -81t-74 -27q-64 1 -105 46q-2 3 -4 3q-3 0 -3 -5v-1l3 -54h-5l-19 148h5
q26 -78 59.5 -105t69.5 -27q31 0 48.5 24t17.5 65v626q0 22 -49 20v5h136z" />
    <glyph glyph-name="ij" unicode="&#x133;" horiz-adv-x="326" vert-adv-y="0" 
d="M105 565q8 -8 8 -19q0 -10 -8 -18t-18 -8q-11 0 -19 8t-8 18q0 11 8 19t19 8q10 0 18 -8zM108 473v-448q0 -22 48 -20v-5h-136v5q27 0 37.5 4.5t10.5 15.5v377q0 12 -10.5 16.5t-37.5 4.5v4q30 0 54 13.5t30 32.5h4zM298.5 566.5q7.5 -7.5 7.5 -18.5t-7.5 -18.5
t-18.5 -7.5t-18.5 7.5t-7.5 18.5t7.5 18.5t18.5 7.5t18.5 -7.5zM301 474v-447q0 -58 -29 -109.5t-76 -92.5l-2 3q38 39 52.5 75t14.5 90v411q0 12 -10.5 16t-37.5 4v5q30 0 54 13.5t30 31.5h4z" />
    <glyph glyph-name="Jcircumflex" unicode="&#x134;" horiz-adv-x="329" vert-adv-y="0" 
d="M309 603v-5q-26 0 -37 -4.5t-11 -15.5v-476q0 -54 -32 -81t-74 -27q-31 0 -57.5 15.5t-44.5 37.5q-2 3 -4 3q-3 0 -3 -5v-1l3 -54h-5l-24 190l4 1q30 -108 62 -145t70 -37q31 0 48.5 24t17.5 65v490q0 22 -49 20v5h136zM218 708q11 14 23 14t23 -14l51 -68l-1 -2l-73 59
l-73 -59l-1 2z" />
    <glyph glyph-name="jcircumflex" unicode="&#x135;" horiz-adv-x="147" vert-adv-y="0" 
d="M127 474v-447q0 -58 -29 -109.5t-76 -92.5l-2 3q38 39 52.5 75t14.5 90v411q0 12 -10.5 16t-37.5 4v5q30 0 54 13.5t30 31.5h4zM77 572q11 14 23 14t23 -14l51 -68l-1 -2l-73 59l-73 -59l-1 2z" />
    <glyph glyph-name="uni0136" unicode="&#x136;" horiz-adv-x="430" vert-adv-y="0" 
d="M342 598.5q12 -8.5 12 -18.5q0 -6 -4 -10.5t-11 -4.5q-11 0 -27 12q-17 14 -32 14q-46 0 -92 -55.5t-74 -140.5q26 21 62 21t67 -27t46 -86l65 -245q13 -50 56 -71l-1 -2q-81 23 -98 86l-63 234q-14 54 -36 77.5t-49 23.5q-30 0 -55 -25v-355q0 -23 48 -21v-5h-136v5
q27 0 37.5 4.5t10.5 16.5v553q0 22 -48 20v5h136v-5q-27 0 -37.5 -4.5t-10.5 -15.5v-182q30 93 80.5 151.5t117.5 58.5q24 0 36 -8.5zM197 -26.5q6 5.5 15 5.5q20 0 29 -17q5 -10 5 -24q0 -28 -16 -55t-47 -32v4q21 5 30.5 17.5t9.5 27.5q0 11 -5 19.5t-15 18.5
q-12 13 -12 20q0 10 6 15.5z" />
    <glyph glyph-name="uni0137" unicode="&#x137;" horiz-adv-x="361" vert-adv-y="0" 
d="M108 649v-377q15 94 59.5 146t95.5 52q20 0 29.5 -7t9.5 -15q0 -7 -5.5 -11.5t-15.5 -4.5t-28 7q-17 7 -26 7q-19 0 -42 -20t-42.5 -60t-28.5 -97q10 24 26.5 36t35.5 12q23 0 42.5 -17.5t26.5 -46.5l47 -198q13 -52 49 -63l-1 -2q-74 14 -90 77l-46 187q-6 22 -19 35.5
t-27 13.5h-1q-17 0 -30.5 -18.5t-17.5 -55.5q-1 -21 -1 -42v-161q0 -23 48 -21v-5h-136v5q27 0 37.5 4.5t10.5 16.5v553q0 12 -10.5 16t-37.5 4v5q30 0 54 13.5t30 31.5h4zM162 -26.5q6 5.5 15 5.5q20 0 29 -17q5 -10 5 -24q0 -28 -16 -55t-47 -32v4q21 5 30.5 17.5
t9.5 27.5q0 11 -5 19.5t-15 18.5q-12 13 -12 20q0 10 6 15.5z" />
    <glyph glyph-name="kgreenlandic" unicode="&#x138;" horiz-adv-x="361" vert-adv-y="0" 
d="M108 471v-199q15 94 59.5 146t95.5 52q20 0 29.5 -7t9.5 -15q0 -7 -5.5 -11.5t-15.5 -4.5t-28 7q-17 7 -26 7q-19 0 -42 -20t-42.5 -60t-28.5 -97q10 24 26.5 36t35.5 12q23 0 42.5 -17.5t26.5 -46.5l47 -198q13 -52 49 -63l-1 -2q-74 14 -90 77l-46 187q-6 22 -19 35.5
t-27 13.5h-1q-17 0 -30.5 -18.5t-17.5 -55.5q-1 -21 -1 -42v-161q0 -23 48 -21v-5h-136v5q27 0 37.5 4.5t10.5 16.5v375q0 12 -10.5 16t-37.5 4v5q30 0 54 13.5t30 31.5h4z" />
    <glyph glyph-name="Lacute" unicode="&#x139;" horiz-adv-x="336" vert-adv-y="0" 
d="M156 603v-4q-27 0 -37.5 -5t-10.5 -16v-553q0 -11 4 -15t13 -4h27q76 0 108 26t45 101l8 48h3l-23 -186h-3q-2 5 -9 5h-261v5q27 0 37.5 4.5t10.5 15.5v553q0 23 -48 21v4h136zM96 709q14 14 23 14q16 0 17 -16q0 -10 -15 -19l-91 -49l-1 2z" />
    <glyph glyph-name="lacute" unicode="&#x13a;" vert-adv-y="0" 
d="M108 649v-624q0 -22 48 -20v-5h-136v5q27 0 37.5 4.5t10.5 15.5v553q0 12 -10.5 16.5t-37.5 4.5v4q30 0 54 13.5t30 32.5h4zM90 755q14 14 23 14q16 0 17 -16q0 -10 -15 -19l-91 -49l-1 2z" />
    <glyph glyph-name="uni013B" unicode="&#x13b;" horiz-adv-x="336" vert-adv-y="0" 
d="M156 603v-4q-27 0 -37.5 -5t-10.5 -16v-553q0 -11 4 -15t13 -4h27q76 0 108 26t45 101l8 48h3l-23 -186h-3q-2 5 -9 5h-261v5q27 0 37.5 4.5t10.5 15.5v553q0 23 -48 21v4h136zM150 -26.5q6 5.5 15 5.5q20 0 29 -17q5 -10 5 -24q0 -28 -16 -55t-47 -32v4q21 5 30.5 17.5
t9.5 27.5q0 11 -5 19.5t-15 18.5q-12 13 -12 20q0 10 6 15.5z" />
    <glyph glyph-name="uni013C" unicode="&#x13c;" vert-adv-y="0" 
d="M108 649v-624q0 -22 48 -20v-5h-136v5q27 0 37.5 4.5t10.5 15.5v553q0 12 -10.5 16.5t-37.5 4.5v4q30 0 54 13.5t30 32.5h4zM70 -26.5q6 5.5 15 5.5q20 0 29 -17q5 -10 5 -24q0 -28 -16 -55t-47 -32v4q21 5 30.5 17.5t9.5 27.5q0 11 -5 19.5t-15 18.5q-12 13 -12 20
q0 10 6 15.5z" />
    <glyph glyph-name="Lcaron" unicode="&#x13d;" horiz-adv-x="336" vert-adv-y="0" 
d="M156 603v-4q-27 0 -37.5 -5t-10.5 -16v-553q0 -11 4 -15t13 -4h27q76 0 108 26t45 101l8 48h3l-23 -186h-3q-2 5 -9 5h-261v5q27 0 37.5 4.5t10.5 15.5v553q0 23 -48 21v4h136zM202.5 597.5q5.5 5.5 14.5 5.5q17 0 26 -11t9 -30q0 -25 -16.5 -56.5t-47.5 -60.5l-3 4
q44 45 44 75q0 11 -5.5 19.5t-14.5 18.5q-12 13 -12 20q0 10 5.5 15.5z" />
    <glyph glyph-name="lcaron" unicode="&#x13e;" vert-adv-y="0" 
d="M108 649v-624q0 -22 48 -20v-5h-136v5q27 0 37.5 4.5t10.5 15.5v553q0 12 -10.5 16.5t-37.5 4.5v4q30 0 54 13.5t30 32.5h4zM198.5 643.5q5.5 5.5 14.5 5.5q17 0 26 -11t9 -30q0 -25 -16.5 -56.5t-47.5 -60.5l-3 4q44 45 44 75q0 11 -5.5 19.5t-14.5 18.5q-12 13 -12 20
q0 10 5.5 15.5z" />
    <glyph glyph-name="Ldot" unicode="&#x13f;" horiz-adv-x="336" vert-adv-y="0" 
d="M156 603v-4q-27 0 -37.5 -5t-10.5 -16v-553q0 -11 4 -15t13 -4h27q76 0 108 26t45 101l8 48h3l-23 -186h-3q-2 5 -9 5h-261v5q27 0 37.5 4.5t10.5 15.5v553q0 23 -48 21v4h136zM135.5 280.5q-7.5 7.5 -7.5 18.5t7.5 18.5t18.5 7.5t18.5 -7.5t7.5 -18.5t-8 -18.5t-18 -7.5
q-11 0 -18.5 7.5z" />
    <glyph glyph-name="ldot" unicode="&#x140;" horiz-adv-x="258" vert-adv-y="0" 
d="M108 649v-624q0 -22 48 -20v-5h-136v5q27 0 37.5 4.5t10.5 15.5v553q0 12 -10.5 16.5t-37.5 4.5v4q30 0 54 13.5t30 32.5h4zM193.5 305.5q-7.5 7.5 -7.5 18.5t7.5 18.5t18.5 7.5q10 0 18 -7.5t8 -18.5t-8 -18.5t-18 -7.5q-11 0 -18.5 7.5z" />
    <glyph glyph-name="Lslash" unicode="&#x141;" horiz-adv-x="336" vert-adv-y="0" 
d="M68 299v279q0 23 -48 21v4h136v-4q-27 0 -37.5 -5t-10.5 -16v-254l72 48v-22l-72 -48v-277q0 -11 4 -15t13 -4h27q76 0 108 26t45 101l8 48h3l-23 -186h-3q-2 5 -9 5h-261v5q27 0 37.5 4.5t10.5 15.5v252l-42 -27v22z" />
    <glyph glyph-name="lslash" unicode="&#x142;" vert-adv-y="0" 
d="M68 305v273q0 12 -10.5 16.5t-37.5 4.5v4q30 0 54 13.5t30 32.5h4v-318l45 30v-22l-45 -30v-284q0 -22 48 -20v-5h-136v5q27 0 37.5 4.5t10.5 15.5v258l-46 -30v22z" />
    <glyph glyph-name="Nacute" unicode="&#x143;" horiz-adv-x="383" vert-adv-y="0" 
d="M103 603l204 -496l-5 471q0 11 -11 16t-37 5v4h109v-4q-27 0 -37.5 -5t-10.5 -16v-584h-4l-236 574l6 -543q0 -11 11 -15.5t37 -4.5v-5h-109v5q27 0 37.5 4.5t10.5 15.5v553q0 23 -48 21v4h83zM200 709q14 14 23 14q16 0 17 -16q0 -10 -15 -19l-91 -49l-1 2z" />
    <glyph glyph-name="nacute" unicode="&#x144;" horiz-adv-x="349" vert-adv-y="0" 
d="M108 473v-118q10 57 34.5 85.5t58.5 28.5q36 0 58 -28.5t22 -85.5v-330q0 -22 48 -20v-5h-135v5q26 0 37 4.5t11 15.5v330q0 47 -14.5 71t-42.5 24q-34 0 -55.5 -46t-21.5 -139v-240q0 -22 48 -20v-5h-136v5q27 0 37.5 4.5t10.5 15.5v377q0 12 -10.5 16.5t-37.5 4.5v4
q30 0 54 13.5t30 32.5h4zM183 573q14 14 23 14q16 0 17 -16q0 -10 -15 -19l-91 -49l-1 2z" />
    <glyph glyph-name="uni0145" unicode="&#x145;" horiz-adv-x="383" vert-adv-y="0" 
d="M103 603l204 -496l-5 471q0 11 -11 16t-37 5v4h109v-4q-27 0 -37.5 -5t-10.5 -16v-584h-4l-236 574l6 -543q0 -11 11 -15.5t37 -4.5v-5h-109v5q27 0 37.5 4.5t10.5 15.5v553q0 23 -48 21v4h83zM174 -26.5q6 5.5 15 5.5q20 0 29 -17q5 -10 5 -24q0 -28 -16 -55t-47 -32v4
q21 5 30.5 17.5t9.5 27.5q0 11 -5 19.5t-15 18.5q-12 13 -12 20q0 10 6 15.5z" />
    <glyph glyph-name="uni0146" unicode="&#x146;" horiz-adv-x="349" vert-adv-y="0" 
d="M108 473v-118q10 57 34.5 85.5t58.5 28.5q36 0 58 -28.5t22 -85.5v-330q0 -22 48 -20v-5h-135v5q26 0 37 4.5t11 15.5v330q0 47 -14.5 71t-42.5 24q-34 0 -55.5 -46t-21.5 -139v-240q0 -22 48 -20v-5h-136v5q27 0 37.5 4.5t10.5 15.5v377q0 12 -10.5 16.5t-37.5 4.5v4
q30 0 54 13.5t30 32.5h4zM157 -26.5q6 5.5 15 5.5q20 0 29 -17q5 -10 5 -24q0 -28 -16 -55t-47 -32v4q21 5 30.5 17.5t9.5 27.5q0 11 -5 19.5t-15 18.5q-12 13 -12 20q0 10 6 15.5z" />
    <glyph glyph-name="Ncaron" unicode="&#x147;" horiz-adv-x="383" vert-adv-y="0" 
d="M103 603l204 -496l-5 471q0 11 -11 16t-37 5v4h109v-4q-27 0 -37.5 -5t-10.5 -16v-584h-4l-236 574l6 -543q0 -11 11 -15.5t37 -4.5v-5h-109v5q27 0 37.5 4.5t10.5 15.5v553q0 23 -48 21v4h83zM119 722l73 -59l73 59l1 -2l-51 -68q-11 -14 -23 -14t-23 14l-51 68z" />
    <glyph glyph-name="ncaron" unicode="&#x148;" horiz-adv-x="349" vert-adv-y="0" 
d="M108 473v-118q10 57 34.5 85.5t58.5 28.5q36 0 58 -28.5t22 -85.5v-330q0 -22 48 -20v-5h-135v5q26 0 37 4.5t11 15.5v330q0 47 -14.5 71t-42.5 24q-34 0 -55.5 -46t-21.5 -139v-240q0 -22 48 -20v-5h-136v5q27 0 37.5 4.5t10.5 15.5v377q0 12 -10.5 16.5t-37.5 4.5v4
q30 0 54 13.5t30 32.5h4zM102 586l73 -59l73 59l1 -2l-51 -68q-11 -14 -23 -14t-23 14l-51 68z" />
    <glyph glyph-name="napostrophe" unicode="&#x149;" horiz-adv-x="412" vert-adv-y="0" 
d="M171 473v-118q10 57 34.5 85.5t58.5 28.5q36 0 58 -28.5t22 -85.5v-330q0 -22 48 -20v-5h-135v5q26 0 37 4.5t11 15.5v330q0 47 -14.5 71t-42.5 24q-34 0 -55.5 -46t-21.5 -139v-240q0 -22 48 -20v-5h-136v5q27 0 37.5 4.5t10.5 15.5v377q0 12 -10.5 16.5t-37.5 4.5v4
q30 0 54 13.5t30 32.5h4zM37.5 601.5q5.5 5.5 14.5 5.5q17 0 26 -11t9 -30q0 -25 -16.5 -56.5t-47.5 -60.5l-3 4q44 45 44 75q0 11 -5.5 19.5t-14.5 18.5q-12 13 -12 20q0 10 5.5 15.5z" />
    <glyph glyph-name="Eng" unicode="&#x14a;" horiz-adv-x="383" vert-adv-y="0" 
d="M275 80l-200 488l6 -543q0 -11 11 -15.5t37 -4.5v-5h-109v5q27 0 37.5 4.5t10.5 15.5v553q0 23 -48 21v4h83l204 -496l-5 471q0 11 -11 16t-37 5v4h109v-4q-27 0 -37.5 -5t-10.5 -16v-551q0 -58 -29 -109.5t-76 -92.5l-2 3q38 39 52.5 75t14.5 90v87z" />
    <glyph glyph-name="eng" unicode="&#x14b;" horiz-adv-x="301" vert-adv-y="0" 
d="M242 355q0 47 -14.5 71t-42.5 24q-34 0 -55.5 -46t-21.5 -139v-240q0 -22 48 -20v-5h-136v5q27 0 37.5 4.5t10.5 15.5v377q0 12 -10.5 16.5t-37.5 4.5v4q30 0 54 13.5t30 32.5h4v-118q10 57 34.5 85.5t58.5 28.5q36 0 58 -28.5t22 -85.5v-330q-1 -57 -29.5 -108
t-75.5 -92l-2 3q38 39 52.5 75t15.5 90v362z" />
    <glyph glyph-name="Omacron" unicode="&#x14c;" horiz-adv-x="621" vert-adv-y="0" 
d="M461 568q66 -41 103 -111.5t37 -154.5q0 -85 -37 -155t-103 -111t-150 -41h-1q-84 0 -150.5 41t-103 111t-36.5 155q0 84 36.5 154.5t103 111.5t150.5 41q85 0 151 -41zM172.5 562.5q-52.5 -37.5 -82 -105t-29.5 -154.5v-1q0 -80 38 -149t99.5 -109.5t129.5 -40.5
t120.5 38t82 106t29.5 155q0 85 -37.5 153.5t-99.5 106.5t-130 38t-120.5 -37.5zM240 673v13h139v-13h-139z" />
    <glyph glyph-name="omacron" unicode="&#x14d;" horiz-adv-x="265" vert-adv-y="0" 
d="M220 394q25 -74 25 -162t-25 -161.5t-88 -73.5q-62 0 -87 73.5t-25 161.5q0 89 25 162.5t87 73.5q63 0 88 -74zM70.5 398q-10.5 -62 -10.5 -165q0 -78 22 -153.5t63 -75.5q39 0 49.5 62.5t10.5 165.5q0 78 -22.5 153t-63.5 75q-38 0 -48.5 -62zM62 537v13h139v-13h-139z
" />
    <glyph glyph-name="Obreve" unicode="&#x14e;" horiz-adv-x="621" vert-adv-y="0" 
d="M461 568q66 -41 103 -111.5t37 -154.5q0 -85 -37 -155t-103 -111t-150 -41h-1q-84 0 -150.5 41t-103 111t-36.5 155q0 84 36.5 154.5t103 111.5t150.5 41q85 0 151 -41zM172.5 562.5q-52.5 -37.5 -82 -105t-29.5 -154.5v-1q0 -80 38 -149t99.5 -109.5t129.5 -40.5
t120.5 38t82 106t29.5 155q0 85 -37.5 153.5t-99.5 106.5t-130 38t-120.5 -37.5zM251 708q3 -16 18 -30t41 -14q25 0 40 14t18 30h2q0 -29 -16.5 -49t-43.5 -20q-28 0 -44.5 20t-16.5 49h2z" />
    <glyph glyph-name="obreve" unicode="&#x14f;" horiz-adv-x="265" vert-adv-y="0" 
d="M220 394q25 -74 25 -162t-25 -161.5t-88 -73.5q-62 0 -87 73.5t-25 161.5q0 89 25 162.5t87 73.5q63 0 88 -74zM70.5 398q-10.5 -62 -10.5 -165q0 -78 22 -153.5t63 -75.5q39 0 49.5 62.5t10.5 165.5q0 78 -22.5 153t-63.5 75q-38 0 -48.5 -62zM73 572q3 -16 18 -30
t41 -14q25 0 40 14t18 30h2q0 -29 -16.5 -49t-43.5 -20q-28 0 -44.5 20t-16.5 49h2z" />
    <glyph glyph-name="Ohungarumlaut" unicode="&#x150;" horiz-adv-x="621" vert-adv-y="0" 
d="M461 568q66 -41 103 -111.5t37 -154.5q0 -85 -37 -155t-103 -111t-150 -41h-1q-84 0 -150.5 41t-103 111t-36.5 155q0 84 36.5 154.5t103 111.5t150.5 41q85 0 151 -41zM172.5 562.5q-52.5 -37.5 -82 -105t-29.5 -154.5v-1q0 -80 38 -149t99.5 -109.5t129.5 -40.5
t120.5 38t82 106t29.5 155q0 85 -37.5 153.5t-99.5 106.5t-130 38t-120.5 -37.5zM291 707q14 14 23 14q16 0 17 -16q0 -10 -15 -19l-91 -49l-1 2zM360 707q14 14 22 14q16 0 17 -16q0 -10 -14 -19l-91 -49l-1 2z" />
    <glyph glyph-name="ohungarumlaut" unicode="&#x151;" horiz-adv-x="265" vert-adv-y="0" 
d="M220 394q25 -74 25 -162t-25 -161.5t-88 -73.5q-62 0 -87 73.5t-25 161.5q0 89 25 162.5t87 73.5q63 0 88 -74zM70.5 398q-10.5 -62 -10.5 -165q0 -78 22 -153.5t63 -75.5q39 0 49.5 62.5t10.5 165.5q0 78 -22.5 153t-63.5 75q-38 0 -48.5 -62zM113 571q14 14 23 14
q16 0 17 -16q0 -10 -15 -19l-91 -49l-1 2zM182 571q14 14 22 14q16 0 17 -16q0 -10 -14 -19l-91 -49l-1 2z" />
    <glyph glyph-name="OE" unicode="&#x152;" horiz-adv-x="830" vert-adv-y="0" 
d="M562 142q-37 -68 -102.5 -107.5t-148.5 -39.5h-1q-84 0 -150.5 41t-103 111t-36.5 155q0 84 36.5 154.5t103 111.5t150.5 41t149.5 -40t102.5 -108v117q0 23 -48 21v4h256q7 0 10 5h2l18 -143h-4q-13 76 -44.5 104t-105.5 28h-28q-18 0 -17 -19v-238h43q32 0 43 26.5
t14 68.5h4v-196h-4q-3 43 -14 69t-43 26h-43v-309q0 -11 4 -15t13 -4h28q76 0 107.5 26t44.5 101l9 48h3l-23 -186h-3q-2 5 -9 5h-261v5q26 0 37 4.5t11 15.5v117zM172.5 562.5q-52.5 -37.5 -82 -105t-29.5 -154.5v-1q0 -80 38 -149t99.5 -109.5t129.5 -40.5t120.5 38
t82 106t29.5 155q0 85 -37.5 153.5t-99.5 106.5t-130 38t-120.5 -37.5z" />
    <glyph glyph-name="oe" unicode="&#x153;" horiz-adv-x="460" vert-adv-y="0" 
d="M268 413q-22 -52 -22 -178q0 -43 5 -80l92 159q24 43 24 87q0 29 -11 46.5t-32 17.5q-34 0 -56 -52zM226 91q-28 -94 -94 -94q-62 0 -87 73.5t-25 161.5q0 89 25 162.5t87 73.5q64 0 93 -89q29 91 99 91q26 0 46 -14.5t32 -37.5l35 52l3 -2l-188 -322q10 -66 34.5 -101
t52.5 -35q40 0 64.5 52t24.5 165q0 9 6 9q5 0 5 -7q0 -90 -26.5 -161t-90.5 -71q-65 0 -96 94zM70.5 398q-10.5 -62 -10.5 -165q0 -78 22 -153.5t63 -75.5q39 0 49.5 62.5t10.5 165.5q0 78 -22.5 153t-63.5 75q-38 0 -48.5 -62z" />
    <glyph glyph-name="Racute" unicode="&#x154;" horiz-adv-x="462" vert-adv-y="0" 
d="M181 603q70 0 119 -26.5t74 -69t25 -90.5q0 -71 -50.5 -125t-141.5 -61q56 -11 85.5 -45.5t58.5 -95.5q23 -47 42 -72t49 -33v-2q-61 6 -91 40t-59 97q-26 56 -50 83t-70 27h-47v4h56q84 1 131.5 54.5t47.5 127.5t-47.5 127.5t-131.5 53.5h-56q-18 0 -17 -19v-553
q0 -23 48 -20v-5h-136v5q27 0 37.5 4.5t10.5 15.5v553q0 23 -48 21v4h161zM203 709q14 14 23 14q16 0 17 -16q0 -10 -15 -19l-91 -49l-1 2z" />
    <glyph glyph-name="racute" unicode="&#x155;" horiz-adv-x="262" vert-adv-y="0" 
d="M108 473v-123q9 55 28.5 87t44.5 32q27 0 44 -25t17 -63q0 -13 -6 -20t-14 -7t-14 7t-6 20q0 34 -6.5 53t-24.5 19q-27 0 -45 -53t-18 -143v-232q0 -22 48 -20v-5h-136v5q27 0 37.5 4.5t10.5 15.5v377q0 12 -10.5 16.5t-37.5 4.5v4q30 0 54 13.5t30 32.5h4zM139 573
q14 14 23 14q16 0 17 -16q0 -10 -15 -19l-91 -49l-1 2z" />
    <glyph glyph-name="uni0156" unicode="&#x156;" horiz-adv-x="462" vert-adv-y="0" 
d="M181 603q70 0 119 -26.5t74 -69t25 -90.5q0 -71 -50.5 -125t-141.5 -61q56 -11 85.5 -45.5t58.5 -95.5q23 -47 42 -72t49 -33v-2q-61 6 -91 40t-59 97q-26 56 -50 83t-70 27h-47v4h56q84 1 131.5 54.5t47.5 127.5t-47.5 127.5t-131.5 53.5h-56q-18 0 -17 -19v-553
q0 -23 48 -20v-5h-136v5q27 0 37.5 4.5t10.5 15.5v553q0 23 -48 21v4h161zM200 -26.5q6 5.5 15 5.5q20 0 29 -17q5 -10 5 -24q0 -28 -16 -55t-47 -32v4q21 5 30.5 17.5t9.5 27.5q0 11 -5 19.5t-15 18.5q-12 13 -12 20q0 10 6 15.5z" />
    <glyph glyph-name="uni0157" unicode="&#x157;" horiz-adv-x="262" vert-adv-y="0" 
d="M108 473v-123q9 55 28.5 87t44.5 32q27 0 44 -25t17 -63q0 -13 -6 -20t-14 -7t-14 7t-6 20q0 34 -6.5 53t-24.5 19q-27 0 -45 -53t-18 -143v-232q0 -22 48 -20v-5h-136v5q27 0 37.5 4.5t10.5 15.5v377q0 12 -10.5 16.5t-37.5 4.5v4q30 0 54 13.5t30 32.5h4zM70 -26.5
q6 5.5 15 5.5q20 0 29 -17q5 -10 5 -24q0 -28 -16 -55t-47 -32v4q21 5 30.5 17.5t9.5 27.5q0 11 -5 19.5t-15 18.5q-12 13 -12 20q0 10 6 15.5z" />
    <glyph glyph-name="Rcaron" unicode="&#x158;" horiz-adv-x="462" vert-adv-y="0" 
d="M181 603q70 0 119 -26.5t74 -69t25 -90.5q0 -71 -50.5 -125t-141.5 -61q56 -11 85.5 -45.5t58.5 -95.5q23 -47 42 -72t49 -33v-2q-61 6 -91 40t-59 97q-26 56 -50 83t-70 27h-47v4h56q84 1 131.5 54.5t47.5 127.5t-47.5 127.5t-131.5 53.5h-56q-18 0 -17 -19v-553
q0 -23 48 -20v-5h-136v5q27 0 37.5 4.5t10.5 15.5v553q0 23 -48 21v4h161zM122 722l73 -59l73 59l1 -2l-51 -68q-11 -14 -23 -14t-23 14l-51 68z" />
    <glyph glyph-name="rcaron" unicode="&#x159;" horiz-adv-x="262" vert-adv-y="0" 
d="M108 473v-123q9 55 28.5 87t44.5 32q27 0 44 -25t17 -63q0 -13 -6 -20t-14 -7t-14 7t-6 20q0 34 -6.5 53t-24.5 19q-27 0 -45 -53t-18 -143v-232q0 -22 48 -20v-5h-136v5q27 0 37.5 4.5t10.5 15.5v377q0 12 -10.5 16.5t-37.5 4.5v4q30 0 54 13.5t30 32.5h4zM58 586
l73 -59l73 59l1 -2l-51 -68q-11 -14 -23 -14t-23 14l-51 68z" />
    <glyph glyph-name="Sacute" unicode="&#x15a;" horiz-adv-x="338" vert-adv-y="0" 
d="M255.5 36.5q31.5 35.5 31.5 86.5q0 60 -32.5 103.5t-96.5 99.5q-57 50 -85 86t-28 82q0 52 31.5 83t79.5 31q59 0 104 -50q3 -3 5 -3q3 0 3 5v1l-2 46l4 1l24 -186l-4 -1q-12 65 -32.5 105.5t-46.5 58t-55 17.5q-38 0 -62 -25t-24 -61q0 -43 28.5 -78t86.5 -85
q66 -57 99.5 -100.5t33.5 -100.5q0 -74 -41.5 -116t-104.5 -42q-72 0 -119 53q-3 3 -4 3q-3 0 -3 -5v-1l3 -54h-5l-24 190l4 1q17 -90 61.5 -135t93.5 -45q45 0 76.5 35.5zM177 709q14 14 23 14q16 0 17 -16q0 -10 -15 -19l-91 -49l-1 2z" />
    <glyph glyph-name="sacute" unicode="&#x15b;" horiz-adv-x="244" vert-adv-y="0" 
d="M173.5 29.5q18.5 24.5 18.5 73.5q0 44 -22.5 77.5t-65.5 77.5q-39 40 -58 68t-19 63q0 31 20.5 56t61.5 25q19 0 49 -7q17 -4 23 -4q12 0 15 11h3l18 -134h-2l-1 -1q-14 69 -38 99.5t-67 30.5q-25 0 -41.5 -16t-16.5 -45q0 -28 18.5 -53.5t56.5 -63.5q48 -48 73 -85
t25 -84q0 -54 -27 -86.5t-73 -32.5q-51 0 -86 43q-4 6 -7 6q-2 0 -3 -8l-3 -41h-5v179h3q9 -93 37 -133t64 -40q31 0 49.5 24.5zM130 573q14 14 23 14q16 0 17 -16q0 -10 -15 -19l-91 -49l-1 2z" />
    <glyph glyph-name="Scircumflex" unicode="&#x15c;" horiz-adv-x="338" vert-adv-y="0" 
d="M255.5 36.5q31.5 35.5 31.5 86.5q0 60 -32.5 103.5t-96.5 99.5q-57 50 -85 86t-28 82q0 52 31.5 83t79.5 31q59 0 104 -50q3 -3 5 -3q3 0 3 5v1l-2 46l4 1l24 -186l-4 -1q-12 65 -32.5 105.5t-46.5 58t-55 17.5q-38 0 -62 -25t-24 -61q0 -43 28.5 -78t86.5 -85
q66 -57 99.5 -100.5t33.5 -100.5q0 -74 -41.5 -116t-104.5 -42q-72 0 -119 53q-3 3 -4 3q-3 0 -3 -5v-1l3 -54h-5l-24 190l4 1q17 -90 61.5 -135t93.5 -45q45 0 76.5 35.5zM146 708q11 14 23 14t23 -14l51 -68l-1 -2l-73 59l-73 -59l-1 2z" />
    <glyph glyph-name="scircumflex" unicode="&#x15d;" horiz-adv-x="244" vert-adv-y="0" 
d="M173.5 29.5q18.5 24.5 18.5 73.5q0 44 -22.5 77.5t-65.5 77.5q-39 40 -58 68t-19 63q0 31 20.5 56t61.5 25q19 0 49 -7q17 -4 23 -4q12 0 15 11h3l18 -134h-2l-1 -1q-14 69 -38 99.5t-67 30.5q-25 0 -41.5 -16t-16.5 -45q0 -28 18.5 -53.5t56.5 -63.5q48 -48 73 -85
t25 -84q0 -54 -27 -86.5t-73 -32.5q-51 0 -86 43q-4 6 -7 6q-2 0 -3 -8l-3 -41h-5v179h3q9 -93 37 -133t64 -40q31 0 49.5 24.5zM99 572q11 14 23 14t23 -14l51 -68l-1 -2l-73 59l-73 -59l-1 2z" />
    <glyph glyph-name="Scedilla" unicode="&#x15e;" horiz-adv-x="338" vert-adv-y="0" 
d="M172 1h7q45 0 76.5 35.5t31.5 86.5q0 60 -32.5 103.5t-96.5 99.5q-57 50 -85 86t-28 82q0 52 31.5 83t79.5 31q59 0 104 -50q3 -3 5 -3q3 0 3 5v1l-2 46l4 1l24 -186l-4 -1q-12 65 -32.5 105.5t-46.5 58t-55 17.5q-38 0 -62 -25t-24 -61q0 -43 28.5 -78t86.5 -85
q66 -57 99.5 -100.5t33.5 -100.5q0 -74 -41.5 -116t-104.5 -42h-4l-1 -3l-2 -3q18 -2 27.5 -14t9.5 -29q0 -23 -19 -42.5t-53 -23.5v3q24 1 39 16.5t15 34.5q0 14 -10 23.5t-30 9.5l18 28q-65 4 -109 53q-3 3 -4 3q-3 0 -3 -5v-1l3 -54h-5l-24 190l4 1q16 -84 56 -128.5
t86 -50.5h7z" />
    <glyph glyph-name="scedilla" unicode="&#x15f;" horiz-adv-x="244" vert-adv-y="0" 
d="M118 -1q-47 3 -80 43q-4 6 -7 6q-2 0 -3 -8l-3 -41h-5v179h3q9 -93 37 -133t64 -40q31 0 49.5 24.5t18.5 73.5q0 44 -22.5 77.5t-65.5 77.5q-39 40 -58 68t-19 63q0 31 20.5 56t61.5 25q19 0 49 -7q17 -4 23 -4q12 0 15 11h3l18 -134h-2l-1 -1q-14 69 -38 99.5t-67 30.5
q-25 0 -41.5 -16t-16.5 -45q0 -28 18.5 -53.5t56.5 -63.5q48 -48 73 -85t25 -84q0 -54 -27 -86.5t-73 -32.5q0 -1 -1 -2q-2 -3 -5 -9q18 -2 27.5 -14t9.5 -29q0 -23 -19 -42.5t-53 -23.5v3q24 1 39 16.5t15 34.5q0 14 -10 23.5t-30 9.5z" />
    <glyph glyph-name="Scaron" unicode="&#x160;" horiz-adv-x="338" vert-adv-y="0" 
d="M255.5 36.5q31.5 35.5 31.5 86.5q0 60 -32.5 103.5t-96.5 99.5q-57 50 -85 86t-28 82q0 52 31.5 83t79.5 31q59 0 104 -50q3 -3 5 -3q3 0 3 5v1l-2 46l4 1l24 -186l-4 -1q-12 65 -32.5 105.5t-46.5 58t-55 17.5q-38 0 -62 -25t-24 -61q0 -43 28.5 -78t86.5 -85
q66 -57 99.5 -100.5t33.5 -100.5q0 -74 -41.5 -116t-104.5 -42q-72 0 -119 53q-3 3 -4 3q-3 0 -3 -5v-1l3 -54h-5l-24 190l4 1q17 -90 61.5 -135t93.5 -45q45 0 76.5 35.5zM96 722l73 -59l73 59l1 -2l-51 -68q-11 -14 -23 -14t-23 14l-51 68z" />
    <glyph glyph-name="scaron" unicode="&#x161;" horiz-adv-x="244" vert-adv-y="0" 
d="M173.5 29.5q18.5 24.5 18.5 73.5q0 44 -22.5 77.5t-65.5 77.5q-39 40 -58 68t-19 63q0 31 20.5 56t61.5 25q19 0 49 -7q17 -4 23 -4q12 0 15 11h3l18 -134h-2l-1 -1q-14 69 -38 99.5t-67 30.5q-25 0 -41.5 -16t-16.5 -45q0 -28 18.5 -53.5t56.5 -63.5q48 -48 73 -85
t25 -84q0 -54 -27 -86.5t-73 -32.5q-51 0 -86 43q-4 6 -7 6q-2 0 -3 -8l-3 -41h-5v179h3q9 -93 37 -133t64 -40q31 0 49.5 24.5zM49 586l73 -59l73 59l1 -2l-51 -68q-11 -14 -23 -14t-23 14l-51 68z" />
    <glyph glyph-name="uni0162" unicode="&#x162;" horiz-adv-x="367" vert-adv-y="0" 
d="M179 0h-63v5q26 0 37 4.5t11 15.5v553q0 11 -4 15.5t-14 4.5h-12q-41 0 -69 -31t-40 -102l-5 1l17 142h3q2 -5 10 -5h267q7 0 10 5h2l18 -142l-5 -1q-12 71 -40 102t-70 31h-12q-18 0 -17 -20v-553q0 -22 48 -20v-5h-65l-7 -12q18 -2 27.5 -14t9.5 -29q0 -23 -19 -42.5
t-53 -23.5v3q24 1 39 16.5t15 34.5q0 14 -10 23.5t-30 9.5z" />
    <glyph glyph-name="uni0163" unicode="&#x163;" horiz-adv-x="208" vert-adv-y="0" 
d="M119 -2q-22 3 -36.5 24.5t-14.5 57.5v380h-48v5q36 0 58.5 26.5t25.5 100.5h4v-125h78v-7h-78v-398q0 -50 29 -50q15 0 27 20.5t12 53.5q0 14 -3 34q-2 13 -2 19q0 9 6 9q4 0 7.5 -5.5t3.5 -16.5q0 -63 -17.5 -95t-45.5 -33l-5 -10q18 -2 27.5 -14t9.5 -29
q0 -23 -19 -42.5t-53 -23.5v3q24 1 39 16.5t15 34.5q0 14 -10 23.5t-30 9.5z" />
    <glyph glyph-name="Tcaron" unicode="&#x164;" horiz-adv-x="367" vert-adv-y="0" 
d="M40 608q2 -5 10 -5h267q7 0 10 5h2l18 -142l-5 -1q-12 71 -40 102t-70 31h-12q-18 0 -17 -20v-553q0 -22 48 -20v-5h-135v5q26 0 37 4.5t11 15.5v553q0 11 -4 15.5t-14 4.5h-12q-41 0 -69 -31t-40 -102l-5 1l17 142h3zM110 722l73 -59l73 59l1 -2l-51 -68
q-11 -14 -23 -14t-23 14l-51 68z" />
    <glyph glyph-name="tcaron" unicode="&#x165;" horiz-adv-x="208" vert-adv-y="0" 
d="M108 592v-125h78v-7h-78v-398q0 -50 29 -50q15 0 27 20.5t12 53.5q0 14 -3 34q-2 13 -2 19q0 9 6 9q4 0 7.5 -5.5t3.5 -16.5q0 -64 -18 -96t-46 -32q-24 0 -40 22t-16 60v380h-48v5q36 0 58.5 26.5t25.5 100.5h4zM207.5 684.5q5.5 5.5 14.5 5.5q17 0 26 -11t9 -30
q0 -25 -16.5 -56.5t-47.5 -60.5l-3 4q44 45 44 75q0 11 -5.5 19.5t-14.5 18.5q-12 13 -12 20q0 10 5.5 15.5z" />
    <glyph glyph-name="Tbar" unicode="&#x166;" horiz-adv-x="367" vert-adv-y="0" 
d="M164 314v264q0 11 -4 15.5t-14 4.5h-12q-41 0 -69 -31t-40 -102l-5 1l17 142h3q2 -5 10 -5h267q7 0 10 5h2l18 -142l-5 -1q-12 71 -40 102t-70 31h-12q-18 0 -17 -20v-264h85v-19h-85v-270q0 -22 48 -20v-5h-135v5q26 0 37 4.5t11 15.5v270h-85v19h85z" />
    <glyph glyph-name="tbar" unicode="&#x167;" horiz-adv-x="208" vert-adv-y="0" 
d="M68 272v188h-48v5q36 0 58.5 26.5t25.5 100.5h4v-125h78v-7h-78v-188h66v-19h-66v-191q0 -50 29 -50q15 0 27 20.5t12 53.5q0 14 -3 34q-2 13 -2 19q0 9 6 9q4 0 7.5 -5.5t3.5 -16.5q0 -64 -18 -96t-46 -32q-24 0 -40 22t-16 60v173h-42v19h42z" />
    <glyph glyph-name="Utilde" unicode="&#x168;" horiz-adv-x="379" vert-adv-y="0" 
d="M156 604v-5q-27 0 -37.5 -4.5t-10.5 -16.5v-466q0 -46 27 -71t66 -25q41 0 72 29t31 79l-7 454q0 12 -10.5 16.5t-37.5 4.5v5h110v-5q-27 0 -37.5 -4.5t-10.5 -16.5v-454q0 -61 -36 -95t-86 -34q-49 0 -85 34t-36 95v454q0 23 -48 21v5h136zM113 648q13 51 52 51
q16 0 38 -16q17 -13 27 -13q26 0 33 29h2q-13 -51 -52 -51q-16 0 -38 16q-17 13 -27 13q-26 0 -33 -29h-2z" />
    <glyph glyph-name="utilde" unicode="&#x169;" horiz-adv-x="339" vert-adv-y="0" 
d="M98 512q13 51 52 51q16 0 38 -16q17 -13 27 -13q26 0 33 29h2q-13 -51 -52 -51q-16 0 -38 16q-17 13 -27 13q-26 0 -33 -29h-2zM108 471v-359q0 -47 14.5 -71t42.5 -24q34 0 55.5 46t21.5 138v200q0 12 -11 16t-37 4v5q29 0 53 13.5t31 31.5h3v-426q0 -23 6.5 -31.5
t31.5 -8.5v-5h-16q-61 0 -61 61v51q-11 -57 -35.5 -85.5t-58.5 -28.5q-36 0 -58 28.5t-22 85.5v289q0 12 -10.5 16t-37.5 4v5q30 0 54 13.5t30 31.5h4z" />
    <glyph glyph-name="Umacron" unicode="&#x16a;" horiz-adv-x="379" vert-adv-y="0" 
d="M156 604v-5q-27 0 -37.5 -4.5t-10.5 -16.5v-466q0 -46 27 -71t66 -25q41 0 72 29t31 79l-7 454q0 12 -10.5 16.5t-37.5 4.5v5h110v-5q-27 0 -37.5 -4.5t-10.5 -16.5v-454q0 -61 -36 -95t-86 -34q-49 0 -85 34t-36 95v454q0 23 -48 21v5h136zM119 673v13h139v-13h-139z
" />
    <glyph glyph-name="umacron" unicode="&#x16b;" horiz-adv-x="339" vert-adv-y="0" 
d="M108 471v-359q0 -47 14.5 -71t42.5 -24q34 0 55.5 46t21.5 138v200q0 12 -11 16t-37 4v5q29 0 53 13.5t31 31.5h3v-426q0 -23 6.5 -31.5t31.5 -8.5v-5h-16q-61 0 -61 61v51q-11 -57 -35.5 -85.5t-58.5 -28.5q-36 0 -58 28.5t-22 85.5v289q0 12 -10.5 16t-37.5 4v5
q30 0 54 13.5t30 31.5h4zM104 537v13h139v-13h-139z" />
    <glyph glyph-name="Ubreve" unicode="&#x16c;" horiz-adv-x="379" vert-adv-y="0" 
d="M156 604v-5q-27 0 -37.5 -4.5t-10.5 -16.5v-466q0 -46 27 -71t66 -25q41 0 72 29t31 79l-7 454q0 12 -10.5 16.5t-37.5 4.5v5h110v-5q-27 0 -37.5 -4.5t-10.5 -16.5v-454q0 -61 -36 -95t-86 -34q-49 0 -85 34t-36 95v454q0 23 -48 21v5h136zM130 708q3 -16 18 -30t41 -14
q25 0 40 14t18 30h2q0 -29 -16.5 -49t-43.5 -20q-28 0 -44.5 20t-16.5 49h2z" />
    <glyph glyph-name="ubreve" unicode="&#x16d;" horiz-adv-x="339" vert-adv-y="0" 
d="M108 471v-359q0 -47 14.5 -71t42.5 -24q34 0 55.5 46t21.5 138v200q0 12 -11 16t-37 4v5q29 0 53 13.5t31 31.5h3v-426q0 -23 6.5 -31.5t31.5 -8.5v-5h-16q-61 0 -61 61v51q-11 -57 -35.5 -85.5t-58.5 -28.5q-36 0 -58 28.5t-22 85.5v289q0 12 -10.5 16t-37.5 4v5
q30 0 54 13.5t30 31.5h4zM115 572q3 -16 18 -30t41 -14q25 0 40 14t18 30h2q0 -29 -16.5 -49t-43.5 -20q-28 0 -44.5 20t-16.5 49h2z" />
    <glyph glyph-name="Uring" unicode="&#x16e;" horiz-adv-x="379" vert-adv-y="0" 
d="M156 604v-5q-27 0 -37.5 -4.5t-10.5 -16.5v-466q0 -46 27 -71t66 -25q41 0 72 29t31 79l-7 454q0 12 -10.5 16.5t-37.5 4.5v5h110v-5q-27 0 -37.5 -4.5t-10.5 -16.5v-454q0 -61 -36 -95t-86 -34q-49 0 -85 34t-36 95v454q0 23 -48 21v5h136zM150 685q0 -16 11 -28
q12 -11 28 -11t27 11q11 12 11 28t-11 28q-12 11 -27 11q-16 0 -27 -11q-12 -12 -12 -28zM137 685q0 22 15 37t36 15q22 0 37 -15t15 -37t-15 -37t-37 -15q-21 0 -36 15t-15 37z" />
    <glyph glyph-name="uring" unicode="&#x16f;" horiz-adv-x="339" vert-adv-y="0" 
d="M108 471v-359q0 -47 14.5 -71t42.5 -24q34 0 55.5 46t21.5 138v200q0 12 -11 16t-37 4v5q29 0 53 13.5t31 31.5h3v-426q0 -23 6.5 -31.5t31.5 -8.5v-5h-16q-61 0 -61 61v51q-11 -57 -35.5 -85.5t-58.5 -28.5q-36 0 -58 28.5t-22 85.5v289q0 12 -10.5 16t-37.5 4v5
q30 0 54 13.5t30 31.5h4zM135 549q0 -16 11 -28q12 -11 28 -11t27 11q11 12 11 28t-11 28q-12 11 -27 11q-16 0 -27 -11q-12 -12 -12 -28zM122 549q0 22 15 37t36 15q22 0 37 -15t15 -37t-15 -37t-37 -15q-21 0 -36 15t-15 37z" />
    <glyph glyph-name="Uhungarumlaut" unicode="&#x170;" horiz-adv-x="379" vert-adv-y="0" 
d="M156 604v-5q-27 0 -37.5 -4.5t-10.5 -16.5v-466q0 -46 27 -71t66 -25q41 0 72 29t31 79l-7 454q0 12 -10.5 16.5t-37.5 4.5v5h110v-5q-27 0 -37.5 -4.5t-10.5 -16.5v-454q0 -61 -36 -95t-86 -34q-49 0 -85 34t-36 95v454q0 23 -48 21v5h136zM170 707q14 14 23 14
q16 0 17 -16q0 -10 -15 -19l-91 -49l-1 2zM239 707q14 14 22 14q16 0 17 -16q0 -10 -14 -19l-91 -49l-1 2z" />
    <glyph glyph-name="uhungarumlaut" unicode="&#x171;" horiz-adv-x="339" vert-adv-y="0" 
d="M108 471v-359q0 -47 14.5 -71t42.5 -24q34 0 55.5 46t21.5 138v200q0 12 -11 16t-37 4v5q29 0 53 13.5t31 31.5h3v-426q0 -23 6.5 -31.5t31.5 -8.5v-5h-16q-61 0 -61 61v51q-11 -57 -35.5 -85.5t-58.5 -28.5q-36 0 -58 28.5t-22 85.5v289q0 12 -10.5 16t-37.5 4v5
q30 0 54 13.5t30 31.5h4zM155 571q14 14 23 14q16 0 17 -16q0 -10 -15 -19l-91 -49l-1 2zM224 571q14 14 22 14q16 0 17 -16q0 -10 -14 -19l-91 -49l-1 2z" />
    <glyph glyph-name="Uogonek" unicode="&#x172;" horiz-adv-x="379" vert-adv-y="0" 
d="M186 -5q-48 1 -83 35t-35 94v454q0 23 -48 21v5h136v-5q-27 0 -37.5 -4.5t-10.5 -16.5v-466q0 -46 27 -71t66 -25q41 0 72 29t31 79l-7 454q0 12 -10.5 16.5t-37.5 4.5v5h110v-5q-27 0 -37.5 -4.5t-10.5 -16.5v-454q0 -60 -36 -94.5t-84 -34.5q-18 -14 -27.5 -34
t-9.5 -40q0 -18 7.5 -28.5t22.5 -10.5q6 0 12 3v-3q-12 -5 -23 -5q-17 0 -28 11t-11 28q0 40 52 79z" />
    <glyph glyph-name="uogonek" unicode="&#x173;" horiz-adv-x="339" vert-adv-y="0" 
d="M236 -39.5q14 21.5 43 42.5q-37 11 -37 58v51q-11 -57 -35.5 -85.5t-58.5 -28.5q-36 0 -58 28.5t-22 85.5v289q0 12 -10.5 16t-37.5 4v5q30 0 54 13.5t30 31.5h4v-359q0 -47 14.5 -71t42.5 -24q34 0 55.5 46t21.5 138v200q0 12 -11 16t-37 4v5q29 0 53 13.5t31 31.5h3
v-426q0 -23 6.5 -31.5t31.5 -8.5v-5h-16q-11 0 -20 2q-20 -13 -30.5 -34.5t-10.5 -42.5q0 -18 7.5 -28.5t22.5 -10.5q6 0 12 3v-3q-12 -5 -23 -5q-17 0 -28 11t-11 28q0 19 14 40.5z" />
    <glyph glyph-name="Wcircumflex" unicode="&#x174;" horiz-adv-x="569" vert-adv-y="0" 
d="M549 603v-4q-26 0 -37.5 -5t-13.5 -16l-135 -584h-3l-75 321l-77 -321h-3l-137 584q-3 12 -12.5 16.5t-35.5 4.5v4h137v-4q-49 0 -49 -17q0 -2 1 -4l115 -488l56 246l-57 242q-3 12 -12.5 16.5t-35.5 4.5v4h137v-4q-49 0 -49 -17q0 -2 1 -4l115 -487l106 487q1 2 1 4
q0 18 -45 17v4h108zM262 708q11 14 23 14t23 -14l51 -68l-1 -2l-73 59l-73 -59l-1 2z" />
    <glyph glyph-name="wcircumflex" unicode="&#x175;" horiz-adv-x="466" vert-adv-y="0" 
d="M249 471l60 -382l77 353v4q0 17 -49 17v4h109v-4q-26 0 -36 -4.5t-12 -16.5l-106 -448h-3l-54 347l-59 -347h-3l-105 448q-3 12 -12.5 16.5t-35.5 4.5v4h137v-4q-49 0 -49 -17q0 -2 1 -4l79 -337l58 366h3zM210 572q11 14 23 14t23 -14l51 -68l-1 -2l-73 59l-73 -59l-1 2
z" />
    <glyph glyph-name="Ycircumflex" unicode="&#x176;" horiz-adv-x="414" vert-adv-y="0" 
d="M394 603v-4q-26 0 -37 -5t-15 -16l-115 -370v-183q0 -22 48 -20v-5h-136v5q27 0 37.5 4.5t10.5 15.5v180l-119 373q-4 12 -13.5 16.5t-34.5 4.5v4h137v-4q-49 0 -49 -16q0 -2 1 -5l114 -358l107 358q1 3 1 5q0 16 -45 16v4h108zM184 708q11 14 23 14t23 -14l51 -68l-1 -2
l-73 59l-73 -59l-1 2z" />
    <glyph glyph-name="ycircumflex" unicode="&#x177;" horiz-adv-x="349" vert-adv-y="0" 
d="M329 467v-4q-25 0 -35 -5t-13 -16l-104 -445q-18 -77 -32 -114t-26.5 -48t-30.5 -11q-26 0 -43 29v118h3q2 -106 46 -106q20 0 37.5 27.5t39.5 111.5l-103 438q-3 11 -12.5 16t-35.5 5v4h137v-4q-49 0 -49 -17q0 -2 1 -4l82 -349l78 349q1 2 1 4q0 17 -49 17v4h108z
M152 572q11 14 23 14t23 -14l51 -68l-1 -2l-73 59l-73 -59l-1 2z" />
    <glyph glyph-name="Ydieresis" unicode="&#x178;" horiz-adv-x="414" vert-adv-y="0" 
d="M394 603v-4q-26 0 -37 -5t-15 -16l-115 -370v-183q0 -22 48 -20v-5h-136v5q27 0 37.5 4.5t10.5 15.5v180l-119 373q-4 12 -13.5 16.5t-34.5 4.5v4h137v-4q-49 0 -49 -16q0 -2 1 -5l114 -358l107 358q1 3 1 5q0 16 -45 16v4h108zM183.5 701q7.5 -8 7.5 -19q0 -10 -7.5 -18
t-18.5 -8t-18.5 8t-7.5 18q0 11 7.5 19t18.5 8t18.5 -8zM267.5 701q7.5 -8 7.5 -19q0 -10 -7.5 -18t-18.5 -8t-18.5 8t-7.5 18q0 11 7.5 19t18.5 8t18.5 -8z" />
    <glyph glyph-name="Zacute" unicode="&#x179;" horiz-adv-x="306" vert-adv-y="0" 
d="M45 608q2 -5 9 -5h227v-4l-217 -593h58q71 0 105.5 28t47.5 99l8 48h3l-23 -186h-3q-2 5 -9 5h-231v5l217 592h-54q-76 0 -109 -26.5t-46 -101.5l-3 1l17 138h3zM161 709q14 14 23 14q16 0 17 -16q0 -10 -15 -19l-91 -49l-1 2z" />
    <glyph glyph-name="zacute" unicode="&#x17a;" horiz-adv-x="264" vert-adv-y="0" 
d="M244 464l-181 -457l81 1q32 0 50.5 13.5t28.5 50t13 106.5h4v-182h-5q-4 4 -11 4h-204v6l182 457l-73 -2q-36 -1 -61 -31.5t-35 -94.5l-4 1l18 136h4q2 -5 9 -5h184v-3zM140 573q14 14 23 14q16 0 17 -16q0 -10 -15 -19l-91 -49l-1 2z" />
    <glyph glyph-name="Zdotaccent" unicode="&#x17b;" horiz-adv-x="306" vert-adv-y="0" 
d="M45 608q2 -5 9 -5h227v-4l-217 -593h58q71 0 105.5 28t47.5 99l8 48h3l-23 -186h-3q-2 5 -9 5h-231v5l217 592h-54q-76 0 -109 -26.5t-46 -101.5l-3 1l17 138h3zM169.5 701q7.5 -8 7.5 -19q0 -10 -7.5 -18t-18.5 -8t-18.5 8t-7.5 18q0 11 7.5 19t18.5 8t18.5 -8z" />
    <glyph glyph-name="zdotaccent" unicode="&#x17c;" horiz-adv-x="264" vert-adv-y="0" 
d="M244 464l-181 -457l81 1q32 0 50.5 13.5t28.5 50t13 106.5h4v-182h-5q-4 4 -11 4h-204v6l182 457l-73 -2q-36 -1 -61 -31.5t-35 -94.5l-4 1l18 136h4q2 -5 9 -5h184v-3zM148.5 565q7.5 -8 7.5 -19q0 -10 -7.5 -18t-18.5 -8t-18.5 8t-7.5 18q0 11 7.5 19t18.5 8t18.5 -8z
" />
    <glyph glyph-name="Zcaron" unicode="&#x17d;" horiz-adv-x="306" vert-adv-y="0" 
d="M45 608q2 -5 9 -5h227v-4l-217 -593h58q71 0 105.5 28t47.5 99l8 48h3l-23 -186h-3q-2 5 -9 5h-231v5l217 592h-54q-76 0 -109 -26.5t-46 -101.5l-3 1l17 138h3zM80 722l73 -59l73 59l1 -2l-51 -68q-11 -14 -23 -14t-23 14l-51 68z" />
    <glyph glyph-name="zcaron" unicode="&#x17e;" horiz-adv-x="264" vert-adv-y="0" 
d="M244 464l-181 -457l81 1q32 0 50.5 13.5t28.5 50t13 106.5h4v-182h-5q-4 4 -11 4h-204v6l182 457l-73 -2q-36 -1 -61 -31.5t-35 -94.5l-4 1l18 136h4q2 -5 9 -5h184v-3zM59 586l73 -59l73 59l1 -2l-51 -68q-11 -14 -23 -14t-23 14l-51 68z" />
    <glyph glyph-name="longs" unicode="&#x17f;" horiz-adv-x="202" vert-adv-y="0" 
d="M182 640q-37 0 -55.5 -26.5t-18.5 -88.5v-500q0 -22 48 -20v-5h-136v5q27 0 37.5 4.5t10.5 15.5v444q0 178 114 178v-7z" />
    <glyph glyph-name="uni0237" unicode="&#x237;" horiz-adv-x="147" vert-adv-y="0" 
d="M127 474v-447q0 -58 -29 -109.5t-76 -92.5l-2 3q38 39 52.5 75t14.5 90v411q0 12 -10.5 16t-37.5 4v5q30 0 54 13.5t30 31.5h4z" />
    <glyph glyph-name="circumflex" unicode="&#x2c6;" horiz-adv-x="188" vert-adv-y="0" 
d="M71 572q11 14 23 14t23 -14l51 -68l-1 -2l-73 59l-73 -59l-1 2z" />
    <glyph glyph-name="caron" unicode="&#x2c7;" horiz-adv-x="188" vert-adv-y="0" 
d="M21 586l73 -59l73 59l1 -2l-51 -68q-11 -14 -23 -14t-23 14l-51 68z" />
    <glyph glyph-name="uni02C9" unicode="&#x2c9;" horiz-adv-x="179" vert-adv-y="0" 
d="M20 537v13h139v-13h-139z" />
    <glyph glyph-name="uni02CA" unicode="&#x2ca;" horiz-adv-x="147" vert-adv-y="0" 
d="M87 573q14 14 23 14q16 0 17 -16q0 -10 -15 -19l-91 -49l-1 2z" />
    <glyph glyph-name="uni02CB" unicode="&#x2cb;" horiz-adv-x="147" vert-adv-y="0" 
d="M125 503l-91 49q-14 9 -14 19q0 7 4.5 11.5t12.5 4.5q9 0 22 -14l68 -68z" />
    <glyph glyph-name="breve" unicode="&#x2d8;" horiz-adv-x="161" vert-adv-y="0" 
d="M22 572q3 -16 18 -30t41 -14q25 0 40 14t18 30h2q0 -29 -16.5 -49t-43.5 -20q-28 0 -44.5 20t-16.5 49h2z" />
    <glyph glyph-name="dotaccent" unicode="&#x2d9;" horiz-adv-x="92" vert-adv-y="0" 
d="M64.5 565q7.5 -8 7.5 -19q0 -10 -7.5 -18t-18.5 -8t-18.5 8t-7.5 18q0 11 7.5 19t18.5 8t18.5 -8z" />
    <glyph glyph-name="ring" unicode="&#x2da;" horiz-adv-x="143" vert-adv-y="0" 
d="M33 549q0 -16 11 -28q12 -11 28 -11t27 11q11 12 11 28t-11 28q-12 11 -27 11q-16 0 -27 -11q-12 -12 -12 -28zM20 549q0 22 15 37t36 15q22 0 37 -15t15 -37t-15 -37t-37 -15q-21 0 -36 15t-15 37z" />
    <glyph glyph-name="ogonek" unicode="&#x2db;" horiz-adv-x="108" vert-adv-y="0" 
d="M88 2q-24 -13 -36 -35.5t-12 -45.5q0 -18 7.5 -28.5t22.5 -10.5q6 0 12 3v-3q-12 -5 -23 -5q-17 0 -28 11t-11 28q0 20 15 42.5t47 43.5h6z" />
    <glyph glyph-name="tilde" unicode="&#x2dc;" horiz-adv-x="192" vert-adv-y="0" 
d="M20 512q13 51 52 51q16 0 38 -16q17 -13 27 -13q26 0 33 29h2q-13 -51 -52 -51q-16 0 -38 16q-17 13 -27 13q-26 0 -33 -29h-2z" />
    <glyph glyph-name="hungarumlaut" unicode="&#x2dd;" horiz-adv-x="215" vert-adv-y="0" 
d="M87 573q14 14 23 14q16 0 17 -16q0 -10 -15 -19l-91 -49l-1 2zM156 573q14 14 22 14q16 0 17 -16q0 -10 -14 -19l-91 -49l-1 2z" />
    <glyph glyph-name="gravecomb" unicode="&#x300;" horiz-adv-x="147" vert-adv-y="0" 
d="M125 503l-91 49q-14 9 -14 19q0 7 4.5 11.5t12.5 4.5q9 0 22 -14l68 -68z" />
    <glyph glyph-name="acutecomb" unicode="&#x301;" horiz-adv-x="147" vert-adv-y="0" 
d="M87 573q14 14 23 14q16 0 17 -16q0 -10 -15 -19l-91 -49l-1 2z" />
    <glyph glyph-name="uni0302" unicode="&#x302;" horiz-adv-x="188" vert-adv-y="0" 
d="M71 572q11 14 23 14t23 -14l51 -68l-1 -2l-73 59l-73 -59l-1 2z" />
    <glyph glyph-name="tildecomb" unicode="&#x303;" horiz-adv-x="192" vert-adv-y="0" 
d="M20 512q13 51 52 51q16 0 38 -16q17 -13 27 -13q26 0 33 29h2q-13 -51 -52 -51q-16 0 -38 16q-17 13 -27 13q-26 0 -33 -29h-2z" />
    <glyph glyph-name="uni0304" unicode="&#x304;" horiz-adv-x="179" vert-adv-y="0" 
d="M20 537v13h139v-13h-139z" />
    <glyph glyph-name="uni0306" unicode="&#x306;" horiz-adv-x="161" vert-adv-y="0" 
d="M22 572q3 -16 18 -30t41 -14q25 0 40 14t18 30h2q0 -29 -16.5 -49t-43.5 -20q-28 0 -44.5 20t-16.5 49h2z" />
    <glyph glyph-name="uni0307" unicode="&#x307;" horiz-adv-x="92" vert-adv-y="0" 
d="M64.5 565q7.5 -8 7.5 -19q0 -10 -7.5 -18t-18.5 -8t-18.5 8t-7.5 18q0 11 7.5 19t18.5 8t18.5 -8z" />
    <glyph glyph-name="uni0308" unicode="&#x308;" vert-adv-y="0" 
d="M64.5 565q7.5 -8 7.5 -19q0 -10 -7.5 -18t-18.5 -8t-18.5 8t-7.5 18q0 11 7.5 19t18.5 8t18.5 -8zM148.5 565q7.5 -8 7.5 -19q0 -10 -7.5 -18t-18.5 -8t-18.5 8t-7.5 18q0 11 7.5 19t18.5 8t18.5 -8z" />
    <glyph glyph-name="uni030A" unicode="&#x30a;" horiz-adv-x="143" vert-adv-y="0" 
d="M33 549q0 -16 11 -28q12 -11 28 -11t27 11q11 12 11 28t-11 28q-12 11 -27 11q-16 0 -27 -11q-12 -12 -12 -28zM20 549q0 22 15 37t36 15q22 0 37 -15t15 -37t-15 -37t-37 -15q-21 0 -36 15t-15 37z" />
    <glyph glyph-name="uni030B" unicode="&#x30b;" horiz-adv-x="215" vert-adv-y="0" 
d="M87 573q14 14 23 14q16 0 17 -16q0 -10 -15 -19l-91 -49l-1 2zM156 573q14 14 22 14q16 0 17 -16q0 -10 -14 -19l-91 -49l-1 2z" />
    <glyph glyph-name="uni030C" unicode="&#x30c;" horiz-adv-x="188" vert-adv-y="0" 
d="M21 586l73 -59l73 59l1 -2l-51 -68q-11 -14 -23 -14t-23 14l-51 68z" />
    <glyph glyph-name="uni0312" unicode="&#x312;" horiz-adv-x="103" vert-adv-y="0" 
d="M69 499.5q-6 -5.5 -15 -5.5q-20 0 -29 16q-5 10 -5 25q0 28 16 55t47 32v-4q-20 -5 -30 -17.5t-10 -27.5q0 -11 5 -19.5t15 -18.5q12 -13 12 -20q0 -10 -6 -15.5z" />
    <glyph glyph-name="uni0315" unicode="&#x315;" horiz-adv-x="107" vert-adv-y="0" 
d="M37.5 601.5q5.5 5.5 14.5 5.5q17 0 26 -11t9 -30q0 -25 -16.5 -56.5t-47.5 -60.5l-3 4q44 45 44 75q0 11 -5.5 19.5t-14.5 18.5q-12 13 -12 20q0 10 5.5 15.5z" />
    <glyph glyph-name="uni0326" unicode="&#x326;" horiz-adv-x="103" vert-adv-y="0" 
d="M34 -26.5q6 5.5 15 5.5q20 0 29 -17q5 -10 5 -24q0 -28 -16 -55t-47 -32v4q21 5 30.5 17.5t9.5 27.5q0 11 -5 19.5t-15 18.5q-12 13 -12 20q0 10 6 15.5z" />
    <glyph glyph-name="uni0327" unicode="&#x327;" horiz-adv-x="112" vert-adv-y="0" 
d="M63 2l-3 -4l-2 -4l-1 -2l-2 -4q18 -2 27.5 -14t9.5 -29q0 -23 -19 -42.5t-53 -23.5v3q24 1 39 16.5t15 34.5q0 14 -10 23.5t-30 9.5l22 36h7z" />
    <glyph glyph-name="uni0328" unicode="&#x328;" horiz-adv-x="108" vert-adv-y="0" 
d="M88 2q-24 -13 -36 -35.5t-12 -45.5q0 -18 7.5 -28.5t22.5 -10.5q6 0 12 3v-3q-12 -5 -23 -5q-17 0 -28 11t-11 28q0 20 15 42.5t47 43.5h6z" />
    <glyph glyph-name="endash" unicode="&#x2013;" horiz-adv-x="526" vert-adv-y="0" 
d="M20 225v18h486v-18h-486z" />
    <glyph glyph-name="emdash" unicode="&#x2014;" horiz-adv-x="1040" vert-adv-y="0" 
d="M20 225v18h1000v-18h-1000z" />
    <glyph glyph-name="quoteleft" unicode="&#x2018;" horiz-adv-x="107" vert-adv-y="0" 
d="M69 454.5q-6 -5.5 -15 -5.5q-16 0 -25 11t-9 30q0 25 16 56.5t47 60.5l4 -4q-44 -45 -44 -75q0 -11 5 -19.5t15 -18.5q12 -13 12 -20q0 -10 -6 -15.5z" />
    <glyph glyph-name="quoteright" unicode="&#x2019;" horiz-adv-x="107" vert-adv-y="0" 
d="M37.5 601.5q5.5 5.5 14.5 5.5q17 0 26 -11t9 -30q0 -25 -16.5 -56.5t-47.5 -60.5l-3 4q44 45 44 75q0 11 -5.5 19.5t-14.5 18.5q-12 13 -12 20q0 10 5.5 15.5z" />
    <glyph glyph-name="quotesinglbase" unicode="&#x201a;" horiz-adv-x="107" vert-adv-y="0" 
d="M37.5 43.5q5.5 5.5 14.5 5.5q21 0 29 -17q6 -10 6 -24q0 -25 -16.5 -56.5t-47.5 -60.5l-3 4q44 45 44 75q0 11 -5.5 19.5t-14.5 18.5q-12 13 -12 20q0 10 5.5 15.5z" />
    <glyph glyph-name="quotedblleft" unicode="&#x201c;" horiz-adv-x="174" vert-adv-y="0" 
d="M136 454.5q-6 -5.5 -15 -5.5q-16 0 -25 11t-9 30q0 25 16 56.5t47 60.5l4 -4q-44 -45 -44 -75q0 -11 5 -19.5t15 -18.5q12 -13 12 -20q0 -10 -6 -15.5zM69 454.5q-6 -5.5 -15 -5.5q-16 0 -25 11t-9 30q0 25 16 56.5t47 60.5l4 -4q-44 -45 -44 -75q0 -11 5 -19.5t15 -18.5
q12 -13 12 -20q0 -10 -6 -15.5z" />
    <glyph glyph-name="quotedblright" unicode="&#x201d;" horiz-adv-x="174" vert-adv-y="0" 
d="M37.5 601.5q5.5 5.5 14.5 5.5q17 0 26 -11t9 -30q0 -25 -16.5 -56.5t-47.5 -60.5l-3 4q44 45 44 75q0 11 -5.5 19.5t-14.5 18.5q-12 13 -12 20q0 10 5.5 15.5zM104 601.5q6 5.5 15 5.5q17 0 26 -11t9 -30q0 -25 -16.5 -56.5t-47.5 -60.5l-3 4q43 45 43 75q0 11 -5 19.5
t-14 18.5q-13 13 -13 20q0 10 6 15.5z" />
    <glyph glyph-name="quotedblbase" unicode="&#x201e;" horiz-adv-x="173" vert-adv-y="0" 
d="M37.5 43.5q5.5 5.5 14.5 5.5q21 0 29 -17q6 -10 6 -24q0 -25 -16.5 -56.5t-47.5 -60.5l-3 4q44 45 44 75q0 11 -5.5 19.5t-14.5 18.5q-12 13 -12 20q0 10 5.5 15.5zM103.5 43.5q5.5 5.5 14.5 5.5q21 0 29 -17q6 -10 6 -24q0 -25 -16.5 -56.5t-47.5 -60.5l-3 4
q44 45 44 75q0 11 -5.5 19.5t-14.5 18.5q-12 13 -12 20q0 10 5.5 15.5z" />
    <glyph glyph-name="dagger" unicode="&#x2020;" horiz-adv-x="374" vert-adv-y="0" 
d="M184 449q-6 36 -27 89q-11 26 -11 33q0 41 41 41q40 0 40 -38q0 -9 -12 -40q-19 -51 -25 -85q37 5 89 27q27 10 33 10q42 0 42 -40q0 -41 -38 -41q-9 0 -41 12q-51 19 -85 26q4 -126 17 -276q10 -107 10 -162q0 -21 -9 -33t-21 -12t-21 12t-9 33q0 55 10 163
q13 150 17 275q-38 -7 -89 -27q-26 -11 -34 -11q-41 0 -41 41q0 40 38 40q9 0 39 -12q52 -19 87 -25z" />
    <glyph glyph-name="daggerdbl" unicode="&#x2021;" horiz-adv-x="374" vert-adv-y="0" 
d="M227 575q0 -9 -12 -41q-19 -51 -25 -85q37 6 89 27q27 10 33 10q42 0 42 -40q0 -41 -38 -41q-9 0 -41 12q-51 20 -85 26q5 -54 16 -105.5l11 -51.5l-11 -51.5t-16 -104.5q38 6 89 27q26 10 34 10q41 0 41 -40q0 -41 -38 -41q-9 0 -39 12q-52 20 -87 26q6 -37 27 -90
q11 -26 11 -33q0 -41 -41 -41q-40 0 -40 38q0 9 12 40q19 52 25 86q-37 -6 -89 -27q-26 -11 -33 -11q-42 0 -42 41q0 40 38 40q9 0 41 -12q51 -19 85 -25q-5 53 -16 104.5l-11 51.5l11 51.5t16 105.5q-38 -6 -89 -27q-26 -11 -34 -11q-41 0 -41 41q0 40 38 40q9 0 39 -11
q52 -20 87 -26q-6 36 -27 89q-11 27 -11 33q0 42 41 42q40 0 40 -38z" />
    <glyph glyph-name="bullet" unicode="&#x2022;" horiz-adv-x="329" vert-adv-y="0" 
d="M20 351q0 60 42 102q43 42 103 42t102 -43q42 -42 42 -101q0 -60 -43 -103q-42 -42 -102 -42t-102 42q-42 43 -42 103z" />
    <glyph glyph-name="ellipsis" unicode="&#x2026;" horiz-adv-x="329" vert-adv-y="0" 
d="M64.5 6.5q-7.5 -7.5 -18.5 -7.5t-18.5 7.5t-7.5 18.5t7.5 18.5t18.5 7.5t18.5 -7.5t7.5 -18.5t-7.5 -18.5zM178.5 6.5q-7.5 -7.5 -18.5 -7.5t-18.5 7.5t-7.5 18.5t7.5 18.5t18.5 7.5t18.5 -7.5t7.5 -18.5t-7.5 -18.5zM301.5 6.5q-7.5 -7.5 -18.5 -7.5t-18.5 7.5
t-7.5 18.5t7.5 18.5t18.5 7.5t18.5 -7.5t7.5 -18.5t-7.5 -18.5z" />
    <glyph glyph-name="guilsinglleft" unicode="&#x2039;" horiz-adv-x="178" vert-adv-y="0" 
d="M158 417l-93 -197l93 -197l-3 -3l-135 200l135 200z" />
    <glyph glyph-name="guilsinglright" unicode="&#x203a;" horiz-adv-x="178" vert-adv-y="0" 
d="M158 220l-135 -200l-3 3l93 197l-93 197l3 3z" />
    <glyph glyph-name="fraction" unicode="&#x2044;" horiz-adv-x="307" vert-adv-y="0" 
d="M287 609l-248 -612h-19l249 612h18z" />
    <glyph glyph-name="fraction" unicode="&#x2215;" horiz-adv-x="307" vert-adv-y="0" 
d="M287 609l-248 -612h-19l249 612h18z" />
    <glyph glyph-name="franc" unicode="&#x20a3;" horiz-adv-x="326" vert-adv-y="0" 
d="M108 157v-132q0 -22 48 -20v-5h-136v5q27 0 37.5 4.5t10.5 15.5v132h-43v18h43v403q0 23 -48 21v4h257q7 0 9 5h3l17 -142l-3 -1q-14 76 -45 104.5t-106 28.5h-27q-18 0 -17 -20v-238h43q31 0 42.5 26.5t14.5 68.5h3v-196h-3q-4 43 -15 69t-42 26h-43v-159h103v-18h-103z
" />
    <glyph glyph-name="lira" unicode="&#x20a4;" horiz-adv-x="336" vert-adv-y="0" 
d="M89 251q-3 13 -7 26h-48v14h45q-24 86 -24 155v1q0 73 40 116.5t94 43.5q44 0 73 -29.5t29 -87.5q0 -27 -16 -27q-10 0 -10 17q0 5 3 19q5 20 5 29q0 33 -22.5 51.5t-53.5 18.5q-45 0 -74 -36t-29 -106q0 -67 27 -165h96v-14h-92q4 -14 6 -26h86v-14h-83q7 -34 7 -57
q0 -41 -17 -81t-51 -66v-2h141q47 0 65 30t34 120h3l-23 -186h-3q-2 5 -9 5h-261v5q82 41 82 153q0 30 -10 79h-58v14h55z" />
    <glyph glyph-name="peseta" unicode="&#x20a7;" horiz-adv-x="814" vert-adv-y="0" 
d="M142 603q121 0 185.5 -54.5t64.5 -152.5t-64.5 -152.5t-185.5 -54.5h-17v5h17q105 0 157.5 55t52.5 147t-52.5 147t-157.5 55h-17q-18 0 -17 -20v-553q0 -22 48 -20v-5h-136v5q27 0 37.5 4.5t10.5 15.5v553q0 23 -48 21v4h122zM493 592v-125h78v-7h-78v-398q0 -50 29 -50
q15 0 27 20.5t12 53.5q0 14 -3 34q-2 13 -2 19q0 9 6 9q4 0 7.5 -5.5t3.5 -16.5q0 -64 -18 -96t-46 -32q-24 0 -40 22t-16 60v380h-48v5q36 0 58.5 26.5t25.5 100.5h4zM743.5 29.5q18.5 24.5 18.5 73.5q0 44 -22.5 77.5t-65.5 77.5q-39 40 -58 68t-19 63q0 31 20.5 56
t61.5 25q19 0 49 -7q17 -4 23 -4q12 0 15 11h3l18 -134h-1v0h-1h-1v-1q-14 69 -38 99.5t-67 30.5q-25 0 -41.5 -16t-16.5 -45q0 -28 18.5 -53.5t56.5 -63.5q48 -48 73 -85t25 -84q0 -54 -27 -86.5t-73 -32.5q-51 0 -86 43q-4 6 -7 6q-2 0 -3 -8l-3 -41h-5v179h3
q9 -93 37 -133t64 -40q31 0 49.5 24.5z" />
    <glyph glyph-name="Euro" unicode="&#x20ac;" horiz-adv-x="628" vert-adv-y="0" 
d="M107 266q7 -84 45 -143t94.5 -88.5t119.5 -29.5q100 0 163.5 64.5t63.5 184.5q0 15 8 15q7 0 7 -15q0 -118 -74 -188.5t-179 -70.5t-191 70.5t-97 200.5h-47l7 18h38v33h-45l7 18h40q10 121 88 197t198 76q66 0 110 -15t88 -44q4 -2 6 -2q5 0 5 7v1l-2 53h4l23 -186
l-4 -1q-18 85 -79 133.5t-144 48.5q-63 0 -118.5 -29t-92 -89t-42.5 -150h363l-7 -18h-357v-33h347l-7 -18h-339z" />
    <glyph glyph-name="uni2116" unicode="&#x2116;" horiz-adv-x="614" vert-adv-y="0" 
d="M103 603l204 -496l-5 471q0 11 -11 16t-37 5v4h109v-4q-27 0 -37.5 -5t-10.5 -16v-584h-4l-236 574l6 -543q0 -11 11 -15.5t37 -4.5v-5h-109v5q27 0 37.5 4.5t10.5 15.5v553q0 23 -48 21v4h83zM569 534q25 -74 25 -162t-25 -161.5t-88 -73.5q-62 0 -87 73.5t-25 161.5
q0 89 25 162.5t87 73.5q63 0 88 -74zM419.5 538q-10.5 -62 -10.5 -165q0 -78 22 -153.5t63 -75.5q39 0 49.5 62.5t10.5 165.5q0 78 -22.5 153t-63.5 75q-38 0 -48.5 -62zM502.5 6.5q-7.5 -7.5 -18.5 -7.5t-18.5 7.5t-7.5 18.5t7.5 18.5t18.5 7.5t18.5 -7.5t7.5 -18.5
t-7.5 -18.5z" />
    <glyph glyph-name="trademark" unicode="&#x2122;" horiz-adv-x="337" vert-adv-y="0" 
d="M76 627q0 8 -7 8h-6q-32 0 -41 -52h-2l7 57h3q1 -2 4 -2h100q3 0 4 2h3l7 -57h-2q-9 52 -43 52h-7q-4 0 -4 -8v-214q0 -8 18 -8v-3h-53v3q19 0 19 8v214zM188 640l48 -201l46 201h35v-3q-19 0 -19 -8v-214q0 -8 19 -8v-3h-53v3q19 0 19 8v205l-52 -218h-1l-53 218l1 -205
q0 -8 19 -8v-3h-43v3q19 0 19 8v214q0 8 -19 8v3h34z" />
    <glyph glyph-name="partialdiff" unicode="&#x2202;" horiz-adv-x="350" vert-adv-y="0" 
d="M121.5 311.5q-48.5 -58.5 -63.5 -141.5q-5 -28 -5 -54q0 -49 19.5 -79.5t60.5 -30.5q57 0 97 56.5t56 144.5q7 43 7 88q0 110 -44.5 197.5t-131.5 114.5l2 5q105 -30 158 -119t53 -200q0 -38 -7 -76q-16 -93 -67 -155t-124 -62q-55 0 -83.5 37.5t-28.5 96.5q0 23 4 46
q15 82 72 139t154 57l-1 -6q-79 0 -127.5 -58.5z" />
    <glyph glyph-name="Delta" unicode="&#x2206;" horiz-adv-x="495" vert-adv-y="0" 
d="M233 533l-187 -494h369zM251 611l224 -611h-455z" />
    <glyph glyph-name="product" unicode="&#x220f;" horiz-adv-x="384" vert-adv-y="0" 
d="M248 699h-112q-28 0 -28 -21v-753q0 -22 48 -20v-5h-136v5q27 0 37.5 4.5t10.5 15.5v753q0 23 -48 21v4h344v-4q-27 0 -37.5 -4.5t-10.5 -16.5v-753q0 -22 48 -20v-5h-136v5q27 0 37.5 4.5t10.5 15.5v753q0 21 -28 21z" />
    <glyph glyph-name="summation" unicode="&#x2211;" horiz-adv-x="336" vert-adv-y="0" 
d="M289 658l17 -143h-3q-14 76 -45 104t-106 28h-27q-19 0 -19 -12q0 -3 2 -7l100 -303l-100 -340q-1 -4 -1 -6q0 -13 18 -13h27q76 0 108 26t45 101l8 49l3 -1l-23 -186h-3q-2 5 -9 5h-261v5q26 0 35.5 4.5t12.5 15.5l100 340l-100 303q-4 12 -13.5 16.5t-34.5 4.5v4h257
q7 0 9 5h3z" />
    <glyph glyph-name="minus" unicode="&#x2212;" horiz-adv-x="446" vert-adv-y="0" 
d="M20 254v18h406v-18h-406z" />
    <glyph glyph-name="radical" unicode="&#x221a;" horiz-adv-x="435" vert-adv-y="0" 
d="M87 -5l-67 244h26l15 -87l16 -87l270 592h68v-7h-35z" />
    <glyph glyph-name="infinity" unicode="&#x221e;" horiz-adv-x="634" vert-adv-y="0" 
d="M312 333q46 61 86 95.5t88 34.5q61 0 94.5 -44.5t33.5 -105.5q0 -60 -32.5 -104t-89.5 -44q-98 0 -170 130q-45 -61 -85 -95.5t-88 -34.5q-61 0 -95 44.5t-34 105.5q0 60 32.5 104t89.5 44q99 0 170 -130zM62.5 416.5q-28.5 -39.5 -28.5 -92.5q0 -52 28 -89.5t79 -37.5
q48 0 81.5 29t76.5 89q5 6 7 10q-71 131 -164 131q-51 0 -79.5 -39.5zM573 394q-28 38 -79 38q-49 0 -82 -29.5t-76 -89.5q-5 -6 -8 -10q72 -131 164 -131q51 0 80 39.5t29 92.5q0 52 -28 90z" />
    <glyph glyph-name="integral" unicode="&#x222b;" horiz-adv-x="318" vert-adv-y="0" 
d="M289 679q9 -8 9 -18q0 -8 -5 -13t-13 -5t-21 7q-16 8 -27 8q-24 0 -38.5 -25t-14.5 -72v-468q0 -56 -19 -95.5t-47.5 -58.5t-55.5 -19q-18 0 -27.5 8t-9.5 18q0 8 5 13t14 5q7 0 20 -7q16 -8 27 -8q25 0 39.5 25t14.5 72v468q0 56 19 95.5t47 58.5t56 19q18 0 27 -8z" />
    <glyph glyph-name="approxequal" unicode="&#x2248;" horiz-adv-x="434" vert-adv-y="0" 
d="M20 307q6 29 29 45.5t59 16.5q27 0 55 -6t69 -18q72 -20 101 -20q50 0 71 44h10q-6 -29 -29 -45.5t-59 -16.5q-27 0 -55 6t-69 18q-71 20 -101 20q-50 0 -71 -44h-10zM20 167q6 28 29 44.5t59 16.5q27 0 55 -6t69 -17q72 -20 101 -20q50 0 71 43h10q-6 -28 -29 -44.5
t-59 -16.5q-27 0 -55 6t-69 18q-71 20 -101 20q-50 0 -71 -44h-10z" />
    <glyph glyph-name="notequal" unicode="&#x2260;" horiz-adv-x="446" vert-adv-y="0" 
d="M182 187h-162v18h169l50 122h-219v18h226l92 227h19l-92 -227h161v-18h-169l-49 -122h218v-18h-226l-92 -227h-19z" />
    <glyph glyph-name="lessequal" unicode="&#x2264;" horiz-adv-x="450" vert-adv-y="0" 
d="M20 261v20l410 185v-22l-384 -174l384 -174v-22zM427 55v-18h-403v18h403z" />
    <glyph glyph-name="greaterequal" unicode="&#x2265;" horiz-adv-x="450" vert-adv-y="0" 
d="M20 96l384 174l-384 174v22l410 -185v-20l-410 -187v22zM427 37h-403v18h403v-18z" />
    <glyph glyph-name="a_g.dlig" unicode="&#xe0f0;" horiz-adv-x="581" vert-adv-y="0" 
d="M72 471q5 -16 15 -16q5 0 19 5q32 10 58 10q36 0 60 -29.5t24 -84.5v-324q0 -103 36 -150.5t94 -47.5q54 0 97 34.5t44 82.5q0 24 -19 36.5t-68 12.5h-2q-58 0 -84.5 13.5t-37.5 43.5l49 93q-26 20 -37.5 61.5t-11.5 90.5q0 69 22.5 118t72.5 49q57 0 81 -67
q3 35 14.5 51.5t25.5 16.5q15 0 26 -14t11 -35q0 -13 -6 -20t-14 -7t-13.5 7t-5.5 20q0 35 -11 35q-8 0 -15 -19.5t-7 -51.5q9 -36 9 -83q0 -69 -22 -118t-73 -49q-23 0 -42 12l-16 -33q-6 -14 -6 -27q0 -20 18.5 -33t56.5 -14q65 -2 89.5 -19.5t24.5 -53.5
q0 -61 -48.5 -102t-111.5 -41t-104.5 51t-47.5 160l-7 132q-15 -82 -52 -125.5t-76 -43.5q-26 0 -43.5 21t-17.5 58t20.5 64.5t63.5 65.5q52 46 78.5 83.5t26.5 92.5q0 81 -51 81q-30 0 -58.5 -29t-43.5 -100l-3 1l17 135h2zM356 427q-9 -37 -9 -112q0 -65 19.5 -120
t49.5 -55q27 0 35.5 36t8.5 113q0 66 -19 120.5t-50 54.5q-26 0 -35 -37zM209 333q-9 -33 -27 -56.5t-49 -53.5q-37 -37 -55 -65t-18 -70q0 -31 12.5 -48.5t32.5 -17.5q24 0 48 26t40 78.5t16 128.5v78z" />
    <glyph glyph-name="c_h.dlig" unicode="&#xe0f1;" horiz-adv-x="586" vert-adv-y="0" 
d="M344 649v-294q11 58 35.5 86t57.5 28q37 0 59 -28.5t22 -85.5v-330q0 -22 48 -20v-5h-136v5q27 0 37.5 4.5t10.5 15.5v330q0 47 -14.5 71.5t-42.5 24.5q-34 0 -55.5 -46t-21.5 -139v-241q0 -22 48 -20v-5h-136v5q27 0 38 4.5t11 15.5v134q-19 -77 -59 -119.5t-90 -42.5
h-1q-57 0 -96 60.5t-39 176.5q0 103 30 169t94 66q20 0 49 -8q17 -4 23 -4q12 0 16 14h2l17 -135l-4 -1q-13 65 -40.5 97.5t-63.5 32.5q-39 0 -61 -52t-22 -179q0 -75 15.5 -125t41.5 -74t57 -24q44 0 80 47.5t51 129.5v391q0 12 -11 16t-38 4v5q30 0 54 13t31 32h3z" />
    <glyph glyph-name="c_k.dlig" unicode="&#xe0f2;" horiz-adv-x="599" vert-adv-y="0" 
d="M346 649v-377q15 94 60 146t96 52q19 0 28.5 -7t9.5 -15q0 -7 -5.5 -11.5t-14.5 -4.5q-11 0 -29 7q-16 7 -26 7q-19 0 -42 -20t-42.5 -60t-28.5 -97q10 24 26.5 36t35.5 12q23 0 42.5 -17.5t26.5 -46.5l48 -198q12 -52 48 -63l-1 -2q-74 14 -90 77l-46 187
q-6 22 -18.5 35.5t-27.5 13.5q-18 0 -31 -18.5t-18 -55.5q-1 -21 -1 -42v-161q0 -23 48 -21v-5h-136v5q27 0 37.5 4.5t10.5 16.5v141q-18 -80 -58 -125t-92 -45h-1q-57 0 -96 60.5t-39 176.5q0 103 30 169t94 66q20 0 49 -8q17 -4 23 -4q12 0 16 15h2l17 -136l-4 -1
q-13 65 -40.5 97.5t-63.5 32.5q-39 0 -61 -52t-22 -179q0 -75 15.5 -125t41.5 -74t57 -24q46 0 82.5 50.5t49.5 137.5v380q0 12 -10.5 16t-37.5 4v5q30 0 54 13.5t31 31.5h3z" />
    <glyph glyph-name="e_h.dlig" unicode="&#xe0f3;" horiz-adv-x="595" vert-adv-y="0" 
d="M353 649v-294q11 58 35.5 86t57.5 28q37 0 59 -28.5t22 -85.5v-330q0 -22 48 -20v-5h-136v5q27 0 37.5 4.5t10.5 15.5v330q0 47 -14.5 71.5t-42.5 24.5q-34 0 -55.5 -46t-21.5 -139v-241q0 -22 48 -20v-5h-136v5q27 0 38 4.5t11 15.5v133q-22 -75 -65.5 -118t-94.5 -43
q-38 0 -69.5 27.5t-48.5 81.5q-16 59 -16 128q0 61 11 114t37 87t71 34q25 0 45 -14.5t32 -37.5l35 53l3 -3l-188 -322q3 -15 6 -29q15 -52 41.5 -78.5t59.5 -26.5q44 0 83.5 46.5t57.5 125.5v396q0 12 -11 16t-38 4v5q30 0 54 13t31 32h3zM82.5 412.5
q-22.5 -52.5 -22.5 -178.5q0 -43 5 -80l92 160q24 43 24 87q0 28 -11 46t-31 18q-34 0 -56.5 -52.5z" />
    <glyph glyph-name="e_k.dlig" unicode="&#xe0f4;" horiz-adv-x="607" vert-adv-y="0" 
d="M354 649v-377q16 94 60.5 146t95.5 52q19 0 29 -7t10 -15q0 -7 -5.5 -11.5t-15.5 -4.5q-11 0 -28 7t-26 7q-19 0 -42 -20t-43 -60t-29 -97q10 24 26.5 36t35.5 12q23 0 43 -17.5t27 -46.5l47 -198q13 -52 48 -63v-2q-75 14 -91 77l-46 187q-5 22 -18 35.5t-28 13.5
q-17 0 -30.5 -18.5t-17.5 -55.5q-2 -21 -2 -42v-161q0 -23 48 -21v-5h-135v5q26 0 37 4.5t11 16.5v137q-21 -78 -65 -122t-96 -44q-38 0 -69.5 27.5t-48.5 81.5q-16 59 -16 128q0 61 11 114t37 87t71 34q25 0 45 -14.5t32 -37.5l35 53l3 -2l-188 -323q3 -15 6 -29
q15 -52 41.5 -78.5t59.5 -26.5q45 0 85 48.5t57 129.5v390q0 12 -10.5 16t-37.5 4v5q29 0 53 13.5t31 31.5h3zM82.5 412.5q-22.5 -52.5 -22.5 -178.5q0 -43 5 -80l92 160q24 43 24 87q0 28 -11 46t-31 18q-34 0 -56.5 -52.5z" />
    <glyph glyph-name="g_y.dlig" unicode="&#xe0f5;" horiz-adv-x="544" vert-adv-y="0" 
d="M300.5 466q13.5 -14 13.5 -35q0 -13 -6.5 -20t-14.5 -7t-14 7t-6 20q0 35 -16 35q-13 0 -24 -19.5t-16 -61.5q10 -36 10 -83q0 -69 -22 -118t-73 -49q-24 0 -42 12l-16 -33q-7 -14 -7 -27q0 -20 18.5 -33t56.5 -14q66 -2 90 -19.5t24 -53.5q0 -21 -12 -45t-29 -41
q-5 -4 -9 -4q-5 0 -5 5q0 4 5 8q17 11 29.5 29.5t12.5 34.5v1q0 22 -19.5 33.5t-68.5 11.5h-1q-59 0 -85.5 13.5t-37.5 43.5l49 93q-25 20 -36.5 61.5t-11.5 90.5q0 69 22 118t73 49q56 0 80 -67q6 40 20.5 59t34.5 19t33.5 -14zM524 467v-4q-25 0 -35 -5t-13 -16l-103 -440
q-9 -39 -41.5 -80.5t-87.5 -69.5t-128 -28q-45 0 -70.5 22.5t-25.5 62.5q0 43 30 98q4 6 8 6q5 0 5 -5q0 -3 -2 -6q-33 -43 -33 -78q0 -31 25.5 -49t71.5 -18q91 0 156 35.5t85 111.5l-85 362q-3 11 -11.5 15.5t-32.5 4.5v5h133v-5q-49 0 -49 -17q0 -1 1 -3l64 -273l78 349
q1 2 1 4q0 17 -49 17v4h108zM84.5 427q-8.5 -37 -8.5 -112q0 -65 19 -120t49 -55q28 0 36 36t8 113q0 66 -19 120.5t-50 54.5q-26 0 -34.5 -37z" />
    <glyph glyph-name="o_o.dlig" unicode="&#xe0f6;" horiz-adv-x="419" vert-adv-y="0" 
d="M176 454.5q18 -14.5 32 -42.5q29 57 79 57q62 0 87 -74t25 -162t-25 -161.5t-87 -73.5q-26 0 -43.5 14.5t-31.5 42.5q-29 -57 -80 -57q-62 0 -87 74t-25 162t25 161.5t87 73.5q26 0 44 -14.5zM70.5 401q-10.5 -61 -10.5 -156v-11q0 -78 22 -153t63 -75q30 0 46 55.5
t16 137.5q0 102 -23.5 182.5t-64.5 80.5q-38 0 -48.5 -61zM232.5 406.5q-14.5 -54.5 -14.5 -135.5q0 -103 22 -184.5t60 -81.5t49 61t11 156v11q0 78 -22.5 153t-63.5 75q-27 0 -41.5 -54.5z" />
    <glyph glyph-name="r_a.dlig" unicode="&#xe0f7;" horiz-adv-x="455" vert-adv-y="0" 
d="M108 473v-122q9 55 28.5 86.5t44.5 31.5q27 0 44 -24.5t17 -62.5q0 -13 -6 -20.5t-14 -7.5t-14 7.5t-6 20.5q0 33 -6.5 52t-24.5 19q-27 0 -45 -52.5t-18 -143.5v-231q0 -23 48 -21v-5h-136v5q27 0 37.5 4.5t10.5 16.5v377q0 12 -10.5 16t-37.5 4v5q30 0 54 13.5t30 31.5
h4zM372 440.5q25 -29.5 25 -84.5v-311q0 -22 7 -31t31 -9v-5l-16 1q-62 0 -62 61v105q-14 -82 -51.5 -125.5t-75.5 -43.5q-27 0 -44 21t-17 58t20.5 64.5t63.5 65.5q51 46 77.5 83.5t26.5 92.5q0 38 -15 60t-41 22t-52 -26q-4 -4 -8 -4q-3 0 -3 4t4 7q31 24 68 24t62 -29.5z
M357 333q-9 -32 -27 -56t-49 -54q-37 -37 -55 -65t-18 -70q0 -31 13 -48.5t33 -17.5q23 0 47 26t40 78.5t16 128.5v78z" />
    <glyph glyph-name="r_r.dlig" unicode="&#xe0f8;" horiz-adv-x="416" vert-adv-y="0" 
d="M108 473v-123q20 119 68 119q27 0 44 -25t17 -63q0 -13 -6 -20t-14 -7t-14 7t-6 20q0 34 -6.5 53t-24.5 19q-26 0 -42 -51t-16 -145v-232q0 -22 48 -20v-5h-136v5q27 0 37.5 4.5t10.5 15.5v377q0 12 -10.5 16.5t-37.5 4.5v4q30 0 54 13.5t30 32.5h4zM379 444
q17 -25 17 -63q0 -13 -6 -20t-14 -7t-14 7t-6 20q0 34 -6.5 53t-24.5 19q-27 0 -43.5 -52.5t-16.5 -143.5v-232q0 -22 48 -20v-5h-136v5q27 0 37.5 4.5t10.5 15.5v257q0 12 -10.5 16t-37.5 4v5q39 0 60.5 10.5t27.5 37.5q23 114 70 114q27 0 44 -25z" />
    <glyph glyph-name="s_s.dlig" unicode="&#xe0f9;" horiz-adv-x="444" vert-adv-y="0" 
d="M123 469q25 0 48 -8.5t38 -24.5q3 -5 3 -9q0 -6 -5 -6q-4 0 -9 6q-13 19 -34 28.5t-44 9.5q-29 0 -49 -16t-20 -46q0 -29 20 -54t62 -63q51 -47 77.5 -83.5t26.5 -84.5q0 -54 -28.5 -87t-79.5 -33q-56 0 -91 43q-4 6 -7 6q-2 0 -3 -8l-3 -41h-5v179h3q9 -92 39 -132.5
t67 -40.5q32 0 54 25t22 73q0 43 -23.5 75.5t-69.5 75.5q-43 40 -64 69t-21 66q0 39 27.5 60t67.5 21h1zM395 469l18 -134l-4 -1q-13 68 -38.5 99t-69.5 31q-28 0 -45.5 -16t-17.5 -45t20 -54t61 -63q52 -47 78.5 -83.5t26.5 -84.5q0 -59 -33 -89.5t-79 -30.5q-44 0 -76 25
q-8 7 -8 14q0 6 5 6q7 0 14 -9q26 -31 65 -31q33 0 56.5 25.5t23.5 73.5q0 43 -23.5 75.5t-69.5 75.5q-43 40 -64 69t-21 66q0 31 22 56t65 25q18 0 49 -7q19 -4 26 -4q13 0 16 11h3z" />
    <glyph glyph-name="t_h.dlig" unicode="&#xe0fa;" horiz-adv-x="535" vert-adv-y="0" 
d="M293 649v-294q11 58 35.5 86t57.5 28q37 0 59 -28.5t22 -85.5v-330q0 -22 48 -20v-5h-136v5q27 0 37.5 4.5t10.5 15.5v330q0 47 -14.5 71.5t-42.5 24.5q-34 0 -55.5 -46.5t-21.5 -138.5v-241q0 -22 48 -20v-5h-136v5q27 0 38 4.5t11 15.5v110q-14 -67 -47.5 -102
t-69.5 -35q-29 0 -49 22t-20 59v380h-48v6q36 0 58.5 26.5t25.5 100.5h4v-125h78v-8h-78v-397q0 -23 12 -36.5t31 -13.5q34 0 65 43t38 126v397q0 13 -11 17t-38 4v5q30 0 54 13t31 32h3z" />
    <glyph glyph-name="t_t.dlig" unicode="&#xe0fb;" horiz-adv-x="324" vert-adv-y="0" 
d="M108 467h48q25 0 44 31t22 94h4v-125h78v-7h-78v-338q0 -22 6.5 -32.5t16.5 -10.5q14 0 25.5 16.5t11.5 40.5q0 14 -3 33q-2 12 -2 18q0 11 8 11q9 0 9 -19q0 -58 -19.5 -87.5t-46.5 -29.5q-19 0 -32.5 14.5t-13.5 37.5v346h-78v-359q0 -48 23 -70t58 -22q36 0 62 18
q10 8 23 25q4 7 7 10q3 4 7 4q6 0 6 -6q0 -4 -6 -11q-21 -24 -52.5 -37.5t-63.5 -13.5q-44 0 -74 25.5t-30 73.5v363h-48v6q36 0 58.5 26.5t25.5 99.5h4v-125z" />
    <glyph glyph-name="z_z.dlig" unicode="&#xe0fc;" horiz-adv-x="463" vert-adv-y="0" 
d="M51 472q2 -5 9 -5h184v-3l-181 -457l31 1q32 1 50.5 14.5t28.5 50t13 105.5h4v-182h-5q-4 4 -11 4h-154v6l182 457l-73 -2q-36 -1 -61 -31.5t-35 -94.5l-4 1l18 136h4zM275 472q1 -5 8 -5h160v-3l-182 -457l82 1q31 0 49.5 13.5t29 50t12.5 106.5h4v-182h-5q-4 4 -11 4
h-204v6l182 457l-48 -2q-75 -4 -96 -126l-4 1l19 136h4z" />
    <glyph glyph-name="A.alt1" unicode="&#xe0fd;" horiz-adv-x="413" vert-adv-y="0" 
d="M205 608l75 -319q7 1 15 1q75 0 117 -51.5t42 -120.5q0 -63 -36 -109t-100 -46q-48 0 -82.5 30.5t-34.5 83.5q0 15 3 31t12 16q6 0 6 -10q0 -4 -1 -9q-7 -21 -7 -41q0 -44 30.5 -69.5t73.5 -25.5q62 0 96 43t34 104q0 67 -40.5 116.5t-112.5 49.5h-14l60 -256
q3 -12 13 -16.5t36 -4.5v-4h-137v4q48 0 48 17v4l-59 247q-38 -13 -66.5 -44.5t-39.5 -76.5l-14 -59q-21 -85 -102 -103v1q44 16 55 64l16 68l111 485h3zM107 170q21 42 56 71t77 41l-51 218z" />
    <glyph glyph-name="B.alt1" unicode="&#xe0fe;" horiz-adv-x="512" vert-adv-y="0" 
d="M403 389q-48 51 -115 51q-64 0 -112 -44t-48 -118q0 -61 27 -95.5t54 -47.5q10 -5 10 -13q0 -7 -7 -7q-5 0 -12 4q-28 19 -53 60.5t-25 98.5v10q2 112 41.5 185t112.5 125h-152q-18 0 -17 -19v-553q0 -23 48 -21v-5h-136v5q27 0 37.5 4.5t10.5 16.5v553q0 22 -48 20v5
h379v-5h-9q-52 0 -107.5 -30t-96.5 -89t-53 -142q18 54 65.5 84.5t104.5 30.5q50 0 93 -23.5t70 -71t27 -116.5q0 -92 -54.5 -160.5t-140 -104.5t-174.5 -36q-109 0 -182.5 54t-73.5 156q0 53 30.5 84.5t71.5 31.5q30 0 55 -19.5t36 -57.5q1 -5 1 -9q0 -12 -7 -12
q-9 0 -11 15q-6 37 -27 56.5t-49 19.5q-36 0 -64.5 -30t-28.5 -79q0 -97 71 -149.5t175 -52.5q82 0 158 34t124.5 100.5t48.5 158.5q0 96 -48 147z" />
    <glyph glyph-name="D.alt1" unicode="&#xe0ff;" horiz-adv-x="479" vert-adv-y="0" 
d="M69 578q0 23 -48 21v4h166q123 -2 197.5 -84.5t74.5 -216.5q0 -106 -48.5 -182t-125 -115t-157.5 -39q-98 0 -165 55.5t-67 158.5q0 89 51.5 140.5t121.5 57.5v200zM181 346q31 -24 41 -63q1 -5 1 -9q0 -12 -7 -12q-9 0 -11 15q-6 38 -32.5 62t-63.5 30v-344
q0 -11 10.5 -15.5t37.5 -4.5v-5h-136v5q27 0 37.5 4.5t10.5 15.5v346q-67 -4 -116 -54t-49 -137q0 -98 62.5 -152.5t153.5 -54.5q74 0 142.5 37.5t112.5 112t44 179.5q0 133 -62 214.5t-170 81.5h-61q-18 0 -17 -20v-202q41 -6 72 -30z" />
    <glyph glyph-name="J.alt1" unicode="&#xe100;" vert-adv-y="0" 
d="M156 603v-5q-27 0 -37.5 -4.5t-10.5 -15.5v-476q0 -75 -52.5 -117.5t-124.5 -42.5q-51 0 -97 22t-74.5 66.5t-28.5 107.5v1q0 75 40.5 128.5t112.5 53.5q53 0 83 -32.5t30 -76.5q0 -23 -10 -44q-6 -14 -13 -14q-5 0 -5 6t4 14q12 20 12 45q0 39 -26.5 68t-74.5 29
q-69 0 -107.5 -52t-38.5 -125q0 -59 27 -101t70 -64t89 -22q61 0 102.5 36.5t41.5 103.5v486q0 22 -48 20v5h136z" />
    <glyph glyph-name="K.alt1" unicode="&#xe101;" horiz-adv-x="445" vert-adv-y="0" 
d="M387 214q-6 0 -6 6q0 4 3 8q16 26 49 43.5t66 17.5q73 0 113.5 -46.5t40.5 -109.5q0 -65 -41.5 -113t-115.5 -48q-70 0 -126 50t-88 162l-34 120q-29 101 -85 101q-30 0 -55 -25v-355q0 -23 48 -21v-4h-136v4q27 0 37.5 4.5t10.5 16.5v553q0 23 -48 20v5h136v-5
q-27 0 -37.5 -4.5t-10.5 -15.5v-182q30 93 80.5 151.5t117.5 58.5q24 0 36 -8.5t12 -18.5q0 -6 -4 -10.5t-11 -4.5q-11 0 -27 12q-17 14 -32 14q-46 0 -92 -55.5t-74 -140.5q26 22 62 22t66.5 -27.5t46.5 -86.5l32 -114q31 -107 75.5 -157t101.5 -50q71 0 110.5 45t39.5 106
t-39.5 105.5t-109.5 44.5q-30 0 -60 -17.5t-42 -42.5q-5 -8 -10 -8z" />
    <glyph glyph-name="M.alt1" unicode="&#xe102;" horiz-adv-x="454" vert-adv-y="0" 
d="M103 604l125 -520l117 520h89v-5q-26 0 -37 -4.5t-11 -16.5v-553q0 -22 48 -20v-5h-135v5q26 0 37 4.5t11 15.5v533l-134 -564h-3l-137 563v-428q0 -70 -40 -109.5t-95 -39.5t-95 39t-40 109q0 73 40.5 112t92.5 39q38 0 64.5 -21.5t26.5 -60.5q0 -29 -17 -53
q-6 -8 -13 -8q-6 0 -6 6q0 7 8 14q19 18 20 48q0 32 -24.5 51t-59.5 19q-49 0 -87.5 -37.5t-38.5 -108.5q0 -65 38.5 -103t89.5 -38q49 0 85 37t37 105l7 449q0 23 -48 21v5h85z" />
    <glyph glyph-name="N.alt1" unicode="&#xe103;" horiz-adv-x="382" vert-adv-y="0" 
d="M103 603l203 -497l-5 471q0 12 -11 16.5t-37 4.5v5h109v-5q-26 0 -37 -4.5t-11 -16.5v-584h-4l-236 574v-439q0 -70 -40 -109.5t-95 -39.5t-95 39t-40 109q0 73 40.5 112t92.5 39q38 0 64.5 -21.5t26.5 -60.5q0 -29 -17 -53q-6 -8 -13 -8q-6 0 -6 6q0 7 8 14q19 18 20 48
q0 32 -24.5 51t-59.5 19q-49 0 -87.5 -37.5t-38.5 -108.5q0 -65 38.5 -103t89.5 -38q49 0 85 37t37 105l7 449v1q0 22 -48 20v5h84z" />
    <glyph glyph-name="Q.alt1" unicode="&#xe104;" horiz-adv-x="625" vert-adv-y="0" 
d="M461 569q66 -41 103 -111t37 -155q0 -84 -37 -154.5t-103 -111.5t-150 -41h-1q-84 0 -150.5 41t-103 111.5t-36.5 154.5q0 85 36.5 155t103 111t150.5 41q85 0 151 -41zM172.5 563.5q-52.5 -37.5 -82 -105t-29.5 -153.5v-2q0 -80 38 -148.5t99.5 -109t129.5 -40.5
t120.5 37.5t82 105.5t29.5 155q0 86 -37.5 154t-99.5 106t-130 38t-120.5 -37.5zM203 -28q22 20 68 20q32 0 65 -12.5t84 -38.5q55 -27 92 -41t75 -14q74 0 124 27t74 69.5t24 88.5q0 56 -32 95.5t-86 39.5h-2q-38 0 -68.5 -25.5t-36.5 -73.5q-1 -10 -9 -10q-7 0 -7 8
q0 2 1 5q12 48 46 74.5t74 26.5h1q57 0 91 -41t34 -99q0 -51 -27.5 -98t-84.5 -77t-140 -30q-48 0 -93 15.5t-106 44.5q-44 21 -70.5 31t-48.5 10q-30 0 -43.5 -11.5t-13.5 -26.5q0 -22 20 -29q10 -4 10 -11q0 -6 -7 -6q-4 0 -9 2q-21 13 -21 40t22 47z" />
    <glyph glyph-name="R.alt1" unicode="&#xe105;" horiz-adv-x="443" vert-adv-y="0" 
d="M181 603q70 0 119 -26t74 -69t25 -91q0 -69 -48.5 -122.5t-136.5 -62.5q50 -10 78.5 -44t59.5 -97q23 -47 41 -74.5t48 -46.5t75 -19q71 0 110.5 45t39.5 106t-39.5 105.5t-110.5 44.5q-30 0 -59.5 -17.5t-42.5 -42.5q-4 -8 -10 -8q-5 0 -5 6q0 4 3 8q16 26 48.5 43.5
t65.5 17.5q73 0 113.5 -46.5t40.5 -109.5q0 -65 -41.5 -113t-114.5 -48q-63 0 -103.5 23.5t-63 57t-48.5 87.5q-30 61 -55.5 90.5t-71.5 29.5h-47v5h56q84 0 131.5 54t47.5 127q0 74 -47.5 128t-131.5 54h-56q-18 0 -17 -20v-553q0 -22 48 -20v-5h-136v5q27 0 37.5 4.5
t10.5 15.5v553q0 23 -48 21v4h161z" />
    <glyph glyph-name="S.alt1" unicode="&#xe106;" horiz-adv-x="336" vert-adv-y="0" 
d="M229 -6.5q55 46.5 55 128.5q0 59 -32.5 102.5t-95.5 99.5q-57 51 -85.5 87t-28.5 82q0 52 32 83t79 31q59 0 105 -50q3 -3 5 -3q3 0 3 5v1l-3 46h5l23 -185l-4 -1q-23 96 -56.5 138.5t-77.5 42.5q-37 0 -61 -25t-24 -61q0 -43 28 -77.5t85 -84.5q66 -58 100.5 -103
t34.5 -106q0 -65 -30.5 -111.5t-79.5 -70.5t-104 -24q-53 0 -100 22.5t-75.5 67.5t-28.5 109q0 60 26 102t66.5 63.5t83.5 21.5q50 0 85 -28.5t35 -79.5q0 -33 -20.5 -59t-62.5 -37q-5 -1 -8 -1q-10 0 -10 6q0 7 13 10q42 7 62.5 29t20.5 52q0 48 -33.5 75.5t-81.5 27.5
q-42 0 -81 -20.5t-63.5 -61.5t-24.5 -100q0 -90 57.5 -140t135.5 -50q76 0 131 46.5z" />
    <glyph glyph-name="C_A.dlig" unicode="&#xe107;" horiz-adv-x="889" vert-adv-y="0" 
d="M526 550q4 -2 6 -2q5 0 5 7v1l-3 53h5l23 -186l-4 -1q-18 83 -87.5 132.5t-155.5 49.5q-67 0 -125 -32.5t-93.5 -100.5t-35.5 -169q0 -88 35.5 -155.5t94 -104t124.5 -36.5q127 0 199.5 90.5t116.5 288.5l51 223h3l136 -582q3 -12 13 -16.5t35 -4.5v-5h-137v5q49 0 49 17
v4l-112 474l-29 -118q-51 -203 -126 -294.5t-204 -91.5q-75 0 -141.5 34.5t-107.5 103.5t-41 168q0 88 36 158t101.5 109.5t150.5 39.5q130 0 218 -59zM723 243q-50 0 -72 -19t-33 -58l-17 -63q-25 -89 -102 -103v1q43 16 55 64l14 58q15 63 48 93t107 30v-3z" />
    <glyph glyph-name="C_H.dlig" unicode="&#xe108;" horiz-adv-x="979" vert-adv-y="0" 
d="M526 550q4 -2 6 -2q5 0 5 7v1l-3 53h5l23 -186l-4 -1q-18 83 -87.5 132.5t-155.5 49.5q-67 0 -125 -32.5t-93.5 -100.5t-35.5 -169q0 -88 36.5 -154.5t95.5 -101t125 -34.5q61 0 110 22.5t84.5 55t84.5 87.5q25 29 38 43v359q0 22 -48 20v5h136v-5q-27 0 -37.5 -4.5
t-10.5 -15.5v-320q43 39 90 60.5t106 21.5v238q0 22 -48 20v5h136v-5q-27 0 -38 -4.5t-11 -15.5v-553q0 -23 49 -21v-5h-136v5q26 0 37 4.5t11 16.5v307q-59 0 -106 -22t-90 -62v-223q0 -23 48 -21v-5h-136v5q27 0 37.5 4.5t10.5 16.5v183q-12 -14 -37 -41q-50 -57 -87 -91
t-87 -57.5t-114 -23.5q-117 0 -203.5 79t-86.5 227q0 88 36 158t101.5 109.5t150.5 39.5q130 0 218 -59z" />
    <glyph glyph-name="C_K.dlig" unicode="&#xe109;" horiz-adv-x="997" vert-adv-y="0" 
d="M526 550q4 -2 6 -2q5 0 5 7v1l-3 53h5l23 -186l-4 -1q-18 83 -87.5 132.5t-155.5 49.5q-67 0 -125 -32.5t-93.5 -100.5t-35.5 -169q0 -86 38.5 -152t102 -102t135.5 -36q93 0 174 61.5t124 184.5v321q0 22 -48 20v5h136v-5q-27 0 -37.5 -4.5t-10.5 -15.5v-182
q30 93 80.5 151.5t117.5 58.5q24 0 36 -8.5t12 -18.5q0 -6 -4 -10.5t-11 -4.5q-11 0 -27 12q-17 14 -32 14q-47 0 -92.5 -55.5t-73.5 -140.5q26 21 62 21t67 -27t46 -86l65 -245q13 -50 56 -71l-1 -2q-81 23 -98 86l-63 234q-14 54 -36 77.5t-49 23.5q-30 0 -55 -25v-355
q0 -23 48 -21v-5h-136v5q27 0 37.5 4.5t10.5 16.5v213q-45 -120 -126.5 -181.5t-198.5 -61.5q-75 0 -141.5 34.5t-107.5 103.5t-41 168q0 88 36 158t101.5 109.5t150.5 39.5q130 0 218 -59z" />
    <glyph glyph-name="C_O.dlig" unicode="&#xe10a;" horiz-adv-x="603" vert-adv-y="0" 
d="M526 549q4 -2 6 -2q5 0 5 7v1l-3 53h5l23 -186l-4 -1q-18 83 -87.5 132.5t-155.5 49.5q-67 0 -125 -32.5t-93.5 -100.5t-35.5 -169q0 -95 36.5 -162t96 -100.5t127.5 -33.5q66 0 122.5 28t90.5 84.5t34 136.5q0 15 7 15q8 0 8 -15q0 -78 -38.5 -137t-101 -90.5
t-133.5 -31.5q-75 0 -141.5 34.5t-107.5 103.5t-41 168q0 88 36 158t101.5 109.5t150.5 39.5q130 0 218 -59zM477.5 456q60.5 -65 60.5 -156q0 -92 -60.5 -157t-154.5 -65q-95 0 -155.5 65t-60.5 157q0 91 60.5 156t155.5 65q94 0 154.5 -65zM192.5 455.5
q-45.5 -59.5 -45.5 -154.5v-1q3 -92 59.5 -154t128.5 -62t117.5 60t45.5 156q0 92 -58 153.5t-130 61.5t-117.5 -59.5z" />
    <glyph glyph-name="D_O.dlig" unicode="&#xe10b;" horiz-adv-x="837" vert-adv-y="0" 
d="M677 568q66 -41 103 -111.5t37 -154.5q0 -85 -37 -155t-103 -111t-151 -41q-100 0 -176 58q-69 -53 -164 -53h-166v5q27 0 37.5 4.5t10.5 15.5v553q0 23 -48 21v4h166q95 0 164 -53q75 59 176 59q85 0 151 -41zM362 540q46 -40 71 -101.5t25 -136.5q0 -71 -21.5 -129
t-61.5 -98q36 -34 80 -53t89 -19q68 0 120.5 38t82 106t29.5 155q0 85 -37.5 153.5t-99.5 106.5t-131 38q-85 0 -146 -60zM125 597q-18 0 -17 -19v-553q0 -11 4 -15t13 -4h61q90 0 150 59q-100 94 -100 237t100 236q-60 59 -150 59h-61zM295 429q-19 -57 -19 -126v-1
q1 -60 22.5 -114.5t60.5 -96.5q59 80 59 211q0 139 -70 224q-34 -40 -53 -97z" />
    <glyph glyph-name="H_E.dlig" unicode="&#xe10c;" horiz-adv-x="572" vert-adv-y="0" 
d="M525 608l17 -143h-3q-14 76 -45 104t-106 28h-27q-18 0 -17 -19v-238h43q31 0 42.5 26.5t14.5 68.5h3v-196h-3q-4 43 -15 69t-42 26h-43v-309q0 -11 3.5 -15t13.5 -4h27q76 0 108 26t45 101l8 48h3l-23 -186h-3q-2 5 -9 5h-261v5q27 0 37.5 4.5t10.5 15.5v309h-196v-309
q0 -23 48 -20v-5h-136v5q27 0 37.5 4.5t10.5 15.5v553q0 23 -48 21v4h136v-4q-27 0 -37.5 -5t-10.5 -16v-238h196v238q0 23 -48 21v4h257q7 0 9 5h3z" />
    <glyph glyph-name="K_A.dlig" unicode="&#xe10d;" horiz-adv-x="687" vert-adv-y="0" 
d="M550 607l112 -477q5 -21 5 -40q0 -64 -45 -106t-115 -42q-158 0 -205 162l-54 201q-14 53 -36 77t-49 24q-30 0 -55 -26v-355q0 -22 48 -20v-5h-136v5q27 0 37.5 4.5t10.5 15.5v553q0 23 -48 21v4h136v-4q-27 0 -37.5 -4.5t-10.5 -16.5v-181q30 92 80.5 151t117.5 59
q24 0 36 -8.5t12 -19.5q0 -6 -4 -10t-11 -4q-11 0 -27 12q-17 13 -32 13q-46 0 -92 -55t-74 -140q26 21 62 21t67 -27t46 -86l53 -202q41 -154 165 -154q58 0 91 35.5t33 87.5q0 18 -4 36l-93 393l-81 -327q19 36 52.5 50t84.5 14v-4q-50 0 -72 -18.5t-33 -58.5
q-15 -54 -38 -78.5t-64 -36.5v1q23 13 34.5 31.5t18.5 50.5l111 484h3z" />
    <glyph glyph-name="K_E.dlig" unicode="&#xe10e;" horiz-adv-x="708" vert-adv-y="0" 
d="M661 608l17 -142l-3 -1q-11 74 -38 103.5t-103 29.5h-37q-18 0 -17 -20v-228h53q31 0 42.5 26.5t14.5 68.5h3v-196h-3q-4 43 -15 69t-42 26h-53v-260q0 -11 4 -15t13 -4h37q76 0 105 27t44 100l2 10l3 -1l-23 -147h-3q-2 5 -9 5h-261v5q27 0 37.5 4.5t10.5 15.5v494
q0 23 -48 21v4h257q7 0 9 5h3zM342 598.5q12 -8.5 12 -19.5q0 -6 -4 -10t-11 -4q-11 0 -27 12q-17 13 -32 13q-46 0 -92 -55t-74 -140q26 21 62 21t67 -27t46 -86l53 -202q20 -73 65.5 -113.5t114.5 -40.5q44 0 76 14t51 33q5 6 10 6t5 -4q0 -5 -7 -10q-55 -44 -136 -44
q-87 0 -142.5 41.5t-76.5 120.5l-54 201q-14 53 -36 77t-49 24q-30 0 -55 -26v-355q0 -22 48 -20v-5h-136v5q27 0 37.5 4.5t10.5 15.5v553q0 23 -48 21v4h136v-4q-27 0 -37.5 -4.5t-10.5 -16.5v-181q30 92 80.5 151t117.5 59q24 0 36 -8.5z" />
    <glyph glyph-name="K_I.dlig" unicode="&#xe10f;" horiz-adv-x="616" vert-adv-y="0" 
d="M342 598.5q12 -8.5 12 -19.5q0 -6 -4 -10t-11 -4q-11 0 -27 12q-17 13 -32 13q-46 0 -92 -55t-74 -140q26 21 62 21t67 -27t46 -86l53 -202q19 -72 58 -113t91 -41q32 0 56 14t38 35q3 4 7 4t4 -4t-3 -7q-43 -47 -106 -47q-69 0 -116.5 42t-68.5 120l-54 201
q-14 53 -36 77t-49 24q-30 0 -55 -26v-355q0 -22 48 -20v-5h-136v5q27 0 37.5 4.5t10.5 15.5v553q0 23 -48 21v4h136v-4q-27 0 -37.5 -4.5t-10.5 -16.5v-181q30 92 80.5 151t117.5 59q24 0 36 -8.5zM558 603v-4q-26 0 -37 -4.5t-11 -16.5v-494q0 -23 48 -20v-5h-135v5
q26 0 37 4.5t11 15.5v494q0 23 -48 21v4h135z" />
    <glyph glyph-name="K_O.dlig" unicode="&#xe110;" horiz-adv-x="920" vert-adv-y="0" 
d="M768.5 571q62.5 -37 97 -100.5t34.5 -140.5t-34.5 -140.5t-97 -101t-141.5 -37.5q-80 0 -142.5 37.5t-97 101t-34.5 140.5t34.5 140.5t97 100.5t142.5 37q79 0 141.5 -37zM342 598.5q12 -8.5 12 -19.5q0 -6 -4 -10t-11 -4q-11 0 -27 12q-17 13 -32 13q-46 0 -92 -55
t-74 -140q26 21 62 21t66.5 -27t46.5 -86l32 -114q28 -100 109 -171t209 -71q101 0 171 49q5 4 10 4t5 -4t-9 -9q-77 -45 -184 -45q-134 0 -225 62.5t-125 179.5l-34 121q-29 101 -85 101q-30 0 -55 -26v-355q0 -22 48 -20v-5h-136v5q27 0 37.5 4.5t10.5 15.5v553
q0 23 -48 21v4h136v-4q-27 0 -37.5 -4.5t-10.5 -16.5v-181q30 92 80.5 151t117.5 59q24 0 36 -8.5zM497.5 566.5q-49.5 -34.5 -77 -95.5t-27.5 -140v-1q0 -73 35.5 -135.5t93.5 -99t121 -36.5q64 0 113.5 34t76.5 95.5t27 141.5q0 77 -35 139t-92.5 97t-122.5 35
q-63 0 -112.5 -34.5z" />
    <glyph glyph-name="K_U.dlig" unicode="&#xe111;" horiz-adv-x="728" vert-adv-y="0" 
d="M342 598.5q12 -8.5 12 -19.5q0 -6 -4 -10t-11 -4q-11 0 -27 12q-17 13 -32 13q-46 0 -92 -55t-74 -140q26 21 62 21t67 -27t46 -86l53 -202q19 -72 69 -113t120 -41q44 0 76 14t51 33q5 6 10 6t5 -4q0 -5 -7 -10q-55 -44 -136 -44q-88 0 -147.5 42t-80.5 120l-54 201
q-14 53 -36 77t-49 24q-30 0 -55 -26v-355q0 -22 48 -20v-5h-136v5q27 0 37.5 4.5t10.5 15.5v553q0 23 -48 21v4h136v-4q-27 0 -37.5 -4.5t-10.5 -16.5v-181q30 92 80.5 151t117.5 59q24 0 36 -8.5zM505 603v-4q-27 0 -37.5 -4.5t-10.5 -16.5v-406q0 -46 27 -71t66 -25
q41 0 72 28.5t31 79.5l-7 394q0 12 -10.5 16.5t-37.5 4.5v4h110v-4q-27 0 -37.5 -4.5t-10.5 -16.5v-394q0 -61 -36 -95t-86 -34q-49 0 -85 34t-36 95v394q0 23 -48 21v4h136z" />
    <glyph glyph-name="L_A.dlig" unicode="&#xe112;" horiz-adv-x="512" vert-adv-y="0" 
d="M444 25q3 -12 12.5 -16t35.5 -4v-5h-137v5q49 0 49 16q0 2 -1 4l-112 474l-80 -327q19 35 52 49.5t84 14.5v-4q-50 0 -72 -18.5t-33 -58.5q-15 -54 -37.5 -78.5t-64.5 -36.5v1q23 13 34.5 31.5t19.5 49.5l110 485h3zM156 603v-4q-27 0 -37.5 -5t-10.5 -16v-553
q0 -11 4 -15t13 -4h27q76 0 108 26t45 101l8 48h3l-23 -186h-3q-2 5 -9 5h-261v5q27 0 37.5 4.5t10.5 15.5v553q0 23 -48 21v4h136z" />
    <glyph glyph-name="L_E.dlig" unicode="&#xe113;" horiz-adv-x="536" vert-adv-y="0" 
d="M436 608l18 -143h-4q-11 74 -38 103t-102 29h-38q-18 0 -17 -19v-228h53q32 0 43 26.5t14 68.5h4v-196h-4q-3 43 -14 69t-43 26h-53v-260q0 -11 4 -15t13 -4h38q75 0 104 27t44 100l2 10l4 -1l-23 -147h-3q-2 5 -9 5h-262v5q27 0 37.5 4.5t10.5 15.5v494q0 23 -48 21v4
h257q7 0 9 5h3zM156 603v-4q-27 0 -37.5 -5t-10.5 -16v-553q0 -11 4 -15t13 -4h227q76 0 108 26t45 101l8 48h3l-23 -186h-3q-2 5 -9 5h-461v5q27 0 37.5 4.5t10.5 15.5v553q0 23 -48 21v4h136z" />
    <glyph glyph-name="L_I.dlig" unicode="&#xe114;" horiz-adv-x="396" vert-adv-y="0" 
d="M156 603v-4q-27 0 -37.5 -5t-10.5 -16v-553q0 -11 4 -15t13 -4h87q76 0 108 26t45 101l8 48h3l-23 -186h-3q-2 5 -9 5h-321v5q27 0 37.5 4.5t10.5 15.5v553q0 23 -48 21v4h136zM305 603v-4q-27 0 -37.5 -5t-10.5 -16v-494q0 -23 48 -20v-5h-136v5q27 0 37.5 4.5
t10.5 15.5v494q0 23 -48 21v4h136z" />
    <glyph glyph-name="L_O.dlig" unicode="&#xe115;" horiz-adv-x="736" vert-adv-y="0" 
d="M581 573q62 -37 96.5 -101t34.5 -140q0 -77 -34.5 -140.5t-96.5 -101t-142 -37.5t-142 37.5t-96.5 101t-34.5 140.5q0 76 34 140t96.5 101t142.5 37t142 -37zM156 603v-4q-27 0 -37.5 -5t-10.5 -16v-553q0 -11 4 -15t13 -4h427q76 0 107.5 26t44.5 101l9 48h3l-23 -186
h-3q-2 5 -9 5h-661v5q27 0 37.5 4.5t10.5 15.5v553q0 23 -48 21v4h136zM309.5 568q-49.5 -34 -77 -95t-27.5 -140v-1q0 -73 35.5 -135.5t93.5 -99t122 -36.5q63 0 112.5 34t77 95.5t27.5 141.5q0 77 -35.5 139t-93 96.5t-122.5 34.5q-63 0 -112.5 -34z" />
    <glyph glyph-name="L_U.dlig" unicode="&#xe116;" horiz-adv-x="527" vert-adv-y="0" 
d="M156 603v-4q-27 0 -37.5 -5t-10.5 -16v-553q0 -11 4 -15t13 -4h218q76 0 107.5 26t44.5 101l9 48h3l-23 -186h-3q-2 5 -9 5h-452v5q27 0 37.5 4.5t10.5 15.5v553q0 23 -48 21v4h136zM304 603v-4q-27 0 -37.5 -5t-10.5 -16v-406q0 -46 27.5 -71t65.5 -25q41 0 72 28.5
t31 79.5l-7 394q0 11 -10.5 16t-37.5 5v4h110v-4q-27 0 -37.5 -5t-10.5 -16v-394q0 -61 -36 -95t-86 -34q-49 0 -85 34t-36 95v394q0 23 -48 21v4h136z" />
    <glyph glyph-name="L_L.dlig" unicode="&#xe117;" horiz-adv-x="516" vert-adv-y="0" 
d="M156 603v-4q-27 0 -37.5 -5t-10.5 -16v-553q0 -11 4 -15t13 -4h207q76 0 108 26t45 101l8 48h3l-23 -186h-3q-2 5 -9 5h-441v5q27 0 37.5 4.5t10.5 15.5v553q0 23 -48 21v4h136zM303 603v-4q-26 0 -37 -5t-11 -16v-494q0 -11 4 -15t14 -4h7q76 0 107.5 26t44.5 101l9 48
h3l-23 -186h-3q-2 5 -9 5h-241v5q26 0 37 4.5t11 15.5v494q0 23 -48 21v4h135z" />
    <glyph glyph-name="O_C.dlig" unicode="&#xe118;" horiz-adv-x="893" vert-adv-y="0" 
d="M817 548q3 -2 6 -2q4 0 4 7v1l-2 53l5 1l23 -186l-5 -1q-17 83 -87 132t-156 49q-76 0 -137 -40q63 -40 98 -109t35 -152q0 -81 -33.5 -148.5t-93.5 -108.5q62 -40 137 -40q66 0 122.5 28.5t91 85t34.5 136.5q0 14 7 14t7 -14q0 -78 -38 -137t-100.5 -91t-134.5 -32
q-79 0 -145 37q-65 -37 -144 -37h-1q-84 0 -150.5 41t-103 111t-36.5 155q0 84 36.5 154.5t103 111.5t150.5 41q79 0 143 -37q65 37 145 37q130 0 219 -60zM172.5 561.5q-52.5 -37.5 -82 -105t-29.5 -154.5v-1q0 -80 38 -149t99.5 -109.5t129.5 -40.5q65 0 116 35
q-61 38 -97.5 104.5t-36.5 159.5q0 82 31.5 148.5t88.5 106.5q-64 43 -137 43q-68 0 -120.5 -37.5zM376 446q-25 -61 -25 -145q0 -86 30 -149t82 -101q46 39 71.5 104t25.5 146q0 77 -31 140.5t-83 103.5q-45 -38 -70 -99z" />
    <glyph glyph-name="O_G.dlig" unicode="&#xe119;" horiz-adv-x="907" vert-adv-y="0" 
d="M456 571q65 37 147 37q130 0 218 -59q3 -2 6 -2q5 0 5 7v1l-3 53h5l23 -186l-5 -1q-17 83 -87 132.5t-155 49.5h-1q-77 0 -138 -41q61 -41 95.5 -109.5t34.5 -150.5q0 -79 -32.5 -146.5t-90.5 -108.5q62 -40 135 -40q57 0 106.5 25.5t79.5 75.5t30 119v15q0 23 -48 20v5
h106v-5q-18 0 -18 -20v-247h-4l-23 192h-4q-14 -90 -83.5 -141t-159.5 -51q-77 0 -141 37q-64 -37 -143 -37h-1q-84 0 -150.5 41t-103 111t-36.5 155q0 84 36.5 154.5t103 111.5t150.5 41q81 0 146 -38zM172.5 562.5q-52.5 -37.5 -82 -105t-29.5 -154.5v-1q0 -80 38 -149
t99.5 -109.5t129.5 -40.5q64 0 116 35q-59 38 -94 104t-35 159q0 81 31 147.5t87 107.5q-66 44 -140 44q-68 0 -120.5 -37.5zM380 445q-25 -61 -25 -144q0 -84 30 -146.5t81 -99.5q45 39 69.5 103t24.5 144q0 76 -30 138.5t-82 103.5q-43 -38 -68 -99z" />
    <glyph glyph-name="O_O.dlig" unicode="&#xe11a;" horiz-adv-x="911" vert-adv-y="0" 
d="M456 571q65 38 145 38q85 0 151 -41t102.5 -111.5t36.5 -154.5q0 -85 -36.5 -155t-102.5 -111t-151 -41q-80 0 -145 38q-66 -38 -145 -38h-1q-84 0 -150.5 41t-103 111t-36.5 155q0 84 36.5 154.5t103 111.5t150.5 41q80 0 146 -38zM172.5 562.5q-52.5 -37.5 -82 -105
t-29.5 -154.5v-1q0 -80 38 -149t99.5 -109.5t129.5 -40.5q65 0 117 36q-63 40 -99 109.5t-36 153.5q0 79 32.5 145.5t89.5 108.5q-65 44 -139 44q-68 0 -120.5 -37.5zM466 565q63 -41 99 -110.5t36 -152.5q0 -78 -31.5 -144.5t-88.5 -108.5q65 -46 137 -46q68 0 121 38
t82.5 106t29.5 155q0 85 -38 153.5t-99.5 106.5t-130.5 38q-65 0 -117 -35zM375.5 445q-24.5 -63 -24.5 -142v-1q0 -74 32.5 -138t85.5 -106q43 40 67 103t24 141t-31.5 141.5t-84.5 104.5q-44 -40 -68.5 -103z" />
    <glyph glyph-name="O_Q.dlig" unicode="&#xe11b;" horiz-adv-x="912" vert-adv-y="0" 
d="M456 571q65 38 145 38q85 0 151 -41t102.5 -111t36.5 -155q0 -84 -36.5 -154.5t-102.5 -111.5t-151 -41q-80 0 -145 38q-66 -38 -145 -38h-1q-84 0 -150.5 41t-103 111.5t-36.5 154.5q0 85 36.5 155t103 111t150.5 41q80 0 146 -38zM172.5 562.5q-52.5 -37.5 -82 -105
t-29.5 -153.5v-2q0 -80 38 -148.5t99.5 -109t129.5 -40.5q65 0 117 35q-63 41 -99 110.5t-36 152.5q0 79 32.5 146t89.5 108q-65 44 -139 44q-68 0 -120.5 -37.5zM466 565q63 -40 99 -109.5t36 -153.5q0 -78 -31.5 -144.5t-88.5 -107.5q65 -46 137 -46q68 0 121 37.5
t82.5 105.5t29.5 155q0 86 -38 154t-99.5 106t-130.5 38q-65 0 -117 -35zM375.5 445q-24.5 -63 -24.5 -141v-2q0 -73 32.5 -137.5t85.5 -106.5q43 40 67 103t24 141t-31.5 141.5t-84.5 104.5q-44 -40 -68.5 -103zM493.5 -29q21.5 20 68.5 20q31 0 61 -12.5t74 -38.5
q47 -27 81 -41t72 -14q68 0 122 38l1 -2q-39 -31 -74.5 -43.5t-73.5 -12.5q-42 0 -80.5 15t-92.5 43q-42 22 -68 32.5t-49 10.5q-30 0 -43 -11.5t-13 -26.5q0 -22 20 -29q10 -4 10 -11q0 -6 -8 -6q-4 0 -8 2q-21 13 -21 40t21.5 47z" />
    <glyph glyph-name="Q_O.dlig" unicode="&#xe11c;" horiz-adv-x="911" vert-adv-y="0" 
d="M456 571q65 38 145 38q85 0 151 -41t102.5 -111t36.5 -155q0 -84 -36.5 -154.5t-102.5 -111.5t-151 -41q-80 0 -145 38q-66 -38 -145 -38h-1q-84 0 -150.5 41t-103 111.5t-36.5 154.5q0 85 36.5 155t103 111t150.5 41q80 0 146 -38zM172.5 562.5q-52.5 -37.5 -82 -105
t-29.5 -153.5v-2q0 -80 38 -148.5t99.5 -109t129.5 -40.5q65 0 117 35q-63 41 -99 110.5t-36 152.5q0 79 32.5 146t89.5 108q-65 44 -139 44q-68 0 -120.5 -37.5zM466 565q63 -40 99 -109.5t36 -153.5q0 -78 -31.5 -144.5t-88.5 -107.5q65 -46 137 -46q68 0 121 37.5
t82.5 105.5t29.5 155q0 86 -38 154t-99.5 106t-130.5 38q-65 0 -117 -35zM375.5 445q-24.5 -63 -24.5 -141v-2q0 -73 32.5 -137.5t85.5 -106.5q43 40 67 103t24 141t-31.5 141.5t-84.5 104.5q-44 -40 -68.5 -103zM203 -29q22 20 68 20q32 0 61.5 -12.5t73.5 -38.5
q48 -27 81.5 -41t71.5 -14q68 0 123 38l1 -2q-40 -31 -75.5 -43.5t-72.5 -12.5q-42 0 -81 15t-93 43q-42 22 -67.5 32.5t-48.5 10.5q-30 0 -43.5 -11.5t-13.5 -26.5q0 -22 20 -29q10 -4 10 -11q0 -6 -7 -6q-4 0 -9 2q-21 13 -21 40t22 47z" />
    <glyph glyph-name="R_A.dlig" unicode="&#xe11d;" horiz-adv-x="670" vert-adv-y="0" 
d="M645 130q5 -23 5 -44q0 -63 -40 -103.5t-105 -40.5q-70 0 -113.5 25.5t-66 60.5t-45.5 90q-25 58 -46 85t-62 27h-47v5h56q84 0 131.5 53.5t47.5 127.5t-47.5 128t-131.5 54h-56q-18 0 -17 -20v-553q0 -22 48 -20v-5h-136v5q27 0 37.5 4.5t10.5 15.5v553q0 23 -48 21v4
h161q70 0 119 -26t74 -69t25 -91q0 -71 -50.5 -124.5t-141.5 -61.5q46 -9 71.5 -41.5t53.5 -93.5q22 -49 40.5 -78.5t51 -50t81.5 -20.5q54 0 82 33t28 83q0 21 -5 43l-93 393l-81 -327q19 36 52 50t84 14v-4q-50 0 -72 -18.5t-33 -58.5q-15 -54 -37.5 -78.5t-63.5 -36.5
l-1 1q23 13 35 31.5t19 50.5l111 484h3z" />
    <glyph glyph-name="R_E.dlig" unicode="&#xe11e;" horiz-adv-x="721" vert-adv-y="0" 
d="M674 608l17 -142l-3 -1q-11 74 -38 103.5t-103 29.5h-37q-18 0 -17 -20v-228h53q31 0 42.5 26.5t14.5 68.5h3v-196h-3q-4 43 -15 69t-42 26h-53v-260q0 -11 3.5 -15t13.5 -4h37q76 0 105 27t44 100l2 10l3 -1l-23 -147h-3q-2 5 -9 5h-261v5q27 0 37.5 4.5t10.5 15.5v494
q0 23 -48 21v4h257q7 0 9 5h3zM181 603q70 0 119 -26t74 -69t25 -91q0 -71 -50.5 -124.5t-141.5 -61.5q44 -3 76 -35.5t76 -97.5q51 -75 92 -113t102 -38q43 0 75.5 14t50.5 33q6 6 10 6q5 0 5 -4q0 -5 -7 -10q-55 -44 -136 -44q-64 0 -111 25.5t-77 61t-67 91.5
q-37 57 -63 83.5t-61 26.5h-47v5h56q84 0 131.5 53.5t47.5 127.5t-47.5 128t-131.5 54h-56q-18 0 -17 -20v-553q0 -22 48 -20v-5h-136v5q27 0 37.5 4.5t10.5 15.5v553q0 23 -48 21v4h161z" />
    <glyph glyph-name="R_I.dlig" unicode="&#xe11f;" horiz-adv-x="609" vert-adv-y="0" 
d="M181 603q70 0 119 -26t74 -69t25 -91q0 -71 -50.5 -124.5t-141.5 -61.5q47 -3 76 -39t63 -106q35 -70 63.5 -104.5t74.5 -34.5q32 0 55.5 14t38.5 35q3 4 7 4t4 -4t-3 -7q-44 -47 -107 -47q-47 0 -81.5 23t-56.5 56t-49 86q-32 63 -57 93t-63 30h-47v5h56
q84 0 131.5 53.5t47.5 127.5t-47.5 128t-131.5 54h-56q-18 0 -17 -20v-553q0 -22 48 -20v-5h-136v5q27 0 37.5 4.5t10.5 15.5v553q0 23 -48 21v4h161zM552 603v-4q-27 0 -37.5 -4.5t-10.5 -16.5v-494q0 -22 48 -20v-5h-136v5q27 0 37.5 4.5t10.5 15.5v494q0 23 -48 21v4h136
z" />
    <glyph glyph-name="R_O.dlig" unicode="&#xe120;" horiz-adv-x="1005" vert-adv-y="0" 
d="M853.5 571q62.5 -37 97 -100.5t34.5 -140.5t-34.5 -140.5t-97 -101t-141.5 -37.5q-80 0 -142.5 37.5t-97 101t-34.5 140.5t34.5 140.5t97 100.5t142.5 37q79 0 141.5 -37zM181 603q70 0 119 -26t74 -69t25 -91q0 -71 -50.5 -124.5t-141.5 -61.5q40 -3 80.5 -31t104.5 -85
q60 -54 103.5 -87.5t98.5 -57t116 -23.5q107 0 180 49q6 4 11 4q6 0 6 -4t-10 -9q-82 -45 -195 -45q-86 0 -155.5 28t-118 66t-107.5 97q-53 51 -84.5 74t-64.5 23h-47v5h56q84 0 131.5 53.5t47.5 127.5t-47.5 128t-131.5 54h-56q-18 0 -17 -20v-553q0 -22 48 -20v-5h-136v5
q27 0 37.5 4.5t10.5 15.5v553q0 23 -48 21v4h161zM582 566.5q-49 -34.5 -76.5 -95.5t-27.5 -140v-1q0 -73 35.5 -135.5t93 -99t121.5 -36.5t113 34t76.5 95.5t27.5 141.5q0 77 -35 139t-93 97t-122 35t-113 -34.5z" />
    <glyph glyph-name="R_U.dlig" unicode="&#xe121;" horiz-adv-x="751" vert-adv-y="0" 
d="M181 603q70 0 119 -26t74 -69t25 -91q0 -71 -50.5 -124.5t-141.5 -61.5q44 -3 79 -36.5t83 -98.5q54 -74 95.5 -111.5t99.5 -37.5q73 0 116 47q5 6 9 6q5 0 5 -4q0 -5 -7 -10q-21 -18 -50 -31t-75 -13q-60 0 -106.5 25t-78 60t-71.5 90q-42 59 -70 86t-64 27h-47v5h56
q84 0 131.5 53.5t47.5 127.5t-47.5 128t-131.5 54h-56q-18 0 -17 -20v-553q0 -22 48 -20v-5h-136v5q27 0 37.5 4.5t10.5 15.5v553q0 23 -48 21v4h161zM529 603v-4q-27 0 -38 -4.5t-11 -16.5v-406q0 -46 27.5 -71t66.5 -25q41 0 72 28.5t31 79.5l-7 394q0 12 -10.5 16.5
t-37.5 4.5v4h109v-4q-26 0 -37 -4.5t-11 -16.5v-394q0 -61 -36 -95t-85 -34t-85 34t-36 95v394q0 23 -48 21v4h136z" />
    <glyph glyph-name="R_R.dlig" unicode="&#xe122;" horiz-adv-x="858" vert-adv-y="0" 
d="M181 603q70 0 119 -26t74 -69t25 -91q0 -71 -50.5 -124.5t-141.5 -61.5q44 -3 79 -36.5t83 -98.5q54 -74 95.5 -111.5t99.5 -37.5q73 0 116 47q5 6 9 6q5 0 5 -4q0 -5 -7 -10q-21 -18 -50 -31t-75 -13q-60 0 -106.5 25t-78 60t-71.5 90q-42 59 -70 86t-64 27h-47v5h56
q84 0 131.5 53.5t47.5 127.5t-47.5 128t-131.5 54h-56q-18 0 -17 -20v-553q0 -22 48 -20v-5h-136v5q27 0 37.5 4.5t10.5 15.5v553q0 23 -48 21v4h161zM577 603q70 0 119 -26t74 -69t25 -91q0 -71 -50 -124.5t-141 -61.5q55 -10 84.5 -45t59.5 -96q23 -47 41.5 -72t48.5 -33
v-2q-60 6 -90.5 40t-59.5 97q-26 56 -50 83t-70 27h-47v5h56q85 0 132 53.5t47 127.5t-47 128t-132 54h-56q-18 0 -17 -20v-494q0 -23 48 -20v-5h-136v5q27 0 37.5 4.5t10.5 15.5v494q0 23 -48 21v4h161z" />
    <glyph glyph-name="S_S.dlig" unicode="&#xe123;" horiz-adv-x="612" vert-adv-y="0" 
d="M260 558q3 -3 5 -3q3 0 3 5v1l-2 46h4l23 -186l-3 -1q-19 100 -54 141t-80 41q-38 0 -62 -25t-24 -61q0 -43 28.5 -78.5t86.5 -85.5q66 -57 99.5 -100.5t33.5 -100.5q0 -73 -41.5 -115t-104.5 -42q-25 0 -47 6q77 -37 176 -37q107 0 183 44.5t76 124.5q0 54 -31.5 94.5
t-93.5 95.5q-59 51 -88 88t-29 84q0 51 32 82.5t79 31.5q59 0 105 -50q3 -3 5 -3q3 0 3 5v1l-3 46h5l23 -186l-3 -1q-18 95 -53.5 138.5t-81.5 43.5q-37 0 -61 -25t-24 -61q0 -43 28.5 -78.5t86.5 -85.5q65 -57 99 -101t34 -101q0 -93 -83.5 -143.5t-200.5 -50.5
q-63 0 -122 16t-101 47q-17 11 -32 27q-3 4 -4 4q-3 0 -3 -6v-1l3 -53h-5l-24 190l4 1q17 -91 61 -135.5t93 -44.5q46 0 77.5 35.5t31.5 86.5q0 59 -32.5 102.5t-96.5 99.5q-57 51 -85 87t-28 82q0 51 31.5 82.5t79.5 31.5q59 0 104 -50z" />
    <glyph glyph-name="S_T.dlig" unicode="&#xe124;" horiz-adv-x="572" vert-adv-y="0" 
d="M534 608l18 -142l-5 -1q-13 72 -40.5 102.5t-69.5 30.5h-12q-18 0 -17 -20v-553q0 -22 48 -20v-5h-136v5q27 0 37.5 4.5t10.5 15.5v553q0 11 -4 15.5t-13 4.5h-163q-54 0 -86 -21t-32 -61q0 -43 28.5 -78t86.5 -85q66 -57 99.5 -100.5t33.5 -100.5q0 -74 -41.5 -116
t-104.5 -42q-72 0 -119 53q-3 3 -4 3q-3 0 -3 -5v-1l3 -54h-5l-24 190l5 1q24 -93 65 -136.5t88 -43.5q46 0 77.5 35.5t31.5 86.5q0 60 -32.5 103.5t-96.5 99.5q-57 50 -85 86t-28 82q0 56 39 83t104 27h334q7 0 9 4h3z" />
    <glyph glyph-name="Z_Z.dlig" unicode="&#xe125;" horiz-adv-x="543" vert-adv-y="0" 
d="M45 608q2 -5 9 -5h227v-4l-217 -593h53q32 0 56 13.5t49.5 51.5t58.5 110h3l-68 -186h-3q-2 5 -9 5h-184v5l217 592h-54q-76 0 -109 -26.5t-46 -101.5l-3 1l17 138h3zM322 608q2 -5 9 -5h187v-4l-217 -593h58q71 0 105.5 28t47.5 99l8 48h3l-23 -186h-3q-2 5 -9 5h-231v5
l217 592h-43q-54 0 -87.5 -26.5t-68.5 -101.5l-3 1l47 138h3z" />
    <glyph glyph-name="M_E.dlig" unicode="&#xe126;" horiz-adv-x="617" vert-adv-y="0" 
d="M569 608l18 -143h-4q-13 76 -44.5 104.5t-105.5 28.5h-28q-18 0 -17 -20v-238h43q32 0 43 26.5t14 68.5h4v-196h-4q-3 43 -14 69t-43 26h-43v-309q0 -11 4 -15t13 -4h28q76 0 107.5 26t44.5 101l9 49l3 -1l-23 -186h-3q-2 5 -9 5h-261v5q26 0 37 4.5t11 15.5v533
l-134 -564h-3l-137 563l6 -532q0 -11 11 -15.5t37 -4.5v-5h-109v5q27 0 37.5 4.5t10.5 15.5v553q0 23 -48 21v4h85l125 -519l117 519h210q7 0 10 5h2z" />
    <glyph glyph-name="N_E.dlig" unicode="&#xe127;" horiz-adv-x="546" vert-adv-y="0" 
d="M334 597q-18 0 -17 -19v-238h43q31 0 42.5 26.5t14.5 68.5h4v-196h-4q-3 43 -14 69t-43 26h-43v-309q0 -11 4 -15t13 -4h27q76 0 108 26t45 101l8 48h4l-24 -186h-2q-3 5 -10 5h-182l-233 568l6 -543q0 -11 11 -15.5t37 -4.5v-5h-109v5q27 0 37.5 4.5t10.5 15.5v553
q0 23 -48 21v4h83l206 -500l-6 475q0 11 -10.5 16t-37.5 5v4h231q7 0 9 5h3l17 -143h-3q-13 76 -44.5 104t-106.5 28h-27z" />
    <glyph glyph-name="g_a.dlig" unicode="&#xe128;" horiz-adv-x="542" vert-adv-y="0" 
d="M311 448.5q13 -20.5 13 -58.5q0 -15 -5.5 -23t-13.5 -8t-13.5 8t-5.5 23q0 34 -6.5 50t-17.5 16q-13 0 -25 -21t-13 -50q9 -36 9 -83q0 -69 -22 -118t-73 -49q-24 0 -42 12l-16 -33q-6 -14 -6 -27q0 -20 18 -33t56 -14q66 -2 90 -19.5t24 -53.5q0 -31 -23 -64.5
t-60.5 -56t-75.5 -22.5q-41 0 -62 18.5t-21 52.5q0 46 36 112q4 6 8 6q5 0 5 -5q0 -3 -2 -6q-39 -52 -39 -88q0 -26 21 -40.5t63 -14.5q58 0 99.5 29.5t42.5 62.5q0 24 -19 36.5t-69 12.5h-1q-58 0 -85 13.5t-37 43.5l49 93q-26 20 -37.5 61.5t-11.5 90.5q0 69 22 118t73 49
q56 0 80 -67q7 32 23.5 50t35.5 18h2q19 -1 32 -21.5zM459 440q25 -30 25 -84v-312q0 -21 7 -30t31 -9v-5h-16q-62 0 -62 62v105q-14 -82 -51 -125.5t-76 -43.5q-27 0 -44 21t-17 58t20.5 64.5t63.5 65.5q51 46 77.5 83.5t26.5 92.5q0 38 -14.5 60t-41.5 22q-25 0 -52 -26
q-4 -4 -7 -4q-4 0 -4 4q0 3 5 7q30 24 68 24q36 0 61 -30zM90.5 427q-8.5 -37 -8.5 -112q0 -65 19 -120t50 -55q27 0 35 36t8 113q0 66 -18.5 120.5t-50.5 54.5q-26 0 -34.5 -37zM444 333q-9 -33 -26.5 -56.5t-48.5 -53.5q-37 -37 -55.5 -65t-18.5 -70q0 -31 13 -48.5
t33 -17.5q24 0 48 26t39.5 78.5t15.5 128.5v78z" />
    <glyph glyph-name="D_G.dlig" unicode="&#xe129;" horiz-adv-x="829" vert-adv-y="0" 
d="M743 550q3 -2 6 -2q5 0 5 7v1l-3 53h5l23 -186l-5 -1q-17 83 -87 132.5t-155 49.5h-1q-46 0 -89.5 -16t-77.5 -49q45 -40 69.5 -101t24.5 -136q0 -72 -23 -131.5t-65 -99.5q35 -31 78 -47t87 -16q57 0 106.5 25.5t79.5 75.5t30 119v15q0 23 -48 20v5h106v-5
q-18 0 -18 -20v-247h-4l-23 192h-4q-14 -90 -83.5 -141t-159.5 -51q-96 0 -170 56q-68 -52 -161 -52h-166v5q27 0 37.5 4.5t10.5 16.5v553q0 22 -48 20v5h166q94 0 162 -52q74 57 177 57q130 0 218 -59zM125 602q-18 0 -17 -19v-553q0 -11 4 -15.5t13 -4.5h61q88 0 148 57
q-46 40 -71.5 100t-25.5 139q0 148 97 238q-59 58 -148 58h-61zM277 306q0 -135 77 -216q64 81 64 216q0 141 -69 222q-72 -81 -72 -222z" />
    <glyph glyph-name="uniFB05" unicode="&#xfb05;" horiz-adv-x="349" vert-adv-y="0" 
d="M68 469q0 86 32.5 132t75.5 46q30 0 51.5 -24t21.5 -65v-91h78v-8h-78v-397q0 -50 29 -50q15 0 27 20.5t12 53.5q0 14 -3 34q-2 13 -2 19q0 9 6 9q4 0 7.5 -5.5t3.5 -16.5q0 -64 -18 -96t-46 -32q-24 0 -40 22t-16 60v379h-48v6q37 0 58.5 28t21.5 65q0 38 -18 60t-43 22
q-29 0 -50.5 -30t-21.5 -85v-500q0 -22 48 -20v-5h-136v5q27 0 37.5 4.5t10.5 15.5v444z" />
    <glyph glyph-name="uniFB06" unicode="&#xfb06;" horiz-adv-x="431" vert-adv-y="0" 
d="M181 435.5q-24 30.5 -67 30.5q-28 0 -45.5 -16t-17.5 -44q0 -29 20 -54.5t62 -63.5q51 -47 77.5 -83.5t26.5 -83.5q0 -55 -28.5 -87.5t-79.5 -32.5q-56 0 -91 43q-4 5 -7 5q-2 0 -3 -8l-3 -41h-5v180h3q9 -93 39 -133.5t67 -40.5q32 0 54 25.5t22 72.5q0 44 -23.5 76
t-69.5 75q-43 40 -64 69t-21 66q0 31 22 56t65 25q19 0 49 -7q17 -4 23 -4q13 0 14 10q-20 47 -20 86q0 41 21.5 65t56.5 24q30 0 51.5 -23.5t21.5 -61.5v-91h78v-8h-78v-397q0 -50 29 -50q15 0 27 20.5t12 53.5q0 14 -2 34q-2 13 -2 19q0 9 5 9q4 0 7.5 -5.5t3.5 -16.5
q0 -64 -17.5 -96t-46.5 -32q-24 0 -40 22t-16 60v379h-48v6q38 0 60 28t22 65q0 30 -17 48t-41 18q-28 0 -47.5 -26.5t-19.5 -80.5q0 -22 4 -48l18 -133q-1 -1 -2 -1h-1q-14 68 -38 98.5z" />
    </font>
</defs>
</svg>
