<?xml version="1.0" standalone="no"?>
<!DOCTYPE svg PUBLIC "-//W3C//DTD SVG 1.1//EN" "http://www.w3.org/Graphics/SVG/1.1/DTD/svg11.dtd" >
<svg xmlns="http://www.w3.org/2000/svg" xmlns:xlink="http://www.w3.org/1999/xlink" version="1.1">
<metadata>
Created by FontForge 20201107 at Wed Sep 25 07:29:11 2024
 By 
Typeface (c) (Kong Font). 2020. All Rights Reserved (kongvector@gmail.com).
</metadata>
<defs>
<font id="DeathRecord" horiz-adv-x="1013" >
  <font-face 
    font-family="Death Record"
    font-weight="400"
    font-stretch="normal"
    units-per-em="2048"
    panose-1="2 0 6 0 0 0 0 0 0 0"
    ascent="1638"
    descent="-410"
    x-height="813"
    cap-height="1346"
    bbox="-625 -555 2048 2001"
    underline-thickness="102"
    underline-position="-204"
    unicode-range="U+001D-FB02"
  />
<missing-glyph horiz-adv-x="884" 
d="M854 0h-823v1434h823v-1434zM805 49v1335h-725v-1335h725zM408 455h-31q-35 88 -35 147q0 75 80 217q82 143 82 217q0 57 -32.5 90t-90.5 33q-61 0 -125 -55v45q80 72 170 72q91 0 147 -46t56 -128q0 -51 -24.5 -102t-84.5 -128q-54 -66 -100 -131q-35 -53 -35 -98
q0 -30 23 -133zM397 213q-10 0 -20 10l-62 72q-6 6 -6 16q0 13 10 23l58 57q7 10 20 10q8 0 21 -10l57 -59q8 -11 8 -21q0 -9 -10 -22l-55 -62q-14 -14 -21 -14z" />
    <glyph glyph-name=".notdef" horiz-adv-x="884" 
d="M854 0h-823v1434h823v-1434zM805 49v1335h-725v-1335h725zM408 455h-31q-35 88 -35 147q0 75 80 217q82 143 82 217q0 57 -32.5 90t-90.5 33q-61 0 -125 -55v45q80 72 170 72q91 0 147 -46t56 -128q0 -51 -24.5 -102t-84.5 -128q-54 -66 -100 -131q-35 -53 -35 -98
q0 -30 23 -133zM397 213q-10 0 -20 10l-62 72q-6 6 -6 16q0 13 10 23l58 57q7 10 20 10q8 0 21 -10l57 -59q8 -11 8 -21q0 -9 -10 -22l-55 -62q-14 -14 -21 -14z" />
    <glyph glyph-name=".notdef" horiz-adv-x="884" 
d="M854 0h-823v1434h823v-1434zM805 49v1335h-725v-1335h725zM408 455h-31q-35 88 -35 147q0 75 80 217q82 143 82 217q0 57 -32.5 90t-90.5 33q-61 0 -125 -55v45q80 72 170 72q91 0 147 -46t56 -128q0 -51 -24.5 -102t-84.5 -128q-54 -66 -100 -131q-35 -53 -35 -98
q0 -30 23 -133zM397 213q-10 0 -20 10l-62 72q-6 6 -6 16q0 13 10 23l58 57q7 10 20 10q8 0 21 -10l57 -59q8 -11 8 -21q0 -9 -10 -22l-55 -62q-14 -14 -21 -14z" />
    <glyph glyph-name=".null" horiz-adv-x="0" 
 />
    <glyph glyph-name="nonmarkingreturn" horiz-adv-x="682" 
 />
    <glyph glyph-name="space" unicode=" " horiz-adv-x="749" 
 />
    <glyph glyph-name="space" unicode="&#xa0;" horiz-adv-x="749" 
 />
    <glyph glyph-name="exclam" unicode="!" horiz-adv-x="385" 
d="M31 1362q211 8 319 10q-33 -116 -42.5 -252.5t-11 -297t-11.5 -257.5q2 -8 2 -22q0 -36 -19.5 -73t-39 -57.5t-56.5 -54.5q-17 106 -28 235t-14 211.5t-7 244t-6 219.5q-53 61 -86 94zM76 162q57 51 129 51q67 0 149 -45q-78 -89 -143 -164q-19 23 -65.5 76.5t-69.5 81.5
z" />
    <glyph glyph-name="quotedbl" unicode="&#x22;" horiz-adv-x="755" 
d="M123 809q-7 34 -31.5 106.5t-42.5 141t-18 119.5q0 70 38.5 110t131.5 41v-31q0 -288 -78 -487zM485 805q-110 182 -110 348q0 122 65 223l148 -131q-65 -303 -103 -440z" />
    <glyph glyph-name="numbersign" unicode="#" horiz-adv-x="1167" 
d="M449 1331q113 0 227 -6q-2 -9 -98 -377q34 -6 59 -6q53 0 90.5 24.5t58 69.5t33 89t26 105t25.5 95l265 8q-33 -19 -59.5 -47t-42.5 -52t-33 -67t-23.5 -65.5t-20 -74.5t-18.5 -69q24 1 99 5.5t100 5.5q-4 -82 -4 -160q-36 -3 -117.5 -11t-124.5 -12q-3 -11 -22.5 -86
t-26.5 -104h217q-22 -67 -62 -170q-24 1 -99 3t-99 3q-7 -23 -41 -141t-53 -182q13 -11 48 -44t48 -45q-144 12 -287 15q37 133 111 395q-25 0 -97.5 -1t-95.5 -1q-20 -69 -55.5 -200.5t-52.5 -190.5q-119 -9 -238 -27q45 58 81 135t54 134t43 149q-86 3 -233 8
q4 38 19.5 66.5t31.5 45t49.5 30.5t52 19.5t62.5 14.5t59 13q9 21 36 82t36 81q-141 10 -230 13q40 137 46 160q38 1 112.5 2t112.5 2q39 172 39 268q0 54 -8 98zM477 596h187q15 39 39.5 107.5t29.5 82.5q-124 10 -194 13q-4 -14 -27 -88t-35 -115z" />
    <glyph glyph-name="dollar" unicode="$" horiz-adv-x="831" 
d="M225 1507q155 3 310 9q-38 -135 -46 -175q37 -22 191 -108q1 -32 4 -100t4 -103q-130 105 -190 150q-4 -234 -4 -361q114 -73 150 -103q116 -97 116 -210q0 -11 -4 -39q-1 -30 -9 -58t-18.5 -50t-31 -46t-36 -39t-44 -36.5t-44.5 -32.5t-48.5 -32t-45.5 -30
q62 -114 74 -137q-104 4 -320 8q49 52 127 140q-165 69 -309 118q-2 44 -7 126.5t-7 119.5q96 -73 285 -203q2 55 3 115.5t1.5 134t1.5 113.5q-24 17 -74 49.5t-82 55.5t-68 57t-54 75t-19 89v22q0 45 16 85.5t39.5 70.5t60.5 62t68 53t74.5 50t68.5 48q-17 14 -66.5 55.5
t-66.5 56.5zM508 575q-18 -15 -29.5 -47t-11.5 -67q0 -88 61 -88h9q20 15 31.5 47t11.5 67q0 38 -15.5 63t-46.5 25h-10zM332 901q24 57 24 121q0 103 -67 137q-42 -6 -63 -41.5t-21 -83.5q0 -56 25.5 -98.5t66.5 -42.5q19 0 35 8z" />
    <glyph glyph-name="percent" unicode="%" horiz-adv-x="1476" 
d="M197 1305q47 20 102 20q110 0 195.5 -73.5t85.5 -182.5q0 -4 -5 -39q3 -18 3 -35q0 -103 -83 -176.5t-190 -73.5q-24 0 -59 7q-101 11 -158 93.5t-57 188.5q0 92 42.5 167t123.5 104zM123 1053q48 -91 113 -205l93 34q93 34 126 48q-1 6 -5 42t-5.5 45t-7 40t-10.5 43
t-15 36.5t-21 38t-28 29t-37 27.5q-116 -72 -203 -178zM907 1315q214 -4 322 -8q-119 -72 -154 -95q-51 -111 -129.5 -238.5t-152.5 -237t-147.5 -225.5t-133 -244.5t-90.5 -252.5q-41 2 -125 2q-91 0 -180 -6q93 85 171.5 197.5t166.5 266t135 224.5q32 59 90.5 147
t99.5 150.5t78.5 149.5t48.5 170zM870 573q62 43 148 43q94 0 173 -54t103 -144q21 -50 21 -103q0 -121 -83.5 -216t-201.5 -95q-4 0 -13 1t-13 1q-121 3 -194 96t-73 215q0 80 34 148t99 108zM967 449q-36 -16 -55 -53t-19 -81q0 -63 34 -110t91 -47q9 0 29 4
q55 10 82.5 49t27.5 92q0 64 -35.5 113t-91.5 49q-32 0 -63 -16z" />
    <glyph glyph-name="ampersand" unicode="&#x26;" horiz-adv-x="1232" 
d="M190 1221q83 122 244 122q134 0 334 -92q-3 -114 -6 -231q-23 16 -65.5 52t-71 58t-70 41t-80.5 19q-34 0 -80 -19q-50 -18 -77 -61.5t-27 -97.5q0 -66 41 -119q35 -58 88.5 -122.5t84.5 -97.5t112.5 -112.5t97.5 -95.5q11 22 47.5 86t54 110.5t17.5 94.5q0 9 -5 39
q41 -2 121 -2q133 0 240 8q-41 -23 -80.5 -56t-67.5 -62.5t-63 -77t-53.5 -76t-54 -84.5t-50.5 -80q196 -196 316 -334q-14 -2 -41 -2q-204 0 -363 194q-14 -11 -65 -52t-75 -57t-68 -42t-83.5 -36.5t-81.5 -10.5q-24 0 -36 2q-120 0 -206.5 91.5t-86.5 211.5v24
q0 56 23 112.5t50 93t72 92.5t66 87q-5 12 -23.5 50t-26 54.5t-22 51t-20.5 57t-11.5 52.5t-5.5 57q0 89 57 160zM229 248q54 -62 129 -62q127 0 289 162q-24 25 -122 128.5t-152 158.5q-6 -6 -37.5 -38.5t-43 -45.5t-36.5 -44t-35.5 -51t-20.5 -48.5t-10 -53.5
q0 -59 39 -106z" />
    <glyph glyph-name="quotesingle" unicode="'" horiz-adv-x="468" 
d="M141 846q-5 14 -30.5 78t-39 101.5t-27 93.5t-13.5 98q0 138 137 165q65 -65 65 -163q0 -70 -42.5 -202t-49.5 -171z" />
    <glyph glyph-name="parenleft" unicode="(" horiz-adv-x="765" 
d="M319 1767q153 6 306 15q-97 -45 -169.5 -121.5t-114.5 -163t-67.5 -196t-34 -206t-8.5 -208.5v-78q4 -72 10 -132t19 -136t31.5 -137.5t49 -126t70 -113.5t96.5 -89t126 -61q-14 2 -47 2q-24 0 -71.5 -2t-70.5 -2q-77 0 -127 17q-142 178 -214 399.5t-72 458.5
q0 239 73.5 467t214.5 413z" />
    <glyph glyph-name="parenright" unicode=")" horiz-adv-x="763" 
d="M35 1778q153 -12 309 -21q140 -184 213.5 -412.5t73.5 -465.5q0 -234 -72.5 -455.5t-212.5 -400.5q-49 -21 -119 -21q-27 0 -84 4t-86 4h-26q69 20 125.5 60t95.5 87.5t69.5 113.5t48.5 126t31 137t18.5 135.5t10.5 131.5v76q0 113 -8.5 209.5t-34 206.5t-67.5 197
t-114.5 164.5t-170.5 123.5z" />
    <glyph glyph-name="asterisk" unicode="*" horiz-adv-x="802" 
d="M315 1227q15 15 61 58.5t62 57.5q45 -70 45 -161q0 -25 -4 -56.5t-7.5 -49t-13.5 -60t-12 -51.5q19 12 92.5 59.5t100.5 65.5q29 26 51 26q16 0 28.5 -12.5t21 -36t14 -42t11 -47.5t7.5 -36q-36 -3 -144.5 -13.5t-144.5 -13.5l41.5 -41.5t46.5 -48t36 -43.5t36.5 -53.5
t20.5 -52.5t12 -64q-31 3 -87 10t-77 9q-6 16 -94 248q-41 -106 -89.5 -182t-123.5 -122q-29 88 -51 168q7 6 87.5 69.5t123.5 96.5q-13 1 -44.5 2.5t-46.5 3t-44 4.5t-44.5 7t-39 11t-37 16.5t-30 23.5t-25.5 31t-15.5 40.5t-7.5 51.5q87 0 169 -30t187 -87
q-32 106 -72 244z" />
    <glyph glyph-name="plus" unicode="+" horiz-adv-x="772" 
d="M233 1608q184 -4 281 -4q-31 -129 -57 -289q148 21 284 80q-2 -90 -2 -275q-146 39 -282 62q26 -136 59 -254q-160 0 -285 -8q61 106 95 260q-114 -14 -293 -56q0 20 1 59t1 58q0 58 -4 164q41 -26 97.5 -45.5t86.5 -25t107 -19.5q-26 192 -89 293z" />
    <glyph glyph-name="comma" unicode="," horiz-adv-x="292" 
d="M145 559q20 -22 59 -64t58 -63q-67 -308 -104 -430q-31 63 -57 146.5t-37 131.5t-33 154q69 73 114 125z" />
    <glyph glyph-name="hyphenminus" unicode="-" horiz-adv-x="675" 
d="M37 680q15 -19 86 -96q289 0 432 -2q11 13 43.5 50.5t44.5 49.5v-86q0 -139 2 -211q-140 35 -307 35q-164 0 -307 -35q2 44 3 94t1.5 109.5t1.5 91.5z" />
    <glyph glyph-name="hyphenminus" unicode="&#xad;" horiz-adv-x="675" 
d="M37 680q15 -19 86 -96q289 0 432 -2q11 13 43.5 50.5t44.5 49.5v-86q0 -139 2 -211q-140 35 -307 35q-164 0 -307 -35q2 44 3 94t1.5 109.5t1.5 91.5z" />
    <glyph glyph-name="period" unicode="." horiz-adv-x="344" 
d="M111 203q4 2 14 2q39 0 66.5 -45t27.5 -92q0 -60 -43 -60q-16 0 -39 10h-14q-45 0 -68.5 23.5t-23.5 58.5q0 32 21 61t59 42z" />
    <glyph glyph-name="slash" unicode="/" horiz-adv-x="905" 
d="M594 1354q139 0 280 6q-85 -133 -163.5 -304.5t-129.5 -313.5t-121.5 -329t-129.5 -317q69 -69 84 -82q-41 2 -123 2q-117 0 -260 -10q77 60 126 147t95.5 220t69.5 182q27 79 75.5 195t83.5 200t68.5 195t44.5 209z" />
    <glyph glyph-name="zero" unicode="0" horiz-adv-x="1396" 
d="M446 1257q80 27 160 27q112 0 217.5 -50.5t183 -132.5t124.5 -192.5t47 -224.5v-6q4 -25 4 -74q0 -117 -46 -230.5t-122.5 -200t-183.5 -140t-222 -53.5q-83 0 -162 26q-133 39 -228.5 137t-140 223t-44.5 265t44.5 265t140 223.5t228.5 137.5zM373 938
q-50 -55 -75.5 -135t-25.5 -168q0 -105 34.5 -196t109 -151.5t176.5 -60.5q5 0 14.5 1t14.5 1h2q63 0 115.5 23t88.5 62.5t61 92t36.5 110t11.5 118.5q0 126 -43 219q-34 88 -115 137t-176 49q-143 0 -229 -102z" />
    <glyph glyph-name="one" unicode="1" horiz-adv-x="468" 
d="M31 1333q31 0 95 -1t95 -1t96 1t97 1q-65 -110 -90 -240.5t-25 -291.5q0 -81 7 -245.5t7 -244.5q0 -86 -6 -166q66 -70 131 -135q-238 0 -407 -10q59 315 59 668t-59 665z" />
    <glyph glyph-name="two" unicode="2" horiz-adv-x="1189" 
d="M82 862q-12 52 -12 99q0 88 42.5 162.5t112 122t156.5 74t178 26.5q163 0 283.5 -82.5t142.5 -239.5q14 -55 14 -111q0 -82 -30 -161.5t-85 -152t-108.5 -130.5t-126 -132t-112.5 -122q30 5 108.5 16.5t119.5 19t103 23t112.5 38.5t96.5 55q-16 -234 -22 -351
q-178 12 -520.5 19t-503.5 16q42 63 106.5 127t129.5 116l135 108t130 114t108.5 121t76.5 140.5t28 162.5q0 60 -16 135q-68 10 -117 10q-286 0 -530 -223z" />
    <glyph glyph-name="three" unicode="3" horiz-adv-x="1017" 
d="M51 983q-8 33 -8 70q0 96 58 169t144.5 108.5t184.5 35.5q127 0 225.5 -62t124.5 -180q17 -44 17 -92q0 -37 -12 -76t-26.5 -67.5t-45 -68.5t-47.5 -60t-54 -60q-12 -13 -18 -20q110 -62 176 -168.5t66 -224.5q0 -129 -80 -234q-113 -170 -340 -170q-173 0 -357 99
q-12 114 -28 217q19 -7 85 -34.5t101.5 -40.5t91 -26.5t99.5 -13.5q141 0 213 127q20 56 20 104q0 57 -32 105t-67 75.5t-111 56.5t-109 38t-117 29q-10 3 -15 4q29 37 83 73.5t107 65t102.5 61t80.5 75.5t31 95q0 46 -31 113q-71 57 -155 57q-46 0 -93 -15t-98.5 -47
t-81.5 -54t-84 -64z" />
    <glyph glyph-name="four" unicode="4" horiz-adv-x="1146" 
d="M623 1329q342 12 344 12q-67 -78 -93 -172.5t-26 -212.5q0 -56 7 -172t7 -172q0 -32 -4 -94q43 14 129 39t129 39q-4 -140 -4 -209q0 -25 1 -75t1 -74q-74 32 -268 120q0 -126 24.5 -226t92.5 -179q-144 4 -215 4q-26 0 -77 -1t-75 -1q37 155 72 373q-2 0 -637 6
q60 101 154.5 243t165 246t147.5 242.5t125 263.5zM629 952q-15 -26 -102 -179.5t-134 -235.5q66 2 262 2q-15 269 -26 413z" />
    <glyph glyph-name="five" unicode="5" horiz-adv-x="1011" 
d="M55 1341q64 0 198.5 -10t201.5 -10q219 0 358 90q-2 -55 -2 -168q0 -111 2 -168q-174 39 -500 55q-2 -109 -2 -329q36 -7 100 -14t108.5 -14.5t97 -22t96 -43.5t75.5 -72q103 -118 103 -287q0 -146 -77.5 -270t-211.5 -168q-76 -33 -164 -33q-59 0 -130.5 16.5
t-117.5 33.5t-124 48q-12 66 -35 224q41 -13 121 -46.5t145 -53t125 -19.5q50 0 96 14q81 24 125.5 94t44.5 156q0 72 -32 134.5t-91 96.5q-68 46 -157 46q-56 0 -162 -23t-142 -27q0 45 2.5 136.5t2.5 136.5q0 291 -54 497z" />
    <glyph glyph-name="six" unicode="6" horiz-adv-x="1214" 
d="M285 1391q90 0 362 -9q-165 -342 -229 -471q37 -9 113 -23t122 -25t105.5 -37.5t101.5 -65.5q76 -67 116 -164.5t40 -204.5q0 -126 -54 -236.5t-155 -174.5q-121 -84 -279 -84q-106 0 -203.5 38t-171.5 114.5t-102 178.5q-20 70 -20 148q0 86 27 182.5t66 184l78 175
t66 184t27 183.5q0 61 -10 107zM338 625q-54 -38 -81.5 -97t-27.5 -125q0 -74 30.5 -141.5t90.5 -113t137 -48.5q32 -4 45 -4q115 0 200 89.5t85 203.5q0 39 -12 80q-17 99 -100 157t-187 58q-107 0 -180 -59z" />
    <glyph glyph-name="seven" unicode="7" horiz-adv-x="1114" 
d="M37 1393q33 -43 104 -125h367q347 0 575 24q-18 -18 -70.5 -61t-82.5 -79.5t-43 -82.5q-67 -180 -182 -532.5t-175 -518.5l115 -106q-336 -8 -504 -10q21 13 81 52t81 52q195 587 354 1057h-135q-310 0 -491 -51q6 194 6 381z" />
    <glyph glyph-name="eight" unicode="8" horiz-adv-x="1318" 
d="M207 748q-90 115 -90 262q0 76 25 146.5t70.5 126t115.5 90t153 36.5h29q110 0 197 -58.5t131.5 -149.5t44.5 -195q0 -151 -88 -261q88 -70 132 -169t44 -209q0 -125 -52.5 -235.5t-155.5 -182.5t-235 -72q-35 0 -53 2h-2q-102 0 -187 41t-140 109t-85 154.5t-30 178.5
q0 111 44.5 213t131.5 173zM367 1155q-62 -56 -62 -127q0 -78 64 -140.5t141 -62.5q73 0 125 58q57 51 57 125q0 78 -62 142t-138 64q-69 0 -125 -59zM338 582q-55 -34 -84 -94.5t-29 -129.5q0 -67 27.5 -126.5t79.5 -96.5q63 -55 157 -55q109 0 197 74t88 180q0 13 -4 41
v14q0 107 -83.5 173.5t-192.5 66.5q-92 0 -156 -47z" />
    <glyph glyph-name="nine" unicode="9" horiz-adv-x="1253" 
d="M113 686q-82 116 -82 256q0 116 51 222t147.5 177t216.5 80q57 11 95 11q124 0 235.5 -65t179.5 -175t68 -234q0 -64 -16 -116q-51 -176 -184 -486.5t-171 -414.5q-241 8 -364 10q60 26 107 68.5t81 100.5t56 106.5t51 123t47 113.5q-25 4 -80 13t-86 14.5t-80.5 17
t-82.5 26t-71 35t-67 50.5t-51 67zM317 1145q-84 -72 -84 -191q0 -63 26.5 -120t74.5 -93q72 -61 188 -61q74 0 140.5 28t110.5 86t44 134v6q2 12 2 33q0 76 -45 136.5t-113.5 92t-144.5 31.5q-126 0 -199 -82z" />
    <glyph glyph-name="colon" unicode=":" horiz-adv-x="374" 
d="M31 809q15 16 40.5 44.5t46.5 51.5t40 43q31 -32 129 -125q-19 -19 -121 -116q-98 75 -135 102zM92 209q22 37 51 37q27 0 81 -40t73 -46q-25 -24 -75.5 -74t-74.5 -74q-7 20 -51.5 72t-44.5 78q0 27 41 47z" />
    <glyph glyph-name="semicolon" unicode=";" horiz-adv-x="421" 
d="M31 1104q47 45 145 127q84 -53 158 -113q-64 -67 -148 -67q-73 0 -155 53zM190 -2q-2 4 -22 52.5t-26 63t-21.5 57.5t-21 67t-11.5 58t-6 62q0 150 139 207q53 -83 53 -192q0 -44 -9 -96.5t-19.5 -90t-29 -98.5t-26.5 -90z" />
    <glyph glyph-name="less" unicode="&#x3c;" horiz-adv-x="747" 
d="M346 680q182 6 371 18q-66 -26 -128.5 -64t-124 -89.5t-105 -92t-107.5 -104.5q127 -127 233 -213t228 -141q-153 15 -367 22q-14 14 -53.5 52t-57.5 55.5t-51.5 51.5t-55 57.5t-48.5 54t-49 59.5q26 36 54.5 70t67 74t59 60t71.5 69t63 61z" />
    <glyph glyph-name="equal" unicode="=" horiz-adv-x="792" 
d="M31 387q238 -4 356 -4q60 0 178.5 1t177.5 1q0 -29 1 -112.5t1 -110.5q-11 12 -45 51t-47 53q-96 -2 -291 -2q-143 0 -215 2q-72 -67 -106 -96q-1 27 -5 108.5t-5 108.5zM33 774l112 -112q168 4 508 4q69 69 109 112q-3 -44 -10.5 -133t-10.5 -133q-40 0 -118.5 1
t-118.5 1q-262 0 -473 -8q0 180 2 268z" />
    <glyph glyph-name="greater" unicode="&#x3e;" horiz-adv-x="761" 
d="M37 713q212 -14 360 -19q221 -221 334 -332q-57 -55 -334 -333q-209 -3 -366 -19q65 27 127 65t124.5 90.5t105 92t108.5 104.5q-90 88 -145 137.5t-143 113t-171 100.5z" />
    <glyph glyph-name="question" unicode="?" horiz-adv-x="849" 
d="M238 133q54 57 118 57q68 0 160 -63q-35 -37 -141 -143q-4 4 -137 149zM45 1231q29 11 86.5 34.5t93.5 37.5t87 26t94 12q59 0 112 -20q99 -22 166.5 -106t67.5 -183q0 -73 -43 -137q-33 -40 -82.5 -77.5t-97 -66t-95 -60t-88 -74.5t-63.5 -95q155 5 344 25
q-14 -93 -86.5 -144t-165.5 -51q-94 0 -165.5 51.5t-84.5 145.5q0 4 -1 11t-1 11q0 49 23.5 91t61 72.5t82.5 59t90 55.5t82.5 55t61 64.5t23.5 78.5q0 43 -29 100q-66 35 -135 35q-169 0 -352 -207q6 82 14 256z" />
    <glyph glyph-name="at" unicode="@" horiz-adv-x="1568" 
d="M78 956q41 133 141.5 229t228.5 141.5t269 45.5q135 0 257.5 -41t222 -128.5t146.5 -209.5q52 -161 52 -293q0 -181 -95 -301q-49 -55 -118 -55q-111 0 -230 115q-159 -117 -272 -117q-60 0 -117 29q-95 39 -145.5 131.5t-50.5 202.5q0 129 68 230.5t190 125.5
q31 -2 152.5 -11.5t187.5 -9.5q32 0 98 4v-47q0 -34 -1 -101t-1 -101q0 -192 37 -314q27 -8 51 -8q115 0 115 203q0 2 -7 125q-10 102 -61 187t-128.5 140t-172.5 85t-195 30q-221 0 -368 -135q-84 -76 -127 -184.5t-43 -227.5q0 -139 59 -264t168 -201q131 -94 309 -94
q211 0 402 121v-6q0 -72 -28 -121.5t-79.5 -74t-106.5 -34.5t-126 -10q-36 0 -187 11q-159 26 -284.5 130t-191.5 250.5t-66 305.5q0 133 47 247zM584 854q-58 -58 -58 -156q0 -84 47 -146.5t129 -62.5h21q74 0 126 62.5t52 140.5q0 23 -6 47v2q0 72 -57.5 120t-130.5 48
q-76 0 -123 -55z" />
    <glyph glyph-name="A" unicode="A" horiz-adv-x="1447" 
d="M514 1395q200 4 301 4q1 -97 28 -206.5t59.5 -193t77 -198t67.5 -191.5q26 -59 57 -159t53.5 -170.5t71.5 -149.5t117 -129q-55 4 -168 4q-147 0 -252 -10q71 39 71 113q0 39 -27 117t-32 106q-172 -2 -512 -2q-37 -105 -86 -230q6 -8 24 -30t33.5 -41t24.5 -31
q-93 8 -211 8q-123 0 -211 -10q9 8 37 31.5t40.5 35t32 32.5t30.5 42.5t18 46.5q67 176 195 545t200 555q-5 15 -19.5 56t-19.5 55zM842 528q-117 372 -199 559l-184 -555z" />
    <glyph glyph-name="B" unicode="B" horiz-adv-x="1271" 
d="M137 1401q82 -4 121 -4q42 0 127 2t127 2q141 0 250.5 -18t204.5 -70q64 -44 96.5 -111.5t32.5 -142.5q0 -107 -60 -202.5t-162 -135.5q90 -8 159 -59t102.5 -125t33.5 -158q0 -165 -118 -268q-69 -53 -156.5 -80t-175.5 -32.5t-175 -7t-182 -13.5t-169 -41q0 55 1 162.5
t1 160.5q0 169 -7 402q-94 -57 -182 -117q0 223 -6 332q33 -13 96.5 -36.5t96.5 -35.5v18q0 39 2 118.5t2 119.5q0 207 -60 340zM410 643v-479q43 4 143 4t173 10.5t134 42.5q96 51 96 178q0 68 -28 129q-55 69 -135.5 90t-196.5 21h-76q-75 0 -110 4zM410 1225v-410
q28 2 76 2.5t88 1.5t88 4.5t84.5 15t68.5 31t49 53.5t17 81q0 22 -2 34q-3 66 -36 105.5t-90 54t-111 18t-125 4t-107 5.5z" />
    <glyph glyph-name="C" unicode="C" horiz-adv-x="1290" 
d="M231 1214q181 164 449 164q241 0 444 -127q4 19 17.5 74.5t17.5 73.5q19 -218 29 -473q-100 127 -231 207.5t-273 80.5q-69 0 -133 -20q-111 -28 -192 -108t-119.5 -183.5t-38.5 -218.5q0 -158 73.5 -291t210.5 -192q101 -43 205 -43q142 0 274.5 71.5t223.5 192.5
q-5 -85 -17 -243t-14 -193l-43 116q-235 -108 -444 -108q-206 0 -361 106q-149 89 -229 248.5t-80 339.5q0 154 58.5 292t172.5 234z" />
    <glyph glyph-name="D" unicode="D" horiz-adv-x="1413" 
d="M381 1221q0 -285 2 -428q66 5 107 11.5t93 28.5t89 60q-8 -91 -8 -205q0 -69 2 -104q-120 35 -283 63q-2 -143 -2 -434q42 3 148 3t182 10.5t141 41.5q124 59 191 182.5t67 268.5q0 136 -60 254t-173 180q-53 30 -121 45.5t-119 17.5t-132.5 2t-123.5 3zM102 1393
q82 -4 127 -4q47 0 142.5 2t142.5 2q150 0 268.5 -21t223.5 -80q147 -86 226 -242t79 -333q0 -170 -72.5 -319.5t-208.5 -237.5q-71 -49 -158 -74.5t-174.5 -31.5t-173 -7.5t-180 -11.5t-168.5 -35q-1 108 -2 324.5t-2 324.5l-172 -82l6 326q91 -73 158 -123v25q0 51 8 156
t8 157q0 175 -78 285z" />
    <glyph glyph-name="E" unicode="E" horiz-adv-x="1101" 
d="M98 1346q35 2 107 2q65 0 197.5 -5.5t199.5 -5.5q230 0 395 56v-297q-103 88 -292 88q-43 0 -130 -5t-129 -5q-25 0 -79 4v-396q129 0 395 -4q37 44 94 105q4 -104 12 -316q-120 51 -333 51h-164q-6 -197 -9 -395h37q47 0 144 -4t145 -4q193 0 311 59q-4 -200 -4 -299
q-153 91 -372 91q-175 0 -457 -66q4 184 4 276q0 163 -10 361q-158 -81 -160 -82q1 55 4 163t4 163q16 -16 43 -41.5t59.5 -55.5t43.5 -41v9q0 51 10 160.5t10 164.5q0 166 -76 269z" />
    <glyph glyph-name="F" unicode="F" horiz-adv-x="1146" 
d="M102 1360q37 2 111 2q69 0 210 -5t210 -5q244 0 411 59q-2 -72 -2 -219v-92q-112 92 -307 92q-45 0 -136 -6t-136 -6q-26 0 -80 4v-414q205 0 410 -6q9 10 49 55t55 60q1 -53 4 -164.5t4 -169.5q-121 53 -307 53q-1 0 -217 -6q2 -182 2 -545q-28 -14 -207 -102v78
q0 57 1 173t1 173q0 77 -4 229q-101 -27 -174 -53q2 111 6 329q12 -10 47 -39.5t65.5 -54.5t47.5 -41v27q0 48 7 152t7 155q0 181 -78 287z" />
    <glyph glyph-name="G" unicode="G" horiz-adv-x="1507" 
d="M242 1235q203 180 510 180q269 0 512 -139q20 50 63 156q-14 -262 -14 -455q-69 58 -122.5 98t-126.5 83.5t-148.5 66t-151.5 22.5q-52 0 -107 -12q-103 -16 -186.5 -67.5t-136 -126t-81 -164t-28.5 -183.5q0 -138 60 -259t176 -193q118 -80 299 -80q47 0 95.5 4
t125.5 14.5t94 12.5v26q0 36 4 111t4 112q0 167 -84 258q271 0 406 2q-98 -120 -98 -335q0 -50 6 -153t6 -153q0 -53 -6 -102q-103 57 -242 57q-61 0 -186 -15t-187 -15q-124 0 -215 43q-152 47 -263 154.5t-165.5 243t-54.5 282.5q0 153 61 291t181 235z" />
    <glyph glyph-name="H" unicode="H" horiz-adv-x="1329" 
d="M0 1352q59 0 179 -1t181 -1q-71 -111 -71 -301q0 -35 3 -106.5t3 -106.5q0 -10 -1 -29.5t-1 -28.5h643q-2 25 -2 78q0 33 2 100t2 101q0 191 -78 295q86 -2 258 -2h109q-49 -55 -65.5 -122.5t-16.5 -156.5q0 -19 1 -58t1 -59v-30q2 -170 2 -506v-508q-84 37 -219 94
q6 199 6 598h-643q0 -399 4 -598q-39 -18 -112.5 -48.5t-106.5 -45.5v176q0 104 1 313t1 314q0 280 -8 504q-9 18 -37 69.5t-35 65.5z" />
    <glyph glyph-name="I" unicode="I" horiz-adv-x="405" 
d="M0 1346h303q-57 -193 -57 -467q0 -83 6 -248t6 -248q0 -169 -18 -295q-8 -15 -22 -39t-31 -53.5t-23 -40.5q-5 5 -23 26t-24 29t-20.5 27t-20.5 31t-14.5 29.5t-11.5 34.5t-3 34q0 11 4 35q-6 85 -6 174q0 83 7 251t7 251q0 278 -59 469z" />
    <glyph glyph-name="J" unicode="J" horiz-adv-x="643" 
d="M160 1364q32 0 95 -1t95 -1t96 1t95 1q-52 -52 -71 -118.5t-19 -151.5q0 -28 2 -84t2 -84q0 -42 -2 -62q0 -14 -1 -41t-1 -41q0 -64 4 -194.5t4 -194.5q0 -234 -39 -399q-16 -55 -49 -102t-72.5 -81t-92.5 -63t-100.5 -47.5t-105.5 -36.5q21 27 74 86t81.5 95t54.5 95
t26 117v17q6 305 6 606q0 300 -11 553q-9 16 -35.5 65.5t-35.5 65.5z" />
    <glyph glyph-name="K" unicode="K" horiz-adv-x="1247" 
d="M0 1389q129 -3 260 -3h109q-84 -94 -84 -262q0 -46 7 -138.5t7 -137.5v-23q31 35 94 99t102 107t85.5 103t76.5 122t45 128q323 5 388 5q-86 -49 -168.5 -128.5t-135.5 -150t-130 -175t-126 -163.5q53 -63 113.5 -153.5t110.5 -167.5t108 -157t130 -149t153 -116
q-132 12 -264 12q-102 0 -207 -6l61 80q-170 307 -436 592q-10 -144 -10 -345q0 -94 4 -278q-42 -17 -116.5 -48.5t-94.5 -39.5v172q0 100 1 302t1 304q0 272 -8 488q-10 19 -40 68t-36 59z" />
    <glyph glyph-name="L" unicode="L" horiz-adv-x="1120" 
d="M0 1382h305q-59 -198 -59 -481q0 -83 6 -247.5t6 -247.5q0 -84 -6 -170h256q160 0 256 16q46 27 88.5 70t90 101.5t75.5 86.5q-9 -31 -170 -539q-3 3 -42.5 43.5t-55.5 55.5q-31 -2 -95 -2q-43 0 -130 2t-130 2q-213 0 -348 -56q-4 114 -4 172q0 106 7 317t7 316
q0 328 -57 561z" />
    <glyph glyph-name="M" unicode="M" horiz-adv-x="1777" 
d="M0 1382q242 -4 362 -4q-75 -66 -75 -133q0 -57 61 -115q78 -69 240.5 -199t240.5 -198q56 51 150 119t163.5 117.5t142 123.5t112.5 152q-7 11 -27 41.5t-36.5 55.5t-26.5 40q123 -2 368 -2q-50 -50 -66 -114.5t-16 -153.5v-76q2 -176 2 -528q0 -355 -6 -531
q-25 13 -99.5 51.5t-98.5 51.5q-2 141 -2 420q0 210 -3 415q-196 -125 -446 -350q0 -9 -1 -27t-1 -26q0 -37 3 -112t3 -113q0 -101 -18.5 -181.5t-69.5 -148.5q-73 54 -100 130.5t-27 178.5q0 41 4 121t4 117q0 43 -2 63q-81 67 -234.5 192t-224.5 183q0 -334 11 -868
q-132 -51 -207 -82v151q0 107 1 319.5t1 317.5q0 269 -8 482q-67 108 -74 120z" />
    <glyph glyph-name="N" unicode="N" horiz-adv-x="1304" 
d="M0 1350q84 -2 256 -2h104q-71 -68 -71 -140q0 -55 45 -112q19 -21 77 -86.5t82.5 -93t76 -84t84.5 -91t79 -81.5t89 -86.5t87 -77.5q-6 56 -6 114q0 62 8.5 190.5t8.5 192.5q0 217 -80 355q243 0 362 4q-9 -16 -39 -64t-39 -65q-6 -162 -6 -484q0 -113 1 -342t1 -344
v-102q-159 68 -211 90q0 22 -1 90t-1 92q-102 103 -306 324.5t-312 329.5v-422q0 -281 -2 -422q-40 -14 -111.5 -43.5t-95.5 -38.5q0 34 -1 100.5t-1 100.5q0 98 2 293t2 294q0 285 -10 490q-8 16 -36 61t-36 60z" />
    <glyph glyph-name="O" unicode="O" horiz-adv-x="1505" 
d="M428 1386q121 56 260 56q136 0 266.5 -54t229 -144.5t159 -217.5t60.5 -264q0 -54 -8 -98q-4 -137 -67.5 -257t-163.5 -201.5t-226.5 -128t-257.5 -46.5q-213 0 -377 116q-149 91 -226 246t-77 334q0 142 47.5 272.5t146 235t234.5 151.5zM823 647q0 -248 8 -448
q158 59 267 172.5t143 271.5q-139 4 -418 4zM195 643q31 -158 139.5 -272.5t267.5 -171.5q4 156 8 448q-278 0 -415 -4zM188 829q70 0 212 -1t212 -1q-3 255 -14 457q-159 -57 -268 -175.5t-142 -279.5zM836 1284q-12 -228 -15 -457q70 0 211.5 1t212.5 1
q-35 161 -143.5 279t-265.5 176z" />
    <glyph glyph-name="P" unicode="P" horiz-adv-x="1226" 
d="M109 1382q41 -2 122 -2q38 0 115 1t115 1q275 0 440 -55q108 -37 165.5 -134.5t57.5 -217.5q0 -105 -46.5 -195t-133.5 -135q-78 -42 -167.5 -59t-224.5 -23t-177 -10q2 -109 2 -324v-133q-25 -14 -99 -52t-98 -52q-3 99 -8 590l-172 -82q2 53 5 161t5 162q9 -8 69 -58
t83 -69v11q0 59 9 181t9 183q0 191 -71 311zM369 1231v-514q30 2 81.5 2.5t93 0.5t94.5 4.5t93.5 12.5t82.5 25.5t69 43.5t44 67t17 94v12q0 54 -17 95t-44 67t-69 44t-82.5 26t-93.5 12.5t-94.5 4.5t-93 0.5t-81.5 2.5z" />
    <glyph glyph-name="Q" unicode="Q" horiz-adv-x="1460" 
d="M16 885q21 161 123 288t248 194t305 67q164 0 295 -70q174 -76 272.5 -246t98.5 -368q0 -245 -144 -420q-36 -49 -83.5 -88.5t-108.5 -70t-109 -50t-120 -43.5q-2 -113 -23 -201t-78 -158q-121 108 -121 320v39q-240 46 -405.5 239t-165.5 431q0 62 16 137zM281 1055
q-80 -130 -80 -285q0 -117 44 -224t131.5 -188t203.5 -110q0 22 1 67t1 68q0 191 -56 305h308q-52 -114 -52 -299q0 -23 1 -70t1 -71q116 29 203.5 110t131.5 188t44 224q0 161 -84 291q-61 100 -168 153.5t-229 53.5q-124 0 -232.5 -55t-168.5 -158z" />
    <glyph glyph-name="R" unicode="R" horiz-adv-x="1142" 
d="M129 1389q97 -5 121 -5q40 0 122 2.5t122 2.5q259 0 417 -76q65 -41 97 -106.5t32 -139.5q0 -103 -58.5 -194t-156.5 -128q64 -17 107.5 -51.5t65 -84t30 -101t8.5 -119.5q0 -51 -6 -153t-6 -148q0 -50 6 -94q-35 20 -205 117q0 36 1 106.5t1 106.5q0 155 -18 247
q-41 64 -108 82.5t-169 18.5h-43q-55 0 -104 6v-287q0 -191 -2 -287q-83 -43 -203 -108v348q0 233 -2 348q-88 -48 -178 -106q4 106 4 155q0 54 -4 156q6 -2 75 -28.5t105 -41.5v37q0 35 2 104.5t2 104.5q0 194 -55 316zM383 1260q-2 -135 -2 -406q28 2 76 2.5t88 1t88.5 4
t85.5 15t69 30.5t49 53.5t17 81.5q0 21 -2 33q-3 55 -29.5 92t-63 53.5t-89.5 25t-98.5 8t-101 0.5t-87.5 6z" />
    <glyph glyph-name="S" unicode="S" horiz-adv-x="929" 
d="M244 1352q67 30 137 30q58 0 122.5 -17t145 -46.5t119.5 -40.5q0 -2 -6 -250q-17 12 -73.5 56t-85.5 63.5t-79.5 40t-95.5 20.5q-34 0 -61 -8q-68 -9 -110 -65t-42 -127q0 -92 66 -140q55 -41 142 -85t167 -88.5t135 -94.5q102 -99 102 -256q0 -124 -68.5 -231
t-183.5 -144q-67 -24 -131 -24q-67 0 -142.5 21.5t-161.5 54t-138 45.5q-2 104 -2 311q5 -6 34.5 -38t38 -41t36 -37.5t41.5 -38.5t40.5 -31.5t46 -30.5t45.5 -20.5t52 -16t53 -4.5q17 0 45 4h14q76 0 123 58t47 134q0 70 -34 115q-53 43 -133.5 89.5t-144.5 78.5
t-133.5 85.5t-113.5 115.5q-53 82 -53 188q0 118 66 221.5t174 143.5z" />
    <glyph glyph-name="T" unicode="T" horiz-adv-x="1142" 
d="M0 1384q124 -55 336 -55q22 0 66 1t67 1q55 0 82 -2q11 0 35 1t35 1q15 0 47 -1t47 -1q100 0 177 11t148 44q-2 -102 -2 -309q-52 53 -117 70.5t-155 17.5q-14 0 -44 -1t-44 -1q-37 0 -55 2v-1001q-3 -138 -78 -250q-99 87 -129 117v1134q-18 -2 -56 -2q-14 0 -43 1
t-43 1q-90 0 -156 -17.5t-118 -72.5v311z" />
    <glyph glyph-name="U" unicode="U" horiz-adv-x="1247" 
d="M0 1391h307q-57 -174 -57 -426q0 -70 5 -210t5 -208v-90q0 -124 97 -205.5t223 -81.5q121 0 204 80q59 59 79 137t20 184q0 21 -1 62t-1 61q0 49 2 72q0 12 -1 34t-1 34q0 37 2 110t2 109q0 211 -54 338q102 2 314 2q-60 -153 -60 -389q0 -59 4.5 -175.5t4.5 -175.5
q0 -231 -58 -383q-59 -130 -187 -199t-280 -69q-163 0 -297 79t-186 224q-41 143 -41 350q0 57 4 173t4 173q0 233 -53 390z" />
    <glyph glyph-name="V" unicode="V" horiz-adv-x="1396" 
d="M0 1399q157 -7 389 -25q-13 -10 -48.5 -40t-47.5 -40q41 -95 151.5 -372.5t178.5 -425.5q28 92 83.5 220t99 223.5t79 221t37.5 236.5q34 -2 166.5 -9.5t205.5 -9.5q-38 -10 -70 -31.5t-52.5 -43.5t-41.5 -60.5t-31.5 -63t-28.5 -71t-26 -66.5q-278 -696 -421 -1040
q-75 146 -155.5 347.5t-138.5 361.5t-145.5 351t-183.5 337z" />
    <glyph glyph-name="W" unicode="W" horiz-adv-x="1767" 
d="M0 1386q123 -6 395 -22q-12 -10 -49.5 -41t-50.5 -41q52 -117 159 -383t171 -405q68 194 100 276q-44 101 -131 304t-131 304q86 2 262 2q0 -6 -1 -17t-1 -17q0 -32 4 -64.5t15 -71t17.5 -60t23.5 -69.5t22 -63q64 122 160 360q45 1 134 2t134 2q-43 -41 -79.5 -89.5
t-67.5 -110.5t-50 -103.5t-50 -120.5t-44 -110q-20 -39 -20 -80q0 -45 31 -129.5t36 -118.5q79 116 142.5 261.5t129 323t111.5 277.5q48 -2 293 -12q-75 -46 -127 -84q-61 -148 -164.5 -409t-192.5 -477.5t-175 -403.5q-115 335 -195 510q-40 -101 -186 -504
q-64 120 -127 272t-114 290t-106 279.5t-126 283.5t-152 259z" />
    <glyph glyph-name="X" unicode="X" horiz-adv-x="1366" 
d="M0 1382q254 -4 383 -4v-22q0 -62 26 -128t59 -113.5t78 -113t68 -110.5q150 232 250 373q-59 88 -67 102q11 1 395 18q-83 -86 -159.5 -191.5t-169 -250.5t-136.5 -209q50 -72 122 -190t122.5 -201t129.5 -179.5t163 -162.5q-105 12 -209 12q-87 0 -197 -10q23 54 23 94
q0 56 -32.5 120.5t-74 114t-88 114t-65.5 112.5q-142 -196 -308 -463q11 -10 47 -41t48 -41q-20 0 -62 1t-63 1q-124 0 -281 -10q70 78 144.5 179.5t117.5 168t127 201t113 180.5q-49 65 -114 170.5t-111.5 182t-121 160.5t-157.5 136z" />
    <glyph glyph-name="Y" unicode="Y" horiz-adv-x="1314" 
d="M0 1376h383q-4 -32 -4 -47q0 -62 26 -127.5t58.5 -112t79.5 -112t71 -107.5q22 45 65.5 109t76 111t58.5 111t26 124q0 19 -4 51h376q-60 -49 -114 -107t-105.5 -132t-83.5 -125.5t-87 -145.5t-79 -133q-30 -86 -30 -225q0 -41 3 -124.5t3 -125.5q0 -103 -19 -184.5
t-71 -151.5q-76 61 -103.5 141t-27.5 187q0 46 6 140.5t6 141.5q0 183 -82 287q-32 48 -92.5 146.5t-99 157.5t-103 132t-133.5 121z" />
    <glyph glyph-name="Z" unicode="Z" horiz-adv-x="1187" 
d="M39 1409q171 -57 436 -57q70 0 212.5 5t213.5 5q103 0 184 -8q-66 -146 -170.5 -307t-200 -282t-218 -282.5t-201.5 -283.5q31 2 94 2q53 0 161 -4t161 -4q212 0 356 59q-2 -100 -2 -305q-85 82 -193 82h-561q-207 0 -311 4q65 147 170 307.5t201 281t219.5 281.5
t202.5 283q-50 -6 -103 -6t-162.5 7t-162.5 7q-207 0 -324 -88q0 203 -2 303z" />
    <glyph glyph-name="bracketleft" unicode="[" horiz-adv-x="591" 
d="M188 1794q13 2 45 8.5t53 10t50 7t51 3.5q55 0 85 -19.5t30 -68.5q0 -25 -13 -72q-100 19 -178 29q-4 -49 -4 -148v-182q0 -141 -16.5 -249t-67.5 -206q51 -91 68.5 -194.5t17.5 -233.5q0 -34 -2 -102.5t-2 -102.5q0 -70 6 -141q21 3 82.5 13.5t81.5 13.5
q2 -13 7.5 -47.5t10 -65.5t7.5 -49q-196 15 -314 31q-47 117 -47 321v154q0 135 -21.5 236t-86.5 188q65 72 88.5 159.5t23.5 198.5q0 39 -3 117t-3 117q0 167 51 274z" />
    <glyph glyph-name="backslash" unicode="\" horiz-adv-x="952" 
d="M31 1382q148 -8 329 -8q2 -96 30 -203.5t62 -188.5t81.5 -194t72.5 -188q24 -55 62 -159.5t64.5 -171t77 -148t112.5 -137.5q-160 4 -238 4h-88q-6 128 -47.5 259.5t-113 297.5t-99.5 246q-20 47 -47.5 123t-48.5 131t-51 119t-69.5 119t-88.5 99z" />
    <glyph glyph-name="bracketright" unicode="]" horiz-adv-x="591" 
d="M344 31q-13 -2 -45 -8.5t-53 -10t-50 -7t-51 -3.5q-55 0 -84.5 19.5t-29.5 68.5q0 28 12 72q119 -21 178 -29q4 49 4 148v182q0 141 16.5 248.5t67.5 203.5q-51 94 -67.5 198.5t-16.5 240.5q0 32 1 95t1 95q0 75 -6 148q-38 -6 -164 -29q-2 12 -7 48.5t-9 67t-8 48.5
q134 -10 315 -31q47 -121 47 -313q0 -27 -1 -83t-1 -83q0 -132 21.5 -232.5t87.5 -187.5q-65 -74 -89 -161t-24 -199q0 -38 3 -116.5t3 -117.5q0 -165 -51 -272z" />
    <glyph glyph-name="asciicircum" unicode="^" horiz-adv-x="929" 
d="M334 1368q135 8 205 10q52 -129 75 -186.5t60.5 -162.5t62.5 -191q66 -42 162 -109q-171 -6 -344 -18q10 44 10 102q0 198 -141 369q-3 -7 -21.5 -52t-23.5 -58t-19.5 -51.5t-19.5 -59t-13 -53t-11 -61t-3 -56.5q0 -39 6 -76q-47 2 -145 2q-96 0 -143 -2q27 35 53.5 76
t45.5 73t42.5 84.5t35.5 78t35.5 88t30 80.5t31.5 90t29 83z" />
    <glyph glyph-name="underscore" unicode="_" horiz-adv-x="776" 
d="M31 252q119 2 358 2h356l-6 -258q-69 69 -92 94q-58 -4 -88 -4q-36 0 -109.5 3t-109.5 3q-195 0 -307 -72q0 39 -1 116.5t-1 115.5z" />
    <glyph glyph-name="grave" unicode="`" horiz-adv-x="444" 
d="M31 1364q20 -3 81.5 -11.5t82.5 -11.5q154 -225 219 -344q-60 23 -104.5 43.5t-98 54.5t-88.5 70t-61 87.5t-31 111.5z" />
    <glyph glyph-name="a" unicode="a" horiz-adv-x="1083" 
d="M244 811q78 37 178 37q111 0 280 -47q46 8 139.5 24.5t139.5 24.5q-45 -162 -45 -404q0 -51 2 -153.5t2 -153.5q0 -84 -2 -127q-143 86 -199 121q-61 -26 -103.5 -41.5t-103.5 -29t-114 -13.5q-65 0 -135 25q-135 43 -209 148t-74 231q0 114 63 211.5t181 146.5zM283 645
q-101 -70 -101 -196q0 -92 61.5 -164.5t166.5 -83.5q34 -6 65 -6q114 0 196.5 71t82.5 166q0 29 -4 43v8q0 93 -88.5 154t-202.5 61q-106 0 -176 -53z" />
    <glyph glyph-name="b" unicode="b" horiz-adv-x="1085" 
d="M0 1325q115 -4 346 -4q-15 -10 -58 -42t-57 -42q5 -250 5 -299q0 -94 -3 -186q192 96 328 96q71 0 141 -27q134 -41 207.5 -144.5t73.5 -227.5q0 -126 -75 -231t-212 -148q-70 -25 -137 -25q-52 0 -113 13t-102.5 27.5t-105.5 39.5q-17 -11 -85.5 -52t-105.5 -65
q-6 78 -6 238q0 88 4 264.5t4 265.5q0 320 -49 549zM360 664q-64 -33 -97.5 -89.5t-33.5 -123.5q0 -101 70 -176.5t190 -75.5h9q12 -2 37 -2q117 0 192.5 76.5t75.5 175.5q0 42 -19 88q-22 75 -99.5 118t-172.5 43q-85 0 -152 -34z" />
    <glyph glyph-name="c" unicode="c" horiz-adv-x="884" 
d="M242 805q85 39 196 39q63 0 179 -16t155 -19q0 -162 2 -244q-48 62 -125 94.5t-164 32.5q-124 0 -214.5 -61.5t-90.5 -165.5q0 -31 4 -47q7 -104 88 -158.5t195 -54.5q90 0 174.5 32t140.5 89q-2 -18 -10.5 -95t-13.5 -120q-6 -2 -44 -12.5t-48.5 -13.5t-43 -11
t-49.5 -11t-44.5 -8t-50.5 -6.5t-46 -1.5q-79 0 -147 25q-136 41 -210.5 145.5t-74.5 228.5q0 115 62.5 213t179.5 146z" />
    <glyph glyph-name="d" unicode="d" horiz-adv-x="1128" 
d="M707 1323q106 -2 319 -2q-55 -47 -72.5 -109t-17.5 -147v-92q2 -182 2 -547q0 -301 -4 -453q-98 65 -221 152q-164 -80 -287 -80q-60 0 -131 23q-141 38 -218 143.5t-77 234.5t77 235t220 144q70 25 133 25q135 0 324 -102v163q0 267 -47 412zM309 664q-63 -32 -96 -89.5
t-33 -123.5q0 -101 70 -176.5t190 -75.5h9q12 -2 38 -2q117 0 192 78t75 180q0 68 -37 123q-32 59 -99.5 88.5t-148.5 29.5q-95 0 -160 -32z" />
    <glyph glyph-name="e" unicode="e" horiz-adv-x="1017" 
d="M117 145q-117 100 -117 246q0 76 35 151t94.5 133.5t146 95t181.5 36.5q28 0 86 -8q80 -5 144.5 -35t106 -75t69.5 -104t40 -118.5t12 -120.5v-6h-294q-296 0 -443 -8q107 -174 357 -174q167 0 335 71v-2q0 -79 -46.5 -132.5t-118 -76t-162.5 -22.5q-124 0 -242.5 40.5
t-183.5 108.5zM201 489q95 -28 241 -28q53 0 159.5 5t158.5 5q-15 15 -42 45.5t-46 50t-46.5 41t-59.5 32.5t-68 11h-41q-149 0 -256 -162z" />
    <glyph glyph-name="f" unicode="f" horiz-adv-x="907" 
d="M352 999q65 52 170 52q50 0 145.5 -14.5t135.5 -16.5q0 -168 2 -252q-135 135 -244 135q-55 0 -108 -33q-11 -55 -16 -109.5t-7.5 -144t-3.5 -112.5q152 28 317 78q-2 -84 -2 -258q-186 36 -309 53q-10 -52 -10 -94q0 -49 11 -151.5t11 -151.5q0 -99 -35.5 -170
t-129.5 -117q-41 158 -41 430v256q-50 -10 -238 -57q2 47 2 137q0 92 -2 137q26 -11 225 -98q9 47 12 127.5t6.5 136.5t30 123t78.5 114z" />
    <glyph glyph-name="g" unicode="g" horiz-adv-x="960" 
d="M139 815q98 80 244 80q86 0 249.5 -34.5t225.5 -39.5q-11 -8 -92 -71q0 -26 5 -83t5 -85q0 -116 -65 -179q-41 -49 -109 -74.5t-162.5 -44t-138.5 -34.5q31 -7 78.5 -15t86 -13.5t86 -16t84 -21.5t72.5 -29.5t60 -41.5t38.5 -56.5t14.5 -74.5v-9q-5 -75 -41 -129.5
t-95 -85.5t-129 -45t-153 -14q-208 0 -403 72q24 114 66 247q6 2 18 2q28 0 46 -16.5t25 -37.5t18 -48t24 -41q121 -33 213 -33q141 0 223 68q4 24 4 33q0 53 -35.5 86t-98 45t-123.5 16t-137 6t-114 8q6 14 38 85t50 108q-82 60 -132 143.5t-50 167.5q0 122 104 205z
M367 745q-66 -6 -107 -51.5t-41 -103.5q0 -70 57 -109q47 -47 127 -47q76 0 136.5 39.5t60.5 99.5q0 15 -2 21q2 6 2 18q0 58 -56.5 99t-127.5 41q-21 0 -49 -7z" />
    <glyph glyph-name="h" unicode="h" horiz-adv-x="1038" 
d="M0 1376q24 0 71 -1t70 -1q65 0 201 4q-30 -93 -39.5 -191.5t-9.5 -230.5v-120q501 5 643 10q-14 -12 -58 -45.5t-59 -44.5q0 -504 2 -758q-35 14 -205 76q2 201 2 598q-53 2 -161 2q-107 0 -162 -2v-598q-23 -9 -63 -23.5t-74 -27.5t-64 -25q-2 70 -2 211q0 95 2 285.5
t2 285.5q0 281 -18 492q-9 14 -39 52.5t-39 51.5z" />
    <glyph glyph-name="i" unicode="i" horiz-adv-x="452" 
d="M37 1044q60 55 156 140q142 -114 157 -127q-91 -68 -174 -68q-73 0 -139 55zM0 821q228 4 342 8q-45 -130 -45 -344q0 -32 1 -94t1 -92q0 -112 -10 -188q-33 -26 -142 -105q-41 153 -41 395q0 53 2.5 159.5t2.5 158.5v26q-17 10 -60 40.5t-51 35.5z" />
    <glyph glyph-name="j" unicode="j" horiz-adv-x="571" 
d="M244 1065q-41 25 -41 55q0 20 18 42.5t45 48.5t37 40q20 -18 83 -70t83 -69q-25 -5 -87 -42.5t-89 -37.5q-32 0 -49 33zM125 877q114 0 340 4q-43 -131 -43 -346q0 -43 2 -128.5t2 -127.5q0 -203 -43 -342q-11 -36 -32 -67t-53.5 -55.5t-63 -42.5t-76.5 -36t-77 -28
t-81 -25q21 24 84.5 83t98 107t40.5 102q15 167 15 330q0 59 -2.5 175t-2.5 175q0 71 3 142q-43 30 -111 80z" />
    <glyph glyph-name="k" unicode="k" horiz-adv-x="1157" 
d="M0 1286q229 0 344 4q-49 -165 -49 -397q0 -72 6 -216.5t6 -215.5q26 26 78.5 66t90 69.5t67.5 73t30 88.5q0 11 -4 35q61 -2 185 -2q151 0 227 4q-210 -132 -469 -377q33 -29 118.5 -108t132.5 -119.5t129 -92t163 -80.5q-151 -4 -449 -8q-7 37 -25.5 73.5t-37 62.5
t-54.5 61.5t-56.5 53.5t-66 55.5t-61.5 50.5l-6 -314q-137 -41 -188 -55v762q0 297 2 444q-80 59 -113 82z" />
    <glyph glyph-name="l" unicode="l" horiz-adv-x="444" 
d="M0 1309q38 1 107 1.5t126.5 1.5t108.5 3q-49 -196 -49 -471q0 -76 4 -227.5t4 -227.5q0 -179 -14 -291q-96 -73 -137 -102q-46 214 -46 520q0 91 5.5 274.5t5.5 274.5q0 58 -4 168q-17 10 -60 40.5t-51 35.5z" />
    <glyph glyph-name="m" unicode="m" horiz-adv-x="1560" 
d="M0 844q292 -13 678 -13q195 0 780 9q-7 -5 -53.5 -40.5t-63.5 -47.5q2 -246 2 -740q-33 14 -198 76q2 197 2 586q-121 -2 -359 -6q1 -24 4 -127.5t3 -159.5q0 -231 -39 -393q-98 44 -135 117t-37 174q0 49 10 151t10 150q0 55 -8 94l-356 -6q2 -190 2 -574l-197 -98
q-2 35 -2 106q0 56 3 166t3 166q0 240 -49 410z" />
    <glyph glyph-name="n" unicode="n" horiz-adv-x="1052" 
d="M0 854q316 -8 475 -8t475 8q-16 -12 -59.5 -45.5t-59.5 -44.5q3 -375 3 -748q-178 68 -199 76v590q-53 2 -160 2t-160 -2v-590q-99 -38 -198 -78v752q-15 12 -59 44.5t-58 43.5z" />
    <glyph glyph-name="o" unicode="o" horiz-adv-x="1040" 
d="M289 797q79 32 174 32q121 0 231 -54.5t177 -147t67 -197.5q0 -19 -4 -51q-1 -104 -70 -193t-178 -138.5t-229 -49.5q-112 0 -213 49q-118 51 -181 150t-63 215q0 127 76 234.5t213 150.5zM281 616q-101 -73 -101 -200q0 -96 62.5 -171t169.5 -85q34 -6 63 -6
q114 0 196.5 73.5t82.5 171.5q0 26 -6 50v4q0 96 -88 157.5t-201 61.5q-108 0 -178 -56z" />
    <glyph glyph-name="p" unicode="p" horiz-adv-x="1087" 
d="M0 874q54 -9 152.5 -26t132.5 -23q13 3 66 17t76.5 19.5t64.5 11.5t75 6q65 0 135 -25q135 -41 209 -144.5t74 -228.5q0 -128 -76 -233t-215 -146q-63 -24 -139 -24q-138 0 -330 94q7 -125 11 -453q-8 -5 -80.5 -45.5t-108.5 -62.5q-6 105 -6 207q0 86 5 258t5 258
q0 319 -51 540zM360 696q-63 -32 -96 -89.5t-33 -123.5q0 -102 71 -178t192 -76h4q12 -2 37 -2q117 0 193.5 77.5t76.5 176.5q0 47 -21 90q-22 74 -99.5 117t-172.5 43q-84 0 -152 -35z" />
    <glyph glyph-name="q" unicode="q" horiz-adv-x="1085" 
d="M240 86q-118 49 -179 144t-61 208q0 76 27.5 146.5t78 128t129.5 93t175 38.5q233 -33 340 -33q116 0 233 27q-49 -219 -49 -529q0 -88 5 -264.5t5 -265.5q0 -99 -6 -201q-109 64 -190 109v227q0 151 2 225q-188 -92 -332 -92q-101 0 -178 39zM281 643q-99 -68 -99 -194
q0 -94 61.5 -166t170.5 -82q30 -6 63 -6q113 0 195 72t82 167q0 29 -4 43v6q0 93 -89 154t-202 61q-105 0 -178 -55z" />
    <glyph glyph-name="r" unicode="r" horiz-adv-x="653" 
d="M442 809q11 12 46 45.5t47 44.5q3 -125 16 -285q-130 66 -315 93q-5 -287 -5 -349q0 -41 1 -122.5t1 -122.5q-158 -87 -188 -105q-2 35 -2 107q0 51 2 154t2 155q0 241 -47 399q80 -4 442 -14z" />
    <glyph glyph-name="s" unicode="s" horiz-adv-x="727" 
d="M49 733q65 129 258 129q44 0 95 -5.5t111.5 -15t88.5 -12.5q1 -20 5.5 -103t6.5 -130q-170 104 -329 104q-55 0 -113 -12q23 -52 79 -97.5t117.5 -79.5t120.5 -70t97.5 -84.5t38.5 -106.5q0 -27 -9 -57q-13 -65 -57 -108t-103 -61t-132 -18q-166 0 -304 74
q-12 148 -20 225q204 -143 322 -143q88 0 104 94q-34 27 -95 63.5t-112 67t-100.5 67.5t-78 80.5t-28.5 90.5q0 50 37 108z" />
    <glyph glyph-name="t" unicode="t" horiz-adv-x="913" 
d="M256 1167q119 -2 352 -10q-16 -11 -60.5 -45.5t-60.5 -46.5q2 -33 7.5 -131t7.5 -131q150 26 299 84q0 -115 10 -262q-127 65 -313 92q-4 -94 -4 -144q0 -25 1 -76.5t1 -76.5q0 -256 -45 -412q-90 50 -124 123t-34 172q0 49 10 151.5t10 151.5q0 58 -12 111
q-165 -32 -301 -82v246q173 -53 315 -76q-15 230 -59 362z" />
    <glyph glyph-name="u" unicode="u" horiz-adv-x="1101" 
d="M0 827q301 5 362 7q-53 -171 -53 -347q0 -101 23 -223q25 -48 81 -73t124 -25q67 0 122.5 26.5t79.5 75.5q17 112 17 277v198q-16 10 -62 42t-61 42q307 5 366 7q-31 -88 -38.5 -201.5t-12 -231t-28.5 -202.5q-42 -93 -147.5 -143t-233.5 -50q-131 0 -239.5 52.5
t-149.5 148.5q-35 109 -35 274q0 35 1 105.5t1 105.5v53q-15 10 -58.5 41t-58.5 41z" />
    <glyph glyph-name="v" unicode="v" horiz-adv-x="1095" 
d="M0 840q164 -6 330 -6v-17q0 -22 3 -46t6 -43t11.5 -45.5t13 -41.5t18 -44.5t18.5 -41t22 -44t21 -40t23.5 -43.5t22.5 -41q21 44 81 173.5t94 199.5q-73 45 -119 69q204 0 448 13q-88 -82 -163 -194t-120 -206.5t-108 -223t-113 -212.5q-62 100 -146.5 267.5t-166.5 311
t-176 255.5z" />
    <glyph glyph-name="w" unicode="w" horiz-adv-x="1615" 
d="M0 823q170 -10 307 -10q76 0 113 2q-58 -50 -58 -110q0 -47 30.5 -106.5t68 -122t47.5 -103.5q98 160 166 348q-17 11 -69 45.5t-70 46.5q39 1 110.5 1.5t131 1.5t112.5 3q-39 -68 -39 -141q0 -49 19 -106.5t39 -96.5t57 -102q15 28 50 86t54.5 93.5t37 87.5t17.5 97
q0 43 -14 84q117 -6 233 -6q56 0 170 4q-85 -56 -152.5 -134t-113.5 -165.5t-84 -172t-85.5 -181.5t-96.5 -166q-206 347 -242 406q-167 -297 -235 -406q-51 83 -113 210t-106 221t-119.5 203.5t-165.5 188.5z" />
    <glyph glyph-name="x" unicode="x" horiz-adv-x="1122" 
d="M0 813q115 -6 338 -14q61 -136 162 -262q10 12 68 85t81 99q-36 40 -74 78q297 4 443 12q-42 -24 -84.5 -56.5t-70.5 -55.5t-73 -70.5t-60.5 -64t-66.5 -76t-59 -68.5q6 -7 44.5 -54t48 -58.5t44.5 -52.5t51.5 -57t49.5 -49.5t57 -53t56.5 -44.5t64.5 -45q-145 8 -324 8
h-100q35 35 35 72q0 27 -18 59t-41 57t-48 56.5t-35 54.5q-97 -149 -153 -299q-166 0 -336 -6q156 136 389 404q-215 263 -389 401z" />
    <glyph glyph-name="y" unicode="y" horiz-adv-x="1134" 
d="M0 809q147 -6 297 -6h98q-26 -53 -26 -111q0 -64 29.5 -139t71.5 -158.5t58 -134.5q143 311 179 539q212 8 325 14q-78 -83 -142 -186.5t-110 -208t-87 -206.5t-94.5 -214.5t-111.5 -200.5q-28 -33 -72.5 -56t-109 -45.5t-92.5 -35.5q21 38 78.5 117t91 144t33.5 126
q0 58 -35 113q-34 63 -77.5 167.5t-74.5 178.5t-91 159.5t-138 143.5z" />
    <glyph glyph-name="z" unicode="z" horiz-adv-x="1028" 
d="M55 879q151 -70 396 -70q53 0 159 4t158 4q88 0 156 -8q-19 -72 -68 -140t-115.5 -126.5t-135 -111t-143.5 -115t-122 -117.5h94q156 0 269 7t221 32q0 -177 2 -265q-155 72 -406 72q-57 0 -170 -4t-168 -4q-108 0 -182 10q52 82 133.5 168t154 147.5t173 146
t162.5 144.5h-105q-281 0 -461 -39q0 177 -2 265z" />
    <glyph glyph-name="braceleft" unicode="{" 
d="M240 698q168 3 223 70q51 66 51 133v469q0 72 78 141q77 68 184 68h109v-49h-90q-62 0 -109 -35q-45 -33 -45 -90v-502q0 -82 -61 -158q-60 -75 -144 -75v-2q83 -3 144 -76q61 -76 61 -160v-500q0 -57 45 -90q47 -35 109 -35h90v-49h-109q-107 0 -184 68q-78 69 -78 141
v467q0 67 -51 133q-54 66 -223 72v59z" />
    <glyph glyph-name="bar" unicode="|" 
d="M426 1577h162v-1995h-162v1995z" />
    <glyph glyph-name="braceright" unicode="}" 
d="M774 639q-169 -6 -223 -72q-51 -66 -51 -133v-467q0 -72 -78 -141q-77 -68 -184 -68h-109v49h90q62 0 109 35q44 33 47 90l-2 500q0 84 61 160q61 73 144 76v2q-84 0 -144 75q-59 73 -59 158v502q-3 57 -47 90q-47 35 -109 35h-90v49h109q106 0 186 -68q76 -67 76 -141
v-469q0 -67 51 -133q55 -67 223 -70v-59z" />
    <glyph glyph-name="asciitilde" unicode="~" 
d="M924 879v-156q-65 -74 -123 -98q-66 -27 -117 -27q-60 0 -176 49t-176 49q-48 0 -109 -28q-55 -27 -129 -113v158q70 76 123 98q66 27 115 27q62 0 180 -50q114 -51 172 -51q49 0 109 29q56 26 131 113z" />
    <glyph glyph-name="exclamdown" unicode="&#xa1;" horiz-adv-x="385" 
d="M354 -545q-211 -8 -319 -10q33 116 42.5 252.5t11 297t11.5 257.5q-2 8 -2 22q0 36 19.5 73t39 57.5t56.5 54.5q17 -106 28 -235t14 -211.5t7 -244t6 -219.5q53 -61 86 -94zM309 655q-57 -51 -129 -51q-67 0 -149 45q78 89 143 164q19 -23 65.5 -76.5t69.5 -81.5z" />
    <glyph glyph-name="cent" unicode="&#xa2;" horiz-adv-x="1396" 
d="M242 805q85 39 196 39q63 0 179 -16t155 -19q0 -162 2 -244q-48 62 -125 94.5t-164 32.5q-124 0 -214.5 -61.5t-90.5 -165.5q0 -31 4 -47q7 -104 88 -158.5t195 -54.5q90 0 174.5 32t140.5 89q-2 -18 -10.5 -95t-13.5 -120q-6 -2 -44 -12.5t-48.5 -13.5t-43 -11
t-49.5 -11t-44.5 -8t-50.5 -6.5t-46 -1.5q-79 0 -147 25q-136 41 -210.5 145.5t-74.5 228.5q0 115 62.5 213t179.5 146zM498 948q69 0 209 4q-81 -128 -149 -290.5t-137.5 -352.5t-121.5 -305q45 -45 63 -61q-31 2 -92 2q-108 0 -196 -8q45 35 80 88.5t53 100.5t42.5 115
t43.5 107q23 65 75 186t85.5 220t44.5 194z" />
    <glyph glyph-name="sterling" unicode="&#xa3;" 
d="M588 1378q-104 0 -189 -98q-88 -97 -88 -244q3 -171 56 -303h358v-59h-334q68 -115 68 -199q0 -160 -162 -375h401q131 0 189 131h49l-102 -231h-719v49q186 238 186 420q0 79 -63 205h-162v59h135q-57 137 -57 252q0 226 122 348q124 121 308 121q112 0 204 -14
q95 -12 95 -33v-162h-37q-6 61 -78 96q-70 37 -180 37z" />
    <glyph glyph-name="currency" unicode="&#xa4;" 
d="M350 559q40 -40 99 -55q27 -8 59 -8q30 0 57 8q59 15 99 55q43 46 57 100q8 24 8 58q0 33 -8 57q-14 54 -57 100q-40 40 -101 58q-27 6 -57 6q-33 0 -57 -8q-53 -14 -99 -56q-40 -40 -55 -98q-10 -25 -10 -59t8 -58q14 -54 57 -100zM240 903l-117 119l80 80l116 -119
q53 34 101 47q51 14 88 14q40 0 84 -12q65 -21 100 -49l119 119l80 -80l-117 -119q34 -53 47 -100t13 -86q0 -37 -13 -84q-13 -50 -47 -103l117 -116l-80 -82l-119 119q-44 -35 -100 -50q-44 -12 -84 -12q-43 0 -86 12q-56 15 -103 50l-116 -119l-80 82l117 116
q-33 51 -47 103q-13 47 -13 84q0 41 13 88q15 51 47 98z" />
    <glyph glyph-name="yen" unicode="&#xa5;" 
d="M752 0h-488v49h84q90 0 90 236v278h-254v62h254v57l-2 2h-252v59h222l-240 469q-79 172 -156 172h-33v50h437v-50h-84q-58 0 -58 -53q0 -41 35 -119l219 -452l228 452q37 81 37 125q0 47 -46 47h-83v50h374v-50h-32q-91 0 -170 -172l-230 -469h230v-59h-256v-59h256v-62
h-256v-278q0 -236 88 -236h86v-49z" />
    <glyph glyph-name="brokenbar" unicode="&#xa6;" 
d="M426 371h162v-789h-162v789zM426 1579h162v-791h-162v791z" />
    <glyph glyph-name="section" unicode="&#xa7;" 
d="M545 322q55 15 96 53q74 65 74 166v10h-2q-1 4 -2 13.5t-2 13.5q-19 55 -113 127q-64 28 -127 28q-80 0 -125 -45q-47 -44 -47 -117q0 -124 248 -249zM467 -346q111 6 184 70q72 66 72 163q0 128 -315 277q-127 66 -177 137q-53 74 -53 176q0 148 90 238q71 68 170 82
l-41 18q-118 62 -174 137q-53 74 -53 178q0 151 88 236q83 80 217 86q6 2 17 2h4q60 0 161 -16q99 -15 99 -41v-195h-51q-6 81 -80 131q-68 48 -150 51h-14q-79 0 -125 -43q-47 -44 -47 -118q0 -136 286 -269q152 -70 205 -143q56 -77 56 -188q0 -169 -103 -281
q-51 -45 -98 -66q107 -55 153 -116q56 -77 56 -189q0 -169 -101 -282q-126 -102 -276 -105h-14h-2q-52 0 -164 17q-97 15 -97 41v194h52q3 -80 80 -133q67 -43 145 -49z" />
    <glyph glyph-name="dieresis" unicode="&#xa8;" horiz-adv-x="1024" 
d="M223 1288l72 74q13 10 24 10q12 0 27 -12l70 -74q10 -17 10 -24q0 -15 -12 -27l-70 -76q-16 -16 -25 -16q-14 0 -24 10l-78 86q-8 16 -8 25q0 13 14 24zM588 1288l71 74q13 10 25 10t27 -12l69 -74q11 -18 11 -24q0 -14 -13 -27l-69 -76q-13 -16 -25 -16q-15 0 -25 10
l-75 88q-11 15 -11 23q0 9 15 24z" />
    <glyph glyph-name="copyright" unicode="&#xa9;" horiz-adv-x="1673" 
d="M864 223q-140 0 -264 68q-124 70 -184 184q-66 123 -66 244q0 124 66 244q68 121 188 184q122 67 254 67q38 0 76 -6q45 -11 76 -20q2 -2 8 -2q17 0 26 31h41l72 -199h-43q-53 96 -131 125q-71 24 -147 24h-15q-84 -6 -166 -69q-78 -61 -123 -178q-32 -94 -32 -185
q0 -33 2 -49q12 -124 69 -223q58 -104 150 -154q66 -38 166 -41q123 0 194 56q70 55 70 127h53v-101q0 -45 -96 -86q-93 -41 -244 -41zM838 43q280 0 477 197q198 198 198 479t-198 479q-199 199 -477 199t-480 -199q-198 -198 -198 -479t198 -479q200 -197 480 -197z
M838 -18q-306 0 -523 217q-215 215 -215 520t215 520q217 217 523 217t520 -217q217 -217 217 -520t-217 -520q-214 -217 -520 -217z" />
    <glyph glyph-name="ordfeminine" unicode="&#xaa;" horiz-adv-x="647" 
 />
    <glyph glyph-name="guillemotleft" unicode="&#xab;" horiz-adv-x="944" 
d="M174 479l342 303h14v-37l-204 -266l204 -266v-37h-14zM487 479l342 303h15v-37l-205 -266l205 -266v-37h-15z" />
    <glyph glyph-name="logicalnot" unicode="&#xac;" 
d="M86 768h842v-492l-2 -2h-99v394h-741v100z" />
    <glyph glyph-name="registered" unicode="&#xae;" horiz-adv-x="1673" 
d="M983 575l84 -114q100 -142 150 -142h32v-51h-346v51h45q31 0 31 23q0 28 -70 113l-73 102q-43 0 -84 41v-158q0 -121 34 -121h54v-51h-316v51h43q37 0 37 121v539q0 121 -37 121h-43v69h357q104 -3 176 -90q73 -88 73 -219q0 -156 -147 -285zM752 1100v-375q0 -56 39 -82
q39 -29 81 -29q39 3 80 80t41 160q-6 108 -47 174q-41 72 -102 72h-92zM838 43q280 0 477 197q198 198 198 479t-198 479q-199 199 -477 199t-480 -199q-198 -198 -198 -479t198 -479q200 -197 480 -197zM838 -18q-306 0 -523 217q-215 215 -215 520t215 520
q217 217 523 217t520 -217q217 -217 217 -520t-217 -520q-214 -217 -520 -217z" />
    <glyph glyph-name="macron" unicode="&#xaf;" horiz-adv-x="1024" 
d="M254 1194v127h516v-127h-516z" />
    <glyph glyph-name="degree" unicode="&#xb0;" horiz-adv-x="673" 
d="M340 1372q-86 0 -147 -61q-64 -61 -64 -148q0 -86 61 -147q63 -60 150 -60q85 0 145 60q62 62 62 147q0 86 -62 148q-61 61 -145 61zM340 1442q116 0 195 -82q81 -78 81 -197q0 -113 -81 -194q-82 -82 -197 -82q-119 0 -199 80q-80 83 -80 196q0 114 82 199q83 80 199 80
z" />
    <glyph glyph-name="plusminus" unicode="&#xb1;" 
d="M436 647h-350v139h350v369l2 2h140v-371h348h2v-139h-350v-371h-142v371zM86 0v139h840h2v-139h-842z" />
    <glyph glyph-name="twosuperior" unicode="&#xb2;" 
 />
    <glyph glyph-name="threesuperior" unicode="&#xb3;" 
 />
    <glyph glyph-name="acute" unicode="&#xb4;" horiz-adv-x="1024" 
d="M606 1374q29 29 56 47q23 13 40 13q36 0 54 -21q20 -17 20 -49q0 -23 -14 -43q-16 -19 -47 -41l-330 -203h-70z" />
    <glyph glyph-name="mu" unicode="&#xb5;" horiz-adv-x="1179" 
 />
    <glyph glyph-name="paragraph" unicode="&#xb6;" horiz-adv-x="1024" 
d="M930 1436v-70h-127v-1366h-82v1366h-166v-1366h-86v737q-169 9 -274 103q-103 95 -103 245q0 159 109 254q111 97 284 97h445z" />
    <glyph glyph-name="periodcentered" unicode="&#xb7;" horiz-adv-x="507" 
d="M254 637q-49 0 -78 33q-33 33 -33 78q0 39 33 77q31 31 78 31q42 0 78 -31q33 -38 33 -77q0 -45 -33 -78t-78 -33z" />
    <glyph glyph-name="periodcentered" unicode="&#x2219;" horiz-adv-x="507" 
d="M254 637q-49 0 -78 33q-33 33 -33 78q0 39 33 77q31 31 78 31q42 0 78 -31q33 -38 33 -77q0 -45 -33 -78t-78 -33z" />
    <glyph glyph-name="cedilla" unicode="&#xb8;" horiz-adv-x="1024" 
d="M360 -291q80 -51 152 -51q64 0 94 23q29 23 29 65q0 46 -49 64q-43 16 -103 16q-20 0 -32 -2l47 176h63l-37 -104q9 2 19.5 3t23 1.5t19.5 1.5q85 0 135 -41q47 -41 47 -115q0 -75 -59 -119q-57 -45 -160 -45q-113 0 -189 33v94z" />
    <glyph glyph-name="onesuperior" unicode="&#xb9;" 
 />
    <glyph glyph-name="ordmasculine" unicode="&#xba;" horiz-adv-x="1521" 
 />
    <glyph glyph-name="guillemotright" unicode="&#xbb;" horiz-adv-x="944" 
d="M115 176h-15v37l205 266l-205 266v37h15l342 -303zM428 176h-14v37l204 266l-204 266v37h14l342 -303z" />
    <glyph glyph-name="onequarter" unicode="&#xbc;" horiz-adv-x="1708" 
 />
    <glyph glyph-name="onehalf" unicode="&#xbd;" horiz-adv-x="2369" 
 />
    <glyph glyph-name="threequarters" unicode="&#xbe;" horiz-adv-x="1708" 
 />
    <glyph glyph-name="questiondown" unicode="&#xbf;" horiz-adv-x="849" 
d="M612 664q-55 -58 -118 -58q-67 0 -160 64q35 37 141 143q4 -4 137 -149zM805 -434q-21 -8 -107.5 -44t-142 -51.5t-111.5 -15.5q-57 0 -112 21q-99 22 -166.5 105.5t-67.5 182.5q0 74 43 138q33 40 82.5 77.5t97 66t95 59.5t88 74t63.5 95q-170 -6 -344 -24
q14 93 86.5 143.5t165.5 50.5q94 0 165.5 -51.5t84.5 -144.5q0 -4 1 -11.5t1 -11.5q0 -56 -31.5 -104t-78.5 -80t-102 -66t-102 -63t-78.5 -71.5t-31.5 -90.5q0 -43 29 -100q66 -35 135 -35q169 0 352 207q-6 -82 -14 -256z" />
    <glyph glyph-name="Agrave" unicode="&#xc0;" horiz-adv-x="1447" 
d="M514 1395q200 4 301 4q1 -97 28 -206.5t59.5 -193t77 -198t67.5 -191.5q26 -59 57 -159t53.5 -170.5t71.5 -149.5t117 -129q-55 4 -168 4q-147 0 -252 -10q71 39 71 113q0 39 -27 117t-32 106q-172 -2 -512 -2q-37 -105 -86 -230q6 -8 24 -30t33.5 -41t24.5 -31
q-93 8 -211 8q-123 0 -211 -10q9 8 37 31.5t40.5 35t32 32.5t30.5 42.5t18 46.5q67 176 195 545t200 555q-5 15 -19.5 56t-19.5 55zM842 528q-117 372 -199 559l-184 -555zM821 1618h-69l-330 203q-35 25 -47 41q-15 21 -15 43q0 31 21 49q17 20 53 20q20 0 41 -12
q24 -16 55 -47z" />
    <glyph glyph-name="Aacute" unicode="&#xc1;" horiz-adv-x="1447" 
d="M514 1395q200 4 301 4q1 -97 28 -206.5t59.5 -193t77 -198t67.5 -191.5q26 -59 57 -159t53.5 -170.5t71.5 -149.5t117 -129q-55 4 -168 4q-147 0 -252 -10q71 39 71 113q0 39 -27 117t-32 106q-172 -2 -512 -2q-37 -105 -86 -230q6 -8 24 -30t33.5 -41t24.5 -31
q-93 8 -211 8q-123 0 -211 -10q9 8 37 31.5t40.5 35t32 32.5t30.5 42.5t18 46.5q67 176 195 545t200 555q-5 15 -19.5 56t-19.5 55zM842 528q-117 372 -199 559l-184 -555zM805 1915q30 33 55 47q21 12 41 12q33 0 53 -20q21 -21 21 -49q0 -19 -17 -43q-14 -19 -45 -41
l-331 -203h-68z" />
    <glyph glyph-name="Acircumflex" unicode="&#xc2;" horiz-adv-x="1447" 
d="M514 1395q200 4 301 4q1 -97 28 -206.5t59.5 -193t77 -198t67.5 -191.5q26 -59 57 -159t53.5 -170.5t71.5 -149.5t117 -129q-55 4 -168 4q-147 0 -252 -10q71 39 71 113q0 39 -27 117t-32 106q-172 -2 -512 -2q-37 -105 -86 -230q6 -8 24 -30t33.5 -41t24.5 -31
q-93 8 -211 8q-123 0 -211 -10q9 8 37 31.5t40.5 35t32 32.5t30.5 42.5t18 46.5q67 176 195 545t200 555q-5 15 -19.5 56t-19.5 55zM842 528q-117 372 -199 559l-184 -555zM377 1620l233 354h117l231 -354h-57l-233 215l-232 -215h-59z" />
    <glyph glyph-name="Atilde" unicode="&#xc3;" horiz-adv-x="1447" 
d="M514 1395q200 4 301 4q1 -97 28 -206.5t59.5 -193t77 -198t67.5 -191.5q26 -59 57 -159t53.5 -170.5t71.5 -149.5t117 -129q-55 4 -168 4q-147 0 -252 -10q71 39 71 113q0 39 -27 117t-32 106q-172 -2 -512 -2q-37 -105 -86 -230q6 -8 24 -30t33.5 -41t24.5 -31
q-93 8 -211 8q-123 0 -211 -10q9 8 37 31.5t40.5 35t32 32.5t30.5 42.5t18 46.5q67 176 195 545t200 555q-5 15 -19.5 56t-19.5 55zM842 528q-117 372 -199 559l-184 -555zM954 1892q-19 -76 -67 -133t-131 -57q-48 0 -115 31q-65 30 -121 30q-60 0 -84 -61h-55
q17 73 68 133q51 57 118 57q53 0 123 -28q69 -29 123 -29q62 0 88 57h53z" />
    <glyph glyph-name="Adieresis" unicode="&#xc4;" horiz-adv-x="1447" 
d="M514 1395q200 4 301 4q1 -97 28 -206.5t59.5 -193t77 -198t67.5 -191.5q26 -59 57 -159t53.5 -170.5t71.5 -149.5t117 -129q-55 4 -168 4q-147 0 -252 -10q71 39 71 113q0 39 -27 117t-32 106q-172 -2 -512 -2q-37 -105 -86 -230q6 -8 24 -30t33.5 -41t24.5 -31
q-93 8 -211 8q-123 0 -211 -10q9 8 37 31.5t40.5 35t32 32.5t30.5 42.5t18 46.5q67 176 195 545t200 555q-5 15 -19.5 56t-19.5 55zM842 528q-117 372 -199 559l-184 -555zM391 1827l72 74q13 10 24 10t27 -13l70 -73q10 -17 10 -25q0 -14 -12 -26l-70 -76q-14 -17 -25 -17
q-9 0 -24 11l-76 86q-8 11 -8 24t12 25zM758 1827l69 74q17 10 27 10q7 0 27 -13l67 -73q10 -13 10 -25q0 -14 -12 -26l-67 -76q-17 -17 -25 -17q-12 0 -27 11l-75 88q-9 12 -9 22q0 13 15 25z" />
    <glyph glyph-name="Aring" unicode="&#xc5;" horiz-adv-x="1447" 
d="M514 1395q200 4 301 4q1 -97 28 -206.5t59.5 -193t77 -198t67.5 -191.5q26 -59 57 -159t53.5 -170.5t71.5 -149.5t117 -129q-55 4 -168 4q-147 0 -252 -10q71 39 71 113q0 39 -27 117t-32 106q-172 -2 -512 -2q-37 -105 -86 -230q6 -8 24 -30t33.5 -41t24.5 -31
q-93 8 -211 8q-123 0 -211 -10q9 8 37 31.5t40.5 35t32 32.5t30.5 42.5t18 46.5q67 176 195 545t200 555q-5 15 -19.5 56t-19.5 55zM842 528q-117 372 -199 559l-184 -555zM565 1796q0 -41 29 -70q30 -30 72 -30q41 0 71 30q29 29 29 70q0 42 -31 70q-27 30 -69 30
q-43 0 -70 -30q-31 -28 -31 -70zM489 1796q0 75 52 127q51 51 125 51q73 0 127 -51q51 -51 51 -127t-51 -127q-54 -51 -127 -51q-74 0 -125 51q-52 52 -52 127z" />
    <glyph glyph-name="AE" unicode="&#xc6;" horiz-adv-x="1947" 
d="M514 1395q200 4 301 4q1 -97 28 -206.5t59.5 -193t77 -198t67.5 -191.5q26 -59 57 -159t53.5 -170.5t71.5 -149.5t117 -129q-55 4 -168 4q-147 0 -252 -10q71 39 71 113q0 39 -27 117t-32 106q-172 -2 -512 -2q-37 -105 -86 -230q6 -8 24 -30t33.5 -41t24.5 -31
q-93 8 -211 8q-123 0 -211 -10q9 8 37 31.5t40.5 35t32 32.5t30.5 42.5t18 46.5q67 176 195 545t200 555q-5 15 -19.5 56t-19.5 55zM842 528q-117 372 -199 559l-184 -555zM944 1346q35 2 107 2q65 0 197.5 -5.5t199.5 -5.5q230 0 395 56v-297q-103 88 -293 88
q-43 0 -129.5 -5t-128.5 -5q-26 0 -80 4v-396q130 0 396 -4q37 44 94 105q4 -104 12 -316q-120 51 -334 51h-163q-6 -197 -9 -395h37q47 0 144 -4t145 -4q193 0 311 59q-4 -200 -4 -299q-153 91 -373 91q-174 0 -456 -66q4 184 4 276q0 163 -10 361q-158 -81 -160 -82
q1 55 4 163.5t4 162.5q16 -15 145 -138v9q0 51 10.5 160.5t10.5 164.5q0 166 -76 269z" />
    <glyph glyph-name="Ccedilla" unicode="&#xc7;" horiz-adv-x="1290" 
d="M231 1214q181 164 449 164q241 0 444 -127q4 19 17.5 74.5t17.5 73.5q19 -218 29 -473q-100 127 -231 207.5t-273 80.5q-69 0 -133 -20q-111 -28 -192 -108t-119.5 -183.5t-38.5 -218.5q0 -158 73.5 -291t210.5 -192q101 -43 205 -43q142 0 274.5 71.5t223.5 192.5
q-5 -85 -17 -243t-14 -193l-43 116q-235 -108 -444 -108q-206 0 -361 106q-149 89 -229 248.5t-80 339.5q0 154 58.5 292t172.5 234zM655 -291q83 -51 152 -51q64 0 94 23q29 20 29 65q0 46 -49 64q-43 16 -101 16q-23 0 -35 -2l48 176h63l-37 -104q14 2 36 4t26 2
q85 0 135 -41q47 -41 47 -115q0 -77 -57 -119q-57 -45 -162 -45q-113 0 -189 33v94z" />
    <glyph glyph-name="Egrave" unicode="&#xc8;" horiz-adv-x="1101" 
d="M98 1346q35 2 107 2q65 0 197.5 -5.5t199.5 -5.5q230 0 395 56v-297q-103 88 -292 88q-43 0 -130 -5t-129 -5q-25 0 -79 4v-396q129 0 395 -4q37 44 94 105q4 -104 12 -316q-120 51 -333 51h-164q-6 -197 -9 -395h37q47 0 144 -4t145 -4q193 0 311 59q-4 -200 -4 -299
q-153 91 -372 91q-175 0 -457 -66q4 184 4 276q0 163 -10 361q-158 -81 -160 -82q1 55 4 163t4 163q16 -16 43 -41.5t59.5 -55.5t43.5 -41v9q0 51 10 160.5t10 164.5q0 166 -76 269zM653 1618h-69l-330 203q-35 25 -47 41q-14 20 -14 43q0 32 20 49q17 20 53 20q20 0 41 -12
q24 -16 55 -47z" />
    <glyph glyph-name="Eacute" unicode="&#xc9;" horiz-adv-x="1101" 
d="M98 1346q35 2 107 2q65 0 197.5 -5.5t199.5 -5.5q230 0 395 56v-297q-103 88 -292 88q-43 0 -130 -5t-129 -5q-25 0 -79 4v-396q129 0 395 -4q37 44 94 105q4 -104 12 -316q-120 51 -333 51h-164q-6 -197 -9 -395h37q47 0 144 -4t145 -4q193 0 311 59q-4 -200 -4 -299
q-153 91 -372 91q-175 0 -457 -66q4 184 4 276q0 163 -10 361q-158 -81 -160 -82q1 55 4 163t4 163q16 -16 43 -41.5t59.5 -55.5t43.5 -41v9q0 51 10 160.5t10 164.5q0 166 -76 269zM637 1915q30 33 55 47q21 12 41 12q33 0 53 -20q21 -21 21 -49q0 -21 -16 -43
q-13 -18 -46 -41l-331 -203h-68z" />
    <glyph glyph-name="Ecircumflex" unicode="&#xca;" horiz-adv-x="1101" 
d="M98 1346q35 2 107 2q65 0 197.5 -5.5t199.5 -5.5q230 0 395 56v-297q-103 88 -292 88q-43 0 -130 -5t-129 -5q-25 0 -79 4v-396q129 0 395 -4q37 44 94 105q4 -104 12 -316q-120 51 -333 51h-164q-6 -197 -9 -395h37q47 0 144 -4t145 -4q193 0 311 59q-4 -200 -4 -299
q-153 91 -372 91q-175 0 -457 -66q4 184 4 276q0 163 -10 361q-158 -81 -160 -82q1 55 4 163t4 163q16 -16 43 -41.5t59.5 -55.5t43.5 -41v9q0 51 10 160.5t10 164.5q0 166 -76 269zM209 1620l233 354h117l232 -354h-58l-233 215l-232 -215h-59z" />
    <glyph glyph-name="Edieresis" unicode="&#xcb;" horiz-adv-x="1101" 
d="M98 1346q35 2 107 2q65 0 197.5 -5.5t199.5 -5.5q230 0 395 56v-297q-103 88 -292 88q-43 0 -130 -5t-129 -5q-25 0 -79 4v-396q129 0 395 -4q37 44 94 105q4 -104 12 -316q-120 51 -333 51h-164q-6 -197 -9 -395h37q47 0 144 -4t145 -4q193 0 311 59q-4 -200 -4 -299
q-153 91 -372 91q-175 0 -457 -66q4 184 4 276q0 163 -10 361q-158 -81 -160 -82q1 55 4 163t4 163q16 -16 43 -41.5t59.5 -55.5t43.5 -41v9q0 51 10 160.5t10 164.5q0 166 -76 269zM223 1827l72 74q13 10 24 10t27 -13l70 -73q10 -17 10 -25q0 -14 -12 -26l-70 -76
q-14 -17 -25 -17q-9 0 -24 11l-76 86q-8 11 -8 24t12 25zM590 1827l69 74q17 10 27 10q8 0 27 -13l67 -73q11 -14 11 -25q0 -13 -13 -26l-67 -76q-17 -17 -25 -17q-12 0 -27 11l-75 88q-9 12 -9 22q0 13 15 25z" />
    <glyph glyph-name="Igrave" unicode="&#xcc;" horiz-adv-x="405" 
d="M0 1346h303q-57 -193 -57 -467q0 -83 6 -248t6 -248q0 -169 -18 -295q-8 -15 -22 -39t-31 -53.5t-23 -40.5q-5 5 -23 26t-24 29t-20.5 27t-20.5 31t-14.5 29.5t-11.5 34.5t-3 34q0 11 4 35q-6 85 -6 174q0 83 7 251t7 251q0 278 -59 469zM305 1618h-69l-330 203
q-35 25 -47 41q-15 21 -15 43q0 31 21 49q17 20 53 20q20 0 41 -12q24 -16 55 -47z" />
    <glyph glyph-name="Iacute" unicode="&#xcd;" horiz-adv-x="405" 
d="M0 1346h303q-57 -193 -57 -467q0 -83 6 -248t6 -248q0 -169 -18 -295q-8 -15 -22 -39t-31 -53.5t-23 -40.5q-5 5 -23 26t-24 29t-20.5 27t-20.5 31t-14.5 29.5t-11.5 34.5t-3 34q0 11 4 35q-6 85 -6 174q0 83 7 251t7 251q0 278 -59 469zM289 1915q30 33 55 47
q21 12 41 12q33 0 53 -20q21 -21 21 -49q0 -19 -17 -43q-14 -19 -45 -41l-331 -203h-68z" />
    <glyph glyph-name="Icircumflex" unicode="&#xce;" horiz-adv-x="405" 
d="M0 1346h303q-57 -193 -57 -467q0 -83 6 -248t6 -248q0 -169 -18 -295q-8 -15 -22 -39t-31 -53.5t-23 -40.5q-5 5 -23 26t-24 29t-20.5 27t-20.5 31t-14.5 29.5t-11.5 34.5t-3 34q0 11 4 35q-6 85 -6 174q0 83 7 251t7 251q0 278 -59 469zM-139 1620l233 354h117l231 -354
h-57l-233 215l-232 -215h-59z" />
    <glyph glyph-name="Idieresis" unicode="&#xcf;" horiz-adv-x="405" 
d="M0 1346h303q-57 -193 -57 -467q0 -83 6 -248t6 -248q0 -169 -18 -295q-8 -15 -22 -39t-31 -53.5t-23 -40.5q-5 5 -23 26t-24 29t-20.5 27t-20.5 31t-14.5 29.5t-11.5 34.5t-3 34q0 11 4 35q-6 85 -6 174q0 83 7 251t7 251q0 278 -59 469zM-125 1827l72 74q13 10 24 10
t27 -13l70 -73q10 -17 10 -25q0 -14 -12 -26l-70 -76q-14 -17 -25 -17q-9 0 -24 11l-76 86q-8 11 -8 24t12 25zM242 1827l69 74q17 10 27 10q8 0 27 -13l67 -73q10 -13 10 -25q0 -14 -12 -26l-68 -76q-17 -17 -24 -17q-12 0 -27 11l-75 88q-9 12 -9 22q0 13 15 25z" />
    <glyph glyph-name="Eth" unicode="&#xd0;" horiz-adv-x="1413" 
d="M381 1221q0 -285 2 -428q66 5 107 11.5t93 28.5t89 60q-8 -91 -8 -205q0 -69 2 -104q-120 35 -283 63q-2 -143 -2 -434q42 3 148 3t182 10.5t141 41.5q124 59 191 182.5t67 268.5q0 136 -60 254t-173 180q-53 30 -121 45.5t-119 17.5t-132.5 2t-123.5 3zM102 1393
q82 -4 127 -4q47 0 142.5 2t142.5 2q150 0 268.5 -21t223.5 -80q147 -86 226 -242t79 -333q0 -170 -72.5 -319.5t-208.5 -237.5q-71 -49 -158 -74.5t-174.5 -31.5t-173 -7.5t-180 -11.5t-168.5 -35q-1 108 -2 324.5t-2 324.5l-172 -82l6 326q91 -73 158 -123v25q0 51 8 156
t8 157q0 175 -78 285zM-229 823q119 2 358 2h356l-6 -258q-58 57 -92 95q-72 -5 -86 -5q-37 0 -110.5 3.5t-110.5 3.5q-192 0 -307 -72q0 39 -1 116t-1 115z" />
    <glyph glyph-name="Ntilde" unicode="&#xd1;" horiz-adv-x="1304" 
d="M0 1350q84 -2 256 -2h104q-71 -68 -71 -140q0 -55 45 -112q19 -21 77 -86.5t82.5 -93t76 -84t84.5 -91t79 -81.5t89 -86.5t87 -77.5q-6 56 -6 114q0 62 8.5 190.5t8.5 192.5q0 217 -80 355q243 0 362 4q-9 -16 -39 -64t-39 -65q-6 -162 -6 -484q0 -113 1 -342t1 -344
v-102q-159 68 -211 90q0 22 -1 90t-1 92q-102 103 -306 324.5t-312 329.5v-422q0 -281 -2 -422q-40 -14 -111.5 -43.5t-95.5 -38.5q0 34 -1 100.5t-1 100.5q0 98 2 293t2 294q0 285 -10 490q-8 16 -36 61t-36 60zM889 1892q-18 -74 -68 -133q-48 -57 -131 -57q-48 0 -115 31
q-65 30 -120 30q-60 0 -84 -61h-56q17 73 68 133q51 57 119 57q53 0 123 -28q69 -29 123 -29q62 0 88 57h53z" />
    <glyph glyph-name="Ograve" unicode="&#xd2;" horiz-adv-x="1505" 
d="M428 1386q121 56 260 56q136 0 266.5 -54t229 -144.5t159 -217.5t60.5 -264q0 -54 -8 -98q-4 -137 -67.5 -257t-163.5 -201.5t-226.5 -128t-257.5 -46.5q-213 0 -377 116q-149 91 -226 246t-77 334q0 142 47.5 272.5t146 235t234.5 151.5zM823 647q0 -248 8 -448
q158 59 267 172.5t143 271.5q-139 4 -418 4zM195 643q31 -158 139.5 -272.5t267.5 -171.5q4 156 8 448q-278 0 -415 -4zM188 829q70 0 212 -1t212 -1q-3 255 -14 457q-159 -57 -268 -175.5t-142 -279.5zM836 1284q-12 -228 -15 -457q70 0 211.5 1t212.5 1
q-35 161 -143.5 279t-265.5 176zM844 1618h-70l-330 203q-35 25 -47 41q-14 20 -14 43q0 32 20 49q17 20 54 20q20 0 41 -12q24 -16 55 -47z" />
    <glyph glyph-name="Oacute" unicode="&#xd3;" horiz-adv-x="1505" 
d="M428 1386q121 56 260 56q136 0 266.5 -54t229 -144.5t159 -217.5t60.5 -264q0 -54 -8 -98q-4 -137 -67.5 -257t-163.5 -201.5t-226.5 -128t-257.5 -46.5q-213 0 -377 116q-149 91 -226 246t-77 334q0 142 47.5 272.5t146 235t234.5 151.5zM823 647q0 -248 8 -448
q158 59 267 172.5t143 271.5q-139 4 -418 4zM195 643q31 -158 139.5 -272.5t267.5 -171.5q4 156 8 448q-278 0 -415 -4zM188 829q70 0 212 -1t212 -1q-3 255 -14 457q-159 -57 -268 -175.5t-142 -279.5zM836 1284q-12 -228 -15 -457q70 0 211.5 1t212.5 1
q-35 161 -143.5 279t-265.5 176zM827 1915q29 32 56 47q21 12 41 12q33 0 53 -20t20 -49q0 -21 -16 -43q-14 -19 -45 -41l-332 -203h-67z" />
    <glyph glyph-name="Ocircumflex" unicode="&#xd4;" horiz-adv-x="1505" 
d="M428 1386q121 56 260 56q136 0 266.5 -54t229 -144.5t159 -217.5t60.5 -264q0 -54 -8 -98q-4 -137 -67.5 -257t-163.5 -201.5t-226.5 -128t-257.5 -46.5q-213 0 -377 116q-149 91 -226 246t-77 334q0 142 47.5 272.5t146 235t234.5 151.5zM823 647q0 -248 8 -448
q158 59 267 172.5t143 271.5q-139 4 -418 4zM195 643q31 -158 139.5 -272.5t267.5 -171.5q4 156 8 448q-278 0 -415 -4zM188 829q70 0 212 -1t212 -1q-3 255 -14 457q-159 -57 -268 -175.5t-142 -279.5zM836 1284q-12 -228 -15 -457q70 0 211.5 1t212.5 1
q-35 161 -143.5 279t-265.5 176zM399 1620l234 354h117l231 -354h-57l-234 215l-231 -215h-60z" />
    <glyph glyph-name="Otilde" unicode="&#xd5;" horiz-adv-x="1505" 
d="M428 1386q121 56 260 56q136 0 266.5 -54t229 -144.5t159 -217.5t60.5 -264q0 -54 -8 -98q-4 -137 -67.5 -257t-163.5 -201.5t-226.5 -128t-257.5 -46.5q-213 0 -377 116q-149 91 -226 246t-77 334q0 142 47.5 272.5t146 235t234.5 151.5zM823 647q0 -248 8 -448
q158 59 267 172.5t143 271.5q-139 4 -418 4zM195 643q31 -158 139.5 -272.5t267.5 -171.5q4 156 8 448q-278 0 -415 -4zM188 829q70 0 212 -1t212 -1q-3 255 -14 457q-159 -57 -268 -175.5t-142 -279.5zM836 1284q-12 -228 -15 -457q70 0 211.5 1t212.5 1
q-35 161 -143.5 279t-265.5 176zM977 1892q-18 -74 -68 -133q-48 -57 -131 -57q-47 0 -114 31q-64 30 -121 30q-60 0 -84 -61h-56q17 73 68 133q51 57 119 57q53 0 123 -28q69 -29 123 -29q62 0 88 57h53z" />
    <glyph glyph-name="Odieresis" unicode="&#xd6;" horiz-adv-x="1505" 
d="M428 1386q121 56 260 56q136 0 266.5 -54t229 -144.5t159 -217.5t60.5 -264q0 -54 -8 -98q-4 -137 -67.5 -257t-163.5 -201.5t-226.5 -128t-257.5 -46.5q-213 0 -377 116q-149 91 -226 246t-77 334q0 142 47.5 272.5t146 235t234.5 151.5zM823 647q0 -248 8 -448
q158 59 267 172.5t143 271.5q-139 4 -418 4zM195 643q31 -158 139.5 -272.5t267.5 -171.5q4 156 8 448q-278 0 -415 -4zM188 829q70 0 212 -1t212 -1q-3 255 -14 457q-159 -57 -268 -175.5t-142 -279.5zM836 1284q-12 -228 -15 -457q70 0 211.5 1t212.5 1
q-35 161 -143.5 279t-265.5 176zM414 1827l71 74q13 10 25 10q11 0 27 -13l69 -73q10 -17 10 -25q0 -14 -12 -26l-69 -76q-14 -17 -25 -17q-10 0 -25 11l-75 86q-9 12 -9 24t13 25zM780 1827l70 74q17 10 27 10q7 0 26 -13l68 -73q10 -13 10 -25q0 -14 -12 -26l-68 -76
q-17 -17 -24 -17q-12 0 -27 11l-76 88q-8 11 -8 22q0 14 14 25z" />
    <glyph glyph-name="multiply" unicode="&#xd7;" 
d="M508 618l-248 -247l-98 98l246 248l-246 248l98 98l248 -248l246 248h2l98 -98l-248 -248l248 -248l-100 -98z" />
    <glyph glyph-name="Oslash" unicode="&#xd8;" horiz-adv-x="1505" 
d="M428 1386q121 56 260 56q136 0 266.5 -54t229 -144.5t159 -217.5t60.5 -264q0 -54 -8 -98q-4 -137 -67.5 -257t-163.5 -201.5t-226.5 -128t-257.5 -46.5q-213 0 -377 116q-149 91 -226 246t-77 334q0 142 47.5 272.5t146 235t234.5 151.5zM823 647q0 -248 8 -448
q158 59 267 172.5t143 271.5q-139 4 -418 4zM195 643q31 -158 139.5 -272.5t267.5 -171.5q4 156 8 448q-278 0 -415 -4zM188 829q70 0 212 -1t212 -1q-3 255 -14 457q-159 -57 -268 -175.5t-142 -279.5zM836 1284q-12 -228 -15 -457q70 0 211.5 1t212.5 1
q-35 161 -143.5 279t-265.5 176zM842 1407q139 0 280 6q-85 -133 -163.5 -304t-129.5 -313t-121.5 -329t-129.5 -317q69 -69 84 -82q-41 2 -121 2q-101 0 -262 -11q60 46 106.5 118t70 134t56.5 153.5t57 143.5q30 87 99 247.5t114 293t60 258.5z" />
    <glyph glyph-name="Ugrave" unicode="&#xd9;" horiz-adv-x="1247" 
d="M0 1391h307q-57 -174 -57 -426q0 -70 5 -210t5 -208v-90q0 -124 97 -205.5t223 -81.5q121 0 204 80q59 59 79 137t20 184q0 21 -1 62t-1 61q0 49 2 72q0 12 -1 34t-1 34q0 37 2 110t2 109q0 211 -54 338q102 2 314 2q-60 -153 -60 -389q0 -59 4.5 -175.5t4.5 -175.5
q0 -231 -58 -383q-59 -130 -187 -199t-280 -69q-163 0 -297 79t-186 224q-41 143 -41 350q0 57 4 173t4 173q0 233 -53 390zM727 1618h-70l-329 203q-35 25 -47 41q-15 21 -15 43q0 31 21 49q17 20 53 20q20 0 41 -12q24 -16 55 -47z" />
    <glyph glyph-name="Uacute" unicode="&#xda;" horiz-adv-x="1247" 
d="M0 1391h307q-57 -174 -57 -426q0 -70 5 -210t5 -208v-90q0 -124 97 -205.5t223 -81.5q121 0 204 80q59 59 79 137t20 184q0 21 -1 62t-1 61q0 49 2 72q0 12 -1 34t-1 34q0 37 2 110t2 109q0 211 -54 338q102 2 314 2q-60 -153 -60 -389q0 -59 4.5 -175.5t4.5 -175.5
q0 -231 -58 -383q-59 -130 -187 -199t-280 -69q-163 0 -297 79t-186 224q-41 143 -41 350q0 57 4 173t4 173q0 233 -53 390zM711 1915q30 33 55 47q21 12 41 12q33 0 53 -20q21 -21 21 -49q0 -19 -17 -43q-14 -19 -45 -41l-332 -203h-67z" />
    <glyph glyph-name="Ucircumflex" unicode="&#xdb;" horiz-adv-x="1247" 
d="M0 1391h307q-57 -174 -57 -426q0 -70 5 -210t5 -208v-90q0 -124 97 -205.5t223 -81.5q121 0 204 80q59 59 79 137t20 184q0 21 -1 62t-1 61q0 49 2 72q0 12 -1 34t-1 34q0 37 2 110t2 109q0 211 -54 338q102 2 314 2q-60 -153 -60 -389q0 -59 4.5 -175.5t4.5 -175.5
q0 -231 -58 -383q-59 -130 -187 -199t-280 -69q-163 0 -297 79t-186 224q-41 143 -41 350q0 57 4 173t4 173q0 233 -53 390zM283 1620l233 354h117l231 -354h-57l-234 215l-231 -215h-59z" />
    <glyph glyph-name="Udieresis" unicode="&#xdc;" horiz-adv-x="1247" 
d="M0 1391h307q-57 -174 -57 -426q0 -70 5 -210t5 -208v-90q0 -124 97 -205.5t223 -81.5q121 0 204 80q59 59 79 137t20 184q0 21 -1 62t-1 61q0 49 2 72q0 12 -1 34t-1 34q0 37 2 110t2 109q0 211 -54 338q102 2 314 2q-60 -153 -60 -389q0 -59 4.5 -175.5t4.5 -175.5
q0 -231 -58 -383q-59 -130 -187 -199t-280 -69q-163 0 -297 79t-186 224q-41 143 -41 350q0 57 4 173t4 173q0 233 -53 390zM297 1827l72 74q13 10 24 10t27 -13l69 -73q11 -18 11 -25q0 -13 -13 -26l-69 -76q-14 -17 -25 -17q-9 0 -24 11l-76 86q-8 11 -8 24t12 25z
M664 1827l69 74q17 10 27 10q6 0 26 -13l68 -73q10 -13 10 -25q0 -14 -12 -26l-68 -76q-17 -17 -24 -17q-12 0 -27 11l-76 88q-8 11 -8 22q0 13 15 25z" />
    <glyph glyph-name="Yacute" unicode="&#xdd;" horiz-adv-x="1314" 
d="M0 1376h383q-4 -32 -4 -47q0 -62 26 -127.5t58.5 -112t79.5 -112t71 -107.5q22 45 65.5 109t76 111t58.5 111t26 124q0 19 -4 51h376q-60 -49 -114 -107t-105.5 -132t-83.5 -125.5t-87 -145.5t-79 -133q-30 -86 -30 -225q0 -41 3 -124.5t3 -125.5q0 -103 -19 -184.5
t-71 -151.5q-76 61 -103.5 141t-27.5 187q0 46 6 140.5t6 141.5q0 183 -82 287q-32 48 -92.5 146.5t-99 157.5t-103 132t-133.5 121zM743 1915q29 32 56 47q21 12 41 12q33 0 53 -20t20 -49q0 -21 -16 -43q-14 -19 -45 -41l-332 -203h-67z" />
    <glyph glyph-name="Thorn" unicode="&#xde;" horiz-adv-x="1064" 
d="M207 1231v-514q33 2 108 2q78 0 160 6q68 3 150 27q67 20 114 73q43 49 43 142v12q0 91 -43 143q-48 54 -114 74q-79 24 -150 29q-110 4 -160 4q-75 0 -108 2zM213 1380q29 2 86 2q100 0 223 -10q102 -8 217 -45q109 -40 168 -139q56 -103 56 -213q0 -103 -45 -189
q-46 -91 -136 -141q-90 -47 -200 -63q-118 -16 -213 -19q-105 -4 -156 -10q2 -109 2 -324v-133q-6 -3 -40.5 -21l-57.5 -30q-22 -11 -55 -29l-44 -24q-6 220 -6 442q-2 49 -2 148q-9 213 0 305q8 84 8 184q0 106 -8 309q0 76 2 113q0 221 6 442q40 -21 99 -51q21 -11 54 -29
l44 -24v-133q0 -212 -2 -318z" />
    <glyph glyph-name="germandbls" unicode="&#xdf;" horiz-adv-x="1271" 
d="M582 170q66 0 127 6q84 10 151 45q52 27 74 76t22 102q0 65 -28 129q-63 75 -150 93q-89 18 -182 18h-76q-40 0 -110 4l4 -659q-7 -1 -20 -2t-19 -2q-95 -9 -182 -43q2 109 2 323q0 169 -7 402q-12 -7 -90 -58q-16 -10 -33 -21l-34 -22t-25 -16q0 169 -6 332
q3 -1 40.5 -15t55.5 -20q74 -29 97 -37v18q0 78 2 117q2 41 2 121q0 67 -11 172q-12 85 0 125q9 39 72 39q84 0 127 2t127 2q103 0 236 -17q113 -15 219 -71q62 -45 98 -115q31 -70 31 -139q0 -105 -58 -199q-57 -91 -164 -139q143 -15 220 -117q75 -100 75 -225
q0 -73 -28 -146q-28 -67 -90 -122q-110 -78 -232 -99q-125 -19 -237 -22v180zM410 1225v-410q64 4 106 2q95 0 168 8q84 9 139 47q58 40 58 132q0 22 -2 34q-12 129 -115 156q-108 28 -227 25q-69 0 -127 6z" />
    <glyph glyph-name="agrave" unicode="&#xe0;" horiz-adv-x="1083" 
d="M244 811q78 37 178 37q111 0 280 -47q46 8 139.5 24.5t139.5 24.5q-45 -162 -45 -404q0 -51 2 -153.5t2 -153.5q0 -84 -2 -127q-143 86 -199 121q-61 -26 -103.5 -41.5t-103.5 -29t-114 -13.5q-65 0 -135 25q-135 43 -209 148t-74 231q0 114 63 211.5t181 146.5zM283 645
q-101 -70 -101 -196q0 -92 61.5 -164.5t166.5 -83.5q34 -6 65 -6q114 0 196.5 71t82.5 166q0 29 -4 43v8q0 93 -88.5 154t-202.5 61q-106 0 -176 -53zM795 1079h-70l-330 203q-35 25 -47 41q-14 20 -14 43q0 32 20 49q18 21 54 21q18 0 41 -13q24 -16 55 -47z" />
    <glyph glyph-name="aacute" unicode="&#xe1;" horiz-adv-x="1083" 
d="M244 811q78 37 178 37q111 0 280 -47q46 8 139.5 24.5t139.5 24.5q-45 -162 -45 -404q0 -51 2 -153.5t2 -153.5q0 -84 -2 -127q-143 86 -199 121q-61 -26 -103.5 -41.5t-103.5 -29t-114 -13.5q-65 0 -135 25q-135 43 -209 148t-74 231q0 114 63 211.5t181 146.5zM283 645
q-101 -70 -101 -196q0 -92 61.5 -164.5t166.5 -83.5q34 -6 65 -6q114 0 196.5 71t82.5 166q0 29 -4 43v8q0 93 -88.5 154t-202.5 61q-106 0 -176 -53zM778 1376q29 32 56 47q23 13 40 13q33 0 54 -21q20 -20 20 -49q0 -21 -16 -43q-14 -19 -45 -41l-332 -203h-68z" />
    <glyph glyph-name="acircumflex" unicode="&#xe2;" horiz-adv-x="1083" 
d="M244 811q78 37 178 37q111 0 280 -47q46 8 139.5 24.5t139.5 24.5q-45 -162 -45 -404q0 -51 2 -153.5t2 -153.5q0 -84 -2 -127q-143 86 -199 121q-61 -26 -103.5 -41.5t-103.5 -29t-114 -13.5q-65 0 -135 25q-135 43 -209 148t-74 231q0 114 63 211.5t181 146.5zM283 645
q-101 -70 -101 -196q0 -92 61.5 -164.5t166.5 -83.5q34 -6 65 -6q114 0 196.5 71t82.5 166q0 29 -4 43v8q0 93 -88.5 154t-202.5 61q-106 0 -176 -53zM350 1081l234 355h116l232 -355h-58l-233 215l-231 -215h-60z" />
    <glyph glyph-name="atilde" unicode="&#xe3;" horiz-adv-x="1083" 
d="M244 811q78 37 178 37q111 0 280 -47q46 8 139.5 24.5t139.5 24.5q-45 -162 -45 -404q0 -51 2 -153.5t2 -153.5q0 -84 -2 -127q-143 86 -199 121q-61 -26 -103.5 -41.5t-103.5 -29t-114 -13.5q-65 0 -135 25q-135 43 -209 148t-74 231q0 114 63 211.5t181 146.5zM283 645
q-101 -70 -101 -196q0 -92 61.5 -164.5t166.5 -83.5q34 -6 65 -6q114 0 196.5 71t82.5 166q0 29 -4 43v8q0 93 -88.5 154t-202.5 61q-106 0 -176 -53zM928 1354q-18 -74 -68 -133q-49 -58 -131 -58q-48 0 -115 31t-120 31q-60 0 -84 -62h-56q17 73 68 133q52 58 119 58
q51 0 123 -29q69 -29 122 -29q61 0 88 58h54z" />
    <glyph glyph-name="adieresis" unicode="&#xe4;" horiz-adv-x="1083" 
d="M244 811q78 37 178 37q111 0 280 -47q46 8 139.5 24.5t139.5 24.5q-45 -162 -45 -404q0 -51 2 -153.5t2 -153.5q0 -84 -2 -127q-143 86 -199 121q-61 -26 -103.5 -41.5t-103.5 -29t-114 -13.5q-65 0 -135 25q-135 43 -209 148t-74 231q0 114 63 211.5t181 146.5zM283 645
q-101 -70 -101 -196q0 -92 61.5 -164.5t166.5 -83.5q34 -6 65 -6q114 0 196.5 71t82.5 166q0 29 -4 43v8q0 93 -88.5 154t-202.5 61q-106 0 -176 -53zM365 1288l71 74q13 10 25 10q11 0 26 -12l70 -74q10 -17 10 -24q0 -15 -12 -27l-70 -76q-13 -16 -24 -16q-12 0 -25 10
l-76 86q-8 11 -8 25q0 11 13 24zM731 1288l70 74q17 10 26 10t27 -12l68 -74q10 -13 10 -24q0 -15 -12 -27l-68 -76q-16 -16 -25 -16q-13 0 -26 10l-76 88q-8 11 -8 23q0 13 14 24z" />
    <glyph glyph-name="aring" unicode="&#xe5;" horiz-adv-x="1083" 
d="M244 811q78 37 178 37q111 0 280 -47q46 8 139.5 24.5t139.5 24.5q-45 -162 -45 -404q0 -51 2 -153.5t2 -153.5q0 -84 -2 -127q-143 86 -199 121q-61 -26 -103.5 -41.5t-103.5 -29t-114 -13.5q-65 0 -135 25q-135 43 -209 148t-74 231q0 114 63 211.5t181 146.5zM283 645
q-101 -70 -101 -196q0 -92 61.5 -164.5t166.5 -83.5q34 -6 65 -6q114 0 196.5 71t82.5 166q0 29 -4 43v8q0 93 -88.5 154t-202.5 61q-106 0 -176 -53zM539 1257q0 -41 28 -69q31 -31 72 -31t72 31q28 28 28 69q0 43 -30 70q-28 31 -70 31t-70 -31q-30 -27 -30 -70zM463 1257
q0 76 51 127q52 52 125 52q72 0 127 -52q51 -51 51 -127t-51 -127q-54 -51 -127 -51q-74 0 -125 51t-51 127z" />
    <glyph glyph-name="ae" unicode="&#xe6;" horiz-adv-x="1802" 
d="M244 811q78 37 178 37q111 0 280 -47q46 8 139.5 24.5t139.5 24.5q-45 -162 -45 -404q0 -51 2 -153.5t2 -153.5q0 -84 -2 -127q-143 86 -199 121q-61 -26 -103.5 -41.5t-103.5 -29t-114 -13.5q-65 0 -135 25q-135 43 -209 148t-74 231q0 114 63 211.5t181 146.5zM283 645
q-101 -70 -101 -196q0 -92 61.5 -164.5t166.5 -83.5q34 -6 65 -6q114 0 196.5 71t82.5 166q0 29 -4 43v8q0 93 -88.5 154t-202.5 61q-106 0 -176 -53zM899 145q-115 101 -115 246q0 76 35 151t94.5 133.5t146 95t181.5 36.5q26 0 84 -8q80 -5 145 -35t107 -75t70.5 -104
t40.5 -118.5t12 -120.5l-2 -6h-295q-295 0 -442 -8q107 -174 358 -174q166 0 334 71l2 -2q0 -78 -47.5 -132t-119.5 -76.5t-163 -22.5q-123 0 -242 40.5t-184 108.5zM983 489q97 -28 244 -28q52 0 157.5 5t157.5 5q-15 15 -41.5 45.5t-45.5 50t-46.5 41t-59.5 32.5t-69 11
h-41q-145 0 -256 -162z" />
    <glyph glyph-name="ccedilla" unicode="&#xe7;" horiz-adv-x="884" 
d="M242 805q85 39 196 39q63 0 179 -16t155 -19q0 -162 2 -244q-48 62 -125 94.5t-164 32.5q-124 0 -214.5 -61.5t-90.5 -165.5q0 -31 4 -47q7 -104 88 -158.5t195 -54.5q90 0 174.5 32t140.5 89q-2 -18 -10.5 -95t-13.5 -120q-6 -2 -44 -12.5t-48.5 -13.5t-43 -11
t-49.5 -11t-44.5 -8t-50.5 -6.5t-46 -1.5q-79 0 -147 25q-136 41 -210.5 145.5t-74.5 228.5q0 115 62.5 213t179.5 146zM221 -291q83 -51 152 -51q64 0 94 23q29 20 29 65q0 46 -50 64q-43 16 -100 16q-23 0 -35 -2l47 176h64l-37 -104q14 2 35.5 4t25.5 2q86 0 136 -41
q47 -41 47 -115q0 -76 -58 -119q-57 -45 -161 -45q-113 0 -189 33v94z" />
    <glyph glyph-name="egrave" unicode="&#xe8;" horiz-adv-x="1017" 
d="M117 145q-117 100 -117 246q0 76 35 151t94.5 133.5t146 95t181.5 36.5q28 0 86 -8q80 -5 144.5 -35t106 -75t69.5 -104t40 -118.5t12 -120.5v-6h-294q-296 0 -443 -8q107 -174 357 -174q167 0 335 71v-2q0 -79 -46.5 -132.5t-118 -76t-162.5 -22.5q-124 0 -242.5 40.5
t-183.5 108.5zM201 489q95 -28 241 -28q53 0 159.5 5t158.5 5q-15 15 -42 45.5t-46 50t-46.5 41t-59.5 32.5t-68 11h-41q-149 0 -256 -162zM625 1079h-70l-330 203q-35 25 -47 41q-14 20 -14 43q0 32 20 49q18 21 54 21q18 0 41 -13q24 -16 55 -47z" />
    <glyph glyph-name="eacute" unicode="&#xe9;" horiz-adv-x="1017" 
d="M117 145q-117 100 -117 246q0 76 35 151t94.5 133.5t146 95t181.5 36.5q28 0 86 -8q80 -5 144.5 -35t106 -75t69.5 -104t40 -118.5t12 -120.5v-6h-294q-296 0 -443 -8q107 -174 357 -174q167 0 335 71v-2q0 -79 -46.5 -132.5t-118 -76t-162.5 -22.5q-124 0 -242.5 40.5
t-183.5 108.5zM201 489q95 -28 241 -28q53 0 159.5 5t158.5 5q-15 15 -42 45.5t-46 50t-46.5 41t-59.5 32.5t-68 11h-41q-149 0 -256 -162zM608 1376q29 32 56 47q23 13 41 13q32 0 53 -21q20 -20 20 -49q0 -21 -16 -43q-14 -19 -45 -41l-332 -203h-68z" />
    <glyph glyph-name="ecircumflex" unicode="&#xea;" horiz-adv-x="1017" 
d="M117 145q-117 100 -117 246q0 76 35 151t94.5 133.5t146 95t181.5 36.5q28 0 86 -8q80 -5 144.5 -35t106 -75t69.5 -104t40 -118.5t12 -120.5v-6h-294q-296 0 -443 -8q107 -174 357 -174q167 0 335 71v-2q0 -79 -46.5 -132.5t-118 -76t-162.5 -22.5q-124 0 -242.5 40.5
t-183.5 108.5zM201 489q95 -28 241 -28q53 0 159.5 5t158.5 5q-15 15 -42 45.5t-46 50t-46.5 41t-59.5 32.5t-68 11h-41q-149 0 -256 -162zM180 1081l234 355h116l232 -355h-57l-234 215l-231 -215h-60z" />
    <glyph glyph-name="edieresis" unicode="&#xeb;" horiz-adv-x="1017" 
d="M117 145q-117 100 -117 246q0 76 35 151t94.5 133.5t146 95t181.5 36.5q28 0 86 -8q80 -5 144.5 -35t106 -75t69.5 -104t40 -118.5t12 -120.5v-6h-294q-296 0 -443 -8q107 -174 357 -174q167 0 335 71v-2q0 -79 -46.5 -132.5t-118 -76t-162.5 -22.5q-124 0 -242.5 40.5
t-183.5 108.5zM201 489q95 -28 241 -28q53 0 159.5 5t158.5 5q-15 15 -42 45.5t-46 50t-46.5 41t-59.5 32.5t-68 11h-41q-149 0 -256 -162zM195 1288l71 74q13 10 25 10q11 0 26 -12l70 -74q10 -17 10 -24q0 -15 -12 -27l-70 -76q-13 -16 -24 -16q-12 0 -25 10l-76 86
q-8 11 -8 25q0 11 13 24zM561 1288l70 74q17 10 26 10t27 -12l68 -74q10 -13 10 -24q0 -15 -12 -27l-68 -76q-16 -16 -25 -16q-13 0 -26 10l-76 88q-8 11 -8 23q0 13 14 24z" />
    <glyph glyph-name="igrave" unicode="&#xec;" horiz-adv-x="514" 
d="M328 223q0 -174 100 -174h45v-49h-440v49h45q100 0 100 174v432q0 76 -110 76h-50v45q222 67 263 182h47v-735zM455 1225h-70l-330 202q-35 25 -47 41q-14 20 -14 43q0 33 20 50q17 20 54 20q20 0 41 -12q24 -16 55 -47z" />
    <glyph glyph-name="iacute" unicode="&#xed;" horiz-adv-x="514" 
d="M328 223q0 -174 100 -174h45v-49h-440v49h45q100 0 100 174v432q0 76 -110 76h-50v45q222 67 263 182h47v-735zM438 1522q29 32 56 47q21 12 41 12q33 0 53 -20t20 -50q0 -21 -16 -43q-14 -19 -45 -41l-332 -202h-68z" />
    <glyph glyph-name="icircumflex" unicode="&#xee;" horiz-adv-x="514" 
d="M328 223q0 -174 100 -174h45v-49h-440v49h45q100 0 100 174v432q0 76 -110 76h-50v45q222 67 263 182h47v-735zM10 1227l234 354h116l232 -354h-57l-234 215l-231 -215h-60z" />
    <glyph glyph-name="idieresis" unicode="&#xef;" horiz-adv-x="514" 
d="M328 223q0 -174 100 -174h45v-49h-440v49h45q100 0 100 174v432q0 76 -110 76h-50v45q222 67 263 182h47v-735zM25 1434l71 73q15 11 25 11t26 -13l70 -73q10 -17 10 -25q0 -15 -12 -27l-70 -75q-14 -17 -24 -17q-12 0 -25 10l-76 86q-8 11 -8 25q0 12 13 25zM391 1434
l70 73q18 11 26 11q7 0 27 -13l68 -73q10 -12 10 -25q0 -15 -12 -27l-68 -75q-17 -17 -25 -17q-13 0 -26 10l-76 88q-8 11 -8 23q0 14 14 25z" />
    <glyph glyph-name="eth" unicode="&#xf0;" horiz-adv-x="1138" 
 />
    <glyph glyph-name="ntilde" unicode="&#xf1;" horiz-adv-x="1052" 
d="M0 854q316 -8 475 -8t475 8q-16 -12 -59.5 -45.5t-59.5 -44.5q3 -375 3 -748q-178 68 -199 76v590q-53 2 -160 2t-160 -2v-590q-99 -38 -198 -78v752q-15 12 -59 44.5t-58 43.5zM762 1354q-18 -74 -68 -133q-49 -58 -131 -58q-47 0 -114 31t-121 31q-60 0 -84 -62h-56
q17 73 68 133q52 58 119 58q51 0 123 -29q69 -29 123 -29q61 0 88 58h53z" />
    <glyph glyph-name="ograve" unicode="&#xf2;" horiz-adv-x="1040" 
d="M289 797q79 32 174 32q121 0 231 -54.5t177 -147t67 -197.5q0 -19 -4 -51q-1 -104 -70 -193t-178 -138.5t-229 -49.5q-112 0 -213 49q-118 51 -181 150t-63 215q0 127 76 234.5t213 150.5zM281 616q-101 -73 -101 -200q0 -96 62.5 -171t169.5 -85q34 -6 63 -6
q114 0 196.5 73.5t82.5 171.5q0 26 -6 50v4q0 96 -88 157.5t-201 61.5q-108 0 -178 -56zM623 1079h-70l-330 203q-35 25 -47 41q-14 20 -14 43q0 32 20 49q18 21 54 21q17 0 40 -13q27 -18 56 -47z" />
    <glyph glyph-name="oacute" unicode="&#xf3;" horiz-adv-x="1040" 
d="M289 797q79 32 174 32q121 0 231 -54.5t177 -147t67 -197.5q0 -19 -4 -51q-1 -104 -70 -193t-178 -138.5t-229 -49.5q-112 0 -213 49q-118 51 -181 150t-63 215q0 127 76 234.5t213 150.5zM281 616q-101 -73 -101 -200q0 -96 62.5 -171t169.5 -85q34 -6 63 -6
q114 0 196.5 73.5t82.5 171.5q0 26 -6 50v4q0 96 -88 157.5t-201 61.5q-108 0 -178 -56zM606 1376q29 32 56 47q23 13 40 13q33 0 54 -21q20 -20 20 -49q0 -21 -16 -43q-14 -19 -45 -41l-332 -203h-68z" />
    <glyph glyph-name="ocircumflex" unicode="&#xf4;" horiz-adv-x="1040" 
d="M289 797q79 32 174 32q121 0 231 -54.5t177 -147t67 -197.5q0 -19 -4 -51q-1 -104 -70 -193t-178 -138.5t-229 -49.5q-112 0 -213 49q-118 51 -181 150t-63 215q0 127 76 234.5t213 150.5zM281 616q-101 -73 -101 -200q0 -96 62.5 -171t169.5 -85q34 -6 63 -6
q114 0 196.5 73.5t82.5 171.5q0 26 -6 50v4q0 96 -88 157.5t-201 61.5q-108 0 -178 -56zM178 1081l234 355h116l232 -355h-58l-233 215l-231 -215h-60z" />
    <glyph glyph-name="otilde" unicode="&#xf5;" horiz-adv-x="1040" 
d="M289 797q79 32 174 32q121 0 231 -54.5t177 -147t67 -197.5q0 -19 -4 -51q-1 -104 -70 -193t-178 -138.5t-229 -49.5q-112 0 -213 49q-118 51 -181 150t-63 215q0 127 76 234.5t213 150.5zM281 616q-101 -73 -101 -200q0 -96 62.5 -171t169.5 -85q34 -6 63 -6
q114 0 196.5 73.5t82.5 171.5q0 26 -6 50v4q0 96 -88 157.5t-201 61.5q-108 0 -178 -56zM756 1354q-18 -74 -68 -133q-49 -58 -131 -58q-48 0 -115 31t-120 31q-60 0 -84 -62h-56q17 73 68 133q52 58 119 58q51 0 123 -29q69 -29 122 -29q61 0 88 58h54z" />
    <glyph glyph-name="odieresis" unicode="&#xf6;" horiz-adv-x="1040" 
d="M289 797q79 32 174 32q121 0 231 -54.5t177 -147t67 -197.5q0 -19 -4 -51q-1 -104 -70 -193t-178 -138.5t-229 -49.5q-112 0 -213 49q-118 51 -181 150t-63 215q0 127 76 234.5t213 150.5zM281 616q-101 -73 -101 -200q0 -96 62.5 -171t169.5 -85q34 -6 63 -6
q114 0 196.5 73.5t82.5 171.5q0 26 -6 50v4q0 96 -88 157.5t-201 61.5q-108 0 -178 -56zM193 1288l71 74q13 10 25 10q11 0 26 -12l70 -74q10 -17 10 -24q0 -15 -12 -27l-70 -76q-13 -16 -24 -16q-12 0 -25 10l-76 86q-8 11 -8 25q0 11 13 24zM559 1288l70 74q17 10 26 10
t27 -12l68 -74q10 -13 10 -24q0 -15 -12 -27l-68 -76q-16 -16 -25 -16q-13 0 -26 10l-76 88q-8 11 -8 23q0 13 14 24z" />
    <glyph glyph-name="divide" unicode="&#xf7;" 
d="M86 647v139h840h2v-139h-842zM397 408l82 84q14 14 31 14q11 0 31 -17l80 -86q12 -15 12 -28q0 -12 -15 -31l-79 -88q-20 -20 -29 -20q-13 0 -31 14l-88 100q-8 13 -8 27q0 17 14 31zM397 1102l82 84q15 12 31 12q14 0 31 -14l80 -86q12 -18 12 -31q0 -9 -15 -31l-79 -88
q-21 -18 -29 -18q-16 0 -31 12l-88 102q-8 11 -8 25q0 16 14 33z" />
    <glyph glyph-name="oslash" unicode="&#xf8;" horiz-adv-x="1040" 
d="M289 797q79 32 174 32q121 0 231 -54.5t177 -147t67 -197.5q0 -19 -4 -51q-1 -104 -70 -193t-178 -138.5t-229 -49.5q-112 0 -213 49q-118 51 -181 150t-63 215q0 127 76 234.5t213 150.5zM281 616q-101 -73 -101 -200q0 -96 62.5 -171t169.5 -85q34 -6 63 -6
q114 0 196.5 73.5t82.5 171.5q0 26 -6 50v4q0 96 -88 157.5t-201 61.5q-108 0 -178 -56zM610 1085q116 0 281 7q-85 -133 -163.5 -304.5t-130 -313.5t-122 -329t-129.5 -317q69 -69 84 -82q-20 0 -61 1t-62 1q-117 0 -260 -10q77 60 126 147t95.5 220t69.5 182
q27 79 75.5 195t83.5 200t68.5 194.5t44.5 208.5z" />
    <glyph glyph-name="ugrave" unicode="&#xf9;" horiz-adv-x="1101" 
d="M0 827q301 5 362 7q-53 -171 -53 -347q0 -101 23 -223q25 -48 81 -73t124 -25q67 0 122.5 26.5t79.5 75.5q17 112 17 277v198q-16 10 -62 42t-61 42q307 5 366 7q-31 -88 -38.5 -201.5t-12 -231t-28.5 -202.5q-42 -93 -147.5 -143t-233.5 -50q-131 0 -239.5 52.5
t-149.5 148.5q-35 109 -35 274q0 35 1 105.5t1 105.5v53q-15 10 -58.5 41t-58.5 41zM653 1079h-69l-330 203q-35 25 -47 41q-14 20 -14 43q0 32 20 49q18 21 53 21q18 0 41 -13q24 -16 55 -47z" />
    <glyph glyph-name="uacute" unicode="&#xfa;" horiz-adv-x="1101" 
d="M0 827q301 5 362 7q-53 -171 -53 -347q0 -101 23 -223q25 -48 81 -73t124 -25q67 0 122.5 26.5t79.5 75.5q17 112 17 277v198q-16 10 -62 42t-61 42q307 5 366 7q-31 -88 -38.5 -201.5t-12 -231t-28.5 -202.5q-42 -93 -147.5 -143t-233.5 -50q-131 0 -239.5 52.5
t-149.5 148.5q-35 109 -35 274q0 35 1 105.5t1 105.5v53q-15 10 -58.5 41t-58.5 41zM637 1376q30 33 55 47q23 13 41 13q32 0 53 -21t21 -49q0 -21 -16 -43q-13 -18 -46 -41l-331 -203h-68z" />
    <glyph glyph-name="ucircumflex" unicode="&#xfb;" horiz-adv-x="1101" 
d="M0 827q301 5 362 7q-53 -171 -53 -347q0 -101 23 -223q25 -48 81 -73t124 -25q67 0 122.5 26.5t79.5 75.5q17 112 17 277v198q-16 10 -62 42t-61 42q307 5 366 7q-31 -88 -38.5 -201.5t-12 -231t-28.5 -202.5q-42 -93 -147.5 -143t-233.5 -50q-131 0 -239.5 52.5
t-149.5 148.5q-35 109 -35 274q0 35 1 105.5t1 105.5v53q-15 10 -58.5 41t-58.5 41zM209 1081l233 355h117l232 -355h-58l-233 215l-232 -215h-59z" />
    <glyph glyph-name="udieresis" unicode="&#xfc;" horiz-adv-x="1101" 
d="M0 827q301 5 362 7q-53 -171 -53 -347q0 -101 23 -223q25 -48 81 -73t124 -25q67 0 122.5 26.5t79.5 75.5q17 112 17 277v198q-16 10 -62 42t-61 42q307 5 366 7q-31 -88 -38.5 -201.5t-12 -231t-28.5 -202.5q-42 -93 -147.5 -143t-233.5 -50q-131 0 -239.5 52.5
t-149.5 148.5q-35 109 -35 274q0 35 1 105.5t1 105.5v53q-15 10 -58.5 41t-58.5 41zM223 1288l72 74q13 10 24 10q12 0 27 -12l70 -74q10 -17 10 -24q0 -15 -12 -27l-70 -76q-13 -16 -25 -16q-11 0 -24 10l-76 86q-8 11 -8 25q0 12 12 24zM590 1288l69 74q17 10 27 10
q9 0 27 -12l67 -74q11 -14 11 -24q0 -14 -13 -27l-67 -76q-16 -16 -25 -16q-14 0 -27 10l-75 88q-9 12 -9 23q0 12 15 24z" />
    <glyph glyph-name="yacute" unicode="&#xfd;" horiz-adv-x="1134" 
d="M0 809q147 -6 297 -6h98q-26 -53 -26 -111q0 -64 29.5 -139t71.5 -158.5t58 -134.5q143 311 179 539q212 8 325 14q-78 -83 -142 -186.5t-110 -208t-87 -206.5t-94.5 -214.5t-111.5 -200.5q-28 -33 -72.5 -56t-109 -45.5t-92.5 -35.5q21 38 78.5 117t91 144t33.5 126
q0 58 -35 113q-34 63 -77.5 167.5t-74.5 178.5t-91 159.5t-138 143.5zM653 1376q29 32 56 47q23 13 41 13q32 0 53 -21q20 -20 20 -49q0 -21 -16 -43q-14 -19 -45 -41l-332 -203h-68z" />
    <glyph glyph-name="thorn" unicode="&#xfe;" horiz-adv-x="1046" 
d="M319 264q72 -35 152 -35q91 0 168 41q76 40 104 119q21 43 21 88q0 96 -74 176q-77 80 -196 80q-25 0 -37 -2h-4q-127 0 -195 -80t-68 -174q0 -65 33 -121q29 -56 96 -92zM186 836q9 -2 29 -5.5t29 -5.5q8 1 37 11q68 17 122 30q67 13 123 13q66 0 136 -25
q141 -47 212 -152q70 -104 70 -221t-72 -227q-71 -104 -219 -152q-71 -24 -139 -24q-84 0 -170 28q-76 25 -160 66q9 -181 9 -362q2 -31 2 -91q-11 -7 -19 -10q-12 -7 -75 -43t-95 -55q-6 105 -6 207q0 86 4 258q6 129 6 258q0 4 -4 532q0 6 -1 19.5t-1 19.5q-4 172 -4 256
q0 104 6 209q60 -38 170 -98q11 -7 19 -10q0 -62 -2 -93q0 -139 -7 -333z" />
    <glyph glyph-name="ydieresis" unicode="&#xff;" horiz-adv-x="1134" 
d="M0 809q147 -6 297 -6h98q-26 -53 -26 -111q0 -64 29.5 -139t71.5 -158.5t58 -134.5q143 311 179 539q212 8 325 14q-78 -83 -142 -186.5t-110 -208t-87 -206.5t-94.5 -214.5t-111.5 -200.5q-28 -33 -72.5 -56t-109 -45.5t-92.5 -35.5q21 38 78.5 117t91 144t33.5 126
q0 58 -35 113q-34 63 -77.5 167.5t-74.5 178.5t-91 159.5t-138 143.5zM240 1288l71 74q13 10 25 10q11 0 26 -12l70 -74q10 -17 10 -24q0 -15 -12 -27l-70 -76q-13 -16 -24 -16q-12 0 -25 10l-75 86q-9 12 -9 25q0 11 13 24zM606 1288l70 74q17 10 26 10t27 -12l68 -74
q10 -13 10 -24q0 -15 -12 -27l-68 -76q-16 -16 -25 -16q-13 0 -26 10l-76 88q-8 11 -8 23q0 13 14 24z" />
    <glyph glyph-name="Amacron" unicode="&#x100;" horiz-adv-x="1447" 
d="M514 1395q200 4 301 4q1 -97 28 -206.5t59.5 -193t77 -198t67.5 -191.5q26 -59 57 -159t53.5 -170.5t71.5 -149.5t117 -129q-55 4 -168 4q-147 0 -252 -10q71 39 71 113q0 39 -27 117t-32 106q-172 -2 -512 -2q-37 -105 -86 -230q6 -8 24 -30t33.5 -41t24.5 -31
q-93 8 -211 8q-123 0 -211 -10q9 8 37 31.5t40.5 35t32 32.5t30.5 42.5t18 46.5q67 176 195 545t200 555q-5 15 -19.5 56t-19.5 55zM842 528q-117 372 -199 559l-184 -555zM410 1733v127h516v-127h-516z" />
    <glyph glyph-name="amacron" unicode="&#x101;" horiz-adv-x="1083" 
d="M244 811q78 37 178 37q111 0 280 -47q46 8 139.5 24.5t139.5 24.5q-45 -162 -45 -404q0 -51 2 -153.5t2 -153.5q0 -84 -2 -127q-143 86 -199 121q-61 -26 -103.5 -41.5t-103.5 -29t-114 -13.5q-65 0 -135 25q-135 43 -209 148t-74 231q0 114 63 211.5t181 146.5zM283 645
q-101 -70 -101 -196q0 -92 61.5 -164.5t166.5 -83.5q34 -6 65 -6q114 0 196.5 71t82.5 166q0 29 -4 43v8q0 93 -88.5 154t-202.5 61q-106 0 -176 -53zM383 1194v127h516v-127h-516z" />
    <glyph glyph-name="Cacute" unicode="&#x106;" horiz-adv-x="1290" 
d="M231 1214q181 164 449 164q241 0 444 -127q4 19 17.5 74.5t17.5 73.5q19 -218 29 -473q-100 127 -231 207.5t-273 80.5q-69 0 -133 -20q-111 -28 -192 -108t-119.5 -183.5t-38.5 -218.5q0 -158 73.5 -291t210.5 -192q101 -43 205 -43q142 0 274.5 71.5t223.5 192.5
q-5 -85 -17 -243t-14 -193l-43 116q-235 -108 -444 -108q-206 0 -361 106q-149 89 -229 248.5t-80 339.5q0 154 58.5 292t172.5 234zM1294 1915q29 32 56 47q21 12 41 12q33 0 53 -20t20 -49q0 -21 -16 -43q-14 -19 -45 -41l-332 -203h-67z" />
    <glyph glyph-name="cacute" unicode="&#x107;" horiz-adv-x="884" 
d="M242 805q85 39 196 39q63 0 179 -16t155 -19q0 -162 2 -244q-48 62 -125 94.5t-164 32.5q-124 0 -214.5 -61.5t-90.5 -165.5q0 -31 4 -47q7 -104 88 -158.5t195 -54.5q90 0 174.5 32t140.5 89q-2 -18 -10.5 -95t-13.5 -120q-6 -2 -44 -12.5t-48.5 -13.5t-43 -11
t-49.5 -11t-44.5 -8t-50.5 -6.5t-46 -1.5q-79 0 -147 25q-136 41 -210.5 145.5t-74.5 228.5q0 115 62.5 213t179.5 146zM602 1376q30 33 55 47q23 13 41 13q33 0 54 -21q20 -20 20 -49q0 -21 -16 -43q-14 -19 -45 -41l-332 -203h-68z" />
    <glyph glyph-name="Ccircumflex" unicode="&#x108;" horiz-adv-x="1290" 
d="M231 1214q181 164 449 164q241 0 444 -127q4 19 17.5 74.5t17.5 73.5q19 -218 29 -473q-100 127 -231 207.5t-273 80.5q-69 0 -133 -20q-111 -28 -192 -108t-119.5 -183.5t-38.5 -218.5q0 -158 73.5 -291t210.5 -192q101 -43 205 -43q142 0 274.5 71.5t223.5 192.5
q-5 -85 -17 -243t-14 -193l-43 116q-235 -108 -444 -108q-206 0 -361 106q-149 89 -229 248.5t-80 339.5q0 154 58.5 292t172.5 234zM866 1620l234 354h117l231 -354h-57l-234 215l-231 -215h-60z" />
    <glyph glyph-name="ccircumflex" unicode="&#x109;" horiz-adv-x="884" 
d="M242 805q85 39 196 39q63 0 179 -16t155 -19q0 -162 2 -244q-48 62 -125 94.5t-164 32.5q-124 0 -214.5 -61.5t-90.5 -165.5q0 -31 4 -47q7 -104 88 -158.5t195 -54.5q90 0 174.5 32t140.5 89q-2 -18 -10.5 -95t-13.5 -120q-6 -2 -44 -12.5t-48.5 -13.5t-43 -11
t-49.5 -11t-44.5 -8t-50.5 -6.5t-46 -1.5q-79 0 -147 25q-136 41 -210.5 145.5t-74.5 228.5q0 115 62.5 213t179.5 146zM174 1081l234 355h116l232 -355h-58l-233 215l-232 -215h-59z" />
    <glyph glyph-name="Cdotaccent" unicode="&#x10a;" horiz-adv-x="1290" 
d="M231 1214q181 164 449 164q241 0 444 -127q4 19 17.5 74.5t17.5 73.5q19 -218 29 -473q-100 127 -231 207.5t-273 80.5q-69 0 -133 -20q-111 -28 -192 -108t-119.5 -183.5t-38.5 -218.5q0 -158 73.5 -291t210.5 -192q101 -43 205 -43q142 0 274.5 71.5t223.5 192.5
q-5 -85 -17 -243t-14 -193l-43 116q-235 -108 -444 -108q-206 0 -361 106q-149 89 -229 248.5t-80 339.5q0 154 58.5 292t172.5 234zM1063 1827l70 74q4 4 12 8q6 2 14 2t12 -2q12 -6 13 -8l71 -78q7 -3 9 -8q0 -2 1 -7.5t1 -7.5q-1 -3 -2 -8.5t-2 -7.5q-4 -7 -9 -10
l-71 -78q-3 -3 -8.5 -7.5t-6.5 -5.5q-4 -2 -8 -2q-12 0 -16 2q-7 4 -10 9l-76 86q-4 8 -4 10q-2 4 -2 14q0 9 2 13t10 12z" />
    <glyph glyph-name="cdotaccent" unicode="&#x10b;" horiz-adv-x="884" 
d="M242 805q85 39 196 39q63 0 179 -16t155 -19q0 -162 2 -244q-48 62 -125 94.5t-164 32.5q-124 0 -214.5 -61.5t-90.5 -165.5q0 -31 4 -47q7 -104 88 -158.5t195 -54.5q90 0 174.5 32t140.5 89q-2 -18 -10.5 -95t-13.5 -120q-6 -2 -44 -12.5t-48.5 -13.5t-43 -11
t-49.5 -11t-44.5 -8t-50.5 -6.5t-46 -1.5q-79 0 -147 25q-136 41 -210.5 145.5t-74.5 228.5q0 115 62.5 213t179.5 146zM371 1288l69 74q3 3 13 8q6 2 14 2t12 -2q12 -6 13 -8l71 -78q5 -3 8 -8q0 -2 1 -7t1 -7q-1 -3 -2 -9t-2 -8q-4 -8 -8 -10l-72 -78q-4 -3 -9 -7t-5 -5
q-4 -2 -8 -2q-12 0 -16 2q-9 5 -11 8l-75 86l-5 10q-2 4 -2 15q0 8 2 12q1 2 11 12z" />
    <glyph glyph-name="Ccaron" unicode="&#x10c;" horiz-adv-x="1290" 
d="M231 1214q181 164 449 164q241 0 444 -127q4 19 17.5 74.5t17.5 73.5q19 -218 29 -473q-100 127 -231 207.5t-273 80.5q-69 0 -133 -20q-111 -28 -192 -108t-119.5 -183.5t-38.5 -218.5q0 -158 73.5 -291t210.5 -192q101 -43 205 -43q142 0 274.5 71.5t223.5 192.5
q-5 -85 -17 -243t-14 -193l-43 116q-235 -108 -444 -108q-206 0 -361 106q-149 89 -229 248.5t-80 339.5q0 154 58.5 292t172.5 234zM866 1974h60l231 -213l234 213h57l-231 -356h-117z" />
    <glyph glyph-name="ccaron" unicode="&#x10d;" horiz-adv-x="884" 
d="M242 805q85 39 196 39q63 0 179 -16t155 -19q0 -162 2 -244q-48 62 -125 94.5t-164 32.5q-124 0 -214.5 -61.5t-90.5 -165.5q0 -31 4 -47q7 -104 88 -158.5t195 -54.5q90 0 174.5 32t140.5 89q-2 -18 -10.5 -95t-13.5 -120q-6 -2 -44 -12.5t-48.5 -13.5t-43 -11
t-49.5 -11t-44.5 -8t-50.5 -6.5t-46 -1.5q-79 0 -147 25q-136 41 -210.5 145.5t-74.5 228.5q0 115 62.5 213t179.5 146zM174 1436h59l232 -213l233 213h58l-232 -357h-116z" />
    <glyph glyph-name="Dcaron" unicode="&#x10e;" horiz-adv-x="1413" 
d="M381 1221q0 -285 2 -428q66 5 107 11.5t93 28.5t89 60q-8 -91 -8 -205q0 -69 2 -104q-120 35 -283 63q-2 -143 -2 -434q42 3 148 3t182 10.5t141 41.5q124 59 191 182.5t67 268.5q0 136 -60 254t-173 180q-53 30 -121 45.5t-119 17.5t-132.5 2t-123.5 3zM102 1393
q82 -4 127 -4q47 0 142.5 2t142.5 2q150 0 268.5 -21t223.5 -80q147 -86 226 -242t79 -333q0 -170 -72.5 -319.5t-208.5 -237.5q-71 -49 -158 -74.5t-174.5 -31.5t-173 -7.5t-180 -11.5t-168.5 -35q-1 108 -2 324.5t-2 324.5l-172 -82l6 326q91 -73 158 -123v25q0 51 8 156
t8 157q0 175 -78 285zM403 1974h60l231 -213l234 213h57l-231 -356h-117z" />
    <glyph glyph-name="Dcroat" unicode="&#x110;" horiz-adv-x="1413" 
d="M381 1221q0 -285 2 -428q66 5 107 11.5t93 28.5t89 60q-8 -91 -8 -205q0 -69 2 -104q-120 35 -283 63q-2 -143 -2 -434q42 3 148 3t182 10.5t141 41.5q124 59 191 182.5t67 268.5q0 136 -60 254t-173 180q-53 30 -121 45.5t-119 17.5t-132.5 2t-123.5 3zM102 1393
q82 -4 127 -4q47 0 142.5 2t142.5 2q150 0 268.5 -21t223.5 -80q147 -86 226 -242t79 -333q0 -170 -72.5 -319.5t-208.5 -237.5q-71 -49 -158 -74.5t-174.5 -31.5t-173 -7.5t-180 -11.5t-168.5 -35q-1 108 -2 324.5t-2 324.5l-172 -82l6 326q91 -73 158 -123v25q0 51 8 156
t8 157q0 175 -78 285zM-229 823q119 2 358 2h356l-6 -258q-58 57 -92 95q-72 -5 -86 -5q-37 0 -110.5 3.5t-110.5 3.5q-192 0 -307 -72q0 39 -1 116t-1 115z" />
    <glyph glyph-name="dcroat" unicode="&#x111;" horiz-adv-x="1128" 
d="M707 1323q106 -2 319 -2q-55 -47 -72.5 -109t-17.5 -147v-92q2 -182 2 -547q0 -301 -4 -453q-98 65 -221 152q-164 -80 -287 -80q-60 0 -131 23q-141 38 -218 143.5t-77 234.5t77 235t220 144q70 25 133 25q135 0 324 -102v163q0 267 -47 412zM309 664q-63 -32 -96 -89.5
t-33 -123.5q0 -101 70 -176.5t190 -75.5h9q12 -2 38 -2q117 0 192 78t75 180q0 68 -37 123q-32 59 -99.5 88.5t-148.5 29.5q-95 0 -160 -32zM418 1247q119 2 358 2h357l-7 -258q-69 69 -92 94q-58 -4 -86 -4q-37 0 -110.5 3t-110.5 3q-194 0 -307 -71q0 39 -1 116t-1 115z
" />
    <glyph glyph-name="Emacron" unicode="&#x112;" horiz-adv-x="1101" 
d="M98 1346q35 2 107 2q65 0 197.5 -5.5t199.5 -5.5q230 0 395 56v-297q-103 88 -292 88q-43 0 -130 -5t-129 -5q-25 0 -79 4v-396q129 0 395 -4q37 44 94 105q4 -104 12 -316q-120 51 -333 51h-164q-6 -197 -9 -395h37q47 0 144 -4t145 -4q193 0 311 59q-4 -200 -4 -299
q-153 91 -372 91q-175 0 -457 -66q4 184 4 276q0 163 -10 361q-158 -81 -160 -82q1 55 4 163t4 163q16 -16 43 -41.5t59.5 -55.5t43.5 -41v9q0 51 10 160.5t10 164.5q0 166 -76 269zM242 1733v127h516v-127h-516z" />
    <glyph glyph-name="emacron" unicode="&#x113;" horiz-adv-x="1017" 
d="M117 145q-117 100 -117 246q0 76 35 151t94.5 133.5t146 95t181.5 36.5q28 0 86 -8q80 -5 144.5 -35t106 -75t69.5 -104t40 -118.5t12 -120.5v-6h-294q-296 0 -443 -8q107 -174 357 -174q167 0 335 71v-2q0 -79 -46.5 -132.5t-118 -76t-162.5 -22.5q-124 0 -242.5 40.5
t-183.5 108.5zM201 489q95 -28 241 -28q53 0 159.5 5t158.5 5q-15 15 -42 45.5t-46 50t-46.5 41t-59.5 32.5t-68 11h-41q-149 0 -256 -162zM213 1194v127h516v-127h-516z" />
    <glyph glyph-name="Edotaccent" unicode="&#x116;" horiz-adv-x="1101" 
d="M98 1346q35 2 107 2q65 0 197.5 -5.5t199.5 -5.5q230 0 395 56v-297q-103 88 -292 88q-43 0 -130 -5t-129 -5q-25 0 -79 4v-396q129 0 395 -4q37 44 94 105q4 -104 12 -316q-120 51 -333 51h-164q-6 -197 -9 -395h37q47 0 144 -4t145 -4q193 0 311 59q-4 -200 -4 -299
q-153 91 -372 91q-175 0 -457 -66q4 184 4 276q0 163 -10 361q-158 -81 -160 -82q1 55 4 163t4 163q16 -16 43 -41.5t59.5 -55.5t43.5 -41v9q0 51 10 160.5t10 164.5q0 166 -76 269zM406 1827l69 74q4 4 12 8q6 2 15 2q8 0 12 -2q11 -5 12 -8l72 -78q5 -3 8 -8q0 -2 1 -7.5
t1 -7.5q-1 -3 -2 -8.5t-2 -7.5q-4 -8 -8 -10l-72 -78q-3 -3 -8 -7.5t-6 -5.5q-4 -2 -8 -2q-13 0 -17 2q-7 4 -10 9l-76 86q-4 8 -4 10q-2 4 -2 14q0 9 2 13q1 2 11 12z" />
    <glyph glyph-name="edotaccent" unicode="&#x117;" horiz-adv-x="1017" 
d="M117 145q-117 100 -117 246q0 76 35 151t94.5 133.5t146 95t181.5 36.5q28 0 86 -8q80 -5 144.5 -35t106 -75t69.5 -104t40 -118.5t12 -120.5v-6h-294q-296 0 -443 -8q107 -174 357 -174q167 0 335 71v-2q0 -79 -46.5 -132.5t-118 -76t-162.5 -22.5q-124 0 -242.5 40.5
t-183.5 108.5zM201 489q95 -28 241 -28q53 0 159.5 5t158.5 5q-15 15 -42 45.5t-46 50t-46.5 41t-59.5 32.5t-68 11h-41q-149 0 -256 -162zM377 1288l69 74q3 3 13 8q6 2 14 2t12 -2q12 -6 13 -8l71 -78q7 -3 9 -8q0 -2 1 -7t1 -7q-1 -2 -2.5 -8.5t-2.5 -8.5q-4 -8 -8 -10
l-71 -78q-4 -3 -9 -7t-6 -5q-4 -2 -8 -2q-12 0 -16 2q-9 5 -11 8l-75 86q-4 8 -4 10q-2 4 -2 15q0 8 2 12t10 12z" />
    <glyph glyph-name="Ecaron" unicode="&#x11a;" horiz-adv-x="1101" 
d="M98 1346q35 2 107 2q65 0 197.5 -5.5t199.5 -5.5q230 0 395 56v-297q-103 88 -292 88q-43 0 -130 -5t-129 -5q-25 0 -79 4v-396q129 0 395 -4q37 44 94 105q4 -104 12 -316q-120 51 -333 51h-164q-6 -197 -9 -395h37q47 0 144 -4t145 -4q193 0 311 59q-4 -200 -4 -299
q-153 91 -372 91q-175 0 -457 -66q4 184 4 276q0 163 -10 361q-158 -81 -160 -82q1 55 4 163t4 163q16 -16 43 -41.5t59.5 -55.5t43.5 -41v9q0 51 10 160.5t10 164.5q0 166 -76 269zM209 1974h59l232 -213l233 213h58l-232 -356h-117z" />
    <glyph glyph-name="ecaron" unicode="&#x11b;" horiz-adv-x="1017" 
d="M117 145q-117 100 -117 246q0 76 35 151t94.5 133.5t146 95t181.5 36.5q28 0 86 -8q80 -5 144.5 -35t106 -75t69.5 -104t40 -118.5t12 -120.5v-6h-294q-296 0 -443 -8q107 -174 357 -174q167 0 335 71v-2q0 -79 -46.5 -132.5t-118 -76t-162.5 -22.5q-124 0 -242.5 40.5
t-183.5 108.5zM201 489q95 -28 241 -28q53 0 159.5 5t158.5 5q-15 15 -42 45.5t-46 50t-46.5 41t-59.5 32.5t-68 11h-41q-149 0 -256 -162zM180 1436h60l231 -213l234 213h57l-232 -357h-116z" />
    <glyph glyph-name="Gcircumflex" unicode="&#x11c;" horiz-adv-x="1507" 
d="M242 1235q203 180 510 180q269 0 512 -139q20 50 63 156q-14 -262 -14 -455q-69 58 -122.5 98t-126.5 83.5t-148.5 66t-151.5 22.5q-52 0 -107 -12q-103 -16 -186.5 -67.5t-136 -126t-81 -164t-28.5 -183.5q0 -138 60 -259t176 -193q118 -80 299 -80q47 0 95.5 4
t125.5 14.5t94 12.5v26q0 36 4 111t4 112q0 167 -84 258q271 0 406 2q-98 -120 -98 -335q0 -50 6 -153t6 -153q0 -53 -6 -102q-103 57 -242 57q-61 0 -186 -15t-187 -15q-124 0 -215 43q-152 47 -263 154.5t-165.5 243t-54.5 282.5q0 153 61 291t181 235zM412 1620l233 354
h117l231 -354h-57l-234 215l-231 -215h-59z" />
    <glyph glyph-name="gcircumflex" unicode="&#x11d;" horiz-adv-x="960" 
d="M139 815q98 80 244 80q86 0 249.5 -34.5t225.5 -39.5q-11 -8 -92 -71q0 -26 5 -83t5 -85q0 -116 -65 -179q-41 -49 -109 -74.5t-162.5 -44t-138.5 -34.5q31 -7 78.5 -15t86 -13.5t86 -16t84 -21.5t72.5 -29.5t60 -41.5t38.5 -56.5t14.5 -74.5v-9q-5 -75 -41 -129.5
t-95 -85.5t-129 -45t-153 -14q-208 0 -403 72q24 114 66 247q6 2 18 2q28 0 46 -16.5t25 -37.5t18 -48t24 -41q121 -33 213 -33q141 0 223 68q4 24 4 33q0 53 -35.5 86t-98 45t-123.5 16t-137 6t-114 8q6 14 38 85t50 108q-82 60 -132 143.5t-50 167.5q0 122 104 205z
M367 745q-66 -6 -107 -51.5t-41 -103.5q0 -70 57 -109q47 -47 127 -47q76 0 136.5 39.5t60.5 99.5q0 15 -2 21q2 6 2 18q0 58 -56.5 99t-127.5 41q-21 0 -49 -7zM139 1081l234 355h116l232 -355h-57l-234 215l-231 -215h-60z" />
    <glyph glyph-name="Gdotaccent" unicode="&#x120;" horiz-adv-x="1507" 
d="M242 1235q203 180 510 180q269 0 512 -139q20 50 63 156q-14 -262 -14 -455q-69 58 -122.5 98t-126.5 83.5t-148.5 66t-151.5 22.5q-52 0 -107 -12q-103 -16 -186.5 -67.5t-136 -126t-81 -164t-28.5 -183.5q0 -138 60 -259t176 -193q118 -80 299 -80q47 0 95.5 4
t125.5 14.5t94 12.5v26q0 36 4 111t4 112q0 167 -84 258q271 0 406 2q-98 -120 -98 -335q0 -50 6 -153t6 -153q0 -53 -6 -102q-103 57 -242 57q-61 0 -186 -15t-187 -15q-124 0 -215 43q-152 47 -263 154.5t-165.5 243t-54.5 282.5q0 153 61 291t181 235zM608 1827l70 74
q4 4 12 8q6 2 15 2q8 0 12 -2q11 -5 12 -8l72 -78q5 -3 8 -8q0 -2 1 -7.5t1 -7.5q-1 -3 -2 -8.5t-2 -7.5q-4 -8 -8 -10l-72 -78q-3 -3 -8 -7.5t-6 -5.5q-4 -2 -8 -2q-13 0 -17 2q-7 4 -10 9l-76 86q-4 8 -4 10q-2 4 -2 14q0 9 2 13t10 12z" />
    <glyph glyph-name="gdotaccent" unicode="&#x121;" horiz-adv-x="960" 
d="M139 815q98 80 244 80q86 0 249.5 -34.5t225.5 -39.5q-11 -8 -92 -71q0 -26 5 -83t5 -85q0 -116 -65 -179q-41 -49 -109 -74.5t-162.5 -44t-138.5 -34.5q31 -7 78.5 -15t86 -13.5t86 -16t84 -21.5t72.5 -29.5t60 -41.5t38.5 -56.5t14.5 -74.5v-9q-5 -75 -41 -129.5
t-95 -85.5t-129 -45t-153 -14q-208 0 -403 72q24 114 66 247q6 2 18 2q28 0 46 -16.5t25 -37.5t18 -48t24 -41q121 -33 213 -33q141 0 223 68q4 24 4 33q0 53 -35.5 86t-98 45t-123.5 16t-137 6t-114 8q6 14 38 85t50 108q-82 60 -132 143.5t-50 167.5q0 122 104 205z
M367 745q-66 -6 -107 -51.5t-41 -103.5q0 -70 57 -109q47 -47 127 -47q76 0 136.5 39.5t60.5 99.5q0 15 -2 21q2 6 2 18q0 58 -56.5 99t-127.5 41q-21 0 -49 -7zM336 1288l70 74q4 4 12 8q6 2 14 2t12 -2q12 -6 13 -8l71 -78q7 -3 9 -8q0 -2 1 -7t1 -7q-1 -3 -2 -9t-2 -8
q-4 -7 -9 -10l-71 -78q-3 -3 -9 -7t-6 -5q-4 -2 -8 -2q-12 0 -16 2q-8 4 -10 8l-76 86q-4 8 -4 10q-2 4 -2 15q0 8 2 12t10 12z" />
    <glyph glyph-name="Hcircumflex" unicode="&#x124;" horiz-adv-x="1329" 
d="M0 1352q59 0 179 -1t181 -1q-71 -111 -71 -301q0 -35 3 -106.5t3 -106.5q0 -10 -1 -29.5t-1 -28.5h643q-2 25 -2 78q0 33 2 100t2 101q0 191 -78 295q86 -2 258 -2h109q-49 -55 -65.5 -122.5t-16.5 -156.5q0 -19 1 -58t1 -59v-30q2 -170 2 -506v-508q-84 37 -219 94
q6 199 6 598h-643q0 -399 4 -598q-39 -18 -112.5 -48.5t-106.5 -45.5v176q0 104 1 313t1 314q0 280 -8 504q-9 18 -37 69.5t-35 65.5zM324 1620l233 354h117l231 -354h-57l-234 215l-231 -215h-59z" />
    <glyph glyph-name="hcircumflex" unicode="&#x125;" horiz-adv-x="1038" 
d="M0 1376q24 0 71 -1t70 -1q65 0 201 4q-30 -93 -39.5 -191.5t-9.5 -230.5v-120q501 5 643 10q-14 -12 -58 -45.5t-59 -44.5q0 -504 2 -758q-35 14 -205 76q2 201 2 598q-53 2 -161 2q-107 0 -162 -2v-598q-23 -9 -63 -23.5t-74 -27.5t-64 -25q-2 70 -2 211q0 95 2 285.5
t2 285.5q0 281 -18 492q-9 14 -39 52.5t-39 51.5zM-117 1647l234 354h116l232 -354h-57l-234 215l-231 -215h-60z" />
    <glyph glyph-name="Hbar" unicode="&#x126;" horiz-adv-x="1329" 
d="M0 1352q59 0 179 -1t181 -1q-71 -111 -71 -301q0 -35 3 -106.5t3 -106.5q0 -10 -1 -29.5t-1 -28.5h643q-2 25 -2 78q0 33 2 100t2 101q0 191 -78 295q86 -2 258 -2h109q-49 -55 -65.5 -122.5t-16.5 -156.5q0 -19 1 -58t1 -59v-30q2 -170 2 -506v-508q-84 37 -219 94
q6 199 6 598h-643q0 -399 4 -598q-39 -18 -112.5 -48.5t-106.5 -45.5v176q0 104 1 313t1 314q0 280 -8 504q-9 18 -37 69.5t-35 65.5zM0 831q298 5 358 5l357 -2l-6 -259q-70 70 -93 95q-29 -2 -88 -2q-36 0 -109.5 2t-109.5 2q-195 0 -307 -72q0 39 -1 116t-1 115z" />
    <glyph glyph-name="hbar" unicode="&#x127;" horiz-adv-x="1038" 
d="M0 1376q24 0 71 -1t70 -1q65 0 201 4q-30 -93 -39.5 -191.5t-9.5 -230.5v-120q501 5 643 10q-14 -12 -58 -45.5t-59 -44.5q0 -504 2 -758q-35 14 -205 76q2 201 2 598q-53 2 -161 2q-107 0 -162 -2v-598q-23 -9 -63 -23.5t-74 -27.5t-64 -25q-2 70 -2 211q0 95 2 285.5
t2 285.5q0 281 -18 492q-9 14 -39 52.5t-39 51.5zM-143 1298q119 2 358 2h356l-6 -258q-58 58 -92 95q-58 -4 -88 -4q-36 0 -109 3t-110 3q-192 0 -307 -72q0 39 -1 116t-1 115z" />
    <glyph glyph-name="Itilde" unicode="&#x128;" horiz-adv-x="405" 
d="M0 1346h303q-57 -193 -57 -467q0 -83 6 -248t6 -248q0 -169 -18 -295q-8 -15 -22 -39t-31 -53.5t-23 -40.5q-5 5 -23 26t-24 29t-20.5 27t-20.5 31t-14.5 29.5t-11.5 34.5t-3 34q0 11 4 35q-6 85 -6 174q0 83 7 251t7 251q0 278 -59 469zM438 1892q-19 -76 -67 -133
t-131 -57q-48 0 -115 31q-65 30 -121 30q-60 0 -84 -61h-55q18 75 67 133q51 57 119 57q53 0 123 -28q69 -29 123 -29q62 0 88 57h53z" />
    <glyph glyph-name="itilde" unicode="&#x129;" horiz-adv-x="514" 
d="M328 223q0 -174 100 -174h45v-49h-440v49h45q100 0 100 174v432q0 76 -110 76h-50v45q222 67 263 182h47v-735zM588 1499q-18 -74 -68 -133q-48 -57 -131 -57q-50 0 -115 30q-67 31 -120 31q-60 0 -84 -61h-56q17 73 68 133q51 57 119 57q50 0 123 -29q67 -28 122 -28
q63 0 89 57h53z" />
    <glyph glyph-name="Imacron" unicode="&#x12a;" horiz-adv-x="405" 
d="M0 1346h303q-57 -193 -57 -467q0 -83 6 -248t6 -248q0 -169 -18 -295q-8 -15 -22 -39t-31 -53.5t-23 -40.5q-5 5 -23 26t-24 29t-20.5 27t-20.5 31t-14.5 29.5t-11.5 34.5t-3 34q0 11 4 35q-6 85 -6 174q0 83 7 251t7 251q0 278 -59 469zM-106 1733v127h516v-127h-516z
" />
    <glyph glyph-name="imacron" unicode="&#x12b;" horiz-adv-x="514" 
d="M328 223q0 -174 100 -174h45v-49h-440v49h45q100 0 100 174v432q0 76 -110 76h-50v45q222 67 263 182h47v-735zM43 1339v127h516v-127h-516z" />
    <glyph glyph-name="Idotaccent" unicode="&#x130;" horiz-adv-x="405" 
d="M0 1346h303q-57 -193 -57 -467q0 -83 6 -248t6 -248q0 -169 -18 -295q-8 -15 -22 -39t-31 -53.5t-23 -40.5q-5 5 -23 26t-24 29t-20.5 27t-20.5 31t-14.5 29.5t-11.5 34.5t-3 34q0 11 4 35q-6 85 -6 174q0 83 7 251t7 251q0 278 -59 469zM57 1827l70 74q4 4 12 8
q6 2 15 2q8 0 12 -2q11 -5 12 -8l72 -78q5 -3 8 -8q0 -2 1 -7.5t1 -7.5q-1 -3 -2 -8.5t-2 -7.5q-4 -8 -8 -10l-72 -78q-3 -3 -8 -7.5t-6 -5.5q-4 -2 -8 -2q-13 0 -17 2q-7 4 -10 9l-76 86q-4 8 -4 10q-2 4 -2 14q0 9 2 13t10 12z" />
    <glyph glyph-name="idotless" unicode="&#x131;" horiz-adv-x="514" 
d="M328 223q0 -174 100 -174h45v-49h-440v49h45q100 0 100 174v432q0 76 -110 76h-50v45q222 67 263 182h47v-735z" />
    <glyph glyph-name="IJ" unicode="&#x132;" horiz-adv-x="1048" 
d="M0 1346h303q-57 -193 -57 -467q0 -83 6 -248t6 -248q0 -169 -18 -295q-8 -15 -22 -39t-31 -53.5t-23 -40.5q-5 5 -23 26t-24 29t-20.5 27t-20.5 31t-14.5 29.5t-11.5 34.5t-3 34q0 11 4 35q-6 85 -6 174q0 83 7 251t7 251q0 278 -59 469zM565 1364q31 0 95 -1t96 -1t95 1
t95 1q-52 -52 -71 -118.5t-19 -151.5q0 -28 2 -84t2 -84q0 -42 -2 -62q0 -14 -1 -41t-1 -41q0 -64 4 -194.5t4 -194.5q0 -234 -39 -399q-20 -68 -63.5 -123.5t-104 -94t-119.5 -64.5t-132 -48q21 26 59.5 69t64.5 74.5t54 72.5t42.5 85.5t14.5 91.5v17q6 304 6 606
q0 323 -10 553q-9 16 -36 65t-36 66z" />
    <glyph glyph-name="ij" unicode="&#x133;" horiz-adv-x="1024" 
d="M37 1044q60 55 156 140q142 -114 157 -127q-91 -68 -174 -68q-73 0 -139 55zM0 821q228 4 342 8q-45 -130 -45 -344q0 -32 1 -94t1 -92q0 -112 -10 -188q-33 -26 -142 -105q-41 153 -41 395q0 53 2.5 159.5t2.5 158.5v26q-17 10 -60 40.5t-51 35.5zM696 1065
q-41 25 -41 55q0 20 18 42.5t45.5 48.5t37.5 40q21 -18 83 -69.5t83 -69.5q-25 -5 -87.5 -42.5t-89.5 -37.5q-32 0 -49 33zM578 877q114 0 340 4q-44 -134 -44 -346q0 -43 2.5 -128.5t2.5 -127.5q0 -203 -43 -342q-11 -36 -32 -67t-53.5 -55.5t-63 -42.5t-76.5 -36t-77 -28
t-81 -25q21 24 84.5 83t98 107t40.5 102q14 155 14 330q0 59 -2 175t-2 175q0 95 2 142q-29 20 -110 80z" />
    <glyph glyph-name="Jcircumflex" unicode="&#x134;" horiz-adv-x="643" 
d="M160 1364q32 0 95 -1t95 -1t96 1t95 1q-52 -52 -71 -118.5t-19 -151.5q0 -28 2 -84t2 -84q0 -42 -2 -62q0 -14 -1 -41t-1 -41q0 -64 4 -194.5t4 -194.5q0 -234 -39 -399q-16 -55 -49 -102t-72.5 -81t-92.5 -63t-100.5 -47.5t-105.5 -36.5q21 27 74 86t81.5 95t54.5 95
t26 117v17q6 305 6 606q0 300 -11 553q-9 16 -35.5 65.5t-35.5 65.5zM55 1620l234 354h117l231 -354h-57l-234 215l-231 -215h-60z" />
    <glyph glyph-name="kra" unicode="&#x138;" horiz-adv-x="1157" 
d="M0 1286q229 0 344 4q-49 -165 -49 -397q0 -72 6 -216.5t6 -215.5q26 26 78.5 66t90 69.5t67.5 73t30 88.5q0 11 -4 35q61 -2 185 -2q151 0 227 4q-210 -132 -469 -377q33 -29 118.5 -108t132.5 -119.5t129 -92t163 -80.5q-151 -4 -449 -8q-7 37 -25.5 73.5t-37 62.5
t-54.5 61.5t-56.5 53.5t-66 55.5t-61.5 50.5l-6 -314q-137 -41 -188 -55v762q0 297 2 444q-80 59 -113 82z" />
    <glyph glyph-name="Lacute" unicode="&#x139;" horiz-adv-x="1120" 
d="M0 1382h305q-59 -198 -59 -481q0 -83 6 -247.5t6 -247.5q0 -84 -6 -170h256q160 0 256 16q46 27 88.5 70t90 101.5t75.5 86.5q-9 -31 -170 -539q-3 3 -42.5 43.5t-55.5 55.5q-31 -2 -95 -2q-43 0 -130 2t-130 2q-213 0 -348 -56q-4 114 -4 172q0 106 7 317t7 316
q0 328 -57 561zM289 1915q30 33 55 47q21 12 41 12q33 0 53 -20q21 -21 21 -49q0 -19 -17 -43q-14 -19 -45 -41l-331 -203h-68z" />
    <glyph glyph-name="lacute" unicode="&#x13a;" horiz-adv-x="444" 
d="M0 1309q38 1 107 1.5t126.5 1.5t108.5 3q-49 -196 -49 -471q0 -76 4 -227.5t4 -227.5q0 -179 -14 -291q-96 -73 -137 -102q-46 214 -46 520q0 91 5.5 274.5t5.5 274.5q0 58 -4 168q-17 10 -60 40.5t-51 35.5zM313 1878q29 32 56 47q21 12 41 12q33 0 53 -20t20 -49
q0 -21 -16 -43q-14 -19 -45 -41l-332 -203h-67z" />
    <glyph glyph-name="Lmiddledot" unicode="&#x13f;" horiz-adv-x="1120" 
d="M0 1382h305q-59 -198 -59 -481q0 -83 6 -247.5t6 -247.5q0 -84 -6 -170h256q160 0 256 16q46 27 88.5 70t90 101.5t75.5 86.5q-9 -31 -170 -539q-3 3 -42.5 43.5t-55.5 55.5q-31 -2 -95 -2q-43 0 -130 2t-130 2q-213 0 -348 -56q-4 114 -4 172q0 106 7 317t7 316
q0 328 -57 561zM842 567q-47 0 -78 31q-33 38 -33 80q0 43 33 76q28 32 78 32q46 0 78 -32t32 -76q0 -43 -32 -80q-36 -31 -78 -31z" />
    <glyph glyph-name="lmiddledot" unicode="&#x140;" horiz-adv-x="782" 
d="M0 1309q38 1 107 1.5t126.5 1.5t108.5 3q-49 -196 -49 -471q0 -76 4 -227.5t4 -227.5q0 -179 -14 -291q-96 -73 -137 -102q-46 214 -46 520q0 91 5.5 274.5t5.5 274.5q0 58 -4 168q-17 10 -60 40.5t-51 35.5zM672 545q-49 0 -78 33q-33 33 -33 77q0 40 33 78q33 33 78 33
q40 0 78 -33q32 -32 32 -78q0 -49 -32 -77q-33 -33 -78 -33z" />
    <glyph glyph-name="Lslash" unicode="&#x141;" horiz-adv-x="1120" 
d="M0 1382h305q-59 -198 -59 -481q0 -83 6 -247.5t6 -247.5q0 -84 -6 -170h256q160 0 256 16q46 27 88.5 70t90 101.5t75.5 86.5q-9 -31 -170 -539q-3 3 -42.5 43.5t-55.5 55.5q-31 -2 -95 -2q-43 0 -130 2t-130 2q-213 0 -348 -56q-4 114 -4 172q0 106 7 317t7 316
q0 328 -57 561zM-229 803q238 4 358 4l356 -2l-6 -258q-69 69 -92 94q-29 -2 -86 -2q-37 0 -110.5 2t-110.5 2q-192 0 -307 -72q0 39 -1 116.5t-1 115.5z" />
    <glyph glyph-name="lslash" unicode="&#x142;" horiz-adv-x="444" 
d="M0 1309q38 1 107 1.5t126.5 1.5t108.5 3q-49 -196 -49 -471q0 -76 4 -227.5t4 -227.5q0 -179 -14 -291q-96 -73 -137 -102q-46 214 -46 520q0 91 5.5 274.5t5.5 274.5q0 58 -4 168q-17 10 -60 40.5t-51 35.5zM-186 782q119 2 358 2h356l-6 -258q-57 57 -92 95
q-72 -5 -88 -5q-36 0 -109.5 3.5t-109.5 3.5q-195 0 -307 -72q0 39 -1 116t-1 115z" />
    <glyph glyph-name="Nacute" unicode="&#x143;" horiz-adv-x="1304" 
d="M0 1350q84 -2 256 -2h104q-71 -68 -71 -140q0 -55 45 -112q19 -21 77 -86.5t82.5 -93t76 -84t84.5 -91t79 -81.5t89 -86.5t87 -77.5q-6 56 -6 114q0 62 8.5 190.5t8.5 192.5q0 217 -80 355q243 0 362 4q-9 -16 -39 -64t-39 -65q-6 -162 -6 -484q0 -113 1 -342t1 -344
v-102q-159 68 -211 90q0 22 -1 90t-1 92q-102 103 -306 324.5t-312 329.5v-422q0 -281 -2 -422q-40 -14 -111.5 -43.5t-95.5 -38.5q0 34 -1 100.5t-1 100.5q0 98 2 293t2 294q0 285 -10 490q-8 16 -36 61t-36 60zM739 1915q29 32 56 47q21 12 41 12q33 0 53 -20t20 -49
q0 -21 -16 -43q-14 -19 -45 -41l-332 -203h-67z" />
    <glyph glyph-name="nacute" unicode="&#x144;" horiz-adv-x="1052" 
d="M0 854q316 -8 475 -8t475 8q-16 -12 -59.5 -45.5t-59.5 -44.5q3 -375 3 -748q-178 68 -199 76v590q-53 2 -160 2t-160 -2v-590q-99 -38 -198 -78v752q-15 12 -59 44.5t-58 43.5zM612 1376q29 32 56 47q23 13 41 13q32 0 53 -21q20 -20 20 -49q0 -21 -16 -43
q-14 -19 -45 -41l-332 -203h-67z" />
    <glyph glyph-name="Ncaron" unicode="&#x147;" horiz-adv-x="1304" 
d="M0 1350q84 -2 256 -2h104q-71 -68 -71 -140q0 -55 45 -112q19 -21 77 -86.5t82.5 -93t76 -84t84.5 -91t79 -81.5t89 -86.5t87 -77.5q-6 56 -6 114q0 62 8.5 190.5t8.5 192.5q0 217 -80 355q243 0 362 4q-9 -16 -39 -64t-39 -65q-6 -162 -6 -484q0 -113 1 -342t1 -344
v-102q-159 68 -211 90q0 22 -1 90t-1 92q-102 103 -306 324.5t-312 329.5v-422q0 -281 -2 -422q-40 -14 -111.5 -43.5t-95.5 -38.5q0 34 -1 100.5t-1 100.5q0 98 2 293t2 294q0 285 -10 490q-8 16 -36 61t-36 60zM311 1974h60l231 -213l234 213h57l-231 -356h-117z" />
    <glyph glyph-name="ncaron" unicode="&#x148;" horiz-adv-x="1052" 
d="M0 854q316 -8 475 -8t475 8q-16 -12 -59.5 -45.5t-59.5 -44.5q3 -375 3 -748q-178 68 -199 76v590q-53 2 -160 2t-160 -2v-590q-99 -38 -198 -78v752q-15 12 -59 44.5t-58 43.5zM184 1436h60l231 -213l234 213h57l-231 -357h-117z" />
    <glyph glyph-name="Eng" unicode="&#x14a;" horiz-adv-x="1304" 
d="M0 1350q84 -2 256 -2h104q-71 -68 -71 -140q0 -55 45 -112q19 -21 77 -86.5t82.5 -93t76 -84t84.5 -91t79 -81.5t89 -86.5t87 -77.5q-6 56 -6 114q0 62 8.5 190.5t8.5 192.5q0 217 -80 355q243 0 362 4q-9 -16 -39 -64t-39 -65q-6 -162 -6 -484q0 -113 1 -342t1 -344
v-102q-159 68 -211 90q0 22 -1 90t-1 92q-102 103 -306 324.5t-312 329.5v-422q0 -281 -2 -422q-40 -14 -111.5 -43.5t-95.5 -38.5q0 34 -1 100.5t-1 100.5q0 98 2 293t2 294q0 285 -10 490q-8 16 -36 61t-36 60zM1085 559q19 -22 58 -64t59 -63q-67 -308 -104 -430
q-31 63 -57 146.5t-37 131.5t-33 154q69 73 114 125z" />
    <glyph glyph-name="eng" unicode="&#x14b;" horiz-adv-x="1052" 
d="M0 854q316 -8 475 -8t475 8q-16 -12 -59.5 -45.5t-59.5 -44.5q3 -375 3 -748q-178 68 -199 76v590q-53 2 -160 2t-160 -2v-590q-99 -38 -198 -78v752q-15 12 -59 44.5t-58 43.5zM834 559q20 -22 58 -64t58 -63q-67 -308 -104 -430q-31 63 -57 146.5t-37 131.5t-33 154
q85 91 115 125z" />
    <glyph glyph-name="Omacron" unicode="&#x14c;" horiz-adv-x="1505" 
d="M428 1386q121 56 260 56q136 0 266.5 -54t229 -144.5t159 -217.5t60.5 -264q0 -54 -8 -98q-4 -137 -67.5 -257t-163.5 -201.5t-226.5 -128t-257.5 -46.5q-213 0 -377 116q-149 91 -226 246t-77 334q0 142 47.5 272.5t146 235t234.5 151.5zM823 647q0 -248 8 -448
q158 59 267 172.5t143 271.5q-139 4 -418 4zM195 643q31 -158 139.5 -272.5t267.5 -171.5q4 156 8 448q-278 0 -415 -4zM188 829q70 0 212 -1t212 -1q-3 255 -14 457q-159 -57 -268 -175.5t-142 -279.5zM836 1284q-12 -228 -15 -457q70 0 211.5 1t212.5 1
q-35 161 -143.5 279t-265.5 176zM432 1733v127h516v-127h-516z" />
    <glyph glyph-name="omacron" unicode="&#x14d;" horiz-adv-x="1040" 
d="M289 797q79 32 174 32q121 0 231 -54.5t177 -147t67 -197.5q0 -19 -4 -51q-1 -104 -70 -193t-178 -138.5t-229 -49.5q-112 0 -213 49q-118 51 -181 150t-63 215q0 127 76 234.5t213 150.5zM281 616q-101 -73 -101 -200q0 -96 62.5 -171t169.5 -85q34 -6 63 -6
q114 0 196.5 73.5t82.5 171.5q0 26 -6 50v4q0 96 -88 157.5t-201 61.5q-108 0 -178 -56zM211 1194v127h516v-127h-516z" />
    <glyph glyph-name="OE" unicode="&#x152;" horiz-adv-x="2004" 
d="M428 1386q121 56 260 56q136 0 266.5 -54t229 -144.5t159 -217.5t60.5 -264q0 -54 -8 -98q-4 -137 -67.5 -257t-163.5 -201.5t-226.5 -128t-257.5 -46.5q-213 0 -377 116q-149 91 -226 246t-77 334q0 142 47.5 272.5t146 235t234.5 151.5zM823 647q0 -248 8 -448
q158 59 267 172.5t143 271.5q-139 4 -418 4zM195 643q31 -158 139.5 -272.5t267.5 -171.5q4 156 8 448q-278 0 -415 -4zM188 829q70 0 212 -1t212 -1q-3 255 -14 457q-159 -57 -268 -175.5t-142 -279.5zM836 1284q-12 -228 -15 -457q70 0 211.5 1t212.5 1
q-35 161 -143.5 279t-265.5 176zM1001 1346q35 2 107 2q66 0 198 -5.5t197 -5.5q230 0 398 56v-297q-103 88 -293 88q-43 0 -129.5 -5t-128.5 -5q-30 0 -80 4v-396q129 0 395 -4q37 44 94 105q2 -49 6.5 -155t6.5 -161q-120 51 -336 51h-162q-4 -133 -8 -395h37
q47 0 143.5 -4t144.5 -4q194 0 312 59q-5 -250 -5 -299q-153 91 -372 91q-175 0 -457 -66q2 92 2 276q0 202 -8 361q-158 -81 -160 -82q1 55 4 163.5t4 162.5q16 -16 43 -41.5t59.5 -55.5t43.5 -41v9q0 51 10 160.5t10 164.5q0 166 -76 269z" />
    <glyph glyph-name="oe" unicode="&#x153;" horiz-adv-x="1783" 
d="M289 797q79 32 174 32q121 0 231 -54.5t177 -147t67 -197.5q0 -19 -4 -51q-1 -104 -70 -193t-178 -138.5t-229 -49.5q-112 0 -213 49q-118 51 -181 150t-63 215q0 127 76 234.5t213 150.5zM281 616q-101 -73 -101 -200q0 -96 62.5 -171t169.5 -85q34 -6 63 -6
q114 0 196.5 73.5t82.5 171.5q0 26 -6 50v4q0 96 -88 157.5t-201 61.5q-108 0 -178 -56zM883 145q-115 101 -115 246q0 76 35 151t94.5 133.5t146 95t181.5 36.5q26 0 84 -8q80 -5 144.5 -35t106 -75t69.5 -104t40 -118.5t12 -120.5v-6h-295q-295 0 -442 -8
q107 -174 359 -174q165 0 333 71v-2q0 -79 -46.5 -132.5t-118 -76t-162.5 -22.5q-123 0 -242 40.5t-184 108.5zM967 489q97 -28 243 -28q52 0 158 5t158 5q-15 15 -41.5 45.5t-45.5 50t-46.5 41t-59.5 32.5t-69 11h-41q-145 0 -256 -162z" />
    <glyph glyph-name="Racute" unicode="&#x154;" horiz-adv-x="1142" 
d="M129 1389q97 -5 121 -5q40 0 122 2.5t122 2.5q259 0 417 -76q65 -41 97 -106.5t32 -139.5q0 -103 -58.5 -194t-156.5 -128q64 -17 107.5 -51.5t65 -84t30 -101t8.5 -119.5q0 -51 -6 -153t-6 -148q0 -50 6 -94q-35 20 -205 117q0 36 1 106.5t1 106.5q0 155 -18 247
q-41 64 -108 82.5t-169 18.5h-43q-55 0 -104 6v-287q0 -191 -2 -287q-83 -43 -203 -108v348q0 233 -2 348q-88 -48 -178 -106q4 106 4 155q0 54 -4 156q6 -2 75 -28.5t105 -41.5v37q0 35 2 104.5t2 104.5q0 194 -55 316zM383 1260q-2 -135 -2 -406q28 2 76 2.5t88 1t88.5 4
t85.5 15t69 30.5t49 53.5t17 81.5q0 21 -2 33q-3 55 -29.5 92t-63 53.5t-89.5 25t-98.5 8t-101 0.5t-87.5 6zM750 1915q30 33 55 47q21 12 41 12q33 0 53 -20q21 -21 21 -49q0 -19 -17 -43q-14 -19 -45 -41l-332 -203h-67z" />
    <glyph glyph-name="racute" unicode="&#x155;" horiz-adv-x="653" 
d="M442 809q11 12 46 45.5t47 44.5q3 -125 16 -285q-130 66 -315 93q-5 -287 -5 -349q0 -41 1 -122.5t1 -122.5q-158 -87 -188 -105q-2 35 -2 107q0 51 2 154t2 155q0 241 -47 399q80 -4 442 -14zM414 1376q30 33 55 47q23 13 41 13q32 0 53 -21t21 -49q0 -19 -17 -43
q-14 -19 -45 -41l-332 -203h-67z" />
    <glyph glyph-name="Rcaron" unicode="&#x158;" horiz-adv-x="1142" 
d="M129 1389q97 -5 121 -5q40 0 122 2.5t122 2.5q259 0 417 -76q65 -41 97 -106.5t32 -139.5q0 -103 -58.5 -194t-156.5 -128q64 -17 107.5 -51.5t65 -84t30 -101t8.5 -119.5q0 -51 -6 -153t-6 -148q0 -50 6 -94q-35 20 -205 117q0 36 1 106.5t1 106.5q0 155 -18 247
q-41 64 -108 82.5t-169 18.5h-43q-55 0 -104 6v-287q0 -191 -2 -287q-83 -43 -203 -108v348q0 233 -2 348q-88 -48 -178 -106q4 106 4 155q0 54 -4 156q6 -2 75 -28.5t105 -41.5v37q0 35 2 104.5t2 104.5q0 194 -55 316zM383 1260q-2 -135 -2 -406q28 2 76 2.5t88 1t88.5 4
t85.5 15t69 30.5t49 53.5t17 81.5q0 21 -2 33q-3 55 -29.5 92t-63 53.5t-89.5 25t-98.5 8t-101 0.5t-87.5 6zM322 1974h59l231 -213l234 213h57l-231 -356h-117z" />
    <glyph glyph-name="rcaron" unicode="&#x159;" horiz-adv-x="653" 
d="M442 809q11 12 46 45.5t47 44.5q3 -125 16 -285q-130 66 -315 93q-5 -287 -5 -349q0 -41 1 -122.5t1 -122.5q-158 -87 -188 -105q-2 35 -2 107q0 51 2 154t2 155q0 241 -47 399q80 -4 442 -14zM-14 1436h59l231 -213l234 213h57l-231 -357h-117z" />
    <glyph glyph-name="Sacute" unicode="&#x15a;" horiz-adv-x="929" 
d="M244 1352q67 30 137 30q58 0 122.5 -17t145 -46.5t119.5 -40.5q0 -2 -6 -250q-17 12 -73.5 56t-85.5 63.5t-79.5 40t-95.5 20.5q-34 0 -61 -8q-68 -9 -110 -65t-42 -127q0 -92 66 -140q55 -41 142 -85t167 -88.5t135 -94.5q102 -99 102 -256q0 -124 -68.5 -231
t-183.5 -144q-67 -24 -131 -24q-67 0 -142.5 21.5t-161.5 54t-138 45.5q-2 104 -2 311q5 -6 34.5 -38t38 -41t36 -37.5t41.5 -38.5t40.5 -31.5t46 -30.5t45.5 -20.5t52 -16t53 -4.5q17 0 45 4h14q76 0 123 58t47 134q0 70 -34 115q-53 43 -133.5 89.5t-144.5 78.5
t-133.5 85.5t-113.5 115.5q-53 82 -53 188q0 118 66 221.5t174 143.5zM551 1915q30 33 55 47q21 12 41 12q33 0 53 -20q21 -21 21 -49q0 -21 -16 -43q-13 -18 -46 -41l-331 -203h-68z" />
    <glyph glyph-name="sacute" unicode="&#x15b;" horiz-adv-x="727" 
d="M49 733q65 129 258 129q44 0 95 -5.5t111.5 -15t88.5 -12.5q1 -20 5.5 -103t6.5 -130q-170 104 -329 104q-55 0 -113 -12q23 -52 79 -97.5t117.5 -79.5t120.5 -70t97.5 -84.5t38.5 -106.5q0 -27 -9 -57q-13 -65 -57 -108t-103 -61t-132 -18q-166 0 -304 74
q-12 148 -20 225q204 -143 322 -143q88 0 104 94q-34 27 -95 63.5t-112 67t-100.5 67.5t-78 80.5t-28.5 90.5q0 50 37 108zM451 1376q30 33 55 47q23 13 41 13q32 0 53 -21t21 -49q0 -19 -17 -43q-14 -19 -45 -41l-332 -203h-67z" />
    <glyph glyph-name="Scircumflex" unicode="&#x15c;" horiz-adv-x="929" 
d="M244 1352q67 30 137 30q58 0 122.5 -17t145 -46.5t119.5 -40.5q0 -2 -6 -250q-17 12 -73.5 56t-85.5 63.5t-79.5 40t-95.5 20.5q-34 0 -61 -8q-68 -9 -110 -65t-42 -127q0 -92 66 -140q55 -41 142 -85t167 -88.5t135 -94.5q102 -99 102 -256q0 -124 -68.5 -231
t-183.5 -144q-67 -24 -131 -24q-67 0 -142.5 21.5t-161.5 54t-138 45.5q-2 104 -2 311q5 -6 34.5 -38t38 -41t36 -37.5t41.5 -38.5t40.5 -31.5t46 -30.5t45.5 -20.5t52 -16t53 -4.5q17 0 45 4h14q76 0 123 58t47 134q0 70 -34 115q-53 43 -133.5 89.5t-144.5 78.5
t-133.5 85.5t-113.5 115.5q-53 82 -53 188q0 118 66 221.5t174 143.5zM123 1620l233 354h117l232 -354h-58l-233 215l-232 -215h-59z" />
    <glyph glyph-name="scircumflex" unicode="&#x15d;" horiz-adv-x="727" 
d="M49 733q65 129 258 129q44 0 95 -5.5t111.5 -15t88.5 -12.5q1 -20 5.5 -103t6.5 -130q-170 104 -329 104q-55 0 -113 -12q23 -52 79 -97.5t117.5 -79.5t120.5 -70t97.5 -84.5t38.5 -106.5q0 -27 -9 -57q-13 -65 -57 -108t-103 -61t-132 -18q-166 0 -304 74
q-12 148 -20 225q204 -143 322 -143q88 0 104 94q-34 27 -95 63.5t-112 67t-100.5 67.5t-78 80.5t-28.5 90.5q0 50 37 108zM23 1081l233 355h117l231 -355h-57l-234 215l-231 -215h-59z" />
    <glyph glyph-name="Scedilla" unicode="&#x15e;" horiz-adv-x="929" 
d="M244 1352q67 30 137 30q58 0 122.5 -17t145 -46.5t119.5 -40.5q0 -2 -6 -250q-17 12 -73.5 56t-85.5 63.5t-79.5 40t-95.5 20.5q-34 0 -61 -8q-68 -9 -110 -65t-42 -127q0 -92 66 -140q55 -41 142 -85t167 -88.5t135 -94.5q102 -99 102 -256q0 -124 -68.5 -231
t-183.5 -144q-67 -24 -131 -24q-67 0 -142.5 21.5t-161.5 54t-138 45.5q-2 104 -2 311q5 -6 34.5 -38t38 -41t36 -37.5t41.5 -38.5t40.5 -31.5t46 -30.5t45.5 -20.5t52 -16t53 -4.5q17 0 45 4h14q76 0 123 58t47 134q0 70 -34 115q-53 43 -133.5 89.5t-144.5 78.5
t-133.5 85.5t-113.5 115.5q-53 82 -53 188q0 118 66 221.5t174 143.5zM242 -291q83 -51 151 -51q64 0 94 23q29 20 29 65q0 46 -49 64q-43 16 -100 16q-23 0 -35 -2l47 176h63l-36 -104q14 2 35.5 4t25.5 2q85 0 135 -41q47 -41 47 -115q0 -77 -57 -119q-57 -45 -162 -45
q-112 0 -188 33v94z" />
    <glyph glyph-name="scedilla" unicode="&#x15f;" horiz-adv-x="727" 
d="M49 733q65 129 258 129q44 0 95 -5.5t111.5 -15t88.5 -12.5q1 -20 5.5 -103t6.5 -130q-170 104 -329 104q-55 0 -113 -12q23 -52 79 -97.5t117.5 -79.5t120.5 -70t97.5 -84.5t38.5 -106.5q0 -27 -9 -57q-13 -65 -57 -108t-103 -61t-132 -18q-166 0 -304 74
q-12 148 -20 225q204 -143 322 -143q88 0 104 94q-34 27 -95 63.5t-112 67t-100.5 67.5t-78 80.5t-28.5 90.5q0 50 37 108zM150 -291q83 -51 151 -51q64 0 94 23q29 20 29 65q0 46 -49 64q-43 16 -101 16q-22 0 -34 -2l47 176h63l-37 -104q14 2 36 4t26 2q85 0 135 -41
q47 -41 47 -115q0 -77 -57 -119q-57 -45 -162 -45q-112 0 -188 33v94z" />
    <glyph glyph-name="Scaron" unicode="&#x160;" horiz-adv-x="929" 
d="M244 1352q67 30 137 30q58 0 122.5 -17t145 -46.5t119.5 -40.5q0 -2 -6 -250q-17 12 -73.5 56t-85.5 63.5t-79.5 40t-95.5 20.5q-34 0 -61 -8q-68 -9 -110 -65t-42 -127q0 -92 66 -140q55 -41 142 -85t167 -88.5t135 -94.5q102 -99 102 -256q0 -124 -68.5 -231
t-183.5 -144q-67 -24 -131 -24q-67 0 -142.5 21.5t-161.5 54t-138 45.5q-2 104 -2 311q5 -6 34.5 -38t38 -41t36 -37.5t41.5 -38.5t40.5 -31.5t46 -30.5t45.5 -20.5t52 -16t53 -4.5q17 0 45 4h14q76 0 123 58t47 134q0 70 -34 115q-53 43 -133.5 89.5t-144.5 78.5
t-133.5 85.5t-113.5 115.5q-53 82 -53 188q0 118 66 221.5t174 143.5zM123 1974h59l232 -213l233 213h58l-232 -356h-117z" />
    <glyph glyph-name="scaron" unicode="&#x161;" horiz-adv-x="727" 
d="M49 733q65 129 258 129q44 0 95 -5.5t111.5 -15t88.5 -12.5q1 -20 5.5 -103t6.5 -130q-170 104 -329 104q-55 0 -113 -12q23 -52 79 -97.5t117.5 -79.5t120.5 -70t97.5 -84.5t38.5 -106.5q0 -27 -9 -57q-13 -65 -57 -108t-103 -61t-132 -18q-166 0 -304 74
q-12 148 -20 225q204 -143 322 -143q88 0 104 94q-34 27 -95 63.5t-112 67t-100.5 67.5t-78 80.5t-28.5 90.5q0 50 37 108zM23 1436h59l231 -213l234 213h57l-231 -357h-117z" />
    <glyph glyph-name="Tcedilla" unicode="&#x162;" horiz-adv-x="1142" 
d="M0 1384q124 -55 336 -55q22 0 66 1t67 1q55 0 82 -2q11 0 35 1t35 1q15 0 47 -1t47 -1q100 0 177 11t148 44q-2 -102 -2 -309q-52 53 -117 70.5t-155 17.5q-14 0 -44 -1t-44 -1q-37 0 -55 2v-1001q-3 -138 -78 -250q-99 87 -129 117v1134q-18 -2 -56 -2q-14 0 -43 1
t-43 1q-90 0 -156 -17.5t-118 -72.5v311zM342 -291q83 -51 152 -51q64 0 94 23q28 20 28 65q0 46 -49 64q-43 16 -100 16q-23 0 -35 -2l47 176h64l-37 -104q14 2 36 4t25 2q85 0 135 -41q48 -42 48 -115q0 -76 -58 -119q-57 -45 -162 -45q-112 0 -188 33v94z" />
    <glyph glyph-name="tcedilla" unicode="&#x163;" horiz-adv-x="913" 
d="M256 1167q119 -2 352 -10q-16 -11 -60.5 -45.5t-60.5 -46.5q2 -33 7.5 -131t7.5 -131q150 26 299 84q0 -115 10 -262q-127 65 -313 92q-4 -94 -4 -144q0 -25 1 -76.5t1 -76.5q0 -256 -45 -412q-90 50 -124 123t-34 172q0 49 10 151.5t10 151.5q0 58 -12 111
q-165 -32 -301 -82v246q173 -53 315 -76q-15 230 -59 362zM274 -291q83 -51 152 -51q64 0 94 23q29 20 29 65q0 46 -49 64q-43 16 -101 16q-22 0 -34 -2l47 176h63l-37 -104q14 2 36 4t26 2q85 0 135 -41q47 -41 47 -115q0 -77 -57 -119q-57 -45 -162 -45q-113 0 -189 33v94
z" />
    <glyph glyph-name="Tcaron" unicode="&#x164;" horiz-adv-x="1142" 
d="M0 1384q124 -55 336 -55q22 0 66 1t67 1q55 0 82 -2q11 0 35 1t35 1q15 0 47 -1t47 -1q100 0 177 11t148 44q-2 -102 -2 -309q-52 53 -117 70.5t-155 17.5q-14 0 -44 -1t-44 -1q-37 0 -55 2v-1001q-3 -138 -78 -250q-99 87 -129 117v1134q-18 -2 -56 -2q-14 0 -43 1
t-43 1q-90 0 -156 -17.5t-118 -72.5v311zM229 1974h60l231 -213l234 213h57l-231 -356h-117z" />
    <glyph glyph-name="Tbar" unicode="&#x166;" horiz-adv-x="1142" 
d="M0 1384q124 -55 336 -55q22 0 66 1t67 1q55 0 82 -2q11 0 35 1t35 1q15 0 47 -1t47 -1q100 0 177 11t148 44q-2 -102 -2 -309q-52 53 -117 70.5t-155 17.5q-14 0 -44 -1t-44 -1q-37 0 -55 2v-1001q-3 -138 -78 -250q-99 87 -129 117v1134q-18 -2 -56 -2q-14 0 -43 1
t-43 1q-90 0 -156 -17.5t-118 -72.5v311zM164 774q238 4 356 4l359 -2l-7 -258q-69 69 -92 94q-31 -2 -88 -2q-37 0 -110.5 2t-110.5 2q-194 0 -305 -71q0 39 -1 116t-1 115z" />
    <glyph glyph-name="tbar" unicode="&#x167;" horiz-adv-x="913" 
d="M256 1167q119 -2 352 -10q-16 -11 -60.5 -45.5t-60.5 -46.5q2 -33 7.5 -131t7.5 -131q150 26 299 84q0 -115 10 -262q-127 65 -313 92q-4 -94 -4 -144q0 -25 1 -76.5t1 -76.5q0 -256 -45 -412q-90 50 -124 123t-34 172q0 49 10 151.5t10 151.5q0 58 -12 111
q-165 -32 -301 -82v246q173 -53 315 -76q-15 230 -59 362zM49 598q238 4 357 4l358 -2l-6 -258q-69 69 -92 94q-31 -2 -88 -2q-37 0 -111 2t-111 2q-194 0 -305 -71q0 39 -1 116t-1 115z" />
    <glyph glyph-name="Utilde" unicode="&#x168;" horiz-adv-x="1247" 
d="M0 1391h307q-57 -174 -57 -426q0 -70 5 -210t5 -208v-90q0 -124 97 -205.5t223 -81.5q121 0 204 80q59 59 79 137t20 184q0 21 -1 62t-1 61q0 49 2 72q0 12 -1 34t-1 34q0 37 2 110t2 109q0 211 -54 338q102 2 314 2q-60 -153 -60 -389q0 -59 4.5 -175.5t4.5 -175.5
q0 -231 -58 -383q-59 -130 -187 -199t-280 -69q-163 0 -297 79t-186 224q-41 143 -41 350q0 57 4 173t4 173q0 233 -53 390zM860 1892q-19 -76 -67 -133t-131 -57q-48 0 -115 31q-65 30 -121 30q-60 0 -84 -61h-55q18 75 67 133q51 57 119 57q53 0 123 -28q69 -29 123 -29
q62 0 88 57h53z" />
    <glyph glyph-name="utilde" unicode="&#x169;" horiz-adv-x="1101" 
d="M0 827q301 5 362 7q-53 -171 -53 -347q0 -101 23 -223q25 -48 81 -73t124 -25q67 0 122.5 26.5t79.5 75.5q17 112 17 277v198q-16 10 -62 42t-61 42q307 5 366 7q-31 -88 -38.5 -201.5t-12 -231t-28.5 -202.5q-42 -93 -147.5 -143t-233.5 -50q-131 0 -239.5 52.5
t-149.5 148.5q-35 109 -35 274q0 35 1 105.5t1 105.5v53q-15 10 -58.5 41t-58.5 41zM786 1354q-19 -76 -67 -133q-49 -58 -131 -58q-48 0 -115 31t-121 31q-60 0 -84 -62h-55q17 73 68 133q52 58 118 58q51 0 123 -29q69 -29 123 -29q61 0 88 58h53z" />
    <glyph glyph-name="Umacron" unicode="&#x16a;" horiz-adv-x="1247" 
d="M0 1391h307q-57 -174 -57 -426q0 -70 5 -210t5 -208v-90q0 -124 97 -205.5t223 -81.5q121 0 204 80q59 59 79 137t20 184q0 21 -1 62t-1 61q0 49 2 72q0 12 -1 34t-1 34q0 37 2 110t2 109q0 211 -54 338q102 2 314 2q-60 -153 -60 -389q0 -59 4.5 -175.5t4.5 -175.5
q0 -231 -58 -383q-59 -130 -187 -199t-280 -69q-163 0 -297 79t-186 224q-41 143 -41 350q0 57 4 173t4 173q0 233 -53 390zM315 1733v127h516v-127h-516z" />
    <glyph glyph-name="umacron" unicode="&#x16b;" horiz-adv-x="1101" 
d="M0 827q301 5 362 7q-53 -171 -53 -347q0 -101 23 -223q25 -48 81 -73t124 -25q67 0 122.5 26.5t79.5 75.5q17 112 17 277v198q-16 10 -62 42t-61 42q307 5 366 7q-31 -88 -38.5 -201.5t-12 -231t-28.5 -202.5q-42 -93 -147.5 -143t-233.5 -50q-131 0 -239.5 52.5
t-149.5 148.5q-35 109 -35 274q0 35 1 105.5t1 105.5v53q-15 10 -58.5 41t-58.5 41zM242 1194v127h516v-127h-516z" />
    <glyph glyph-name="Uring" unicode="&#x16e;" horiz-adv-x="1247" 
d="M0 1391h307q-57 -174 -57 -426q0 -70 5 -210t5 -208v-90q0 -124 97 -205.5t223 -81.5q121 0 204 80q59 59 79 137t20 184q0 21 -1 62t-1 61q0 49 2 72q0 12 -1 34t-1 34q0 37 2 110t2 109q0 211 -54 338q102 2 314 2q-60 -153 -60 -389q0 -59 4.5 -175.5t4.5 -175.5
q0 -231 -58 -383q-59 -130 -187 -199t-280 -69q-163 0 -297 79t-186 224q-41 143 -41 350q0 57 4 173t4 173q0 233 -53 390zM471 1796q0 -41 29 -70q30 -30 71 -30q42 0 72 30q29 29 29 70q0 42 -31 70q-27 30 -70 30q-42 0 -69 -30q-31 -28 -31 -70zM395 1796q0 76 51 127
t125 51q73 0 127 -51q52 -52 52 -127t-52 -127q-54 -51 -127 -51q-74 0 -125 51t-51 127z" />
    <glyph glyph-name="uring" unicode="&#x16f;" horiz-adv-x="1101" 
d="M0 827q301 5 362 7q-53 -171 -53 -347q0 -101 23 -223q25 -48 81 -73t124 -25q67 0 122.5 26.5t79.5 75.5q17 112 17 277v198q-16 10 -62 42t-61 42q307 5 366 7q-31 -88 -38.5 -201.5t-12 -231t-28.5 -202.5q-42 -93 -147.5 -143t-233.5 -50q-131 0 -239.5 52.5
t-149.5 148.5q-35 109 -35 274q0 35 1 105.5t1 105.5v53q-15 10 -58.5 41t-58.5 41zM397 1257q0 -40 29 -69q31 -31 72 -31q40 0 71 31q29 29 29 69q0 42 -31 70q-28 31 -69 31q-42 0 -70 -31q-31 -28 -31 -70zM322 1257q0 76 51 127q52 52 125 52q72 0 127 -52
q51 -51 51 -127t-51 -127q-54 -51 -127 -51q-74 0 -125 51t-51 127z" />
    <glyph glyph-name="Wcircumflex" unicode="&#x174;" horiz-adv-x="1767" 
d="M0 1386q123 -6 395 -22q-12 -10 -49.5 -41t-50.5 -41q52 -117 159 -383t171 -405q68 194 100 276q-44 101 -131 304t-131 304q86 2 262 2q0 -6 -1 -17t-1 -17q0 -32 4 -64.5t15 -71t17.5 -60t23.5 -69.5t22 -63q64 122 160 360q45 1 134 2t134 2q-43 -41 -79.5 -89.5
t-67.5 -110.5t-50 -103.5t-50 -120.5t-44 -110q-20 -39 -20 -80q0 -45 31 -129.5t36 -118.5q79 116 142.5 261.5t129 323t111.5 277.5q48 -2 293 -12q-75 -46 -127 -84q-61 -148 -164.5 -409t-192.5 -477.5t-175 -403.5q-115 335 -195 510q-40 -101 -186 -504
q-64 120 -127 272t-114 290t-106 279.5t-126 283.5t-152 259zM543 1620l233 354h117l231 -354h-57l-233 215l-232 -215h-59z" />
    <glyph glyph-name="wcircumflex" unicode="&#x175;" horiz-adv-x="1615" 
d="M0 823q170 -10 307 -10q76 0 113 2q-58 -50 -58 -110q0 -47 30.5 -106.5t68 -122t47.5 -103.5q98 160 166 348q-17 11 -69 45.5t-70 46.5q39 1 110.5 1.5t131 1.5t112.5 3q-39 -68 -39 -141q0 -49 19 -106.5t39 -96.5t57 -102q15 28 50 86t54.5 93.5t37 87.5t17.5 97
q0 43 -14 84q117 -6 233 -6q56 0 170 4q-85 -56 -152.5 -134t-113.5 -165.5t-84 -172t-85.5 -181.5t-96.5 -166q-206 347 -242 406q-167 -297 -235 -406q-51 83 -113 210t-106 221t-119.5 203.5t-165.5 188.5zM467 1081l233 355h117l232 -355h-58l-233 215l-232 -215h-59z
" />
    <glyph glyph-name="Ycircumflex" unicode="&#x176;" horiz-adv-x="1314" 
d="M0 1376h383q-4 -32 -4 -47q0 -62 26 -127.5t58.5 -112t79.5 -112t71 -107.5q22 45 65.5 109t76 111t58.5 111t26 124q0 19 -4 51h376q-60 -49 -114 -107t-105.5 -132t-83.5 -125.5t-87 -145.5t-79 -133q-30 -86 -30 -225q0 -41 3 -124.5t3 -125.5q0 -103 -19 -184.5
t-71 -151.5q-76 61 -103.5 141t-27.5 187q0 46 6 140.5t6 141.5q0 183 -82 287q-32 48 -92.5 146.5t-99 157.5t-103 132t-133.5 121zM315 1620l234 354h117l231 -354h-57l-234 215l-231 -215h-60z" />
    <glyph glyph-name="ycircumflex" unicode="&#x177;" horiz-adv-x="1134" 
d="M0 809q147 -6 297 -6h98q-26 -53 -26 -111q0 -64 29.5 -139t71.5 -158.5t58 -134.5q143 311 179 539q212 8 325 14q-78 -83 -142 -186.5t-110 -208t-87 -206.5t-94.5 -214.5t-111.5 -200.5q-28 -33 -72.5 -56t-109 -45.5t-92.5 -35.5q21 38 78.5 117t91 144t33.5 126
q0 58 -35 113q-34 63 -77.5 167.5t-74.5 178.5t-91 159.5t-138 143.5zM225 1081l234 355h116l232 -355h-57l-234 215l-231 -215h-60z" />
    <glyph glyph-name="Ydieresis" unicode="&#x178;" horiz-adv-x="1314" 
d="M0 1376h383q-4 -32 -4 -47q0 -62 26 -127.5t58.5 -112t79.5 -112t71 -107.5q22 45 65.5 109t76 111t58.5 111t26 124q0 19 -4 51h376q-60 -49 -114 -107t-105.5 -132t-83.5 -125.5t-87 -145.5t-79 -133q-30 -86 -30 -225q0 -41 3 -124.5t3 -125.5q0 -103 -19 -184.5
t-71 -151.5q-76 61 -103.5 141t-27.5 187q0 46 6 140.5t6 141.5q0 183 -82 287q-32 48 -92.5 146.5t-99 157.5t-103 132t-133.5 121zM330 1827l71 74q13 10 25 10q11 0 27 -13l69 -73q10 -17 10 -25q0 -14 -12 -26l-69 -76q-14 -17 -25 -17q-10 0 -25 11l-75 86q-9 12 -9 24
t13 25zM696 1827l70 74q17 10 27 10q7 0 26 -13l68 -73q10 -13 10 -25q0 -14 -12 -26l-68 -76q-17 -17 -24 -17q-12 0 -27 11l-76 88q-8 11 -8 22q0 14 14 25z" />
    <glyph glyph-name="Zacute" unicode="&#x179;" horiz-adv-x="1187" 
d="M39 1409q171 -57 436 -57q70 0 212.5 5t213.5 5q103 0 184 -8q-66 -146 -170.5 -307t-200 -282t-218 -282.5t-201.5 -283.5q31 2 94 2q53 0 161 -4t161 -4q212 0 356 59q-2 -100 -2 -305q-85 82 -193 82h-561q-207 0 -311 4q65 147 170 307.5t201 281t219.5 281.5
t202.5 283q-50 -6 -103 -6t-162.5 7t-162.5 7q-207 0 -324 -88q0 203 -2 303zM680 1915q30 33 55 47q21 12 41 12q33 0 53 -20q21 -21 21 -49q0 -21 -16 -43q-13 -18 -46 -41l-331 -203h-68z" />
    <glyph glyph-name="zacute" unicode="&#x17a;" horiz-adv-x="1028" 
d="M55 879q151 -70 396 -70q53 0 159 4t158 4q88 0 156 -8q-19 -72 -68 -140t-115.5 -126.5t-135 -111t-143.5 -115t-122 -117.5h94q156 0 269 7t221 32q0 -177 2 -265q-155 72 -406 72q-57 0 -170 -4t-168 -4q-108 0 -182 10q52 82 133.5 168t154 147.5t173 146
t162.5 144.5h-105q-281 0 -461 -39q0 177 -2 265zM600 1376q30 33 55 47q23 13 41 13q33 0 54 -21q20 -20 20 -49q0 -21 -16 -43q-14 -19 -45 -41l-332 -203h-68z" />
    <glyph glyph-name="Zdotaccent" unicode="&#x17b;" horiz-adv-x="1187" 
d="M39 1409q171 -57 436 -57q70 0 212.5 5t213.5 5q103 0 184 -8q-66 -146 -170.5 -307t-200 -282t-218 -282.5t-201.5 -283.5q31 2 94 2q53 0 161 -4t161 -4q212 0 356 59q-2 -100 -2 -305q-85 82 -193 82h-561q-207 0 -311 4q65 147 170 307.5t201 281t219.5 281.5
t202.5 283q-50 -6 -103 -6t-162.5 7t-162.5 7q-207 0 -324 -88q0 203 -2 303zM449 1827l69 74q4 4 12 8q6 2 15 2q8 0 12 -2q11 -5 12 -8l72 -78q5 -3 8 -8q0 -2 1 -7.5t1 -7.5q-1 -3 -2 -8.5t-2 -7.5q-4 -8 -8 -10l-72 -78q-4 -3 -9 -7.5t-5 -5.5q-4 -2 -8 -2q-13 0 -17 2
q-7 4 -10 9l-76 86q-4 8 -4 10q-2 4 -2 14q0 9 2 13q1 2 11 12z" />
    <glyph glyph-name="zdotaccent" unicode="&#x17c;" horiz-adv-x="1028" 
d="M55 879q151 -70 396 -70q53 0 159 4t158 4q88 0 156 -8q-19 -72 -68 -140t-115.5 -126.5t-135 -111t-143.5 -115t-122 -117.5h94q156 0 269 7t221 32q0 -177 2 -265q-155 72 -406 72q-57 0 -170 -4t-168 -4q-108 0 -182 10q52 82 133.5 168t154 147.5t173 146
t162.5 144.5h-105q-281 0 -461 -39q0 177 -2 265zM369 1288l69 74q3 3 13 8q6 2 14 2t12 -2q11 -5 12 -8l72 -78q5 -3 8 -8q0 -2 1 -7t1 -7q-1 -3 -2 -9t-2 -8q-4 -8 -8 -10l-72 -78q-3 -3 -8 -7t-6 -5q-4 -2 -8 -2q-12 0 -16 2q-9 5 -11 8l-76 86q-4 8 -4 10q-2 4 -2 15
q0 8 2 12q1 2 11 12z" />
    <glyph glyph-name="Zcaron" unicode="&#x17d;" horiz-adv-x="1187" 
d="M39 1409q171 -57 436 -57q70 0 212.5 5t213.5 5q103 0 184 -8q-66 -146 -170.5 -307t-200 -282t-218 -282.5t-201.5 -283.5q31 2 94 2q53 0 161 -4t161 -4q212 0 356 59q-2 -100 -2 -305q-85 82 -193 82h-561q-207 0 -311 4q65 147 170 307.5t201 281t219.5 281.5
t202.5 283q-50 -6 -103 -6t-162.5 7t-162.5 7q-207 0 -324 -88q0 203 -2 303zM252 1974h59l232 -213l233 213h58l-232 -356h-117z" />
    <glyph glyph-name="zcaron" unicode="&#x17e;" horiz-adv-x="1028" 
d="M55 879q151 -70 396 -70q53 0 159 4t158 4q88 0 156 -8q-19 -72 -68 -140t-115.5 -126.5t-135 -111t-143.5 -115t-122 -117.5h94q156 0 269 7t221 32q0 -177 2 -265q-155 72 -406 72q-57 0 -170 -4t-168 -4q-108 0 -182 10q52 82 133.5 168t154 147.5t173 146
t162.5 144.5h-105q-281 0 -461 -39q0 177 -2 265zM172 1436h59l232 -213l233 213h58l-232 -357h-116z" />
    <glyph glyph-name="longs" unicode="&#x17f;" horiz-adv-x="907" 
d="M352 999q65 52 170 52q50 0 145.5 -14.5t135.5 -16.5q0 -168 2 -252q-135 135 -244 135q-55 0 -108 -33q-11 -55 -16 -109.5t-7.5 -144t-3.5 -112.5q152 28 317 78q-2 -84 -2 -258q-186 36 -309 53q-10 -52 -10 -94q0 -49 11 -151.5t11 -151.5q0 -99 -35.5 -170
t-129.5 -117q-41 158 -41 430v256q-50 -10 -238 -57q2 47 2 137q0 92 -2 137q26 -11 225 -98q9 47 12 127.5t6.5 136.5t30 123t78.5 114z" />
    <glyph glyph-name="gravecomb" unicode="&#x300;" horiz-adv-x="0" 
d="M-25 1079h-69l-330 203q-35 25 -47 41q-14 20 -14 43q0 32 20 49q18 21 53 21q18 0 41 -13q27 -18 56 -47z" />
    <glyph glyph-name="acutecomb" unicode="&#x301;" horiz-adv-x="0" 
d="M-195 1376q29 32 56 47q23 13 41 13q32 0 53 -21q20 -20 20 -49q0 -21 -16 -43q-14 -19 -45 -41l-332 -203h-67z" />
    <glyph glyph-name="circumflexcomb" unicode="&#x302;" horiz-adv-x="0" 
d="M-625 1081l234 355h117l231 -355h-57l-234 215l-231 -215h-60z" />
    <glyph glyph-name="tildecomb" unicode="&#x303;" horiz-adv-x="0" 
d="M-39 1354q-19 -76 -67 -133q-49 -58 -132 -58q-47 0 -114 31t-121 31q-60 0 -84 -62h-55q18 75 67 133q52 58 119 58q51 0 123 -29q69 -29 123 -29q61 0 88 58h53z" />
    <glyph glyph-name="macroncomb" unicode="&#x304;" horiz-adv-x="0" 
d="M-526 1194v127h516v-127h-516z" />
    <glyph glyph-name="dotaccentcomb" unicode="&#x307;" horiz-adv-x="0" 
d="M-375 1288l70 74q4 4 12 8q6 2 14 2q9 0 13 -2q11 -5 12 -8l72 -78q5 -3 8 -8q0 -2 1 -7t1 -7q-1 -3 -2 -9t-2 -8q-4 -8 -8 -10l-72 -78q-3 -3 -8 -7t-6 -5q-4 -2 -9 -2q-12 0 -16 2q-8 4 -10 8l-76 86q-4 8 -4 10q-2 4 -2 15q0 8 2 12t10 12z" />
    <glyph glyph-name="dieresiscomb" unicode="&#x308;" horiz-adv-x="0" 
d="M-590 1288l72 74q13 10 24 10q12 0 27 -12l70 -74q10 -17 10 -24q0 -15 -12 -27l-70 -76q-13 -16 -25 -16q-11 0 -24 10l-76 86q-8 11 -8 25q0 12 12 24zM-223 1288l69 74q17 10 27 10q9 0 27 -12l67 -74q10 -13 10 -24q0 -15 -12 -27l-67 -76q-16 -16 -25 -16
q-14 0 -27 10l-75 88q-9 12 -9 23q0 12 15 24z" />
    <glyph glyph-name="ringcomb" unicode="&#x30a;" horiz-adv-x="0" 
d="M-350 1257q0 -41 28 -69q31 -31 72 -31t72 31q28 28 28 69q0 43 -30 70q-28 31 -70 31q-41 0 -69 -31q-31 -28 -31 -70zM-426 1257q0 76 51 127q52 52 125 52q72 0 127 -52q51 -51 51 -127t-51 -127q-54 -51 -127 -51q-74 0 -125 51t-51 127z" />
    <glyph glyph-name="caroncomb" unicode="&#x30c;" horiz-adv-x="0" 
d="M-625 1436h60l231 -213l234 213h57l-231 -357h-117z" />
    <glyph glyph-name="cedillacomb" unicode="&#x327;" horiz-adv-x="0" 
d="M-471 -291q83 -51 152 -51q64 0 94 23q28 20 28 65q0 46 -49 64q-43 16 -100 16q-23 0 -35 -2l47 176h64l-37 -104q14 2 36 4t25 2q85 0 135 -41q48 -42 48 -115q0 -76 -58 -119q-57 -45 -162 -45q-112 0 -188 33v94z" />
    <glyph glyph-name="endash" unicode="&#x2013;" horiz-adv-x="1107" 
d="M55 420v119h998v-119h-998z" />
    <glyph glyph-name="emdash" unicode="&#x2014;" horiz-adv-x="2048" 
d="M0 420v119h2048v-119h-2048z" />
    <glyph glyph-name="quoteleft" unicode="&#x2018;" horiz-adv-x="557" 
d="M319 1016q-44 0 -88 65q-45 62 -45 152q0 108 70 227q74 117 139 117v-43q-74 -46 -86 -191q0 -119 129 -159v-43z" />
    <glyph glyph-name="quoteright" unicode="&#x2019;" horiz-adv-x="557" 
d="M238 1577q43 0 88 -66q45 -62 45 -151q0 -109 -72 -227q-71 -117 -137 -117v43q74 46 86 190q0 119 -129 160v43z" />
    <glyph glyph-name="quotesinglbase" unicode="&#x201a;" horiz-adv-x="557" 
d="M238 281q45 0 88 -66q45 -62 45 -152q0 -110 -72 -225q-70 -119 -137 -119v43q74 46 86 191q0 119 -129 162v41z" />
    <glyph glyph-name="quotedblleft" unicode="&#x201c;" horiz-adv-x="909" 
d="M319 1016q-44 0 -88 65q-45 62 -45 152q0 108 70 227q74 117 139 117v-43q-74 -46 -86 -191q0 -119 129 -159v-43zM672 1016q-44 0 -88 65q-45 62 -45 152q0 106 71 227q70 117 140 117v-43q-73 -43 -88 -191q0 -119 129 -159v-43z" />
    <glyph glyph-name="quotedblright" unicode="&#x201d;" horiz-adv-x="909" 
d="M238 1577q43 0 88 -66q45 -62 45 -151q0 -109 -72 -227q-71 -117 -137 -117v43q74 46 86 190q0 119 -129 160v43zM592 1577q40 0 88 -66q45 -67 45 -151q0 -104 -72 -227q-71 -117 -139 -117v43q74 44 86 190q0 119 -129 160v43z" />
    <glyph glyph-name="quotedblbase" unicode="&#x201e;" horiz-adv-x="909" 
d="M238 281q45 0 88 -66q45 -62 45 -152q0 -110 -72 -225q-70 -119 -137 -119v43q74 46 86 191q0 119 -129 162v41zM592 281q43 0 88 -66q45 -67 45 -152q0 -106 -72 -225q-70 -119 -139 -119v43q74 44 86 191q0 119 -129 162v41z" />
    <glyph glyph-name="dagger" unicode="&#x2020;" 
d="M485 1022q-6 97 -53 178q-57 99 -57 129q0 51 37 78q36 31 96 31q50 0 94 -29q37 -27 37 -72q0 -30 -55 -137q-47 -83 -56 -178q101 9 179 53q101 58 129 58q50 0 77 -35q31 -39 31 -97q0 -53 -26 -94q-26 -39 -74 -39q-29 0 -135 56q-82 44 -181 57q9 -174 111 -276
q-107 -470 -113 -975h-37q-6 515 -114 975q101 101 110 276q-97 -9 -178 -55q-103 -58 -129 -58q-48 0 -78 37q-28 35 -28 96q0 59 26 95q27 37 72 37q31 0 137 -56q84 -46 178 -55z" />
    <glyph glyph-name="daggerdbl" unicode="&#x2021;" 
d="M528 186q92 9 179 58q104 55 137 55q43 0 71 -39q27 -37 27 -94q0 -60 -29 -96q-28 -35 -79 -35q-28 0 -129 55q-78 46 -177 55q9 -93 56 -180q55 -104 55 -135q0 -44 -39 -72t-94 -28q-58 0 -96 30q-35 25 -35 78q0 28 55 129q46 79 55 178q-96 -9 -180 -55
q-104 -55 -135 -55q-45 0 -72 37q-28 39 -28 94q0 59 30 96q27 37 78 37q24 0 129 -57q83 -47 178 -56q-9 227 -110 398q101 171 110 397q-97 -9 -178 -55q-107 -58 -129 -58q-51 0 -78 37q-30 37 -30 96q0 56 28 95q27 37 72 37q29 0 135 -56q84 -46 180 -55q-9 99 -55 178
q-55 101 -55 129q0 53 35 78q39 31 96 31q54 0 94 -29q39 -28 39 -72q0 -30 -55 -137q-47 -83 -56 -178q103 10 177 53q101 58 129 58q49 0 79 -35q29 -36 29 -97q0 -57 -27 -94q-26 -39 -71 -39q-31 0 -137 56q-78 44 -179 57q6 -224 111 -397q-105 -172 -111 -398z" />
    <glyph glyph-name="bullet" unicode="&#x2022;" horiz-adv-x="1024" 
d="M215 719q0 121 88 209q86 86 209 86q124 0 209 -88q88 -88 88 -207q0 -120 -88 -211q-89 -86 -209 -86q-125 0 -211 86t-86 211z" />
    <glyph glyph-name="ellipsis" unicode="&#x2026;" horiz-adv-x="2048" 
d="M145 168l82 84q15 12 29 12t31 -14l80 -86q12 -18 12 -31q0 -14 -14 -31l-80 -88q-18 -18 -29 -18q-17 0 -29 12l-88 103q-10 13 -10 24q0 14 16 33zM827 168l82 84q15 12 29 12q16 0 33 -14l80 -86q12 -18 12 -31q0 -10 -14 -31l-80 -88q-21 -18 -31 -18q-14 0 -29 12
l-88 103q-10 13 -10 24q0 14 16 33zM1511 168l82 84q15 12 29 12t31 -14l80 -86q12 -18 12 -31q0 -14 -14 -31l-80 -88q-18 -18 -29 -18q-17 0 -29 12l-88 103q-10 13 -10 24q0 14 16 33z" />
    <glyph glyph-name="guilsinglleft" unicode="&#x2039;" horiz-adv-x="630" 
d="M174 479l342 303h14v-37l-204 -266l204 -266v-37h-14z" />
    <glyph glyph-name="guilsinglright" unicode="&#x203a;" horiz-adv-x="630" 
d="M115 176h-15v37l205 266l-205 266v37h15l342 -303z" />
    <glyph glyph-name="fraction" unicode="&#x2044;" horiz-adv-x="342" 
d="M-342 -29l940 1461h84l-938 -1461h-86z" />
    <glyph glyph-name="fraction" unicode="&#x2215;" horiz-adv-x="342" 
d="M-342 -29l940 1461h84l-938 -1461h-86z" />
    <glyph glyph-name="frenchfrancsign" unicode="&#x20a3;" 
d="M248 356h-195v62h195v731q0 235 -105 235h-96v50h916l104 -232h-49q-61 182 -191 182h-315q-102 0 -102 -235v-352h360q100 0 100 63v58h50v-343h-50v62q0 61 -100 61h-360v-280h192v-62h-192v-71q0 -236 102 -236h96v-49h-561v49h96q105 0 105 236v71z" />
    <glyph glyph-name="lirasign" unicode="&#x20a4;" 
d="M588 1378h-2q-102 0 -187 -98q-88 -97 -88 -244q3 -143 35 -243h379v-60h-358q20 -50 24 -59h352v-62h-319q35 -62 35 -137q0 -160 -162 -375h401q131 0 189 131h49l-102 -231h-719v49q186 238 186 420q0 79 -33 141l-2 2h-172v62h144q-17 34 -27 59h-135v60h112
q-34 106 -34 192q0 226 122 348q124 121 312 121q80 0 184 -14q111 -12 111 -33v-162h-37q-6 61 -74 96q-64 37 -184 37z" />
    <glyph glyph-name="pesetasign" unicode="&#x20a7;" horiz-adv-x="2027" 
d="M410 1384v-661l6 -18q41 -103 108 -152q54 -45 117 -45q12 0 18 2q68 6 127 74t86 178q23 94 23 178v47q-9 118 -51 219q-41 103 -109 144q-50 34 -110 34h-23h-192zM1495 907h-178v-684q0 -81 35 -119q27 -30 80 -36l-70 190l47 2q56 -130 115 -174q58 -43 127 -43h8
q92 0 149 51q60 51 60 135q0 102 -258 228q-104 54 -146 110q-43 61 -43 146q0 120 74 194zM1038 909q-6 -99 -47 -192q-49 -113 -141 -178q-91 -64 -191 -64q-99 0 -190 64q-30 18 -59 51v-305q0 -236 102 -236h96v-49h-561v49h96q105 0 105 236v864q0 235 -105 235h-96v50
h619q88 0 182 -62q89 -62 141 -178q51 -108 51 -236h11q217 0 217 355h49v-355h260q40 18 109 21h2q44 0 133 -14q80 -12 80 -33v-160h-41q-6 67 -66 109q-62 41 -133 41q-65 0 -105 -37q-36 -36 -36 -97q0 -108 233 -219q123 -55 168 -118q45 -60 45 -152q0 -143 -82 -231
q-103 -86 -227 -86q-52 0 -107 10q-27 6 -55 6q-25 0 -37 -2q-27 -6 -57 -6q-126 0 -174 57q-52 62 -58 176h-2v686h-129z" />
    <glyph glyph-name="euro" unicode="&#x20ac;" 
d="M649 1434q-177 0 -313 -177q-134 -177 -143 -423h706l-16 -62h-693q0 -29 3 -59h673l-16 -60h-653q18 -230 157 -415q140 -186 334 -189q157 3 230 94q71 89 71 183h47v-144q0 -71 -106 -125q-108 -54 -242 -57q-270 0 -440 203q-170 206 -185 450h-106l16 60h86v28
q0 23 2 31h-71l16 62h60q12 220 170 438q157 213 430 213q57 0 118 -23q56 -20 72 -20q14 0 29 45h41l84 -283h-41q-50 125 -150 176q-102 54 -170 54z" />
    <glyph glyph-name="numerosign" unicode="&#x2116;" horiz-adv-x="2271" 
 />
    <glyph glyph-name="trademark" unicode="&#x2122;" horiz-adv-x="1497" 
 />
    <glyph glyph-name="partialdifferential" unicode="&#x2202;" 
d="M231 537q0 -34 7 -78q12 -126 61 -232q46 -106 119 -164q62 -53 127 -53h12q72 6 129 72q60 70 80 178q16 78 16 150q0 42 -6 86q-12 121 -61 231q-50 109 -119 166q-67 49 -129 49h-10q-69 -6 -127 -70t-82 -178q-17 -94 -17 -157zM938 477q0 -129 -57 -252
q-55 -117 -160 -184q-104 -66 -213 -66q-111 0 -215 66q-100 64 -160 184q-55 119 -55 252t57 250q58 122 162 186q104 66 211 66t211 -66q20 -12 53 -41q-83 236 -233 377q-147 141 -326 156v53q306 0 514 -284q211 -284 211 -697z" />
    <glyph glyph-name="increment" unicode="&#x2206;" horiz-adv-x="1081" 
d="M514 1194l-405 -1071h800zM547 1434l526 -1434h-1067z" />
    <glyph glyph-name="naryproduct" unicode="&#x220f;" horiz-adv-x="1515" 
d="M512 1384q-102 0 -102 -235v-1280q0 -236 102 -236h96v-51h-561v51h96q105 0 105 236v1280q0 235 -105 235h-96v50h1419v-50h-96q-102 0 -102 -235v-1280q0 -236 102 -236h96v-51h-559v51h97q102 0 102 236v1280q0 235 -102 235h-492z" />
    <glyph glyph-name="narysummation" unicode="&#x2211;" horiz-adv-x="1206" 
d="M1059 549l-789 -916h635q129 0 191 183h49l-105 -232h-919v49q59 0 104 54l664 782l-664 858q-42 57 -104 57v50h919l105 -232h-49q-62 182 -191 182h-483z" />
    <glyph glyph-name="minus" unicode="&#x2212;" 
d="M86 647v139h840h2v-139h-842z" />
    <glyph glyph-name="squareroot" unicode="&#x221a;" 
d="M180 0l-164 358l74 35l86 -184l727 1470h152v-59h-74z" />
    <glyph glyph-name="infinity" unicode="&#x221e;" 
d="M451 606q-64 -192 -187 -192q-81 0 -139 82q-59 86 -59 221q0 126 59 215q59 90 139 90q131 0 187 -195q19 112 88 181q67 73 155 73q107 0 183 -104q73 -104 73 -260q0 -154 -80 -260q-80 -105 -176 -105q-68 0 -137 60q-68 56 -106 194zM467 686q9 -92 86 -147
q79 -54 129 -54q83 0 166 80q84 81 84 185q-3 90 -58 145t-145 55q-83 0 -156 -55q-76 -52 -106 -209zM438 756q-15 82 -57 118q-44 35 -100 35q-84 0 -142 -67q-59 -68 -59 -154q3 -67 45 -115q45 -51 115 -51q65 0 116 45q52 46 82 189z" />
    <glyph glyph-name="integral" unicode="&#x222b;" horiz-adv-x="665" 
d="M-12 -281q-60 0 -60 29v160h35q3 -47 35 -66q33 -20 63 -20h2q81 0 115 162q34 178 39 315l72 733l8 64q24 235 133 428q110 192 236 192q59 0 59 -28v-160h-37q0 44 -35 65t-61 21q-70 0 -117 -156q-46 -151 -49 -362l-74 -768q-18 -229 -129 -420q-112 -189 -235 -189z
" />
    <glyph glyph-name="almostequalto" unicode="&#x2248;" 
d="M924 1053v-156q-65 -71 -123 -98q-61 -25 -117 -25q-60 0 -176 49q-118 47 -176 47q-53 0 -109 -26q-50 -24 -129 -113v156q65 74 123 98q59 27 115 27q64 0 180 -49q118 -50 172 -50t109 27q56 29 131 113zM924 705v-156q-65 -71 -123 -98q-61 -25 -117 -25
q-60 0 -176 49q-118 47 -176 47q-53 0 -109 -26q-50 -24 -129 -113v156q64 73 123 100q61 25 115 25q62 0 180 -50q116 -49 172 -49q55 0 109 29q55 25 131 111z" />
    <glyph glyph-name="lessthanorequalto" unicode="&#x2264;" 
d="M928 1092l-627 -361l627 -354v-166l-842 479v84l842 483v-165zM86 0v139h840h2v-139h-842z" />
    <glyph glyph-name="greaterthanorequalto" unicode="&#x2265;" 
d="M86 1257l842 -483v-84l-842 -479v166l627 354l-627 361v165zM86 0v139h840h2v-139h-842z" />
    <glyph glyph-name="fi" unicode="&#xfb01;" horiz-adv-x="2197" 
 />
    <glyph glyph-name="fl" unicode="&#xfb02;" horiz-adv-x="2213" 
 />
    </font>
</defs>
</svg>
