<?xml version="1.0" standalone="no"?>
<!DOCTYPE svg PUBLIC "-//W3C//DTD SVG 1.1//EN" "http://www.w3.org/Graphics/SVG/1.1/DTD/svg11.dtd" >
<svg xmlns="http://www.w3.org/2000/svg" xmlns:xlink="http://www.w3.org/1999/xlink" version="1.1">
<metadata>
Created by FontForge 20201107 at Tue Mar  9 08:53:39 2004
 By 
Typeface (c) Draftlight/Aeryn/Wind-Up Records 2003. All Rights Reserved
</metadata>
<defs>
<font id="Evanescent" horiz-adv-x="1024" >
  <font-face 
    font-family="Evanescent"
    font-weight="400"
    font-stretch="normal"
    units-per-em="2048"
    panose-1="2 0 0 0 0 0 0 0 0 0"
    ascent="1638"
    descent="-410"
    x-height="688"
    cap-height="919"
    bbox="-2453 -782 3997 1756"
    underline-thickness="150"
    underline-position="-292"
    unicode-range="U+000D-2122"
  />
<missing-glyph horiz-adv-x="1536" 
d="M256 0v1280h1024v-1280h-1024zM288 32h960v1216h-960v-1216z" />
    <glyph glyph-name=".notdef" horiz-adv-x="1536" 
d="M256 0v1280h1024v-1280h-1024zM288 32h960v1216h-960v-1216z" />
    <glyph glyph-name=".null" horiz-adv-x="0" 
 />
    <glyph glyph-name="nonmarkingreturn" unicode="&#xd;" horiz-adv-x="682" 
 />
    <glyph glyph-name="space" unicode=" " horiz-adv-x="569" 
 />
    <glyph glyph-name="space" unicode="&#xa0;" horiz-adv-x="569" 
 />
    <glyph glyph-name="exclam" unicode="!" horiz-adv-x="575" 
d="M166 171l-34 59l-46 597q12 107 -81 93q6 10 16.5 23t22.5 25t25 20.5t24 8.5h82zM127 5h39v103h-39v-103z" />
    <glyph glyph-name="quotedbl" unicode="&#x22;" horiz-adv-x="420" 
d="M18 709l38 104q29 63 -24 103q-16 10 -52 20h175q-12 -98 -137 -227zM258 711l38 104q29 63 -24 103q-16 10 -52 20h175q-12 -98 -137 -227z" />
    <glyph glyph-name="numbersign" unicode="#" horiz-adv-x="893" 
d="M279 551l50 237l22 -237h246l50 237l22 -237h115l-130 -72l-44 -217h174l-189 -72l-50 -236l-22 236h-247l-50 -236l-22 236h-116l131 72l45 217h-176zM340 480l-46 -218h247l45 218h-246z" />
    <glyph glyph-name="dollar" unicode="$" horiz-adv-x="539" 
d="M275 -545q-102 248 -95 252l-90 -10l-67 -2q-46 2 -81 20q113 -18 238 39v472l95 -414q56 49 110.5 148.5t18.5 223.5q-11 54 -71 108q-35 24 -66 47l6 -339l-93 409q-85 76 -124 134q-42 67 -51 128q-7 33 -8 76l2 65q37 194 170 266q9 6 11 6v273l91 -239q25 6 53 8
l46 -2q61 -9 75 -53q2 -42 -48 -43q-62 28 -103 25q-10 0 -19 -1l-2 -420q-103 386 -93 386q-50 -33 -77 -79q-44 -85 -38.5 -174t81.5 -158q9 -8 34 -33v273l82 -345q59 -51 117 -99q111 -100 120 -234v-52q-4 -112 -77 -224q-48 -69 -146 -133z" />
    <glyph glyph-name="percent" unicode="%" horiz-adv-x="1686" 
d="M48 720q0 146 57.5 213.5t145.5 67.5q90 0 135.5 -63.5t45.5 -180.5q0 -143 -56 -209t-141 -66q-84 0 -135.5 58.5t-51.5 179.5zM119 733q0 -118 42 -163q28 -31 80 -31q49 0 77 31q42 47 42 171q0 128 -46 182q-28 32 -76 32q-50 0 -77 -32q-42 -50 -42 -190zM768 985
l166 52q-87 -135 -183.5 -281.5t-196.5 -293t-201 -286t-196 -259.5q-18 -23 -28 -32t-19.5 -14t-23 -11t-37.5 -21zM649 224q0 146 57.5 213.5t146.5 67.5t134.5 -63.5t45.5 -180.5q0 -143 -55.5 -209t-141.5 -66q-83 0 -135 58.5t-52 179.5zM727 230q0 -117 42 -163
q28 -31 80 -31q49 0 77 32q42 47 42 170q0 128 -46 182q-28 32 -76 32q-50 0 -77 -32q-42 -50 -42 -190z" />
    <glyph glyph-name="ampersand" unicode="&#x26;" horiz-adv-x="1599" 
d="M681 517l46 97h195q-9 -136 -85 -227q-51 -94 -120 -180q67 -65 110 -89t81 -24q34 0 72.5 14.5t130.5 125.5q-64 -185 -134.5 -222t-105.5 -37q-108 0 -243 135q-76 -70 -151.5 -102.5t-163.5 -32.5q-112 0 -183 70t-71 172q0 88 60 163t233 166q-36 78 -49.5 129.5
t-13.5 98.5q0 84 77 153t190 69q82 0 128.5 -43.5t46.5 -114.5q0 -163 -240 -279q40 -81 75 -139t109 -163q63 80 93.5 154.5t30.5 115.5q-19 52 -118 -10zM438 600q98 45 136 91t38 107q0 64 -32 101.5t-77 37.5q-29 0 -58 -18t-43 -50t-14 -72q0 -74 50 -197zM373 479
q-66 -38 -96 -66q-41 -39 -60 -78.5t-19 -83.5q0 -73 52.5 -125.5t127.5 -52.5q99 0 194 88q-112 141 -199 318z" />
    <glyph glyph-name="quotesingle" unicode="'" horiz-adv-x="206" 
d="M18 709l38 104q29 63 -24 103q-16 10 -52 20h175q-12 -98 -137 -227z" />
    <glyph glyph-name="parenleft" unicode="(" horiz-adv-x="662" 
d="M518 -402q-106 49 -179 115q-120 107 -193 272.5t-73 384.5q0 180 55.5 340.5t173.5 282.5q85 89 216 151q-78 -122 -128 -191q-70 -98 -116.5 -256t-46.5 -328q0 -178 49.5 -335t114.5 -248q47 -63 127 -188z" />
    <glyph glyph-name="parenright" unicode=")" horiz-adv-x="662" 
d="M200 -214q65 91 114.5 248t49.5 335q0 170 -46.5 328t-116.5 256q-50 69 -128 191q131 -62 216 -151q118 -122 173.5 -282.5t55.5 -340.5q0 -219 -73 -384.5t-193 -272.5q-73 -66 -179 -115q80 125 127 188z" />
    <glyph glyph-name="asterisk" unicode="*" horiz-adv-x="961" 
d="M416 1269q-74 -134 -44 -266q122 5 237 121l42 -130q-157 14 -260 -39q24 -48 47.5 -74t46.5 -43t46 -30.5t46 -36.5l-112 -80q-15 141 -120 237q-95 -96 -118 -237l-113 80q31 15 55.5 28.5t46.5 32.5t43 48t45 75q-118 63 -260 45l42 129l105 -121h130q15 118 -42 257z
" />
    <glyph glyph-name="plus" unicode="+" horiz-adv-x="150" 
d="M1 -782l-22 1699l-2432 42l2433 12l28 785l17 -785l3972 -27l-3970 -26z" />
    <glyph glyph-name="comma" unicode="," horiz-adv-x="575" 
d="M86 -154v45q43 48 75 105q47 -16 73.5 -52.5t26.5 -80.5q0 -122 -220 -291q139 166 139 237q0 28 -16 45t-35 17q-9 0 -43 -25z" />
    <glyph glyph-name="hyphen" unicode="-" horiz-adv-x="875" 
d="M65 378l674 -1l-76 -71h-663z" />
    <glyph glyph-name="hyphen" unicode="&#xad;" horiz-adv-x="875" 
d="M65 378l674 -1l-76 -71h-663z" />
    <glyph glyph-name="period" unicode="." horiz-adv-x="554" 
d="M213 111q25 0 43 -18t18 -43q0 -26 -18 -43.5t-43 -17.5q-26 0 -43.5 17.5t-17.5 43.5q0 25 17.5 43t43.5 18z" />
    <glyph glyph-name="slash" unicode="/" horiz-adv-x="826" 
d="M564 986l175 159q-31 -64 -71.5 -144t-85 -167t-92 -178t-93 -177t-87.5 -162.5t-76 -136.5t-58 -98.5t-34 -47.5l-81 -74z" />
    <glyph glyph-name="zero" unicode="0" horiz-adv-x="582" 
d="M3 370q0 228 83 335q67 87 174 87q67 0 119.5 -36.5t83 -116t30.5 -213.5q0 -131 -27.5 -236t-94.5 -158q-50 -40 -128 -40q-123 0 -181.5 99.5t-58.5 278.5zM74 398q0 -103 13 -165.5t40.5 -101.5t56.5 -54t71 -15q50 0 87.5 22.5t64.5 86.5t27 188q0 116 -25 220
q-11 46 -32.5 77.5t-51 47t-75.5 15.5q-44 0 -74 -15.5t-52 -47.5q-16 -22 -29 -69q-21 -79 -21 -189z" />
    <glyph glyph-name="one" unicode="1" horiz-adv-x="430" 
d="M272 803v-805l-174 1q91 24 98 50v658q-8 69 -147 -13l54 109h169z" />
    <glyph glyph-name="two" unicode="2" horiz-adv-x="566" 
d="M35 551q23 88 65.5 146t89 77t93.5 19q57 0 106 -27t74.5 -75t25.5 -107q0 -52 -19 -100q-24 -61 -81 -131.5t-238 -265.5h231q50 0 62.5 19t-33.5 58h76v-164h-460v32q167 174 238 260t101 158q21 49 21 104q0 72 -35.5 110t-91.5 38q-50 0 -99 -28.5t-126 -122.5z" />
    <glyph glyph-name="three" unicode="3" horiz-adv-x="616" 
d="M32 625q0 68 52 120q39 28 79.5 42t82.5 14q51 0 91.5 -20.5t61 -58t20.5 -77.5q0 -98 -106 -173q59 -16 92 -51q53 -54 53 -143q0 -116 -87 -199t-217 -83q-72 0 -142 27v141q44 -120 189 -113q70 0 116.5 48t46.5 129q0 80 -49 128t-196 69q134 44 172 87.5t38 95.5
q0 48 -30.5 77.5t-81.5 29.5q-101 18 -185 -90z" />
    <glyph glyph-name="four" unicode="4" horiz-adv-x="641" 
d="M499 807q-68 -24 -68 -58l1 -486q98 -15 141 -109q-84 55 -141 44v-200h-229q137 19 146 52l-1 150l-403 1l428 606h126zM352 259v402l-282 -402h282z" />
    <glyph glyph-name="five" unicode="5" horiz-adv-x="572" 
d="M458 796l28 -97q-46 43 -103 40h-213l-35 -164q111 0 194 -52q116 -73 116 -218q0 -85 -40.5 -154t-117 -109.5t-148.5 -40.5q-56 0 -139 46v121q45 -81 95.5 -92t96.5 -11q86 0 128.5 59.5t42.5 134.5q0 63 -30.5 112t-90.5 75t-128 26q-21 0 -61 -5l71 329h334z" />
    <glyph glyph-name="six" unicode="6" horiz-adv-x="638" 
d="M423 797q-152 -112 -183 -147.5t-70 -99.5q-27 -43 -49 -118q82 62 106.5 73.5t56.5 11.5q89 0 146 -62t57 -169t-65.5 -196.5t-184.5 -89.5q-102 0 -170.5 77.5t-68.5 213.5q0 157 92 289q104 149 333 217zM395 237q0 34 -16 86.5t-50 82.5t-79 30q-36 0 -69 -20.5
t-47.5 -51t-14.5 -77.5q0 -113 52 -180q41 -53 95 -53q63 0 96 54.5t33 128.5z" />
    <glyph glyph-name="seven" unicode="7" horiz-adv-x="632" 
d="M-54 681l110 119h421l-250 -796q-84 -8 -201 -71q93 65 127 120l228 677h-298z" />
    <glyph glyph-name="eight" unicode="8" horiz-adv-x="597" 
d="M177 414q-90 67 -116.5 106.5t-26.5 88.5q0 77 62.5 134t164.5 57q92 0 141.5 -44.5t49.5 -111.5q0 -52 -32.5 -98t-116.5 -102q70 -48 101.5 -77t48 -62.5t16.5 -78.5q0 -89 -67 -153t-176 -64q-101 0 -156 51t-55 129q0 58 31 105.5t131 119.5zM253 472q59 40 83 76.5
t24 77.5q0 53 -34.5 87t-89.5 34t-87.5 -30.5t-32.5 -76.5q0 -30 11 -52.5t38.5 -48.5t87.5 -67zM229 384q-58 -41 -85.5 -88.5t-27.5 -97.5q0 -60 42 -102t102 -42q56 0 93 37.5t37 92.5q0 35 -16.5 67t-55.5 68q-28 26 -89 65z" />
    <glyph glyph-name="nine" unicode="9" horiz-adv-x="637" 
d="M78 -25q156 100 262 259q33 54 58 141q-62 -61 -102.5 -82.5t-78.5 -21.5q-82 0 -143 66t-61 177q0 128 76 207.5t185 79.5q108 0 175 -73t67 -213q0 -114 -50 -229t-142.5 -189t-245.5 -122zM103 571q0 -108 44 -161t106 -53q54 0 95.5 45t41.5 118q0 91 -43.5 157
t-111.5 66q-53 0 -92.5 -44.5t-39.5 -127.5z" />
    <glyph glyph-name="colon" unicode=":" horiz-adv-x="508" 
d="M64 498h161v-161h-161v161zM64 249h161v-161h-161v161z" />
    <glyph glyph-name="semicolon" unicode=";" horiz-adv-x="508" 
d="M64 498h161v-161h-161v161zM64 249l161 1q10 -86 -2 -155.5t-36.5 -123t-58 -91.5t-64.5 -61q8 48 21 88.5t19.5 74t1 61t-35.5 49.5z" />
    <glyph glyph-name="less" unicode="&#x3c;" 
d="M704 34l-553 494l553 449l-398 -420l302 -331z" />
    <glyph glyph-name="equal" unicode="=" horiz-adv-x="875" 
d="M72 470h598v-72h-598v72zM69 274h598v-72h-598v72z" />
    <glyph glyph-name="greater" unicode="&#x3e;" 
d="M365 968l553 -494l-553 -449l398 420l-302 331z" />
    <glyph glyph-name="question" unicode="?" horiz-adv-x="788" 
d="M25 748l2 158q77 50 121 66q57 21 116 21q104 0 171 -64.5t67 -157.5q0 -40 -13 -80t-33 -74q-9 -14 -86 -121q-50 -70 -72 -127.5t-34 -154.5h-57q2 83 19.5 143t77.5 176q70 113 93 212q19 77 -28.5 122.5t-113.5 52t-122.5 -28t-107.5 -143.5zM196 -5h73v132h-73v-132
z" />
    <glyph glyph-name="at" unicode="@" horiz-adv-x="1878" 
d="M918 564l-72 -246q-57 -197 -57 -234q0 -21 13 -34.5t34 -13.5q44 0 107.5 45t108.5 146.5t45 211.5q0 105 -50.5 194.5t-144 137.5t-205.5 48q-143 0 -265 -76t-193 -217.5t-71 -294.5q0 -142 62.5 -258t176 -175.5t244.5 -59.5q162 0 293 87t203 254h36
q-56 -169 -202 -273.5t-333 -104.5q-231 0 -384.5 154.5t-153.5 391.5q0 163 76.5 303.5t214 220t292.5 79.5q128 0 230.5 -52.5t156.5 -154t54 -216.5q0 -112 -50.5 -223.5t-128 -161.5t-161.5 -50q-48 0 -71.5 22t-23.5 64q0 33 11 89q-85 -102 -140.5 -138.5
t-102.5 -36.5q-44 0 -78 39t-34 105q0 88 58.5 199.5t154.5 180.5q71 51 127 51q41 0 68.5 -21t37.5 -64l21 68zM667 525q-48 0 -98 -50q-72 -73 -125 -202q-38 -93 -38 -148q0 -43 23 -68.5t52 -25.5q37 0 78.5 28.5t86.5 88t66 120.5q35 101 35 163q0 44 -23 69t-57 25z
" />
    <glyph glyph-name="A" unicode="A" horiz-adv-x="823" 
d="M367 1004l516 -1040q71 -140 190 -201q-198 15 -266 135l-267 500h-364l-140 -274q-31 -70 110 -63q-58 -59 -117 -59h-151zM359 766l-157 -303l305 -1z" />
    <glyph glyph-name="B" unicode="B" horiz-adv-x="789" 
d="M5 856q13 9 21 16.5t16 13t17.5 8.5t25.5 3h323q198 -2 264 -81.5t47.5 -198.5t-171.5 -126q187 -24 187 -224q0 -265 -369 -267h-281q-18 0 -30.5 6t-21.5 15t-16 19t-15 18q103 -16 115 37q22 366 -7 723q-3 50 -105 38zM200 524h229q174 0 200 86.5t-26.5 155
t-194.5 68.5h-205zM202 77l224 4q126 -1 182.5 71.5t19.5 185.5t-200 115l-228 1z" />
    <glyph glyph-name="C" unicode="C" horiz-adv-x="716" 
d="M350 800q189 -3 301 -104l-37 -74q-6 -9 -16.5 -16t-23.5 -13t-26.5 -11.5t-24.5 -11.5l35 66q19 44 -91 80.5t-218.5 -1t-149 -154.5t-17.5 -245.5t107 -192t224 -60.5q174 12 311 138q-81 -191 -364 -201q-164 0 -262.5 113t-97.5 281q0 406 350 406z" />
    <glyph glyph-name="D" unicode="D" horiz-adv-x="674" 
d="M-55 764q12 10 25 23t24 13h265q194 0 282 -79.5t87 -331.5q0 -202 -66.5 -292t-283.5 -97h-283q-8 0 -14.5 5t-12 12t-11 14.5t-11.5 13.5q102 0 103 36q12 158 11 318t-13 329q-11 42 -102 36zM136 61h163q145 3 182.5 105.5t37.5 222.5q2 154 -43 252.5t-177 100.5
l-163 1v-682z" />
    <glyph glyph-name="E" unicode="E" horiz-adv-x="951" 
d="M718 1273v-130q0 -6 -6 -15t-14.5 -20t-17.5 -22t-16 -21q7 114 -49 115h-388v-485h198q84 -7 156 -100h-354v-478h504q86 -4 197 128q-19 -81 -97 -152l-83 -63q-96 -65 -132 -237t162 -352q114 -83 281 -82q-16 -2 -37 -4.5t-34 -1.5l-63 2q-190 29 -278 150
q-100 130 -90 284q13 134 73 211h-564q-17 0 -35.5 16t-32.5 32q99 -2 106 61q58 528 6 1048q-14 70 -106 58q6 9 17.5 19t23.5 18.5t23 14.5t16 6h634z" />
    <glyph glyph-name="F" unicode="F" horiz-adv-x="894" 
d="M7 1003h804l-1 -174q-28 83 -60 83q-5 0 -10 -2h-510l-2 -415l344 6q105 -1 164 -110q-192 29 -387 29q-59 0 -117 -3v-492q0 -120 -106 -205q19 36 31.5 73t13.5 79q-14 -14 -29.5 -23.5t-31.5 -15.5q23 43 23 99v490l-2040 29l2038 39q2 102 2 181q0 259 -20 281
q-26 28 -106 51z" />
    <glyph glyph-name="G" unicode="G" horiz-adv-x="918" 
d="M909 356q-22 -163 -61 -227.5t-105 -116.5q-85 -76 -110 -240q-23 100 9 176q-27 -18 -132 -27q-241 1 -367 105t-126 306q0 209 127.5 346.5t315.5 138.5l69 -1q129 -2 197 -57l30 -79q-45 58 -137 74q-117 22 -228 -12q-115 -39 -194.5 -141.5t-85.5 -269.5
q6 -184 122.5 -261.5t257.5 -76.5q248 24 288 208q32 118 -117 105q14 18 28.5 34.5t34.5 16.5z" />
    <glyph glyph-name="H" unicode="H" horiz-adv-x="929" 
d="M231 1043v-545h397l-10 389q0 36 -13 55.5t-31 29t-38 11t-36 1.5q10 7 20 17t20.5 19.5t21 16t20.5 6.5h134l-4 -1264q10 -113 167 -239q-243 100 -254 288l3 592l-396 -3l1 -558h-148l-80 47q31 -2 51 -1t32 5t17.5 10t5.5 14q7 40 15 89.5t13.5 109t8 130.5t-1.5 154
q-217 2 -261 -43q4 132 263 127q-2 49 -2 102t-3 108t-10 111t-22 113q-3 12 -7 21t-15 15.5t-32 10t-57 3.5q21 19 42 38.5t48 19.5h141z" />
    <glyph glyph-name="I" unicode="I" horiz-adv-x="398" 
d="M352 867q-116 1 -114 -39l-2 -737q-2 -40 121 -38q-26 -53 -167 -53q-143 5 -162 53q118 -2 119 42v733q0 40 -110 39q32 52 154 52q121 0 161 -52z" />
    <glyph glyph-name="J" unicode="J" horiz-adv-x="603" 
d="M424 939q-111 6 -111 -33l-1 -829q-1 -94 -137 -159t-503 -78q553 107 544 235v831q-1 33 -118 33q43 62 167 61q107 0 159 -61z" />
    <glyph glyph-name="K" unicode="K" horiz-adv-x="728" 
d="M187 802v-354l51 -47l207 274q92 97 92 260q58 -189 -32 -298l-207 -283q194 -167 294.5 -238t220.5 -116q445 -129 699 240q-160 -340 -479 -347q-220 0 -434 134q-200 118 -412 336v-363h-122q-10 -1 -18 5.5t-15.5 15.5t-14.5 19.5t-15 17.5q80 -9 88 40
q6 67 12 133.5t8 140t-0.5 157.5t-13.5 188q-2 21 -12.5 32t-25 16t-29.5 5t-27 -2l10 10t12.5 11.5t12.5 9t10 3.5h140z" />
    <glyph glyph-name="L" unicode="L" horiz-adv-x="916" 
d="M98 990h147v-1112h413q186 9 330 161q-54 -142 -181 -200q-37 -17 -69 -46t-54.5 -64.5t-34 -73t-7.5 -71.5q-7 22 -13.5 40.5t-8.5 38t3 44.5t20 61h-529l-114 71q64 4 100.5 14t53.5 284t-17 719q-15 78 -137 52z" />
    <glyph glyph-name="M" unicode="M" horiz-adv-x="858" 
d="M1023 -41q-2 -142 137 -247q-215 69 -246 234l2 711l-316 -305l-368 318v-533q27 -104 168 -188q-118 27 -195 95t-70 159v476q2 58 -58 60h-75q7 8 17.5 18.5t22 20t23 16t19.5 6.5h148l367 -318l321 319h111q31 0 93 -62q-46 1 -73.5 -7.5t-27.5 -31.5v-741z" />
    <glyph glyph-name="N" unicode="N" horiz-adv-x="961" 
d="M865 800l-1 -896l-666 735v-501q-2 -72 99 -153q-85 26 -139 81t-52 161v457q-2 58 -43 59h-52q5 7 14 17t19.5 18.5t21 15t16.5 6.5h103l589 -655l-3 550q-8 58 -116 50q6 9 15.5 18.5t20 17.5t22 13.5t20.5 5.5h132z" />
    <glyph glyph-name="O" unicode="O" horiz-adv-x="1067" 
d="M137 506q0 -84 31.5 -157.5t86 -128t127 -86.5t155.5 -32q82 0 155 32t127 86.5t85.5 128t31.5 157.5q0 83 -31.5 156.5t-85.5 128.5t-127 87t-155 32q-83 0 -155.5 -32t-127 -87t-86 -128.5t-31.5 -156.5zM6 508q0 99 41.5 186.5t113.5 153t168 103t205 37.5
q108 0 204 -37.5t167 -103t112.5 -153t41.5 -186.5q0 -100 -41.5 -187.5t-112.5 -152.5t-167 -102.5t-204 -37.5q-109 0 -205 37.5t-168 102.5t-113.5 152.5t-41.5 187.5z" />
    <glyph glyph-name="P" unicode="P" horiz-adv-x="700" 
d="M413 800q243 0 243 -193q-2 -241 -245 -241h-222v-317q-8 -131 -295 -216q207 109 207 242v622q0 22 -11 34.5t-27 18.5t-33 6.5t-30 -0.5q7 12 20.5 28t26.5 16h366zM189 426l191 -1q190 0 190 176q2 148 -194 148h-184z" />
    <glyph glyph-name="Q" unicode="Q" horiz-adv-x="1067" 
d="M137 501q0 -84 31.5 -157.5t86 -128t127 -86.5t155.5 -32q58 0 111 15.5t99 44.5q-29 18 -61.5 34.5t-61 39t-49.5 54.5t-27 82q35 -41 62 -64t49.5 -34t41.5 -15t38 -7t38.5 -9t42.5 -22q54 55 85 128t31 157q0 83 -31.5 156.5t-85.5 128.5t-127 87t-155 32
q-83 0 -155.5 -32t-127 -87t-86 -128.5t-31.5 -156.5zM6 503q0 99 41.5 186.5t113.5 153t168 103t205 37.5q108 0 204 -37.5t167 -103t112.5 -153t41.5 -186.5q0 -103 -43.5 -191.5t-118.5 -154.5q27 -27 46 -71.5t26.5 -97t2 -108.5t-27.5 -105q-5 70 -14 121t-22.5 89
t-33.5 66t-47 52q-62 -36 -138.5 -58t-154.5 -22q-109 0 -205 37.5t-168 102.5t-113.5 152.5t-41.5 187.5z" />
    <glyph glyph-name="R" unicode="R" horiz-adv-x="728" 
d="M0 757q12 11 24.5 26t23.5 17h391q219 -1 219 -200q4 -238 -332 -236q251 -305 596 -405.5t560 266.5q-117 -347 -420 -352q-220 0 -433 127t-409 364l-29 2v-366h-135q-22 0 -54 46h24t22.5 2t18 7t9.5 15q11 84 17 171.5t7.5 172.5t-2 165t-10.5 148q-12 38 -88 30z
M189 426h191q208 2 208 176q-2 140 -212 140h-187v-316z" />
    <glyph glyph-name="S" unicode="S" horiz-adv-x="539" 
d="M296 952l46 -2q61 -9 75 -53q2 -42 -48 -43q-62 28 -103 25q-71 -3 -113.5 -28.5t-77.5 -85.5q-44 -85 -38.5 -174t81.5 -158q118 -109 233 -204q111 -100 120 -234v-52q-4 -112 -77 -224q-59 -84 -191 -161q-58 -29 -141 -35l-67 -2q-46 2 -81 20q113 -18 225 30
q131 56 202 185.5t35 253.5q-11 54 -71 108q-199 135 -277 251q-42 67 -51 128q-7 33 -8 76l2 65q40 207 189 276q58 31 136 38z" />
    <glyph glyph-name="T" unicode="T" horiz-adv-x="943" 
d="M36 729v93l864 -1l-1 -94q-2 -23 -66 -76q1 38 -8.5 64t-36.5 28l-315 1v-798q4 -47 17.5 -80.5t30 -56.5t33 -37t25.5 -22q-31 16 -65 30t-63 36.5t-49.5 57t-23.5 91.5v779l-214 -1q-24 -1 -37.5 -9.5t-21.5 -21.5t-12 -29t-8 -31q-49 52 -49 77z" />
    <glyph glyph-name="U" unicode="U" horiz-adv-x="759" 
d="M18 792h150v-497q-4 -215 228 -218q212 6 209 211v425q-1 117 -114 213q195 -70 195 -161v-478q-1 -277 -297 -286q-338 -4 -335 294v397q0 47 -111 48q52 52 75 52z" />
    <glyph glyph-name="V" unicode="V" horiz-adv-x="431" 
d="M-428 1001q235 -8 312 -159l343 -703l277 526q52 91 -78 81q7 9 14 19.5t14.5 18.5t17.5 13.5t24 5.5h179l-462 -861l-435 889q-66 112 -206 170z" />
    <glyph glyph-name="W" unicode="W" horiz-adv-x="1706" 
d="M-23 1175q274 -9 369 -187l399 -820l136 270l-119 244q-58 147 -240 225q231 8 345 -133l93 -191l103 200q51 112 -91 95q10 8 20 19.5t20.5 22t20.5 17.5t21 7l188 -2l-247 -479l150 -269l315 611q55 89 -87 74q10 11 21.5 23t24 21.5t25.5 15.5t25 6h168l-517 -998
l-203 366l-194 -377l-506 1041q-77 130 -240 198z" />
    <glyph glyph-name="X" unicode="X" horiz-adv-x="779" 
d="M-23 1000q235 -8 312 -159l158 -309l185 224q12 32 -74 44h206l-280 -343l234 -457h-185q59 14 53 38l-168 338l-308 -376h-160q85 29 121 67l305 380l-193 383q-66 112 -206 170z" />
    <glyph glyph-name="Y" unicode="Y" horiz-adv-x="715" 
d="M175 -233q174 144 174 220v373l-269 404q-54 105 -214 174q185 -3 266 -125l253 -359l131 224q39 57 -77 57q4 5 14.5 11.5t21.5 12.5t21 10t14 5h155l-228 -396l-1 -387q1 -109 -261 -224z" />
    <glyph glyph-name="Z" unicode="Z" horiz-adv-x="843" 
d="M0 800h666l-466 -722h345q110 -2 201 125q-86 -203 -257 -203h-418q-11 0 -20 6t-17 14.5t-16.5 17.5t-17.5 16q68 -1 114 45l406 634h-411q-66 -1 -69 -70q-40 42 -39 65z" />
    <glyph glyph-name="bracketleft" unicode="[" horiz-adv-x="662" 
d="M431 1000l-117 -58h-167v-1179h167l121 -63h-403q95 662 0 1300h399z" />
    <glyph glyph-name="backslash" unicode="\" horiz-adv-x="1087" 
d="M1096 -157q-22 15 -54.5 36t-68.5 40t-72.5 32t-64.5 12q-75 199 -170 398.5t-201.5 395.5t-221 384.5t-228.5 365.5q25 -13 59.5 -30t69 -31.5t65.5 -23t51 -4.5q75 -206 172.5 -410.5t207.5 -403.5t226.5 -390t229.5 -371z" />
    <glyph glyph-name="bracketright" unicode="]" horiz-adv-x="662" 
d="M188 -337l117 58h167l-2 1179h-167l-121 63h403q-94 -662 2 -1300h-399z" />
    <glyph glyph-name="asciicircum" unicode="^" 
d="M81 818l494 553l449 -553l-420 398l-331 -302z" />
    <glyph glyph-name="underscore" unicode="_" 
d="M-12 -154l1123 2l-75 -104h-1100z" />
    <glyph glyph-name="grave" unicode="`" 
d="M632 1070q-160 142 -175 249h223q-46 -11 -66 -22q-68 -44 -31 -113l49 -114v0z" />
    <glyph glyph-name="a" unicode="a" horiz-adv-x="941" 
d="M485 1004l516 -1040q71 -140 190 -201q-198 15 -266 135l-267 500h-364l-140 -274q-31 -70 110 -63q-58 -59 -117 -59h-151zM477 766l-157 -303l305 -1z" />
    <glyph glyph-name="b" unicode="b" horiz-adv-x="905" 
d="M21 1011h462q176 -9 259.5 -100t61 -201t-178.5 -166q192 -55 198 -246q-30 -301 -414 -298h-398q106 38 120 106v408q-34 12 -112 -17q41 84 111 84v142v206q7 48 -109 82zM224 585h316q112 7 166 98.5t-15.5 164t-171.5 81.5h-292zM226 86l250 4q175 18 235.5 87.5
t27 177.5t-202.5 150l-312 1z" />
    <glyph glyph-name="c" unicode="c" horiz-adv-x="716" 
d="M350 800q189 -3 301 -104l-42 -83l-86 -43l35 66q19 44 -91 80.5t-208 -7.5t-149 -154.5t-23 -237.5t107 -192t219 -62q174 12 311 138q-81 -191 -364 -199q-164 4 -258.5 117.5t-101.5 274.5q33 365 350 406z" />
    <glyph glyph-name="d" unicode="d" horiz-adv-x="645" 
d="M-84 764q12 10 25 23t24 13h265q194 0 282 -79.5t87 -331.5q0 -202 -66.5 -292t-283.5 -97h-283q-8 0 -14.5 5t-12 12t-11 14.5t-11.5 13.5q102 0 103 36q12 158 11 318t-13 329q-11 42 -102 36zM107 61h163q145 3 182.5 105.5t37.5 222.5q2 154 -43 252.5t-177 100.5
l-163 1v-682z" />
    <glyph glyph-name="e" unicode="e" horiz-adv-x="801" 
d="M87 800h468v-93l-53 -77l3 37q9 64 -95 63h-207v-262h219q56 -10 92 -70h-314v-320h345q106 8 201 125q-47 -101 -103 -147.5t-154 -55.5h-402l-87 54q69 -5 91.5 20t27.5 186t1 399q-2 108 -108 87z" />
    <glyph glyph-name="f" unicode="f" horiz-adv-x="733" 
d="M7 799h678l-1 -147q-27 82 -59 68h-430l-1 -350l289 6q89 -1 139 -93q-210 31 -426 22l1 -402q5 -110 -111 -202q35 119 28 202l-1 406l-1 57q6 366 -15.5 390t-89.5 43z" />
    <glyph glyph-name="g" unicode="g" horiz-adv-x="918" 
d="M768 347l2 -88q-1 -76 -23 -135t-92 -118q-42 -50 -39 -128q-20 34 -16 80q-66 -29 -154 -37q-207 5 -318 108.5t-111 292.5q0 205 116 338t267 137l59 -1q112 -2 171 -56l26 -77q-39 57 -119 72q-101 22 -197 -11q-99 -39 -159 -134q-78 -105 -78 -269
q14 -184 116.5 -263t243.5 -68q178 24 235 213q8 69 -3.5 89t-105.5 26l48 28z" />
    <glyph glyph-name="h" unicode="h" horiz-adv-x="794" 
d="M-7 797l154 11q34 -5 30 -436l277 1l1 328q4 105 -74 121l125 11q23 -24 20 -398v-498q9 -94 140 -200q-204 84 -212 242l1 328l-275 -1l1 -399q11 -50 -29 -67l-59 2l-93 24q95 3 98 54l-1 390q-71 12 -182 -33q81 84 181 90q7 363 -15 387t-88 43z" />
    <glyph glyph-name="i" unicode="i" horiz-adv-x="435" 
d="M353 747q-115 1 -114 -41l-1 -543q-3 -41 119 -39q-26 -56 -167 -56q-142 5 -161 56q117 -2 118 43v539q0 42 -110 41q33 54 156 54q119 0 160 -54z" />
    <glyph glyph-name="j" unicode="j" horiz-adv-x="603" 
d="M420 968q-87 -7 -107 -44l-1 -847q9 -90 -132 -157t-508 -80q553 107 544 235l1 850q-8 41 -114 36q8 36 162 38q140 0 155 -31z" />
    <glyph glyph-name="k" unicode="k" horiz-adv-x="728" 
d="M15 768l33 34h139l1 -369q352 199 415 368q12 -124 -55.5 -210t-259.5 -191q214 -215 310.5 -279t233.5 -126q232 -110 525 4q-86 -72 -179 -99q-71 -16 -139 -18q-212 33 -340 85q-190 102 -279 173.5t-215 224.5l-14 1v-364h-182q92 27 92 73v653q-2 55 -86 40z" />
    <glyph glyph-name="l" unicode="l" horiz-adv-x="694" 
d="M85 921h57q27 -3 33 -46l1 -602h321q95 7 180 112q-42 -91 -92.5 -132.5t-138.5 -49.5h-361l-78 48q62 -4 82.5 18t25 166.5t0.5 358.5q5 115 -97 78z" />
    <glyph glyph-name="m" unicode="m" horiz-adv-x="1176" 
d="M1039 137q-3 -115 137 -188q-216 37 -231 254v464l-330 -315l-368 318v-533q27 -104 168 -188q-118 27 -195 95t-70 159v476q2 58 -58 60h-75q7 8 17.5 18.5t22 20t23 16t19.5 6.5h148l367 -318l321 319h111q31 0 93 -62q-46 1 -73.5 -7.5t-27.5 -31.5z" />
    <glyph glyph-name="n" unicode="n" horiz-adv-x="961" 
d="M733 799h132l-1 -895l-666 728v-494q-2 -72 99 -153q-85 26 -140 91t-51 151v457q-2 58 -43 59h-52l59 52h120l576 -632v533q1 68 -100 43z" />
    <glyph glyph-name="o" unicode="o" horiz-adv-x="877" 
d="M97 446q0 -63 24 -118.5t65 -96.5t95.5 -65t116.5 -24t117 24t96 65t64.5 96.5t23.5 118.5t-23.5 118.5t-64.5 97t-96 65.5t-117 24t-116.5 -24t-95.5 -65.5t-65 -97t-24 -118.5zM-2 448q0 75 31.5 141t85.5 115t126.5 77.5t154.5 28.5t154 -28.5t126 -77.5t85 -115
t31 -141t-31 -141t-85 -115t-126 -77.5t-154 -28.5t-154.5 28.5t-126.5 77.5t-85.5 115t-31.5 141z" />
    <glyph glyph-name="p" unicode="p" horiz-adv-x="700" 
d="M15 768l33 34h391q111 -3 161 -51q56 -53 56 -144q0 -60 -25 -106.5t-73 -78.5q-53 -49 -214 -57l-153 1v-364q2 -72 -297 -169q217 137 207 242v653q-2 55 -86 40zM189 426q233 -11 316 28.5t83 147.5q1 92 -65 123.5t-147 28.5h-187v-328z" />
    <glyph glyph-name="q" unicode="q" horiz-adv-x="907" 
d="M116 407q0 -71 26.5 -132.5t72 -108t107 -73t130.5 -26.5q49 0 93.5 13.5t82.5 37.5q-24 15 -51 28.5t-51 32.5t-42 46t-23 69q29 -35 52 -54t42 -28.5t35 -12.5t32 -5.5t32 -7.5t36 -19q45 47 71 108t26 132q0 70 -26.5 131.5t-72 107.5t-106.5 73t-130 27t-130.5 -27
t-107 -73t-72 -107.5t-26.5 -131.5zM6 408q0 84 35 157t95 128t140.5 86.5t172.5 31.5q91 0 171.5 -31.5t140.5 -86.5t94.5 -128t34.5 -157q0 -86 -36.5 -160.5t-99.5 -129.5q23 -23 39 -60t22.5 -81.5t1.5 -91t-23 -88.5q-5 58 -12 101t-18.5 75t-28.5 55.5t-40 43.5
q-51 -30 -115.5 -48.5t-130.5 -18.5q-92 0 -172.5 31.5t-140.5 86.5t-95 128t-35 157z" />
    <glyph glyph-name="r" unicode="r" horiz-adv-x="660" 
d="M0 757q12 11 24.5 26t23.5 17h391q219 -1 219 -200q2 -259 -290 -257q92 -201 268 -338q-155 -5 -228 89l-176 249h-38l-3 -343h-135q-22 0 -54 46h24t22.5 2t18 7t9.5 15q11 84 17 171.5t7.5 172.5t-2 165t-10.5 148q-12 38 -88 30zM189 426h191q197 -3 197 173
q0 125 -200 132h-187z" />
    <glyph glyph-name="s" unicode="s" horiz-adv-x="539" 
d="M324 1126l46 -2q61 -9 75 -53q2 -42 -48 -43q-62 28 -103 25q-71 -3 -113.5 -28.5t-77.5 -85.5q-44 -85 -38.5 -174t81.5 -158q118 -109 233 -204q111 -100 120 -234v-52q-4 -112 -77 -224q-59 -84 -191 -161q-58 -29 -141 -35l-67 -2q-46 2 -81 20q113 -18 225 30
q131 56 202 185.5t35 253.5q-11 54 -71 108q-199 135 -277 251q-42 67 -51 128q-7 33 -8 76l2 65q40 207 189 276q58 31 136 38z" />
    <glyph glyph-name="t" unicode="t" horiz-adv-x="892" 
d="M32 736l1 89h841l-2 -85q-2 -25 -70 -81q1 42 -9.5 67.5t-39.5 27.5h-310v-519h-113q-28 7 -44.5 23.5t-26.5 27.5h34.5t33.5 5t24.5 18.5t8.5 40.5v404h-191q-26 -1 -40.5 -10.5t-23 -23.5t-12.5 -31.5t-8 -33.5q-53 54 -53 81z" />
    <glyph glyph-name="u" unicode="u" horiz-adv-x="784" 
d="M99 744h137v-449q-4 -215 208 -218q193 6 190 211v425q-1 117 -104 213q178 -70 178 -161v-478q-1 -277 -271 -286q-308 -4 -305 294v349q0 47 -101 48q47 52 68 52z" />
    <glyph glyph-name="v" unicode="v" horiz-adv-x="557" 
d="M-308 677q204 -8 271 -139l206 -426l240 457q38 84 -68 70l61 49h155l-400 -746l-286 587q-58 97 -179 148z" />
    <glyph glyph-name="w" unicode="w" horiz-adv-x="1205" 
d="M416 -2l-246 688q-24 78 -156 70l59 47l145 -1l214 -622l198 580l207 -571l174 523q22 46 -117 37l42 55h168l-267 -806l-205 561q-93 -243 -216 -561z" />
    <glyph glyph-name="x" unicode="x" horiz-adv-x="779" 
d="M-23 1000q235 -8 312 -159l158 -309l189 225q8 31 -78 43h201l-272 -340l231 -465l-185 1q59 18 53 42l-171 339l-314 -380l-151 1q85 31 121 69l305 380l-193 383q-66 112 -206 170z" />
    <glyph glyph-name="y" unicode="y" horiz-adv-x="614" 
d="M151 -223q159 138 159 210v357l-176 276q-49 100 -196 167q170 -4 243 -120l162 -232l109 188q37 54 -70 54q4 5 13 11t19.5 11.5t19.5 10t13 5.5h142l-199 -353l-1 -371q2 -104 -238 -214z" />
    <glyph glyph-name="z" unicode="z" horiz-adv-x="843" 
d="M87 800h579l-466 -722h345q106 8 201 125q-47 -101 -103 -147.5t-154 -55.5h-402l-87 54q69 -5 114 45l406 634h-411q-47 5 -97 -50z" />
    <glyph glyph-name="braceleft" unicode="{" horiz-adv-x="981" 
d="M714 -414v-28q-129 18 -209.5 105t-80.5 196q0 52 17.5 126t17.5 112q0 58 -46.5 106.5t-129.5 59.5v31q83 11 129.5 59.5t46.5 106.5q0 37 -17.5 111.5t-17.5 127.5q0 107 80.5 194.5t209.5 104.5v-27q-91 -22 -133 -71t-42 -112q0 -40 17.5 -116t17.5 -126
q0 -79 -57 -152.5t-171 -113.5q112 -41 170 -115.5t58 -153.5q0 -51 -17.5 -126t-17.5 -116q0 -63 42 -112t133 -71z" />
    <glyph glyph-name="arc1" unicode="|" horiz-adv-x="76" 
d="M-1437 766q1496 642 2203 -88q-759 604 -2203 88z" />
    <glyph glyph-name="braceright" unicode="}" horiz-adv-x="981" 
d="M416 -343q42 49 42 112q0 41 -17.5 116t-17.5 126q0 79 58 153.5t170 115.5q-114 40 -171 113.5t-57 152.5q0 50 17.5 126t17.5 116q0 63 -42 112t-133 71v27q129 -17 209.5 -104.5t80.5 -194.5q0 -53 -17.5 -127.5t-17.5 -111.5q0 -58 46.5 -106.5t129.5 -59.5v-31
q-83 -11 -129.5 -59.5t-46.5 -106.5q0 -38 17.5 -112t17.5 -126q0 -109 -80.5 -196t-209.5 -105v28q91 22 133 71z" />
    <glyph glyph-name="asciitilde" unicode="~" horiz-adv-x="2870" 
d="M769 629l-23.5 13t-61.5 29.5t-88 31t-102 16.5q-88 3 -156.5 -22t-114.5 -68.5t-67.5 -100t-14.5 -115.5t44 -114.5t109 -97.5q82 -45 193.5 -62.5t236.5 -6.5q138 12 271 45.5t264 77.5t260 93.5t259 95t261 82t266 53.5q-37 41 -80 60.5t-88 26.5t-91.5 6.5t-90.5 0.5
q-94 2 -195.5 -27.5t-207 -73t-213 -92t-214.5 -85.5q-48 -17 -109.5 -35.5t-128.5 -33t-136.5 -23t-134 -5.5t-120 20t-95.5 54q125 -31 244 -24t234 38t227.5 78t225 96t225.5 92.5t230 66.5q92 18 180 22.5t167 -10t146.5 -50t118.5 -95.5q83 6 155.5 -14t128 -57
t89 -87.5t39 -106t-21.5 -111.5t-94 -104q33 44 44 93t3 97t-33 91t-64.5 75.5t-91.5 51t-114 16.5q39 -57 44 -121.5t-15.5 -124.5t-62.5 -110t-95.5 -78.5t-115.5 -30t-123 35.5q44 1 90 2.5t88.5 14t79 41t63.5 82.5q41 83 32 153.5t-53 131.5q-116 -17 -225 -44
t-212.5 -60.5t-203.5 -71.5t-199 -76t-197.5 -74t-199.5 -66q-114 -34 -226.5 -53.5t-221.5 -20t-213.5 21t-201.5 70.5q-71 37 -122.5 87t-74 110t-13 129.5t60.5 144.5q36 53 94 86t126 48t138.5 12.5t130.5 -19.5t102.5 -48t55.5 -73z" />
    <glyph glyph-name="exclamdown" unicode="&#xa1;" horiz-adv-x="575" 
d="M316 824l34 -59l46 -597q-12 -107 81 -93q-6 -10 -16.5 -23t-22.5 -25t-25 -20.5t-24 -8.5h-82zM355 887h-39v103h39v-103z" />
    <glyph glyph-name="cent" unicode="&#xa2;" horiz-adv-x="716" 
d="M271 865l86 -192q136 -12 221 -85l-37 -70l-77 -37l31 56q-19 48 -132 61v-382l-92 382q-124 -30 -167.5 -129t-18 -202t93.5 -150q33 -31 92 -44v378l98 -389q172 20 274 108q-49 -159 -276 -170v-233l-96 239q-112 16 -181 95q-84 96 -90 232q0 289 271 334v198z" />
    <glyph glyph-name="sterling" unicode="&#xa3;" horiz-adv-x="897" 
d="M0 -43q199 132 239 202.5t40 182.5q0 60 -11 135q-71 -1 -219 -39q99 66 97 109q53 -4 113 -4q-16 92 -16 153q0 130 87.5 217t216.5 87q112 0 207 -81v-113h-131q87 47 21.5 91t-113.5 44q-74 0 -115 -45t-41 -131q0 -61 21 -222q147 1 251 40q-90 -84 -83 -117
q-72 8 -163 11q-4 -97 -15.5 -158t-34.5 -109t-92 -124q164 13 247 -30.5t320 135.5q-127 -147 -143 -163q-41 -42 -71 -59q-19 -10 -45 -10q-43 0 -134.5 35.5t-137.5 35.5q-68 0 -295 -73z" />
    <glyph glyph-name="yen" unicode="&#xa5;" horiz-adv-x="984" 
d="M241 -233q211 205 214 312v198l-564 47l49 32l515 28v89l-564 35l49 28l515 39v35l-329 575q-66 150 -260 248q224 -4 323 -178l307 -511l159 319q47 81 -94 81q6 7 18 16.5t25.5 18t25.5 14.5t17 7h188l-276 -564v-62l425 -28l-34 -32l-391 -42v-88l425 -19l-41 -33
l-384 -55l-1 -191q1 -155 -317 -319z" />
    <glyph glyph-name="Rotor" unicode="&#xa7;" horiz-adv-x="1556" 
d="M686 1458q730 -34 767 -795h-662q-52 -30 -73.5 -75t-23.5 -99q-11 72 -35.5 115.5t-63.5 57.5h-293q40 -481 694 -599q-218 -76 -471.5 0t-376 281t-118.5 526l571 -1q18 6 33.5 21.5t27 37t19.5 47.5t13 55q4 -33 11.5 -62t19.5 -51t28.5 -34.5t37.5 -13.5h380
q-91 440 -730 550q28 12 60.5 19.5t65 11.5t63.5 5.5t56 0.5v2z" />
    <glyph glyph-name="copyright" unicode="&#xa9;" horiz-adv-x="1556" 
d="M744 1070q189 -3 301 -104l-42 -83l-86 -43l35 66q19 44 -91 80.5t-217 -6.5t-149 -154.5t-14 -238.5t107 -192t219 -62q174 12 311 138q-81 -191 -364 -199q-164 4 -262 110.5t-98 281.5q1 365 350 406zM94 683q0 99 24 191t67.5 172t105 145.5t136 112.5t160 72.5
t178.5 25.5q92 0 178 -25.5t160.5 -72.5t135.5 -112.5t104.5 -145.5t67.5 -172t24 -191t-24 -191t-67.5 -172t-104.5 -145.5t-135.5 -112.5t-160.5 -72.5t-178 -25.5q-93 0 -178.5 25.5t-160 72.5t-136 112.5t-105 145.5t-67.5 172t-24 191zM197 680q0 -128 45.5 -240.5
t124.5 -196.5t184 -133t225 -49q80 0 154 22t138.5 62.5t117 97t90.5 125.5t58.5 148t20.5 164t-20.5 164t-58.5 148t-90.5 125.5t-117 97t-138.5 62.5t-154 22q-120 0 -225 -49t-184 -133t-124.5 -196.5t-45.5 -240.5z" />
    <glyph glyph-name="registered" unicode="&#xae;" horiz-adv-x="1556" 
d="M329 873q8 9 17 20t17 13h277q155 -1 155 -153q3 -182 -235 -181q177 -233 421.5 -310t396.5 204q-83 -266 -297 -270q-156 0 -307 97.5t-289 278.5l-21 2v-280h-95q-16 0 -39 35q17 0 33.5 1.5t19.5 16.5q8 64 12 131.5t5 132.5t-1.5 126t-7.5 113q-8 29 -62 23z
M463 620h135q147 1 147 134q-1 108 -150 108h-132v-242zM179 568q0 -126 50.5 -237t138.5 -193.5t205 -130t251 -47.5q89 0 171.5 21.5t154 61.5t130.5 95t101 123t65 145.5t23 161.5t-23 161.5t-65 145.5t-101 123t-130.5 95t-154 61.5t-171.5 21.5q-134 0 -251 -48
t-205 -130.5t-138.5 -193t-50.5 -236.5zM120 564q0 93 25.5 178.5t71.5 160t111 136t144 105t169.5 67.5t188.5 24t189.5 -24t170.5 -67.5t144 -105t111 -136t71.5 -160t25.5 -178.5q0 -92 -25.5 -178t-71.5 -160.5t-111 -135.5t-144 -104.5t-170.5 -67.5t-189.5 -24
t-188.5 24t-169.5 67.5t-144 104.5t-111 135.5t-71.5 160t-25.5 178.5z" />
    <glyph glyph-name="degree" unicode="&#xb0;" horiz-adv-x="811" 
d="M257 1089q66 0 112.5 -46.5t46.5 -112.5t-46.5 -112.5t-112.5 -46.5t-112.5 46.5t-46.5 112.5t46.5 112.5t112.5 46.5zM260 1039q-44 0 -75 -30.5t-31 -74.5t31 -75t75 -31q43 0 74 31t31 75t-30.5 74.5t-74.5 30.5z" />
    <glyph glyph-name="O3" unicode="&#xd2;" horiz-adv-x="988" 
d="M93 453q0 -74 28 -139.5t76.5 -114.5t113.5 -77.5t138 -28.5t137.5 28.5t112.5 77.5t76 114.5t28 139.5q0 73 -28 138.5t-76 114.5t-112.5 77.5t-137.5 28.5t-138 -28.5t-113.5 -77.5t-76.5 -114.5t-28 -138.5zM-23 454q0 88 37 166t100.5 136t149 91.5t182.5 33.5
q96 0 181 -33.5t148.5 -91.5t100 -136t36.5 -166t-36.5 -165.5t-100 -135.5t-148.5 -91.5t-181 -33.5q-97 0 -182.5 33.5t-149 91.5t-100.5 135.5t-37 165.5z" />
    <glyph glyph-name="germandbls" unicode="&#xdf;" horiz-adv-x="1130" 
d="M48 509v29q47 16 90 43q-1 37 -1 58q0 122 84 191.5t200 69.5q75 0 118.5 -40t43.5 -98q0 -50 -28 -98t-82.5 -89t-54.5 -60q0 -9 16 -26q33 -36 86 -76q94 -71 126 -123t32 -104q0 -86 -64 -148.5t-157 -62.5q-67 0 -147 34q18 66 27 139h41q5 -57 34 -86.5t72 -29.5
q41 0 70 30t29 76q0 43 -25.5 85t-105.5 105q-99 80 -116 103q-18 23 -18 41q0 28 48 77q73 72 96 116q18 34 18 73q0 44 -30.5 74t-79.5 30q-43 0 -71 -20t-41.5 -52.5t-17.5 -113.5q-1 -23 -2 -228v-189q0 -180 4 -255q-56 7 -94 7t-108 -7v37q65 14 74 20t13.5 14.5
t5.5 30.5q3 33 4 206l1 222q-42 -1 -90 -5z" />
    <glyph glyph-name="E3" unicode="&#xe7;" horiz-adv-x="1161" 
d="M322 1498q184 -10 313.5 -70t262.5 -195q150 -184 196 -436l-48 144q-69 152 -180 268q-148 147 -376 216q-121 35 -272 28q-127 1 -261 -55t-289 -201q165 201 321 250t333 51zM69 963h538v-99l-38 -55q6 86 -47 81l-328 5l1 -407h220q62 -6 103 -71h-315l-9 -65v-352
h293q111 -3 237 123q-45 -117 -158 -196t-119 -215q208 62 411 235q63 62 117 144.5t89 191.5l35 116q-37 -180 -79 -266.5t-132 -197.5q-121 -129 -254 -198q-69 -42 -161 -69.5t-261 -30.5q-188 2 -377 87q-180 91 -293 250q-11 23 -15 46q233 -258 504 -313
q205 -39 401 2q-22 109 12 196h-378l-69 47q89 -2 98.5 46t12.5 91q14 371 9 685q-6 59 -18 103q-6 30 -51 35l-51 -4z" />
    <glyph glyph-name="E4" unicode="&#xe8;" horiz-adv-x="811" 
d="M597 914v-108q0 -5 -5 -12.5t-12.5 -16.5t-15.5 -18.5t-14 -17.5q6 95 -42 95l-295 1l-1 -331l129 -1q73 -5 136 -84l-265 1l-1 -323l404 1q74 -4 170 106q-16 -67 -83 -127l-72 -52q-83 -53 -115 -197t140 -293q99 -69 245 -69q-14 -1 -32 -3t-29 -1l-55 2
q-166 23 -242 125q-87 107 -78 236q12 111 62 175h-454q-16 0 -32 13t-28 27q86 -2 93 49q51 367 7 727q-13 59 -94 49q6 7 16 15.5t20.5 15.5t19.5 12t14 5z" />
    <glyph glyph-name="E5" unicode="&#xe9;" horiz-adv-x="637" 
d="M96 943h478v-115l-41 -59q6 98 -28 98h-308v-381h179q83 -4 125 -69h-304v-392h263q140 15 235 117q-45 -81 -76.5 -110t-60 -50t-73 -73.5t-57.5 -174.5q-40 149 4 202h-353l-76 49q93 -13 102 54q28 410 4 820q-9 31 -65 24l-32 -4z" />
    <glyph glyph-name="E6" unicode="&#xea;" horiz-adv-x="697" 
d="M87 800h468v-93l-53 -77l3 37q9 64 -95 63h-207v-262h219q56 -10 92 -70h-314v-320h550v-78h-663l-87 54q69 -5 91.5 20t27.5 186t1 399q-2 108 -108 87z" />
    <glyph glyph-name="E7" unicode="&#xeb;" horiz-adv-x="760" 
d="M112 818h559v-100l-47 -51q8 85 -33 85h-361v-329h210q97 -4 145 -60h-355v-341h308q164 14 275 102q-53 -70 -89.5 -94.5t-69.5 -43.5t-85.5 -64.5t-67.5 -150.5q-48 129 5 174h-415l-88 44q109 -12 119 46q33 355 5 710q-10 28 -76 22l-38 -4z" />
    <glyph glyph-name="L3" unicode="&#xee;" horiz-adv-x="916" 
d="M281 1000l-2 -790h299q156 -2 277 117q-45 -112 -151 -157q-32 -13 -59 -36t-46 -50.5t-28.5 -57t-6.5 -55.5q-6 17 -11.5 31t-7 30t2.5 35.5t17 47.5h-395q-9 0 -20.5 7t-24.5 16t-26 19t-25 18q53 3 84.5 10.5t45.5 221.5t-13 484q-8 21 -22 30.5t-30.5 12.5t-33 1.5
t-29.5 -4.5q10 9 21 20.5t21.5 22.5t20.5 18.5t18 7.5h124z" />
    <glyph glyph-name="idieresis" unicode="&#xef;" horiz-adv-x="759" 
d="M134 978l-2 -993h298q157 -3 278 146q-45 -139 -151 -197q-31 -16 -58 -45t-46.5 -63.5t-29 -71.5t-6.5 -70q-6 22 -11.5 39.5t-7 37t2.5 44t17 60.5h-395q-9 0 -20.5 8.5t-24.5 20t-26 24.5t-25 22q53 4 84.5 13.5t45 278.5t-12.5 609q-8 26 -22 38t-30.5 16t-33 1.5
t-29.5 -5.5q10 11 20.5 26t21 28.5t20.5 23t18 9.5h125z" />
    <glyph glyph-name="T3" unicode="&#xf0;" horiz-adv-x="892" 
d="M36 855v100l923 -1l-1 -101q-2 -25 -70 -81q1 42 -9.5 69.5t-39.5 29.5l-336 1v-854q4 -50 18 -85.5t32 -60t35.5 -39.5t27.5 -24q-33 17 -69.5 32.5t-67.5 39t-52.5 61t-25.5 97.5v833l-228 -1q-26 -1 -40.5 -10t-23 -23t-12.5 -31t-8 -33q-53 54 -53 81z" />
    <glyph glyph-name="uni037E" unicode="&#x37e;" horiz-adv-x="450" 
d="M177 432q28 0 47.5 -19t19.5 -47t-19.5 -47.5t-47.5 -19.5q-27 0 -47 20t-20 47q0 28 19.5 47t47.5 19zM114 51l-17 21q37 43 66 93q41 -14 65 -46.5t24 -70.5q0 -108 -117 -210l-24 29q68 70 68 133q0 24 -14 39.5t-31 15.5q-7 0 -20 -4z" />
    <glyph glyph-name="quoteleft" unicode="&#x2018;" horiz-adv-x="401" 
d="M93 805l-21 113q-9 46 -9 62q0 25 10 36t28 11q16 0 27 -11t11 -31q0 -14 -10 -68l-20 -112h-16z" />
    <glyph glyph-name="quoteright" unicode="&#x2019;" horiz-adv-x="401" 
d="M250 802l-20 106l-8 43q-1 10 -1 19q0 22 10 32.5t27 10.5q16 0 26 -10.5t10 -28.5q0 -30 -6 -66l-21 -106h-17z" />
    <glyph glyph-name="quotedblleft" unicode="&#x201c;" horiz-adv-x="401" 
d="M93 805l-21 113q-9 46 -9 62q0 25 10 36t28 11q16 0 27 -11t11 -31q0 -14 -10 -68l-20 -112h-16zM250 802l-20 106l-8 43q-1 10 -1 19q0 22 10 32.5t27 10.5q16 0 26 -10.5t10 -28.5q0 -30 -6 -66l-21 -106h-17z" />
    <glyph glyph-name="quotedblright" unicode="&#x201d;" horiz-adv-x="401" 
d="M93 805l-21 113q-9 46 -9 62q0 25 10 36t28 11q16 0 27 -11t11 -31q0 -14 -10 -68l-20 -112h-16zM250 802l-20 106l-8 43q-1 10 -1 19q0 22 10 32.5t27 10.5q16 0 26 -10.5t10 -28.5q0 -30 -6 -66l-21 -106h-17z" />
    <glyph glyph-name="dagger" unicode="&#x2020;" horiz-adv-x="961" 
d="M298 1544q35 -16 63 -37.5t58.5 -41t68.5 -33t92 -13.5q-96 -152 -61 -418q190 -40 252 41q14 -54 45.5 -100.5t88.5 -82.5q-196 102 -386 64q-47 -698 71 -1352q-63 -9 -106.5 -31.5t-73.5 -54.5t-49.5 -71.5t-35.5 -81.5q147 896 115 1588q-183 36 -423 -81
q17 24 32 48t25.5 50t15 53.5t1.5 58.5q166 -90 349 -51q44 272 -142 546z" />
    <glyph glyph-name="bullet" unicode="&#x2022;" horiz-adv-x="725" 
d="M450 595q0 -70 -49.5 -119.5t-119.5 -49.5t-119.5 49.5t-49.5 119.5t49.5 119.5t119.5 49.5t119.5 -49.5t49.5 -119.5z" />
    <glyph glyph-name="trademark" unicode="&#x2122;" horiz-adv-x="1661" 
d="M21 1218l-1 113h603l2 -102q-22 50 -57 43h-219v-614q8 -60 78 -121l-136 74v661h-217q-42 3 -53 -54zM1448 1298l-3 -598q-5 -101 83 -201q-122 61 -175 195l4 503l-225 -287l-235 285v-505q-2 -70 97 -150q-83 26 -137 89.5t-50 147.5v446q-2 56 -42 57h-50l57 51h117
l245 -296l243 301h61q35 -4 58 -32z" />
    <glyph glyph-name="NULL" horiz-adv-x="0" 
 />
    <glyph glyph-name="glyph5" horiz-adv-x="401" 
d="M93 805l-21 113q-9 46 -9 62q0 25 10 36t28 11q16 0 27 -11t11 -31q0 -14 -10 -68l-20 -112h-16zM250 802l-20 106l-8 43q-1 10 -1 19q0 22 10 32.5t27 10.5q16 0 26 -10.5t10 -28.5q0 -30 -6 -66l-21 -106h-17z" />
    <glyph glyph-name="glyph7" horiz-adv-x="679" 
d="M35 149q76 -128 141.5 -152t129.5 -29v371q-143 85 -182 136t-39 121q0 88 62 156.5t159 83.5v70h60v-68q77 0 186 -44l-1 -174q-46 83 -71 113q-35 43 -114 48v-336q152 -81 198 -139t46 -133q0 -94 -64.5 -167t-179.5 -96v-107h-60v102q-64 1 -113.5 10t-119.5 33z
M304 775q-59 -10 -92 -49t-33 -95q0 -51 27 -91.5t98 -85.5v321zM375 -18q62 12 95.5 53.5t33.5 102.5q0 57 -31 99t-98 76v-331z" />
    <glyph glyph-name="glyph31" horiz-adv-x="904" 
d="M140 482l632 265v-83l-530 -217l530 -217v-83l-633 266z" />
    <glyph glyph-name="glyph33" horiz-adv-x="938" 
d="M823 434l-684 -287v89l573 236l-573 236v89l685 -288z" />
    <glyph glyph-name="glyph50" horiz-adv-x="1067" 
d="M122 506q0 -85 32.5 -159.5t88.5 -130t131 -87.5t160 -32t160 32t130.5 87.5t88 130t32.5 159.5q0 84 -32.5 158.5t-88 130t-130.5 88t-160 32.5t-160 -32.5t-131 -88t-88.5 -130t-32.5 -158.5zM6 508q0 99 41.5 186.5t113.5 153t168 103t205 37.5q108 0 204 -37.5
t167 -103t112.5 -153t41.5 -186.5q0 -100 -41.5 -187.5t-112.5 -152.5t-167 -102.5t-204 -37.5q-109 0 -205 37.5t-168 102.5t-113.5 152.5t-41.5 187.5z" />
    <glyph glyph-name="glyph63" horiz-adv-x="662" 
d="M168 1005q41 0 146 5q-4 -298 -4 -654q0 -380 4 -661q-100 5 -148 5q-49 0 -134 -5v68h167v1179h-167v68q89 -5 136 -5z" />
    <glyph glyph-name="glyph68" horiz-adv-x="728" 
d="M15 768l33 34l265 2q190 -5 275 -85.5t93 -322.5q-9 -194 -70.5 -291.5t-278.5 -105.5l-323 1q104 23 92 75v653q-2 55 -86 40zM158 61q332 -19 388 102t54 229q2 139 -55 245t-192 105l-195 1v-682z" />
    <glyph glyph-name="glyph73" horiz-adv-x="392" 
d="M302 795q-59 -5 -74 -30v-582q29 -30 77 -26q-21 -28 -111 -29q-88 4 -110 33q51 -4 78 21l1 583q-6 29 -78 25q5 25 111 26q96 0 106 -21z" />
    <glyph glyph-name="glyph77" horiz-adv-x="884" 
d="M791 761l2 -655q-2 -107 87 -172q-168 17 -185 267l-1 452l-243 -309l-252 307v-543q-2 -76 104 -160q-89 27 -147 95t-53 158v479q-3 61 -46 62h-54l62 55h126l263 -318l260 323h66q38 -4 63 -35z" />
    <glyph glyph-name="glyph81" horiz-adv-x="635" 
d="M64 798l-1 101h538l2 -91q-19 44 -51 39h-195v-576q-4 -37 -40 -45h-85q76 14 75 61v560h-196q-37 2 -47 -49z" />
    <glyph glyph-name="glyph82" horiz-adv-x="772" 
d="M24 799l190 -1q-5 -477 3.5 -522.5t35.5 -78.5t74 -50.5t101 -17.5q80 0 130 33.5t67 85.5t12 475q7 94 -52 181q109 -67 113 -131l1 -293q-1 -153 -6 -195q-6 -58 -23.5 -93t-54 -66.5t-82.5 -46.5q-62 -20 -129 -20q-75 0 -134 18.5t-91 50.5t-48 74.5t-16 124.5l2 233
q0 130 -1 147q3 61 -92 92z" />
    <glyph glyph-name="glyph86" horiz-adv-x="820" 
d="M199 -247q164 172 169 254l-1 427l-176 254q-146 243 -313 317q237 -10 276 -133l277 -397l153 281q22 41 -76 30l37 44l138 -1l2 -50l-232 -395l-1 -396q16 -93 -253 -235z" />
    <glyph glyph-name="glyph92" horiz-adv-x="563" 
d="M327 596v-424q73 6 171 114q-43 -170 -171 -193v-128h-116q66 12 64 63v63q-92 6 -152.5 74.5t-60.5 182.5q0 110 60 189t153 102v130h52v-122q11 1 17 1q74 0 130 -42v-148q-22 94 -58.5 113.5t-88.5 24.5zM274 581q-53 -15 -82 -58q-37 -57 -37 -145q0 -84 34.5 -138
t84.5 -70v411z" />
    <glyph glyph-name="glyph108" horiz-adv-x="440" 
d="M74 890l38 104q29 63 -24 103q-16 10 -52 20h175q-12 -98 -137 -227zM297 890l38 104q29 63 -24 103q-16 10 -52 20h175q-12 -98 -137 -227z" />
  </font>
</defs>
</svg>
