<?xml version="1.0" standalone="no"?>
<!DOCTYPE svg PUBLIC "-//W3C//DTD SVG 1.1//EN" "http://www.w3.org/Graphics/SVG/1.1/DTD/svg11.dtd" >
<svg xmlns="http://www.w3.org/2000/svg" xmlns:xlink="http://www.w3.org/1999/xlink" version="1.1">
<metadata>
Created by FontForge 20201107 at Wed Sep 25 07:29:13 2024
 By 
(c)2021, Graphix Line Studio
</metadata>
<defs>
<font id="HappyHalloweenRegular" horiz-adv-x="1114" >
  <font-face 
    font-family="Happy Halloween"
    font-weight="400"
    font-stretch="normal"
    units-per-em="2048"
    panose-1="0 0 0 0 0 0 0 0 0 0"
    ascent="1638"
    descent="-410"
    x-height="940"
    cap-height="1532"
    bbox="-125 -595 1995.74 1840.12"
    underline-thickness="0"
    underline-position="0"
    unicode-range="U+000A-2122"
  />
<missing-glyph horiz-adv-x="1079" 
d="M102 1434h875v-1434h-875v1434zM160 1393l379 -633l381 633h-760zM514 717l-369 614v-1231zM541 674l-379 -631h758zM565 717l371 -621v1239z" />
    <glyph glyph-name=".notdef" horiz-adv-x="1079" 
d="M102 1434h875v-1434h-875v1434zM160 1393l379 -633l381 633h-760zM514 717l-369 614v-1231zM541 674l-379 -631h758zM565 717l371 -621v1239z" />
    <glyph glyph-name=".null" horiz-adv-x="0" 
 />
    <glyph glyph-name=".null" horiz-adv-x="0" 
 />
    <glyph glyph-name="nonmarkingreturn" horiz-adv-x="682" 
 />
    <glyph glyph-name="controlLF" unicode="&#xa;" horiz-adv-x="0" 
 />
    <glyph glyph-name="controlCR" unicode="&#xd;" horiz-adv-x="0" 
 />
    <glyph glyph-name="space" unicode=" " horiz-adv-x="598" 
 />
    <glyph glyph-name="exclam" unicode="!" horiz-adv-x="565" 
d="M294 226q41 -6 76 -44q28 -29 34 -59t-3 -84q-4 -22 -16 -57t-21 -47q-8 -11 -34.5 -34t-39.5 -30q-8 -4 -31 -5.5t-34 1.5t-35 16.5t-30 20.5q-8 9 -21.5 34.5t-17.5 39.5q-5 19 -4.5 59t5.5 61q11 42 35 79q5 6 11 20q0 11 41 24q37 11 85 5zM586 1654q14 -5 10 -21
q-10 -13 -20 -22q-46 -42 -108 -135q-30 -46 -59 -121t-45 -149q-16 -77 -21 -202q-5 -92 -10 -150q-8 -92 -11 -137q-4 -67 -6 -76q-9 -71 -12 -183q-2 -78 -9 -92q-10 -18 -41 -25q-5 -1 -23 -6q-35 -11 -48 2q-8 12 -9 19q-7 28 5 170q7 74 -4 164q-9 74 -13 199
q-5 198 -12 243q-3 20 -3 39q0 25 -4 45q-10 54 -16 101q-2 13 -6 23q-4 8 -5 13q-3 11 -9 21q-15 27 -2 42q7 8 42 11q54 3 94 18q75 28 148 66q12 7 60 46.5t70 60.5q19 18 39.5 29t27.5 7z" />
    <glyph glyph-name="quotedbl" unicode="&#x22;" horiz-adv-x="733" 
d="M716 1593q4 -4 4 -8q-10 -20 -17 -29q-43 -63 -58 -90t-50 -105q-37 -83 -55 -130q-19 -52 -34 -72q-18 -20 -43 -29q-31 -6 -59 -9q-9 -1 -12 2q-7 7 11 32q19 27 23.5 36.5t10.5 39.5q10 48 12 56q6 19 11 60q9 51 2 99q-2 19 -4 43q-3 37 -14 58q-6 12 2 17q9 2 19 0
q11 -2 21 0q8 1 17 0q14 -1 31 2q20 4 30 4q20 2 29 4q83 19 100.5 21.5t22.5 -2.5zM399 1576q3 -3 3 -8q-10 -20 -17 -29q-43 -63 -58 -90t-50 -105q-37 -83 -55 -130q-19 -52 -34 -72q-19 -20 -42 -29q-41 -8 -59 -10q-8 -1 -12 3q-8 8 10 32q19 26 23 35.5t11 40.5
q7 35 13 55q4 12 10 61q9 51 2 99q-2 19 -4 43q-3 39 -13 58q-6 13 1 17q9 2 19 0q11 -1 21 0q9 1 18 0q13 -1 30 2q15 3 30 3q12 1 29 5q82 19 100.5 21.5t23.5 -2.5z" />
    <glyph glyph-name="quotedbl" unicode="&#x201d;" horiz-adv-x="733" 
d="M716 1593q4 -4 4 -8q-10 -20 -17 -29q-43 -63 -58 -90t-50 -105q-37 -83 -55 -130q-19 -52 -34 -72q-18 -20 -43 -29q-31 -6 -59 -9q-9 -1 -12 2q-7 7 11 32q19 27 23.5 36.5t10.5 39.5q10 48 12 56q6 19 11 60q9 51 2 99q-2 19 -4 43q-3 37 -14 58q-6 12 2 17q9 2 19 0
q11 -2 21 0q8 1 17 0q14 -1 31 2q20 4 30 4q20 2 29 4q83 19 100.5 21.5t22.5 -2.5zM399 1576q3 -3 3 -8q-10 -20 -17 -29q-43 -63 -58 -90t-50 -105q-37 -83 -55 -130q-19 -52 -34 -72q-19 -20 -42 -29q-41 -8 -59 -10q-8 -1 -12 3q-8 8 10 32q19 26 23 35.5t11 40.5
q7 35 13 55q4 12 10 61q9 51 2 99q-2 19 -4 43q-3 39 -13 58q-6 13 1 17q9 2 19 0q11 -1 21 0q9 1 18 0q13 -1 30 2q15 3 30 3q12 1 29 5q82 19 100.5 21.5t23.5 -2.5z" />
    <glyph glyph-name="quotedbl" unicode="&#x201c;" horiz-adv-x="733" 
d="M716 1593q4 -4 4 -8q-10 -20 -17 -29q-43 -63 -58 -90t-50 -105q-37 -83 -55 -130q-19 -52 -34 -72q-18 -20 -43 -29q-31 -6 -59 -9q-9 -1 -12 2q-7 7 11 32q19 27 23.5 36.5t10.5 39.5q10 48 12 56q6 19 11 60q9 51 2 99q-2 19 -4 43q-3 37 -14 58q-6 12 2 17q9 2 19 0
q11 -2 21 0q8 1 17 0q14 -1 31 2q20 4 30 4q20 2 29 4q83 19 100.5 21.5t22.5 -2.5zM399 1576q3 -3 3 -8q-10 -20 -17 -29q-43 -63 -58 -90t-50 -105q-37 -83 -55 -130q-19 -52 -34 -72q-19 -20 -42 -29q-41 -8 -59 -10q-8 -1 -12 3q-8 8 10 32q19 26 23 35.5t11 40.5
q7 35 13 55q4 12 10 61q9 51 2 99q-2 19 -4 43q-3 39 -13 58q-6 13 1 17q9 2 19 0q11 -1 21 0q9 1 18 0q13 -1 30 2q15 3 30 3q12 1 29 5q82 19 100.5 21.5t23.5 -2.5z" />
    <glyph glyph-name="numbersign" unicode="#" horiz-adv-x="1335" 
d="M1273 1555q10 -14 -15 -29q-59 -37 -103 -78q-50 -48 -50 -62q-1 -8 -6 -17q-5 -12 -11.5 -51t-6.5 -58q-3 -46 -16 -101q-11 -48 -14 -64q-2 -13 -7.5 -38t-6.5 -29q-8 -41 0 -42q3 1 28 3q30 2 72.5 13.5t53.5 20.5q27 22 37 22q8 -1 12 -6q12 -11 -9 -46
q-21 -34 -23 -43.5t0 -55.5q2 -39 -3 -44q-12 -13 -42 12q-13 10 -23 23q-4 7 -9 10q-6 4 -40 8t-57 4q-18 0 -20.5 -3t-4.5 -30q-2 -16 -8 -48q-65 -288 -65 -324q0 -4 32 -4q63 0 111 10t53 24q2 9 10 12t16 0t9.5 -10.5t-0.5 -28.5q-6 -45 6 -52q6 -4 5 -15
q-3 -22 32 -70q13 -16 14.5 -23t-5.5 -13q-7 -8 -19 -2.5t-55 38.5q-50 38 -124 47q-4 1 -17 2.5t-24 3t-19 2.5q-18 3 -35 3q-4 -2 -6 -14q-2 -13 -16 -68q-15 -61 -17 -105q0 -18 -4 -52q-3 -4 -13 -63t-10 -71q0 -15 3 -28q3 -9 13 -14.5t40 -13.5q47 -13 24 -33
q-8 -7 -28 -6q-108 8 -170 2q-51 -5 -104 -17.5t-64 -21.5q-13 -13 -29 -2q-13 12 16 42q14 16 31 28q12 7 37 31.5t40 44.5q18 22 33 40q12 13 22 45q10 35 14 63q3 18 13 68q3 12 10 47t13.5 63t7.5 35q1 4 -2.5 5.5t-22.5 2.5h-1q-40 4 -122 2.5t-130 -6.5l-61 -7
q-6 -30 -13 -64q-22 -109 -34 -161q-23 -103 -23 -131v-31l13 -14q4 -5 13 -15t10 -12q14 -15 32 -23q33 -15 41.5 -23.5t2.5 -19.5q-7 -14 -33 -2q-22 10 -41 12t-106 2q-98 0 -138 -5q-47 -6 -53 -6q-24 -2 -32 4q-7 5 -8 12q0 5 6 9.5t14 4.5q20 2 39 6q53 10 74 31
q22 22 39 68q24 75 34 145q5 42 15 82q2 9 4.5 22l5 26t3.5 18q2 9 4.5 22t2.5 14l1 9l-31 -8q-31 -8 -43 -13t-36 -19q-20 -13 -46 -27l-33 -18q-24 -15 -34 -5q-4 5 -3 13.5t6 13.5q15 12 35 44t20 43q2 18 4 25q3 13 2.5 18.5t-6.5 17.5q-7 17 -4 23q4 8 11 9
q11 3 78 -12q30 -5 56 -5l39 -1l2 9q0 1 2 14t4 21q3 16 8 64q3 55 17 115q12 52 17 104q6 58 7 62q1 3 -4 4t-38 1h-56q-41 -2 -127 -33q-41 -15 -50.5 -17t-14.5 3q-13 12 13 39q25 26 33 47.5t6 56.5q-1 31 -9 41q-16 20 -8 31q7 7 15 7t15 -7q9 -12 21 -24
q16 -18 23 -27q15 -22 32 -26q75 -8 134 -7l25 2l2 18q1 14 13 66q10 44 12 69q2 23 9 66q8 47 11 80q4 35 7 48q5 27 0.5 41t-20.5 23q-17 9 -97 19q-21 2 -31 12.5t-2 22.5q4 6 8.5 7t26.5 -1q65 -4 93 -18q22 -11 81 -3q28 4 42 7q20 6 30 7q21 4 46 14q15 7 40 14
q59 14 68 21q12 9 24.5 11.5t20 -2.5t6.5 -15q-1 -9 -21 -18q-17 -8 -35 -20q-10 -7 -49 -30q-39 -22 -51 -32.5t-23 -33.5q-31 -61 -41 -126q-3 -14 -8.5 -40.5t-6.5 -32.5q-8 -42 -10 -64q-4 -42 -9 -74q-1 -9 -2.5 -18t-2.5 -14l-1 -5q0 -1 180 -1q134 0 157 1t24 5
q17 73 22 89q6 25 9 53q4 37 16 88q12 54 12 87q0 29 -5 40.5t-23 24.5q-22 17 -45 21q-37 10 -37 26q0 12 10 14.5t54 0.5q42 -2 62 0.5t70 15.5q60 14 109 48q2 2 29.5 19.5t39.5 25.5q31 19 43 22t18 -6zM824 626q21 97 37.5 190.5t12.5 93.5q-18 0 -133 -5t-133 -6
q-27 -3 -62 -3h-30l-2 -9q0 -2 -2 -13t-4.5 -29.5t-5.5 -34.5q-9 -54 -19 -100q-17 -78 -24 -157q-2 -28 -7 -51l-2 -10l45 2q48 2 66 5q19 3 129 1l107 -1l7 26q4 16 10 46z" />
    <glyph glyph-name="dollar" unicode="$" horiz-adv-x="999" 
d="M897 480q5 -17 2.5 -62t-10.5 -64q-3 -10 -5 -29q-4 -26 -8 -41q-7 -25 -8 -33q-4 -27 -36 -67q-1 -2 -7.5 -10.5t-8.5 -11.5q-5 -9 -27.5 -31t-25.5 -22q-5 0 -12 -13q-19 -29 -35 -32q-10 -3 -22 -11q-6 -6 -14 -9q-6 -3 -16 -11q-7 -7 -18 -10q-8 -1 -16 -6
q-16 -9 -65 -15l-15 -2l1 -35q1 -55 13 -122q10 -48 2 -73q-9 -24 -31 -38q-20 -11 -49 9q-25 17 -28.5 32.5t-2.5 103.5q0 99 2 117l2 16l-15 2q-39 3 -77 22q-10 5 -32 13q-16 8 -29 18q-26 20 -38 26q-48 28 -63 51q-7 10 -18 18q-22 10 -68 -1q-24 -7 -33 0
q-15 11 15 41q55 55 73 78.5t43 73.5q23 45 27 51q5 8 14.5 36t10.5 42t14 52.5t18 43.5q13 10 25 0q4 -6 3 -22q-17 -188 4 -305q7 -41 47 -90q15 -18 36.5 -34t33.5 -17l12 -1v49q0 34 3 67q3 18 3 153q0 141 4 201q5 60 5 70q0 2 -24 17q-45 27 -96.5 70.5t-67.5 68.5
q-5 8 -18 21q-21 21 -41 54q-6 11 -13 19t-10 20q-17 64 -20 90q-2 25 -7 47q-4 21 -3 91q1 66 8 83q6 15 11 38q6 24 18 43q24 41 60 87q13 15 24 30q14 16 23 22q16 10 24 18q20 16 41 26q22 11 29.5 13t27.5 2h28v24q0 50 14 66q7 8 29 7.5t32 -9.5q14 -13 19 -67
q1 -20 3 -24.5t10 -9.5q25 -15 92 -38q43 -15 74 -31q15 -9 43 -15l14 -2l35 31q35 31 38 31q14 -3 17 -17q-1 -8 -6 -16q-9 -16 -15 -35q-14 -39 -21.5 -79.5t-21.5 -152.5q-17 -135 -24 -158q-3 -10 -15 -10.5t-18 9.5q-8 22 -9 45q-8 79 -32 147q-20 59 -28.5 74.5
t-39.5 46.5q-24 24 -53 47t-36 23q-3 0 -3 -57q-3 -124 -19 -240q-6 -54 -6 -108v-61l17 -12q6 -4 74 -55q56 -42 72 -50q22 -11 55 -38t52 -49q8 -9 27 -51.5t29 -74.5q8 -24 18 -72q5 -36 9 -47zM469 1280q2 87 0 107q-2 17 -7 18q-5 0 -41 -22q-34 -21 -51 -42
q-30 -37 -44 -105q-6 -33 -3 -60q3 -24 11 -39q2 -3 8.5 -15.5t9.5 -19.5q14 -30 46 -64t59 -49l9 -5v105q0 47 3 191zM742 302q13 48 10 91q-6 58 -22 90q-24 42 -64 71q-45 31 -63 35q-20 6 -29 10q-7 4 -19 7q-1 0 -1 -113q0 -125 -3 -186q-3 -64 -1 -134l1 -60l18 6
q4 2 30 17q16 10 25 13q16 7 25 15q17 15 27 22q13 10 27 28q15 19 39 88z" />
    <glyph glyph-name="percent" unicode="%" horiz-adv-x="1509" 
d="M302 688q-13 3 -23 7q-26 8 -39 11q-41 8 -68 41q-32 38 -54.5 95.5t-28.5 115.5q-6 92 0 183q11 90 37 170q29 95 28 103t14 23q8 9 18 15q18 9 30 17q21 13 34 17t60 11q27 4 41.5 3t56.5 -8q56 -9 108 -61q40 -40 48 -65q3 -9 12 -21q6 -10 9 -40q2 -26 7 -46
q8 -29 2 -138.5t-19 -171.5q-8 -40 -16.5 -60t-39.5 -74q-12 -22 -30.5 -42t-31.5 -27q-10 -6 -16 -15q-7 -10 -18 -16q-3 -2 -13 -8t-13 -8q-9 -6 -25 -11q-35 -5 -70 0zM258 978q3 -65 17 -132q5 -18 10 -26t25 -27q19 -19 27 -19.5t33 16.5q21 13 28.5 22t15.5 32
q19 52 19 246q0 134 -3 152q-1 5 -2 14t-2 20.5t-2 17.5q-4 36 -21 83q-3 8 -7.5 12t-18.5 11q-26 12 -47 12l-25 1l-6 -15q-20 -52 -29 -98q-4 -22 -12 -45q-23 -66 -5 -214q5 -35 5 -63zM1417 559q8 -29 2.5 -138.5t-18.5 -171.5q-8 -40 -16.5 -60t-39.5 -74
q-12 -22 -30.5 -42t-31.5 -27q-12 -7 -17 -14q-8 -11 -18 -17q-9 -6 -25 -16q-9 -6 -25 -11q-35 -5 -70 0q-8 2 -24 8q-29 9 -38 11q-43 8 -69 40q-31 38 -53.5 95.5t-28.5 115.5q-6 92 0 183q11 90 37 170q28 93 27 103q-1 8 14 23q7 8 19 15q18 9 30 17q21 13 34 17t60 11
q27 4 41 3t56 -8q56 -9 108 -61q42 -42 49 -65q4 -12 11 -21q8 -11 10 -40q2 -31 6 -46zM1240 144q19 52 19 246q0 134 -3 152t-7 52q-4 42 -20 84q-4 12 -26 22q-26 12 -47 12l-25 1l-7 -15q-17 -46 -28 -98q-4 -22 -12 -45q-23 -66 -5 -214q4 -28 4 -63q3 -65 17 -132
q4 -17 10 -25t26 -28q19 -19 27 -19.5t33 16.5q21 13 28.5 22t15.5 32zM968 1187q-15 -31 -31 -82q-17 -52 -38 -107q-17 -43 -29 -77q-35 -96 -40 -101q-2 -3 -4 -7l-3 -7l-9 -21t-11 -25q-16 -34 -31 -80q-29 -86 -58 -141q-33 -63 -60 -138q-10 -32 -82 -212
q-62 -159 -62 -181q0 -10 4.5 -14t24.5 -9q39 -9 44 -21q5 -9 -1 -15q-4 -6 -11.5 -7.5t-36.5 -3.5q-42 -3 -67 -5q-41 -4 -52 -1q-23 4 -50 4q-39 0 -55 -7q-18 -7 -23 -19t-17 -13q-10 0 -15 1q-5 4 -7 10q-2 7 7 24q13 22 63 56q26 19 63 77q15 24 46.5 82.5t38.5 76.5
q10 22 24 60q5 13 23.5 59t26.5 67q30 78 55 131q18 38 39 98q20 55 22 59q18 34 63 156q12 34 19 50q3 6 7 16t9 22t7 18q52 129 98 227q25 53 28 72q4 17 16 49q24 62 23 120q-1 28 -2.5 35.5t-9.5 21.5q-17 29 -7 39q5 5 56 5q52 0 77 7t97 41q38 20 51 29q17 11 36 20
q20 5 27 -12q2 -6 -1 -10.5t-21 -21.5q-33 -29 -59 -49q-70 -52 -100 -109q-17 -34 -22 -48q-15 -43 -38 -90q-9 -17 -17 -39q-13 -34 -25 -60z" />
    <glyph glyph-name="ampersand" unicode="&#x26;" horiz-adv-x="1538" 
d="M1481 1136q8 -15 -21 -34q-52 -34 -129.5 -101.5t-92.5 -92.5q-9 -15 -51 -78q-57 -85 -80 -128q-51 -95 -73 -127q-22 -34 -25 -41q-5 -10 -41 -73q-40 -68 -46 -81q-13 -26 -16 -29q-7 -8 30 -58q20 -26 26 -38q7 -12 42.5 -50t55.5 -55q56 -48 98 -60q13 -4 40 -13
q45 -17 68.5 -21.5t81.5 -8.5q31 -2 40.5 -6.5t9.5 -15.5q0 -18 -22 -18q-7 0 -57 -8q-43 -8 -82 -8q-32 1 -65 -8q-28 -8 -98 -9q-54 0 -93 -5q-34 -5 -79 -7q-46 0 -89 -9q-49 -11 -58 -2q-5 5 -5 11t5 11q21 11 41 17q33 11 52 20q6 3 32 13t17 20q-1 2 -7 10t-8 13
q-30 52 -47 77q-33 45 -39 47q-3 1 -29 -23q-72 -67 -88 -80q-3 -3 -39 -34q-45 -41 -121 -62q-34 -9 -36 -11l-33 -6q-19 -5 -48 -1q-1 0 -50 6q-33 3 -57 16q-14 8 -37 17q-25 9 -42 32q-9 15 -37.5 46t-36.5 35q-22 9 -27 38q-2 11 -8 31q-17 51 -17 147q0 72 8 111
q8 41 14 58q6 22 9 45q4 31 26 83q18 44 104 128q53 53 79 72l22 16q6 4 -21 46q-7 10 -28 60.5t-34 88.5q-17 49 -20.5 89.5t2.5 105.5q8 86 42 155q17 39 46 68q15 17 35 36q33 17 81 32q11 3 26 8q16 8 32 2q24 -4 36 -4q36 0 111 -31q24 -10 31.5 -15.5t30.5 -30.5
q31 -34 45 -66l14 -33l8 -73q7 -69 2 -100q-8 -47 -25 -85q-5 -11 -15 -22q-11 -15 -18 -33q-9 -22 -21 -36q-16 -18 -22 -28q-10 -16 -18 -23q-28 -23 -54 -48q-12 -11 -25 -19q-8 -2 -12 -6q0 -2 6 -10q1 -2 21 -39q22 -42 34 -62q10 -17 28 -50q9 -18 25 -41
q4 -5 8 -12.5t8.5 -15t6.5 -9.5q9 -14 20 -29q9 -12 21 -33q7 -13 17 -26q9 -11 12 -18q3 -6 10.5 -18t16 -24.5t17 -24.5t14.5 -19t7 -6q2 3 15 32q6 14 29 54q20 33 52.5 99.5t41.5 89.5q18 49 8 70q-9 18 -31 35t-47 25q-19 8 -27 12q-10 6 -21 9q-12 3 -24 9
q-32 16 -21 33q5 7 10 8t38 0q48 -1 124.5 9t109.5 21q42 17 82 38q30 16 86 44q34 17 69 38q28 17 76 43q32 17 42.5 19.5t15.5 -7.5zM430 1204q-4 -31 -1 -46.5t20 -47.5q14 -27 24 -52q4 -13 16 -37q6 -10 17 -24t13 -14q2 2 7 5t7 4q37 30 66 69q22 32 33 32
q4 0 16.5 26t15.5 41q5 24 8 32q6 21 3.5 73.5t-10.5 62.5q-1 3 -7 14.5t-8 17.5q-11 30 -23.5 42t-44.5 23q-18 6 -29.5 5.5t-29.5 -10.5q-21 -10 -41 -35q-15 -19 -27 -42q-18 -42 -21 -87q0 -14 -4 -52zM724 273q8 9 6 11q-11 15 -45.5 68t-41.5 67q-35 63 -76 113
q-37 43 -78.5 102t-58.5 93l-8 16l-10 -5q-32 -18 -59 -63q-44 -77 -50 -113q-4 -28 -6 -36q-4 -24 -3 -69q2 -43 7.5 -68t26.5 -75q21 -51 35 -74t39 -48q29 -29 45 -33q10 -3 30 -5q11 0 21 -3t23 -1q16 2 30 2q34 3 62 25q7 6 25 14q7 1 12 8q7 9 15 13q13 8 32 26.5
t19 22.5q3 9 8 12z" />
    <glyph glyph-name="quotesingle" unicode="'" horiz-adv-x="428" 
d="M399 1572q3 -3 3 -8q-10 -20 -17 -29q-43 -63 -58 -90t-50 -105q-37 -83 -55 -130q-19 -52 -34 -72q-19 -20 -42 -29q-31 -6 -59 -9q-9 -1 -12 2q-8 8 10 32q19 26 23 35.5t11 40.5q7 35 13 55q4 12 10 61q9 51 2 99q-2 19 -4 43q-3 39 -13 58q-6 13 1 17q9 2 19 0
q11 -1 21 0q9 1 18 0q13 -1 30 2q20 4 30 4q20 2 29 4q82 19 100.5 21.5t23.5 -2.5z" />
    <glyph glyph-name="quotesingle" unicode="&#x2019;" horiz-adv-x="428" 
d="M399 1572q3 -3 3 -8q-10 -20 -17 -29q-43 -63 -58 -90t-50 -105q-37 -83 -55 -130q-19 -52 -34 -72q-19 -20 -42 -29q-31 -6 -59 -9q-9 -1 -12 2q-8 8 10 32q19 26 23 35.5t11 40.5q7 35 13 55q4 12 10 61q9 51 2 99q-2 19 -4 43q-3 39 -13 58q-6 13 1 17q9 2 19 0
q11 -1 21 0q9 1 18 0q13 -1 30 2q20 4 30 4q20 2 29 4q82 19 100.5 21.5t23.5 -2.5z" />
    <glyph glyph-name="quotesingle" unicode="&#x2018;" horiz-adv-x="428" 
d="M399 1572q3 -3 3 -8q-10 -20 -17 -29q-43 -63 -58 -90t-50 -105q-37 -83 -55 -130q-19 -52 -34 -72q-19 -20 -42 -29q-31 -6 -59 -9q-9 -1 -12 2q-8 8 10 32q19 26 23 35.5t11 40.5q7 35 13 55q4 12 10 61q9 51 2 99q-2 19 -4 43q-3 39 -13 58q-6 13 1 17q9 2 19 0
q11 -1 21 0q9 1 18 0q13 -1 30 2q20 4 30 4q20 2 29 4q82 19 100.5 21.5t23.5 -2.5z" />
    <glyph glyph-name="parenleft" unicode="(" horiz-adv-x="555" 
d="M314 824q-3 -40 -5 -178q-3 -199 19 -332q15 -94 34 -160q10 -35 20 -75q33 -131 89 -240q29 -60 35 -75q24 -55 43 -72q6 -5 7.5 -13.5t-2.5 -10.5q-3 -4 -3 -9q-3 -14 -17 -17q-9 2 -16 6t-17 6q-10 4 -23 13q-16 10 -35 18q-17 7 -33 20q-20 16 -33 25
q-43 29 -93.5 101.5t-77.5 144.5q-32 86 -62 214q-26 110 -35 233q-8 118 -8 175t8 143q9 86 31 183q29 132 60.5 221t107.5 258q93 205 197 316q34 36 50.5 46t26.5 -1q6 -6 4 -14.5t-15 -30.5q-31 -52 -101 -220q-59 -141 -85 -221t-37 -156q-3 -23 -15 -95
q-10 -58 -13 -105q-1 -13 -3 -48.5t-3 -49.5z" />
    <glyph glyph-name="parenright" unicode=")" horiz-adv-x="532" 
d="M423 979q8 -118 8 -175t-8 -143q-9 -84 -31 -182q-29 -132 -60.5 -222t-107.5 -258q-92 -203 -197 -315q-34 -36 -51 -46t-27 1q-6 7 -4 14t16 30q27 46 100 220q59 142 85.5 222.5t37.5 155.5q3 23 15 95q8 48 12 104q1 13 3 48.5t3 49.5q3 40 5 178q3 204 -18 332
q-15 97 -34 161q-12 38 -20 74q-33 131 -89 240q-33 70 -36 76q-25 56 -42 72q-15 13 -5 23q3 4 3 11q1 6 9 12q7 4 22 -3q9 -5 19 -6q13 -5 23 -12q20 -13 35 -19q17 -7 32 -19q26 -22 33 -26q43 -29 93.5 -101.5t77.5 -144.5q34 -93 63 -214q26 -110 35 -233z" />
    <glyph glyph-name="asterisk" unicode="*" horiz-adv-x="686" 
d="M603 1222q11 -26 0 -52q-15 -31 -64 -56q-15 -9 -31 -9q-29 -2 -58 6q-49 11 -67 5l-9 -3t-2 -4t4 -6.5t11 -9.5q9 -7 30 -30q13 -15 25 -24q4 -2 21 -17q14 -12 21 -17q23 -17 27 -22q17 -16 21 -27q1 -4 8 -20q17 -35 -20 -83q-11 -14 -21.5 -17t-31.5 2q-35 8 -56 49
q-2 3 -6 10t-6 10q-10 16 -17 50q-6 28 -10 42q-26 81 -29 81q-2 0 -12.5 -23.5t-13.5 -34.5q-1 -4 -7 -34q-8 -41 -24 -87q-17 -51 -51 -78q-8 -8 -18 -8q-6 0 -16 4q-12 6 -25.5 22t-17.5 28q-3 23 1 41q9 31 27 58q35 49 85 90q14 14 20 22l12 14l-11 3q-11 2 -34 2
q-68 2 -129 19q-42 15 -50 43q-4 17 6 44.5t24 38.5q7 5 27 5q10 0 28 -2q24 -8 39 -26q4 -7 12 -10q25 -12 52 -47q20 -24 35 -26q7 -1 11.5 4t6.5 16q5 45 -15 112q-5 18 -10 52q-13 76 -3 104q12 25 33 38q29 10 53 -9q12 -10 18 -63q4 -34 -5 -68q-5 -16 -7 -29
q-1 -4 -4 -14.5t-3 -12.5q-3 -10 -5 -31q-5 -37 -12 -70q-4 -19 0 -20q7 -2 62 34q3 2 31 19q17 10 29 21q14 11 31 22q11 7 35 8q27 1 37 -5t18 -24z" />
    <glyph glyph-name="plus" unicode="+" horiz-adv-x="833" 
d="M751 821q-18 -23 -28 -47q-7 -33 -6 -55q3 -21 12 -34q5 -8 4 -13q-2 -6 -6 -7q-5 -1 -9 0q-19 9 -75 14q-44 5 -51 6q-23 3 -70.5 6t-49.5 1q0 -35 1 -76q2 -82 2 -96q0 -15 4 -47q1 -18 14 -44q18 -36 28 -36q10 -2 10 -10t-5.5 -10.5t-29.5 -4.5t-51 -6q-32 -5 -39 -6
q-40 -6 -79 -18q-21 -8 -24 -2t-1 9t12 13q6 6 16 20q4 6 10 14q11 12 18 51q3 18 2 132l-1 119l-36 -1q-116 -3 -181 -16q-61 -12 -63 -10q0 1 -1 3q-3 9 12 31q10 17 11 20q6 13 6 34q0 15 -3 32q-9 33 -24 62q-5 6 -6 13q2 9 11 11q10 -3 17 -9q15 -9 26 -13q9 -3 35 -11
q54 -17 155 -17h42l-1 35q-2 39 -1 142q1 62 -1 79t-10 29q-7 10 -19 20q-17 13 -17 20t5 8.5t24 0.5q44 -4 88 13q21 7 31 12q38 22 78 53q25 19 32 22.5t13 -1.5q7 -8 -6 -20q-47 -44 -69 -106q-11 -32 -13.5 -50t-3.5 -63q-2 -69 -3 -78q-3 -34 -4 -55q-2 -40 -3 -45
l-1 -12l30 1q28 0 52 4q10 2 59 4q33 1 71 8q55 10 63 4q11 -8 -3 -27z" />
    <glyph glyph-name="comma" unicode="," horiz-adv-x="520" 
d="M125 -462q-22 -1 -29 4q-17 12 7 48q7 11 25 29q20 16 52 62t54 92q18 37 23 61t3 64q-1 42 -5.5 55t-19.5 21q-19 9 -32 13q-72 21 -106 62q-20 25 -24 53q-4 36 13 83t44 76q26 24 58 30q10 1 21 9q14 13 62 5.5t78 -26.5q29 -19 54 -50.5t34 -61.5q6 -19 8 -68.5
t-2 -77.5q-5 -38 -29.5 -120t-39.5 -114q-31 -58 -71 -109q-18 -22 -28 -37q-18 -28 -46 -46q-26 -18 -37 -27q-37 -29 -67 -30z" />
    <glyph glyph-name="hyphen" unicode="-" horiz-adv-x="724" 
d="M663 835q4 -3 4 -9t-4 -9q-7 -7 -39 -17q-38 -12 -88 -63q-25 -25 -42 -46q-12 -15 -17 -15q-9 0 -14 9q0 1 -13.5 4t-32 6t-33.5 4q-50 4 -124 0q-2 0 -11.5 -1t-18 -2t-15.5 -2q-36 -5 -49 -8q-7 -2 -20 -4.5t-16 -3.5q-20 -5 -35 -10q-27 -10 -32 -5q-7 7 -0.5 16.5
t32.5 31.5q13 11 28 27q2 3 10 11t11 12q6 6 16 20q4 8 -1 29q-2 8 2 11q7 7 22 -3q27 -14 56 -18q15 -3 64 -2q55 2 64 4q6 1 43 4t53 5q30 4 37 4q19 0 112 16q45 8 51 4z" />
    <glyph glyph-name="period" unicode="." horiz-adv-x="434" 
d="M338 424q22 -29 22 -77q0 -51 -35 -123q-14 -29 -19 -35.5t-22 -17.5q-37 -24 -47.5 -29t-23.5 -5q-18 0 -31 4q-24 8 -77 61q-19 19 -25.5 35.5t-5.5 47.5q2 63 15 100q15 37 46 73q16 15 29.5 20.5t42.5 6.5q89 4 116 -39q4 -6 15 -22z" />
    <glyph glyph-name="slash" unicode="/" horiz-adv-x="698" 
d="M672 1553q11 -11 -12 -46q-28 -41 -35 -57q-3 -6 -11 -18q-19 -33 -29 -66q-4 -13 -11 -28q-7 -16 -14 -43q-28 -112 -36 -152q-5 -25 -13 -55q-4 -17 -12 -57q-10 -65 -46 -197q-12 -44 -15 -62q-7 -37 -60 -261q-24 -100 -28 -121q-24 -121 -46 -210q-37 -153 -39 -203
l-1 -31l12 -15q18 -21 6 -33q-6 -6 -33 -4q-16 1 -112 -1q-85 -3 -100 -8q-21 -7 -29 1q-11 11 9 49q66 124 66 140q0 3 12 30q15 35 45 138t42 161q11 56 32 120q19 58 32 108q3 11 11 39.5t10 36.5q9 29 15 62q6 27 15 55q7 21 24 102q18 86 32 143q34 142 38 162t5 66
q1 83 -13 126q-9 27 0 35q15 11 59 11q41 -1 80 17q27 13 48 20q30 12 53 30q38 27 49 16z" />
    <glyph glyph-name="zero" unicode="0" horiz-adv-x="978" 
d="M851 1061q6 -27 15 -99q8 -62 9 -107.5t0 -187.5q-1 -105 -6 -117q-7 -15 -12 -86q-3 -49 -15 -97q-13 -58 -13 -63q-2 -12 -7 -22q-9 -19 -13 -32q-5 -16 -13 -26q-9 -12 -14 -28q-5 -15 -13 -28q-7 -10 -12 -23q-11 -22 -18 -29q-23 -26 -40 -47q-8 -10 -18 -14
q-12 -8 -22 -19q-30 -32 -68 -53q-30 -14 -86 -19q-41 -5 -72 0q-14 2 -51 20t-53 31q-46 35 -67 56.5t-39 50.5q-8 13 -18 26q-22 30 -45.5 88t-33.5 109q-26 128 -23 454q1 114 5 154.5t18 89.5q13 45 21 80q20 82 55 153q2 5 7 15.5t8.5 18t5.5 11.5q18 40 59 81
q8 8 22 26q3 6 27.5 17.5t46.5 17.5q29 8 74 24q25 9 53 12q27 3 42 1t66 -15q43 -11 72 -43q5 -5 20.5 -21t22.5 -23q25 -25 34 -37q26 -35 38 -76l11 -33q11 -30 28 -129q2 -9 6 -31.5t6 -30.5zM679 445l6 20l-9 77q-7 63 -12 142q-4 69 -7 98q-4 42 -6 103
q-5 115 -14 226.5t-16 126.5q-1 2 -10 26q-7 20 -30.5 49.5t-48.5 48.5q-26 20 -68 21q-24 0 -40 -10q-15 -9 -26 -23q-17 -27 -37.5 -95.5t-25.5 -117.5q-13 -121 -14 -324q-1 -378 12 -484q5 -43 13 -78q24 -68 72 -136q11 -16 29 -29t31 -15q24 -4 63 7q23 5 35 20
q12 13 18 32q5 15 10 25q6 15 9 32q3 19 12 35q6 10 9 23q1 8 7 20q5 12 7 28q2 9 8 35q5 16 11 57q5 30 12 60z" />
    <glyph glyph-name="one" unicode="1" horiz-adv-x="788" 
d="M730 2q21 -7 29 -19.5t-3 -21.5q-8 -7 -49 2q-79 17 -261.5 20.5t-274.5 -10.5q-28 -4 -43.5 -5.5t-25 -0.5t-12.5 4.5t-3 11.5q0 10 6 13t34 8q51 10 96 43q53 43 65 66q18 38 18 95q-2 226 -7 260q-4 21 2 45q10 46 0 100q-4 26 -4 69t4 63q7 38 4.5 150t-10.5 160
q-2 7 -6 60q-1 33 -9 66q-5 15 -8 35q0 7 -5 14q-9 4 -29 10q-18 6 -30.5 7t-61.5 -1q-50 -2 -60 -1t-15 6q-6 6 -5 22q1 12 5.5 15.5t30.5 12.5q5 2 11.5 4t14 4.5l10.5 3.5q30 8 46 9q43 5 73 17q40 14 46 14q17 4 34 12q31 12 103.5 58t105.5 74q32 27 40 32t18 3
q12 -3 15 -11q3 -7 -7 -21q-43 -61 -71 -119q-13 -28 -16 -54q-1 -7 -3.5 -25.5t-3.5 -25.5q-10 -76 -3 -153q11 -83 5 -211q-8 -181 7 -247q5 -23 6 -223q2 -205 5 -236q6 -70 25 -112q7 -15 11.5 -19.5t23.5 -14.5q19 -11 37 -18q5 -2 44 -19q39 -18 51 -21z" />
    <glyph glyph-name="two" unicode="2" horiz-adv-x="966" 
d="M850 335q25 0 25 -18q0 -6 -27 -88t-36 -103q-10 -22 -22 -58q-13 -37 -9 -46q6 -16 -15 -31q-19 -14 -52 -7q-28 4 -63 4q-136 0 -270 8q-51 3 -174 -10q-58 -6 -71.5 -6t-23.5 5q-17 8 -20 16t0 43l4 41l20 21q10 10 26 34q7 13 17 24q13 15 20 25q4 6 28 32
q12 12 32 40q10 16 28 35q17 21 47 67q18 28 45 64q27 33 63 115q9 20 19 40q4 4 45 86q41 81 57 135q17 58 25 104q3 17 8.5 44.5t5.5 28.5q4 28 4 63q0 61 -6.5 142t-13.5 94q-12 26 -38 40q-16 8 -30 19q-24 17 -41 24q-26 12 -49 12q-16 0 -24 -2.5t-35 -15.5
q-36 -18 -62 -44q-39 -40 -47 -80q-5 -24 -2.5 -70t11.5 -76q15 -51 29 -62.5t51 -2.5q34 7 44 26q17 28 28 96q5 27 9 36t12 9q17 0 17 -24q0 -35 -16 -91.5t-32 -79.5q-35 -43 -81 -72q-24 -13 -35 -20q-28 -17 -59 -1q-22 11 -64 58.5t-48 68.5q-5 24 -6 49q-4 42 2 86
q7 62 15.5 95t28.5 70q24 45 54 72.5t83 53.5q87 44 161 33q49 -7 87 -19q14 -4 38 -8q58 -8 94 -29.5t63 -64.5l28 -45q42 -65 50 -104q6 -24 11 -35q15 -33 10 -101q-2 -27 -7 -47q-8 -22 -9 -33l-3 -21t-3 -18q-1 -5 -3 -14t-2 -11q-13 -44 -35 -90q-4 -6 -34 -63
q-33 -62 -114 -182.5t-146 -205.5q-46 -61 -47 -63q-46 -66 -123 -156q-21 -25 -16 -25q2 0 4 1q4 1 37 5q23 3 53 8q17 4 40 4q11 0 33 4q13 3 115 5q98 2 118 10q13 5 43 25.5t42 32.5q36 36 54 65l15 24h15z" />
    <glyph glyph-name="three" unicode="3" horiz-adv-x="978" 
d="M862 651q0 -4 3 -16.5t4 -19.5q14 -70 10 -103q-4 -49 -5 -62q-1 -15 -5 -40q-4 -15 -5 -26q-12 -56 -36 -107q-31 -53 -71 -104q-2 -2 -19 -25t-26 -34q-51 -68 -86 -89q-20 -10 -47 -19q-10 -3 -27.5 -9.5t-20.5 -7.5q-10 -4 -48 -12t-46 -7q-1 0 -3.5 0.5t-6 1.5
t-5.5 1q-28 5 -56 14q-16 4 -25 4q-44 0 -140 45q-20 11 -42 17q-10 -2 -18 -8q-27 -16 -44 -2q-8 7 -9 32q-1 23 3.5 39.5t24.5 65.5q25 60 38 108q74 250 96 260q11 5 19 -5t3 -22q-3 -11 -3 -21q-2 -18 -10 -49q-15 -58 -6 -118q4 -33 14.5 -57.5t40.5 -70.5
q28 -43 42 -57.5t37 -24.5q38 -15 79 -9q30 4 45 7q33 5 43 9.5t24 22.5q24 31 44 103q11 35 12 70q1 24 7 65q15 85 14 139.5t-20 139.5q-8 38 -11.5 46t-13.5 19q-12 13 -27 24q-12 9 -36 9q-24 2 -44 -11q-41 -21 -69 -57q-22 -27 -21 -59q1 -36 -17 -36q-7 0 -11 6
t-18 33q-8 18 -21 37q-15 17 -14 29t18 32q48 54 109 111q39 35 72 80q17 28 26 39q45 62 69.5 125.5t21.5 107.5q-6 80 -75 148q-18 18 -30 23.5t-36 7.5q-46 3 -93 -21l-32 -15l-26 -40q-38 -58 -38 -93q0 -16 16 -49q15 -31 31 -54q10 -14 14 -16.5t12 -0.5q13 2 28 10
t19 14q5 7 13 47t8 58t6 24q5 5 11 5q7 0 11 -6q6 -6 6 -31q0 -24 -9.5 -74.5t-18.5 -72.5q-30 -75 -65 -94q-15 -9 -50 -10q-40 -2 -67 8t-56 38q-12 11 -25 31q-8 16 -21 34q-42 59 -37 119q1 21 17 66.5t34 80.5q37 73 68 99t107 47q37 11 140 15q56 2 79.5 -4.5
t98.5 -45.5q62 -32 88 -54.5t42 -57.5q26 -55 26 -140q0 -127 -52 -195q-48 -64 -116 -108l-15 -10l18 -9q86 -44 120 -102q10 -16 16 -24q15 -20 29.5 -51t17.5 -51z" />
    <glyph glyph-name="four" unicode="4" horiz-adv-x="1011" 
d="M907 46q34 -23 40 -33t-5 -23q-4 -9 -16 -9q-6 0 -22 2q-26 4 -39 7q-25 6 -64 1q-36 -6 -73 -3q-7 0 -35.5 2t-41.5 3q-44 2 -75 7q-81 12 -114 10q-14 -1 -120 -3q-93 -2 -98 3q-10 9 -4.5 20.5t19.5 11.5q19 3 32 10q18 8 44 13q13 2 32 10q17 6 34 9q65 12 79 48
q15 45 23 90q11 68 11 202q-2 40 -5 40q-11 -4 -31 -8q-33 -8 -64 -5q-45 1 -111 -9q-65 -10 -82 -7q-32 5 -64 6q-50 2 -63 9q-14 7 -18.5 16.5t-5.5 36.5q-3 58 23 109q15 33 25 46q62 91 117 187q17 30 38 63q4 7 10 16.5t13 20.5t9 15q4 6 14.5 22.5t14.5 23.5t12.5 21
t10.5 18q12 19 40 62q23 35 49 83q27 56 90 156q45 72 55 110q3 11 11.5 15t40.5 8q79 9 85 -41q3 -23 0.5 -110.5t-6.5 -106.5q-6 -34 -7 -51q-3 -36 -4 -307.5t1 -272.5q3 -3 10.5 4t16.5 21t15 30q28 70 41 77q7 3 13 -1q9 -5 9 -19t-8 -52q-16 -70 -12 -137q3 -45 0 -90
q-3 -39 -3 -53q0 -10 -12 -13.5t-20 4.5q-5 5 -8 35q-4 38 -6 44q-2 11 -11 25.5t-15 16.5q-9 4 -11 -4t-4 -74q-3 -130 9 -195q10 -52 27 -79q10 -16 81 -42q47 -18 83 -42zM507 627q4 38 5.5 257t-2.5 232l-3 11l-13 -18q-25 -37 -101 -169q-60 -103 -116 -189
q-33 -51 -54 -89q-17 -30 -32 -53q-7 -9 -14 -25q0 -8 24 -8q16 -2 23 -4q12 -4 44.5 -3t57.5 6q11 2 33 4q9 0 21 5q30 11 97 2q16 -2 24 -2q2 2 6 43z" />
    <glyph glyph-name="five" unicode="5" horiz-adv-x="987" 
d="M876 672q2 -12 10 -41q7 -22 6 -92q-1 -108 -21 -172q-8 -26 -18 -66q-16 -64 -41 -100q-35 -50 -50 -74q-12 -19 -39.5 -45t-47.5 -37q-22 -13 -42 -24q-24 -13 -46 -21q-22 -7 -72 -7q-39 0 -58 3q-36 5 -74 3q-71 0 -97 7.5t-60 37.5q-43 39 -62.5 47t-46.5 -3
q-39 -15 -39 11q0 10 19 22q46 30 86 93q29 46 53 119q24 74 29 120q5 40 6 44q3 14 3 28q-1 13 9 23q13 15 25 3q10 -9 2 -47q-5 -23 -9.5 -86t-4.5 -102q-2 -61 15 -118q7 -26 12 -35t24 -28q19 -20 42 -32q22 -13 46 -11q6 0 54 3q29 3 48 16q47 32 61 53q7 10 22.5 52
t20.5 66q9 40 14 272l3 151l-9 34q-20 74 -49 98q-31 26 -64 45t-49 19q-11 0 -40.5 -9.5t-43.5 -17.5q-36 -20 -65 -82q-5 -10 -19 -45q-1 -10 -8 -13t-27 -4q-22 -2 -40 4q-19 6 -23.5 13t-4.5 29t3 41q1 4 2 13.5t3 26t4 27.5q7 58 5 166q-8 380 -11 393q-7 30 10 35
q13 5 23 -3q11 -5 35 -9q31 -6 50 -11q26 -7 114 -11q94 -4 146 -4q55 0 95 9q25 5 55 17q29 14 43 2q9 -8 9.5 -14t-6.5 -23q-19 -46 -24 -97q-4 -32 -9 -54q-3 -20 -7 -55q-6 -74 -9.5 -87t-15.5 -13t-15.5 7.5t-6.5 38.5q-9 82 -52 117q-29 23 -51 29.5t-93 10.5
q-61 4 -94 -6q-21 -3 -43 -3q-33 0 -37.5 -7.5t-8.5 -65.5q-4 -68 -4 -135q0 -83 -3 -130q-4 -57 -2 -65q1 -5 2 -5q1 -1 13 14q40 43 91 70q47 24 99 21q101 -6 166 -51q37 -25 76 -68t56 -77q42 -84 52 -148z" />
    <glyph glyph-name="six" unicode="6" horiz-adv-x="968" 
d="M837 727q18 -49 29 -207q4 -81 -7 -172q-3 -23 -18 -72.5t-26 -70.5q-13 -24 -19 -40q-17 -40 -84.5 -100.5t-116.5 -79.5q-33 -13 -98 -17q-34 -2 -54 6q-33 13 -40 15q-39 11 -64 43q-17 20 -34 32q-14 9 -38.5 35.5t-36.5 45.5q-10 15 -20 29q-11 14 -38 63
q-26 50 -48 146q-8 32 -12 72q-2 23 -8 60q-4 27 -5.5 139.5t1.5 114.5q4 2 4 26q2 33 6 64q8 52 25 126t25 90q7 13 14 34q63 180 162 276q41 41 84 63q18 10 42 22q14 8 31 13q8 1 16 6q34 17 76 10t84 -34.5t60 -59.5q18 -33 34 -37q11 -2 16.5 3t11.5 23q6 17 19.5 35.5
t22.5 23.5q7 5 15 0q10 -4 9.5 -16t-13.5 -48q-19 -56 -32 -137q-1 -7 -14 -76q-7 -39 -10 -69q-4 -44 -6 -53t-9 -13q-8 -5 -16 1q-6 4 -7 8.5t-1 23.5q0 12 -5 67t-5 62q0 16 -3 31q-3 9 -3 18q0 21 -49 83q-4 6 -17 22.5t-17 22.5q-17 23 -28 28.5t-39 5.5q-49 0 -81 -29
q-19 -17 -38 -43.5t-19 -36.5q0 -3 -20 -47q-40 -89 -57 -207q-1 -8 -6.5 -47.5t-8.5 -57.5l-9 -58l15 12q10 9 28 16q18 6 27 10q13 7 48.5 14t47.5 5q12 -1 24 3q15 4 35 4q35 0 70.5 -19.5t89.5 -67.5q44 -40 61 -64q5 -7 15.5 -21.5t12.5 -17.5q10 -14 19 -35zM616 203
q16 82 19.5 130.5t1.5 162.5q-2 141 -15 209q-6 32 -38 83q-18 25 -43 43q-23 14 -50 17q-12 0 -24 3q-11 3 -21 -1q-2 -1 -5.5 -2.5t-8 -4t-6.5 -3.5q-28 -17 -46 -43q-4 -7 -6 -18t-7 -16q-12 -12 -28 -95q-15 -78 -19.5 -167t3.5 -147q20 -144 42 -189q7 -14 33.5 -47
t33.5 -37q34 -15 48 -19q11 3 22 9q18 9 28 17q3 2 12.5 7.5t13.5 8.5q15 9 23 17t18 26q13 21 19 56z" />
    <glyph glyph-name="seven" unicode="7" horiz-adv-x="933" 
d="M784 1443q49 -7 67 -30l8 -11l-3 -37q-4 -44 -27 -118q-17 -52 -26 -94q-6 -27 -21 -72q-13 -40 -20 -72q-2 -11 -10 -38q-10 -30 -12 -40q-10 -36 -17 -53q-22 -57 -67 -230q-32 -123 -52 -175q-77 -207 -85 -337q-1 -31 2.5 -43.5t17.5 -24.5q13 -11 22.5 -28t7.5 -26
q-4 -14 -38 -9q-75 13 -182 2q-85 -6 -156 -26q-45 -12 -50 -12q-4 1 -7 6q-5 5 -3.5 15.5t7.5 15.5q26 16 40 23q76 40 107 71q12 11 19 29t32 96q34 111 55 152q14 26 38 89q20 53 44 107q43 97 72 201q9 32 21 63q14 34 19 52q10 38 58 137q29 58 36 81q16 44 27 96
q0 9 -88 8q-74 0 -127 3q-68 4 -178 -5q-32 -3 -57 -16q-32 -16 -51 -35t-48 -62q-41 -63 -43 -68q-4 -10 -14 -20q-11 -4 -18.5 1.5t-7.5 19.5q0 9 9 45.5t14 49.5q9 27 14 48q7 30 18 61q10 27 14 49q7 31 20 65q10 25 19.5 62t8.5 48q-1 21 6 31q5 8 13 11q7 2 16.5 -4
t12.5 -13q7 -16 40 -29q54 -23 171 -10q88 10 144 0q54 -9 108 0q36 7 80 0z" />
    <glyph glyph-name="eight" unicode="8" horiz-adv-x="995" 
d="M888 514q4 -13 9 -74q3 -56 -3 -99q-2 -14 -6 -40t-4 -27q-8 -49 -28 -103q-29 -53 -62 -93q-12 -12 -27 -21t-25 -22q-25 -33 -55 -41q-6 -2 -20 -6t-19 -5q-53 -14 -169 -7q-69 4 -98 16q-13 5 -39 11q-71 17 -156 130q-21 28 -43 91q-12 36 -18 46q-12 34 -16 51
q-11 44 -11 97q0 66 9.5 107t35.5 91q26 49 61 88t67 54q15 7 33 19.5t18 15.5q-12 16 -20 22q-34 32 -49 51q-12 14 -37 41q-33 35 -47.5 67.5t-25.5 98.5q-6 30 -11 50q-14 48 5 115q16 55 32.5 87.5t47.5 68.5q28 33 46 45.5t48 23.5q22 10 32 17q22 15 49.5 18.5
t106.5 2.5l89 -1l32 -12q97 -32 144 -125q5 -9 17 -27q9 -14 38 -81q8 -22 13 -49q6 -33 4 -76q-2 -48 -2 -87l-1 -44l-15 -26q-16 -26 -23 -40q-18 -38 -48 -65q-42 -37 -91 -65q-5 -3 -9 -5t-7 -4t-4 -4l-2 -1q2 -4 67 -33q18 -8 37 -21q16 -11 51 -46.5t41 -46.5
q2 -5 14 -21q24 -35 34 -72q5 -20 10 -35zM343 1243q-6 -26 -8.5 -93.5t1.5 -88.5q5 -27 8 -52q5 -58 33 -106q11 -17 19.5 -25t36.5 -26q21 -13 30.5 -15t35.5 2q15 1 30 6q2 1 14 4t18 5q27 8 41 28t30 72q27 88 16 181q-10 92 -15 116t-20 55q-17 35 -39 57
q-23 23 -36 28.5t-44 5.5q-32 0 -52 -10q-31 -16 -59.5 -57t-39.5 -87zM655 232q40 108 27 241q-3 29 -25.5 89t-44.5 99q-17 29 -22 34.5t-26 18.5q-17 10 -24.5 12.5t-31.5 4.5q-49 5 -80 -14q-10 -7 -20 -11q-7 -2 -23.5 -24t-26.5 -43q-15 -28 -28 -117q-5 -34 -6 -117
t3 -122q8 -77 23 -115q8 -21 28 -46.5t32 -30.5q6 -3 67 -3q59 1 71 8q16 9 22 14t12 7q7 0 34.5 44t38.5 71z" />
    <glyph glyph-name="nine" unicode="9" horiz-adv-x="1026" 
d="M918 1071q7 -29 7 -149q0 -206 -8 -245q-4 -18 -8 -56q-1 -21 -8 -48q-3 -7 -15 -75q-16 -86 -29 -116q-10 -22 -26 -70t-22.5 -62.5t-24.5 -40.5q-25 -37 -65.5 -80t-70.5 -63q-10 -6 -43 -33q-44 -36 -91 -51q-32 -10 -81 -11t-95 10q-37 9 -49 14t-37 22q-7 5 -31 18
q-9 4 -101 13q-34 3 -34 18q0 10 22 25q9 5 18 14q8 12 25 30q16 17 35 40q35 48 56 94q30 68 60 175q10 35 19 37t15 -3q14 -8 2 -46q-11 -36 -9 -98t15 -99q26 -73 63 -102q32 -24 83 -25q23 0 32 2.5t24 15.5q13 11 48 82q35 72 47 115q19 62 28 130q13 119 9 123
q-9 -5 -27 -17q-61 -42 -80 -48q-1 0 -15 -4.5t-19 -6.5q-18 -6 -65 -6q-34 0 -62 4q-33 8 -76.5 35t-66.5 55q-49 59 -74 140q-39 135 -42 186q-2 26 2.5 91.5t11.5 107.5q9 73 36 142q14 33 48.5 82t61.5 73q47 42 133 75l30 12h56h55l47 -16q31 -10 65 -26q3 -2 14 -8
t14 -8q59 -32 134 -181q47 -94 51 -139q4 -32 8 -48zM706 928q3 29 2 113t-5 100q-19 88 -38 137q-22 56 -64 92t-74 27q-29 -8 -63 -42q-26 -26 -46 -92q-23 -75 -30 -149.5t-4 -208.5q2 -98 12 -141q22 -93 59 -120q18 -14 42 -18.5t43 2.5q10 3 19 9q3 3 13 5q14 0 53 41
q14 15 27 26q7 4 31 82q11 35 23 137z" />
    <glyph glyph-name="colon" unicode=":" horiz-adv-x="501" 
d="M404 337q16 -46 2 -102q-7 -32 -12.5 -43.5t-23.5 -35.5q-25 -34 -39 -43.5t-57 -20.5q-24 -7 -49 -1q-25 8 -46 19q-40 20 -56 39.5t-27 63.5q-10 42 -7 76t23 82q23 55 57 85q17 15 22 18t13 3q13 0 21 -7t50 -8q36 -1 50 -6.5t30 -22.5q27 -31 49 -96zM130 807
q-12 16 -22 66q-13 60 0 103q14 48 41.5 84t54.5 40q13 3 25 9t19 5t29 -9q17 -6 33 -9q11 -1 21 -7q4 -3 25 -17q27 -16 39 -43q6 -12 6 -55q0 -44 -10 -72q-7 -22 -24 -55t-27 -46q-10 -12 -27 -25l-20 -16h-45q-46 0 -57 4q-13 5 -34 19.5t-27 23.5z" />
    <glyph glyph-name="semicolon" unicode=";" horiz-adv-x="550" 
d="M451 349q6 -19 8 -68t-2 -77q-5 -38 -29.5 -120.5t-39.5 -114.5q-36 -64 -71 -109q-22 -26 -28 -36q-19 -30 -46 -47q-18 -13 -36 -27q-37 -29 -68 -30q-21 -1 -28 4q-18 12 6 48q7 11 25 29q20 16 52 62t54 92q18 38 23 62t4 63q-1 41 -6 54.5t-20 21.5q-19 9 -32 13
q-72 21 -106 62q-20 25 -24 53q-4 36 13 83.5t44 76.5q26 24 58 30q11 2 21 8q14 13 62.5 5.5t78.5 -26.5q29 -18 53.5 -50t33.5 -62zM176 801q-22 22 -30 36t-15 38q-13 49 10 107q17 41 37.5 71.5t36.5 38.5q18 8 30.5 10t42.5 -1q25 -1 54 -10q13 -5 31.5 -23.5
t29.5 -36.5q9 -16 9 -42q0 -36 -20 -109q-24 -87 -56 -104q-49 -27 -102 -15q-16 4 -26.5 11t-31.5 29z" />
    <glyph glyph-name="less" unicode="&#x3c;" horiz-adv-x="847" 
d="M279 746q-50 -24 -50 -31q17 -8 19 -9q27 -11 55 -28q20 -12 38 -20q25 -11 40 -20q59 -36 101 -55q48 -21 93 -48q41 -24 66 -27q49 -4 52 -2q5 5 11 17q7 13 14 14q10 2 12 -9q-1 -7 -5 -16q-12 -29 -12 -86q0 -20 4.5 -66.5t7.5 -56.5l3 -21q1 -13 -1 -16.5t-9 -3.5
q-8 -2 -10 5q-3 4 -9 21q-8 22 -26 43q-7 7 -12 10q-15 9 -22 14q-19 13 -37 21q-46 24 -90 54q-39 24 -65 36q-73 34 -103 50q-67 34 -86 42q-19 7 -38 18q-15 8 -37 17q-20 8 -55 32.5t-44 35.5q-13 22 -14 44q-1 27 6 52q10 24 31 35q4 1 22 10q21 11 78 33q44 18 91 46
q20 12 24 14q63 33 84 47q5 3 76 39q93 46 131 71q41 27 59 43q6 5 18.5 15.5t13.5 11.5q11 9 20 20q15 20 26 20q7 0 11 -5q6 -9 -13 -36q-10 -13 -20 -34q-27 -54 -45 -104l-10 -28v-47q0 -48 -4 -51q-10 -7 -18 10q-6 13 -20 22.5t-26 9.5q-30 0 -101 -37
q-50 -26 -88 -42q-28 -12 -41 -20q-26 -16 -30 -18q-20 -9 -30 -16q-24 -14 -36 -20z" />
    <glyph glyph-name="equal" unicode="=" horiz-adv-x="931" 
d="M102 874q-10 -13 -19 -4q-3 3 -3 7q0 6 19 32q5 8 22 39l13 25l-1 22q0 19 -3 35q-4 16 -33 57q-10 15 -2 23q8 10 22 -5q28 -28 61 -45q16 -7 92 -16q37 -4 109.5 -5.5t93.5 1.5q27 3 77 3q74 1 114 8q31 5 60 9q43 7 56 10q18 4 27 5q21 0 5 -29q-19 -36 4 -83
q2 -3 4 -7.5t3.5 -7.5t3 -5.5t1.5 -3.5q8 -12 13 -17q13 -14 8 -23q-5 -11 -24 2q-17 12 -100 31q-67 15 -143 22q-107 7 -223 1l-54 -5q-66 -6 -126 -28q-33 -14 -67 -37q-4 -3 -10 -11zM844 746q14 -7 -8 -43q-21 -32 -24 -104q-1 -23 11 -56q9 -22 -1 -28q-4 -1 -9 0
q-4 1 -6 7q-6 12 -112 32q-63 12 -179 12q-169 0 -233 -17q-4 -1 -19 -5t-20 -5q-12 -3 -34 -11q-4 -2 -12 -4.5t-19.5 -6.5t-17.5 -6q-30 -10 -38 -18q-12 -13 -20 -3q-6 7 6 30q14 26 19 59q5 21 3 44q-3 32 -21 60q-10 16 -15 27q-4 9 1 14q6 6 12 4q23 -8 39 -24
q16 -17 107 -36q40 -8 93 -10q130 -4 166 4q31 5 53 7q28 3 59 9q4 1 26.5 6.5t36.5 8.5q65 16 85 22q41 14 46 21q4 4 12 8q8 5 13 2z" />
    <glyph glyph-name="greater" unicode="&#x3e;" horiz-adv-x="847" 
d="M777 721q2 -27 -6 -53q-9 -24 -32 -35q-4 -1 -22 -10q-24 -13 -77 -33q-44 -18 -91 -46q-10 -6 -24 -13q-63 -33 -84 -47q-9 -7 -76 -40q-99 -50 -131 -70q-37 -24 -59 -44q-6 -5 -18.5 -15.5t-13.5 -11.5q-11 -9 -20 -20q-15 -20 -26 -20q-7 0 -11 5q-7 9 13 37
q11 15 20 33q27 54 45 104l10 29v47q0 47 4 50q10 7 18 -10q6 -13 20 -22.5t26 -9.5q30 0 101 37q54 28 87 42q26 11 42 21q20 13 30 17q16 7 30 17q12 7 36 19q14 7 32 18.5t18 13.5q-12 6 -19 8q-25 10 -56 29q-12 7 -38 19q-19 8 -40 21q-56 34 -100 54q-42 18 -93 49
q-39 23 -66 26q-49 4 -52 2q-6 -6 -11 -16q-8 -14 -14 -15q-11 -2 -13 10q1 7 5 16q13 32 13 85q0 20 -4.5 67t-7.5 57q-1 4 -2 12.5t-1 9.5q-1 13 1 16.5t10 2.5q7 -1 13 -17q20 -48 41 -60q2 -1 10.5 -7t12.5 -9q12 -8 38 -22q47 -24 90 -54q36 -22 64 -35q47 -22 103 -51
q63 -33 87 -42q26 -10 38 -17q22 -12 37 -18q20 -8 55.5 -32t43.5 -35q13 -22 14 -44z" />
    <glyph glyph-name="question" unicode="?" horiz-adv-x="880" 
d="M371 223q26 0 57 -48q20 -32 21.5 -77t-16.5 -91q-20 -51 -45.5 -72.5t-66.5 -23.5q-25 -1 -38 5q-11 5 -30 25t-30 38q-18 30 -18 87q0 91 48 142q28 31 63 31q16 1 32 -8q11 -7 23 -8zM787 1393q11 -35 13.5 -52t1.5 -47q-5 -123 -19 -175q-5 -19 -15 -68
q-9 -53 -53 -137q-29 -57 -54 -92t-74 -89q-14 -15 -31 -33.5t-30.5 -33.5t-16.5 -18q-52 -55 -83 -140q-11 -32 -14 -37q-21 -46 -9 -179q2 -22 -5 -27q-11 -8 -20 -1q-12 12 -24 31q-21 31 -49 44q-13 6 -13.5 22.5t8.5 81.5q14 95 30 140.5t59 109.5q42 66 94 124
q38 44 41 49q36 58 60 123l12 34v54q0 54 -12 115q-18 94 -39 138q-14 30 -40.5 50.5t-59.5 24.5q-24 3 -64 -6q-24 -6 -35 -9q-30 -7 -47.5 -21t-32.5 -44q-9 -17 -29 -76.5t-20 -67.5q1 -7 7 -19q6 -10 37.5 -40t38.5 -31q6 -2 25 12t38 34q20 20 34 54q28 66 36 73
q5 3 13 1q7 -1 11 -9q3 -6 -3 -21q-6 -14 -7 -22q-6 -26 -11 -40q-8 -27 -21 -79q-12 -49 -19 -64.5t-23 -30.5q-18 -17 -26.5 -22.5t-31.5 -13.5q-53 -19 -84 -4q-31 16 -73.5 67t-65.5 99q-8 17 -9 23.5t0 31.5q1 30 13 90.5t22 88.5q31 88 58 115q24 24 81.5 53t88.5 33
q19 3 50 13q30 10 70 13q5 0 73 7q52 4 84.5 -4t59.5 -32q38 -35 61 -65q6 -9 21.5 -44.5t21.5 -54.5z" />
    <glyph glyph-name="at" unicode="@" horiz-adv-x="1261" 
d="M1172 509q8 -6 0 -15q-7 -10 -9 -14q-2 -5 -8 -13q-5 -8 -8 -16q-8 -16 -13 -24q-6 -11 -16 -35q-4 -9 -24 -52q-14 -32 -38 -55q-27 -27 -32 -31q-6 -5 -16 -19q-9 -18 -29 -28q-16 -10 -26 -21q-20 -24 -46 -28q-24 -5 -38 -18q-15 -12 -38 -20q-15 -5 -35 -16
q-23 -14 -54 -21q-16 -3 -33 -9q-23 -9 -82 -9q-27 1 -56 -5q-44 -10 -80 -2q-5 1 -20 3.5t-20 3.5q-21 3 -50 18q-23 10 -40 24q-21 18 -38 28q-22 13 -35 28q-8 10 -31 33q-25 25 -32 39q-5 9 -21 35q-1 2 -19 33q-2 4 -8 13t-8 13q-7 12 -13 33t-15 38q-9 20 -13 42
q-2 15 -10 38q-7 20 -11 35q-5 20 -9 40q-4 18 -3 135q1 116 4.5 149.5t20.5 90.5q10 34 43 100q32 65 38 81q12 30 49 71q50 55 70 68q47 31 84 61q19 19 39 24q3 1 12 4.5t17.5 7t15.5 6.5q44 19 74 23q17 2 32 6q9 3 53 3q36 0 54 -3q14 -2 36 -4q48 -4 68 -12
q13 -6 29 -9q23 -5 39 -18q7 -5 14 -8q6 -3 15 -12q24 -21 50 -37q3 -1 16 -12q3 -2 9 -6.5t9 -7.5q9 -7 19 -18q4 -6 16 -21q5 -6 11 -20q5 -11 13 -24q20 -29 29 -62q7 -24 10 -31q4 -9 7 -20q5 -16 6 -17q4 -9 5 -71q1 -66 -2 -89q-3 -21 -3 -42q0 -38 -23.5 -120
t-48.5 -132q-24 -47 -53 -81q-10 -10 -18 -23q-8 -16 -27 -30q-16 -12 -23 -19q-11 -12 -26 -17q-15 -4 -36 -14q-21 -9 -26 -11q-15 -5 -19 -7l-16 -6l-29 2q-59 4 -82 14q-35 15 -53 52q-15 29 -11 67q2 28 3 33l1 8l-5 -5q-7 -7 -17 -21q-15 -20 -21 -27q-2 -3 -6.5 -8.5
t-8 -10t-6.5 -8.5q-7 -11 -18 -22q-10 -8 -15 -16q-12 -16 -21 -24q-13 -13 -23 -25q-9 -10 -26 -16q-19 -6 -36 -5q-19 1 -33 8q-27 15 -46 52q-10 20 -13 39q-6 34 -1 100.5t17 117.5l6 30q4 42 15 86q4 14 6 27q13 55 38 111q18 37 46 70q22 25 57 48q2 1 9.5 6t11.5 7
q8 5 20 7q8 0 15 3q19 4 43 4q38 1 47 -3q13 -6 33 -23t27 -28q6 -10 8 -15l1 -1q0 1 1 3q3 14 1 31q-1 27 3 31q5 5 11 3q2 0 7 -0.5t13 -1t14 -0.5q28 -1 48 5q22 8 31 11q2 1 7 2.5t9.5 3l7.5 2.5q18 7 28 14q15 10 20 8q17 -7 -3 -25q-9 -8 -23 -35.5t-21 -52.5
q-5 -19 -2 -21q5 -4 -4 -31q-2 -5 -5 -18.5t-4 -15.5q-2 -5 -6 -19.5t-5 -19.5q-10 -36 -10 -37q-7 -27 -9 -31q-3 -9 -7 -29q-1 -3 -9 -34q-7 -23 -8 -31q-19 -99 -34 -134q-1 -4 -4.5 -12.5t-5.5 -12.5t-4.5 -12t-3.5 -10q-6 -17 -3 -29q0 -18 10 -36q5 -12 12 -20
q9 -9 37 -11q16 -1 25 5q8 6 17 6q7 0 18 10q5 4 12 9q10 6 15 11q6 7 14 11q5 5 8 11q4 7 12 13q10 7 32 47q7 11 18 31q4 5 10 17q0 1 9 21q12 28 26.5 91.5t19.5 105.5q0 4 1 12t2.5 18.5t2.5 16.5q6 53 -3 104q-1 5 -2 11.5t-2.5 12t-1.5 6.5q-3 26 -31 81
q-5 10 -12.5 25.5t-8.5 17.5q-14 31 -62 79q-27 28 -38 36t-33 18q-16 7 -25 14q-14 10 -42 18q-9 3 -20 8q-13 7 -31 9.5t-87 5.5q-31 1 -40 -4q-14 -6 -27 -9q-14 -4 -35 -13q-17 -9 -33 -10q-15 -2 -27 -9q-6 -4 -20 -10q-11 -4 -22 -12q-9 -6 -24 -12q-10 -3 -17 -9
q-10 -7 -14 -9q-6 -2 -24.5 -19t-28.5 -31q-12 -16 -33 -35q-18 -15 -29 -30q-2 -3 -6.5 -11t-6.5 -11q-24 -40 -38 -79q-13 -40 -15 -44q-18 -43 -21 -91q-1 -19 -8 -42q-9 -30 -10 -81q0 -7 -0.5 -20.5t-1.5 -31.5t-1 -28q-2 -50 2 -67q3 -13 5 -39q0 -11 6 -31
q5 -15 5 -29q2 -22 5 -32q1 -4 3 -12.5t3 -12.5q1 -10 6 -19q13 -26 21 -56q11 -32 29 -61q1 -2 5.5 -8.5t6.5 -9.5q10 -14 16 -20q2 -2 15 -20q15 -18 30 -32q16 -19 43 -34q20 -12 29 -19q8 -7 37 -22t38 -17q2 0 7 -2t8 -2q42 -8 85 -9q18 -1 26 2q7 3 17 3q5 0 25 5
q18 4 28 4q11 0 50 12q62 19 74 19q14 3 23 10q3 2 19 10l15 9q4 3 17 10.5t17 10.5q15 9 35 25q7 7 16 13q2 0 24.5 21t31.5 33q25 28 29 33q18 19 29 39q22 39 51 79q8 11 14 24q3 9 9 15l8 8h21q20 0 24 -3zM687 909q4 46 2 48l-4 7q-4 6 -6 11q-6 12 -20 26
q-12 11 -20 11q-16 0 -30 -19q-22 -29 -46 -79t-34 -89q-5 -17 -13 -42q-9 -27 -25 -109q-1 -6 -4.5 -22.5t-4.5 -22.5q-12 -63 -3 -81q4 -7 11 -14t10 -7q8 3 13 10q7 7 12 17q4 7 14 19q34 37 53 65q2 2 6 8t6 8q31 35 57 117q15 49 18 65.5t8 72.5z" />
    <glyph glyph-name="A" unicode="A" horiz-adv-x="1241" 
d="M0 35l-7 8q-6 8 -7 13q3 13 18 16q20 0 87 31q21 9 49 37q30 26 47 62q53 99 95 279q19 86 53 182q2 6 14 43.5t17 53.5q24 79 53 160q33 93 33 109q2 15 6 28q31 107 46 173q10 41 7 76q-3 36 -20 76q-14 35 -25 52t-34 41t-23 32q0 15 16 17q19 -3 33 -17
q18 -15 44 -12q12 1 24 -3q25 -7 43 -11q31 -6 50 -11q19 -6 40 -1q20 3 38 3q16 0 31 6q15 8 32 6t29 5q9 5 31 3q20 -2 21 -8q1 -5 -3 -8.5t-23 -14.5q-19 -12 -40.5 -31t-25.5 -29q-7 -14 -4 -38.5t20 -97.5q8 -30 13 -60q4 -24 14 -50q19 -45 48 -185q18 -86 31 -127
q26 -84 40 -150q20 -97 49 -183q17 -55 29 -101q23 -94 51 -146q26 -49 38 -77q15 -34 31 -60q10 -15 40 -43.5t53 -44.5q6 -4 18.5 -13t13.5 -10q14 -10 22 -14q19 -9 19 -23q0 -9 -11.5 -13.5t-20.5 0.5q-20 13 -148 49q-86 24 -172 23q-56 0 -99 -7q-45 -8 -103 -27.5
t-66 -29.5q-7 -8 -19 -2.5t-12 17.5q0 8 24 29.5t43 30.5q67 31 92 53q22 19 27 61q3 31 -11 113l-6 36q-10 6 -16 9q-20 11 -33 20q-47 34 -151 55q-90 13 -180 18h-19l-1 -11q-3 -22 -7.5 -85.5t-3.5 -78.5q3 -36 39 -92q16 -25 27 -34.5t38 -23.5q20 -10 30 -16
q3 -3 3 -12q0 -5 -5 -10q-7 -6 -107 -1q-204 11 -355 -8zM424 529q-12 -31 -12 -34q24 -10 37 -12q8 -2 59 -2q42 -2 83 6q131 25 131 32q-4 10 -9 23q-9 25 -15 49t-15 49q-13 33 -13 34q-2 7 -8 19q-5 16 -7 38q-5 66 -16 95q-3 8 -9 37q-4 21 -12 43q-6 15 -9 30
q-3 14 -10 30q-6 16 -9 35q-4 22 -10 36l-7 14l-12 -39q-34 -116 -46 -175q-12 -53 -28 -101q-14 -42 -24 -82q-15 -58 -39 -125z" />
    <glyph glyph-name="A" unicode="&#xc5;" horiz-adv-x="1241" 
d="M0 35l-7 8q-6 8 -7 13q3 13 18 16q20 0 87 31q21 9 49 37q30 26 47 62q53 99 95 279q19 86 53 182q2 6 14 43.5t17 53.5q24 79 53 160q33 93 33 109q2 15 6 28q31 107 46 173q10 41 7 76q-3 36 -20 76q-14 35 -25 52t-34 41t-23 32q0 15 16 17q19 -3 33 -17
q18 -15 44 -12q12 1 24 -3q25 -7 43 -11q31 -6 50 -11q19 -6 40 -1q20 3 38 3q16 0 31 6q15 8 32 6t29 5q9 5 31 3q20 -2 21 -8q1 -5 -3 -8.5t-23 -14.5q-19 -12 -40.5 -31t-25.5 -29q-7 -14 -4 -38.5t20 -97.5q8 -30 13 -60q4 -24 14 -50q19 -45 48 -185q18 -86 31 -127
q26 -84 40 -150q20 -97 49 -183q17 -55 29 -101q23 -94 51 -146q26 -49 38 -77q15 -34 31 -60q10 -15 40 -43.5t53 -44.5q6 -4 18.5 -13t13.5 -10q14 -10 22 -14q19 -9 19 -23q0 -9 -11.5 -13.5t-20.5 0.5q-20 13 -148 49q-86 24 -172 23q-56 0 -99 -7q-45 -8 -103 -27.5
t-66 -29.5q-7 -8 -19 -2.5t-12 17.5q0 8 24 29.5t43 30.5q67 31 92 53q22 19 27 61q3 31 -11 113l-6 36q-10 6 -16 9q-20 11 -33 20q-47 34 -151 55q-90 13 -180 18h-19l-1 -11q-3 -22 -7.5 -85.5t-3.5 -78.5q3 -36 39 -92q16 -25 27 -34.5t38 -23.5q20 -10 30 -16
q3 -3 3 -12q0 -5 -5 -10q-7 -6 -107 -1q-204 11 -355 -8zM424 529q-12 -31 -12 -34q24 -10 37 -12q8 -2 59 -2q42 -2 83 6q131 25 131 32q-4 10 -9 23q-9 25 -15 49t-15 49q-13 33 -13 34q-2 7 -8 19q-5 16 -7 38q-5 66 -16 95q-3 8 -9 37q-4 21 -12 43q-6 15 -9 30
q-3 14 -10 30q-6 16 -9 35q-4 22 -10 36l-7 14l-12 -39q-34 -116 -46 -175q-12 -53 -28 -101q-14 -42 -24 -82q-15 -58 -39 -125z" />
    <glyph glyph-name="A" unicode="&#xc4;" horiz-adv-x="1241" 
d="M0 35l-7 8q-6 8 -7 13q3 13 18 16q20 0 87 31q21 9 49 37q30 26 47 62q53 99 95 279q19 86 53 182q2 6 14 43.5t17 53.5q24 79 53 160q33 93 33 109q2 15 6 28q31 107 46 173q10 41 7 76q-3 36 -20 76q-14 35 -25 52t-34 41t-23 32q0 15 16 17q19 -3 33 -17
q18 -15 44 -12q12 1 24 -3q25 -7 43 -11q31 -6 50 -11q19 -6 40 -1q20 3 38 3q16 0 31 6q15 8 32 6t29 5q9 5 31 3q20 -2 21 -8q1 -5 -3 -8.5t-23 -14.5q-19 -12 -40.5 -31t-25.5 -29q-7 -14 -4 -38.5t20 -97.5q8 -30 13 -60q4 -24 14 -50q19 -45 48 -185q18 -86 31 -127
q26 -84 40 -150q20 -97 49 -183q17 -55 29 -101q23 -94 51 -146q26 -49 38 -77q15 -34 31 -60q10 -15 40 -43.5t53 -44.5q6 -4 18.5 -13t13.5 -10q14 -10 22 -14q19 -9 19 -23q0 -9 -11.5 -13.5t-20.5 0.5q-20 13 -148 49q-86 24 -172 23q-56 0 -99 -7q-45 -8 -103 -27.5
t-66 -29.5q-7 -8 -19 -2.5t-12 17.5q0 8 24 29.5t43 30.5q67 31 92 53q22 19 27 61q3 31 -11 113l-6 36q-10 6 -16 9q-20 11 -33 20q-47 34 -151 55q-90 13 -180 18h-19l-1 -11q-3 -22 -7.5 -85.5t-3.5 -78.5q3 -36 39 -92q16 -25 27 -34.5t38 -23.5q20 -10 30 -16
q3 -3 3 -12q0 -5 -5 -10q-7 -6 -107 -1q-204 11 -355 -8zM424 529q-12 -31 -12 -34q24 -10 37 -12q8 -2 59 -2q42 -2 83 6q131 25 131 32q-4 10 -9 23q-9 25 -15 49t-15 49q-13 33 -13 34q-2 7 -8 19q-5 16 -7 38q-5 66 -16 95q-3 8 -9 37q-4 21 -12 43q-6 15 -9 30
q-3 14 -10 30q-6 16 -9 35q-4 22 -10 36l-7 14l-12 -39q-34 -116 -46 -175q-12 -53 -28 -101q-14 -42 -24 -82q-15 -58 -39 -125z" />
    <glyph glyph-name="A" unicode="&#xc3;" horiz-adv-x="1241" 
d="M0 35l-7 8q-6 8 -7 13q3 13 18 16q20 0 87 31q21 9 49 37q30 26 47 62q53 99 95 279q19 86 53 182q2 6 14 43.5t17 53.5q24 79 53 160q33 93 33 109q2 15 6 28q31 107 46 173q10 41 7 76q-3 36 -20 76q-14 35 -25 52t-34 41t-23 32q0 15 16 17q19 -3 33 -17
q18 -15 44 -12q12 1 24 -3q25 -7 43 -11q31 -6 50 -11q19 -6 40 -1q20 3 38 3q16 0 31 6q15 8 32 6t29 5q9 5 31 3q20 -2 21 -8q1 -5 -3 -8.5t-23 -14.5q-19 -12 -40.5 -31t-25.5 -29q-7 -14 -4 -38.5t20 -97.5q8 -30 13 -60q4 -24 14 -50q19 -45 48 -185q18 -86 31 -127
q26 -84 40 -150q20 -97 49 -183q17 -55 29 -101q23 -94 51 -146q26 -49 38 -77q15 -34 31 -60q10 -15 40 -43.5t53 -44.5q6 -4 18.5 -13t13.5 -10q14 -10 22 -14q19 -9 19 -23q0 -9 -11.5 -13.5t-20.5 0.5q-20 13 -148 49q-86 24 -172 23q-56 0 -99 -7q-45 -8 -103 -27.5
t-66 -29.5q-7 -8 -19 -2.5t-12 17.5q0 8 24 29.5t43 30.5q67 31 92 53q22 19 27 61q3 31 -11 113l-6 36q-10 6 -16 9q-20 11 -33 20q-47 34 -151 55q-90 13 -180 18h-19l-1 -11q-3 -22 -7.5 -85.5t-3.5 -78.5q3 -36 39 -92q16 -25 27 -34.5t38 -23.5q20 -10 30 -16
q3 -3 3 -12q0 -5 -5 -10q-7 -6 -107 -1q-204 11 -355 -8zM424 529q-12 -31 -12 -34q24 -10 37 -12q8 -2 59 -2q42 -2 83 6q131 25 131 32q-4 10 -9 23q-9 25 -15 49t-15 49q-13 33 -13 34q-2 7 -8 19q-5 16 -7 38q-5 66 -16 95q-3 8 -9 37q-4 21 -12 43q-6 15 -9 30
q-3 14 -10 30q-6 16 -9 35q-4 22 -10 36l-7 14l-12 -39q-34 -116 -46 -175q-12 -53 -28 -101q-14 -42 -24 -82q-15 -58 -39 -125z" />
    <glyph glyph-name="A" unicode="&#xc2;" horiz-adv-x="1241" 
d="M0 35l-7 8q-6 8 -7 13q3 13 18 16q20 0 87 31q21 9 49 37q30 26 47 62q53 99 95 279q19 86 53 182q2 6 14 43.5t17 53.5q24 79 53 160q33 93 33 109q2 15 6 28q31 107 46 173q10 41 7 76q-3 36 -20 76q-14 35 -25 52t-34 41t-23 32q0 15 16 17q19 -3 33 -17
q18 -15 44 -12q12 1 24 -3q25 -7 43 -11q31 -6 50 -11q19 -6 40 -1q20 3 38 3q16 0 31 6q15 8 32 6t29 5q9 5 31 3q20 -2 21 -8q1 -5 -3 -8.5t-23 -14.5q-19 -12 -40.5 -31t-25.5 -29q-7 -14 -4 -38.5t20 -97.5q8 -30 13 -60q4 -24 14 -50q19 -45 48 -185q18 -86 31 -127
q26 -84 40 -150q20 -97 49 -183q17 -55 29 -101q23 -94 51 -146q26 -49 38 -77q15 -34 31 -60q10 -15 40 -43.5t53 -44.5q6 -4 18.5 -13t13.5 -10q14 -10 22 -14q19 -9 19 -23q0 -9 -11.5 -13.5t-20.5 0.5q-20 13 -148 49q-86 24 -172 23q-56 0 -99 -7q-45 -8 -103 -27.5
t-66 -29.5q-7 -8 -19 -2.5t-12 17.5q0 8 24 29.5t43 30.5q67 31 92 53q22 19 27 61q3 31 -11 113l-6 36q-10 6 -16 9q-20 11 -33 20q-47 34 -151 55q-90 13 -180 18h-19l-1 -11q-3 -22 -7.5 -85.5t-3.5 -78.5q3 -36 39 -92q16 -25 27 -34.5t38 -23.5q20 -10 30 -16
q3 -3 3 -12q0 -5 -5 -10q-7 -6 -107 -1q-204 11 -355 -8zM424 529q-12 -31 -12 -34q24 -10 37 -12q8 -2 59 -2q42 -2 83 6q131 25 131 32q-4 10 -9 23q-9 25 -15 49t-15 49q-13 33 -13 34q-2 7 -8 19q-5 16 -7 38q-5 66 -16 95q-3 8 -9 37q-4 21 -12 43q-6 15 -9 30
q-3 14 -10 30q-6 16 -9 35q-4 22 -10 36l-7 14l-12 -39q-34 -116 -46 -175q-12 -53 -28 -101q-14 -42 -24 -82q-15 -58 -39 -125z" />
    <glyph glyph-name="A" unicode="&#xc1;" horiz-adv-x="1241" 
d="M0 35l-7 8q-6 8 -7 13q3 13 18 16q20 0 87 31q21 9 49 37q30 26 47 62q53 99 95 279q19 86 53 182q2 6 14 43.5t17 53.5q24 79 53 160q33 93 33 109q2 15 6 28q31 107 46 173q10 41 7 76q-3 36 -20 76q-14 35 -25 52t-34 41t-23 32q0 15 16 17q19 -3 33 -17
q18 -15 44 -12q12 1 24 -3q25 -7 43 -11q31 -6 50 -11q19 -6 40 -1q20 3 38 3q16 0 31 6q15 8 32 6t29 5q9 5 31 3q20 -2 21 -8q1 -5 -3 -8.5t-23 -14.5q-19 -12 -40.5 -31t-25.5 -29q-7 -14 -4 -38.5t20 -97.5q8 -30 13 -60q4 -24 14 -50q19 -45 48 -185q18 -86 31 -127
q26 -84 40 -150q20 -97 49 -183q17 -55 29 -101q23 -94 51 -146q26 -49 38 -77q15 -34 31 -60q10 -15 40 -43.5t53 -44.5q6 -4 18.5 -13t13.5 -10q14 -10 22 -14q19 -9 19 -23q0 -9 -11.5 -13.5t-20.5 0.5q-20 13 -148 49q-86 24 -172 23q-56 0 -99 -7q-45 -8 -103 -27.5
t-66 -29.5q-7 -8 -19 -2.5t-12 17.5q0 8 24 29.5t43 30.5q67 31 92 53q22 19 27 61q3 31 -11 113l-6 36q-10 6 -16 9q-20 11 -33 20q-47 34 -151 55q-90 13 -180 18h-19l-1 -11q-3 -22 -7.5 -85.5t-3.5 -78.5q3 -36 39 -92q16 -25 27 -34.5t38 -23.5q20 -10 30 -16
q3 -3 3 -12q0 -5 -5 -10q-7 -6 -107 -1q-204 11 -355 -8zM424 529q-12 -31 -12 -34q24 -10 37 -12q8 -2 59 -2q42 -2 83 6q131 25 131 32q-4 10 -9 23q-9 25 -15 49t-15 49q-13 33 -13 34q-2 7 -8 19q-5 16 -7 38q-5 66 -16 95q-3 8 -9 37q-4 21 -12 43q-6 15 -9 30
q-3 14 -10 30q-6 16 -9 35q-4 22 -10 36l-7 14l-12 -39q-34 -116 -46 -175q-12 -53 -28 -101q-14 -42 -24 -82q-15 -58 -39 -125z" />
    <glyph glyph-name="A" unicode="&#xc0;" horiz-adv-x="1241" 
d="M0 35l-7 8q-6 8 -7 13q3 13 18 16q20 0 87 31q21 9 49 37q30 26 47 62q53 99 95 279q19 86 53 182q2 6 14 43.5t17 53.5q24 79 53 160q33 93 33 109q2 15 6 28q31 107 46 173q10 41 7 76q-3 36 -20 76q-14 35 -25 52t-34 41t-23 32q0 15 16 17q19 -3 33 -17
q18 -15 44 -12q12 1 24 -3q25 -7 43 -11q31 -6 50 -11q19 -6 40 -1q20 3 38 3q16 0 31 6q15 8 32 6t29 5q9 5 31 3q20 -2 21 -8q1 -5 -3 -8.5t-23 -14.5q-19 -12 -40.5 -31t-25.5 -29q-7 -14 -4 -38.5t20 -97.5q8 -30 13 -60q4 -24 14 -50q19 -45 48 -185q18 -86 31 -127
q26 -84 40 -150q20 -97 49 -183q17 -55 29 -101q23 -94 51 -146q26 -49 38 -77q15 -34 31 -60q10 -15 40 -43.5t53 -44.5q6 -4 18.5 -13t13.5 -10q14 -10 22 -14q19 -9 19 -23q0 -9 -11.5 -13.5t-20.5 0.5q-20 13 -148 49q-86 24 -172 23q-56 0 -99 -7q-45 -8 -103 -27.5
t-66 -29.5q-7 -8 -19 -2.5t-12 17.5q0 8 24 29.5t43 30.5q67 31 92 53q22 19 27 61q3 31 -11 113l-6 36q-10 6 -16 9q-20 11 -33 20q-47 34 -151 55q-90 13 -180 18h-19l-1 -11q-3 -22 -7.5 -85.5t-3.5 -78.5q3 -36 39 -92q16 -25 27 -34.5t38 -23.5q20 -10 30 -16
q3 -3 3 -12q0 -5 -5 -10q-7 -6 -107 -1q-204 11 -355 -8zM424 529q-12 -31 -12 -34q24 -10 37 -12q8 -2 59 -2q42 -2 83 6q131 25 131 32q-4 10 -9 23q-9 25 -15 49t-15 49q-13 33 -13 34q-2 7 -8 19q-5 16 -7 38q-5 66 -16 95q-3 8 -9 37q-4 21 -12 43q-6 15 -9 30
q-3 14 -10 30q-6 16 -9 35q-4 22 -10 36l-7 14l-12 -39q-34 -116 -46 -175q-12 -53 -28 -101q-14 -42 -24 -82q-15 -58 -39 -125z" />
    <glyph glyph-name="B" unicode="B" horiz-adv-x="1173" 
d="M205 462q1 41 5 195q3 63 -1 118q-8 123 0 226q14 143 10 181q-11 62 -30 118q-10 28 -53 76t-93 78q-35 19 -19 35q15 15 53 -4q82 -41 186 -30q78 8 135 20q13 3 68 13q11 1 29 7q25 9 118 9q50 0 114 -12t93 -27q69 -34 106 -65q30 -24 46 -36q57 -42 64 -70
q6 -27 18 -51q8 -16 9 -52q0 -5 3 -80q2 -42 -1.5 -63t-16.5 -43q-7 -11 -19 -35q-10 -23 -35.5 -54t-44.5 -41q-5 -3 -24.5 -13.5t-29.5 -16.5q-20 -11 -41 -26q-4 -4 -30 -22l-23 -17l22 -8q46 -20 102 -52q5 -4 39 -32q8 -6 16.5 -14t16.5 -14.5t10 -8.5q36 -28 43 -43
q4 -9 14 -27q8 -14 13 -31q3 -13 11 -26q17 -24 20 -31t4 -25q0 -12 3 -39q3 -14 -3 -26q-5 -17 -7 -40q-1 -21 -6 -42q-4 -14 -4 -21q-6 -26 -13 -42q-3 -8 -11 -27t-10 -25q-10 -24 -22 -42q-17 -25 -19 -31q-8 -12 -22 -26q-10 -9 -36 -35q-32 -30 -77 -48
q-73 -30 -148 -48q-67 -16 -130 -10q-6 0 -22.5 1.5t-33.5 2.5t-30 1q-90 3 -123 14q-11 4 -55 9q-48 6 -69 9q-35 5 -134 -10q-47 -6 -94 -21q-19 -6 -25 -1q-7 9 -7 17t4.5 12.5t28.5 18.5q59 35 88 76q12 17 27.5 64t20.5 82q3 16 8 41q10 41 14 180zM827 597
q-3 3 -11.5 10t-15.5 13.5t-11 10.5q-50 48 -155 67q-38 6 -111 4q-78 -2 -89 -4l-8 -2l1 -33q2 -37 5 -59q4 -36 -3 -142q-3 -33 -3 -90q0 -51 8 -85q15 -64 23.5 -85.5t27.5 -40.5q17 -19 38 -23q2 -1 26 -6q6 -1 18 -7q43 -20 91 -17q25 1 32.5 2.5t26.5 11.5q18 9 36 22
q9 9 30 23q32 23 46.5 44.5t30.5 68.5q23 68 26 135q4 47 -1 73t-23 60q-19 35 -35 49zM421 935l-2 -83l53 3q12 0 27.5 1t26 1.5t13.5 0.5q40 2 64 9t58 27q32 18 47 27q19 11 41 40q34 45 47.5 76.5t18.5 78.5q4 33 1 71l-2 31l-52 53q-36 38 -48 48.5t-35 22.5l-31 18
l-45 -2q-35 -2 -63 -7q-14 -3 -27 -3q-5 1 -7 -1t-7 -11q-6 -12 -20 -36q-34 -56 -43 -174q-4 -57 -9 -82q-6 -54 -6 -109z" />
    <glyph glyph-name="C" unicode="C" horiz-adv-x="1284" 
d="M71 566q-10 37 -17 146q-3 65 14 154q13 66 51 169q23 61 31 86q8 23 31.5 69t41.5 73q33 50 75.5 95.5t78.5 68.5q8 5 24 15.5t20 13.5q8 6 26 14q15 6 39 15q29 10 52 14q35 6 43 8q19 5 38 7q4 0 37 7q17 3 32 -2q17 -5 32 -5q15 2 29 -6q15 -7 33 -9q63 -6 89 -21
q17 -9 29 -13q43 -12 101 -70q30 -30 51 -54l12 -14l9 30q7 23 34 74.5t41 70.5q14 18 33 26.5t32 1.5q7 -4 6.5 -14t-7.5 -17t-18 -29.5t-16 -39.5q-7 -28 -10.5 -154.5t0.5 -229.5q2 -58 10 -110q6 -33 10 -51q1 -8 -7 -15q-4 -4 -12 -6q-5 0 -16.5 8t-18.5 18
q-8 10 -18 40.5t-10 43.5q0 14 -35 109q-14 36 -39 61q-54 57 -78 99q-7 13 -17 24q-8 8 -20 24q-13 19 -36.5 34.5t-41.5 18.5q-11 1 -22 6q-10 5 -19 5q-10 0 -18 4q-10 5 -20 5q-20 2 -29 5q-20 6 -94 -1q-28 -3 -52 -18t-54 -39.5t-40 -36.5q-37 -45 -74 -105
q-12 -22 -19 -52q-12 -44 -20 -65q-10 -25 -12 -36t-3 -54q-1 -72 -19 -152q-15 -66 -8 -131q8 -54 19 -150q6 -61 20 -102q16 -53 38 -93q15 -31 28 -67q13 -38 18 -48t24 -36q21 -28 31 -31q15 -7 43 -23q33 -19 49.5 -23t42.5 1q20 3 41 11q20 8 36 11q92 22 161 51
q51 22 70 57q12 20 20 29q9 11 18 28q4 8 16 22q11 11 34.5 55t23.5 53q10 32 17 48q26 66 43 115q8 23 16 35q14 12 26 -9q3 -9 3 -14t-6 -38q-26 -151 -26 -299q0 -66 9 -121.5t35 -151.5q7 -25 -10.5 -31.5t-36.5 14.5q-21 26 -30 61q-7 24 -15 43q-10 24 -14 37
q-5 17 -13 29q-12 15 -15 15q-6 -6 -28 -33q-49 -59 -90 -89.5t-98 -51.5q-39 -15 -107 -22q-14 -1 -28 -6q-15 -9 -65 -3q-4 0 -24 2l-30 3q-13 1 -39 7q-9 3 -20 3t-22 3q-1 0 -29 6q-13 2 -22.5 7.5t-47.5 30.5q-3 2 -6 3.5t-6.5 3t-5.5 2.5q-15 7 -56 43q-4 4 -8.5 7.5
t-10 7.5t-8.5 6q-13 8 -47 57q-4 7 -16 17q-10 7 -41.5 38.5t-35.5 38.5q-5 15 -7 34q-5 42 -24 78q-5 10 -11 30q-3 10 -11 34q-19 62 -28 110q-4 22 -9 42z" />
    <glyph glyph-name="C" unicode="&#xc7;" horiz-adv-x="1284" 
d="M71 566q-10 37 -17 146q-3 65 14 154q13 66 51 169q23 61 31 86q8 23 31.5 69t41.5 73q33 50 75.5 95.5t78.5 68.5q8 5 24 15.5t20 13.5q8 6 26 14q15 6 39 15q29 10 52 14q35 6 43 8q19 5 38 7q4 0 37 7q17 3 32 -2q17 -5 32 -5q15 2 29 -6q15 -7 33 -9q63 -6 89 -21
q17 -9 29 -13q43 -12 101 -70q30 -30 51 -54l12 -14l9 30q7 23 34 74.5t41 70.5q14 18 33 26.5t32 1.5q7 -4 6.5 -14t-7.5 -17t-18 -29.5t-16 -39.5q-7 -28 -10.5 -154.5t0.5 -229.5q2 -58 10 -110q6 -33 10 -51q1 -8 -7 -15q-4 -4 -12 -6q-5 0 -16.5 8t-18.5 18
q-8 10 -18 40.5t-10 43.5q0 14 -35 109q-14 36 -39 61q-54 57 -78 99q-7 13 -17 24q-8 8 -20 24q-13 19 -36.5 34.5t-41.5 18.5q-11 1 -22 6q-10 5 -19 5q-10 0 -18 4q-10 5 -20 5q-20 2 -29 5q-20 6 -94 -1q-28 -3 -52 -18t-54 -39.5t-40 -36.5q-37 -45 -74 -105
q-12 -22 -19 -52q-12 -44 -20 -65q-10 -25 -12 -36t-3 -54q-1 -72 -19 -152q-15 -66 -8 -131q8 -54 19 -150q6 -61 20 -102q16 -53 38 -93q15 -31 28 -67q13 -38 18 -48t24 -36q21 -28 31 -31q15 -7 43 -23q33 -19 49.5 -23t42.5 1q20 3 41 11q20 8 36 11q92 22 161 51
q51 22 70 57q12 20 20 29q9 11 18 28q4 8 16 22q11 11 34.5 55t23.5 53q10 32 17 48q26 66 43 115q8 23 16 35q14 12 26 -9q3 -9 3 -14t-6 -38q-26 -151 -26 -299q0 -66 9 -121.5t35 -151.5q7 -25 -10.5 -31.5t-36.5 14.5q-21 26 -30 61q-7 24 -15 43q-10 24 -14 37
q-5 17 -13 29q-12 15 -15 15q-6 -6 -28 -33q-49 -59 -90 -89.5t-98 -51.5q-39 -15 -107 -22q-14 -1 -28 -6q-15 -9 -65 -3q-4 0 -24 2l-30 3q-13 1 -39 7q-9 3 -20 3t-22 3q-1 0 -29 6q-13 2 -22.5 7.5t-47.5 30.5q-3 2 -6 3.5t-6.5 3t-5.5 2.5q-15 7 -56 43q-4 4 -8.5 7.5
t-10 7.5t-8.5 6q-13 8 -47 57q-4 7 -16 17q-10 7 -41.5 38.5t-35.5 38.5q-5 15 -7 34q-5 42 -24 78q-5 10 -11 30q-3 10 -11 34q-19 62 -28 110q-4 22 -9 42z" />
    <glyph glyph-name="D" unicode="D" horiz-adv-x="1353" 
d="M178 180q23 36 33 88q6 34 3 40q-5 10 -4 31.5t8 36.5q9 21 14 67t1 77q-4 40 1 324q1 36 -2 135t-5 120q-12 112 -20.5 151.5t-27.5 78.5q-12 26 -25 44q-15 15 -82 51q-37 20 -48 29.5t-6 19.5q7 15 29 7q36 -13 136 -20q58 -4 102.5 1.5t165.5 28.5q35 8 71 6
q114 -4 161 -14q22 -4 43 -7q32 -6 63 -15q49 -13 59 -12t41 -13q26 -12 37 -15q20 -10 35 -21q16 -11 37 -22q22 -10 68.5 -58t76.5 -92q36 -53 89 -151q44 -79 54 -150q1 -3 3.5 -22.5t4.5 -28.5q5 -24 2 -46q-3 -30 -3 -96q-1 -176 -10 -213q-13 -54 -46 -147
q-1 -3 -4 -12.5t-4 -13.5q-8 -28 -48 -89q-43 -68 -87 -109q-82 -77 -160 -113q-26 -13 -77 -30.5t-59 -17.5q-12 -3 -28 -8q-29 -8 -52 -11q-72 -10 -121 -3q-15 2 -60 15q-119 35 -151 39q-105 14 -208 -8l-63 -14q-28 -5 -59 -20q-20 -10 -27 -11t-12 5q-11 12 1 36
q6 12 39.5 48.5t46.5 44.5q14 9 37.5 33.5t36.5 45.5zM450 526q-12 -58 4 -102q10 -30 13 -49q7 -40 22 -100q19 -77 32 -96q28 -42 78 -53q2 0 15.5 -3.5t19.5 -4.5q33 -8 50 0q30 13 57 16q19 3 35 9q8 3 24 7q13 0 40.5 20.5t37.5 38.5q6 8 16 20q4 5 16 27q7 13 17 26
q24 31 49 105q18 50 25 65q11 26 16 72q10 93 3 172l-6 60q-2 4 -5 56.5t-2 79.5q2 60 0 76t-14 49q-34 95 -76 146q-23 30 -32 44q-14 22 -38.5 45t-44.5 33q-31 16 -96 18q-46 2 -65 13q-29 16 -44.5 19.5t-54.5 5.5q-47 2 -56 6q-6 3 -7 -4t-2 -42q-1 -27 -1 -121
q1 -68 -6 -94q-15 -54 -10 -200q4 -101 2 -103q-10 -16 -8 -149q0 -89 -4 -108z" />
    <glyph glyph-name="E" unicode="E" horiz-adv-x="1169" 
d="M695 15q-30 -3 -74.5 -0.5t-64.5 8.5q-32 10 -123 -4q-26 -4 -92 -6q-78 -2 -100 -2q-27 0 -53 -9q-11 -4 -31 -8q-9 -1 -27 -7q-29 -8 -52 -13q-51 -12 -95 -33q-12 -5 -17 -1q-15 13 -2 28q5 8 21.5 17.5t27.5 11.5q17 3 57 30.5t68 54.5q34 34 51 61.5t30 69.5
q11 36 14.5 79.5t-2.5 69.5q-4 15 -5 187q-2 168 0 204q2 44 -1 261q-2 159 -7 173q-5 12 -5 47q1 59 -17 96q-10 19 -19.5 29t-29.5 22q-36 21 -99 32q-42 7 -29 34q6 12 13.5 14.5t27.5 -1.5q49 -10 149 -15q80 -4 91 -6q111 -14 285 -6q82 3 175 17q90 11 192 37
q70 17 76 17q21 0 21 -29q0 -14 -5 -29q-3 -13 -7 -34q-3 -19 -10 -34q-11 -17 -1 -37q5 -9 1 -43q-3 -27 -5 -97q-1 -66 -6 -79q-4 -12 -3 -25q1 -14 0 -29q-1 -10 -2 -12.5t-2.5 -4t-5.5 -1.5q-17 0 -27 26.5t-22 103.5q-11 73 -36 106t-78 46q-46 8 -92 0q-16 -3 -34 -3
q-16 0 -33 -5q-10 -4 -35 -5t-41 3q-13 4 -22 1q-28 -4 -62 -4q-48 -1 -54 -3.5t-12 -26.5q-23 -89 -11 -152q2 -7 6 -61q1 -11 2 -25l2 -28t1 -18q3 -46 1 -118q-1 -38 6 -53q8 -14 20.5 -19.5t54.5 -10.5q40 -5 64 -10q27 -7 60 3q41 9 64 28q5 5 26 50t23 58
q3 17 13 41.5t14 26.5q16 8 27 -7q4 -8 3.5 -12.5t-8.5 -39.5q-23 -97 -23 -123q0 -17 -3 -33q-17 -106 -8 -277q2 -54 -3 -60q-6 -8 -13 -9q-8 -2 -16 4q-10 8 -15 79q-3 32 -8 70q-9 57 -33 87q-10 13 -50 23q-17 4 -49 3.5t-48 -5.5q-15 -5 -29 -7q-11 -3 -20 -10
q-16 -18 -29 -10q-4 2 -13 -1t-11 -8q-2 -7 1.5 -85t7.5 -100q6 -41 -5 -136q-8 -55 1 -106q7 -52 25 -81q11 -18 27 -25q3 -1 14 -6t15 -7q22 -8 35 -9q19 -2 37 -6q15 -4 101 -4q87 0 111 7t54.5 24t42.5 29q13 13 38 47.5t30 44.5q4 10 17.5 66.5t13.5 64.5q0 12 10.5 51
t18.5 57q15 35 34 28q12 -4 14 -31.5t2 -184.5q0 -190 5 -220q2 -9 13 -91q2 -13 -5.5 -19t-24.5 -4.5t-43 9.5q-20 6 -60 14q-30 5 -52 13q-20 7 -67 6q-44 -1 -89 3q-44 5 -79 1z" />
    <glyph glyph-name="E" unicode="&#xcb;" horiz-adv-x="1169" 
d="M695 15q-30 -3 -74.5 -0.5t-64.5 8.5q-32 10 -123 -4q-26 -4 -92 -6q-78 -2 -100 -2q-27 0 -53 -9q-11 -4 -31 -8q-9 -1 -27 -7q-29 -8 -52 -13q-51 -12 -95 -33q-12 -5 -17 -1q-15 13 -2 28q5 8 21.5 17.5t27.5 11.5q17 3 57 30.5t68 54.5q34 34 51 61.5t30 69.5
q11 36 14.5 79.5t-2.5 69.5q-4 15 -5 187q-2 168 0 204q2 44 -1 261q-2 159 -7 173q-5 12 -5 47q1 59 -17 96q-10 19 -19.5 29t-29.5 22q-36 21 -99 32q-42 7 -29 34q6 12 13.5 14.5t27.5 -1.5q49 -10 149 -15q80 -4 91 -6q111 -14 285 -6q82 3 175 17q90 11 192 37
q70 17 76 17q21 0 21 -29q0 -14 -5 -29q-3 -13 -7 -34q-3 -19 -10 -34q-11 -17 -1 -37q5 -9 1 -43q-3 -27 -5 -97q-1 -66 -6 -79q-4 -12 -3 -25q1 -14 0 -29q-1 -10 -2 -12.5t-2.5 -4t-5.5 -1.5q-17 0 -27 26.5t-22 103.5q-11 73 -36 106t-78 46q-46 8 -92 0q-16 -3 -34 -3
q-16 0 -33 -5q-10 -4 -35 -5t-41 3q-13 4 -22 1q-28 -4 -62 -4q-48 -1 -54 -3.5t-12 -26.5q-23 -89 -11 -152q2 -7 6 -61q1 -11 2 -25l2 -28t1 -18q3 -46 1 -118q-1 -38 6 -53q8 -14 20.5 -19.5t54.5 -10.5q40 -5 64 -10q27 -7 60 3q41 9 64 28q5 5 26 50t23 58
q3 17 13 41.5t14 26.5q16 8 27 -7q4 -8 3.5 -12.5t-8.5 -39.5q-23 -97 -23 -123q0 -17 -3 -33q-17 -106 -8 -277q2 -54 -3 -60q-6 -8 -13 -9q-8 -2 -16 4q-10 8 -15 79q-3 32 -8 70q-9 57 -33 87q-10 13 -50 23q-17 4 -49 3.5t-48 -5.5q-15 -5 -29 -7q-11 -3 -20 -10
q-16 -18 -29 -10q-4 2 -13 -1t-11 -8q-2 -7 1.5 -85t7.5 -100q6 -41 -5 -136q-8 -55 1 -106q7 -52 25 -81q11 -18 27 -25q3 -1 14 -6t15 -7q22 -8 35 -9q19 -2 37 -6q15 -4 101 -4q87 0 111 7t54.5 24t42.5 29q13 13 38 47.5t30 44.5q4 10 17.5 66.5t13.5 64.5q0 12 10.5 51
t18.5 57q15 35 34 28q12 -4 14 -31.5t2 -184.5q0 -190 5 -220q2 -9 13 -91q2 -13 -5.5 -19t-24.5 -4.5t-43 9.5q-20 6 -60 14q-30 5 -52 13q-20 7 -67 6q-44 -1 -89 3q-44 5 -79 1z" />
    <glyph glyph-name="E" unicode="&#xca;" horiz-adv-x="1169" 
d="M695 15q-30 -3 -74.5 -0.5t-64.5 8.5q-32 10 -123 -4q-26 -4 -92 -6q-78 -2 -100 -2q-27 0 -53 -9q-11 -4 -31 -8q-9 -1 -27 -7q-29 -8 -52 -13q-51 -12 -95 -33q-12 -5 -17 -1q-15 13 -2 28q5 8 21.5 17.5t27.5 11.5q17 3 57 30.5t68 54.5q34 34 51 61.5t30 69.5
q11 36 14.5 79.5t-2.5 69.5q-4 15 -5 187q-2 168 0 204q2 44 -1 261q-2 159 -7 173q-5 12 -5 47q1 59 -17 96q-10 19 -19.5 29t-29.5 22q-36 21 -99 32q-42 7 -29 34q6 12 13.5 14.5t27.5 -1.5q49 -10 149 -15q80 -4 91 -6q111 -14 285 -6q82 3 175 17q90 11 192 37
q70 17 76 17q21 0 21 -29q0 -14 -5 -29q-3 -13 -7 -34q-3 -19 -10 -34q-11 -17 -1 -37q5 -9 1 -43q-3 -27 -5 -97q-1 -66 -6 -79q-4 -12 -3 -25q1 -14 0 -29q-1 -10 -2 -12.5t-2.5 -4t-5.5 -1.5q-17 0 -27 26.5t-22 103.5q-11 73 -36 106t-78 46q-46 8 -92 0q-16 -3 -34 -3
q-16 0 -33 -5q-10 -4 -35 -5t-41 3q-13 4 -22 1q-28 -4 -62 -4q-48 -1 -54 -3.5t-12 -26.5q-23 -89 -11 -152q2 -7 6 -61q1 -11 2 -25l2 -28t1 -18q3 -46 1 -118q-1 -38 6 -53q8 -14 20.5 -19.5t54.5 -10.5q40 -5 64 -10q27 -7 60 3q41 9 64 28q5 5 26 50t23 58
q3 17 13 41.5t14 26.5q16 8 27 -7q4 -8 3.5 -12.5t-8.5 -39.5q-23 -97 -23 -123q0 -17 -3 -33q-17 -106 -8 -277q2 -54 -3 -60q-6 -8 -13 -9q-8 -2 -16 4q-10 8 -15 79q-3 32 -8 70q-9 57 -33 87q-10 13 -50 23q-17 4 -49 3.5t-48 -5.5q-15 -5 -29 -7q-11 -3 -20 -10
q-16 -18 -29 -10q-4 2 -13 -1t-11 -8q-2 -7 1.5 -85t7.5 -100q6 -41 -5 -136q-8 -55 1 -106q7 -52 25 -81q11 -18 27 -25q3 -1 14 -6t15 -7q22 -8 35 -9q19 -2 37 -6q15 -4 101 -4q87 0 111 7t54.5 24t42.5 29q13 13 38 47.5t30 44.5q4 10 17.5 66.5t13.5 64.5q0 12 10.5 51
t18.5 57q15 35 34 28q12 -4 14 -31.5t2 -184.5q0 -190 5 -220q2 -9 13 -91q2 -13 -5.5 -19t-24.5 -4.5t-43 9.5q-20 6 -60 14q-30 5 -52 13q-20 7 -67 6q-44 -1 -89 3q-44 5 -79 1z" />
    <glyph glyph-name="E" unicode="&#xc9;" horiz-adv-x="1169" 
d="M695 15q-30 -3 -74.5 -0.5t-64.5 8.5q-32 10 -123 -4q-26 -4 -92 -6q-78 -2 -100 -2q-27 0 -53 -9q-11 -4 -31 -8q-9 -1 -27 -7q-29 -8 -52 -13q-51 -12 -95 -33q-12 -5 -17 -1q-15 13 -2 28q5 8 21.5 17.5t27.5 11.5q17 3 57 30.5t68 54.5q34 34 51 61.5t30 69.5
q11 36 14.5 79.5t-2.5 69.5q-4 15 -5 187q-2 168 0 204q2 44 -1 261q-2 159 -7 173q-5 12 -5 47q1 59 -17 96q-10 19 -19.5 29t-29.5 22q-36 21 -99 32q-42 7 -29 34q6 12 13.5 14.5t27.5 -1.5q49 -10 149 -15q80 -4 91 -6q111 -14 285 -6q82 3 175 17q90 11 192 37
q70 17 76 17q21 0 21 -29q0 -14 -5 -29q-3 -13 -7 -34q-3 -19 -10 -34q-11 -17 -1 -37q5 -9 1 -43q-3 -27 -5 -97q-1 -66 -6 -79q-4 -12 -3 -25q1 -14 0 -29q-1 -10 -2 -12.5t-2.5 -4t-5.5 -1.5q-17 0 -27 26.5t-22 103.5q-11 73 -36 106t-78 46q-46 8 -92 0q-16 -3 -34 -3
q-16 0 -33 -5q-10 -4 -35 -5t-41 3q-13 4 -22 1q-28 -4 -62 -4q-48 -1 -54 -3.5t-12 -26.5q-23 -89 -11 -152q2 -7 6 -61q1 -11 2 -25l2 -28t1 -18q3 -46 1 -118q-1 -38 6 -53q8 -14 20.5 -19.5t54.5 -10.5q40 -5 64 -10q27 -7 60 3q41 9 64 28q5 5 26 50t23 58
q3 17 13 41.5t14 26.5q16 8 27 -7q4 -8 3.5 -12.5t-8.5 -39.5q-23 -97 -23 -123q0 -17 -3 -33q-17 -106 -8 -277q2 -54 -3 -60q-6 -8 -13 -9q-8 -2 -16 4q-10 8 -15 79q-3 32 -8 70q-9 57 -33 87q-10 13 -50 23q-17 4 -49 3.5t-48 -5.5q-15 -5 -29 -7q-11 -3 -20 -10
q-16 -18 -29 -10q-4 2 -13 -1t-11 -8q-2 -7 1.5 -85t7.5 -100q6 -41 -5 -136q-8 -55 1 -106q7 -52 25 -81q11 -18 27 -25q3 -1 14 -6t15 -7q22 -8 35 -9q19 -2 37 -6q15 -4 101 -4q87 0 111 7t54.5 24t42.5 29q13 13 38 47.5t30 44.5q4 10 17.5 66.5t13.5 64.5q0 12 10.5 51
t18.5 57q15 35 34 28q12 -4 14 -31.5t2 -184.5q0 -190 5 -220q2 -9 13 -91q2 -13 -5.5 -19t-24.5 -4.5t-43 9.5q-20 6 -60 14q-30 5 -52 13q-20 7 -67 6q-44 -1 -89 3q-44 5 -79 1z" />
    <glyph glyph-name="E" unicode="&#xc8;" horiz-adv-x="1169" 
d="M695 15q-30 -3 -74.5 -0.5t-64.5 8.5q-32 10 -123 -4q-26 -4 -92 -6q-78 -2 -100 -2q-27 0 -53 -9q-11 -4 -31 -8q-9 -1 -27 -7q-29 -8 -52 -13q-51 -12 -95 -33q-12 -5 -17 -1q-15 13 -2 28q5 8 21.5 17.5t27.5 11.5q17 3 57 30.5t68 54.5q34 34 51 61.5t30 69.5
q11 36 14.5 79.5t-2.5 69.5q-4 15 -5 187q-2 168 0 204q2 44 -1 261q-2 159 -7 173q-5 12 -5 47q1 59 -17 96q-10 19 -19.5 29t-29.5 22q-36 21 -99 32q-42 7 -29 34q6 12 13.5 14.5t27.5 -1.5q49 -10 149 -15q80 -4 91 -6q111 -14 285 -6q82 3 175 17q90 11 192 37
q70 17 76 17q21 0 21 -29q0 -14 -5 -29q-3 -13 -7 -34q-3 -19 -10 -34q-11 -17 -1 -37q5 -9 1 -43q-3 -27 -5 -97q-1 -66 -6 -79q-4 -12 -3 -25q1 -14 0 -29q-1 -10 -2 -12.5t-2.5 -4t-5.5 -1.5q-17 0 -27 26.5t-22 103.5q-11 73 -36 106t-78 46q-46 8 -92 0q-16 -3 -34 -3
q-16 0 -33 -5q-10 -4 -35 -5t-41 3q-13 4 -22 1q-28 -4 -62 -4q-48 -1 -54 -3.5t-12 -26.5q-23 -89 -11 -152q2 -7 6 -61q1 -11 2 -25l2 -28t1 -18q3 -46 1 -118q-1 -38 6 -53q8 -14 20.5 -19.5t54.5 -10.5q40 -5 64 -10q27 -7 60 3q41 9 64 28q5 5 26 50t23 58
q3 17 13 41.5t14 26.5q16 8 27 -7q4 -8 3.5 -12.5t-8.5 -39.5q-23 -97 -23 -123q0 -17 -3 -33q-17 -106 -8 -277q2 -54 -3 -60q-6 -8 -13 -9q-8 -2 -16 4q-10 8 -15 79q-3 32 -8 70q-9 57 -33 87q-10 13 -50 23q-17 4 -49 3.5t-48 -5.5q-15 -5 -29 -7q-11 -3 -20 -10
q-16 -18 -29 -10q-4 2 -13 -1t-11 -8q-2 -7 1.5 -85t7.5 -100q6 -41 -5 -136q-8 -55 1 -106q7 -52 25 -81q11 -18 27 -25q3 -1 14 -6t15 -7q22 -8 35 -9q19 -2 37 -6q15 -4 101 -4q87 0 111 7t54.5 24t42.5 29q13 13 38 47.5t30 44.5q4 10 17.5 66.5t13.5 64.5q0 12 10.5 51
t18.5 57q15 35 34 28q12 -4 14 -31.5t2 -184.5q0 -190 5 -220q2 -9 13 -91q2 -13 -5.5 -19t-24.5 -4.5t-43 9.5q-20 6 -60 14q-30 5 -52 13q-20 7 -67 6q-44 -1 -89 3q-44 5 -79 1z" />
    <glyph glyph-name="F" unicode="F" horiz-adv-x="1073" 
d="M4 -61q-3 4 -1.5 18t5.5 19q14 10 30 18q65 32 87 46.5t38 34.5q36 45 50 119q1 5 11 50q13 55 15.5 102.5t0.5 207.5q-1 189 -6 221q-12 70 -4 99q5 23 4 100q0 15 -1.5 76t-2.5 88q-2 85 -5 92q-5 12 -6 25q-5 34 -15 55t-32 45q-21 22 -74 50q-42 21 -68 21
q-8 -2 -14 5q-5 5 -5 14q0 12 8 16.5t30 4.5q17 0 51 -5t39 -9q8 -4 174 -18q74 -7 78 -8q50 -6 139.5 -5t121.5 8q20 5 45 8l52 7q43 6 122 28t109 36q43 20 62 10q12 -6 0 -47q-9 -31 -11 -69t-1 -151q1 -77 1 -181v-41l-8 -6q-8 -6 -17 -2q-16 8 -24 55q-18 111 -44 151
q-2 4 -9 15t-9 14q-6 10 -25.5 27t-31.5 23q-3 1 -16.5 8t-21.5 10q-19 8 -26 9t-29 0q-166 -10 -202 -15q-22 -4 -44 2q-20 5 -38 5h-18l-3 -16q-3 -19 -5 -58q-1 -41 4 -66q6 -30 9 -246q2 -108 7 -110q4 -1 68 -5q64 -3 81 1q40 11 67 39q22 32 42 73q30 61 37 69
q5 7 12 8t14 -4q5 -4 5 -17.5t-6 -66.5q-19 -160 12 -225q11 -24 14 -49q5 -25 9 -53q7 -36 -1 -43q-15 -13 -30 5q-16 25 -26 50q0 2 -17.5 26.5t-24.5 31.5q-10 9 -24 15q-16 7 -89 8q-71 0 -95 4q-20 3 -39 3q-18 0 -19 -7q-4 -20 2 -349q4 -199 26 -225q26 -28 60 -35
q16 -3 35 -9q27 -9 55 -12q29 -4 38 -8t9 -14q0 -5 -6 -13q-6 -6 -61 -5q-90 1 -189 -8q-76 -7 -174 -12q-40 -1 -92 -8q-43 -9 -85 -24t-57 -27q-18 -14 -27 -4z" />
    <glyph glyph-name="G" unicode="G" horiz-adv-x="1394" 
d="M1128 81q-13 -14 -38 -32t-40 -23q-12 -4 -29 -13q-14 -7 -31 -10q-75 -10 -96 -19q-17 -6 -34 -9q-15 -2 -31 -6q-31 -8 -70 -13q-11 -1 -26 -5q-14 -4 -73.5 -4.5t-85.5 3.5q-16 2 -28 7q-16 6 -26 7q-20 3 -84 36q-6 3 -29 14q-24 12 -50 29q-14 9 -48 30
q-19 12 -30 23q-10 10 -22 19q-10 9 -17 22q-6 12 -16 27q-8 13 -13 28q-6 28 -24 54q-11 19 -18 37q-4 12 -26 60q-52 112 -56 130q-6 22 -13 36q-12 21 -15.5 54t-2.5 117q0 76 7 140q6 50 6 58q0 26 33.5 139t55.5 159q28 57 81 118q51 52 112 104q52 43 76 58.5t53 24.5
q17 5 38 13q14 4 27 6q16 2 29 9q22 11 44 11q17 2 31 -1q23 -5 44 -5q19 0 47 -7q7 -3 14 -2q13 0 30 -5q33 -8 92 -35.5t96 -51.5q42 -26 89 -63q6 -6 13 -9q1 1 12 23q49 98 59 103q9 5 17.5 2.5t10.5 -10.5q0 -35 -3 -70q-6 -68 -2 -130q3 -67 0 -144q-4 -79 -2 -132
q1 -44 -1 -56.5t-10 -14.5q-13 -4 -23 9t-19 48q-12 41 -17 55q-20 52 -23 63q-19 58 -48 104q-27 44 -46 66t-47 41q-46 30 -65 30q-10 2 -23 10q-20 10 -55 12q-28 2 -42 1q-9 0 -18 3q-12 4 -45 3.5t-55 -3.5q-28 -5 -66 -34q-4 -3 -32 -21q-35 -20 -72 -72l-36 -48
q-52 -67 -70 -189q-2 -18 -8.5 -58t-7.5 -49q-14 -102 -2 -201q5 -49 9 -108q4 -60 9 -94q13 -77 46 -160q18 -40 49 -91t45 -64q24 -20 26 -22q48 -43 86 -55q25 -6 61 -8q49 -2 57 -4q35 -5 68 11q14 7 35 10q15 2 36 11.5t21 13.5q8 16 14 23q15 23 22 46q4 17 13 33
q9 14 18 36q11 26 15 63q10 106 7 142q-1 24 -16 47q-29 51 -41.5 64.5t-48.5 31.5q-19 10 -52 21q-12 2 -18 7q-5 5 -5 14q0 8 6 14q6 5 27 1q42 -8 112 2q75 11 141 16q33 3 77 11q53 11 70 13q28 4 40.5 8.5t56.5 27.5q27 14 43 13.5t16 -16.5t-62 -60t-87 -82
q-11 -16 -18.5 -69t-7.5 -115q0 -80 -11 -168q-6 -49 -24.5 -94.5t-41.5 -70.5z" />
    <glyph glyph-name="H" unicode="H" horiz-adv-x="1470" 
d="M239 607q2 179 5 204q3 23 4 153.5t-2 185.5q-1 32 -8 72q-7 31 -8 39q-1 13 -8 26q-4 7 -6 15q0 6 -10.5 24.5t-20.5 30.5q-17 21 -59 51t-76 46q-20 9 -30 17q-6 5 -6 13q0 9 5 14q11 11 31 -1q8 -5 14 -6q5 -1 11 -7q9 -8 69 -24q6 -2 18.5 -5.5t13.5 -3.5
q11 -4 26 -4q24 -1 48 -6q96 -16 146 -6q33 6 121 6q18 3 31 12q30 18 65 24q11 2 16 -5q7 -7 8 -11q0 -5 -13 -15t-28 -17q-13 -5 -29 -16q-8 -6 -14 -7q-12 0 -43 -42t-39 -70q-7 -23 -10 -71.5t1 -75.5q6 -54 -4 -116q-4 -27 0 -54q4 -34 4 -54q2 -55 14 -100
q4 -12 9 -15.5t35 -19.5l38 -20l23 1q28 2 52 -4q52 -10 144 -7.5t119 15.5q7 4 39 4q51 -1 54 20q2 8 7 12q11 6 15 26.5t5 84.5q2 87 4 94q3 20 6 64q4 52 -1 81q-2 14 -8 61q-5 39 -19 72q-25 62 -52 87q-13 12 -25 12q-13 0 -21 5q-30 19 -61 26q-38 8 -41 22
q-2 14 9 22q16 10 150 -8q24 -4 52 -1q19 3 55.5 5.5t38.5 1.5q1 -1 69 -5q101 -5 187 14q25 5 52 8q34 3 39 -2q11 -11 4 -22q-3 -4 -35.5 -19.5t-47.5 -20.5q-46 -15 -82 -47q-16 -16 -26 -44l-11 -28l1 -68q1 -67 -4 -106q-6 -43 -2 -100q4 -55 4 -268q0 -50 -0.5 -105
t-0.5 -90v-38v-84q-2 -47 4 -89q5 -28 9 -75q5 -56 6 -63q14 -57 35 -104q17 -31 49 -65q12 -11 38.5 -23.5t44.5 -15.5q10 -1 21 -9t11 -14q-3 -10 -4 -12q-10 -13 -42 -2q-8 3 -22 11q-4 4 -11 6q-11 3 -21 9q-20 12 -39 9q-53 -2 -86 13q-16 7 -51 10q-111 7 -125 13
q-23 10 -43 1q-20 -7 -37 -8q-10 -1 -28 -5q-1 -1 -44 -10q-59 -13 -70 -27q-5 -5 -11 -5q-5 0 -11 6q-7 8 -2 20q3 6 29.5 24t50.5 31q67 34 107 108.5t23 133.5q-4 13 -3 53q2 37 -3 57q-5 22 -5 40q-1 46 -10 105q-4 19 0 47q3 25 -1 46q-4 26 -7.5 32.5t-12.5 8.5
q-41 4 -85 -2q-18 -4 -52.5 -3.5t-53.5 4.5q-16 4 -24 3q-28 -5 -51 -5q-83 -5 -107 -13q-16 -6 -64 -6q-19 1 -57 -3q-8 -2 -19 -10.5t-11 -12.5q-1 -5 -6 -9q-6 -6 -6 -90q0 -83 2 -97q2 -30 0 -45q-4 -30 2 -62q2 -8 5 -29t4 -29q11 -67 21 -79q8 -12 17 -30
q15 -28 57 -55q14 -9 25 -19q12 -10 40 -26q25 -13 30.5 -22t-5.5 -19q-5 -6 -14.5 -4.5t-47.5 15.5q-97 36 -116 36q-16 1 -38 5q-46 8 -72 -4q-11 -6 -20.5 -6.5t-57.5 -0.5q-58 0 -82 -8q-44 -17 -113 -33q-16 -3 -46 -13q-9 -4 -18 -6q-16 4 -16 18q0 13 35 27
q15 6 43 22q31 19 63.5 53.5t44.5 62.5q16 38 23 105q3 30 11 78q7 42 9 223z" />
    <glyph glyph-name="I" unicode="I" horiz-adv-x="694" 
d="M60 1q-26 -8 -32 -9t-10 4q-5 5 -5 14t5 12q3 1 47 22t121 80q32 24 45 58q2 7 8 19q4 22 3 33q0 34 3 60q11 113 6 199q-5 100 -5 155q0 76 -4 146q-4 69 -3 267q2 171 -6 215q-3 18 -14.5 42t-18.5 25q-19 10 -31 20q-20 16 -32 20t-44 6q-49 3 -55 22q-4 14 9 21t42 8
q20 1 129 -2.5t118 -5.5t58 7.5t63 15.5q13 5 47 20q37 17 43 20q7 4 58.5 20.5t56.5 16.5t12 -9.5t7 -16.5q0 -13 -22 -25q-3 -1 -10 -6t-19.5 -13t-20.5 -13q-71 -46 -94 -92q-8 -17 -17 -31q-16 -28 -20 -89q-3 -52 1 -97q4 -52 1 -248q-2 -140 -5 -163q-3 -26 -3 -155
q0 -138 -4 -173q-4 -34 -3.5 -47.5t6.5 -56.5q7 -60 9 -63q0 -1 1 -5t2.5 -12t2.5 -14q9 -47 35 -90q18 -26 80 -59q46 -26 47 -27q5 -4 12 -5q4 0 9.5 -7t5.5 -12q0 -15 -30 -15q-13 0 -20 2q-2 2 -83 6q-84 4 -110 7q-23 3 -61 5q-26 2 -39 4q-1 0 -7 2t-14.5 4t-16.5 4
q-30 7 -83 7q-42 0 -66.5 -4.5t-84.5 -23.5z" />
    <glyph glyph-name="I" unicode="&#xcf;" horiz-adv-x="694" 
d="M60 1q-26 -8 -32 -9t-10 4q-5 5 -5 14t5 12q3 1 47 22t121 80q32 24 45 58q2 7 8 19q4 22 3 33q0 34 3 60q11 113 6 199q-5 100 -5 155q0 76 -4 146q-4 69 -3 267q2 171 -6 215q-3 18 -14.5 42t-18.5 25q-19 10 -31 20q-20 16 -32 20t-44 6q-49 3 -55 22q-4 14 9 21t42 8
q20 1 129 -2.5t118 -5.5t58 7.5t63 15.5q13 5 47 20q37 17 43 20q7 4 58.5 20.5t56.5 16.5t12 -9.5t7 -16.5q0 -13 -22 -25q-3 -1 -10 -6t-19.5 -13t-20.5 -13q-71 -46 -94 -92q-8 -17 -17 -31q-16 -28 -20 -89q-3 -52 1 -97q4 -52 1 -248q-2 -140 -5 -163q-3 -26 -3 -155
q0 -138 -4 -173q-4 -34 -3.5 -47.5t6.5 -56.5q7 -60 9 -63q0 -1 1 -5t2.5 -12t2.5 -14q9 -47 35 -90q18 -26 80 -59q46 -26 47 -27q5 -4 12 -5q4 0 9.5 -7t5.5 -12q0 -15 -30 -15q-13 0 -20 2q-2 2 -83 6q-84 4 -110 7q-23 3 -61 5q-26 2 -39 4q-1 0 -7 2t-14.5 4t-16.5 4
q-30 7 -83 7q-42 0 -66.5 -4.5t-84.5 -23.5z" />
    <glyph glyph-name="I" unicode="&#xce;" horiz-adv-x="694" 
d="M60 1q-26 -8 -32 -9t-10 4q-5 5 -5 14t5 12q3 1 47 22t121 80q32 24 45 58q2 7 8 19q4 22 3 33q0 34 3 60q11 113 6 199q-5 100 -5 155q0 76 -4 146q-4 69 -3 267q2 171 -6 215q-3 18 -14.5 42t-18.5 25q-19 10 -31 20q-20 16 -32 20t-44 6q-49 3 -55 22q-4 14 9 21t42 8
q20 1 129 -2.5t118 -5.5t58 7.5t63 15.5q13 5 47 20q37 17 43 20q7 4 58.5 20.5t56.5 16.5t12 -9.5t7 -16.5q0 -13 -22 -25q-3 -1 -10 -6t-19.5 -13t-20.5 -13q-71 -46 -94 -92q-8 -17 -17 -31q-16 -28 -20 -89q-3 -52 1 -97q4 -52 1 -248q-2 -140 -5 -163q-3 -26 -3 -155
q0 -138 -4 -173q-4 -34 -3.5 -47.5t6.5 -56.5q7 -60 9 -63q0 -1 1 -5t2.5 -12t2.5 -14q9 -47 35 -90q18 -26 80 -59q46 -26 47 -27q5 -4 12 -5q4 0 9.5 -7t5.5 -12q0 -15 -30 -15q-13 0 -20 2q-2 2 -83 6q-84 4 -110 7q-23 3 -61 5q-26 2 -39 4q-1 0 -7 2t-14.5 4t-16.5 4
q-30 7 -83 7q-42 0 -66.5 -4.5t-84.5 -23.5z" />
    <glyph glyph-name="I" unicode="&#xcd;" horiz-adv-x="694" 
d="M60 1q-26 -8 -32 -9t-10 4q-5 5 -5 14t5 12q3 1 47 22t121 80q32 24 45 58q2 7 8 19q4 22 3 33q0 34 3 60q11 113 6 199q-5 100 -5 155q0 76 -4 146q-4 69 -3 267q2 171 -6 215q-3 18 -14.5 42t-18.5 25q-19 10 -31 20q-20 16 -32 20t-44 6q-49 3 -55 22q-4 14 9 21t42 8
q20 1 129 -2.5t118 -5.5t58 7.5t63 15.5q13 5 47 20q37 17 43 20q7 4 58.5 20.5t56.5 16.5t12 -9.5t7 -16.5q0 -13 -22 -25q-3 -1 -10 -6t-19.5 -13t-20.5 -13q-71 -46 -94 -92q-8 -17 -17 -31q-16 -28 -20 -89q-3 -52 1 -97q4 -52 1 -248q-2 -140 -5 -163q-3 -26 -3 -155
q0 -138 -4 -173q-4 -34 -3.5 -47.5t6.5 -56.5q7 -60 9 -63q0 -1 1 -5t2.5 -12t2.5 -14q9 -47 35 -90q18 -26 80 -59q46 -26 47 -27q5 -4 12 -5q4 0 9.5 -7t5.5 -12q0 -15 -30 -15q-13 0 -20 2q-2 2 -83 6q-84 4 -110 7q-23 3 -61 5q-26 2 -39 4q-1 0 -7 2t-14.5 4t-16.5 4
q-30 7 -83 7q-42 0 -66.5 -4.5t-84.5 -23.5z" />
    <glyph glyph-name="I" unicode="&#xcc;" horiz-adv-x="694" 
d="M60 1q-26 -8 -32 -9t-10 4q-5 5 -5 14t5 12q3 1 47 22t121 80q32 24 45 58q2 7 8 19q4 22 3 33q0 34 3 60q11 113 6 199q-5 100 -5 155q0 76 -4 146q-4 69 -3 267q2 171 -6 215q-3 18 -14.5 42t-18.5 25q-19 10 -31 20q-20 16 -32 20t-44 6q-49 3 -55 22q-4 14 9 21t42 8
q20 1 129 -2.5t118 -5.5t58 7.5t63 15.5q13 5 47 20q37 17 43 20q7 4 58.5 20.5t56.5 16.5t12 -9.5t7 -16.5q0 -13 -22 -25q-3 -1 -10 -6t-19.5 -13t-20.5 -13q-71 -46 -94 -92q-8 -17 -17 -31q-16 -28 -20 -89q-3 -52 1 -97q4 -52 1 -248q-2 -140 -5 -163q-3 -26 -3 -155
q0 -138 -4 -173q-4 -34 -3.5 -47.5t6.5 -56.5q7 -60 9 -63q0 -1 1 -5t2.5 -12t2.5 -14q9 -47 35 -90q18 -26 80 -59q46 -26 47 -27q5 -4 12 -5q4 0 9.5 -7t5.5 -12q0 -15 -30 -15q-13 0 -20 2q-2 2 -83 6q-84 4 -110 7q-23 3 -61 5q-26 2 -39 4q-1 0 -7 2t-14.5 4t-16.5 4
q-30 7 -83 7q-42 0 -66.5 -4.5t-84.5 -23.5z" />
    <glyph glyph-name="J" unicode="J" horiz-adv-x="886" 
d="M869 1527q8 -2 13 -12.5t3 -19.5q-4 -15 -99 -67q-71 -38 -86 -52q-9 -7 -13 -19t0 -19q3 -8 -3 -38q-16 -79 -6 -273q6 -118 -2 -162q-5 -31 -5 -273q0 -252 -3 -288q-13 -190 -62 -225q-19 -13 -79.5 -41.5t-78.5 -32.5q-24 -6 -36 -10q-15 -5 -45 -11q-21 -3 -42 -9
q-44 -11 -83 0q-46 13 -90.5 46.5t-76.5 77.5q-32 45 -39 72t-7 112q0 78 7 114q16 83 39 115q32 41 78 67l25 13l31 -1q49 -1 78 -32q66 -69 61 -136q-2 -25 -20 -62.5t-29 -40.5q-12 -3 -17 6t0 23q7 14 15 43q11 36 5 56t-38 55q-18 19 -29.5 24.5t-35.5 5.5h-24l-11 -19
q-21 -36 -23 -105q-3 -76 13 -129q6 -19 10 -24.5t23 -22.5q31 -27 44 -33t42 -6q24 0 30 1.5t19 10.5q22 14 34 19q39 20 58 57q8 18 15 40q6 21 5.5 51t-9.5 260q-8 220 1 307q6 60 2.5 184.5t-12.5 180.5q-8 51 -14.5 65.5t-27.5 27.5q-20 12 -137 39q-29 7 -38.5 12
t-9.5 15q0 13 22 20q11 4 55.5 -1.5t74.5 -14.5q60 -19 119 -19q57 -4 115 13q1 0 67 15q68 16 138 37q22 7 51.5 11t37.5 2z" />
    <glyph glyph-name="K" unicode="K" horiz-adv-x="1462" 
d="M226 251q1 7 10 62q6 43 5 82q-3 118 4 218q3 48 -8 176q-3 44 0 88q2 39 0 151t-6 179t-13.5 96t-35.5 55q-22 22 -43 32t-73 24q-13 4 -39 14q-16 13 -17 17q0 12 8 18q7 7 31 5q47 -5 81 -14q82 -17 218 -17q80 0 106 8q30 9 86 10q53 1 83 8q65 15 75 9q12 -6 7 -25
q-4 -17 -19 -24q-30 -15 -37 -19q-17 -10 -45 -19q-48 -13 -82 -32q-14 -7 -26 -19q-17 -32 -17 -287q0 -102 -3 -210q-2 -74 -1 -84l2 -18l9 7q23 21 37 39q19 25 36 40q22 20 38 39q36 41 64 70q29 31 65 75q43 53 91 102q33 35 67 79.5t47 69.5q21 41 7 72q-5 12 -17 20
t-80 43q-34 18 -40 22q-6 5 -5.5 15t7.5 16q6 6 39 6q20 0 58 4q28 4 117 4q106 1 175 12q2 0 63 10q61 9 115 25q41 11 49 3q4 -4 3.5 -13.5t-4.5 -12.5q-34 -16 -52 -22q-50 -19 -82.5 -39t-71.5 -56q-9 -9 -45 -36q-75 -56 -119 -114q-12 -16 -40 -48q-22 -24 -52 -64
q-33 -44 -80 -98l-45 -52l4 -15q2 -4 7 -19l7 -21q7 -19 16 -49q12 -39 40 -98.5t43 -77.5q35 -43 55 -95q20 -44 32 -65q21 -34 29 -49q14 -25 33 -57q23 -38 44 -78q18 -34 36 -62q9 -12 27 -42q22 -36 79 -85q25 -22 50 -54q19 -21 30 -30q20 -17 47.5 -32.5t40.5 -15.5
q14 0 18.5 -10.5t-4.5 -21.5q-6 -8 -18.5 -7.5t-82.5 10.5q-127 17 -275 20q-120 4 -177 0t-101 -19q-36 -12 -44 -8q-18 8 11 40q15 16 23.5 20.5t36.5 10.5q32 7 39 10q19 6 43 17.5t30 18.5q7 7 7 35q0 29 -9 45q-7 11 -12 26q-5 12 -16 29q-57 95 -68 123q-3 7 -11 19
q-13 19 -30 55q-18 39 -35 69q-21 37 -29 55q-14 29 -27 49q-30 39 -47 68q-11 18 -21 41q-6 17 -14 30l-8 13l-32 -34q-29 -29 -44 -49q-9 -12 -44 -47l-33 -32v-56q0 -38 -5 -98q-7 -86 -1 -178q3 -29 13.5 -71.5t18.5 -56.5q15 -27 75 -66q31 -21 52 -39q11 -11 26 -21
q6 -4 8 -13q2 -8 -5 -15q-6 -5 -11.5 -4.5t-27.5 7.5q-111 34 -241 27q-55 -5 -103 5q-32 5 -64 0q-68 -6 -120 -25q-32 -12 -42.5 -13.5t-15.5 4.5q-7 7 -2.5 22t14.5 15q5 0 36 16.5t44 26.5q33 25 61.5 82.5t38.5 117.5z" />
    <glyph glyph-name="L" unicode="L" horiz-adv-x="1136" 
d="M693 15q-30 -3 -74.5 -0.5t-64.5 8.5q-32 10 -123 -4q-26 -4 -92 -6q-78 -2 -100 -2q-27 0 -53 -9q-11 -4 -31 -8q-9 -1 -27 -7q-10 -4 -52 -13q-51 -12 -95 -33q-12 -5 -17 -1q-6 5 -7 13.5t4 14.5q5 7 22 17t28 12q17 3 57 30.5t68 54.5q34 34 51 61.5t30 69.5
q11 36 14.5 79.5t-2.5 69.5q-4 15 -5 187q-2 168 0 204q2 44 -1 261q-2 159 -7 173q-5 12 -5 47q1 59 -17 96q-10 19 -19.5 29t-29.5 22q-36 21 -99 32q-42 7 -29 34q6 12 13.5 14.5t27.5 -1.5q49 -10 149 -15q44 -2 91 -6q20 -1 66 4.5t114 5.5q26 0 65.5 11t55.5 11
q3 -2 2 -11.5t-3 -21.5l-2 -11q-16 -10 -39 -16q-37 -9 -41 -12q-8 -5 -16.5 -10.5t-14.5 -9.5q-16 -10 -22 -24t-7 -35.5t-3 -30.5q-23 -89 -11 -152q2 -7 6 -61q1 -11 2 -25l2 -28t1 -18q3 -46 1 -118q0 -16 -3 -40.5t-2 -35.5q1 -9 2 -21t2 -19.5t1 -10.5q0 -7 -2 -29
t-2 -33v-33q-2 -7 1.5 -85t7.5 -100q7 -42 -6 -136q-7 -51 2 -106q7 -52 25 -81q11 -18 27 -25q3 -1 14 -6t15 -7q22 -8 35 -9q19 -2 37 -6q15 -4 101 -4q85 0 110 7q24 8 55 24.5t43 28.5q13 13 37.5 47t29.5 45t18.5 67t13.5 64q0 12 10.5 51t18.5 57q15 35 34 28
q12 -4 14 -31.5t2 -184.5q0 -190 5 -220q2 -9 13 -91q2 -13 -5.5 -19t-24.5 -4.5t-43 9.5q-20 6 -60 14q-30 5 -52 13q-20 7 -67 6q-44 -1 -89 3q-44 5 -79 1z" />
    <glyph glyph-name="M" unicode="M" horiz-adv-x="1779" 
d="M908 442q10 27 25 62q17 40 40 106q22 63 36 99q12 30 44 108q33 81 41 107q7 24 27 71q17 39 29 72q16 41 29 66q29 62 52 128q5 17 12 33q8 18 17 49q14 50 38 102q14 27 61 4q17 -8 63 -8q63 1 152.5 10.5t125.5 19.5q49 13 60 4q4 -4 4.5 -15t-3.5 -16
q-23 -20 -49 -33q-14 -8 -41 -26q-8 -5 -25.5 -17.5t-23.5 -16.5q-44 -29 -55.5 -63t-12.5 -139q-2 -99 -4 -117q-7 -101 -11 -533q-1 -190 3 -241q4 -58 9 -79.5t20 -45.5q30 -49 85 -75q36 -18 61 -33q18 -11 36 -17q14 0 17 -13q4 -14 -7 -20q-9 -3 -13.5 -3t-41.5 5
q-61 9 -90 17q-70 18 -94 21.5t-74 4.5q-41 1 -83 -3q-101 -19 -210 -31l-66 -7l-5 8q-6 8 -5 16q1 10 18 19l21 12q14 7 26 11q16 5 27 13q7 5 16 10q8 3 14 9q5 5 13 10q13 8 21 14q7 6 24 18q14 11 25 27q9 13 11 21t5 41q4 48 -1 234q-3 126 -3 310q0 144 -5 219
q-6 67 -4 119l1 56q-4 -7 -62 -142q-41 -99 -79 -210q-48 -143 -84 -221q-15 -33 -23 -49q-11 -26 -26 -70q-14 -45 -27 -75q-56 -136 -56 -167q0 -12 4.5 -18t24.5 -21q33 -25 22 -41q-10 -16 -37 0q-11 6 -54 25l-42 18h-35q-45 0 -130 -26q-50 -16 -60 -7q-11 11 -4 22
q23 22 49 36q22 11 22 27q0 7 -21.5 68t-38.5 103q-9 20 -20 52q-15 41 -31 72q-17 33 -31 69q-15 38 -24 65q-3 7 -14 37.5t-15 43.5q-9 29 -21 57q-7 16 -17 48q-15 45 -38 92q-26 54 -45 102q-20 51 -24 59l-8 18v-81q0 -81 -7 -132q-7 -50 -4 -98q6 -114 0 -229
q-5 -92 5 -220.5t25 -171.5q10 -30 42.5 -67t68.5 -60q8 -5 56 -37q27 -19 29 -29q4 -11 -4 -17q-5 -5 -11.5 -5t-41.5 3q-47 5 -50 7q-1 0 -68 8q-62 6 -115 3q-64 -3 -134 -14q-39 -6 -56 -8q-6 -1 -16.5 -2t-17 -2t-9.5 -1q-12 -2 -19 5q-6 6 -6 14q0 9 7 14q33 24 70 44
q56 34 86 61q26 24 41 54q16 33 18.5 63.5t2.5 183.5q0 163 6 229q12 120 6 199q-12 154 -10 223q3 102 -2 137q-3 19 -7 66q-3 37 -9.5 52t-31.5 44q-23 26 -39 32q-38 14 -121 59q-14 8 -18 12t-5 11q-1 11 7.5 19.5t18.5 6.5q45 -8 82 -19q21 -8 98 -24.5t94 -16.5
q25 0 79.5 16t77.5 30q17 10 27.5 1t21.5 -44q30 -97 43 -122q3 -5 23 -53q16 -38 23 -52q10 -21 14 -41q5 -25 44 -118q34 -84 51 -141q23 -78 45 -130q2 -5 10 -24t11 -28q19 -45 45 -101q31 -66 65 -164q10 -27 13 -34l7 13q1 2 2 5z" />
    <glyph glyph-name="N" unicode="N" horiz-adv-x="1435" 
d="M1280 -49q-36 14 -72.5 17t-107.5 -3q-49 -5 -56 0q-5 4 -7 12q0 9 4 14q7 4 23 8q20 5 25 12.5t-0.5 20.5t-24.5 41q-11 14 -21 32t-16 27q-12 19 -26 42q-17 28 -40 55q-51 62 -94 135q-34 56 -102 143q-34 44 -43 58q-36 54 -43 64q-16 24 -36 57q-31 56 -74 115
q-33 43 -78 111t-57 92q-10 21 -24 43q-1 2 -6 9t-9 14t-7 12q-21 40 -34 47q-2 1 -2 -1q0 -1 -0.5 -13t-1.5 -33t-1 -40q-2 -89 -5 -126q-3 -38 -7 -139q-5 -132 -6 -143q-4 -58 1 -176.5t13 -167.5q4 -29 9 -58q6 -34 11 -51q4 -15 17 -36.5t17 -21.5q14 -10 20 -16
q21 -18 45 -30q28 -15 47 -31q13 -11 28 -22q8 -3 10 -13q1 -9 -6 -15q-6 -5 -24 -2q-11 2 -31 8q-30 10 -84 19.5t-81 9.5q-74 0 -208 -17q-50 -7 -58.5 -7t-13.5 4q-8 9 -6 17t14.5 14.5t29.5 6.5q10 0 41.5 16t43.5 27q21 20 43.5 74.5t28.5 101.5q12 101 10 257
q-2 129 -5 143q-4 13 -3 113t5 123q4 20 4 89t-4 92q-2 11 -4 72q-2 64 -16 120q-7 29 -27 64t-40 51q-1 1 -35 32q-26 26 -91 58q-21 10 -27.5 17.5t-3.5 18.5q2 8 9 11t39 -12q49 -24 89 -26q42 -3 67 -5q32 -3 86 -3q69 -2 134 24q25 11 33 5q19 -13 -4 -37
q-8 -8 -12 -17q0 -7 66 -92q38 -47 52 -70q100 -146 123 -186q12 -21 38 -54q32 -41 121 -171q21 -29 46 -76q29 -59 81 -122q52 -66 103 -146l23 -35l2 13q3 14 3.5 354.5t-2.5 374.5q-3 30 -3 50q1 29 -24 56q-18 18 -23 18q-16 4 -24 8q-19 8 -40 5q-44 -7 -68 15
q-14 12 -4 25q11 15 99 10q130 -7 186 3q50 9 95 28q42 14 64 19q38 8 50 11q15 4 21 -2t6 -15t-6 -15q-14 -18 -67 -37q-28 -12 -46 -23q-20 -12 -41 -23q-16 -10 -28 -25q-25 -29 -33 -78q-16 -91 -9 -420q2 -115 9 -144q5 -23 5.5 -30.5t-3.5 -33.5q-2 -14 -10 -53
q-15 -67 -8 -189q5 -76 6 -132q3 -121 26 -200q7 -26 11.5 -32.5t20.5 -15.5q12 -7 36 -32.5t24 -31.5q-2 -8 -5 -12q-9 -12 -35 -1z" />
    <glyph glyph-name="N" unicode="&#xd1;" horiz-adv-x="1435" 
d="M1280 -49q-36 14 -72.5 17t-107.5 -3q-49 -5 -56 0q-5 4 -7 12q0 9 4 14q7 4 23 8q20 5 25 12.5t-0.5 20.5t-24.5 41q-11 14 -21 32t-16 27q-12 19 -26 42q-17 28 -40 55q-51 62 -94 135q-34 56 -102 143q-34 44 -43 58q-36 54 -43 64q-16 24 -36 57q-31 56 -74 115
q-33 43 -78 111t-57 92q-10 21 -24 43q-1 2 -6 9t-9 14t-7 12q-21 40 -34 47q-2 1 -2 -1q0 -1 -0.5 -13t-1.5 -33t-1 -40q-2 -89 -5 -126q-3 -38 -7 -139q-5 -132 -6 -143q-4 -58 1 -176.5t13 -167.5q4 -29 9 -58q6 -34 11 -51q4 -15 17 -36.5t17 -21.5q14 -10 20 -16
q21 -18 45 -30q28 -15 47 -31q13 -11 28 -22q8 -3 10 -13q1 -9 -6 -15q-6 -5 -24 -2q-11 2 -31 8q-30 10 -84 19.5t-81 9.5q-74 0 -208 -17q-50 -7 -58.5 -7t-13.5 4q-8 9 -6 17t14.5 14.5t29.5 6.5q10 0 41.5 16t43.5 27q21 20 43.5 74.5t28.5 101.5q12 101 10 257
q-2 129 -5 143q-4 13 -3 113t5 123q4 20 4 89t-4 92q-2 11 -4 72q-2 64 -16 120q-7 29 -27 64t-40 51q-1 1 -35 32q-26 26 -91 58q-21 10 -27.5 17.5t-3.5 18.5q2 8 9 11t39 -12q49 -24 89 -26q42 -3 67 -5q32 -3 86 -3q69 -2 134 24q25 11 33 5q19 -13 -4 -37
q-8 -8 -12 -17q0 -7 66 -92q38 -47 52 -70q100 -146 123 -186q12 -21 38 -54q32 -41 121 -171q21 -29 46 -76q29 -59 81 -122q52 -66 103 -146l23 -35l2 13q3 14 3.5 354.5t-2.5 374.5q-3 30 -3 50q1 29 -24 56q-18 18 -23 18q-16 4 -24 8q-19 8 -40 5q-44 -7 -68 15
q-14 12 -4 25q11 15 99 10q130 -7 186 3q50 9 95 28q42 14 64 19q38 8 50 11q15 4 21 -2t6 -15t-6 -15q-14 -18 -67 -37q-28 -12 -46 -23q-20 -12 -41 -23q-16 -10 -28 -25q-25 -29 -33 -78q-16 -91 -9 -420q2 -115 9 -144q5 -23 5.5 -30.5t-3.5 -33.5q-2 -14 -10 -53
q-15 -67 -8 -189q5 -76 6 -132q3 -121 26 -200q7 -26 11.5 -32.5t20.5 -15.5q12 -7 36 -32.5t24 -31.5q-2 -8 -5 -12q-9 -12 -35 -1z" />
    <glyph glyph-name="O" unicode="O" horiz-adv-x="1431" 
d="M1329 1013q25 -74 43 -258q3 -32 1.5 -85.5t-6.5 -74.5q-5 -25 -9 -41q-3 -12 -8 -47q-8 -73 -22 -90q-6 -14 -7 -22q-7 -30 -22 -64t-29 -50q-7 -7 -12 -17q0 -7 -20 -32.5t-32 -34.5q-20 -16 -43 -39q-33 -33 -81 -66q-14 -9 -23 -16q-12 -10 -30 -16q-21 -9 -34 -17
q-17 -10 -37 -16q-19 -5 -44 -14q-25 -10 -53 -12q-25 -2 -44 -7q-22 -5 -40 -5q-48 -1 -96 -17q-19 -7 -40 -1q-17 3 -35 7q-19 4 -42 13q-20 8 -40 12q-35 7 -61 31q-20 19 -68 38q-24 8 -44 27q-12 12 -37 32q-34 25 -55 61q-9 14 -31 38q-70 70 -85 99q-13 25 -29 77
t-21 82q-9 71 -25 133q-14 52 -16 84.5t4 87.5q16 145 29 185q10 35 13 56q13 71 33 103l15 23q14 22 24 38q30 48 47 69q20 24 46 60q21 28 47 49q11 8 41 34q42 36 96 61q21 10 56 19t49 9q13 2 21 7q28 17 155 16q91 -2 99 -4q12 -3 38 -7q60 -11 109 -42q28 -16 43 -22
q50 -20 86 -44q20 -14 56.5 -48.5t43.5 -45.5l9 -15q10 -15 17 -25q17 -27 29 -53q4 -11 14 -31q24 -38 37 -99q7 -37 20 -73zM1098 583q15 64 11 113q-5 62 -11 171q-8 131 -19 166q-14 46 -44 116q-11 27 -24 59q-22 55 -37 78.5t-35 35.5q-2 2 -15.5 9.5t-21.5 12.5
q-18 12 -39 20l-10.5 3.5l-19.5 6.5t-20 7q-76 26 -106 26q-18 2 -27 5q-14 5 -35 0q-18 -4 -55.5 -23t-52.5 -31q-47 -39 -87 -84q-29 -31 -44 -63q-12 -25 -31 -81.5t-21 -73.5q0 -4 -6 -40q-4 -19 -9 -99.5t-5 -118.5q0 -16 5 -71q4 -44 4 -80q0 -75 11 -155
q7 -37 38 -113q6 -15 20.5 -49.5t17.5 -42.5q31 -73 61 -100q59 -54 120 -61q17 -2 39 -11q37 -15 80 -14q32 0 61 12q6 2 16 6t16.5 6.5t9.5 3.5q47 18 86 41q32 22 46 35q19 18 42 35q13 9 21 25t23 61q4 11 12.5 36.5l11.5 34.5q9 24 11 36t3 59q3 59 9 91z" />
    <glyph glyph-name="O" unicode="&#xd8;" horiz-adv-x="1431" 
d="M1329 1013q25 -74 43 -258q3 -32 1.5 -85.5t-6.5 -74.5q-5 -25 -9 -41q-3 -12 -8 -47q-8 -73 -22 -90q-6 -14 -7 -22q-7 -30 -22 -64t-29 -50q-7 -7 -12 -17q0 -7 -20 -32.5t-32 -34.5q-20 -16 -43 -39q-33 -33 -81 -66q-14 -9 -23 -16q-12 -10 -30 -16q-21 -9 -34 -17
q-17 -10 -37 -16q-19 -5 -44 -14q-25 -10 -53 -12q-25 -2 -44 -7q-22 -5 -40 -5q-48 -1 -96 -17q-19 -7 -40 -1q-17 3 -35 7q-19 4 -42 13q-20 8 -40 12q-35 7 -61 31q-20 19 -68 38q-24 8 -44 27q-12 12 -37 32q-34 25 -55 61q-9 14 -31 38q-70 70 -85 99q-13 25 -29 77
t-21 82q-9 71 -25 133q-14 52 -16 84.5t4 87.5q16 145 29 185q10 35 13 56q13 71 33 103l15 23q14 22 24 38q30 48 47 69q20 24 46 60q21 28 47 49q11 8 41 34q42 36 96 61q21 10 56 19t49 9q13 2 21 7q28 17 155 16q91 -2 99 -4q12 -3 38 -7q60 -11 109 -42q28 -16 43 -22
q50 -20 86 -44q20 -14 56.5 -48.5t43.5 -45.5l9 -15q10 -15 17 -25q17 -27 29 -53q4 -11 14 -31q24 -38 37 -99q7 -37 20 -73zM1098 583q15 64 11 113q-5 62 -11 171q-8 131 -19 166q-14 46 -44 116q-11 27 -24 59q-22 55 -37 78.5t-35 35.5q-2 2 -15.5 9.5t-21.5 12.5
q-18 12 -39 20l-10.5 3.5l-19.5 6.5t-20 7q-76 26 -106 26q-18 2 -27 5q-14 5 -35 0q-18 -4 -55.5 -23t-52.5 -31q-47 -39 -87 -84q-29 -31 -44 -63q-12 -25 -31 -81.5t-21 -73.5q0 -4 -6 -40q-4 -19 -9 -99.5t-5 -118.5q0 -16 5 -71q4 -44 4 -80q0 -75 11 -155
q7 -37 38 -113q6 -15 20.5 -49.5t17.5 -42.5q31 -73 61 -100q59 -54 120 -61q17 -2 39 -11q37 -15 80 -14q32 0 61 12q6 2 16 6t16.5 6.5t9.5 3.5q47 18 86 41q32 22 46 35q19 18 42 35q13 9 21 25t23 61q4 11 12.5 36.5l11.5 34.5q9 24 11 36t3 59q3 59 9 91z" />
    <glyph glyph-name="O" unicode="&#xd6;" horiz-adv-x="1431" 
d="M1329 1013q25 -74 43 -258q3 -32 1.5 -85.5t-6.5 -74.5q-5 -25 -9 -41q-3 -12 -8 -47q-8 -73 -22 -90q-6 -14 -7 -22q-7 -30 -22 -64t-29 -50q-7 -7 -12 -17q0 -7 -20 -32.5t-32 -34.5q-20 -16 -43 -39q-33 -33 -81 -66q-14 -9 -23 -16q-12 -10 -30 -16q-21 -9 -34 -17
q-17 -10 -37 -16q-19 -5 -44 -14q-25 -10 -53 -12q-25 -2 -44 -7q-22 -5 -40 -5q-48 -1 -96 -17q-19 -7 -40 -1q-17 3 -35 7q-19 4 -42 13q-20 8 -40 12q-35 7 -61 31q-20 19 -68 38q-24 8 -44 27q-12 12 -37 32q-34 25 -55 61q-9 14 -31 38q-70 70 -85 99q-13 25 -29 77
t-21 82q-9 71 -25 133q-14 52 -16 84.5t4 87.5q16 145 29 185q10 35 13 56q13 71 33 103l15 23q14 22 24 38q30 48 47 69q20 24 46 60q21 28 47 49q11 8 41 34q42 36 96 61q21 10 56 19t49 9q13 2 21 7q28 17 155 16q91 -2 99 -4q12 -3 38 -7q60 -11 109 -42q28 -16 43 -22
q50 -20 86 -44q20 -14 56.5 -48.5t43.5 -45.5l9 -15q10 -15 17 -25q17 -27 29 -53q4 -11 14 -31q24 -38 37 -99q7 -37 20 -73zM1098 583q15 64 11 113q-5 62 -11 171q-8 131 -19 166q-14 46 -44 116q-11 27 -24 59q-22 55 -37 78.5t-35 35.5q-2 2 -15.5 9.5t-21.5 12.5
q-18 12 -39 20l-10.5 3.5l-19.5 6.5t-20 7q-76 26 -106 26q-18 2 -27 5q-14 5 -35 0q-18 -4 -55.5 -23t-52.5 -31q-47 -39 -87 -84q-29 -31 -44 -63q-12 -25 -31 -81.5t-21 -73.5q0 -4 -6 -40q-4 -19 -9 -99.5t-5 -118.5q0 -16 5 -71q4 -44 4 -80q0 -75 11 -155
q7 -37 38 -113q6 -15 20.5 -49.5t17.5 -42.5q31 -73 61 -100q59 -54 120 -61q17 -2 39 -11q37 -15 80 -14q32 0 61 12q6 2 16 6t16.5 6.5t9.5 3.5q47 18 86 41q32 22 46 35q19 18 42 35q13 9 21 25t23 61q4 11 12.5 36.5l11.5 34.5q9 24 11 36t3 59q3 59 9 91z" />
    <glyph glyph-name="O" unicode="&#xd5;" horiz-adv-x="1431" 
d="M1329 1013q25 -74 43 -258q3 -32 1.5 -85.5t-6.5 -74.5q-5 -25 -9 -41q-3 -12 -8 -47q-8 -73 -22 -90q-6 -14 -7 -22q-7 -30 -22 -64t-29 -50q-7 -7 -12 -17q0 -7 -20 -32.5t-32 -34.5q-20 -16 -43 -39q-33 -33 -81 -66q-14 -9 -23 -16q-12 -10 -30 -16q-21 -9 -34 -17
q-17 -10 -37 -16q-19 -5 -44 -14q-25 -10 -53 -12q-25 -2 -44 -7q-22 -5 -40 -5q-48 -1 -96 -17q-19 -7 -40 -1q-17 3 -35 7q-19 4 -42 13q-20 8 -40 12q-35 7 -61 31q-20 19 -68 38q-24 8 -44 27q-12 12 -37 32q-34 25 -55 61q-9 14 -31 38q-70 70 -85 99q-13 25 -29 77
t-21 82q-9 71 -25 133q-14 52 -16 84.5t4 87.5q16 145 29 185q10 35 13 56q13 71 33 103l15 23q14 22 24 38q30 48 47 69q20 24 46 60q21 28 47 49q11 8 41 34q42 36 96 61q21 10 56 19t49 9q13 2 21 7q28 17 155 16q91 -2 99 -4q12 -3 38 -7q60 -11 109 -42q28 -16 43 -22
q50 -20 86 -44q20 -14 56.5 -48.5t43.5 -45.5l9 -15q10 -15 17 -25q17 -27 29 -53q4 -11 14 -31q24 -38 37 -99q7 -37 20 -73zM1098 583q15 64 11 113q-5 62 -11 171q-8 131 -19 166q-14 46 -44 116q-11 27 -24 59q-22 55 -37 78.5t-35 35.5q-2 2 -15.5 9.5t-21.5 12.5
q-18 12 -39 20l-10.5 3.5l-19.5 6.5t-20 7q-76 26 -106 26q-18 2 -27 5q-14 5 -35 0q-18 -4 -55.5 -23t-52.5 -31q-47 -39 -87 -84q-29 -31 -44 -63q-12 -25 -31 -81.5t-21 -73.5q0 -4 -6 -40q-4 -19 -9 -99.5t-5 -118.5q0 -16 5 -71q4 -44 4 -80q0 -75 11 -155
q7 -37 38 -113q6 -15 20.5 -49.5t17.5 -42.5q31 -73 61 -100q59 -54 120 -61q17 -2 39 -11q37 -15 80 -14q32 0 61 12q6 2 16 6t16.5 6.5t9.5 3.5q47 18 86 41q32 22 46 35q19 18 42 35q13 9 21 25t23 61q4 11 12.5 36.5l11.5 34.5q9 24 11 36t3 59q3 59 9 91z" />
    <glyph glyph-name="O" unicode="&#xd4;" horiz-adv-x="1431" 
d="M1329 1013q25 -74 43 -258q3 -32 1.5 -85.5t-6.5 -74.5q-5 -25 -9 -41q-3 -12 -8 -47q-8 -73 -22 -90q-6 -14 -7 -22q-7 -30 -22 -64t-29 -50q-7 -7 -12 -17q0 -7 -20 -32.5t-32 -34.5q-20 -16 -43 -39q-33 -33 -81 -66q-14 -9 -23 -16q-12 -10 -30 -16q-21 -9 -34 -17
q-17 -10 -37 -16q-19 -5 -44 -14q-25 -10 -53 -12q-25 -2 -44 -7q-22 -5 -40 -5q-48 -1 -96 -17q-19 -7 -40 -1q-17 3 -35 7q-19 4 -42 13q-20 8 -40 12q-35 7 -61 31q-20 19 -68 38q-24 8 -44 27q-12 12 -37 32q-34 25 -55 61q-9 14 -31 38q-70 70 -85 99q-13 25 -29 77
t-21 82q-9 71 -25 133q-14 52 -16 84.5t4 87.5q16 145 29 185q10 35 13 56q13 71 33 103l15 23q14 22 24 38q30 48 47 69q20 24 46 60q21 28 47 49q11 8 41 34q42 36 96 61q21 10 56 19t49 9q13 2 21 7q28 17 155 16q91 -2 99 -4q12 -3 38 -7q60 -11 109 -42q28 -16 43 -22
q50 -20 86 -44q20 -14 56.5 -48.5t43.5 -45.5l9 -15q10 -15 17 -25q17 -27 29 -53q4 -11 14 -31q24 -38 37 -99q7 -37 20 -73zM1098 583q15 64 11 113q-5 62 -11 171q-8 131 -19 166q-14 46 -44 116q-11 27 -24 59q-22 55 -37 78.5t-35 35.5q-2 2 -15.5 9.5t-21.5 12.5
q-18 12 -39 20l-10.5 3.5l-19.5 6.5t-20 7q-76 26 -106 26q-18 2 -27 5q-14 5 -35 0q-18 -4 -55.5 -23t-52.5 -31q-47 -39 -87 -84q-29 -31 -44 -63q-12 -25 -31 -81.5t-21 -73.5q0 -4 -6 -40q-4 -19 -9 -99.5t-5 -118.5q0 -16 5 -71q4 -44 4 -80q0 -75 11 -155
q7 -37 38 -113q6 -15 20.5 -49.5t17.5 -42.5q31 -73 61 -100q59 -54 120 -61q17 -2 39 -11q37 -15 80 -14q32 0 61 12q6 2 16 6t16.5 6.5t9.5 3.5q47 18 86 41q32 22 46 35q19 18 42 35q13 9 21 25t23 61q4 11 12.5 36.5l11.5 34.5q9 24 11 36t3 59q3 59 9 91z" />
    <glyph glyph-name="O" unicode="&#xd3;" horiz-adv-x="1431" 
d="M1329 1013q25 -74 43 -258q3 -32 1.5 -85.5t-6.5 -74.5q-5 -25 -9 -41q-3 -12 -8 -47q-8 -73 -22 -90q-6 -14 -7 -22q-7 -30 -22 -64t-29 -50q-7 -7 -12 -17q0 -7 -20 -32.5t-32 -34.5q-20 -16 -43 -39q-33 -33 -81 -66q-14 -9 -23 -16q-12 -10 -30 -16q-21 -9 -34 -17
q-17 -10 -37 -16q-19 -5 -44 -14q-25 -10 -53 -12q-25 -2 -44 -7q-22 -5 -40 -5q-48 -1 -96 -17q-19 -7 -40 -1q-17 3 -35 7q-19 4 -42 13q-20 8 -40 12q-35 7 -61 31q-20 19 -68 38q-24 8 -44 27q-12 12 -37 32q-34 25 -55 61q-9 14 -31 38q-70 70 -85 99q-13 25 -29 77
t-21 82q-9 71 -25 133q-14 52 -16 84.5t4 87.5q16 145 29 185q10 35 13 56q13 71 33 103l15 23q14 22 24 38q30 48 47 69q20 24 46 60q21 28 47 49q11 8 41 34q42 36 96 61q21 10 56 19t49 9q13 2 21 7q28 17 155 16q91 -2 99 -4q12 -3 38 -7q60 -11 109 -42q28 -16 43 -22
q50 -20 86 -44q20 -14 56.5 -48.5t43.5 -45.5l9 -15q10 -15 17 -25q17 -27 29 -53q4 -11 14 -31q24 -38 37 -99q7 -37 20 -73zM1098 583q15 64 11 113q-5 62 -11 171q-8 131 -19 166q-14 46 -44 116q-11 27 -24 59q-22 55 -37 78.5t-35 35.5q-2 2 -15.5 9.5t-21.5 12.5
q-18 12 -39 20l-10.5 3.5l-19.5 6.5t-20 7q-76 26 -106 26q-18 2 -27 5q-14 5 -35 0q-18 -4 -55.5 -23t-52.5 -31q-47 -39 -87 -84q-29 -31 -44 -63q-12 -25 -31 -81.5t-21 -73.5q0 -4 -6 -40q-4 -19 -9 -99.5t-5 -118.5q0 -16 5 -71q4 -44 4 -80q0 -75 11 -155
q7 -37 38 -113q6 -15 20.5 -49.5t17.5 -42.5q31 -73 61 -100q59 -54 120 -61q17 -2 39 -11q37 -15 80 -14q32 0 61 12q6 2 16 6t16.5 6.5t9.5 3.5q47 18 86 41q32 22 46 35q19 18 42 35q13 9 21 25t23 61q4 11 12.5 36.5l11.5 34.5q9 24 11 36t3 59q3 59 9 91z" />
    <glyph glyph-name="O" unicode="&#xd2;" horiz-adv-x="1431" 
d="M1329 1013q25 -74 43 -258q3 -32 1.5 -85.5t-6.5 -74.5q-5 -25 -9 -41q-3 -12 -8 -47q-8 -73 -22 -90q-6 -14 -7 -22q-7 -30 -22 -64t-29 -50q-7 -7 -12 -17q0 -7 -20 -32.5t-32 -34.5q-20 -16 -43 -39q-33 -33 -81 -66q-14 -9 -23 -16q-12 -10 -30 -16q-21 -9 -34 -17
q-17 -10 -37 -16q-19 -5 -44 -14q-25 -10 -53 -12q-25 -2 -44 -7q-22 -5 -40 -5q-48 -1 -96 -17q-19 -7 -40 -1q-17 3 -35 7q-19 4 -42 13q-20 8 -40 12q-35 7 -61 31q-20 19 -68 38q-24 8 -44 27q-12 12 -37 32q-34 25 -55 61q-9 14 -31 38q-70 70 -85 99q-13 25 -29 77
t-21 82q-9 71 -25 133q-14 52 -16 84.5t4 87.5q16 145 29 185q10 35 13 56q13 71 33 103l15 23q14 22 24 38q30 48 47 69q20 24 46 60q21 28 47 49q11 8 41 34q42 36 96 61q21 10 56 19t49 9q13 2 21 7q28 17 155 16q91 -2 99 -4q12 -3 38 -7q60 -11 109 -42q28 -16 43 -22
q50 -20 86 -44q20 -14 56.5 -48.5t43.5 -45.5l9 -15q10 -15 17 -25q17 -27 29 -53q4 -11 14 -31q24 -38 37 -99q7 -37 20 -73zM1098 583q15 64 11 113q-5 62 -11 171q-8 131 -19 166q-14 46 -44 116q-11 27 -24 59q-22 55 -37 78.5t-35 35.5q-2 2 -15.5 9.5t-21.5 12.5
q-18 12 -39 20l-10.5 3.5l-19.5 6.5t-20 7q-76 26 -106 26q-18 2 -27 5q-14 5 -35 0q-18 -4 -55.5 -23t-52.5 -31q-47 -39 -87 -84q-29 -31 -44 -63q-12 -25 -31 -81.5t-21 -73.5q0 -4 -6 -40q-4 -19 -9 -99.5t-5 -118.5q0 -16 5 -71q4 -44 4 -80q0 -75 11 -155
q7 -37 38 -113q6 -15 20.5 -49.5t17.5 -42.5q31 -73 61 -100q59 -54 120 -61q17 -2 39 -11q37 -15 80 -14q32 0 61 12q6 2 16 6t16.5 6.5t9.5 3.5q47 18 86 41q32 22 46 35q19 18 42 35q13 9 21 25t23 61q4 11 12.5 36.5l11.5 34.5q9 24 11 36t3 59q3 59 9 91z" />
    <glyph glyph-name="P" unicode="P" horiz-adv-x="1210" 
d="M63 1441q14 -5 92 -5q60 0 84 2.5t75 12.5q20 4 56 8q37 4 85 16q60 14 95 17t131 2q112 -1 159 -7.5t95 -24.5q46 -18 73 -38t49 -52q15 -20 40 -45q26 -25 35 -44t38 -107q19 -49 14 -108q-2 -16 -7 -66q-6 -63 -25 -92q-36 -49 -72 -85q-8 -8 -24 -28
q-25 -33 -85 -70.5t-102 -45.5q-21 -4 -37 -9q-35 -10 -98 -20.5t-77 -8.5q-17 0 -35 -5q-33 -8 -66 -6h-46q-6 0 -4 -22q7 -79 1 -106t-6 -82q-2 -152 9 -204q3 -15 7 -45q5 -38 34 -70q17 -17 29 -33q15 -16 30 -24q23 -12 32 -19q49 -34 66 -38q12 -2 16.5 -12t-3.5 -18
q-6 -5 -41 -5q-24 0 -56 5q-31 7 -53 16q-50 19 -144 25q-156 9 -212 -3q-8 -2 -19 -4t-19 -3.5t-11 -2.5q-43 -11 -57 -15q-34 -10 -45 -10.5t-16 9.5q-7 12 8 21q25 15 54 40q16 13 61 45q60 41 73 67q2 4 18 46q14 37 15 71q2 36 -3 59q-6 37 -6 74q0 50 7 79q7 31 5 72
q-1 33 -8 71q-5 25 -4 168q1 78 1 160q0 33 -2 52q-13 120 -13 189q0 17 -3 37t0 39l2 17l-22 26q-16 19 -34 33q-23 9 -46 15q-30 8 -45 14q-4 2 -29 12q-19 7 -44.5 21t-27.5 19q-9 13 3 22q6 6 23 6t32 -5zM512 936q-3 -38 -1 -85l1 -64l19 -3q19 -2 82 -4t72 -1
q10 2 20 2q37 5 64 32q10 14 24 18q11 3 20 15q7 10 18 18q8 5 12 13t17 41q13 36 20 89q5 42 5 75q-11 132 -17 147q-18 41 -71 76q-17 12 -36 21q-14 3 -22 7q-22 8 -45 11q-17 2 -43 8q-51 14 -74 11q-28 -2 -42 -1l-21 2l2 -51q2 -54 5 -71q3 -10 1 -23q-1 -16 2 -36
q4 -33 -1 -85q-5 -48 -7 -97q-2 -56 -4 -65z" />
    <glyph glyph-name="Q" unicode="Q" horiz-adv-x="1449" 
d="M1365 997q4 -14 13 -47q8 -27 13 -117t1 -131q-12 -104 -49 -210q-12 -32 -29 -99q-23 -92 -47 -126q-29 -38 -52 -77q-25 -38 -58 -62q-18 -12 -27 -19l-17 -13l9 -6q24 -19 26 -21q12 -11 31 -21q20 -8 58 -35.5t55 -46.5q17 -14 34 -18q9 -2 19.5 -11.5t10.5 -15.5
q0 -15 -15 -17q-21 5 -35 13q-58 26 -131 35q-32 6 -48 11q-129 39 -245 22q-39 -5 -72 -6q-30 -1 -65 -8q-30 -6 -45 -6q-30 -2 -58 -6q-38 -6 -76 -6q-66 1 -135 -22q-36 -12 -42 -12q-3 0 -72 -28q-97 -40 -127 -67q-11 -10 -15 -11t-12 4q-15 11 1 32q21 26 37 52
q4 8 40.5 34.5t60.5 39.5q57 29 76 53l10 13l-28 25q-18 17 -46 36q-35 21 -61 48q-45 49 -77 118q-6 12 -15 33.5t-11 25.5q-45 101 -60.5 144.5t-24.5 93.5q-9 51 -10 145t7 153q22 163 72 263q27 54 80 130t86 109q38 36 101 70q26 14 49 30t36.5 20t77.5 17q2 0 32.5 6
t41.5 8q93 18 231 -10q23 -5 42 -7q30 -4 80.5 -26.5t77.5 -44.5q10 -8 32 -20q28 -14 70 -60q42 -47 59 -78q4 -6 10 -17t9.5 -18t5.5 -10q16 -28 24 -44q15 -30 27 -48q7 -10 20 -39q8 -19 18 -35q9 -14 12 -24q1 -3 4 -16.5t5 -21.5zM1106 697q2 118 -4 178
q-9 97 -22 132q-6 17 -9 34q-1 3 -16 57q-43 146 -103 181q-16 9 -47 32q-49 34 -77 43q-9 3 -25 11q-22 10 -47 12q-13 1 -39 7q-6 2 -18 2q-7 0 -12 5q-8 9 -60 -1q-23 -6 -37 -7q-8 0 -35.5 -18t-44.5 -35q-34 -34 -70 -94.5t-53 -112.5q-34 -105 -50 -228
q-4 -39 -2.5 -160.5t6.5 -172.5q12 -128 70 -270q43 -106 116 -142q24 -12 50 -26q25 -13 59 -15q17 -1 46 -5q16 -4 55 -3.5t60 4.5q77 14 129 48q17 12 29 35q14 26 37 50q19 19 26.5 32.5t19.5 47.5q10 25 13 31q9 24 14 48q31 136 35 168.5t6 131.5z" />
    <glyph glyph-name="R" unicode="R" horiz-adv-x="1458" 
d="M1481 -28q-7 -6 -49 1q-38 6 -110 9.5t-116 1.5q-160 -7 -216 -32q-30 -13 -62 -18q-34 -6 -40 -6t-11 7q-13 18 25 37q58 28 72 44q7 7 5 32q-2 22 -10 40q-2 4 -10.5 22t-13.5 29q-20 44 -37 74q-22 39 -35 70q-20 48 -41 80q-17 25 -26 51t-26 51q-18 26 -29 46
q-18 32 -47 68t-36 36q-3 0 -6.5 1t-8 2.5t-6.5 2.5q-16 6 -82 7q-40 0 -71 4q-5 2 -5 -4q0 -3 1 -15q5 -56 6 -76q4 -55 5 -58q2 -4 4 -66q5 -115 21 -177q4 -15 6 -32q0 -9 13.5 -45.5t23.5 -54.5q13 -25 38.5 -48t41.5 -25q24 -4 24 -21q0 -13 -11.5 -18.5t-24.5 1.5
q-58 30 -216 42q-93 7 -214 -16q-29 -5 -79 -19t-58 -19q-11 -7 -23 -3t-12 15q0 7 3 10.5t15 9.5q22 11 50.5 37t37.5 43q4 8 20 32q30 44 41 69.5t25 78.5l15 55l1 107q1 100 -2 179q-5 80 -1 145q3 49 0 99q-3 28 1 52q4 26 0 41q-11 48 -11 118q0 35 -4 73q-5 32 -1 57
q9 64 -3 97q-15 40 -35 65q-35 44 -90 58q-80 24 -87 38q-3 8 -1 14q3 8 10 11q9 5 33 0q52 -10 128 -15.5t102 -1.5q22 3 45 3q27 0 57 3q263 22 334 19q107 -5 176 -29q23 -7 59.5 -30t48.5 -36q40 -47 48 -65t35 -72q23 -46 30 -69.5t9 -62.5q3 -55 -12 -144
q-6 -34 -19 -54q-12 -19 -25 -43q-10 -20 -48 -58q-69 -69 -98 -84q-5 -3 -20.5 -10.5t-20.5 -10.5l-21 -11l11 -7q13 -10 24 -24q14 -20 21 -27q9 -9 40 -58q33 -53 45 -66q18 -23 112 -206q56 -110 92 -154q16 -20 31 -32t63 -45q54 -38 104 -59q56 -24 69 -31t14 -15
q1 -9 -5 -15zM844 1082q0 74 -3 94.5t-22 65.5q-11 26 -32 45q-15 14 -35 26q-12 7 -22 14q-11 10 -57 26q-47 16 -84 17q-24 1 -63.5 -2t-41.5 -5q-4 -4 9 -71q3 -14 -0.5 -124t-8.5 -168q-7 -88 -2 -193l2 -25l16 1q32 4 46 6q54 6 68 7q27 1 36 3.5t32 14.5q19 11 44 17
q12 2 31 10t24 15q13 14 46 81q17 34 17 145z" />
    <glyph glyph-name="S" unicode="S" horiz-adv-x="1001" 
d="M928 290q-3 -7 -7 -21q-11 -44 -31 -67q-8 -10 -14 -20t-15 -18q-10 -8 -14 -18q-8 -19 -30 -46t-45 -44q-6 -4 -33 -28q-24 -23 -47 -25q-9 -1 -27 -7q-41 -18 -84 -21q-7 0 -22 -0.5t-19 -1.5q-23 0 -35 1q-19 2 -52 18q-20 10 -55 21t-57 22q-32 16 -63 47
q-20 20 -43 50q-12 18 -21 27l-8 8l-7 -22q-27 -86 -55 -114q-11 -12 -22 -11q-13 1 -15.5 12t-2.5 57q0 44 -7 107q-7 57 -15 264q-3 84 -1 99.5t14 15.5q13 -2 18 -6q17 -13 28 -106q7 -61 19 -99q6 -17 19 -39.5t21 -30.5q2 -2 16 -14.5t22 -19.5q48 -44 98 -102
q14 -17 53 -29q20 -7 40 -18q37 -20 92 -12q29 4 38 1q8 -3 10 -1q7 5 11 5q18 8 33 21q20 16 36 25q8 4 18.5 15t10.5 17q3 10 9 17q6 9 9 21q1 10 7 21q10 22 8.5 94.5t-12.5 94.5q-24 50 -111 104q-9 5 -41 28q-64 44 -80 44q-22 14 -33 22q-15 11 -35 21q-13 0 -53 35
q-22 21 -42 36q-23 18 -30 25q-9 7 -24 17q-21 11 -57 80q-15 29 -35 47q-20 20 -27.5 33.5t-17.5 51.5q-2 7 -7 23t-6 20q-5 17 -5 92q0 72 4 92q2 6 8 41q5 28 16 51q22 50 45 83t64 74q31 30 56 41q24 12 42 20q14 7 59 7h17q38 0 76 -3q17 -3 34 -3q20 0 63 -20
q23 -10 56 -28q9 -6 31 -22q36 -24 86 -76q12 -12 18 -17t7 -3q2 4 6 20q7 19 22 57q8 20 15 32.5t13 19t11.5 6t11.5 -5.5q11 -11 3 -42q-6 -23 -14 -142.5t-8 -182.5q0 -56 -4.5 -69t-21.5 -8q-6 1 -8.5 7t-8.5 38q-12 66 -41 127q-13 25 -20.5 36t-33.5 37q-20 21 -48 53
q-10 13 -21 23q-8 7 -28.5 20.5t-23.5 13.5q-1 1 -9.5 4t-12.5 5q-30 16 -77 9q-50 -6 -92 -28q-21 -10 -30.5 -18.5t-32.5 -36.5q-19 -23 -23 -35.5t-6 -47.5q-1 -40 4 -58q1 -5 5 -18t5 -17q17 -66 117 -123q17 -11 31 -22q15 -12 47 -32q21 -13 64 -41q41 -27 65 -42
q50 -31 79 -55.5t69 -67.5q76 -85 95 -132q7 -21 31 -64q18 -34 29 -66q13 -52 11 -112q-7 -74 -19 -98z" />
    <glyph glyph-name="T" unicode="T" horiz-adv-x="1277" 
d="M1261 1460q6 -12 -7 -38q-14 -27 -27.5 -89.5t-17.5 -128.5q-1 -17 -8 -80q-4 -38 -4 -54q0 -44 -10 -50q-12 -7 -22 3q-5 5 -5 29q0 28 -9 53q-9 29 -9 33q0 8 -47 102q-12 23 -17 30.5t-16 14.5q-23 16 -68 29.5t-86 17.5q-17 2 -79 -0.5t-64 -4.5q-9 -9 -9 -191
q0 -92 2 -396q1 -283 -3 -323q-4 -47 1 -83q5 -43 5 -77q0 -40 8 -64q11 -38 39 -68q45 -46 128 -88q20 -10 36 -20q9 -6 20 -9q16 -3 18 -20q0 -6 -6 -12q-6 -5 -18.5 -4t-58.5 11q-30 6 -118 17q-73 10 -137 7q-124 -3 -238 -11q-33 -2 -75 -9.5t-52 -12.5q-17 -9 -29 3
q-7 7 -5 15q2 9 9 13q6 5 13 6q4 0 56 29q95 54 128 91q30 34 39.5 68t9.5 103q0 64 -3 89q-7 72 -7 252t7 247q4 38 4 113t-4 108q-5 46 -4 192q1 15 -1 45q-2 2 -78.5 -2t-94.5 -7q-67 -12 -91 -26q-20 -13 -40 -33q-26 -26 -53 -74q-23 -39 -46 -87q-42 -86 -56 -88
q-8 -1 -16 5.5t-8 13.5q0 5 11.5 39t16.5 43q4 18 6 38q1 14 4 52q2 31 -3 51q-4 24 -3 48q2 26 -18 79q-2 6 -8.5 22.5t-8.5 23.5q-6 18 -15 32q-14 20 -1 32q13 11 36 -6q88 -62 202 -71q23 -2 157 1.5t150 6.5q11 2 101 0.5t155 -5.5q119 -3 218 5q143 18 179 25
q24 5 32.5 4t12.5 -10z" />
    <glyph glyph-name="U" unicode="U" horiz-adv-x="1355" 
d="M861 6q-18 -13 -89 -22.5t-115 -4.5q-65 9 -134 29q-129 45 -146 56q-12 8 -18 10q-8 0 -38.5 34.5t-46.5 62.5q-42 68 -60 148q-5 21 -10 97q-5 82 -7 112q-1 12 -3.5 57t-4.5 66q-5 63 -3 158q7 292 11 308q3 14 2 80q-2 64 -8.5 96t-25.5 71q-17 35 -56.5 66.5
t-78.5 41.5q-14 4 -22 8q-4 3 -4 13t4 14q10 10 42 -1q26 -10 171 -34q66 -11 165.5 -14t170.5 5q27 4 59 4q9 -2 15 -10t4 -15q-2 -8 -28 -16q-44 -13 -87 -40.5t-58 -51.5q-12 -19 -14 -48.5t-4 -186.5q-2 -214 -2 -235v-138q-1 -191 0 -233t8 -77q17 -85 22 -103t24 -60
q13 -30 25 -36q14 -10 24 -22q42 -49 135 -71q40 -9 85 -9h51l29 12q29 11 32 11q4 0 29 24.5t32 35.5q15 20 32 41q19 22 38 57.5t26 61.5q5 23 18 135q6 63 6 313q0 417 -16 515q-2 14 -20 39q-15 20 -30 35q-11 11 -44.5 28.5t-59.5 26.5q-34 12 -38 23q-2 9 3 15
q5 7 13 7q30 -7 62 -20q59 -22 79.5 -26t66.5 -4q74 0 124 19q22 8 67.5 19.5t58.5 12.5q9 1 17 -5q7 -6 7 -16q0 -7 -8 -13t-44 -24q-41 -20 -63 -36q-29 -22 -33 -24q-11 -7 -22 -23t-11 -25q-2 -16 -5 -24q-5 -17 -8 -236.5t1 -335.5q7 -252 3 -294q-10 -91 -29 -141
q-2 -6 -7.5 -19.5t-6.5 -17.5q-16 -41 -41 -84q-18 -23 -58 -65q-50 -51 -75 -70.5t-50 -25.5q-15 -3 -30 -11z" />
    <glyph glyph-name="U" unicode="&#xdc;" horiz-adv-x="1355" 
d="M861 6q-18 -13 -89 -22.5t-115 -4.5q-65 9 -134 29q-129 45 -146 56q-12 8 -18 10q-8 0 -38.5 34.5t-46.5 62.5q-42 68 -60 148q-5 21 -10 97q-5 82 -7 112q-1 12 -3.5 57t-4.5 66q-5 63 -3 158q7 292 11 308q3 14 2 80q-2 64 -8.5 96t-25.5 71q-17 35 -56.5 66.5
t-78.5 41.5q-14 4 -22 8q-4 3 -4 13t4 14q10 10 42 -1q26 -10 171 -34q66 -11 165.5 -14t170.5 5q27 4 59 4q9 -2 15 -10t4 -15q-2 -8 -28 -16q-44 -13 -87 -40.5t-58 -51.5q-12 -19 -14 -48.5t-4 -186.5q-2 -214 -2 -235v-138q-1 -191 0 -233t8 -77q17 -85 22 -103t24 -60
q13 -30 25 -36q14 -10 24 -22q42 -49 135 -71q40 -9 85 -9h51l29 12q29 11 32 11q4 0 29 24.5t32 35.5q15 20 32 41q19 22 38 57.5t26 61.5q5 23 18 135q6 63 6 313q0 417 -16 515q-2 14 -20 39q-15 20 -30 35q-11 11 -44.5 28.5t-59.5 26.5q-34 12 -38 23q-2 9 3 15
q5 7 13 7q30 -7 62 -20q59 -22 79.5 -26t66.5 -4q74 0 124 19q22 8 67.5 19.5t58.5 12.5q9 1 17 -5q7 -6 7 -16q0 -7 -8 -13t-44 -24q-41 -20 -63 -36q-29 -22 -33 -24q-11 -7 -22 -23t-11 -25q-2 -16 -5 -24q-5 -17 -8 -236.5t1 -335.5q7 -252 3 -294q-10 -91 -29 -141
q-2 -6 -7.5 -19.5t-6.5 -17.5q-16 -41 -41 -84q-18 -23 -58 -65q-50 -51 -75 -70.5t-50 -25.5q-15 -3 -30 -11z" />
    <glyph glyph-name="U" unicode="&#xdb;" horiz-adv-x="1355" 
d="M861 6q-18 -13 -89 -22.5t-115 -4.5q-65 9 -134 29q-129 45 -146 56q-12 8 -18 10q-8 0 -38.5 34.5t-46.5 62.5q-42 68 -60 148q-5 21 -10 97q-5 82 -7 112q-1 12 -3.5 57t-4.5 66q-5 63 -3 158q7 292 11 308q3 14 2 80q-2 64 -8.5 96t-25.5 71q-17 35 -56.5 66.5
t-78.5 41.5q-14 4 -22 8q-4 3 -4 13t4 14q10 10 42 -1q26 -10 171 -34q66 -11 165.5 -14t170.5 5q27 4 59 4q9 -2 15 -10t4 -15q-2 -8 -28 -16q-44 -13 -87 -40.5t-58 -51.5q-12 -19 -14 -48.5t-4 -186.5q-2 -214 -2 -235v-138q-1 -191 0 -233t8 -77q17 -85 22 -103t24 -60
q13 -30 25 -36q14 -10 24 -22q42 -49 135 -71q40 -9 85 -9h51l29 12q29 11 32 11q4 0 29 24.5t32 35.5q15 20 32 41q19 22 38 57.5t26 61.5q5 23 18 135q6 63 6 313q0 417 -16 515q-2 14 -20 39q-15 20 -30 35q-11 11 -44.5 28.5t-59.5 26.5q-34 12 -38 23q-2 9 3 15
q5 7 13 7q30 -7 62 -20q59 -22 79.5 -26t66.5 -4q74 0 124 19q22 8 67.5 19.5t58.5 12.5q9 1 17 -5q7 -6 7 -16q0 -7 -8 -13t-44 -24q-41 -20 -63 -36q-29 -22 -33 -24q-11 -7 -22 -23t-11 -25q-2 -16 -5 -24q-5 -17 -8 -236.5t1 -335.5q7 -252 3 -294q-10 -91 -29 -141
q-2 -6 -7.5 -19.5t-6.5 -17.5q-16 -41 -41 -84q-18 -23 -58 -65q-50 -51 -75 -70.5t-50 -25.5q-15 -3 -30 -11z" />
    <glyph glyph-name="U" unicode="&#xda;" horiz-adv-x="1355" 
d="M861 6q-18 -13 -89 -22.5t-115 -4.5q-65 9 -134 29q-129 45 -146 56q-12 8 -18 10q-8 0 -38.5 34.5t-46.5 62.5q-42 68 -60 148q-5 21 -10 97q-5 82 -7 112q-1 12 -3.5 57t-4.5 66q-5 63 -3 158q7 292 11 308q3 14 2 80q-2 64 -8.5 96t-25.5 71q-17 35 -56.5 66.5
t-78.5 41.5q-14 4 -22 8q-4 3 -4 13t4 14q10 10 42 -1q26 -10 171 -34q66 -11 165.5 -14t170.5 5q27 4 59 4q9 -2 15 -10t4 -15q-2 -8 -28 -16q-44 -13 -87 -40.5t-58 -51.5q-12 -19 -14 -48.5t-4 -186.5q-2 -214 -2 -235v-138q-1 -191 0 -233t8 -77q17 -85 22 -103t24 -60
q13 -30 25 -36q14 -10 24 -22q42 -49 135 -71q40 -9 85 -9h51l29 12q29 11 32 11q4 0 29 24.5t32 35.5q15 20 32 41q19 22 38 57.5t26 61.5q5 23 18 135q6 63 6 313q0 417 -16 515q-2 14 -20 39q-15 20 -30 35q-11 11 -44.5 28.5t-59.5 26.5q-34 12 -38 23q-2 9 3 15
q5 7 13 7q30 -7 62 -20q59 -22 79.5 -26t66.5 -4q74 0 124 19q22 8 67.5 19.5t58.5 12.5q9 1 17 -5q7 -6 7 -16q0 -7 -8 -13t-44 -24q-41 -20 -63 -36q-29 -22 -33 -24q-11 -7 -22 -23t-11 -25q-2 -16 -5 -24q-5 -17 -8 -236.5t1 -335.5q7 -252 3 -294q-10 -91 -29 -141
q-2 -6 -7.5 -19.5t-6.5 -17.5q-16 -41 -41 -84q-18 -23 -58 -65q-50 -51 -75 -70.5t-50 -25.5q-15 -3 -30 -11z" />
    <glyph glyph-name="U" unicode="&#xd9;" horiz-adv-x="1355" 
d="M861 6q-18 -13 -89 -22.5t-115 -4.5q-65 9 -134 29q-129 45 -146 56q-12 8 -18 10q-8 0 -38.5 34.5t-46.5 62.5q-42 68 -60 148q-5 21 -10 97q-5 82 -7 112q-1 12 -3.5 57t-4.5 66q-5 63 -3 158q7 292 11 308q3 14 2 80q-2 64 -8.5 96t-25.5 71q-17 35 -56.5 66.5
t-78.5 41.5q-14 4 -22 8q-4 3 -4 13t4 14q10 10 42 -1q26 -10 171 -34q66 -11 165.5 -14t170.5 5q27 4 59 4q9 -2 15 -10t4 -15q-2 -8 -28 -16q-44 -13 -87 -40.5t-58 -51.5q-12 -19 -14 -48.5t-4 -186.5q-2 -214 -2 -235v-138q-1 -191 0 -233t8 -77q17 -85 22 -103t24 -60
q13 -30 25 -36q14 -10 24 -22q42 -49 135 -71q40 -9 85 -9h51l29 12q29 11 32 11q4 0 29 24.5t32 35.5q15 20 32 41q19 22 38 57.5t26 61.5q5 23 18 135q6 63 6 313q0 417 -16 515q-2 14 -20 39q-15 20 -30 35q-11 11 -44.5 28.5t-59.5 26.5q-34 12 -38 23q-2 9 3 15
q5 7 13 7q30 -7 62 -20q59 -22 79.5 -26t66.5 -4q74 0 124 19q22 8 67.5 19.5t58.5 12.5q9 1 17 -5q7 -6 7 -16q0 -7 -8 -13t-44 -24q-41 -20 -63 -36q-29 -22 -33 -24q-11 -7 -22 -23t-11 -25q-2 -16 -5 -24q-5 -17 -8 -236.5t1 -335.5q7 -252 3 -294q-10 -91 -29 -141
q-2 -6 -7.5 -19.5t-6.5 -17.5q-16 -41 -41 -84q-18 -23 -58 -65q-50 -51 -75 -70.5t-50 -25.5q-15 -3 -30 -11z" />
    <glyph glyph-name="V" unicode="V" horiz-adv-x="1335" 
d="M1312 1459q30 6 34 -11q2 -16 -14 -25q-81 -28 -103 -53q-14 -16 -47 -83t-43 -103q-1 -2 -4.5 -13t-8.5 -23.5t-9 -23.5q-47 -120 -56 -151q-12 -37 -23 -63q-50 -124 -94 -256q-15 -45 -30 -84q-10 -27 -18 -59q-7 -28 -37 -118q-24 -72 -34 -107q-1 -2 -7 -26t-10 -35
q-17 -54 -50 -172q-13 -45 -18 -57t-14 -18q-8 -5 -52 -6t-49 4q-12 22 -16 34q-3 9 -9.5 24.5t-7.5 18.5q-44 102 -85 257q-41 152 -52 179q-6 15 -11 40q-7 31 -25 86q-14 42 -34 107q-30 100 -68 194q-23 59 -46 128q-84 262 -125 312q-11 12 -22 28q-14 19 -61.5 58.5
t-63.5 45.5t-17 13q-3 14 6.5 20.5t22.5 0.5q18 -7 34 -8q23 -4 54 -9q77 -14 239 -18q161 -4 245 6q21 3 59 3q23 0 28.5 -1.5t9.5 -6.5t2 -14q-1 -7 -9 -11q-24 -9 -48 -15q-61 -17 -116 -45q-37 -21 -40 -62q-2 -16 -4 -24q0 -11 4 -19q7 -17 25 -104q24 -121 65 -223
q25 -65 31 -84q1 -3 23 -62q32 -81 79 -236q20 -65 46 -125q13 -29 16 -29q1 0 2 3q8 17 55 166q38 125 135 376q22 56 44 123q7 21 18 55t13 39q27 81 31 125q3 36 0 42q-4 7 -28.5 19.5t-42.5 16.5q-76 14 -84 15q-19 3 -30 11q-14 9 -14 19q0 16 14.5 19t57.5 -4
q108 -13 218 -15q61 -2 85 0t84 14z" />
    <glyph glyph-name="W" unicode="W" horiz-adv-x="1761" 
d="M1145 30q-14 48 -35 143q-17 81 -51 190q-17 57 -23 85q-10 45 -22 87l-16 64t-20 79q-26 98 -31 115q-5 15 -9 33q-4 19 -38 128q-12 38 -16 57q-1 13 -9.5 39.5t-10.5 26.5q-10 0 -59 -218q-1 -4 -7 -28.5t-10 -39.5q-6 -21 -17 -74q-21 -101 -68 -247
q-24 -79 -30 -106q-21 -94 -38 -158q-13 -48 -23 -95q-19 -86 -29 -106q-15 -23 -40 -25q-58 0 -72 7q-6 4 -6 9q0 6 -4 9q-13 11 -26 79q-11 48 -17 67q-11 37 -22 86q-14 63 -15 68q0 1 -4.5 20.5t-6.5 30.5q-8 39 -21 74q-12 33 -18 51q-10 51 -15 104q-2 26 -9 59
q-10 49 -17 89q-7 39 -20 87q-11 34 -18 63q-22 87 -66 218q-25 78 -28 91q-1 3 -2.5 11.5t-3 16l-2.5 12.5q-5 24 -28 88.5t-30 76.5q-6 11 -37.5 43t-57.5 53q-24 20 -28.5 25t-3.5 10q1 7 9 13q7 4 10.5 3.5t26.5 -9.5q46 -18 141 -29q48 -6 55 -7q98 -17 246 -19
q84 -1 88 -6q11 -13 -2 -24q-19 -10 -43 -16q-70 -20 -89 -61q-5 -12 -1 -35q4 -21 2 -53q-2 -30 3 -60q12 -77 36 -152q16 -45 35 -125q17 -72 31 -143q4 -23 12 -50q5 -13 15.5 -56.5t14.5 -68.5q4 -23 13 -61q2 -8 8 -33t9 -36q10 -36 12 -34q6 15 9 30q10 35 14 46
q19 54 45 171q26 110 68 221q25 67 36 104q18 60 22 71q3 8 9 37q24 115 28 140.5t-1 39.5q-3 10 -12 21.5t-14 11.5q-9 0 -12.5 12.5t3.5 18.5q6 5 78 -6q106 -15 208 1q12 2 19 -4t6 -17q-1 -7 -4.5 -10t-17.5 -10q-12 -6 -24 -15q-10 -12 30 -131q19 -59 30 -97
q29 -108 37 -134q30 -102 45 -168q14 -60 23 -84q11 -30 31 -102.5t27 -103.5l3 -17l12 35q18 55 31 120q7 33 12 49q13 43 34 147q18 87 43 160q23 74 36 190q10 84 8 117q-1 29 -15 55q-20 38 -53 55q-4 2 -19 9t-23 11q-32 16 -39.5 21.5t-8.5 13.5q-1 7 4 14q7 7 95 -1
q32 -3 112.5 2t119.5 12q41 7 111 17q20 2 27 -3q9 -11 3 -24q-20 -12 -37 -17q-80 -29 -115 -92q-38 -68 -63 -188q-3 -16 -14 -55q-25 -83 -43 -222q-6 -41 -16 -82q-4 -18 -23 -106q-13 -63 -15 -67q-5 -12 -6 -24q-3 -14 -11 -31q-5 -11 -14 -42q-5 -22 -13 -47
q-6 -18 -21 -99q-21 -116 -50 -237q-9 -36 -12 -57q-2 -12 -9 -41t-11 -55q-1 -17 -8 -37q-7 -13 -18.5 -17t-48.5 -6l-43 -1l-12 8q-9 6 -12.5 13.5t-12.5 39.5z" />
    <glyph glyph-name="X" unicode="X" horiz-adv-x="1419" 
d="M1394 -20q-39 6 -48 7q-50 8 -139 15q-157 11 -296 7q-77 -4 -95 -7q-16 -3 -59 -7q-38 -5 -45 0t-7.5 13.5t6.5 16.5q11 13 67 29q49 14 71 30t34 45q6 15 9 31q0 17 -48 100q-22 38 -65 120q-41 78 -92 155q-38 58 -39 59t-4.5 -3t-13 -16.5t-23.5 -31.5
q-36 -52 -46 -64q-64 -83 -85.5 -115.5t-51.5 -89.5q-24 -46 -29 -65.5t1 -45.5q6 -40 40 -66q42 -29 93 -46q10 -2 36.5 -18.5t31.5 -23.5q3 -3 3 -12q0 -5 -6 -11q-5 -5 -12.5 -4t-43.5 11q-27 7 -54 12q-52 8 -63 10q-58 10 -172.5 6t-187.5 -18q-23 -6 -46 -6
q-6 1 -11.5 11t-3.5 15q3 10 37 30q37 24 72 51q2 1 37 27q38 27 175 196q22 28 51 59q62 64 111 147q67 111 90 143l12 16l-9 15q-8 12 -22 43q-13 27 -35 61q-34 54 -40 64q-5 8 -39 61l-68 102q-49 73 -60 94q-6 10 -28 44q-12 18 -34 54q-24 40 -36 55q-13 17 -32 43
q-18 27 -51 56q-45 39 -56 39q-18 4 -26 8q-13 6 -27 8q-9 0 -14 5q-6 6 -6 14q0 10 4.5 14.5t15 5t27 -3.5t42.5 -12q62 -18 124 -27q31 -4 129 -2q102 1 140 8q55 11 67 12q23 3 46 8q9 2 33 8q4 1 11.5 3t9.5 2q7 2 16.5 -6.5t9.5 -16.5q0 -6 -5 -13q-14 -12 -56 -32
t-61 -24q-16 -4 -25 -9q-25 -22 55 -159q25 -42 35 -62q16 -29 42 -68q52 -78 88 -144q3 -6 11 6q34 55 64 108q19 34 50 79q101 144 105 196q1 12 0 16t-9 11q-13 12 -72 33q-19 7 -25.5 13t-4.5 16q3 13 20.5 15.5t101.5 1.5q77 -1 96.5 0t62.5 9q77 13 132 34
q46 18 51 19q13 4 18 7q11 8 25 3q10 -10 10 -24q0 -8 -12 -17t-49 -31q-128 -75 -180 -127q-21 -21 -90 -119q-3 -5 -9 -13.5t-14.5 -20t-13.5 -17.5q-61 -85 -84 -122q-1 -2 -4.5 -6.5t-8.5 -11t-8 -10.5q-20 -24 -78 -109l-20 -29l34 -69q52 -105 94 -164q44 -61 80 -125
q113 -195 174 -286q39 -57 90 -109q40 -34 84 -56q72 -35 48 -56q-6 -6 -11 -7z" />
    <glyph glyph-name="Y" unicode="Y" horiz-adv-x="1314" 
d="M1296 1498q12 6 16 6t11 -7q9 -9 7.5 -16.5t-15.5 -19.5q-47 -38 -123 -92q-28 -19 -46 -42t-79 -114q-44 -66 -58 -101q-27 -57 -55 -100q-21 -35 -50 -93q-6 -12 -51 -97q-7 -11 -35 -68q-6 -12 -19 -35t-14 -25q-17 -30 -21.5 -48t-5.5 -56q0 -6 -1.5 -49t-2.5 -66
q-7 -146 4 -198q7 -30 14 -69t25.5 -69.5t59.5 -72.5q25 -26 32 -31.5t23 -9.5q18 -5 24 -10t6 -13q0 -15 -22 -18q-14 -3 -26 4q-29 15 -137 24t-195 4q-100 -6 -210 -23q-35 -7 -45 -4t-10 19q0 10 13.5 18t52.5 21q36 11 54 21q70 39 82 182q1 14 5 42q3 10 5 73
q2 89 5 146l4 79l-11 23q-6 12 -20 36q-11 15 -63 121t-66 141q-17 40 -33 70q-38 66 -67 139q-6 18 -19 44q-3 4 -7 14l-6 15l-13 30q-9 19 -39 66t-43 61q-43 41 -92 71q-53 30 -53 37q-3 14 7 24q5 4 8 4t26 -4q52 -10 108 -23q21 -5 119 -11q95 -5 158 0q89 7 158 20
q40 7 48 3q8 -5 9 -13q2 -11 -3 -16q-10 -15 -82 -50q-46 -21 -58 -45q-8 -17 -5.5 -35.5t19.5 -71.5q46 -141 74 -188q1 -1 28 -58q61 -132 76 -159q23 -44 26 -51q4 -12 12 -25q5 5 9 15q15 29 32 59q27 47 111 215t92 191q10 25 7 47q-3 39 -24 60q-10 10 -65 28
q-30 10 -48.5 17.5t-29 15t-12 13.5t2.5 13q10 15 27 8q11 -3 33 -5q53 -5 104 -15q18 -4 58 -1t71 11q49 13 77 19q38 8 57 14q58 23 80 34z" />
    <glyph glyph-name="Y" unicode="&#x178;" horiz-adv-x="1314" 
d="M1296 1498q12 6 16 6t11 -7q9 -9 7.5 -16.5t-15.5 -19.5q-47 -38 -123 -92q-28 -19 -46 -42t-79 -114q-44 -66 -58 -101q-27 -57 -55 -100q-21 -35 -50 -93q-6 -12 -51 -97q-7 -11 -35 -68q-6 -12 -19 -35t-14 -25q-17 -30 -21.5 -48t-5.5 -56q0 -6 -1.5 -49t-2.5 -66
q-7 -146 4 -198q7 -30 14 -69t25.5 -69.5t59.5 -72.5q25 -26 32 -31.5t23 -9.5q18 -5 24 -10t6 -13q0 -15 -22 -18q-14 -3 -26 4q-29 15 -137 24t-195 4q-100 -6 -210 -23q-35 -7 -45 -4t-10 19q0 10 13.5 18t52.5 21q36 11 54 21q70 39 82 182q1 14 5 42q3 10 5 73
q2 89 5 146l4 79l-11 23q-6 12 -20 36q-11 15 -63 121t-66 141q-17 40 -33 70q-38 66 -67 139q-6 18 -19 44q-3 4 -7 14l-6 15l-13 30q-9 19 -39 66t-43 61q-43 41 -92 71q-53 30 -53 37q-3 14 7 24q5 4 8 4t26 -4q52 -10 108 -23q21 -5 119 -11q95 -5 158 0q89 7 158 20
q40 7 48 3q8 -5 9 -13q2 -11 -3 -16q-10 -15 -82 -50q-46 -21 -58 -45q-8 -17 -5.5 -35.5t19.5 -71.5q46 -141 74 -188q1 -1 28 -58q61 -132 76 -159q23 -44 26 -51q4 -12 12 -25q5 5 9 15q15 29 32 59q27 47 111 215t92 191q10 25 7 47q-3 39 -24 60q-10 10 -65 28
q-30 10 -48.5 17.5t-29 15t-12 13.5t2.5 13q10 15 27 8q11 -3 33 -5q53 -5 104 -15q18 -4 58 -1t71 11q49 13 77 19q38 8 57 14q58 23 80 34z" />
    <glyph glyph-name="Y" unicode="&#xdd;" horiz-adv-x="1314" 
d="M1296 1498q12 6 16 6t11 -7q9 -9 7.5 -16.5t-15.5 -19.5q-47 -38 -123 -92q-28 -19 -46 -42t-79 -114q-44 -66 -58 -101q-27 -57 -55 -100q-21 -35 -50 -93q-6 -12 -51 -97q-7 -11 -35 -68q-6 -12 -19 -35t-14 -25q-17 -30 -21.5 -48t-5.5 -56q0 -6 -1.5 -49t-2.5 -66
q-7 -146 4 -198q7 -30 14 -69t25.5 -69.5t59.5 -72.5q25 -26 32 -31.5t23 -9.5q18 -5 24 -10t6 -13q0 -15 -22 -18q-14 -3 -26 4q-29 15 -137 24t-195 4q-100 -6 -210 -23q-35 -7 -45 -4t-10 19q0 10 13.5 18t52.5 21q36 11 54 21q70 39 82 182q1 14 5 42q3 10 5 73
q2 89 5 146l4 79l-11 23q-6 12 -20 36q-11 15 -63 121t-66 141q-17 40 -33 70q-38 66 -67 139q-6 18 -19 44q-3 4 -7 14l-6 15l-13 30q-9 19 -39 66t-43 61q-43 41 -92 71q-53 30 -53 37q-3 14 7 24q5 4 8 4t26 -4q52 -10 108 -23q21 -5 119 -11q95 -5 158 0q89 7 158 20
q40 7 48 3q8 -5 9 -13q2 -11 -3 -16q-10 -15 -82 -50q-46 -21 -58 -45q-8 -17 -5.5 -35.5t19.5 -71.5q46 -141 74 -188q1 -1 28 -58q61 -132 76 -159q23 -44 26 -51q4 -12 12 -25q5 5 9 15q15 29 32 59q27 47 111 215t92 191q10 25 7 47q-3 39 -24 60q-10 10 -65 28
q-30 10 -48.5 17.5t-29 15t-12 13.5t2.5 13q10 15 27 8q11 -3 33 -5q53 -5 104 -15q18 -4 58 -1t71 11q49 13 77 19q38 8 57 14q58 23 80 34z" />
    <glyph glyph-name="Z" unicode="Z" horiz-adv-x="1218" 
d="M516 310q-24 -48 -49 -93q-44 -81 -44 -88t58 4q41 8 252 17q233 10 244 16q24 13 41 49q27 62 43 111q8 28 37 88.5t39 70.5q5 5 11 5q5 0 11 -6q10 -10 -3 -40q-18 -43 -32.5 -150.5t-7.5 -157.5q10 -81 34 -127q9 -16 15 -35q0 -4 -7.5 -11t-11.5 -7l-34 12
q-46 16 -89 23q-78 15 -163 20q-76 4 -108 7q-98 6 -195 0q-18 -2 -84 -7q-57 -4 -146 -15q-154 -19 -264 -11q-29 2 -36 5t-7 14q0 10 20 33q21 26 34 49q35 66 87 155q5 8 17 29.5t16 29.5q53 94 90 153q35 57 43 72q3 6 47 80q31 52 64 111q32 58 57 93q51 74 93 153
q19 35 31 54q3 3 9 16q0 2 38.5 78.5t56.5 109.5q15 26 22 45q5 14 11 21q12 19 23 42l12 26l-33 2q-69 4 -121 6q-97 4 -110 6q-50 7 -103 -5q-33 -7 -38 -7q-4 -1 -15 -8q-10 -6 -27 -12q-13 -4 -35 -19t-35 -29q-29 -31 -72 -111.5t-55 -127.5q-9 -34 -22 -34
q-18 0 -18 28q0 26 5 82t8 68q5 18 22 143q3 32 13 78q12 64 5 103q-3 10 5 17q13 13 29 -4q30 -28 72 -33q161 -17 316 -5q57 4 102 0q49 -5 179 -7q138 -2 184 3q60 7 85 8q29 1 36.5 -1.5t10.5 -13.5q3 -9 -23 -36t-28 -41q-4 -28 -36 -66q-15 -18 -59.5 -94t-48.5 -92
q-7 -27 -57 -107q-24 -40 -31 -54q-8 -16 -24 -39q-77 -115 -150 -252q-32 -62 -39 -74q-11 -18 -24 -48q-38 -88 -80 -154q-31 -50 -63 -114z" />
    <glyph glyph-name="bracketleft" unicode="[" horiz-adv-x="677" 
d="M604 189q18 -2 20 -20q0 -2 -2 -12.5t-5.5 -32.5t-6.5 -37q-10 -55 -15 -111q-1 -30 -10 -81q-8 -48 -6 -113q2 -68 -3 -72q-14 -12 -107 -21q-19 -2 -69 -7q-51 -5 -169 -3h-61q-52 0 -75 3q-28 3 -38 -1q-21 -6 -45 -4q-36 0 -40 5q-12 16 -4 36q5 10 21 15q11 3 33 7
q34 5 47 16q5 5 19 32.5t21 47.5q9 28 19 130q4 47 4 149t-4 128q-4 23 -4 52q0 28 -5 61q-6 33 -1 40q5 8 2 105q-5 128 -6 143q-2 23 -4 197q-1 117 1 176.5t13 169.5q2 18 2 92q0 49 2 179q4 148 -8 186q-14 34 -36 62q-15 20 -19 27q-10 15 -19 24q-21 21 -3 33
q8 5 26 -1q64 -19 131 -30q35 -4 86 -6l57 -2l33 11q33 11 65 11q23 -1 54.5 2t36.5 6q31 7 68 10q19 1 26 -6t6.5 -18t-9.5 -48q-7 -29 -8.5 -44t-1.5 -73q0 -61 -2 -74t-12 -13t-14 5.5t-7 21.5q-8 49 -19 67q-27 46 -119 40q-34 -2 -50 -5q-20 -3 -27 -13
q-11 -15 -14 -39t-5 -114q-2 -118 -7 -188q-5 -88 -4 -174q1 -72 -3 -257q-4 -162 -1 -178q5 -27 5 -309q0 -280 3 -304q0 -3 1 -16.5t1.5 -37t1.5 -40.5q2 -78 -1 -84q-10 -16 29 -42q29 -20 59 0q52 33 88 136q11 31 25 65q13 32 26 75q11 38 18.5 51.5t18.5 13.5z" />
    <glyph glyph-name="backslash" unicode="\" horiz-adv-x="712" 
d="M701 -28q67 -71 67 -86q0 -17 -17 -17q-9 0 -26 18q-13 16 -35 26q-14 6 -32 19q-12 9 -36 23q-20 13 -43.5 16.5t-80.5 2.5q-46 -1 -64.5 -4.5t-50.5 -19.5q-30 -15 -40 0q-11 16 13 31q14 8 22 11q11 5 17 15l9 13v64q0 47 -1.5 64t-11.5 65q-14 70 -25 109
q-9 30 -24 102q-21 107 -66 266q-47 165 -66 265q-14 71 -25 108q-8 27 -26 120q-16 86 -34 144q-11 32 -18 63q-7 26 -16 44q-8 14 -15 34q-11 24 -30 52q-26 39 -31 47q-7 14 -19 25q-38 35 -16 50q11 9 24 -3q10 -8 21 -11q36 -13 57 -25q41 -21 78 -31q21 -5 55 -16
q34 -14 90 -14q41 0 47 -6q5 -7 4 -14q-1 -10 -16 -17q-14 -8 -24 -26q-15 -31 -9 -102q4 -47 21 -143.5t31 -147.5q4 -15 24 -107q24 -110 35 -154q5 -18 19 -72t18 -72q14 -56 20 -72q25 -65 83 -304q11 -47 34 -118t37 -103q25 -60 72 -112z" />
    <glyph glyph-name="bracketright" unicode="]" horiz-adv-x="735" 
d="M763 1795q12 -15 4 -35q-5 -11 -21 -16q-5 -1 -10.5 -2t-12 -2t-10.5 -2q-34 -5 -47 -16q-5 -5 -19 -33t-21 -48q-9 -28 -19 -130q-5 -47 -5 -149t5 -128q5 -28 5 -52q0 -27 5 -60q5 -32 0 -40t-2 -106q5 -126 6 -142q3 -37 5 -198q1 -114 -1.5 -172.5t-13.5 -172.5
q-2 -18 -2 -93q0 -48 -2 -178q-4 -149 8 -187q14 -34 36 -62q15 -20 19 -27q10 -15 19 -24q22 -21 5 -32q-10 -7 -27 0q-11 5 -58 15.5t-74 14.5q-35 4 -86 6l-57 2l-33 -11q-33 -11 -64 -11q-24 1 -56 -1.5t-36 -5.5q-31 -7 -68 -10q-20 -1 -26 5q-7 7 -6.5 18.5t9.5 48.5
q8 29 9 43.5t1 72.5q0 61 2 74t12 13t14 -5.5t7 -21.5q8 -49 19 -67q27 -45 119 -39q34 2 50 5q21 3 27 12q11 15 14 39t5 114q2 119 7 189q5 88 4 173q-1 72 3 257q4 162 1 178q-5 27 -5 309q0 288 -2 304q-1 8 -5 94q-3 79 1 85q9 15 -29 41q-30 20 -59 0
q-53 -33 -88 -135q-11 -31 -25 -65q-12 -29 -26 -76q-11 -38 -18.5 -51.5t-18.5 -13.5q-18 2 -20 20l14 82q11 56 15 111q2 31 10 82q8 48 6 112q-2 68 3 72q5 5 40.5 12t66.5 10q10 1 35.5 3t33.5 3q51 5 169 3h62q52 0 75 -3q25 -2 37 2q21 6 45 4q35 0 40 -6z" />
    <glyph glyph-name="asciicircum" unicode="^" horiz-adv-x="972" 
d="M904 1160q5 -10 -3 -18q-3 -3 -32 -1q-144 14 -236 3q-7 -1 -17.5 -2t-18 -2t-10.5 -1q-19 -3 -35 -12q-58 -28 -68 -17q-4 6 -4 9q0 6 17.5 20t31.5 20q13 5 35 28.5t30 41.5q6 14 5 41q-5 63 -22 118q-2 7 -27 59l-20 42l-24 -34q-19 -28 -93 -139q-46 -71 -60 -107
q-9 -23 -8 -29t19 -14q2 -1 23 -9q5 -1 15 -5q6 -2 20 -4q7 -1 17 -7q11 -7 11 -14t-2.5 -10t-9.5 -4.5t-27 -2.5q-7 0 -32.5 -1.5t-35.5 -2.5q-57 -3 -82 -3q-70 0 -109 -14q-59 -22 -71.5 -24.5t-17.5 4.5q-2 2 -4 8q0 6 26 25q28 20 98 104q37 43 59 68q52 56 89 122
q16 29 64.5 103.5t64.5 95.5q34 44 35 46q10 13 16.5 16.5t19.5 1.5q28 -4 50 -34q11 -15 29 -52.5t27 -64.5q39 -121 80 -179q17 -23 22 -34q10 -19 41 -47t62 -46q59 -33 62 -42z" />
    <glyph glyph-name="underscore" unicode="_" horiz-adv-x="1202" 
d="M1131 38q16 -25 -1 -37q-7 -5 -71 -3q-59 2 -361.5 1.5t-355.5 -3.5q-13 -1 -36.5 -2t-54 -2t-46.5 -2q-81 -3 -89 -9q-18 -14 -39 -1q-9 6 -15 15q-2 7 2 13.5t9 6.5q7 0 15 41q6 28 -4 52q-22 56 16 50q66 -11 123 -14q109 -7 123 -8q76 -4 117 -4q44 0 84 -4
q30 -2 182 0.5t211 6.5q75 5 136 23q20 6 25 6.5t9 -3.5q6 -6 6 -35q0 -14 4 -42q3 -12 3 -23q1 -12 8 -23z" />
    <glyph glyph-name="grave" unicode="`" horiz-adv-x="393" 
d="M282 1391q-1 -84 13 -160q20 -107 20 -124q-1 -9 -11 -12q-6 -1 -11 4q-2 2 -11 14q-6 8 -29 16q-28 10 -37.5 24t-12.5 49q-3 30 -13 55q-8 26 -14 39q-2 3 -14 29q-17 42 -39 80q-9 13 -15 29q-16 38 -43 65q-9 8 -27 26q-7 7 -23 19q-25 16 -25 30q2 11 13 13
q14 0 70 -18q29 -10 45 -12q3 -1 31 -9q49 -16 112 -17q25 0 51 -3q11 -8 -5 -30q-1 -2 -4.5 -7t-6.5 -9t-5 -8l-8 -14z" />
    <glyph glyph-name="a" unicode="a" horiz-adv-x="929" 
d="M885 11q25 -4 25 -19q0 -13 -11 -17t-29 1q-41 12 -114.5 15.5t-125.5 -3.5q-17 -2 -50 -14t-46 -21q-10 -7 -21 -8q-10 0 -19 -6q-19 -12 -29 -1q-10 12 9 35q6 9 15 15q4 0 19.5 17t21.5 28q13 28 17 58q0 2 -7 -5q-6 -5 -18 -13q-3 -2 -11.5 -7t-11.5 -7
q-43 -30 -62 -34q-22 -8 -33 -14q-13 -8 -26 -11q-13 -4 -21 -9q-36 -24 -121 -24q-43 0 -82 22q-14 8 -37.5 35t-30.5 43q-25 57 -25 101q3 65 25 133q17 42 47 81q22 29 93 76q2 1 15.5 11t22.5 16q28 19 81 45t72 31q40 11 57 18q12 5 32 12q3 1 33 13l18 8v62
q0 52 -4 74.5t-15 40.5q-19 31 -59 38q-42 4 -64 4q-33 0 -40.5 -1t-19.5 -8q-16 -10 -36 -30q-24 -26 -40 -64.5t-12 -60.5q2 -13 9 -29t11 -17t29 7t31 11q10 6 19 66q6 42 29 25q7 -6 6 -26q-1 -21 -8 -48q-7 -29 -19 -41q-13 -13 -28 -17q-21 -7 -34 -14
q-34 -19 -77 -19q-69 0 -108 50q-33 47 -42 101q-4 38 12.5 70.5t60.5 76.5q14 14 54 35.5t69 30.5q27 9 100 10q153 4 191 -10q22 -6 34 -8q55 -9 81 -20t52 -37q31 -31 38 -62.5t5 -125.5q-1 -61 -4 -123q0 -3 -3 -58.5t-4 -89.5q-4 -104 1 -175q6 -78 6 -102q0 -32 9 -50
q6 -13 18 -26q7 -7 38 -23t42 -18zM565 402q3 99 -2 99q-12 -4 -27 -12q-11 -6 -35 -16q-20 -7 -118 -65q-15 -9 -35 -34.5t-34 -51.5q-15 -29 -19 -62q-5 -48 18 -94q7 -15 12 -20.5t17 -11.5l17 -8l45 2l46 2l26 14q29 17 53 41l28 26v20q0 25 3 46q3 22 5 125z" />
    <glyph glyph-name="a" unicode="&#xe5;" horiz-adv-x="929" 
d="M885 11q25 -4 25 -19q0 -13 -11 -17t-29 1q-41 12 -114.5 15.5t-125.5 -3.5q-17 -2 -50 -14t-46 -21q-10 -7 -21 -8q-10 0 -19 -6q-19 -12 -29 -1q-10 12 9 35q6 9 15 15q4 0 19.5 17t21.5 28q13 28 17 58q0 2 -7 -5q-6 -5 -18 -13q-3 -2 -11.5 -7t-11.5 -7
q-43 -30 -62 -34q-22 -8 -33 -14q-13 -8 -26 -11q-13 -4 -21 -9q-36 -24 -121 -24q-43 0 -82 22q-14 8 -37.5 35t-30.5 43q-25 57 -25 101q3 65 25 133q17 42 47 81q22 29 93 76q2 1 15.5 11t22.5 16q28 19 81 45t72 31q40 11 57 18q12 5 32 12q3 1 33 13l18 8v62
q0 52 -4 74.5t-15 40.5q-19 31 -59 38q-42 4 -64 4q-33 0 -40.5 -1t-19.5 -8q-16 -10 -36 -30q-24 -26 -40 -64.5t-12 -60.5q2 -13 9 -29t11 -17t29 7t31 11q10 6 19 66q6 42 29 25q7 -6 6 -26q-1 -21 -8 -48q-7 -29 -19 -41q-13 -13 -28 -17q-21 -7 -34 -14
q-34 -19 -77 -19q-69 0 -108 50q-33 47 -42 101q-4 38 12.5 70.5t60.5 76.5q14 14 54 35.5t69 30.5q27 9 100 10q153 4 191 -10q22 -6 34 -8q55 -9 81 -20t52 -37q31 -31 38 -62.5t5 -125.5q-1 -61 -4 -123q0 -3 -3 -58.5t-4 -89.5q-4 -104 1 -175q6 -78 6 -102q0 -32 9 -50
q6 -13 18 -26q7 -7 38 -23t42 -18zM565 402q3 99 -2 99q-12 -4 -27 -12q-11 -6 -35 -16q-20 -7 -118 -65q-15 -9 -35 -34.5t-34 -51.5q-15 -29 -19 -62q-5 -48 18 -94q7 -15 12 -20.5t17 -11.5l17 -8l45 2l46 2l26 14q29 17 53 41l28 26v20q0 25 3 46q3 22 5 125z" />
    <glyph glyph-name="a" unicode="&#xe4;" horiz-adv-x="929" 
d="M885 11q25 -4 25 -19q0 -13 -11 -17t-29 1q-41 12 -114.5 15.5t-125.5 -3.5q-17 -2 -50 -14t-46 -21q-10 -7 -21 -8q-10 0 -19 -6q-19 -12 -29 -1q-10 12 9 35q6 9 15 15q4 0 19.5 17t21.5 28q13 28 17 58q0 2 -7 -5q-6 -5 -18 -13q-3 -2 -11.5 -7t-11.5 -7
q-43 -30 -62 -34q-22 -8 -33 -14q-13 -8 -26 -11q-13 -4 -21 -9q-36 -24 -121 -24q-43 0 -82 22q-14 8 -37.5 35t-30.5 43q-25 57 -25 101q3 65 25 133q17 42 47 81q22 29 93 76q2 1 15.5 11t22.5 16q28 19 81 45t72 31q40 11 57 18q12 5 32 12q3 1 33 13l18 8v62
q0 52 -4 74.5t-15 40.5q-19 31 -59 38q-42 4 -64 4q-33 0 -40.5 -1t-19.5 -8q-16 -10 -36 -30q-24 -26 -40 -64.5t-12 -60.5q2 -13 9 -29t11 -17t29 7t31 11q10 6 19 66q6 42 29 25q7 -6 6 -26q-1 -21 -8 -48q-7 -29 -19 -41q-13 -13 -28 -17q-21 -7 -34 -14
q-34 -19 -77 -19q-69 0 -108 50q-33 47 -42 101q-4 38 12.5 70.5t60.5 76.5q14 14 54 35.5t69 30.5q27 9 100 10q153 4 191 -10q22 -6 34 -8q55 -9 81 -20t52 -37q31 -31 38 -62.5t5 -125.5q-1 -61 -4 -123q0 -3 -3 -58.5t-4 -89.5q-4 -104 1 -175q6 -78 6 -102q0 -32 9 -50
q6 -13 18 -26q7 -7 38 -23t42 -18zM565 402q3 99 -2 99q-12 -4 -27 -12q-11 -6 -35 -16q-20 -7 -118 -65q-15 -9 -35 -34.5t-34 -51.5q-15 -29 -19 -62q-5 -48 18 -94q7 -15 12 -20.5t17 -11.5l17 -8l45 2l46 2l26 14q29 17 53 41l28 26v20q0 25 3 46q3 22 5 125z" />
    <glyph glyph-name="a" unicode="&#xe3;" horiz-adv-x="929" 
d="M885 11q25 -4 25 -19q0 -13 -11 -17t-29 1q-41 12 -114.5 15.5t-125.5 -3.5q-17 -2 -50 -14t-46 -21q-10 -7 -21 -8q-10 0 -19 -6q-19 -12 -29 -1q-10 12 9 35q6 9 15 15q4 0 19.5 17t21.5 28q13 28 17 58q0 2 -7 -5q-6 -5 -18 -13q-3 -2 -11.5 -7t-11.5 -7
q-43 -30 -62 -34q-22 -8 -33 -14q-13 -8 -26 -11q-13 -4 -21 -9q-36 -24 -121 -24q-43 0 -82 22q-14 8 -37.5 35t-30.5 43q-25 57 -25 101q3 65 25 133q17 42 47 81q22 29 93 76q2 1 15.5 11t22.5 16q28 19 81 45t72 31q40 11 57 18q12 5 32 12q3 1 33 13l18 8v62
q0 52 -4 74.5t-15 40.5q-19 31 -59 38q-42 4 -64 4q-33 0 -40.5 -1t-19.5 -8q-16 -10 -36 -30q-24 -26 -40 -64.5t-12 -60.5q2 -13 9 -29t11 -17t29 7t31 11q10 6 19 66q6 42 29 25q7 -6 6 -26q-1 -21 -8 -48q-7 -29 -19 -41q-13 -13 -28 -17q-21 -7 -34 -14
q-34 -19 -77 -19q-69 0 -108 50q-33 47 -42 101q-4 38 12.5 70.5t60.5 76.5q14 14 54 35.5t69 30.5q27 9 100 10q153 4 191 -10q22 -6 34 -8q55 -9 81 -20t52 -37q31 -31 38 -62.5t5 -125.5q-1 -61 -4 -123q0 -3 -3 -58.5t-4 -89.5q-4 -104 1 -175q6 -78 6 -102q0 -32 9 -50
q6 -13 18 -26q7 -7 38 -23t42 -18zM565 402q3 99 -2 99q-12 -4 -27 -12q-11 -6 -35 -16q-20 -7 -118 -65q-15 -9 -35 -34.5t-34 -51.5q-15 -29 -19 -62q-5 -48 18 -94q7 -15 12 -20.5t17 -11.5l17 -8l45 2l46 2l26 14q29 17 53 41l28 26v20q0 25 3 46q3 22 5 125z" />
    <glyph glyph-name="a" unicode="&#xe2;" horiz-adv-x="929" 
d="M885 11q25 -4 25 -19q0 -13 -11 -17t-29 1q-41 12 -114.5 15.5t-125.5 -3.5q-17 -2 -50 -14t-46 -21q-10 -7 -21 -8q-10 0 -19 -6q-19 -12 -29 -1q-10 12 9 35q6 9 15 15q4 0 19.5 17t21.5 28q13 28 17 58q0 2 -7 -5q-6 -5 -18 -13q-3 -2 -11.5 -7t-11.5 -7
q-43 -30 -62 -34q-22 -8 -33 -14q-13 -8 -26 -11q-13 -4 -21 -9q-36 -24 -121 -24q-43 0 -82 22q-14 8 -37.5 35t-30.5 43q-25 57 -25 101q3 65 25 133q17 42 47 81q22 29 93 76q2 1 15.5 11t22.5 16q28 19 81 45t72 31q40 11 57 18q12 5 32 12q3 1 33 13l18 8v62
q0 52 -4 74.5t-15 40.5q-19 31 -59 38q-42 4 -64 4q-33 0 -40.5 -1t-19.5 -8q-16 -10 -36 -30q-24 -26 -40 -64.5t-12 -60.5q2 -13 9 -29t11 -17t29 7t31 11q10 6 19 66q6 42 29 25q7 -6 6 -26q-1 -21 -8 -48q-7 -29 -19 -41q-13 -13 -28 -17q-21 -7 -34 -14
q-34 -19 -77 -19q-69 0 -108 50q-33 47 -42 101q-4 38 12.5 70.5t60.5 76.5q14 14 54 35.5t69 30.5q27 9 100 10q153 4 191 -10q22 -6 34 -8q55 -9 81 -20t52 -37q31 -31 38 -62.5t5 -125.5q-1 -61 -4 -123q0 -3 -3 -58.5t-4 -89.5q-4 -104 1 -175q6 -78 6 -102q0 -32 9 -50
q6 -13 18 -26q7 -7 38 -23t42 -18zM565 402q3 99 -2 99q-12 -4 -27 -12q-11 -6 -35 -16q-20 -7 -118 -65q-15 -9 -35 -34.5t-34 -51.5q-15 -29 -19 -62q-5 -48 18 -94q7 -15 12 -20.5t17 -11.5l17 -8l45 2l46 2l26 14q29 17 53 41l28 26v20q0 25 3 46q3 22 5 125z" />
    <glyph glyph-name="a" unicode="&#xe1;" horiz-adv-x="929" 
d="M885 11q25 -4 25 -19q0 -13 -11 -17t-29 1q-41 12 -114.5 15.5t-125.5 -3.5q-17 -2 -50 -14t-46 -21q-10 -7 -21 -8q-10 0 -19 -6q-19 -12 -29 -1q-10 12 9 35q6 9 15 15q4 0 19.5 17t21.5 28q13 28 17 58q0 2 -7 -5q-6 -5 -18 -13q-3 -2 -11.5 -7t-11.5 -7
q-43 -30 -62 -34q-22 -8 -33 -14q-13 -8 -26 -11q-13 -4 -21 -9q-36 -24 -121 -24q-43 0 -82 22q-14 8 -37.5 35t-30.5 43q-25 57 -25 101q3 65 25 133q17 42 47 81q22 29 93 76q2 1 15.5 11t22.5 16q28 19 81 45t72 31q40 11 57 18q12 5 32 12q3 1 33 13l18 8v62
q0 52 -4 74.5t-15 40.5q-19 31 -59 38q-42 4 -64 4q-33 0 -40.5 -1t-19.5 -8q-16 -10 -36 -30q-24 -26 -40 -64.5t-12 -60.5q2 -13 9 -29t11 -17t29 7t31 11q10 6 19 66q6 42 29 25q7 -6 6 -26q-1 -21 -8 -48q-7 -29 -19 -41q-13 -13 -28 -17q-21 -7 -34 -14
q-34 -19 -77 -19q-69 0 -108 50q-33 47 -42 101q-4 38 12.5 70.5t60.5 76.5q14 14 54 35.5t69 30.5q27 9 100 10q153 4 191 -10q22 -6 34 -8q55 -9 81 -20t52 -37q31 -31 38 -62.5t5 -125.5q-1 -61 -4 -123q0 -3 -3 -58.5t-4 -89.5q-4 -104 1 -175q6 -78 6 -102q0 -32 9 -50
q6 -13 18 -26q7 -7 38 -23t42 -18zM565 402q3 99 -2 99q-12 -4 -27 -12q-11 -6 -35 -16q-20 -7 -118 -65q-15 -9 -35 -34.5t-34 -51.5q-15 -29 -19 -62q-5 -48 18 -94q7 -15 12 -20.5t17 -11.5l17 -8l45 2l46 2l26 14q29 17 53 41l28 26v20q0 25 3 46q3 22 5 125z" />
    <glyph glyph-name="a" unicode="&#xe0;" horiz-adv-x="929" 
d="M885 11q25 -4 25 -19q0 -13 -11 -17t-29 1q-41 12 -114.5 15.5t-125.5 -3.5q-17 -2 -50 -14t-46 -21q-10 -7 -21 -8q-10 0 -19 -6q-19 -12 -29 -1q-10 12 9 35q6 9 15 15q4 0 19.5 17t21.5 28q13 28 17 58q0 2 -7 -5q-6 -5 -18 -13q-3 -2 -11.5 -7t-11.5 -7
q-43 -30 -62 -34q-22 -8 -33 -14q-13 -8 -26 -11q-13 -4 -21 -9q-36 -24 -121 -24q-43 0 -82 22q-14 8 -37.5 35t-30.5 43q-25 57 -25 101q3 65 25 133q17 42 47 81q22 29 93 76q2 1 15.5 11t22.5 16q28 19 81 45t72 31q40 11 57 18q12 5 32 12q3 1 33 13l18 8v62
q0 52 -4 74.5t-15 40.5q-19 31 -59 38q-42 4 -64 4q-33 0 -40.5 -1t-19.5 -8q-16 -10 -36 -30q-24 -26 -40 -64.5t-12 -60.5q2 -13 9 -29t11 -17t29 7t31 11q10 6 19 66q6 42 29 25q7 -6 6 -26q-1 -21 -8 -48q-7 -29 -19 -41q-13 -13 -28 -17q-21 -7 -34 -14
q-34 -19 -77 -19q-69 0 -108 50q-33 47 -42 101q-4 38 12.5 70.5t60.5 76.5q14 14 54 35.5t69 30.5q27 9 100 10q153 4 191 -10q22 -6 34 -8q55 -9 81 -20t52 -37q31 -31 38 -62.5t5 -125.5q-1 -61 -4 -123q0 -3 -3 -58.5t-4 -89.5q-4 -104 1 -175q6 -78 6 -102q0 -32 9 -50
q6 -13 18 -26q7 -7 38 -23t42 -18zM565 402q3 99 -2 99q-12 -4 -27 -12q-11 -6 -35 -16q-20 -7 -118 -65q-15 -9 -35 -34.5t-34 -51.5q-15 -29 -19 -62q-5 -48 18 -94q7 -15 12 -20.5t17 -11.5l17 -8l45 2l46 2l26 14q29 17 53 41l28 26v20q0 25 3 46q3 22 5 125z" />
    <glyph glyph-name="b" unicode="b" horiz-adv-x="1021" 
d="M954 526q3 -9 5 -78.5t0 -91.5q-4 -43 -28.5 -104t-53.5 -99q-18 -24 -30 -42q-28 -42 -57 -65.5t-83 -49.5q-56 -26 -62 -28q-43 -5 -79 -5q-56 -2 -75 0.5t-47 14.5q-22 8 -33 10q-15 2 -26 8t-33 27q-27 25 -28 19q-1 -3 7 -19q12 -23 5 -31t-40 -10q-110 -8 -215 -39
q-40 -12 -61 -14q-11 -2 -14 -1t-7 7q-6 8 -1 17q6 9 20 14q66 27 83 82q5 19 3 69q-2 55 -5 69q-3 15 -2 164t5 245q13 314 2 349q-6 20 -8.5 55t0.5 51q4 42 3 83q-1 114 1 134l3 26l-19 20q-17 18 -33 24t-55 11q-104 12 -116 22q-5 5 -5 14.5t4 13.5q4 2 88 4l84 1
l40 14q29 10 89 35q52 21 107 58q39 26 79 58q11 10 35 26q14 8 22 3q12 -7 7 -19.5t-33 -47.5q-44 -55 -53 -85l-15 -45l-7 -22l-2 -586l10 12q20 26 74.5 74t73.5 55q11 5 34 11q17 5 29.5 5.5t53.5 -2.5q82 -5 105.5 -9.5t45.5 -17.5q67 -42 97 -93q35 -61 54 -100
q30 -61 39.5 -90t12.5 -68q2 -33 5 -43zM711 403q5 13 5 50t-5 62q-3 21 -7 73q-8 111 -24 145q-33 70 -118 79q-59 7 -98 -7q-34 -12 -70.5 -42t-50.5 -58q-5 -10 -6.5 -30.5t-3.5 -128.5q-4 -158 -4 -230v-86l8 -10q8 -12 11 -19q4 -9 6 -9q3 0 21.5 -23.5t23.5 -34.5
q6 -12 32 -26q10 -7 30 -14q6 -1 18 -5q36 -12 75 -9h26l20 16q27 20 35 25l16 10l16 48q28 88 37 185q2 22 7 39z" />
    <glyph glyph-name="c" unicode="c" horiz-adv-x="917" 
d="M834 231q10 -42 17 -104q0 -7 -7 -16q-7 -7 -30 -5q-25 2 -37 -6q-41 -26 -77 -61q-42 -41 -77 -56t-98 -19q-103 -7 -127 2q-3 1 -16 6.5t-19 7.5q-50 18 -85 44q-11 9 -37 27q-16 10 -51 44.5t-44 49.5q-14 20 -22 29q-13 15 -18.5 26t-19.5 51q-23 67 -26 85.5
t-3 101.5q0 69 1.5 87t7.5 41q29 105 74 160q71 87 90 102l24 20q21 20 97 62q18 10 40 16l33 9q20 5 37 5q29 0 51 3q52 5 96 -8q4 -2 19 -7l21 -7q42 -15 80 -49q30 -28 45 -57t26 -84q11 -47 -2 -95q-11 -51 -34 -73q-20 -19 -32 -22.5t-46 -2.5q-65 2 -110 24t-61 58
q-9 21 -9 70q0 28 3 57q5 21 29 9l11 -5l1 -31q0 -59 16 -67q9 -5 34.5 -5t29.5 4q8 20 11 38l6 32l-9 17q-16 26 -36 43q-27 26 -44.5 32.5t-55.5 4.5l-36 -1l-24 -14q-26 -15 -50 -47q-45 -59 -64.5 -126t-19.5 -163q-2 -47 9 -92q22 -101 32.5 -134t33.5 -75
q25 -49 71 -71l21 -11h44l43 1l35 17q49 23 73 55q19 24 29 35q22 23 58 111q11 27 15 36q4 12 4 27q10 100 19 135q11 44 32 23q4 -4 5 -22.5t-1 -115.5q-2 -131 4 -156z" />
    <glyph glyph-name="c" unicode="&#xe7;" horiz-adv-x="917" 
d="M834 231q10 -42 17 -104q0 -7 -7 -16q-7 -7 -30 -5q-25 2 -37 -6q-41 -26 -77 -61q-42 -41 -77 -56t-98 -19q-103 -7 -127 2q-3 1 -16 6.5t-19 7.5q-50 18 -85 44q-11 9 -37 27q-16 10 -51 44.5t-44 49.5q-14 20 -22 29q-13 15 -18.5 26t-19.5 51q-23 67 -26 85.5
t-3 101.5q0 69 1.5 87t7.5 41q29 105 74 160q71 87 90 102l24 20q21 20 97 62q18 10 40 16l33 9q20 5 37 5q29 0 51 3q52 5 96 -8q4 -2 19 -7l21 -7q42 -15 80 -49q30 -28 45 -57t26 -84q11 -47 -2 -95q-11 -51 -34 -73q-20 -19 -32 -22.5t-46 -2.5q-65 2 -110 24t-61 58
q-9 21 -9 70q0 28 3 57q5 21 29 9l11 -5l1 -31q0 -59 16 -67q9 -5 34.5 -5t29.5 4q8 20 11 38l6 32l-9 17q-16 26 -36 43q-27 26 -44.5 32.5t-55.5 4.5l-36 -1l-24 -14q-26 -15 -50 -47q-45 -59 -64.5 -126t-19.5 -163q-2 -47 9 -92q22 -101 32.5 -134t33.5 -75
q25 -49 71 -71l21 -11h44l43 1l35 17q49 23 73 55q19 24 29 35q22 23 58 111q11 27 15 36q4 12 4 27q10 100 19 135q11 44 32 23q4 -4 5 -22.5t-1 -115.5q-2 -131 4 -156z" />
    <glyph glyph-name="d" unicode="d" horiz-adv-x="1118" 
d="M1113 1q4 -16 -10 -23q-11 -2 -21 3q-21 7 -83 14q-22 3 -38 0t-62 -20q-44 -16 -69 -19.5t-88 -3.5h-72l-16 -8q-13 -7 -31.5 -9.5t-22.5 2.5t-4 14t4.5 12t25.5 12q4 1 27 14q24 20 30 72l2 11l-15 -14q-6 -7 -18 -14q-13 -8 -23 -18q-12 -12 -33 -26q-7 -4 -21 -14
q-7 -6 -38 -16.5t-48 -12.5q-20 -2 -53.5 4t-43.5 13q-4 2 -19 7q-4 1 -17 5t-18 5q-10 3 -28 11q-10 6 -28 11q-40 13 -79 56q-22 24 -33.5 42t-34.5 65q-52 103 -67 164q-6 23 -8 101.5t2 113.5q3 29 23.5 93t37.5 97q22 44 62 82t79 51q47 17 81 32q14 6 28 9q10 1 28 7
q20 7 66 6q45 -1 66.5 -6.5t49.5 -24.5q16 -12 33 -20q34 -19 60 -53l6 -9l1 60q0 16 0.5 60.5t0.5 62.5q0 130 9 166q0 21 -3 32q-6 27 -8 54q-2 25 -8 43l-6 14l-27 2q-143 10 -163 37q-15 20 3 34q11 9 41 9q39 0 124 21q54 13 124 43t124 62q65 39 80 39q8 -2 14 -8
q12 -12 -6 -34q-11 -14 -27 -54.5t-21 -67.5q-12 -58 -15 -117l-5 -80q-5 -86 -8 -161q-3 -96 1 -138q5 -75 4 -129q0 -73 -2 -317q-1 -176 1 -221.5t12 -78.5q6 -21 24 -37q15 -15 51.5 -40.5t59.5 -36.5q53 -27 56 -37zM688 353q12 168 4 191q-5 27 -5 47q-2 53 -5.5 63.5
t-23.5 36.5q-36 46 -71 64q-12 7 -26 19q-19 17 -34 22.5t-51 8.5t-47 0.5t-31 -14.5q-26 -17 -54 -61q-45 -71 -55 -193q-7 -133 17 -269q13 -68 17 -81.5t18 -33.5q33 -48 65 -56q16 -4 23 -7q19 -10 49 -13t52 4t53 23t44 28q3 2 7.5 5.5t10.5 8.5t9 7q12 7 18 20
q4 16 5 19q5 33 6 66q2 63 5 95z" />
    <glyph glyph-name="e" unicode="e" horiz-adv-x="927" 
d="M858 144q11 -58 -1 -65q-15 -9 -37 15l-17 19l-31 -33q-19 -21 -48 -47q-4 -3 -15 -11.5t-14 -11.5q-9 -9 -22 -9q-12 -2 -22 -7q-10 -7 -66 -24q-33 -10 -86.5 -13t-93.5 4q-5 1 -41 11q-4 2 -16.5 5.5t-15.5 4.5q-15 5 -26 12q-25 18 -37 18q-11 4 -15 7q-12 8 -25 14
q-43 22 -60 47q-8 12 -25 45q-20 40 -26 48q-14 25 -20 52q-9 37 -20 64q-8 23 -12 46q0 4 -6 46q-5 40 -5 48q0 45 20 135q8 36 8 37q6 20 10 29q6 13 14 41q7 32 61 97q19 23 50.5 52.5t42.5 34.5q7 3 14 10q4 8 63 32q13 6 36 15q43 18 116 23q36 4 70 -3q33 -6 77 -27
q72 -36 97 -76q14 -22 23 -32q22 -23 38 -78q8 -25 8 -83v-58l-12 -34q-44 -120 -197 -216q-44 -31 -95 -44q-108 -33 -152 -33q-18 0 -18 -4q2 -4 9 -25q17 -52 31.5 -73.5t47.5 -43.5q37 -25 69.5 -31.5t80.5 1.5q34 5 56.5 16.5t56.5 41.5q12 11 35 42.5t34 53.5
q20 40 29 91q9 54 34 97q8 16 12 26q7 15 17.5 27.5t14.5 9.5q4 -4 2 -8q-3 -10 -3 -21q-3 -30 -9 -60q-10 -51 -7.5 -100t19.5 -147zM305 365q7 -11 42 3q11 4 21 6q7 0 39.5 13.5t45.5 21.5q3 2 17.5 10.5t21.5 12.5q61 33 96 112q16 36 19.5 49t3.5 39q2 69 -30 131
q-15 29 -23.5 39t-26.5 19q-19 9 -61 11l-44 2l-22 -12q-35 -18 -66 -77q-28 -54 -40 -161q-4 -32 -1 -121.5t8 -97.5z" />
    <glyph glyph-name="e" unicode="&#xeb;" horiz-adv-x="927" 
d="M858 144q11 -58 -1 -65q-15 -9 -37 15l-17 19l-31 -33q-19 -21 -48 -47q-4 -3 -15 -11.5t-14 -11.5q-9 -9 -22 -9q-12 -2 -22 -7q-10 -7 -66 -24q-33 -10 -86.5 -13t-93.5 4q-5 1 -41 11q-4 2 -16.5 5.5t-15.5 4.5q-15 5 -26 12q-25 18 -37 18q-11 4 -15 7q-12 8 -25 14
q-43 22 -60 47q-8 12 -25 45q-20 40 -26 48q-14 25 -20 52q-9 37 -20 64q-8 23 -12 46q0 4 -6 46q-5 40 -5 48q0 45 20 135q8 36 8 37q6 20 10 29q6 13 14 41q7 32 61 97q19 23 50.5 52.5t42.5 34.5q7 3 14 10q4 8 63 32q13 6 36 15q43 18 116 23q36 4 70 -3q33 -6 77 -27
q72 -36 97 -76q14 -22 23 -32q22 -23 38 -78q8 -25 8 -83v-58l-12 -34q-44 -120 -197 -216q-44 -31 -95 -44q-108 -33 -152 -33q-18 0 -18 -4q2 -4 9 -25q17 -52 31.5 -73.5t47.5 -43.5q37 -25 69.5 -31.5t80.5 1.5q34 5 56.5 16.5t56.5 41.5q12 11 35 42.5t34 53.5
q20 40 29 91q9 54 34 97q8 16 12 26q7 15 17.5 27.5t14.5 9.5q4 -4 2 -8q-3 -10 -3 -21q-3 -30 -9 -60q-10 -51 -7.5 -100t19.5 -147zM305 365q7 -11 42 3q11 4 21 6q7 0 39.5 13.5t45.5 21.5q3 2 17.5 10.5t21.5 12.5q61 33 96 112q16 36 19.5 49t3.5 39q2 69 -30 131
q-15 29 -23.5 39t-26.5 19q-19 9 -61 11l-44 2l-22 -12q-35 -18 -66 -77q-28 -54 -40 -161q-4 -32 -1 -121.5t8 -97.5z" />
    <glyph glyph-name="e" unicode="&#xea;" horiz-adv-x="927" 
d="M858 144q11 -58 -1 -65q-15 -9 -37 15l-17 19l-31 -33q-19 -21 -48 -47q-4 -3 -15 -11.5t-14 -11.5q-9 -9 -22 -9q-12 -2 -22 -7q-10 -7 -66 -24q-33 -10 -86.5 -13t-93.5 4q-5 1 -41 11q-4 2 -16.5 5.5t-15.5 4.5q-15 5 -26 12q-25 18 -37 18q-11 4 -15 7q-12 8 -25 14
q-43 22 -60 47q-8 12 -25 45q-20 40 -26 48q-14 25 -20 52q-9 37 -20 64q-8 23 -12 46q0 4 -6 46q-5 40 -5 48q0 45 20 135q8 36 8 37q6 20 10 29q6 13 14 41q7 32 61 97q19 23 50.5 52.5t42.5 34.5q7 3 14 10q4 8 63 32q13 6 36 15q43 18 116 23q36 4 70 -3q33 -6 77 -27
q72 -36 97 -76q14 -22 23 -32q22 -23 38 -78q8 -25 8 -83v-58l-12 -34q-44 -120 -197 -216q-44 -31 -95 -44q-108 -33 -152 -33q-18 0 -18 -4q2 -4 9 -25q17 -52 31.5 -73.5t47.5 -43.5q37 -25 69.5 -31.5t80.5 1.5q34 5 56.5 16.5t56.5 41.5q12 11 35 42.5t34 53.5
q20 40 29 91q9 54 34 97q8 16 12 26q7 15 17.5 27.5t14.5 9.5q4 -4 2 -8q-3 -10 -3 -21q-3 -30 -9 -60q-10 -51 -7.5 -100t19.5 -147zM305 365q7 -11 42 3q11 4 21 6q7 0 39.5 13.5t45.5 21.5q3 2 17.5 10.5t21.5 12.5q61 33 96 112q16 36 19.5 49t3.5 39q2 69 -30 131
q-15 29 -23.5 39t-26.5 19q-19 9 -61 11l-44 2l-22 -12q-35 -18 -66 -77q-28 -54 -40 -161q-4 -32 -1 -121.5t8 -97.5z" />
    <glyph glyph-name="e" unicode="&#xe9;" horiz-adv-x="927" 
d="M858 144q11 -58 -1 -65q-15 -9 -37 15l-17 19l-31 -33q-19 -21 -48 -47q-4 -3 -15 -11.5t-14 -11.5q-9 -9 -22 -9q-12 -2 -22 -7q-10 -7 -66 -24q-33 -10 -86.5 -13t-93.5 4q-5 1 -41 11q-4 2 -16.5 5.5t-15.5 4.5q-15 5 -26 12q-25 18 -37 18q-11 4 -15 7q-12 8 -25 14
q-43 22 -60 47q-8 12 -25 45q-20 40 -26 48q-14 25 -20 52q-9 37 -20 64q-8 23 -12 46q0 4 -6 46q-5 40 -5 48q0 45 20 135q8 36 8 37q6 20 10 29q6 13 14 41q7 32 61 97q19 23 50.5 52.5t42.5 34.5q7 3 14 10q4 8 63 32q13 6 36 15q43 18 116 23q36 4 70 -3q33 -6 77 -27
q72 -36 97 -76q14 -22 23 -32q22 -23 38 -78q8 -25 8 -83v-58l-12 -34q-44 -120 -197 -216q-44 -31 -95 -44q-108 -33 -152 -33q-18 0 -18 -4q2 -4 9 -25q17 -52 31.5 -73.5t47.5 -43.5q37 -25 69.5 -31.5t80.5 1.5q34 5 56.5 16.5t56.5 41.5q12 11 35 42.5t34 53.5
q20 40 29 91q9 54 34 97q8 16 12 26q7 15 17.5 27.5t14.5 9.5q4 -4 2 -8q-3 -10 -3 -21q-3 -30 -9 -60q-10 -51 -7.5 -100t19.5 -147zM305 365q7 -11 42 3q11 4 21 6q7 0 39.5 13.5t45.5 21.5q3 2 17.5 10.5t21.5 12.5q61 33 96 112q16 36 19.5 49t3.5 39q2 69 -30 131
q-15 29 -23.5 39t-26.5 19q-19 9 -61 11l-44 2l-22 -12q-35 -18 -66 -77q-28 -54 -40 -161q-4 -32 -1 -121.5t8 -97.5z" />
    <glyph glyph-name="e" unicode="&#xe8;" horiz-adv-x="927" 
d="M858 144q11 -58 -1 -65q-15 -9 -37 15l-17 19l-31 -33q-19 -21 -48 -47q-4 -3 -15 -11.5t-14 -11.5q-9 -9 -22 -9q-12 -2 -22 -7q-10 -7 -66 -24q-33 -10 -86.5 -13t-93.5 4q-5 1 -41 11q-4 2 -16.5 5.5t-15.5 4.5q-15 5 -26 12q-25 18 -37 18q-11 4 -15 7q-12 8 -25 14
q-43 22 -60 47q-8 12 -25 45q-20 40 -26 48q-14 25 -20 52q-9 37 -20 64q-8 23 -12 46q0 4 -6 46q-5 40 -5 48q0 45 20 135q8 36 8 37q6 20 10 29q6 13 14 41q7 32 61 97q19 23 50.5 52.5t42.5 34.5q7 3 14 10q4 8 63 32q13 6 36 15q43 18 116 23q36 4 70 -3q33 -6 77 -27
q72 -36 97 -76q14 -22 23 -32q22 -23 38 -78q8 -25 8 -83v-58l-12 -34q-44 -120 -197 -216q-44 -31 -95 -44q-108 -33 -152 -33q-18 0 -18 -4q2 -4 9 -25q17 -52 31.5 -73.5t47.5 -43.5q37 -25 69.5 -31.5t80.5 1.5q34 5 56.5 16.5t56.5 41.5q12 11 35 42.5t34 53.5
q20 40 29 91q9 54 34 97q8 16 12 26q7 15 17.5 27.5t14.5 9.5q4 -4 2 -8q-3 -10 -3 -21q-3 -30 -9 -60q-10 -51 -7.5 -100t19.5 -147zM305 365q7 -11 42 3q11 4 21 6q7 0 39.5 13.5t45.5 21.5q3 2 17.5 10.5t21.5 12.5q61 33 96 112q16 36 19.5 49t3.5 39q2 69 -30 131
q-15 29 -23.5 39t-26.5 19q-19 9 -61 11l-44 2l-22 -12q-35 -18 -66 -77q-28 -54 -40 -161q-4 -32 -1 -121.5t8 -97.5z" />
    <glyph glyph-name="f" unicode="f" horiz-adv-x="677" 
d="M846 1290q6 -23 2 -65.5t-15 -76.5q-6 -19 -39.5 -51t-70.5 -54q-13 -8 -20 -9.5t-31 -1.5q-73 0 -110 48q-41 52 -23 106q6 20 9 39q9 51 24 59q8 4 13 2q8 -4 11 -10q3 -7 -3 -24q-13 -43 -16 -79q0 -10 15 -21q35 -26 48 -23q7 1 31 21.5t34 32.5q8 10 9 14.5t0 18.5
q-6 60 -72 99q-23 14 -34 22q-36 27 -63 27q-5 0 -27.5 -14t-30.5 -22q-16 -21 -34 -55q-8 -26 -10 -40q-5 -28 -4 -191q0 -161 2 -163t49 5t72 13q39 8 43 8.5t12 -3.5q12 -10 -2 -42q-7 -16 -8 -32q1 -31 12 -61q7 -8 2 -18q-8 -16 -47 -1q-61 24 -113 29q-19 1 -21.5 0.5
t-4.5 -6.5q-4 -18 -7 -328q-2 -144 2 -199.5t17 -89.5q17 -44 45 -81q8 -10 33.5 -22.5t43.5 -15.5q47 -14 88 -38q14 -9 15 -21t-6 -17t-20 -1q-12 3 -113 15q-112 13 -235 13q-150 0 -243 -28l-11 -3q-2 2 -6 5q-14 12 -3 26q7 9 79 44q68 35 90 97q5 14 5 128v61
q0 158 -4 214q-7 100 -1 208q2 28 -3 31q-7 2 -43 -1.5t-63 -9.5q-30 -7 -38.5 -7.5t-14.5 4.5q-4 4 -4.5 10.5t1.5 33.5q2 37 -3 56q-4 15 -5 25q0 6 8 16.5t13 10.5q10 -5 15 -11q34 -31 108 -25l26 2l-1 70q-2 118 11 194t46 141q29 63 77 117q34 39 64 54q54 21 107 33
q49 9 108.5 0.5t94.5 -28.5q13 -7 44.5 -36.5t48.5 -50.5q10 -13 21 -23q5 -2 12.5 -19t11.5 -35z" />
    <glyph glyph-name="g" unicode="g" horiz-adv-x="1146" 
d="M1105 968q45 -49 30 -63t-35 10q-10 11 -27 23l-13 8l-14 -16q-2 -2 -6 -6.5t-7 -8t-5 -6.5q-22 -31 -48 -60q-8 -8 -12 -9.5t-16 -0.5q-37 6 -62 30q-2 2 -8.5 8t-13.5 12t-13 10l-23 19l-10 -16q-3 -6 -19 -28q-11 -16 -22 -37q-12 -23 -19 -33q-6 -9 -5 -14.5t9 -19.5
q6 -13 13 -31l3 -9t4 -10.5t3 -7.5q7 -17 11 -82.5t0 -90.5q-5 -30 -26 -77.5t-40 -73.5q-13 -16 -27 -26t-59 -33q-47 -23 -63 -26q-39 -5 -89 -19q-10 -4 -21 -3q-15 0 -26 -4q-52 -15 -96 -22q-26 -4 -50 -18q-31 -15 -43 -31q-13 -18 -11 -30q3 -14 14 -23l11 -11l37 -1
q25 0 50 -3q8 -2 67 -4q103 -4 130 -14q18 -4 27 -5q23 -2 51 -7q19 -4 40 -6q10 0 40 -13t52 -26q57 -35 89 -83q32 -44 35 -99q7 -82 3 -107q-3 -18 -23 -80.5t-30 -85.5q-12 -26 -44 -66t-54 -56q-11 -8 -24.5 -12t-71.5 -15q-8 -2 -28.5 -6.5t-28.5 -6.5q-37 -8 -67 -11
q-52 -5 -59 -6q-22 -3 -100 1q-88 4 -102 22q-16 13 -33 22q-42 24 -59 50q-26 35 -21 78q1 16 10 42.5t14 29.5q5 7 10 16q27 52 84 72q15 6 45 20q7 4 37 16q16 5 41 17q29 13 45 11.5t75 -24.5l42 -15l1 -11q2 -9 -5 -16t-16 -3q-28 7 -45 16q-22 10 -39 14q-8 2 -25 -16
q-5 -6 -44 -47q-33 -35 -39.5 -49t0.5 -39q7 -23 34 -46t55 -29q17 -4 56 -3t54 5q13 4 23 5q19 3 34 10q27 10 53 36q29 28 43 59q18 38 24 53q6 18 3 35q-5 23 -19 37t-48 29q-56 24 -192 32q-109 6 -178 24q-44 11 -72 22q-42 25 -81 60t-50 58q-21 47 -7 111q9 41 40 93
q31 55 135 125q13 10 9 12l-10 4q-10 4 -17 6q-53 18 -93 55q-24 23 -42 59q-13 26 -16 36.5t-6 38.5l-4 39l13 68q12 64 24 89.5t50 69.5q39 44 118 83q35 17 59 21.5t74 2.5q70 -3 141 -23q30 -8 61 -13q37 -6 72 -25q6 -3 7 2q12 35 55 124q29 62 52 89q10 12 26.5 14.5
t29.5 -5.5t41.5 -42t39.5 -54q9 -17 21 -32.5t16 -15.5q8 4 22 16q45 36 67 36q12 0 22 -11q3 -3 25 -28zM593 563q7 33 6 81q-1 43 -13 80q-14 40 -36 68q-31 36 -42 40q-47 17 -71 19t-53 -9q-34 -13 -49 -29t-29 -54q-10 -27 -12 -80q-3 -38 4 -83q10 -63 31 -114
q8 -18 13 -23t25 -18q51 -32 96 -32q22 -3 43 10q18 9 40 41q36 53 47 103z" />
    <glyph glyph-name="h" unicode="h" horiz-adv-x="1103" 
d="M1105 -6q5 0 9 -5.5t4 -12.5q0 -20 -31 -17q-19 3 -77 11q-89 13 -123.5 15t-87.5 0q-204 -9 -210 -4q-5 7 -5 13q3 21 22 29q29 15 50 34q9 7 24 17q23 13 28 42t9 162q7 299 -1 330q-2 7 -8 61q-4 38 -8.5 50.5t-21.5 33.5q-24 29 -63 32q-25 1 -40 -7q-38 -19 -66 -47
q-3 -4 -12 -13.5t-13 -12.5q-14 -17 -27 -38q-6 -10 -28 -45q-10 -15 -11.5 -22.5t-3.5 -37.5q-3 -55 0 -101q4 -65 2 -110q-2 -74 6 -148t21 -103q10 -20 43 -34q13 -8 21 -14q10 -7 23 -12q17 -5 19.5 -22t-12.5 -22q-12 -3 -25 2q-108 34 -331 3q-63 -7 -127 -26
q-18 -6 -37 -9q-11 0 -14.5 11.5t4.5 24.5q6 10 26 18q61 25 85 48q40 38 53 91t17 190q5 133 6 148q3 51 0 208q-3 129 -3 345q0 142 -2 181t-9 61q-11 32 -40 46q-51 20 -109 22q-20 0 -25 1t-12 8q-17 17 -4 28q15 12 96 12q71 -1 145 19q39 12 105 47.5t97 60.5
q10 8 32 22q16 9 28 19q7 6 17.5 7t14.5 -4q5 -5 3.5 -15t-8.5 -16q-10 -8 -33.5 -45.5t-30.5 -57.5q-23 -59 -31 -147q-5 -50 -7 -63q-7 -67 -11 -373l-1 -86l28 30q46 51 72 59l21 9q7 4 17 6q9 3 16 10q31 21 65 24q9 0 16 3q10 4 56 0t62 -10q56 -20 94 -60
q22 -23 32 -37t19 -38q13 -32 24 -98q7 -40 9 -227q2 -182 6 -207q3 -23 3 -44q1 -74 44 -121q21 -22 52 -42q11 -7 34 -23q9 -7 29 -17z" />
    <glyph glyph-name="i" unicode="i" horiz-adv-x="626" 
d="M323 1183q-30 16 -54.5 41t-35.5 52q-21 49 -11.5 102t46.5 97q18 21 29 28t30 9q39 5 58.5 -0.5t47.5 -27.5q53 -41 53 -127q0 -115 -62 -157q-21 -14 -53.5 -19t-47.5 2zM593 13q16 -4 21.5 -15.5t-5.5 -19.5q-10 -8 -40 1q-46 16 -188 19q-96 1 -153 -5
q-106 -11 -151 -28l-17 -6q-1 1 -3.5 3t-3.5 3q-9 9 -2 21q5 10 23 20.5t38 15.5q14 4 36.5 20.5t36.5 34.5q26 32 35.5 67t13.5 114q4 73 6 80q3 14 3 70.5t-3 77.5q-4 29 -12 121q-4 48 -22 77q-7 12 -13.5 16t-26.5 10q-19 7 -38 20q-12 10 -27 15q-16 3 -41 13
q-33 13 -36 22q-2 9 6 17q6 7 15 9q10 0 77.5 18t91.5 28q36 14 58 19q67 17 156 77q64 43 89 65q22 19 32.5 23t17.5 -4q8 -8 3 -17.5t-29 -32.5q-48 -45 -62 -81q-13 -32 -17.5 -59.5t-6.5 -91.5q-7 -217 -13 -316q-4 -78 0 -157t15 -111q8 -20 14 -29q12 -19 18 -30
q7 -11 18 -22q9 -7 15 -18q9 -12 19 -22t14 -15q5 -8 38 -17z" />
    <glyph glyph-name="i" unicode="&#xef;" horiz-adv-x="626" 
d="M323 1183q-30 16 -54.5 41t-35.5 52q-21 49 -11.5 102t46.5 97q18 21 29 28t30 9q39 5 58.5 -0.5t47.5 -27.5q53 -41 53 -127q0 -115 -62 -157q-21 -14 -53.5 -19t-47.5 2zM593 13q16 -4 21.5 -15.5t-5.5 -19.5q-10 -8 -40 1q-46 16 -188 19q-96 1 -153 -5
q-106 -11 -151 -28l-17 -6q-1 1 -3.5 3t-3.5 3q-9 9 -2 21q5 10 23 20.5t38 15.5q14 4 36.5 20.5t36.5 34.5q26 32 35.5 67t13.5 114q4 73 6 80q3 14 3 70.5t-3 77.5q-4 29 -12 121q-4 48 -22 77q-7 12 -13.5 16t-26.5 10q-19 7 -38 20q-12 10 -27 15q-16 3 -41 13
q-33 13 -36 22q-2 9 6 17q6 7 15 9q10 0 77.5 18t91.5 28q36 14 58 19q67 17 156 77q64 43 89 65q22 19 32.5 23t17.5 -4q8 -8 3 -17.5t-29 -32.5q-48 -45 -62 -81q-13 -32 -17.5 -59.5t-6.5 -91.5q-7 -217 -13 -316q-4 -78 0 -157t15 -111q8 -20 14 -29q12 -19 18 -30
q7 -11 18 -22q9 -7 15 -18q9 -12 19 -22t14 -15q5 -8 38 -17z" />
    <glyph glyph-name="i" unicode="&#xee;" horiz-adv-x="626" 
d="M323 1183q-30 16 -54.5 41t-35.5 52q-21 49 -11.5 102t46.5 97q18 21 29 28t30 9q39 5 58.5 -0.5t47.5 -27.5q53 -41 53 -127q0 -115 -62 -157q-21 -14 -53.5 -19t-47.5 2zM593 13q16 -4 21.5 -15.5t-5.5 -19.5q-10 -8 -40 1q-46 16 -188 19q-96 1 -153 -5
q-106 -11 -151 -28l-17 -6q-1 1 -3.5 3t-3.5 3q-9 9 -2 21q5 10 23 20.5t38 15.5q14 4 36.5 20.5t36.5 34.5q26 32 35.5 67t13.5 114q4 73 6 80q3 14 3 70.5t-3 77.5q-4 29 -12 121q-4 48 -22 77q-7 12 -13.5 16t-26.5 10q-19 7 -38 20q-12 10 -27 15q-16 3 -41 13
q-33 13 -36 22q-2 9 6 17q6 7 15 9q10 0 77.5 18t91.5 28q36 14 58 19q67 17 156 77q64 43 89 65q22 19 32.5 23t17.5 -4q8 -8 3 -17.5t-29 -32.5q-48 -45 -62 -81q-13 -32 -17.5 -59.5t-6.5 -91.5q-7 -217 -13 -316q-4 -78 0 -157t15 -111q8 -20 14 -29q12 -19 18 -30
q7 -11 18 -22q9 -7 15 -18q9 -12 19 -22t14 -15q5 -8 38 -17z" />
    <glyph glyph-name="i" unicode="&#xed;" horiz-adv-x="626" 
d="M323 1183q-30 16 -54.5 41t-35.5 52q-21 49 -11.5 102t46.5 97q18 21 29 28t30 9q39 5 58.5 -0.5t47.5 -27.5q53 -41 53 -127q0 -115 -62 -157q-21 -14 -53.5 -19t-47.5 2zM593 13q16 -4 21.5 -15.5t-5.5 -19.5q-10 -8 -40 1q-46 16 -188 19q-96 1 -153 -5
q-106 -11 -151 -28l-17 -6q-1 1 -3.5 3t-3.5 3q-9 9 -2 21q5 10 23 20.5t38 15.5q14 4 36.5 20.5t36.5 34.5q26 32 35.5 67t13.5 114q4 73 6 80q3 14 3 70.5t-3 77.5q-4 29 -12 121q-4 48 -22 77q-7 12 -13.5 16t-26.5 10q-19 7 -38 20q-12 10 -27 15q-16 3 -41 13
q-33 13 -36 22q-2 9 6 17q6 7 15 9q10 0 77.5 18t91.5 28q36 14 58 19q67 17 156 77q64 43 89 65q22 19 32.5 23t17.5 -4q8 -8 3 -17.5t-29 -32.5q-48 -45 -62 -81q-13 -32 -17.5 -59.5t-6.5 -91.5q-7 -217 -13 -316q-4 -78 0 -157t15 -111q8 -20 14 -29q12 -19 18 -30
q7 -11 18 -22q9 -7 15 -18q9 -12 19 -22t14 -15q5 -8 38 -17z" />
    <glyph glyph-name="i" unicode="&#xec;" horiz-adv-x="626" 
d="M323 1183q-30 16 -54.5 41t-35.5 52q-21 49 -11.5 102t46.5 97q18 21 29 28t30 9q39 5 58.5 -0.5t47.5 -27.5q53 -41 53 -127q0 -115 -62 -157q-21 -14 -53.5 -19t-47.5 2zM593 13q16 -4 21.5 -15.5t-5.5 -19.5q-10 -8 -40 1q-46 16 -188 19q-96 1 -153 -5
q-106 -11 -151 -28l-17 -6q-1 1 -3.5 3t-3.5 3q-9 9 -2 21q5 10 23 20.5t38 15.5q14 4 36.5 20.5t36.5 34.5q26 32 35.5 67t13.5 114q4 73 6 80q3 14 3 70.5t-3 77.5q-4 29 -12 121q-4 48 -22 77q-7 12 -13.5 16t-26.5 10q-19 7 -38 20q-12 10 -27 15q-16 3 -41 13
q-33 13 -36 22q-2 9 6 17q6 7 15 9q10 0 77.5 18t91.5 28q36 14 58 19q67 17 156 77q64 43 89 65q22 19 32.5 23t17.5 -4q8 -8 3 -17.5t-29 -32.5q-48 -45 -62 -81q-13 -32 -17.5 -59.5t-6.5 -91.5q-7 -217 -13 -316q-4 -78 0 -157t15 -111q8 -20 14 -29q12 -19 18 -30
q7 -11 18 -22q9 -7 15 -18q9 -12 19 -22t14 -15q5 -8 38 -17z" />
    <glyph glyph-name="j" unicode="j" horiz-adv-x="585" 
d="M325 1235q-44 14 -70 62q-14 25 -17.5 35.5t-3.5 31.5q-2 51 21 98q26 54 56 77q11 9 36 8q52 -1 78 -17.5t46 -59.5l13 -29v-39q0 -37 -13 -77q-5 -15 -18 -48q-4 -9 -22.5 -26t-29.5 -23q-10 -5 -26 -6.5t-22 2.5q-18 8 -28 11zM546 1039q2 -2 3 -7.5t0.5 -10.5
t-2.5 -5q-3 0 -3 -5q-8 -24 -14 -36q-28 -69 -43 -145q-12 -64 -9 -177q2 -80 2 -96q-2 -256 3 -272q3 -10 -1 -18q-2 -5 -4 -57q-3 -198 -9 -226q-1 -5 -5 -106q-4 -112 -6 -128q-6 -53 -32 -100q-13 -20 -19 -35q-20 -35 -30 -47l-12.5 -15t-12.5 -15.5t-8 -10.5
q-16 -21 -41 -33q-30 -12 -71 -22q-13 -2 -23 -6q-24 -7 -48 -8q-33 -3 -64 6q-44 10 -66 26t-71 71q-28 31 -35 55q-10 32 -3 67q1 8 10 45q4 17 11 44q2 7 5 21.5t3 15.5q4 18 8 26q6 17 9 33q9 46 34 27q11 -9 5 -26q-20 -65 -25 -94q-5 -25 -1 -36t26 -32q40 -40 58 -49
t49 -7q29 2 39 11q7 8 18 9q9 0 25 18q13 15 19 27q17 57 22 103t7 443q0 160 7 213q6 48 2 100q-9 136 -35 166q-12 13 -31.5 16.5t-86.5 5.5q-77 2 -84 8q-3 3 -3 13q0 17 21 21q49 11 95 14q78 6 161 45q27 14 53 23q4 0 29 15t30 20q4 4 8 5q3 0 33.5 29.5t47.5 48.5
q24 27 30 32.5t13 5.5t12 -4z" />
    <glyph glyph-name="k" unicode="k" horiz-adv-x="1089" 
d="M740 630q-14 -11 -29 -28q-18 -20 -22 -26t-4 -15q2 -35 17 -47q8 -6 27 -30.5t19 -29.5q3 -13 9 -23q12 -24 34 -43q37 -37 54 -96q4 -15 16 -35q14 -21 24 -40q58 -112 72 -130q7 -9 13 -22q7 -18 21 -30t49 -31q17 -9 20.5 -13t3.5 -14q0 -16 -11 -19.5t-52 0.5
q-13 1 -69 8q-46 5 -165.5 6.5t-156.5 -2.5q-32 -3 -39 -0.5t-7 15.5q-2 11 10 16q11 6 22 9q10 3 28 11q14 7 17 8q3 0 25.5 16t24.5 19q2 6 -5 28t-14 31q-32 39 -42 64q-9 20 -20 36q-14 21 -25 42q-17 34 -23 43q-28 53 -47 107q-3 12 -11 23q-2 -1 -33 -28.5t-53 -48.5
l-27 -27l2 -48q5 -107 23 -153q18 -45 34.5 -67.5t60.5 -62.5q13 -12 13 -20q0 -13 -13 -14.5t-85 3.5q-222 13 -308 3q-38 -5 -61 -5q-14 0 -31 -5q-12 -5 -19 -1q-9 5 -10 11q-2 9 2 15q3 6 33 26t41 23q15 10 29 25q21 21 35 56q23 61 26 125l6 84q4 47 11 201.5t9 237.5
q4 239 -3 301q-3 37 -1 84q1 39 -0.5 51t-11.5 29q-1 1 -4.5 8.5t-5.5 11.5q-7 13 -20 24q-9 7 -24 13t-20 4q-43 0 -65 2q-45 3 -55 5t-17 8q-5 4 -9 13q2 16 18 16q20 2 99 34q21 9 73 27q81 27 130 48q70 34 146 86q60 42 81 52t29 2q9 -14 -1 -25q-7 -7 -27 -22
q-53 -40 -72 -77q-38 -72 -31 -249q4 -70 -2 -146q-12 -170 -8 -411l2 -194l20 19q40 38 125 103q22 17 81 76.5t69 73.5q11 17 9 23q-2 5 -15 14t-20 9q-16 5 -36 15q-15 8 -47 20q-28 8 -28 23q0 11 9 15t39 8q50 5 54 5q43 0 133 18q62 11 126 35q130 45 155 45
q11 0 16 -10t-1 -18q-18 -15 -33 -22q-58 -35 -114 -92q-20 -23 -105 -108t-87 -85z" />
    <glyph glyph-name="l" unicode="l" horiz-adv-x="700" 
d="M682 26q16 -12 14 -32q-4 -16 -37 -9q-18 4 -115 6.5t-126 0.5q-83 -6 -183 -25q-51 -9 -63 -11q-25 -4 -67.5 -4t-54.5 3q-33 8 -36 21q-2 10 5 14t37 11q90 20 126 51q4 3 14.5 11.5t14.5 11.5q14 10 26 35q7 15 12 30q2 10 10 28l10 22v116q0 105 -4 237q-4 119 0 337
q4 213 -2 263q-2 19 -6 70q-2 33 -6.5 46t-17.5 27l-16 17l-36 7q-29 7 -50 13q-10 4 -32 8q-53 6 -53 26t79 28q15 2 50 10q4 1 15 3.5t20.5 5t16.5 3.5q36 9 51 15q27 11 46 20q163 67 215 106q53 41 70 34q13 -5 11 -19q0 -7 -35 -35q-17 -14 -42 -54.5t-40 -77.5
q-12 -32 -18 -64q-13 -70 -13 -579q0 -305 5 -351q1 -12 4 -42.5t4 -39.5q1 -5 3.5 -26.5t3.5 -30.5q1 -8 3 -28t3 -28q8 -76 55 -112q12 -9 18 -17q8 -8 16 -12q41 -22 50 -28q10 -4 22 -6q13 -2 23 -6z" />
    <glyph glyph-name="m" unicode="m" horiz-adv-x="1914" 
d="M1902 51q4 -5 2.5 -12.5t-6.5 -12.5q-8 -6 -26 -4q-223 26 -299 8q-102 -24 -206 -62q-66 -23 -77.5 -25.5t-17.5 4.5q-8 8 -2 20q4 6 31.5 29t50.5 38q23 16 46.5 39t30.5 39q18 38 19 151q2 55 4 89q4 51 5 160t-2 134q-3 26 -16 43q-31 44 -51 49q-11 3 -35 5
q-47 3 -111 -29q-26 -13 -36.5 -21t-36.5 -35q-23 -21 -42 -45q-5 -8 -26 -91q-7 -28 -10 -64q-1 -11 -4 -40.5t-3 -35.5q-6 -64 5 -104q6 -22 9 -45q2 -17 6 -24.5t16 -17.5q10 -8 27 -17t23 -9q7 0 40 -12.5t41 -17.5q22 -15 6 -30q-7 -5 -15 -4t-50 12
q-70 18 -100.5 21.5t-56.5 -2.5q-15 -3 -49 -7q-40 -5 -53 -8q-25 -5 -78 -22.5t-69 -25.5q-25 -13 -33 1q-6 12 15 27q20 15 116 44q16 4 18.5 6.5t-0.5 6.5q-9 13 -12 244q-3 151 -15 237q-7 55 -47 101q-29 34 -75 44l-24 5l-32 -10q-47 -15 -86 -42q-31 -21 -61 -71
q-21 -36 -39 -95l-13 -42l1 -121q0 -187 10 -241q1 -8 4.5 -27t3.5 -20q2 -17 4.5 -21t14.5 -14q16 -14 53 -25q38 -11 42 -14q5 -3 9 -3q8 -3 17 -10q22 -16 7 -31q-6 -7 -16 -4q-33 7 -118 9.5t-135 -1.5q-80 -6 -216 -39q-50 -13 -62 -13q-9 0 -13 12t3 18q27 16 31 18
q29 15 44.5 26.5t42.5 38.5q22 22 29 31.5t16 30.5q14 33 18 71q3 22 3 46q-2 4 -6.5 59t-5.5 94q-3 132 -8 153q-3 20 -3 40q0 68 -11 84q-12 18 -46 25q-6 2 -21.5 5t-21.5 4q-78 17 -104 20q-37 5 -43 11q-5 5 -5 12q0 11 10 13.5t48 2.5q35 -1 74 5q42 9 105 18
q41 6 126 56q32 20 49 29q24 12 80.5 50.5t70.5 50.5q26 23 37 11q8 -10 3 -20.5t-33 -38.5q-35 -36 -52.5 -65.5t-25.5 -68.5q-6 -28 -7 -43v-15l8 12q14 22 57.5 62t68.5 54q19 12 38 25q35 24 85 31q31 4 73 -1q16 -2 48 -10q19 -6 35 -9q28 -6 41 -12q13 -7 30 -14
q18 -7 33 -26q3 -4 8 -11.5t9 -13t7 -8.5q18 -29 26 -63q1 -7 5 -4q2 1 23 22q45 46 61.5 58t57.5 32q28 14 62 27q17 5 38 14q20 9 50 14q23 4 56 2t46 -8q27 -12 56 -18q6 -1 14 -7l18 -12q9 -5 45.5 -46t46.5 -58q15 -29 19 -53q11 -49 15 -129.5t-1 -134.5
q-5 -50 3 -139t22 -147q12 -46 20 -56t42 -18q14 -3 42 -13q17 -7 31 -7q12 0 34.5 -6.5t27.5 -11.5z" />
    <glyph glyph-name="n" unicode="n" 
d="M1075 25q27 -10 27 -28q0 -21 -36 -15q-39 5 -188 1q-146 -4 -211 -19q-45 -10 -50 1q-7 16 13 31q19 14 48.5 59t34.5 68q1 2 2 6.5t2 8t2 6.5q5 28 6 53q5 66 6 75q8 62 10 225q1 63 0 81.5t-7 49.5t-16.5 59.5t-17.5 32.5q-7 8 -11 17q-16 33 -50 39q-20 4 -28.5 2.5
t-32.5 -12.5q-24 -12 -52 -40q-71 -71 -78 -124q-5 -31 -9 -49q-9 -40 -28 -149q-3 -18 -2.5 -62t4.5 -72q5 -46 6 -68q5 -80 45 -121q10 -10 14 -16q9 -11 38.5 -30.5t46.5 -25.5q34 -11 16 -32l-7 -8l-57 10q-102 17 -173 15q-76 -3 -160 -14t-116 -22q-33 -11 -41 -5
q-6 4 -6.5 13t4.5 13q4 4 36 20q45 23 60.5 37.5t40.5 55.5q35 58 47 123q14 77 5 151q-14 155 -11 168q4 16 -7 105q-6 42 -17 50q-8 2 -24 2q-23 1 -46 6q-26 6 -44 1q-30 -8 -35 10q-5 17 5.5 25.5t54.5 24.5q101 36 113.5 41.5t47.5 26.5q31 19 47 31q15 11 43 28
q25 15 44 30q77 67 99 75q5 2 13 -4.5t8 -13.5q-5 -14 -14 -25q-51 -64 -62 -122q-8 -39 -4 -79q1 -4 2 -4q25 44 64 80q32 30 62 44q70 34 101 34q15 0 33 5q32 9 65 0q36 -9 65 -36q9 -8 29 -22q25 -16 40.5 -44t38.5 -99q2 -5 7 -37q8 -64 12 -77q3 -11 0 -39
q-1 -5 -1 -31q1 -2 3.5 -55t2.5 -84q0 -25 -2 -99q-1 -62 3 -80q4 -14 11 -42q7 -27 12 -36.5t25 -33.5q3 -4 29 -36q10 -14 50 -29z" />
    <glyph glyph-name="n" unicode="&#xf1;" 
d="M1075 25q27 -10 27 -28q0 -21 -36 -15q-39 5 -188 1q-146 -4 -211 -19q-45 -10 -50 1q-7 16 13 31q19 14 48.5 59t34.5 68q1 2 2 6.5t2 8t2 6.5q5 28 6 53q5 66 6 75q8 62 10 225q1 63 0 81.5t-7 49.5t-16.5 59.5t-17.5 32.5q-7 8 -11 17q-16 33 -50 39q-20 4 -28.5 2.5
t-32.5 -12.5q-24 -12 -52 -40q-71 -71 -78 -124q-5 -31 -9 -49q-9 -40 -28 -149q-3 -18 -2.5 -62t4.5 -72q5 -46 6 -68q5 -80 45 -121q10 -10 14 -16q9 -11 38.5 -30.5t46.5 -25.5q34 -11 16 -32l-7 -8l-57 10q-102 17 -173 15q-76 -3 -160 -14t-116 -22q-33 -11 -41 -5
q-6 4 -6.5 13t4.5 13q4 4 36 20q45 23 60.5 37.5t40.5 55.5q35 58 47 123q14 77 5 151q-14 155 -11 168q4 16 -7 105q-6 42 -17 50q-8 2 -24 2q-23 1 -46 6q-26 6 -44 1q-30 -8 -35 10q-5 17 5.5 25.5t54.5 24.5q101 36 113.5 41.5t47.5 26.5q31 19 47 31q15 11 43 28
q25 15 44 30q77 67 99 75q5 2 13 -4.5t8 -13.5q-5 -14 -14 -25q-51 -64 -62 -122q-8 -39 -4 -79q1 -4 2 -4q25 44 64 80q32 30 62 44q70 34 101 34q15 0 33 5q32 9 65 0q36 -9 65 -36q9 -8 29 -22q25 -16 40.5 -44t38.5 -99q2 -5 7 -37q8 -64 12 -77q3 -11 0 -39
q-1 -5 -1 -31q1 -2 3.5 -55t2.5 -84q0 -25 -2 -99q-1 -62 3 -80q4 -14 11 -42q7 -27 12 -36.5t25 -33.5q3 -4 29 -36q10 -14 50 -29z" />
    <glyph glyph-name="o" unicode="o" horiz-adv-x="985" 
d="M918 564q8 -46 6 -99q0 -45 -10 -100q-2 -11 -6.5 -36t-5.5 -32q-11 -58 -33 -110q-13 -24 -32 -44q-23 -25 -42 -54q-14 -20 -21 -27t-18 -12q-14 -7 -22 -16q-10 -10 -23 -14q-15 -7 -26 -15q-9 -6 -36 -20l-26 -12l-48 -1q-41 -1 -83 3q-6 1 -33.5 4t-39.5 4
q-31 2 -59 9q-22 6 -34 8q-17 2 -45 17t-47 31q-58 50 -76 82q-15 27 -19 33q-12 20 -17 31q-6 15 -18 37q-23 47 -43 186q-8 74 2 140q3 21 23.5 82.5t32.5 86.5q26 53 89 110q64 58 111.5 84.5t94.5 30.5q26 2 43 5q55 8 97 -6q19 -8 31 -10q4 0 56 -25q116 -57 160 -107
q36 -41 44 -57q15 -26 19 -32q8 -13 17 -34q6 -18 15 -32q9 -15 12 -31q0 -3 2 -12t4 -22.5t4 -23.5zM667 203q18 56 23 101t5 156q0 97 -3 131.5t-16 86.5q-8 30 -23 67q-10 22 -17 31t-26 28q-43 42 -89 53q-16 4 -23 -1q-9 -4 -25 -8q-31 -6 -66 -29.5t-58 -55.5
q-25 -35 -50 -130q-15 -54 -15 -173q-2 -86 14 -161q21 -118 39 -145q13 -19 17 -29q14 -25 39 -39q24 -11 69 -11q13 0 30 -5q16 -4 37 -4q23 0 40 9q37 19 65 56q17 22 33 72z" />
    <glyph glyph-name="o" unicode="&#xf8;" horiz-adv-x="985" 
d="M918 564q8 -46 6 -99q0 -45 -10 -100q-2 -11 -6.5 -36t-5.5 -32q-11 -58 -33 -110q-13 -24 -32 -44q-23 -25 -42 -54q-14 -20 -21 -27t-18 -12q-14 -7 -22 -16q-10 -10 -23 -14q-15 -7 -26 -15q-9 -6 -36 -20l-26 -12l-48 -1q-41 -1 -83 3q-6 1 -33.5 4t-39.5 4
q-31 2 -59 9q-22 6 -34 8q-17 2 -45 17t-47 31q-58 50 -76 82q-15 27 -19 33q-12 20 -17 31q-6 15 -18 37q-23 47 -43 186q-8 74 2 140q3 21 23.5 82.5t32.5 86.5q26 53 89 110q64 58 111.5 84.5t94.5 30.5q26 2 43 5q55 8 97 -6q19 -8 31 -10q4 0 56 -25q116 -57 160 -107
q36 -41 44 -57q15 -26 19 -32q8 -13 17 -34q6 -18 15 -32q9 -15 12 -31q0 -3 2 -12t4 -22.5t4 -23.5zM667 203q18 56 23 101t5 156q0 97 -3 131.5t-16 86.5q-8 30 -23 67q-10 22 -17 31t-26 28q-43 42 -89 53q-16 4 -23 -1q-9 -4 -25 -8q-31 -6 -66 -29.5t-58 -55.5
q-25 -35 -50 -130q-15 -54 -15 -173q-2 -86 14 -161q21 -118 39 -145q13 -19 17 -29q14 -25 39 -39q24 -11 69 -11q13 0 30 -5q16 -4 37 -4q23 0 40 9q37 19 65 56q17 22 33 72z" />
    <glyph glyph-name="o" unicode="&#xf6;" horiz-adv-x="985" 
d="M918 564q8 -46 6 -99q0 -45 -10 -100q-2 -11 -6.5 -36t-5.5 -32q-11 -58 -33 -110q-13 -24 -32 -44q-23 -25 -42 -54q-14 -20 -21 -27t-18 -12q-14 -7 -22 -16q-10 -10 -23 -14q-15 -7 -26 -15q-9 -6 -36 -20l-26 -12l-48 -1q-41 -1 -83 3q-6 1 -33.5 4t-39.5 4
q-31 2 -59 9q-22 6 -34 8q-17 2 -45 17t-47 31q-58 50 -76 82q-15 27 -19 33q-12 20 -17 31q-6 15 -18 37q-23 47 -43 186q-8 74 2 140q3 21 23.5 82.5t32.5 86.5q26 53 89 110q64 58 111.5 84.5t94.5 30.5q26 2 43 5q55 8 97 -6q19 -8 31 -10q4 0 56 -25q116 -57 160 -107
q36 -41 44 -57q15 -26 19 -32q8 -13 17 -34q6 -18 15 -32q9 -15 12 -31q0 -3 2 -12t4 -22.5t4 -23.5zM667 203q18 56 23 101t5 156q0 97 -3 131.5t-16 86.5q-8 30 -23 67q-10 22 -17 31t-26 28q-43 42 -89 53q-16 4 -23 -1q-9 -4 -25 -8q-31 -6 -66 -29.5t-58 -55.5
q-25 -35 -50 -130q-15 -54 -15 -173q-2 -86 14 -161q21 -118 39 -145q13 -19 17 -29q14 -25 39 -39q24 -11 69 -11q13 0 30 -5q16 -4 37 -4q23 0 40 9q37 19 65 56q17 22 33 72z" />
    <glyph glyph-name="o" unicode="&#xf5;" horiz-adv-x="985" 
d="M918 564q8 -46 6 -99q0 -45 -10 -100q-2 -11 -6.5 -36t-5.5 -32q-11 -58 -33 -110q-13 -24 -32 -44q-23 -25 -42 -54q-14 -20 -21 -27t-18 -12q-14 -7 -22 -16q-10 -10 -23 -14q-15 -7 -26 -15q-9 -6 -36 -20l-26 -12l-48 -1q-41 -1 -83 3q-6 1 -33.5 4t-39.5 4
q-31 2 -59 9q-22 6 -34 8q-17 2 -45 17t-47 31q-58 50 -76 82q-15 27 -19 33q-12 20 -17 31q-6 15 -18 37q-23 47 -43 186q-8 74 2 140q3 21 23.5 82.5t32.5 86.5q26 53 89 110q64 58 111.5 84.5t94.5 30.5q26 2 43 5q55 8 97 -6q19 -8 31 -10q4 0 56 -25q116 -57 160 -107
q36 -41 44 -57q15 -26 19 -32q8 -13 17 -34q6 -18 15 -32q9 -15 12 -31q0 -3 2 -12t4 -22.5t4 -23.5zM667 203q18 56 23 101t5 156q0 97 -3 131.5t-16 86.5q-8 30 -23 67q-10 22 -17 31t-26 28q-43 42 -89 53q-16 4 -23 -1q-9 -4 -25 -8q-31 -6 -66 -29.5t-58 -55.5
q-25 -35 -50 -130q-15 -54 -15 -173q-2 -86 14 -161q21 -118 39 -145q13 -19 17 -29q14 -25 39 -39q24 -11 69 -11q13 0 30 -5q16 -4 37 -4q23 0 40 9q37 19 65 56q17 22 33 72z" />
    <glyph glyph-name="o" unicode="&#xf4;" horiz-adv-x="985" 
d="M918 564q8 -46 6 -99q0 -45 -10 -100q-2 -11 -6.5 -36t-5.5 -32q-11 -58 -33 -110q-13 -24 -32 -44q-23 -25 -42 -54q-14 -20 -21 -27t-18 -12q-14 -7 -22 -16q-10 -10 -23 -14q-15 -7 -26 -15q-9 -6 -36 -20l-26 -12l-48 -1q-41 -1 -83 3q-6 1 -33.5 4t-39.5 4
q-31 2 -59 9q-22 6 -34 8q-17 2 -45 17t-47 31q-58 50 -76 82q-15 27 -19 33q-12 20 -17 31q-6 15 -18 37q-23 47 -43 186q-8 74 2 140q3 21 23.5 82.5t32.5 86.5q26 53 89 110q64 58 111.5 84.5t94.5 30.5q26 2 43 5q55 8 97 -6q19 -8 31 -10q4 0 56 -25q116 -57 160 -107
q36 -41 44 -57q15 -26 19 -32q8 -13 17 -34q6 -18 15 -32q9 -15 12 -31q0 -3 2 -12t4 -22.5t4 -23.5zM667 203q18 56 23 101t5 156q0 97 -3 131.5t-16 86.5q-8 30 -23 67q-10 22 -17 31t-26 28q-43 42 -89 53q-16 4 -23 -1q-9 -4 -25 -8q-31 -6 -66 -29.5t-58 -55.5
q-25 -35 -50 -130q-15 -54 -15 -173q-2 -86 14 -161q21 -118 39 -145q13 -19 17 -29q14 -25 39 -39q24 -11 69 -11q13 0 30 -5q16 -4 37 -4q23 0 40 9q37 19 65 56q17 22 33 72z" />
    <glyph glyph-name="o" unicode="&#xf3;" horiz-adv-x="985" 
d="M918 564q8 -46 6 -99q0 -45 -10 -100q-2 -11 -6.5 -36t-5.5 -32q-11 -58 -33 -110q-13 -24 -32 -44q-23 -25 -42 -54q-14 -20 -21 -27t-18 -12q-14 -7 -22 -16q-10 -10 -23 -14q-15 -7 -26 -15q-9 -6 -36 -20l-26 -12l-48 -1q-41 -1 -83 3q-6 1 -33.5 4t-39.5 4
q-31 2 -59 9q-22 6 -34 8q-17 2 -45 17t-47 31q-58 50 -76 82q-15 27 -19 33q-12 20 -17 31q-6 15 -18 37q-23 47 -43 186q-8 74 2 140q3 21 23.5 82.5t32.5 86.5q26 53 89 110q64 58 111.5 84.5t94.5 30.5q26 2 43 5q55 8 97 -6q19 -8 31 -10q4 0 56 -25q116 -57 160 -107
q36 -41 44 -57q15 -26 19 -32q8 -13 17 -34q6 -18 15 -32q9 -15 12 -31q0 -3 2 -12t4 -22.5t4 -23.5zM667 203q18 56 23 101t5 156q0 97 -3 131.5t-16 86.5q-8 30 -23 67q-10 22 -17 31t-26 28q-43 42 -89 53q-16 4 -23 -1q-9 -4 -25 -8q-31 -6 -66 -29.5t-58 -55.5
q-25 -35 -50 -130q-15 -54 -15 -173q-2 -86 14 -161q21 -118 39 -145q13 -19 17 -29q14 -25 39 -39q24 -11 69 -11q13 0 30 -5q16 -4 37 -4q23 0 40 9q37 19 65 56q17 22 33 72z" />
    <glyph glyph-name="o" unicode="&#xf2;" horiz-adv-x="985" 
d="M918 564q8 -46 6 -99q0 -45 -10 -100q-2 -11 -6.5 -36t-5.5 -32q-11 -58 -33 -110q-13 -24 -32 -44q-23 -25 -42 -54q-14 -20 -21 -27t-18 -12q-14 -7 -22 -16q-10 -10 -23 -14q-15 -7 -26 -15q-9 -6 -36 -20l-26 -12l-48 -1q-41 -1 -83 3q-6 1 -33.5 4t-39.5 4
q-31 2 -59 9q-22 6 -34 8q-17 2 -45 17t-47 31q-58 50 -76 82q-15 27 -19 33q-12 20 -17 31q-6 15 -18 37q-23 47 -43 186q-8 74 2 140q3 21 23.5 82.5t32.5 86.5q26 53 89 110q64 58 111.5 84.5t94.5 30.5q26 2 43 5q55 8 97 -6q19 -8 31 -10q4 0 56 -25q116 -57 160 -107
q36 -41 44 -57q15 -26 19 -32q8 -13 17 -34q6 -18 15 -32q9 -15 12 -31q0 -3 2 -12t4 -22.5t4 -23.5zM667 203q18 56 23 101t5 156q0 97 -3 131.5t-16 86.5q-8 30 -23 67q-10 22 -17 31t-26 28q-43 42 -89 53q-16 4 -23 -1q-9 -4 -25 -8q-31 -6 -66 -29.5t-58 -55.5
q-25 -35 -50 -130q-15 -54 -15 -173q-2 -86 14 -161q21 -118 39 -145q13 -19 17 -29q14 -25 39 -39q24 -11 69 -11q13 0 30 -5q16 -4 37 -4q23 0 40 9q37 19 65 56q17 22 33 72z" />
    <glyph glyph-name="p" unicode="p" horiz-adv-x="1191" 
d="M1127 511q7 -17 7 -31t-7 -88q-8 -86 -32 -144q-31 -74 -48 -98q-13 -18 -24 -37q-34 -53 -83 -99q-23 -24 -53 -38l-25 -11l-53 -2q-61 -2 -103 1q-51 3 -70 12q-27 14 -36 20q-24 17 -61.5 33.5t-43.5 12.5q-5 -4 1 -92q4 -50 4 -158q0 -106 4 -128q8 -24 18 -48
q20 -45 38 -45q6 0 12 -3q14 -3 42 -3q47 0 63.5 -3t27.5 -12q19 -17 6 -29q-5 -5 -29 -5q-8 0 -61 -5q-42 -4 -87 -9t-87 -11q-101 -16 -148.5 -27t-118.5 -35q-70 -24 -74 -24q-6 1 -14 7q-9 4 -7 16q1 8 17 17q18 11 33 24q14 13 36 28q27 20 42 44.5t34 83.5
q26 78 30.5 113t4.5 151q0 122 -4 190q-5 87 -6 112q0 29 -6 59q-3 8 -3 60q0 17 -1 40v22q0 3 0.5 13t0.5 15q0 13 -2 39q-2 21 1 37q4 15 4 49.5t-3 55.5q-5 33 -6 43q-5 45 -11 62.5t-18 27.5q-26 20 -50 15q-18 -3 -40 -1q-22 1 -39.5 -3.5t-51.5 -20.5q-30 -15 -32 9
q-1 12 13 24q14 11 32 21q11 4 21 14q4 6 15 5q19 -3 83 32q4 2 34.5 18.5t41.5 21.5q141 71 232 156q25 23 76 68q41 36 51 36q17 0 17 -18q0 -11 -19 -33q-43 -50 -67 -100q-17 -33 -26 -66q-23 -112 -23 -121q0 -2 7 6q3 4 6 9q46 55 105 92q43 27 97 25q24 0 52 5
q30 5 62 3q41 -1 52 -7q13 -7 25 -8q13 -1 26 -11q16 -12 21 -14q11 -6 21 -14q4 -3 12.5 -10t11.5 -9q25 -22 44 -52q30 -44 42 -73t19 -69q6 -32 11 -49t7 -41q3 -24 10 -43zM883 323q7 39 5 147q-3 173 -19 235q-11 39 -31 64q-10 12 -14 15t-17 4q-16 1 -32 8
q-36 11 -73 12q-12 -1 -34 -7q-26 -6 -41 -23q-21 -19 -46 -37q-26 -19 -50 -46l-23 -26l2 -63q3 -114 2 -162q-1 -29 1 -73q1 -32 -2 -72q-3 -27 -5 -73l-2 -34l21 -20q9 -10 25 -21q7 -4 16 -14q44 -47 78 -67l19 -11l31 2q27 1 44 9q61 31 87.5 63t39.5 90q9 44 10 50
q4 30 8 50z" />
    <glyph glyph-name="q" unicode="q" horiz-adv-x="1032" 
d="M1072 -473q35 -12 43 -17.5t8 -18.5q0 -12 -9 -14.5t-43 -0.5q-163 11 -402 -15q-103 -12 -144 -26q-49 -17 -60 -5q-3 3 -5 10q0 6 7 13.5t15 10.5q62 23 78 33q115 69 129 92q7 13 7 57q0 54 -3 88q-12 156 -12 288v56l-18 -19q-50 -55 -77 -64q-18 -8 -26 -14
q-11 -9 -38 -11q-25 -2 -37 -5q-15 -3 -49 -5q-35 -2 -64 4q-21 4 -42 6q-13 0 -39 7.5t-36 13.5q-23 18 -42 39q-37 37 -50 47q-15 11 -32 46q-16 30 -32.5 81t-20.5 78q-1 11 -6 32q-14 57 -10 161q3 79 16 124q21 65 56 125q6 9 25 42q16 29 38 54.5t39 34.5q32 17 44 25
q32 19 45.5 23.5t46.5 6.5q194 14 253 -25q7 -6 17 -9q11 -6 31 -20l29 -20v33q-1 35 6 42q15 17 37 6q9 -4 40 -4q22 0 30 1.5t26 10.5q24 12 44 20q31 12 53 24q47 23 57 12q10 -12 -12 -38q-32 -38 -53 -100q-8 -24 -10 -83.5t-1 -241.5q1 -243 -3 -291q-4 -52 -2 -245
q2 -146 5 -190.5t14 -120.5q11 -77 29 -97q10 -8 20 -11q29 -11 41 -16q26 -11 49 -20zM692 476l2 191l-14 18q-2 2 -10.5 14t-11.5 17q-13 22 -23 28t-41 12q-18 4 -35 15q-29 19 -81 19q-33 0 -52 -10q-42 -23 -73 -89q-29 -61 -42 -165q-4 -34 -4.5 -119.5t3.5 -105.5
q1 -4 2 -13t2.5 -21.5t2.5 -21.5q6 -53 29 -104q8 -15 23.5 -33t24.5 -22q48 -21 80 -21q12 0 24 -3q19 -6 41 1q22 14 39 31q18 18 39 33q19 12 50 59l19 29l2 35q2 43 4 226z" />
    <glyph glyph-name="r" unicode="r" horiz-adv-x="905" 
d="M833 845q19 -46 29.5 -102t6.5 -89q-4 -39 -47 -83q-38 -38 -65 -50q-34 -13 -51 -3q-42 28 -70 58q-8 10 -28 26q-20 13 -20 52q0 24 15 63q11 27 21 45q8 7 19.5 2.5t11.5 -14.5q-6 -21 -15 -42q-24 -59 -11 -59q12 -5 18 -11q12 -11 33.5 -21.5t32.5 -10.5q18 0 35 27
q7 12 7 41t-13 66q-13 36 -26 50q-25 25 -45 25q-8 0 -30 -12.5t-38 -25.5q-20 -17 -51 -51.5t-40 -50.5q-20 -36 -36 -106q-8 -34 -16 -104.5t-10 -120.5q-1 -50 2 -120t8 -86q10 -33 45 -52q38 -22 42 -25q13 -10 37 -17q21 -6 47 -17q30 -13 32 -20q3 -9 -3 -16
q-4 -6 -8.5 -7t-25.5 0q-77 5 -200 4t-188 -8q-133 -15 -160 -21q-7 -1 -14.5 -2.5t-11.5 -2.5l-5 -1q-4 2 -10 8q-22 23 21 36q30 9 65.5 27.5t45.5 30.5q35 42 49 129q5 35 7.5 194.5t-1.5 189.5q-1 10 -6 38q-4 20 -8 28q-5 11 -10 29q-6 26 -28 38q-18 12 -28 24
q-14 14 -20.5 18t-30.5 11q-19 6 -39 9q-8 0 -20 6.5t-13 11.5q-1 6 0 12q3 9 14.5 12.5t45.5 4.5q43 0 90 13q68 16 111 39q134 72 187 112q45 34 56 29q7 -3 10 -11t0 -16l-26 -39q-31 -43 -45 -97q-4 -15 -9.5 -63t-3.5 -50q11 9 18 21q28 37 43 49q18 16 26 25
q23 27 63.5 59t53.5 32q12 1 24 6q18 6 47.5 4.5t45.5 -9.5q17 -8 34.5 -28t26.5 -41z" />
    <glyph glyph-name="s" unicode="s" horiz-adv-x="870" 
d="M794 282l1 -74l-10 -23q-19 -42 -45 -81q-2 -4 -8 -13l-8 -12q-21 -33 -75 -64q-41 -23 -86 -28q-80 -12 -145 -8q-54 3 -114 19q-92 24 -106 33q-8 5 -11.5 1.5t-8.5 -21.5q-4 -19 -14 -38q-5 -9 -14 -30q-6 -14 -15.5 -18t-17.5 5q-12 13 -17 79q-11 153 -13 267t7 126
q5 4 14 4q18 0 27 -43q29 -131 70 -180q12 -15 20.5 -21.5t39.5 -22.5q6 -3 31.5 -17.5t36.5 -20.5q35 -20 57.5 -25t65.5 -3q52 2 74 14q7 4 17 6q12 3 22 10q19 12 33 38t18 57q2 19 -9 38t-40 48q-25 24 -33 28t-38 8q-15 2 -26 7q-13 7 -24 6q-14 0 -32 5q-16 6 -32 5
q-17 -2 -32 3q-9 3 -28 5q-29 0 -91 54q-10 8 -27 20q-21 16 -41 35q-7 6 -24 21t-22 19q-11 10 -22 28q-13 30 -18 120l-3 50l9 33q8 29 13.5 40t23.5 36q19 25 29 36t32 28q43 34 70 47t104 34q52 15 109 2q26 -6 52 -3q22 2 28 0.5t22 -9.5q14 -7 29 -17q13 -11 28 -20
q33 -21 42 -27l12 -8t7 -4t6.5 2t4.5 7.5t7 14.5q21 38 41 62q4 4 11 3t12 -6q6 -7 2 -46q-4 -45 -6.5 -145.5t-1.5 -138.5q2 -44 -3 -52q-10 -13 -25 -5q-11 14 -14 30q-3 12 -9 24q-10 23 -17 57q-8 40 -18 56q-26 44 -49 54q-16 8 -24 16q-10 10 -21 17q-14 7 -22 12
q-14 8 -30 11q-27 4 -60 14q-38 9 -77 0q-17 -5 -32 -5q-29 0 -52 -18q-12 -10 -30 -16q-33 -8 -40 -44q-8 -39 7 -75q9 -20 30 -35.5t39 -16.5q14 -3 28 -9q20 -9 51 -16q50 -10 79 -23q7 -3 34.5 -13.5t39.5 -15.5q70 -28 140 -65q49 -30 67 -56q14 -22 19 -33
q12 -25 15 -47t4 -83z" />
    <glyph glyph-name="t" unicode="t" horiz-adv-x="813" 
d="M740 356q6 -18 7 -29t-1 -54q-1 -45 -5.5 -67.5t-19.5 -65.5q-26 -74 -99 -142q-36 -34 -60.5 -44.5t-75.5 -13.5q-86 -5 -116 3q-47 13 -93 81q-21 30 -30 66q-19 61 -22.5 97.5t-3.5 165.5q0 223 12 314q5 43 5 79q0 43 -8 51q-7 7 -26.5 9t-94.5 3q-60 1 -76 3.5
t-20 13.5q-3 9 4.5 16.5t30.5 19.5q24 12 45 26q14 8 33 17q26 14 38 22q17 12 45 27t46 30q25 21 44 35q30 24 45 43q33 38 41 46q24 25 65 92q24 38 42 9q10 -16 -2 -33q-23 -35 -28.5 -64.5t-1.5 -97.5q4 -62 1 -75q-3 -5 -1 -13q3 -3 103 -5q7 0 57 4q72 6 84 17
q4 4 12 4q5 0 11 -6q5 -6 2 -38q-4 -29 1 -65q1 -6 2.5 -18.5t2.5 -21.5t1 -14q2 -14 1 -18t-7 -8q-8 -7 -13 -6t-17 12q-32 31 -48 31q-5 0 -63 -2q-86 -4 -119 6q-2 1 -3 -0.5t-1.5 -9.5t-0.5 -24.5t1 -47.5q2 -77 -2 -191q-6 -173 -4.5 -233t10.5 -117q5 -25 12 -30.5
t35 -5.5q24 0 32 3t26 19q29 26 44 61q17 36 13.5 67.5t-29.5 76.5q-13 22 -22.5 23.5t-24.5 -16.5q-24 -29 -24 -57q0 -20 -8.5 -27t-21.5 2q-6 4 -6 23q0 26 9 45t41 60q17 20 37 33q24 16 39 16q13 0 21 -3.5t29 -19.5q51 -38 68 -89z" />
    <glyph glyph-name="u" unicode="u" horiz-adv-x="1161" 
d="M1138 77q10 -7 7.5 -20t-14.5 -13q-9 0 -32 5q-31 6 -87.5 4t-104.5 -12q-105 -22 -196 -61q-26 -12 -41.5 -18t-25.5 -8t-13.5 0.5t-5.5 8.5q-2 9 1.5 14.5t16.5 14.5q40 28 60 72q18 36 12 36q-3 0 -11 -7q-1 -1 -13.5 -11.5t-18.5 -15.5q-25 -23 -76 -56
q-33 -22 -62 -33t-78 -20q-32 -6 -63 -2q-30 4 -74 35q-21 15 -44 37t-28 33q-26 53 -31 77.5t-6 95.5q0 46 -2 152q-1 138 11 205q17 88 -10 138q-4 8 -35.5 39.5t-52.5 48.5q-14 12 -45.5 29t-46.5 22q-17 5 -20 16t11 19q7 4 12 3t27 -10q54 -22 112 -24q38 -3 74 3
q94 16 126 26q42 12 64 17q6 1 41 10q5 2 13.5 -5t8.5 -13q-7 -14 -15 -22q-36 -47 -51 -102q-10 -48 -7 -323q1 -144 4.5 -184.5t18.5 -90.5q11 -36 22.5 -52t30.5 -20q11 -3 26 -8q12 -5 36 -3q18 1 24.5 4t24.5 17q21 16 34 30q10 11 24 19q17 8 24 23q8 14 13 21
q11 14 20 72q11 73 16 233q2 59 -1.5 127.5t-8.5 85.5q-7 22 -21.5 33.5t-44.5 18.5q-35 7 -72 23q-14 7 -26 11q-28 9 -19 26q4 7 8 7h5q5 0 13 0.5t18 0.5h23.5h26.5q66 1 79.5 2t38.5 8q26 8 62 13q42 8 63 15q20 6 59 19q24 7 48 18q41 18 52 11q10 -7 7.5 -18.5
t-16.5 -18.5q-16 -11 -25 -21q-11 -12 -27.5 -41.5t-16.5 -37.5q-3 -17 -9 -34q-11 -37 -18 -102q-1 -25 2 -57q4 -35 4 -230q0 -157 2 -189t14 -52q9 -14 17 -21t29 -14.5t31 -6.5q9 0 13 -3q19 -7 41 -9q20 -1 44 -10z" />
    <glyph glyph-name="u" unicode="&#xfc;" horiz-adv-x="1161" 
d="M1138 77q10 -7 7.5 -20t-14.5 -13q-9 0 -32 5q-31 6 -87.5 4t-104.5 -12q-105 -22 -196 -61q-26 -12 -41.5 -18t-25.5 -8t-13.5 0.5t-5.5 8.5q-2 9 1.5 14.5t16.5 14.5q40 28 60 72q18 36 12 36q-3 0 -11 -7q-1 -1 -13.5 -11.5t-18.5 -15.5q-25 -23 -76 -56
q-33 -22 -62 -33t-78 -20q-32 -6 -63 -2q-30 4 -74 35q-21 15 -44 37t-28 33q-26 53 -31 77.5t-6 95.5q0 46 -2 152q-1 138 11 205q17 88 -10 138q-4 8 -35.5 39.5t-52.5 48.5q-14 12 -45.5 29t-46.5 22q-17 5 -20 16t11 19q7 4 12 3t27 -10q54 -22 112 -24q38 -3 74 3
q94 16 126 26q42 12 64 17q6 1 41 10q5 2 13.5 -5t8.5 -13q-7 -14 -15 -22q-36 -47 -51 -102q-10 -48 -7 -323q1 -144 4.5 -184.5t18.5 -90.5q11 -36 22.5 -52t30.5 -20q11 -3 26 -8q12 -5 36 -3q18 1 24.5 4t24.5 17q21 16 34 30q10 11 24 19q17 8 24 23q8 14 13 21
q11 14 20 72q11 73 16 233q2 59 -1.5 127.5t-8.5 85.5q-7 22 -21.5 33.5t-44.5 18.5q-35 7 -72 23q-14 7 -26 11q-28 9 -19 26q4 7 8 7h5q5 0 13 0.5t18 0.5h23.5h26.5q66 1 79.5 2t38.5 8q26 8 62 13q42 8 63 15q20 6 59 19q24 7 48 18q41 18 52 11q10 -7 7.5 -18.5
t-16.5 -18.5q-16 -11 -25 -21q-11 -12 -27.5 -41.5t-16.5 -37.5q-3 -17 -9 -34q-11 -37 -18 -102q-1 -25 2 -57q4 -35 4 -230q0 -157 2 -189t14 -52q9 -14 17 -21t29 -14.5t31 -6.5q9 0 13 -3q19 -7 41 -9q20 -1 44 -10z" />
    <glyph glyph-name="u" unicode="&#xfb;" horiz-adv-x="1161" 
d="M1138 77q10 -7 7.5 -20t-14.5 -13q-9 0 -32 5q-31 6 -87.5 4t-104.5 -12q-105 -22 -196 -61q-26 -12 -41.5 -18t-25.5 -8t-13.5 0.5t-5.5 8.5q-2 9 1.5 14.5t16.5 14.5q40 28 60 72q18 36 12 36q-3 0 -11 -7q-1 -1 -13.5 -11.5t-18.5 -15.5q-25 -23 -76 -56
q-33 -22 -62 -33t-78 -20q-32 -6 -63 -2q-30 4 -74 35q-21 15 -44 37t-28 33q-26 53 -31 77.5t-6 95.5q0 46 -2 152q-1 138 11 205q17 88 -10 138q-4 8 -35.5 39.5t-52.5 48.5q-14 12 -45.5 29t-46.5 22q-17 5 -20 16t11 19q7 4 12 3t27 -10q54 -22 112 -24q38 -3 74 3
q94 16 126 26q42 12 64 17q6 1 41 10q5 2 13.5 -5t8.5 -13q-7 -14 -15 -22q-36 -47 -51 -102q-10 -48 -7 -323q1 -144 4.5 -184.5t18.5 -90.5q11 -36 22.5 -52t30.5 -20q11 -3 26 -8q12 -5 36 -3q18 1 24.5 4t24.5 17q21 16 34 30q10 11 24 19q17 8 24 23q8 14 13 21
q11 14 20 72q11 73 16 233q2 59 -1.5 127.5t-8.5 85.5q-7 22 -21.5 33.5t-44.5 18.5q-35 7 -72 23q-14 7 -26 11q-28 9 -19 26q4 7 8 7h5q5 0 13 0.5t18 0.5h23.5h26.5q66 1 79.5 2t38.5 8q26 8 62 13q42 8 63 15q20 6 59 19q24 7 48 18q41 18 52 11q10 -7 7.5 -18.5
t-16.5 -18.5q-16 -11 -25 -21q-11 -12 -27.5 -41.5t-16.5 -37.5q-3 -17 -9 -34q-11 -37 -18 -102q-1 -25 2 -57q4 -35 4 -230q0 -157 2 -189t14 -52q9 -14 17 -21t29 -14.5t31 -6.5q9 0 13 -3q19 -7 41 -9q20 -1 44 -10z" />
    <glyph glyph-name="u" unicode="&#xfa;" horiz-adv-x="1161" 
d="M1138 77q10 -7 7.5 -20t-14.5 -13q-9 0 -32 5q-31 6 -87.5 4t-104.5 -12q-105 -22 -196 -61q-26 -12 -41.5 -18t-25.5 -8t-13.5 0.5t-5.5 8.5q-2 9 1.5 14.5t16.5 14.5q40 28 60 72q18 36 12 36q-3 0 -11 -7q-1 -1 -13.5 -11.5t-18.5 -15.5q-25 -23 -76 -56
q-33 -22 -62 -33t-78 -20q-32 -6 -63 -2q-30 4 -74 35q-21 15 -44 37t-28 33q-26 53 -31 77.5t-6 95.5q0 46 -2 152q-1 138 11 205q17 88 -10 138q-4 8 -35.5 39.5t-52.5 48.5q-14 12 -45.5 29t-46.5 22q-17 5 -20 16t11 19q7 4 12 3t27 -10q54 -22 112 -24q38 -3 74 3
q94 16 126 26q42 12 64 17q6 1 41 10q5 2 13.5 -5t8.5 -13q-7 -14 -15 -22q-36 -47 -51 -102q-10 -48 -7 -323q1 -144 4.5 -184.5t18.5 -90.5q11 -36 22.5 -52t30.5 -20q11 -3 26 -8q12 -5 36 -3q18 1 24.5 4t24.5 17q21 16 34 30q10 11 24 19q17 8 24 23q8 14 13 21
q11 14 20 72q11 73 16 233q2 59 -1.5 127.5t-8.5 85.5q-7 22 -21.5 33.5t-44.5 18.5q-35 7 -72 23q-14 7 -26 11q-28 9 -19 26q4 7 8 7h5q5 0 13 0.5t18 0.5h23.5h26.5q66 1 79.5 2t38.5 8q26 8 62 13q42 8 63 15q20 6 59 19q24 7 48 18q41 18 52 11q10 -7 7.5 -18.5
t-16.5 -18.5q-16 -11 -25 -21q-11 -12 -27.5 -41.5t-16.5 -37.5q-3 -17 -9 -34q-11 -37 -18 -102q-1 -25 2 -57q4 -35 4 -230q0 -157 2 -189t14 -52q9 -14 17 -21t29 -14.5t31 -6.5q9 0 13 -3q19 -7 41 -9q20 -1 44 -10z" />
    <glyph glyph-name="u" unicode="&#xf9;" horiz-adv-x="1161" 
d="M1138 77q10 -7 7.5 -20t-14.5 -13q-9 0 -32 5q-31 6 -87.5 4t-104.5 -12q-105 -22 -196 -61q-26 -12 -41.5 -18t-25.5 -8t-13.5 0.5t-5.5 8.5q-2 9 1.5 14.5t16.5 14.5q40 28 60 72q18 36 12 36q-3 0 -11 -7q-1 -1 -13.5 -11.5t-18.5 -15.5q-25 -23 -76 -56
q-33 -22 -62 -33t-78 -20q-32 -6 -63 -2q-30 4 -74 35q-21 15 -44 37t-28 33q-26 53 -31 77.5t-6 95.5q0 46 -2 152q-1 138 11 205q17 88 -10 138q-4 8 -35.5 39.5t-52.5 48.5q-14 12 -45.5 29t-46.5 22q-17 5 -20 16t11 19q7 4 12 3t27 -10q54 -22 112 -24q38 -3 74 3
q94 16 126 26q42 12 64 17q6 1 41 10q5 2 13.5 -5t8.5 -13q-7 -14 -15 -22q-36 -47 -51 -102q-10 -48 -7 -323q1 -144 4.5 -184.5t18.5 -90.5q11 -36 22.5 -52t30.5 -20q11 -3 26 -8q12 -5 36 -3q18 1 24.5 4t24.5 17q21 16 34 30q10 11 24 19q17 8 24 23q8 14 13 21
q11 14 20 72q11 73 16 233q2 59 -1.5 127.5t-8.5 85.5q-7 22 -21.5 33.5t-44.5 18.5q-35 7 -72 23q-14 7 -26 11q-28 9 -19 26q4 7 8 7h5q5 0 13 0.5t18 0.5h23.5h26.5q66 1 79.5 2t38.5 8q26 8 62 13q42 8 63 15q20 6 59 19q24 7 48 18q41 18 52 11q10 -7 7.5 -18.5
t-16.5 -18.5q-16 -11 -25 -21q-11 -12 -27.5 -41.5t-16.5 -37.5q-3 -17 -9 -34q-11 -37 -18 -102q-1 -25 2 -57q4 -35 4 -230q0 -157 2 -189t14 -52q9 -14 17 -21t29 -14.5t31 -6.5q9 0 13 -3q19 -7 41 -9q20 -1 44 -10z" />
    <glyph glyph-name="v" unicode="v" 
d="M1098 950q11 -9 9 -23q-2 -6 -35 -36q-106 -92 -148 -162q-43 -75 -74 -152q-5 -14 -16.5 -46.5t-13.5 -36.5q-4 -12 -14.5 -39t-13.5 -35q-37 -100 -48 -121q-7 -17 -17 -51q-19 -61 -28 -82q-4 -11 -16 -43.5t-18 -46.5q-21 -52 -27 -68q-7 -17 -15 -28q-9 -9 -31 -9
q-7 0 -46 3q-34 3 -53 21.5t-34 63.5q-4 13 -16 37q-19 39 -33 85q-8 20 -18 47q-51 121 -56 138q-9 24 -18 39q-26 43 -38 91q-21 81 -60 173q-36 85 -51 109.5t-45 49.5q-73 60 -92 68q-26 11 -26 25q2 16 18 16q11 -2 20 -6q14 -7 75 -18l64 -11l142 1q139 0 181 4
q39 2 46 -2q10 -6 5.5 -19t-15.5 -13q-18 0 -61 -30.5t-54 -50.5q-16 -33 15 -97q10 -24 17 -44q11 -37 62 -130q25 -44 31 -61q5 -13 24 -57q53 -129 53 -140q0 -2 3 1q8 19 12 35q6 25 17 48q6 12 20 50q9 23 23 55q18 40 33 82q23 64 29 80q17 43 20 52q8 24 23 60
q10 24 13 44q2 19 -6 24q-30 16 -65 18q-23 0 -31 6t-4 20q2 11 56 18q115 16 199 51q7 3 20 8.5t22.5 9t14.5 5.5q22 7 36 15q22 12 34 5z" />
    <glyph glyph-name="w" unicode="w" horiz-adv-x="1556" 
d="M1567 957q2 -9 -4.5 -15.5t-28.5 -17.5q-70 -36 -130 -98q-22 -25 -34 -48q-33 -61 -41 -82q-5 -14 -20 -49q-18 -42 -31 -82q-16 -48 -22 -58q-2 -4 -4 -9t-4.5 -11.5t-3.5 -9.5q-10 -28 -25 -62q-36 -82 -59 -164q-39 -142 -71 -207q-18 -39 -25 -42q-24 -11 -48 -11
q-14 0 -21 8.5t-16 36.5q-10 32 -25 63q-27 56 -38 89q-6 20 -11 29q-19 43 -33 82q-6 13 -16 25q-20 22 -55 139q-12 42 -15 48q-8 19 -11 28q-2 8 -13.5 23.5t-15.5 15.5q-11 0 -42 -87q-16 -47 -28 -73q-10 -23 -13 -32q-3 -12 -18 -41q-14 -28 -25 -63q-8 -24 -26 -70
q-16 -41 -31 -93q-23 -77 -33 -100t-26 -30q-27 -11 -55 -3q-8 2 -16.5 11t-8.5 15q-3 12 -9 24q-2 6 -11 28.5t-13 34.5q-3 9 -8 23.5t-8.5 24t-5.5 12.5q-4 7 -27 71q-27 73 -28 76q-7 16 -17 50q-7 26 -15 46q-2 6 -15 49q-11 36 -17 50q-5 13 -14 46q-4 18 -16 52
q-1 2 -19 53q-20 55 -48 113q-37 61 -44 70q-4 5 -44.5 41.5t-50.5 43.5q-17 12 -2 31q6 7 11 7t18 -6q14 -7 54 -16.5t68 -12.5q33 -4 118 -4t116 3q38 4 78 9q36 5 48 3.5t14 -12.5q1 -9 -14.5 -21.5t-61.5 -39.5q-41 -23 -49.5 -43.5t4.5 -63.5q36 -118 96 -288
q35 -97 44 -110l2 4q2 3 5 10t6 15q14 41 57 144q13 30 27 75q6 20 30 83q2 5 16.5 42.5t20.5 55.5q20 55 33 88q11 29 20 53q10 31 29 24q20 -4 45 -4q30 0 38 -3t8 -16q0 -27 24 -104q28 -91 62 -164q19 -41 78 -199q11 -27 29 -67l19 -42q0 -12 10 8q2 6 5 13q2 6 7 18
t12 28t11 27q57 136 65 173q15 58 36 118q12 34 16 51q5 24 12 44q12 33 3.5 44.5t-45.5 15.5q-17 1 -35 8q-9 5 -24 9q-24 5 -40 16q-10 8 -3 20.5t20 9.5q35 -7 97.5 -9.5t86.5 2.5q15 3 73 9q56 5 97 11q34 4 44.5 2.5t13.5 -12.5z" />
    <glyph glyph-name="x" unicode="x" horiz-adv-x="1142" 
d="M1035 847q-64 -43 -160.5 -137.5t-157.5 -171.5l-23 -29l34 -49q58 -83 60 -85q26 -33 62 -86q119 -171 208 -242q29 -23 36 -30.5t7 -15.5q0 -13 -18 -19q-12 -5 -22 1q-21 10 -85 20q-82 13 -156 13.5t-205 -10.5q-61 -5 -73 -5.5t-16 4.5q-5 5 -5 16.5t5 16.5
q11 9 125 41q13 3 29 8q7 7 -35 75q-19 30 -65.5 94t-49.5 64q-16 -12 -30 -27q-66 -64 -85.5 -86.5t-36.5 -57.5q-8 -16 -9 -21t3 -12q12 -19 23 -31q7 -7 19 -23q14 -12 22 -16q23 -14 28 -19.5t5 -17.5q0 -15 -7.5 -19.5t-28.5 -1.5q-58 9 -214 1q-91 -5 -148 -16
q-44 -9 -51 -1q-27 31 66 68q62 25 102 68q15 16 60 61q38 38 59 65t45 51q21 21 33 38q12 18 26 32l27 27l15 14l-9 17q-2 4 -5 8.5t-7 10t-6 8.5q-9 11 -27 43q-47 79 -73 105q-15 16 -39.5 49t-29.5 45q-5 11 -16 26q-10 14 -41 42.5t-42 33.5q-22 15 -42 33
q-49 45 -71 58q-12 7 -12 18q-2 9 8 15q7 4 23 0q43 -13 144 -22q52 -4 98 -9q99 -11 192 -5q112 4 122 -9q9 -11 0 -21q-6 -7 -31 -11q-41 -6 -73 -35q-8 -6 -13 -19q0 -6 11.5 -27.5t24.5 -37.5q27 -36 59 -73q26 -30 27 -32l6 -9l24 24q53 52 99 118q16 24 19 31t0 11
q-18 22 -47 38q-27 15 -40 22q-22 12 -32 19q-15 13 -2 28q8 8 84 -5q52 -9 97 0t66 13q46 9 67 14q8 2 58 12q19 3 41 9q20 6 31 8q17 3 24 -2q6 -6 6 -13q0 -11 -12 -21.5t-79 -56.5z" />
    <glyph glyph-name="y" unicode="y" 
d="M1206 1050q3 -6 -3.5 -19.5t-16.5 -22.5q-28 -24 -51 -47q-37 -37 -63 -59q-47 -43 -93 -100q-16 -21 -48 -89.5t-56 -135.5q-17 -47 -31 -78q-8 -18 -26 -73q-27 -76 -77 -175q-12 -24 -26 -64q-4 -11 -17.5 -48t-19.5 -54q-4 -11 -11.5 -31.5t-13 -34.5t-8.5 -22
q-15 -36 -24 -65q-27 -85 -66 -186q-6 -14 -32 -87q-19 -62 -67 -103q-16 -12 -24 -20q-27 -27 -60 -37q-23 -8 -41 -5q-32 11 -65 30q-14 11 -30 31q-40 51 -36 121l3 75q3 90 25 90q18 0 14 -30q-3 -22 -3 -66t4 -52q7 -16 35 -36.5t44 -20.5q19 0 53 29q39 34 75 141
q14 41 39 98q55 119 46 132q-10 23 -18 50q-13 39 -24 61q-8 14 -11 21q-4 11 -14 33q-12 25 -19 56q-5 25 -16 38q-12 15 -22 36q-10 22 -28 43q-27 30 -35 72q-10 44 -39 86q-27 39 -40 90q-3 13 -9 25q-15 20 -38 88q-9 28 -23 40q-26 24 -60 46q-20 15 -34 29
q-39 37 -78 61q-20 12 -21 21q-2 12 8 18t21 -1q47 -29 78 -33q18 -3 39 -8q37 -11 195.5 -1t218.5 26q15 4 45 6q29 1 33 -3q6 -4 6 -13q0 -7 -5 -12q-13 -17 -74 -36q-6 -2 -32 -12q-4 -3 -9 -1q-2 1 -1 -1t-16 -10q-5 -2 -23 -10q-37 -17 -45.5 -22t-8.5 -12
q7 -20 15 -32q16 -25 22 -39q7 -13 15 -23q9 -11 32 -57t31 -69q10 -27 21 -50q14 -25 20 -46q4 -14 9 -25q3 -4 18.5 -40t18.5 -46q10 -32 20 -32q4 0 34 61.5t38 86.5q16 45 37 96q33 82 60 172q8 30 6.5 37.5t-15.5 17.5q-5 4 -16.5 12t-12.5 9q-11 8 -36 17.5t-34 9.5
q-21 4 -23 24q0 17 30 22q21 4 37 9q24 6 50 9q58 7 88 20q17 8 49 15q25 6 46 16q15 8 28 11q18 0 61 28q23 14 53 28.5t41 15.5q20 3 27 -15z" />
    <glyph glyph-name="y" unicode="&#xff;" 
d="M1206 1050q3 -6 -3.5 -19.5t-16.5 -22.5q-28 -24 -51 -47q-37 -37 -63 -59q-47 -43 -93 -100q-16 -21 -48 -89.5t-56 -135.5q-17 -47 -31 -78q-8 -18 -26 -73q-27 -76 -77 -175q-12 -24 -26 -64q-4 -11 -17.5 -48t-19.5 -54q-4 -11 -11.5 -31.5t-13 -34.5t-8.5 -22
q-15 -36 -24 -65q-27 -85 -66 -186q-6 -14 -32 -87q-19 -62 -67 -103q-16 -12 -24 -20q-27 -27 -60 -37q-23 -8 -41 -5q-32 11 -65 30q-14 11 -30 31q-40 51 -36 121l3 75q3 90 25 90q18 0 14 -30q-3 -22 -3 -66t4 -52q7 -16 35 -36.5t44 -20.5q19 0 53 29q39 34 75 141
q14 41 39 98q55 119 46 132q-10 23 -18 50q-13 39 -24 61q-8 14 -11 21q-4 11 -14 33q-12 25 -19 56q-5 25 -16 38q-12 15 -22 36q-10 22 -28 43q-27 30 -35 72q-10 44 -39 86q-27 39 -40 90q-3 13 -9 25q-15 20 -38 88q-9 28 -23 40q-26 24 -60 46q-20 15 -34 29
q-39 37 -78 61q-20 12 -21 21q-2 12 8 18t21 -1q47 -29 78 -33q18 -3 39 -8q37 -11 195.5 -1t218.5 26q15 4 45 6q29 1 33 -3q6 -4 6 -13q0 -7 -5 -12q-13 -17 -74 -36q-6 -2 -32 -12q-4 -3 -9 -1q-2 1 -1 -1t-16 -10q-5 -2 -23 -10q-37 -17 -45.5 -22t-8.5 -12
q7 -20 15 -32q16 -25 22 -39q7 -13 15 -23q9 -11 32 -57t31 -69q10 -27 21 -50q14 -25 20 -46q4 -14 9 -25q3 -4 18.5 -40t18.5 -46q10 -32 20 -32q4 0 34 61.5t38 86.5q16 45 37 96q33 82 60 172q8 30 6.5 37.5t-15.5 17.5q-5 4 -16.5 12t-12.5 9q-11 8 -36 17.5t-34 9.5
q-21 4 -23 24q0 17 30 22q21 4 37 9q24 6 50 9q58 7 88 20q17 8 49 15q25 6 46 16q15 8 28 11q18 0 61 28q23 14 53 28.5t41 15.5q20 3 27 -15z" />
    <glyph glyph-name="y" unicode="&#xfd;" 
d="M1206 1050q3 -6 -3.5 -19.5t-16.5 -22.5q-28 -24 -51 -47q-37 -37 -63 -59q-47 -43 -93 -100q-16 -21 -48 -89.5t-56 -135.5q-17 -47 -31 -78q-8 -18 -26 -73q-27 -76 -77 -175q-12 -24 -26 -64q-4 -11 -17.5 -48t-19.5 -54q-4 -11 -11.5 -31.5t-13 -34.5t-8.5 -22
q-15 -36 -24 -65q-27 -85 -66 -186q-6 -14 -32 -87q-19 -62 -67 -103q-16 -12 -24 -20q-27 -27 -60 -37q-23 -8 -41 -5q-32 11 -65 30q-14 11 -30 31q-40 51 -36 121l3 75q3 90 25 90q18 0 14 -30q-3 -22 -3 -66t4 -52q7 -16 35 -36.5t44 -20.5q19 0 53 29q39 34 75 141
q14 41 39 98q55 119 46 132q-10 23 -18 50q-13 39 -24 61q-8 14 -11 21q-4 11 -14 33q-12 25 -19 56q-5 25 -16 38q-12 15 -22 36q-10 22 -28 43q-27 30 -35 72q-10 44 -39 86q-27 39 -40 90q-3 13 -9 25q-15 20 -38 88q-9 28 -23 40q-26 24 -60 46q-20 15 -34 29
q-39 37 -78 61q-20 12 -21 21q-2 12 8 18t21 -1q47 -29 78 -33q18 -3 39 -8q37 -11 195.5 -1t218.5 26q15 4 45 6q29 1 33 -3q6 -4 6 -13q0 -7 -5 -12q-13 -17 -74 -36q-6 -2 -32 -12q-4 -3 -9 -1q-2 1 -1 -1t-16 -10q-5 -2 -23 -10q-37 -17 -45.5 -22t-8.5 -12
q7 -20 15 -32q16 -25 22 -39q7 -13 15 -23q9 -11 32 -57t31 -69q10 -27 21 -50q14 -25 20 -46q4 -14 9 -25q3 -4 18.5 -40t18.5 -46q10 -32 20 -32q4 0 34 61.5t38 86.5q16 45 37 96q33 82 60 172q8 30 6.5 37.5t-15.5 17.5q-5 4 -16.5 12t-12.5 9q-11 8 -36 17.5t-34 9.5
q-21 4 -23 24q0 17 30 22q21 4 37 9q24 6 50 9q58 7 88 20q17 8 49 15q25 6 46 16q15 8 28 11q18 0 61 28q23 14 53 28.5t41 15.5q20 3 27 -15z" />
    <glyph glyph-name="z" unicode="z" horiz-adv-x="851" 
d="M782 -27q3 -5 3 -10q-3 -14 -18 -17q-6 0 -30 26q-29 31 -55.5 44t-67.5 18q-46 4 -159 -7q-50 -6 -117 -11q-106 -10 -135 -15q-59 -10 -119 5q-22 5 -28.5 12.5t-7.5 24.5q-2 33 4 61q5 18 32 69.5t47 79.5q23 32 36 53q23 37 49 77q46 71 61 97q29 49 65 99
q14 20 72 119q19 32 43 69l33 52l-47 4q-70 5 -152 -1q-23 -3 -46 -4q-24 -2 -30.5 -6.5t-17.5 -25.5q-8 -17 -20 -35q-9 -15 -23 -42q-29 -56 -43 -63q-14 -3 -23 7q-8 13 11 90q10 37 14 66q3 18 9 36q10 29 14 56q6 41 15 46q14 8 68 -5q37 -8 66 -11q36 -3 156 -4t144 1
q76 8 154 10q35 1 40 -3t0 -29q-10 -54 -22 -83q-20 -52 -48 -98q-4 -7 -10.5 -18.5t-14 -26t-11.5 -21.5q-33 -63 -47 -81q-21 -25 -67 -111q-3 -5 -14 -25.5t-17 -30.5q-15 -25 -39 -74q-12 -26 -29 -49q-14 -18 -19 -28q-10 -19 -18 -30q-13 -15 -40 -61t-26 -50
q4 -9 23 -5h11q11 1 29 1.5t35 0.5q72 1 81 6q18 8 28 10q37 12 65 40q31 34 45 81q11 41 55 140q10 24 16.5 30.5t15.5 4.5q10 -2 11 -11.5t-2 -51.5q-14 -184 -9 -271q6 -95 21 -121z" />
    <glyph glyph-name="braceleft" unicode="{" horiz-adv-x="577" 
d="M650 -317q14 -20 -1 -38q-9 -8 -22 -11q-18 -4 -38 1q-13 4 -28 11q-28 15 -59 22q-18 5 -28 13q-15 11 -30 18q-14 6 -53 47q-55 57 -69 84q-2 4 -11 18.5t-12 20.5q-19 32 -30 71.5t-23 121.5q-3 22 -1 85t6 85q13 62 5 169q-6 79 -19 111q-9 22 -15 45t-19 35
q-28 25 -87 53q-34 16 -36 22q-2 5 -2 26t2 31q1 9 21 30q21 23 46 34q46 21 67 63q45 85 49 232q1 51 -1.5 72.5t-13.5 55.5q-5 16 -6 107l-1 95l11 41q10 42 30 81q15 29 22.5 40t31.5 36q51 53 94 74q6 3 20.5 10.5t19.5 10.5q17 9 30 11q15 2 26 7q13 6 50 7q38 1 45 -5
q9 -8 4.5 -22t-16.5 -14q-10 0 -41.5 -9t-40.5 -14q-24 -15 -36 -41q-15 -30 -22 -71q-1 -5 -4 -26.5t-4 -32.5q-5 -38 -4.5 -55t9.5 -174q5 -103 5 -135v-59l-15 -59q-22 -88 -61 -148q-43 -63 -76 -83q-12 -8 -34 -26q-14 -12 -37 -25q-10 -5 -28 -17l-10 -8l26 -12
q18 -7 36 -18q38 -29 72 -68q14 -17 40 -45q38 -40 59 -121q17 -65 22 -147q5 -85 -12 -194q-9 -55 -10 -120.5t6 -97.5q9 -42 15.5 -55.5t29.5 -37.5q15 -17 40 -36q35 -20 44 -25q61 -35 72 -47z" />
    <glyph glyph-name="verticalbar" unicode="|" horiz-adv-x="432" 
d="M465 1745q11 -6 10 -17.5t-12 -14.5q-12 -3 -42 -19.5t-39 -24.5q-23 -22 -37 -76q-18 -68 -21.5 -105.5t-5.5 -191.5q-4 -189 -9 -310q-1 -23 -3.5 -73.5t-4 -90.5t-2.5 -65t-2.5 -90.5t-2.5 -88.5q-6 -155 0 -263q1 -16 3.5 -75.5t3.5 -88.5q8 -190 19 -249
q18 -101 62 -170q33 -53 38 -62.5t-1 -18.5q-10 -14 -30 -2q-3 2 -17.5 12t-22.5 16q-28 20 -52 25q-33 8 -40 10q-20 5 -72 5q-58 1 -86 -6q-33 -8 -59 -22q-71 -38 -74 0q-4 12 8 18q10 7 20 8q11 2 36 13t31 16q17 15 33 60q9 29 11 50q11 64 12 71q12 64 16.5 112.5
t6.5 147.5q2 123 4 130q9 21 15 416q0 27 -5 45q-8 27 -2 292q3 171 -1 189q-4 17 -8 53q-3 27 -9 54q-6 24 -9 50q-3 28 -12 53q-10 25 -13 41q-9 40 -26 79q-4 6 -16 39q-7 20 -18 40q-8 12 -21.5 41.5t-13.5 35.5t9.5 15t15.5 9q8 -2 14 -6q21 -14 111 -17q44 -2 88 -6
q52 -5 101 -5q61 0 88 9q25 8 33 3z" />
    <glyph glyph-name="braceright" unicode="}" horiz-adv-x="577" 
d="M496 697q2 -5 2 -25.5t-2 -30.5t-21 -31q-21 -23 -46 -34q-44 -20 -66 -63q-46 -87 -50 -232q-1 -51 1.5 -72.5t13.5 -55.5q5 -16 6 -107l1 -94l-11 -42q-10 -42 -30 -81q-15 -30 -22.5 -40.5t-31.5 -35.5q-50 -52 -93 -73q-13 -7 -40 -22q-17 -8 -31 -11q-15 -2 -26 -7
q-9 -4 -44 -7t-42 0q-15 5 -15 20q0 17 19 21q10 0 41 9t40 14q25 16 37 41q14 28 21 71q1 5 4 26.5t4 32.5q5 38 4.5 55t-9.5 174q-4 82 -4 135v59l15 59q23 92 60 149q42 61 76 82q12 8 34 26q14 12 37 25q14 7 29 17l10 8l-27 12q-18 7 -36 18q-35 27 -72 69
q-15 18 -39 44q-22 24 -35 49t-25 72q-17 65 -22 147q-5 85 12 195q9 55 10 120t-6 97q-9 43 -15 56.5t-29 36.5q-15 17 -40 36q-3 2 -10 5.5t-18 9.5t-17 10q-61 35 -72 47q-14 21 1 39q18 19 59 9q10 -3 30 -11q30 -15 58 -22q18 -5 28 -13q15 -11 30 -18q16 -7 54 -47
q53 -55 68 -84q2 -4 11 -18.5t12 -20.5q19 -32 30 -71.5t23 -121.5q3 -22 1 -85t-6 -85q-13 -62 -5 -169q6 -78 19 -110q8 -20 15 -46q6 -23 19 -35q28 -25 87 -53q34 -16 36 -22z" />
    <glyph glyph-name="asciitilde" unicode="~" horiz-adv-x="911" 
d="M802 581q1 -16 14 -23t25 -6l12 1q-35 -28 -67.5 -44.5t-66 -28t-46.5 -18.5q-8 4 -19 4.5t-25 -1t-19 -1.5q-12 0 -37.5 7.5t-39.5 5.5q-29 6 -62 19t-49 18q-46 24 -68 27l-94 -12q-50 -17 -65 -30q-35 -32 -61 -42q-10 -4 -8 2q5 16 -0.5 27.5t-13 17.5t-7.5 8
q3 19 -7.5 30t-22.5 13l-12 2q3 9 24.5 22.5t44.5 21.5q16 6 36.5 18t26.5 15q70 31 128 31q59 0 87 -21q5 -4 29.5 -8.5t39.5 -12.5q7 -3 18.5 -10.5t22 -12.5t22.5 -6q6 -1 32 -6t45 -6q46 -3 58 6q7 5 27 14t33 17q46 28 49 10q1 -6 -5 -17q-4 -8 8 -15t13 -16z" />
    <glyph glyph-name="nonbreakingspace" unicode="&#xa0;" horiz-adv-x="598" 
 />
    <glyph glyph-name="exclamdown" unicode="&#xa1;" horiz-adv-x="575" 
d="M280 1293q-41 6 -76 44q-27 29 -33.5 59.5t2.5 84.5q4 22 16 57t21 47q8 11 34.5 34t39.5 30q8 4 31 5.5t34 -1.5t35 -16.5t30 -20.5q8 -9 21.5 -35t17.5 -40q5 -19 4.5 -58.5t-5.5 -60.5q-11 -44 -35 -80q-5 -6 -11 -20q0 -10 -41 -23q-39 -12 -85 -6zM467 146
q15 -27 2 -42q-7 -8 -42 -11q-51 -3 -94 -19q-75 -28 -148 -66q-12 -7 -60 -46.5t-70 -60.5q-19 -17 -39.5 -28t-27.5 -7q-13 7 -10 21q10 13 20 22q46 42 108 135q31 46 59.5 121t44.5 148q16 77 21 202q5 95 10 151q8 92 11 137q4 67 6 76q9 71 12 183q2 78 9 92
q9 17 41 24q4 1 12.5 3.5t10.5 3.5q35 11 48 -2q8 -12 9 -19q7 -28 -5 -171q-7 -74 4 -164q9 -74 13 -199q5 -196 12 -242q3 -20 3 -39q0 -25 4 -45q10 -54 16 -101q2 -13 6 -23q4 -8 5 -13q3 -11 9 -21z" />
    <glyph glyph-name="cent" unicode="&#xa2;" 
d="M1027 1319q10 -10 -6 -36q-40 -65 -55 -138q-6 -31 -28 -115q-17 -65 -35 -170q-6 -38 -10.5 -47.5t-15.5 -9.5q-27 0 -11 77q15 72 11 130q-6 74 -45 118q-13 14 -23 27q-8 10 -10 10t-12 -34t-13 -52q-9 -49 -47 -199q-18 -72 -23 -96l-27 -111q-16 -66 -29 -127
q-3 -16 -10.5 -53t-10.5 -49q-20 -89 -15 -94q1 -1 27 3.5t36 7.5t39.5 25.5t43.5 38.5q13 13 23 31q18 30 29 44q26 36 26 37q1 2 4.5 7t9 14t9.5 15q33 50 36 60q1 6 9.5 12.5t13.5 6.5t10.5 -7t5.5 -14q-5 -26 -15 -46q-17 -42 -17 -43q0 -2 -2.5 -8t-6.5 -16t-7 -18
q-48 -119 -64 -279q-5 -47 -7 -52q-6 -13 -24 -5q-9 5 -11 16q-10 28 -12 32q-7 14 -11.5 18t-20.5 12q-16 7 -24 14q-9 5 -16 4q-14 0 -23 4q-17 5 -29 4q-20 0 -30 2q-8 2 -8 -4q-2 -16 -10 -41q-10 -40 -17 -79q-6 -39 -15 -75q-8 -33 -12 -66q-4 -30 -8.5 -38t-21.5 -11
q-12 -1 -23 -8q-13 -7 -25 -8q-16 -2 -25 -4q-12 -1 -35 1q-28 2 -40 7t-19 16q-14 25 12 103q18 51 19 59q2 15 11 42q10 33 14 60q6 34 9 52q2 8 4 22q-21 12 -50 22q-42 13 -75 45q-41 35 -89 62q-21 14 -39 33q-16 17 -22.5 27t-17.5 33q-24 54 -36 111q-5 21 -6.5 79
t2.5 79q1 6 4.5 24t8.5 45.5t9 48.5q2 13 5 29.5t4.5 24t3.5 18.5t3 15.5t2.5 11.5t2.5 10l2.5 7.5t3 8t3 7.5t3.5 9q32 75 70.5 123.5t98.5 90.5q88 62 153 72q35 6 42 8q22 6 46 1q6 -1 16 -2t23 -2t20 -2q46 -5 47 -5q11 -2 11 0t22 75q21 72 19 81t7 18q11 12 24 11
q4 0 23.5 1.5t31.5 2.5q43 4 54 3.5t16 -6.5q12 -14 3 -51q-1 -9 -11 -50q-12 -52 -17 -66q-7 -20 -12 -44q-2 -9 -8 -27q-4 -7 -5 -14q0 -4 22.5 -11t37.5 -9l19 -2l37 25q32 22 54 40q26 22 37 10zM632 1189l2 13h-20q-33 0 -73 -16.5t-65 -41.5q-41 -39 -61 -90t-43 -175
q-14 -75 -17 -146q-5 -71 -2 -96t23 -81q34 -96 58 -129l16 -21l7 27q9 33 18 59q23 73 32 144q17 102 43 191q13 46 18 77q2 11 12 55q9 38 10 46q5 28 12 53q22 75 30 131z" />
    <glyph glyph-name="sterling" unicode="&#xa3;" horiz-adv-x="1134" 
d="M1041 1376l10 -17v-25q0 -22 -12 -68q-15 -56 -24 -76t-29 -44q-26 -31 -61 -49q-24 -13 -64 -20.5t-57 -2.5q-13 4 -24 14q-16 11 -25 28q-7 12 -13 33q-1 4 -8 20q-10 17 -12 54l-1 23l20 24q28 34 60 59q4 4 12 2q6 -2 8 -8t-1.5 -11t-21.5 -21q-24 -24 -35 -37
q-14 -17 -15 -28q-2 -23 25 -41q3 -2 7 -5t7.5 -5t4.5 -3l6 -5l14 6q12 5 23 11q10 6 26 14q29 15 33 30q1 6 5 50q3 39 -1 49q-5 8 -41 44.5t-44 40.5q-25 12 -54 12q-17 0 -36 -10q-39 -24 -64 -57q-12 -22 -14 -47q-4 -22 -8 -33q-25 -81 -38 -141q-12 -52 -14 -57
q-13 -36 -39 -137q-14 -56 -21 -112q-6 -44 -23 -137q-3 -13 -5 -41q2 -2 88 3q60 4 74 8q45 14 91 36q25 13 33 6q16 -12 -21 -41q-18 -15 -35 -32q-34 -38 -59 -90q-14 -33 -21 -35q-5 -2 -10.5 0.5t-6.5 6.5v4q-1 3 -1 5q-3 31 -10 33q-16 6 -99 8h-44l-7 -24
q-8 -28 -16.5 -58.5t-13.5 -50t-7 -24.5q-10 -36 -13 -55q0 -3 27 -3t46 -5q91 -28 146 -104q16 -24 30 -35q22 -20 26 -24q20 -23 39 -32.5t52 -12.5q23 -2 30 0.5t18 19.5q27 46 45 89q8 15 6 32q-3 31 -34 63q-37 39 -62 27q-25 -16 -44 -43q-4 -8 -20 -33
q-21 -32 -24 -38q-11 -19 -22 -14q-12 6 -5 28q17 54 32 92q3 7 9 20t7 17q12 30 29 41q21 12 98 6q60 -5 71 -12q6 -5 23.5 -31t24.5 -42q17 -39 17.5 -70t-14.5 -76q-20 -58 -41 -84q-31 -40 -59 -68q-19 -22 -44 -34q-19 -11 -38 -17q-24 -6 -42 -9q-14 0 -28 1
q-37 2 -71 15q-77 27 -113 71q-50 59 -111 105q-22 17 -25 19q-9 9 -19 9q-3 0 -11 -2q-8 -13 -15 -29q-24 -52 -38 -78q-8 -15 -29 -39.5t-30 -29.5q-6 -3 -18 -11q-10 -8 -16 -10q-8 -3 -17 -8q-11 -7 -26 -7q-49 -3 -63 22q-5 8 -5 30q0 61 36 114q35 46 84 78
q8 5 10.5 10t11.5 41q6 26 7 40q2 21 6 40q4 18 5 28q2 17 6 31q0 1 5 18.5t6 24.5q5 20 14 47l9 26h-7q-12 -1 -31 -5q-8 -2 -45 -8q-68 -14 -125 -40q-5 -3 -17 -5q-7 2 -10 6q-3 5 -2 11q8 13 22 29q13 14 25 31q16 33 14 46q-6 18 -17 36q-5 4 -0.5 15.5t11.5 11.5
q10 -4 14 -8q21 -18 72 -20q22 -1 50.5 -1.5t48.5 0t20 1.5l1 5q1 5 2.5 14.5t2.5 17.5q12 68 18 130q4 32 8 48q9 33 13 49q12 46 20 68q11 29 19 64q4 21 18 52q12 28 17 42q2 4 8 24.5t9 31.5q36 120 72 172q15 22 40 49.5t37 35.5q17 11 29 21q15 11 35 21q28 12 32 15
q32 20 69 20q19 1 37 -6q3 -1 8.5 -3t10 -3.5t8.5 -2.5q13 -3 35 -15t36 -24q18 -16 57 -40q13 -8 29 -22q10 -12 15 -17q12 -12 21 -27z" />
    <glyph glyph-name="currency" unicode="&#xa4;" horiz-adv-x="1134" 
d="M919 1178q-38 -21 -38 -26q6 -10 10 -14q13 -15 16 -32q8 -28 8 -29q4 -15 6 -32q3 -21 9 -42q6 -22 8 -33q0 -3 2.5 -19.5t3.5 -25.5q16 -105 12 -211q-2 -64 -4 -87t-17 -105q-13 -81 -31 -116q-7 -14 -12 -32q-6 -25 -26 -42q-7 -5 -10 -11q0 -2 22.5 -19t34.5 -24
q13 -7 36 -5q36 3 44.5 2.5t13.5 -7.5t3 -12t-16 -25q-24 -30 -56 -53q-10 -7 -16 -18q-11 -18 -65 -89q-15 -18 -27 -39q-25 -49 -47 -35q-7 5 -6 16q3 17 11 33q33 75 7 141q-5 13 -12 27q-2 2 -10 -4q-4 -4 -12 -6q-16 0 -41 -23q-21 -23 -52 -23q-18 -1 -39 -10
q-55 -26 -130 -7q-7 2 -16 4t-15 3.5t-8 1.5q-24 4 -55 21t-43 31q-6 7 -9 0q-4 -7 -22.5 -64t-23.5 -78q-4 -15 -8 -45q0 -13 -7 -27q-5 -5 -13 -5t-13 7q-4 6 -5 10q0 14 -28 56q-12 18 -17 28q-17 39 -83 67q-52 21 -37 42q5 6 44 8q31 0 64 11q58 20 79 51l11 16l-13 14
q-8 9 -20 29q-3 6 -18 31q-12 20 -18 40q-7 25 -16 48q-10 26 -24 84q-14 49 -17 112q-4 104 8 214q16 106 31 144q23 59 72 146q3 5 6.5 11.5t6 11t3.5 5.5q3 6 -15 34q-13 20 -18.5 25.5t-17.5 9.5q-37 14 -60.5 14t-45.5 -15q-11 -8 -25 -11q-7 0 -12.5 5.5t-5.5 13.5
t40 35q18 13 58 33q55 21 110 81q8 9 22.5 25t17.5 20q31 39 38 39q16 -2 18 -18q-8 -30 -15 -44q-22 -52 -22 -118q0 -51 7 -51q8 3 17 10l15 9q4 2 10 6q17 9 34 15q12 4 29 13q11 5 23 3q35 2 53 5q28 6 58 1q37 -5 44 -6q14 -1 27 -6q10 -4 16 -4q14 -5 24 -13
q12 -10 19 -14q9 -4 25 -14q9 -7 27 -14q10 -3 16 -8q3 -2 10 -7.5t10 -7.5l9 -5l9 19q8 19 15 43q3 11 11 31q6 23 9 45q5 36 7 41t8.5 7t13.5 0q5 -2 17 -22.5t17 -37.5q3 -11 36 -44q26 -26 46 -53t20 -36q0 -10 -10 -12.5t-47 -1.5l-46 1zM746 876q1 26 -2 58
q-3 14 -7 63q-1 34 -13 74q-6 17 -9 32q0 5 -4 11q-7 15 -10 25q-5 18 -12 32q-5 11 -15.5 20.5t-16.5 9.5q-10 2 -17 6q-18 9 -43 15.5t-30 3.5q-12 -4 -19 -3q-10 3 -21 -6q-8 -8 -20 -6q-9 0 -14 -3.5t-20 -20.5q-16 -16 -22 -26q-8 -20 -13 -30q-11 -23 -17 -44
q-4 -17 -11 -44q-18 -64 -24 -227q-4 -107 0 -136q3 -25 7 -97q5 -122 31 -219q9 -33 26 -63t31 -37q7 -3 23 -15q10 -8 18 -9q14 -2 20 -4q25 -9 52 2q31 11 48 29q15 15 24 22q12 9 17 22q6 14 14 23q9 12 12 27q3 12 8 29q4 9 8.5 54t4.5 67q0 14 4 46q9 88 12 319z" />
    <glyph glyph-name="yen" unicode="&#xa5;" horiz-adv-x="1691" 
d="M1586 1494q8 -12 -6 -23.5t-60 -29.5q-60 -25 -130 -67q-26 -17 -81 -93q-24 -32 -90 -152q-36 -66 -41 -73q-11 -18 -56 -104q-48 -93 -52 -98q-10 -16 -18 -35q-12 -27 -15 -32q-10 -18 -13 -27l-4 -13h23q64 0 273 28q59 8 73 7t19 -14q7 -18 -23 -32q-13 -7 -52 -26
q-42 -21 -61 -35.5t-59 -56.5q-7 -7 -10.5 -8.5t-13.5 0.5q-25 4 -156 0l-75 -2v-13q-1 -56 -2.5 -67.5t-9.5 -29.5q-10 -23 -7 -39q4 -34 4 -50q0 -25 1 -29t6 -3q4 1 51 3q149 7 207 19q34 7 81 21.5t54 21.5q8 7 25.5 16.5t23.5 9.5q13 0 16 -12t-7 -22q-16 -12 -25 -17
q-12 -6 -17 -12t-16 -25q-15 -26 -16 -46q-1 -15 0.5 -19t10.5 -12q20 -19 7 -32q-6 -8 -18 -4q-36 7 -99 13q-34 4 -47 7q-7 2 -60 6q-66 5 -71 6q-20 2 -54 3t-35 -1q0 -18 11.5 -59t19.5 -54q6 -9 9 -20q16 -45 46 -75q19 -19 75 -47q70 -34 80 -54q7 -13 -3 -23
q-7 -7 -12.5 -7.5t-23.5 5.5q-19 5 -57 9q-65 7 -139 23q-30 7 -52 10q-42 7 -74 16l-38 11h-64q-62 0 -128 -13q-110 -22 -129 -45q-6 -8 -17 -8q-8 0 -16 6q-9 8 -4.5 15.5t28.5 25.5q38 28 67 33q21 5 38 12q10 5 32 11q27 6 45 27q22 31 42 81.5t26 92.5l2 15l-21 -3
q-103 -12 -124 -12q-43 -3 -78 -10l-59 -10l-8 8q-17 22 -20 47q0 21 -43 76q-9 11 -59 34q-7 5 -8 11q-2 8 3 14q10 16 40 -1q16 -10 91 -30q53 -15 120 -20q42 -4 158 -16l12 -1l-2 54q-1 62 -15 142q-3 12 -1 26l2 10l-92 2q-74 3 -149 -3q-59 -5 -76.5 -1t-17.5 20
q0 13 22 27q7 5 9 15.5t-2 20.5q-4 8 -31.5 38t-37.5 37q-8 4 -15 13q-3 7 0 14q4 7 10 10q18 4 76 -16q74 -24 139 -38q19 -3 70 -5q48 -2 48 3q-6 17 -18 39q-23 44 -34 67q-17 34 -37 64q-26 42 -37 64q-15 31 -24 48q-7 12 -17 36t-20 42q-8 14 -20 44q-8 22 -19 40
q-12 18 -39 72q-29 57 -52 82q-18 20 -28 27t-49 26q-55 27 -84 31q-15 1 -39 11q-15 9 -23 13q-27 15 -23 31q0 7 9 11q9 3 14 -2q10 -6 16 -8q1 0 5 -1l8 -2t7 -2q13 -4 70 -9q146 -14 370 2q85 6 111 10t58 15q32 12 57 18q17 4 41 13q19 6 26 3q10 -5 10 -15
q0 -11 -9 -16l-4 -3q-5 -2 -10.5 -5t-14 -7t-16.5 -8q-70 -35 -90.5 -48t-47.5 -41q-21 -21 -36 -40q-9 -17 10 -85q2 -6 21 -73q8 -28 13 -43q6 -17 17 -35q13 -21 21 -41q15 -39 80 -151q15 -25 25 -48q3 -9 24 -52l20 -44q4 -10 6 -10q11 15 17 30q22 44 24 47
q30 51 88 162.5t79 160.5q19 44 24.5 66t5.5 53v37l-13 12q-10 10 -33 22t-32 12q-8 1 -24 5q-15 5 -41 9q-22 4 -28.5 9t-6.5 17q0 11 7 17q10 7 48 -6q18 -6 80 -6q163 0 337 55q23 7 50 13q14 3 42 13q39 14 48 1z" />
    </font>
</defs>
</svg>
