<?xml version="1.0" standalone="no"?>
<!DOCTYPE svg PUBLIC "-//W3C//DTD SVG 1.1//EN" "http://www.w3.org/Graphics/SVG/1.1/DTD/svg11.dtd" >
<svg xmlns="http://www.w3.org/2000/svg" xmlns:xlink="http://www.w3.org/1999/xlink" version="1.1">
<metadata>
Created by FontForge 20201107 at Fri Jan  1 02:30:17 1904
 By 
Created by Steven Snape, Solid Snake's Game Shrine 2002
</metadata>
<defs>
<font id="MetalGearSolid2" horiz-adv-x="763" >
  <font-face 
    font-family="Metal Gear Solid 2"
    font-weight="5"
    font-stretch="normal"
    units-per-em="2048"
    panose-1="0 0 0 0 0 0 0 0 0 0"
    ascent="1638"
    descent="-410"
    x-height="1792"
    cap-height="1791"
    bbox="-164 -852 12510 1821"
    underline-thickness="301"
    underline-position="-421"
    unicode-range="U+0020-F002"
  />
<missing-glyph horiz-adv-x="940" 
d="M82 1365h860v-1365h-860v1365zM123 1324v-1283h778v1283h-778z" />
    <glyph glyph-name=".notdef" horiz-adv-x="940" 
d="M82 1365h860v-1365h-860v1365zM123 1324v-1283h778v1283h-778z" />
    <glyph glyph-name=".null" horiz-adv-x="0" 
 />
    <glyph glyph-name="nonmarkingreturn" horiz-adv-x="80" 
 />
    <glyph glyph-name="space" unicode=" " horiz-adv-x="439" 
 />
    <glyph glyph-name="exclam" unicode="!" horiz-adv-x="628" 
d="M68 303v-303h307v303h-307zM72 433h299l125 1360h-549z" />
    <glyph glyph-name="quotedbl" unicode="&#x22;" horiz-adv-x="839" 
d="M720 859l-6 -9h-49l-5 9q-8 12 -25 45q-10 17 -28 50q-9 15 -23 45q-2 5 -26 50q-26 54 -37 93q-10 33 -10 72q0 47 24 89q24 41 66 65t89 24t88 -23q41 -24 66 -66q24 -42 24 -88q0 -71 -54 -181q-42 -88 -94 -175zM318 859l-6 -9h-49l-6 9q-55 92 -101 190
q-26 54 -37 93q-10 33 -10 72q0 47 24 89q24 41 66 65t89 24t88 -23q41 -24 66 -66q24 -42 24 -88q0 -71 -54 -181q-42 -88 -94 -175z" />
    <glyph glyph-name="numbersign" unicode="#" 
d="M82 1351v-1337h655v1337h-655zM751 0h-683v1365h683v-1365z" />
    <glyph glyph-name="dollar" unicode="$" horiz-adv-x="4" 
d="M136 -852h12374v736h-12374v-736z" />
    <glyph glyph-name="percent" unicode="%" 
d="M1 -2l-1 1794h390l133 -1149l104 1149h394v-1792h-218v1383l-154 -1384l-280 1l-151 1372v-1374h-217zM4901 -1h588v226h-327v623h327v229h-327v487h327v228h-588v-1793zM1756 1565h228v-1566h262v1566h228v228h-718v-228zM9096 -1h587v228h-359v1566h-228v-1794z
M4197 1730.5q-26 -33.5 -39.5 -70.5t-13.5 -189v-1161q9 -133 24 -176.5t31.5 -69.5t50 -51.5t55.5 -31.5t36.5 -11t60 -12t85.5 -3.5t71 12t49 24.5t32.5 34t49.5 57v-85h128v865h-353v-192h97v-346q0 -50 -17 -74t-68.5 -21.5t-63.5 24t-12 73.5v1089q0 79 18 94t61 15
t62.5 -14t19.5 -101v-290h256v404q0 77 -9 110.5t-24 52t-31 36t-38.5 33.5t-61.5 30t-98.5 21t-104 1.5t-98.5 -7t-91.5 -19t-63.5 -51zM1105 -1h588v226h-327v623h327v229h-327v487h327v228h-588v-1793zM5549 0h228l49 489l208 2l36 -491h261l-196 1793h-390zM6005 717
h-151l73 722zM2378 0h228l49 489l208 2l36 -491h261l-196 1793h-390zM2834 717h-151l73 722zM0 -763h11945v702h-11945v-702zM6400 0h261v815q96 4 128 -15t35 -80v-201q2 -201 8 -262t12 -130t19 -98t39 -29h215q22 0 15 10.5t-11.5 40t-12 68.5t-10.5 55.5t-6.5 49.5
t-6.5 82v27v26v378v78q-7 33 -19.5 49.5t-26 31t-30 21.5t-32.5 13t-36 12t-52 8q62 14 95 30t55 33t34 40t12 134v234v111v20q0 78 -14 112t-28 55.5t-32.5 37.5t-57 24.5t-71 10t-143.5 1.5h-72h-267v-1793zM6761 1598.5q45 -5.5 51 -66.5v-424q-3 -32 -14.5 -47.5
t-24.5 -16.5t-39 -1h-73v558q55 3 100 -2.5zM7769.5 1790.5q-42.5 -18.5 -70.5 -44t-41 -105.5v-302q9 -180 30.5 -235t61.5 -108l262 -362q31 -60 50 -100t8 -245q-6 -95 -71 -89t-81 53t-16 136v276h-32h-19h-25h-19h-146v-315q16 -158 36 -201t83.5 -94.5t212.5 -66.5
q150 5 202 26t90.5 99t38.5 192v160q4 164 -68 282l-248 329q-92 121 -99 155t-7 85v170q-4 98 27.5 119.5t47 23.5t57.5 -14.5t38 -110.5v-367h252v431q-13 91 -34 118t-39.5 44t-46.5 38t-114 42l-136 11q-142 -12 -184.5 -30.5zM8447 54q55 -59 264 -59q199 0 256 59
q57 64 57 296v1090q0 232 -55 293.5t-262 61.5q-205 0 -260 -59t-55 -296v-1090q0 -235 55 -296zM8772 306q0 -42 -13 -58.5t-47 -16.5q-66 0 -66 75v1176q0 77 60 77q66 0 66 -77v-1176zM3215 -1h587v228h-359v1566h-228v-1794zM9762 -2h228v1793h-228v-1793zM10096 1794
h201q195 0 263.5 -31t104 -102t44.5 -158t9 -342v-628q0 -242 -13 -323t-45.5 -127t-80.5 -64.5t-144 -18.5h-339v1794zM10346 1564v-1334q93 0 114.5 45.5t21.5 248.5v788q0 138 -7 177t-33 57t-96 18zM11587 1016l-349 -775v-241h702v241h-369l316 703q40 90 49 173l4 72
v227q0 226 -61 289q-64 86 -294 86q-226 0 -288 -79q-63 -57 -63 -296v-227h302v268q0 77 46 77q27 0 38 -16.5t11 -60.5v-252v-16q-18 -114 -44 -173z" />
    <glyph glyph-name="ampersand" unicode="&#x26;" 
d="M82 1351v-1337h655v1337h-655zM751 0h-683v1365h683v-1365z" />
    <glyph glyph-name="quotesingle" unicode="'" horiz-adv-x="379" 
d="M91 1270l-53 273v248h306v-248l-46 -273h-207z" />
    <glyph glyph-name="parenleft" unicode="(" 
d="M82 1351v-1337h655v1337h-655zM751 0h-683v1365h683v-1365z" />
    <glyph glyph-name="parenright" unicode=")" 
d="M82 1351v-1337h655v1337h-655zM751 0h-683v1365h683v-1365z" />
    <glyph glyph-name="asterisk" unicode="*" 
d="M82 1351v-1337h655v1337h-655zM751 0h-683v1365h683v-1365z" />
    <glyph glyph-name="plus" unicode="+" 
d="M82 1351v-1337h655v1337h-655zM751 0h-683v1365h683v-1365z" />
    <glyph glyph-name="comma" unicode="," 
d="M82 1351v-1337h655v1337h-655zM751 0h-683v1365h683v-1365z" />
    <glyph glyph-name="hyphen" unicode="-" 
d="M82 1351v-1337h655v1337h-655zM751 0h-683v1365h683v-1365z" />
    <glyph glyph-name="period" unicode="." horiz-adv-x="387" 
d="M68 303v-303h307v303h-307z" />
    <glyph glyph-name="slash" unicode="/" 
d="M333 -2h-329l371 1793h329z" />
    <glyph glyph-name="zero" unicode="0" horiz-adv-x="737" 
d="M393 231q-47 0 -47 75v1172q0 77 43 77q47 0 47 -77v-1172q0 -42 -9 -58.5t-34 -16.5zM721 1436q0 231 -59 295q-58 61 -271 61q-211 0 -268 -59q-60 -59 -60 -297v-1089q0 -232 58 -294q57 -59 274 -59q207 0 266.5 59t59.5 294v1089z" />
    <glyph glyph-name="one" unicode="1" horiz-adv-x="508" 
d="M442 0v1793h-229q-8 -99 -60.5 -161t-138.5 -71v-238h144v-1323h284z" />
    <glyph glyph-name="two" unicode="2" horiz-adv-x="787" 
d="M417 1016l-349 -775v-241h702v241h-369l316 703q40 90 49 173l4 72v227q0 226 -61 289q-64 86 -294 86q-226 0 -288 -79q-63 -57 -63 -296v-227h302v268q0 77 46 77q27 0 38 -16.5t11 -60.5v-252v-16q-18 -114 -44 -173z" />
    <glyph glyph-name="three" unicode="3" horiz-adv-x="737" 
d="M375 1092h-101v-257h101q59 0 59 -75v-454q0 -42 -10 -58.5t-33 -16.5q-24 0 -34.5 16.5t-10.5 58.5v419h-285v-378q0 -230 60 -294q57 -59 272 -59q203 0 264.5 59t61.5 294v334q0 73 -7 121t-22.5 79t-42 49.5t-63.5 31.5q59 20 88.5 60.5t40.5 121.5l6 66v33v193
q0 229 -62 293q-59 63 -264 63q-211 0 -272 -59q-60 -59 -60 -297v-226h285v268q0 77 43 77q45 0 45 -77l-2 -334q-4 -30 -16.5 -41t-40.5 -11z" />
    <glyph glyph-name="four" unicode="4" horiz-adv-x="793" 
d="M281 753l88 722h20v-722h-108zM659 1793h-419l-215 -1040v-236h356v-517h278v517h78v236h-78v1040z" />
    <glyph glyph-name="five" unicode="5" horiz-adv-x="737" 
d="M350 928v60q0 55 45 55q23 0 33 -16.5t10 -58.5v-660q0 -42 -10 -59t-33 -17q-24 0 -34.5 17t-10.5 59v446h-284v-405q0 -229 59 -293q59 -62 274 -62q201 0 262.5 59.5t61.5 295.5v654q0 86 -14 142l-29 73q-49 88 -166 88q-92 0 -164 -64v318h357v234h-641v-649v-217
h284z" />
    <glyph glyph-name="six" unicode="6" horiz-adv-x="737" 
d="M436 743v-437q0 -42 -10 -58.5t-35 -16.5q-22 0 -32.5 15.5t-10.5 59.5v437q0 46 9.5 60t33.5 14q45 0 45 -74zM123 53q61 -59 274 -59q203 0 262 59q62 59 62 294v418q0 314 -217 314q-98 0 -156 -66v134v63v270q0 44 10.5 59.5t32.5 15.5q25 0 35 -16.5t10 -58.5v-270
h285v226q0 231 -62 295q-57 61 -262 61q-213 0 -272 -61q-62 -64 -62 -295v-289v-800q0 -230 60 -294z" />
    <glyph glyph-name="seven" unicode="7" horiz-adv-x="645" 
d="M375 0l258 1559v234h-565v-234h280l-264 -1559h291z" />
    <glyph glyph-name="eight" unicode="8" horiz-adv-x="737" 
d="M346 765q0 43 10.5 58.5t34.5 15.5q45 0 45 -74v-457q0 -77 -45 -77t-45 77v457zM193 967q-72 -25 -101 -83t-29 -183v-354q0 -230 60 -294q61 -59 264 -59q211 0 272.5 59t61.5 294v354q0 123 -29.5 181t-101.5 85q55 15 85 53.5t37 111.5l9 78v9v217q0 229 -62 293
q-59 63 -264 63q-209 0 -270.5 -59t-61.5 -297l5 -300q10 -77 39.5 -117.5t85.5 -51.5zM432 1136q-8 -33 -41 -33t-41 33l-4 74v268q0 44 10.5 60.5t34.5 16.5q45 0 45 -77v-268z" />
    <glyph glyph-name="nine" unicode="9" horiz-adv-x="737" 
d="M346 1041v437q0 44 10.5 60.5t34.5 16.5q23 0 33 -16.5t10 -60.5v-437q0 -44 -9 -59t-34 -15q-45 0 -45 74zM719 1436q0 231 -62 295q-57 61 -270 61q-205 0 -264 -61q-62 -60 -62 -295v-417q0 -314 218 -314q94 0 155 66v-465q0 -44 -10 -60.5t-33 -16.5q-45 0 -45 77
v309h-285v-268q0 -230 60 -294q61 -59 264 -59q213 0 272 59q62 62 62 294v1089z" />
    <glyph glyph-name="colon" unicode=":" horiz-adv-x="317" 
d="M88 471v-293h238v293h-238zM88 1454v-293h238v293h-238z" />
    <glyph glyph-name="semicolon" unicode=";" horiz-adv-x="317" 
d="M88 481v-293h100v-34q0 -58 -22.5 -83.5t-77.5 -29.5v-135q125 2 181.5 63.5t56.5 202.5v309h-238zM88 1464v-293h238v293h-238z" />
    <glyph glyph-name="less" unicode="&#x3c;" 
d="M82 1351v-1337h655v1337h-655zM751 0h-683v1365h683v-1365z" />
    <glyph glyph-name="equal" unicode="=" 
d="M82 1351v-1337h655v1337h-655zM751 0h-683v1365h683v-1365z" />
    <glyph glyph-name="greater" unicode="&#x3e;" 
d="M82 1351v-1337h655v1337h-655zM751 0h-683v1365h683v-1365z" />
    <glyph glyph-name="question" unicode="?" 
d="M82 1351v-1337h655v1337h-655zM751 0h-683v1365h683v-1365z" />
    <glyph glyph-name="at" unicode="@" horiz-adv-x="2268" 
d="M1439 889l-65 -269q-30 -125 -115.5 -203.5t-195.5 -78.5q-101 0 -153 62.5t-52 178.5q0 216 106 366q105 152 258 152q88 0 144 -53t73 -155zM1369 388v-4q0 -196 246 -196q209 0 376 132q145 117 220 281t75 356q0 198 -80 358l-46 80q-70 104 -186 195
q-126 97 -301.5 150.5t-371.5 53.5q-291 0 -525.5 -102t-408.5 -297q-269 -364 -269 -724q0 -474 364 -746q294 -224 747 -224q440 0 796 268l-79 115q-161 -110 -346 -167t-381 -57q-411 0 -660 221q-247 220 -247 587q0 189 63 352t181 295l85 80q26 21 55 43t61 41
q227 147 557 147q353 0 575 -185q13 -13 25 -23.5t92 -102.5q106 -155 106 -361q0 -138 -45 -256.5t-130 -207.5q-57 -64 -123.5 -100t-127.5 -36q-51 0 -82.5 26.5t-31.5 72.5q0 10 7 44q0 12 3 14l175 693h-182l-65 -127q-90 168 -293 168q-233 0 -395 -191.5t-162 -466.5
q0 -191 94.5 -294t275.5 -103q124 0 208.5 48.5t150.5 149.5z" />
    <glyph glyph-name="A" unicode="A" horiz-adv-x="862" 
d="M8 0h228l49 489l208 2l36 -491h261l-196 1793h-390zM464 717h-151l73 722z" />
    <glyph glyph-name="B" unicode="B" horiz-adv-x="828" 
d="M387.5 1598.5q55.5 -5.5 62.5 -66.5v-424q-4 -32 -18 -47.5t-30 -16.5t-48 -1h-90v558q68 3 123.5 -2.5zM274 211v558h111q40 0 59.5 -1t37 -16.5t22.5 -47.5v-424q-9 -61 -77.5 -66.5t-152.5 -2.5zM4 1791v-1796h401q115 3 143.5 4.5t68.5 11t56.5 26t33 37t30 53.5
t13.5 112l3 22v104v242q0 109 -1.5 146t-11 98.5t-129.5 127.5q71 38 79 94v331v113v30q0 82 -15 116.5t-29 56.5t-33 37t-57.5 24.5t-104.5 9.5h-447z" />
    <glyph glyph-name="C" unicode="C" horiz-adv-x="753" 
d="M82 1730.5q-26 -33.5 -39.5 -70.5t-13.5 -189v-1161q9 -133 24 -176.5t31.5 -69.5t50 -51.5t55.5 -31.5t36.5 -11t60 -12t117.5 -8t125.5 12t69 28.5t36.5 34t41.5 66.5t25.5 149v622h-254l-2 -538q0 -50 -17 -74t-68.5 -21.5t-63.5 24t-12 73.5v1089q0 79 18 94t61 15
t62.5 -14t19.5 -101v-290h256v404q0 77 -9 110.5t-24 52t-31 36t-38.5 33.5t-61.5 30t-98.5 21t-104 1.5t-98.5 -7t-91.5 -19t-63.5 -51z" />
    <glyph glyph-name="D" unicode="D" horiz-adv-x="702" 
d="M12 1794h201q195 0 263.5 -31t104 -102t44.5 -158t9 -342v-628q0 -242 -13 -323t-45.5 -127t-80.5 -64.5t-144 -18.5h-339v1794zM262 1564v-1334q93 0 114.5 45.5t21.5 248.5v788q0 138 -7 177t-33 57t-96 18z" />
    <glyph glyph-name="E" unicode="E" horiz-adv-x="668" 
d="M5 -1h588v226h-327v623h327v229h-327v487h327v228h-588v-1793z" />
    <glyph glyph-name="F" unicode="F" horiz-adv-x="668" 
d="M5 -1l261 1v848h327v229h-327v487h327v228h-588v-1793z" />
    <glyph glyph-name="G" unicode="G" horiz-adv-x="753" 
d="M82 1730.5q-26 -33.5 -39.5 -70.5t-13.5 -189v-1161q9 -133 24 -176.5t31.5 -69.5t50 -51.5t55.5 -31.5t36.5 -11t60 -12t85.5 -3.5t71 12t49 24.5t32.5 34t49.5 57v-85h128v865h-353v-192h97v-346q0 -50 -17 -74t-68.5 -21.5t-63.5 24t-12 73.5v1089q0 79 18 94t61 15
t62.5 -14t19.5 -101v-290h256v404q0 77 -9 110.5t-24 52t-31 36t-38.5 33.5t-61.5 30t-98.5 21t-104 1.5t-98.5 -7t-91.5 -19t-63.5 -51z" />
    <glyph glyph-name="H" unicode="H" horiz-adv-x="899" 
d="M5 -1h261v849l307 -2v-849h251v1793h-251v-712l-307 -1v715h-261v-1793z" />
    <glyph glyph-name="I" unicode="I" horiz-adv-x="308" 
d="M7 -2h228v1793h-228v-1793z" />
    <glyph glyph-name="J" unicode="J" horiz-adv-x="670" 
d="M321 226q-44 0 -44 77v442h-240v-400q0 -234 53 -296q54 -59 237 -59q189 0 244 59q56 64 56 296v1449h-266v-1491q0 -44 -9.5 -60.5t-30.5 -16.5z" />
    <glyph glyph-name="K" unicode="K" horiz-adv-x="746" 
d="M718 1793h-271l-108 -715v715h-267v-1793h267v870l124 -870h275l-176 1000z" />
    <glyph glyph-name="L" unicode="L" horiz-adv-x="667" 
d="M0 -1h587v228h-359v1566h-228v-1794z" />
    <glyph glyph-name="M" unicode="M" horiz-adv-x="1101" 
d="M1 -2l-1 1794h390l133 -1149l104 1149h394v-1792h-218v1383l-154 -1384l-280 1l-151 1372v-1374h-217z" />
    <glyph glyph-name="N" unicode="N" horiz-adv-x="839" 
d="M1 -2l-1 1794h390l152 -1374v1374h217l1 -1794l-391 2l-151 1372v-1374h-217z" />
    <glyph glyph-name="O" unicode="O" horiz-adv-x="712" 
d="M86 54q55 -59 264 -59q199 0 256 59q57 64 57 296v1090q0 232 -55 293.5t-262 61.5q-205 0 -260 -59t-55 -296v-1090q0 -235 55 -296zM411 306q0 -42 -13 -58.5t-47 -16.5q-66 0 -66 75v1176q0 77 60 77q66 0 66 -77v-1176z" />
    <glyph glyph-name="P" unicode="P" horiz-adv-x="765" 
d="M3 0h261v815l201 1q81 -8 130.5 39.5t71.5 96t21.5 86.5t-0.5 149v234v111v20q0 78 -14 112t-28 55.5t-32.5 37.5t-57 24.5t-71 10t-143.5 1.5h-72h-267v-1793zM364 1598.5q45 -5.5 51 -66.5v-424q-3 -32 -14.5 -47.5t-24.5 -16.5t-39 -1h-73v558q55 3 100 -2.5z" />
    <glyph glyph-name="Q" unicode="Q" horiz-adv-x="684" 
d="M304 313v1169q0 44 15.5 59t51.5 15q37 0 52.5 -16.5t15.5 -57.5v-1169q0 -41 -15.5 -57.5t-52.5 -16.5q-67 0 -67 74zM668 1439q0 226 -57 289q-54 63 -243 63q-193 0 -248 -61q-57 -59 -57 -291v-1083q0 -213 41.5 -274t156.5 -74q70 -91 140.5 -141t149.5 -66l102 190
h-6q-19 -2 -31 -3.5t-20 -1.5q-26 0 -55 3.5t-73 12.5l-11 8q124 7 166 68q45 61 45 278v1083z" />
    <glyph glyph-name="R" unicode="R" horiz-adv-x="813" 
d="M3 0h261v815q96 4 128 -15t35 -80v-201q2 -201 8 -262t12 -130t19 -98t39 -29h215q22 0 15 10.5t-11.5 40t-12 68.5t-10.5 55.5t-6.5 49.5t-6.5 82v27v26v378v78q-7 33 -19.5 49.5t-26 31t-30 21.5t-32.5 13t-36 12t-52 8q62 14 95 30t55 33t34 40t12 134v234v111v20
q0 78 -14 112t-28 55.5t-32.5 37.5t-57 24.5t-71 10t-143.5 1.5h-72h-267v-1793zM364 1598.5q45 -5.5 51 -66.5v-424q-3 -32 -14.5 -47.5t-24.5 -16.5t-39 -1h-73v558q55 3 100 -2.5z" />
    <glyph glyph-name="S" unicode="S" horiz-adv-x="746" 
d="M110.5 1779.5q-42.5 -18.5 -70.5 -44t-41 -105.5v-302q9 -180 30.5 -235t61.5 -108l262 -362q31 -60 50 -100t8 -245q-6 -95 -71 -89t-81 53t-16 136v276h-32h-19h-25h-19h-146v-315q16 -158 36 -201t83.5 -94.5t212.5 -66.5q150 5 202 26t90.5 99t38.5 192v160
q4 164 -68 282l-248 329q-92 121 -99 155t-7 85v170q-4 98 27.5 119.5t47 23.5t57.5 -14.5t38 -110.5v-367h252v431q-13 91 -34 118t-39.5 44t-46.5 38t-114 42l-136 11q-142 -12 -184.5 -30.5z" />
    <glyph glyph-name="T" unicode="T" horiz-adv-x="798" 
d="M0 1565h228v-1566h262v1566h228v228h-718v-228z" />
    <glyph glyph-name="U" unicode="U" horiz-adv-x="828" 
d="M826 1792v-1105q0 -263 -9.5 -375.5t-50 -179.5t-120.5 -116.5t-182 -49.5q-113 0 -199 53t-128.5 138t-50.5 179.5t-8 397.5v1058h280v-1314q-3 -134 6 -171.5t86 -57.5q81 20 90 55.5t9 169.5v1318h277z" />
    <glyph glyph-name="V" unicode="V" horiz-adv-x="771" 
d="M162 1792h228l133 -1149l104 1149h226l-204 -1793l-280 1z" />
    <glyph glyph-name="W" unicode="W" horiz-adv-x="1241" 
d="M162 1792h228l133 -1149l90 1149h247l133 -1149l104 1149h226l-204 -1793l-280 1l-82 902l-108 -903l-280 1z" />
    <glyph glyph-name="X" unicode="X" horiz-adv-x="834" 
d="M775 1793h-274l-74 -590l-79 590h-302l99 -654l29 -185l-137 -954h283l77 799h9l82 -799h302l-141 954l26 185l14 78z" />
    <glyph glyph-name="Y" unicode="Y" horiz-adv-x="817" 
d="M735 1792h-289l-73 -691l-79 691h-296l216 -1068v-724h318v724z" />
    <glyph glyph-name="Z" unicode="Z" horiz-adv-x="653" 
d="M33 0h572v252h-258l258 1298v243h-539v-243h225l-258 -1298v-252z" />
    <glyph glyph-name="bracketleft" unicode="[" 
d="M82 1351v-1337h655v1337h-655zM751 0h-683v1365h683v-1365z" />
    <glyph glyph-name="backslash" unicode="\" 
d="M375 -2h329l-371 1793h-329z" />
    <glyph glyph-name="bracketright" unicode="]" 
d="M82 1351v-1337h655v1337h-655zM751 0h-683v1365h683v-1365z" />
    <glyph glyph-name="asciicircum" unicode="^" 
d="M82 1351v-1337h655v1337h-655zM751 0h-683v1365h683v-1365z" />
    <glyph glyph-name="underscore" unicode="_" horiz-adv-x="1104" 
d="M1024 -573h-1024v300h1024v-300z" />
    <glyph glyph-name="grave" unicode="`" 
d="M82 1351v-1337h655v1337h-655zM751 0h-683v1365h683v-1365z" />
    <glyph glyph-name="a" unicode="a" horiz-adv-x="862" 
d="M8 0h228l49 489l208 2l36 -491h261l-196 1793h-390zM464 717h-151l73 722z" />
    <glyph glyph-name="b" unicode="b" horiz-adv-x="828" 
d="M387.5 1598.5q55.5 -5.5 62.5 -66.5v-424q-4 -32 -18 -47.5t-30 -16.5t-48 -1h-90v558q68 3 123.5 -2.5zM274 211v558h111q40 0 59.5 -1t37 -16.5t22.5 -47.5v-424q-9 -61 -77.5 -66.5t-152.5 -2.5zM4 1791v-1796h401q115 3 143.5 4.5t68.5 11t56.5 26t33 37t30 53.5
t13.5 112l3 22v104v242q0 109 -1.5 146t-11 98.5t-129.5 127.5q71 38 79 94v331v113v30q0 82 -15 116.5t-29 56.5t-33 37t-57.5 24.5t-104.5 9.5h-447z" />
    <glyph glyph-name="c" unicode="c" horiz-adv-x="753" 
d="M82 1730.5q-26 -33.5 -39.5 -70.5t-13.5 -189v-1161q9 -133 24 -176.5t31.5 -69.5t50 -51.5t55.5 -31.5t36.5 -11t60 -12t117.5 -8t125.5 12t69 28.5t36.5 34t41.5 66.5t25.5 149v622h-254l-2 -538q0 -50 -17 -74t-68.5 -21.5t-63.5 24t-12 73.5v1089q0 79 18 94t61 15
t62.5 -14t19.5 -101v-290h256v404q0 77 -9 110.5t-24 52t-31 36t-38.5 33.5t-61.5 30t-98.5 21t-104 1.5t-98.5 -7t-91.5 -19t-63.5 -51z" />
    <glyph glyph-name="d" unicode="d" horiz-adv-x="702" 
d="M12 1794h201q195 0 263.5 -31t104 -102t44.5 -158t9 -342v-628q0 -242 -13 -323t-45.5 -127t-80.5 -64.5t-144 -18.5h-339v1794zM262 1564v-1334q93 0 114.5 45.5t21.5 248.5v788q0 138 -7 177t-33 57t-96 18z" />
    <glyph glyph-name="e" unicode="e" horiz-adv-x="668" 
d="M5 -1h588v226h-327v623h327v229h-327v487h327v228h-588v-1793z" />
    <glyph glyph-name="f" unicode="f" horiz-adv-x="668" 
d="M5 -1l261 1v848h327v229h-327v487h327v228h-588v-1793z" />
    <glyph glyph-name="g" unicode="g" horiz-adv-x="753" 
d="M82 1730.5q-26 -33.5 -39.5 -70.5t-13.5 -189v-1161q9 -133 24 -176.5t31.5 -69.5t50 -51.5t55.5 -31.5t36.5 -11t60 -12t85.5 -3.5t71 12t49 24.5t32.5 34t49.5 57v-85h128v865h-353v-192h97v-346q0 -50 -17 -74t-68.5 -21.5t-63.5 24t-12 73.5v1089q0 79 18 94t61 15
t62.5 -14t19.5 -101v-290h256v404q0 77 -9 110.5t-24 52t-31 36t-38.5 33.5t-61.5 30t-98.5 21t-104 1.5t-98.5 -7t-91.5 -19t-63.5 -51z" />
    <glyph glyph-name="h" unicode="h" horiz-adv-x="899" 
d="M5 -1h261v849l307 -2v-849h251v1793h-251v-712l-307 -1v715h-261v-1793z" />
    <glyph glyph-name="i" unicode="i" horiz-adv-x="308" 
d="M7 -2h228v1793h-228v-1793z" />
    <glyph glyph-name="j" unicode="j" horiz-adv-x="670" 
d="M321 226q-44 0 -44 77v442h-240v-400q0 -234 53 -296q54 -59 237 -59q189 0 244 59q56 64 56 296v1449h-266v-1491q0 -44 -9.5 -60.5t-30.5 -16.5z" />
    <glyph glyph-name="k" unicode="k" horiz-adv-x="746" 
d="M718 1793h-271l-108 -715v715h-267v-1793h267v870l124 -870h275l-176 1000z" />
    <glyph glyph-name="l" unicode="l" horiz-adv-x="667" 
d="M0 -1h587v228h-359v1566h-228v-1794z" />
    <glyph glyph-name="m" unicode="m" horiz-adv-x="1101" 
d="M1 -2l-1 1794h390l133 -1149l104 1149h394v-1792h-218v1383l-154 -1384l-280 1l-151 1372v-1374h-217z" />
    <glyph glyph-name="n" unicode="n" horiz-adv-x="839" 
d="M1 -2l-1 1794h390l152 -1374v1374h217l1 -1794l-391 2l-151 1372v-1374h-217z" />
    <glyph glyph-name="o" unicode="o" horiz-adv-x="712" 
d="M86 54q55 -59 264 -59q199 0 256 59q57 64 57 296v1090q0 232 -55 293.5t-262 61.5q-205 0 -260 -59t-55 -296v-1090q0 -235 55 -296zM411 306q0 -42 -13 -58.5t-47 -16.5q-66 0 -66 75v1176q0 77 60 77q66 0 66 -77v-1176z" />
    <glyph glyph-name="p" unicode="p" horiz-adv-x="765" 
d="M3 0h261v815l201 1q81 -8 130.5 39.5t71.5 96t21.5 86.5t-0.5 149v234v111v20q0 78 -14 112t-28 55.5t-32.5 37.5t-57 24.5t-71 10t-143.5 1.5h-72h-267v-1793zM364 1598.5q45 -5.5 51 -66.5v-424q-3 -32 -14.5 -47.5t-24.5 -16.5t-39 -1h-73v558q55 3 100 -2.5z" />
    <glyph glyph-name="q" unicode="q" horiz-adv-x="684" 
d="M304 313v1169q0 44 15.5 59t51.5 15q37 0 52.5 -16.5t15.5 -57.5v-1169q0 -41 -15.5 -57.5t-52.5 -16.5q-67 0 -67 74zM668 1439q0 226 -57 289q-54 63 -243 63q-193 0 -248 -61q-57 -59 -57 -291v-1083q0 -213 41.5 -274t156.5 -74q70 -91 140.5 -141t149.5 -66l102 190
h-6q-19 -2 -31 -3.5t-20 -1.5q-26 0 -55 3.5t-73 12.5l-11 8q124 7 166 68q45 61 45 278v1083z" />
    <glyph glyph-name="r" unicode="r" horiz-adv-x="813" 
d="M3 0h261v815q96 4 128 -15t35 -80v-201q2 -201 8 -262t12 -130t19 -98t39 -29h215q22 0 15 10.5t-11.5 40t-12 68.5t-10.5 55.5t-6.5 49.5t-6.5 82v27v26v378v78q-7 33 -19.5 49.5t-26 31t-30 21.5t-32.5 13t-36 12t-52 8q62 14 95 30t55 33t34 40t12 134v234v111v20
q0 78 -14 112t-28 55.5t-32.5 37.5t-57 24.5t-71 10t-143.5 1.5h-72h-267v-1793zM364 1598.5q45 -5.5 51 -66.5v-424q-3 -32 -14.5 -47.5t-24.5 -16.5t-39 -1h-73v558q55 3 100 -2.5z" />
    <glyph glyph-name="s" unicode="s" horiz-adv-x="746" 
d="M110.5 1779.5q-42.5 -18.5 -70.5 -44t-41 -105.5v-302q9 -180 30.5 -235t61.5 -108l262 -362q31 -60 50 -100t8 -245q-6 -95 -71 -89t-81 53t-16 136v276h-32h-19h-25h-19h-146v-315q16 -158 36 -201t83.5 -94.5t212.5 -66.5q150 5 202 26t90.5 99t38.5 192v160
q4 164 -68 282l-248 329q-92 121 -99 155t-7 85v170q-4 98 27.5 119.5t47 23.5t57.5 -14.5t38 -110.5v-367h252v431q-13 91 -34 118t-39.5 44t-46.5 38t-114 42l-136 11q-142 -12 -184.5 -30.5z" />
    <glyph glyph-name="t" unicode="t" horiz-adv-x="798" 
d="M0 1565h228v-1566h262v1566h228v228h-718v-228z" />
    <glyph glyph-name="u" unicode="u" horiz-adv-x="828" 
d="M826 1792v-1105q0 -263 -9.5 -375.5t-50 -179.5t-120.5 -116.5t-182 -49.5q-113 0 -199 53t-128.5 138t-50.5 179.5t-8 397.5v1058h280v-1314q-3 -134 6 -171.5t86 -57.5q81 20 90 55.5t9 169.5v1318h277z" />
    <glyph glyph-name="v" unicode="v" horiz-adv-x="771" 
d="M162 1792h228l133 -1149l104 1149h226l-204 -1793l-280 1z" />
    <glyph glyph-name="w" unicode="w" horiz-adv-x="1241" 
d="M162 1792h228l133 -1149l90 1149h247l133 -1149l104 1149h226l-204 -1793l-280 1l-82 902l-108 -903l-280 1z" />
    <glyph glyph-name="x" unicode="x" horiz-adv-x="834" 
d="M775 1793h-274l-74 -590l-79 590h-302l99 -654l29 -185l-137 -954h283l77 799h9l82 -799h302l-141 954l26 185l14 78z" />
    <glyph glyph-name="y" unicode="y" horiz-adv-x="817" 
d="M735 1792h-289l-73 -691l-79 691h-296l216 -1068v-724h318v724z" />
    <glyph glyph-name="z" unicode="z" horiz-adv-x="653" 
d="M33 0h572v252h-258l258 1298v243h-539v-243h225l-258 -1298v-252z" />
    <glyph glyph-name="braceleft" unicode="{" 
d="M82 1351v-1337h655v1337h-655zM751 0h-683v1365h683v-1365z" />
    <glyph glyph-name="bar" unicode="|" 
d="M82 1351v-1337h655v1337h-655zM751 0h-683v1365h683v-1365z" />
    <glyph glyph-name="braceright" unicode="}" 
d="M82 1351v-1337h655v1337h-655zM751 0h-683v1365h683v-1365z" />
    <glyph glyph-name="asciitilde" unicode="~" 
d="M82 1351v-1337h655v1337h-655zM751 0h-683v1365h683v-1365z" />
    <glyph glyph-name="nonbreakingspace" unicode="&#xa0;" horiz-adv-x="80" 
 />
    <glyph glyph-name="exclamdown" unicode="&#xa1;" horiz-adv-x="467" 
d="M123 1199q0 51 26 97q25 45 70 71q43 25 98 25q79 0 137 -56q56 -58 56 -137q0 -50 -26 -96q-25 -46 -71 -72q-47 -26 -96 -26q-50 0 -96 26t-72 72t-26 96zM137 0l27 928h305l27 -928h-359z" />
    <glyph glyph-name="cent" unicode="&#xa2;" horiz-adv-x="884" 
d="M677 207v-99h-228v106q-112 33 -200 107t-134 174q-47 102 -47 216q0 115 49 217q48 103 136 176q87 74 196 102v105h228v-96l6 -2q51 -10 98 -29q44 -20 91 -52l-164 -294q-33 29 -60 41q-30 11 -67 11q-49 0 -91 -24q-43 -24 -66 -65q-24 -42 -24 -91q0 -50 25 -91
q24 -42 66 -66t91 -24q37 0 65 12t61 42l162 -293q-46 -33 -90 -52q-41 -19 -103 -31z" />
    <glyph glyph-name="sterling" unicode="&#xa3;" horiz-adv-x="1102" 
d="M526 334h577v-334h-980l82 519h-75v307h123l20 121q30 176 112 276q64 79 165 124t212 45q219 0 383 -167l-253 -242q-61 61 -127 61q-70 0 -104 -46q-35 -47 -56 -172h323v-307h-373z" />
    <glyph glyph-name="currency" unicode="&#xa4;" 
d="M82 1351v-1337h655v1337h-655zM751 0h-683v1365h683v-1365z" />
    <glyph glyph-name="yen" unicode="&#xa5;" horiz-adv-x="1139" 
d="M793 0h-364v212h-143v218h143v120q-154 64 -243 182q-41 53 -61 104q-22 54 -33 120q-10 61 -10 157v42v210h364v-256q0 -87 18 -131q20 -47 59 -71q41 -27 88 -27q55 0 96 31q41 30 56 80q13 40 13 118v256h365v-210v-42q0 -143 -29 -238q-28 -92 -98 -171
q-83 -96 -221 -154v-120h144v-218h-144v-212z" />
    <glyph glyph-name="section" unicode="&#xa7;" 
d="M82 1351v-1337h655v1337h-655zM751 0h-683v1365h683v-1365z" />
    <glyph glyph-name="dieresis" unicode="&#xa8;" horiz-adv-x="786" 
d="M570 1248q0 57 40 97t96 40q57 0 97 -40t40 -97q0 -56 -40 -96t-97 -40q-56 0 -96 40t-40 96zM137 1248q0 57 40 97t96 40q57 0 97 -40t40 -97q0 -56 -40 -96t-97 -40q-56 0 -96 40t-40 96z" />
    <glyph glyph-name="copyright" unicode="&#xa9;" 
d="M82 1351v-1337h655v1337h-655zM751 0h-683v1365h683v-1365z" />
    <glyph glyph-name="ordfeminine" unicode="&#xaa;" 
d="M82 1351v-1337h655v1337h-655zM751 0h-683v1365h683v-1365z" />
    <glyph glyph-name="guillemotleft" unicode="&#xab;" horiz-adv-x="817" 
d="M505 134h-239l-157 378l157 366h239l-157 -366zM689 512l157 -378h-239l-157 378l157 366h239z" />
    <glyph glyph-name="logicalnot" unicode="&#xac;" 
d="M82 1351v-1337h655v1337h-655zM751 0h-683v1365h683v-1365z" />
    <glyph glyph-name="registered" unicode="&#xae;" 
d="M82 1351v-1337h655v1337h-655zM751 0h-683v1365h683v-1365z" />
    <glyph glyph-name="macron" unicode="&#xaf;" 
d="M82 1351v-1337h655v1337h-655zM751 0h-683v1365h683v-1365z" />
    <glyph glyph-name="degree" unicode="&#xb0;" 
d="M82 1351v-1337h655v1337h-655zM751 0h-683v1365h683v-1365z" />
    <glyph glyph-name="plusminus" unicode="&#xb1;" 
d="M82 1351v-1337h655v1337h-655zM751 0h-683v1365h683v-1365z" />
    <glyph glyph-name="acute" unicode="&#xb4;" horiz-adv-x="578" 
d="M375 1115h-238l156 266h342z" />
    <glyph glyph-name="mu" unicode="&#xb5;" 
d="M82 1351v-1337h655v1337h-655zM751 0h-683v1365h683v-1365z" />
    <glyph glyph-name="paragraph" unicode="&#xb6;" 
d="M82 1351v-1337h655v1337h-655zM751 0h-683v1365h683v-1365z" />
    <glyph glyph-name="periodcentered" unicode="&#xb7;" horiz-adv-x="499" 
d="M96 696q0 59 28 106q28 48 76 76q47 28 105 28q59 0 106 -28q48 -28 76 -76q28 -47 28 -106q0 -87 -61 -148q-62 -62 -149 -62q-85 0 -147 63q-62 62 -62 147z" />
    <glyph glyph-name="periodcentered" unicode="&#x2219;" horiz-adv-x="499" 
d="M96 696q0 59 28 106q28 48 76 76q47 28 105 28q59 0 106 -28q48 -28 76 -76q28 -47 28 -106q0 -87 -61 -148q-62 -62 -149 -62q-85 0 -147 63q-62 62 -62 147z" />
    <glyph glyph-name="cedilla" unicode="&#xb8;" 
d="M82 1351v-1337h655v1337h-655zM751 0h-683v1365h683v-1365z" />
    <glyph glyph-name="ordmasculine" unicode="&#xba;" 
d="M82 1351v-1337h655v1337h-655zM751 0h-683v1365h683v-1365z" />
    <glyph glyph-name="guillemotright" unicode="&#xbb;" horiz-adv-x="817" 
d="M846 512l-157 -378h-239l157 378l-157 366h239zM505 512l-157 -378h-239l157 378l-157 366h239z" />
    <glyph glyph-name="questiondown" unicode="&#xbf;" horiz-adv-x="974" 
d="M729 1199q0 -55 -25 -98q-26 -45 -71 -70q-46 -26 -97 -26q-50 0 -96 26t-72 72t-26 96q0 51 26 97q25 45 70 71q43 25 98 25q81 0 137 -56t56 -137zM379 914v14h314v-22q0 -133 -33 -201q-34 -69 -130 -127q-84 -52 -106 -75q-31 -37 -31 -85q0 -36 18 -68t51 -50
q32 -18 68 -18q56 0 96 39q39 38 39 94q0 22 -4 42h314q1 -12 1 -41q0 -121 -60 -223q-61 -103 -163 -161q-104 -59 -227 -59q-120 0 -222 60q-103 59 -162 162q-60 102 -60 222q0 243 227 393q34 22 50 36q12 9 17 24q3 14 3 44z" />
    <glyph glyph-name="Agrave" unicode="&#xc0;" horiz-adv-x="1139" 
d="M8 0h228l49 489l208 2l36 -491h261l-196 1793h-390zM464 717h-151l73 722zM191 1739v-1337h655v1337h-655zM860 388h-683v1365h683v-1365z" />
    <glyph glyph-name="Aacute" unicode="&#xc1;" horiz-adv-x="1139" 
d="M8 0h228l49 489l208 2l36 -491h261l-196 1793h-390zM464 717h-151l73 722zM730 1500h-238l156 266h342z" />
    <glyph glyph-name="Acircumflex" unicode="&#xc2;" horiz-adv-x="1139" 
d="M8 0h228l49 489l208 2l36 -491h261l-196 1793h-390zM464 717h-151l73 722zM577 1500h-273l191 266h273l191 -266h-273l-55 108z" />
    <glyph glyph-name="Atilde" unicode="&#xc3;" horiz-adv-x="1139" 
d="M8 0h228l49 489l208 2l36 -491h261l-196 1793h-390zM464 717h-151l73 722zM853 1764l119 -156q-57 -55 -105 -78q-47 -22 -117 -22q-31 0 -59 5q-23 4 -104 27q-42 11 -68 11q-48 0 -110 -48l-118 154q89 101 214 101q57 0 109 -16l72 -20q32 -9 59 -9q30 0 54 12
q23 11 54 39z" />
    <glyph glyph-name="Adieresis" unicode="&#xc4;" 
d="M82 1351v-1337h655v1337h-655zM751 0h-683v1365h683v-1365z" />
    <glyph glyph-name="Aring" unicode="&#xc5;" 
d="M82 1351v-1337h655v1337h-655zM751 0h-683v1365h683v-1365z" />
    <glyph glyph-name="AE" unicode="&#xc6;" horiz-adv-x="1579" 
d="M467 683h329v132v35q0 52 -21 95q-22 43 -58 65q-37 22 -85 22q-74 0 -119 -50q-46 -50 -46 -132v-35v-132zM467 373v-373h-365v764v50q1 100 13 166q10 58 44 124q46 91 119 156q68 62 163 98q90 34 191 34q183 0 331 -113q55 44 121 66q66 20 155 20h362v-308h-280
q-84 0 -114 -13q-27 -10 -44 -37q-18 -27 -18 -59q0 -30 18 -59q16 -28 44 -40q27 -10 46 -11q20 -3 65 -3h283v-305h-283q-157 0 -157 -111q0 -30 18 -59q18 -28 44 -39q29 -13 98 -13h280v-308h-348h-56q-184 3 -281 96q-99 91 -120 277h-329z" />
    <glyph glyph-name="Ccedilla" unicode="&#xc7;" horiz-adv-x="960" 
d="M778 -29h-5v-73q140 -15 140 -150q0 -77 -51 -128t-128 -51q-71 0 -138 49l65 84q37 -22 63 -22q27 0 44 16q17 15 17 41q0 27 -18 45q-20 17 -46 17q-22 0 -60 -16v196l-7 1q-130 23 -240 84t-191 157q-80 93 -124 215q-44 120 -44 248q0 192 96 355q95 164 258 258
q163 95 353 95q84 0 173 -22v-369q-90 28 -163 28q-99 0 -179 -46q-82 -46 -129 -126t-47 -176q0 -97 48 -177q46 -79 130 -125q82 -46 181 -46q39 0 72 6t87 24v-370q-82 -20 -155 -22h-2z" />
    <glyph glyph-name="Egrave" unicode="&#xc8;" horiz-adv-x="952" 
d="M5 -1h588v226h-327v623h327v229h-327v487h327v228h-588v-1793zM137 1739v-1337h655v1337h-655zM806 388h-683v1365h683v-1365z" />
    <glyph glyph-name="Eacute" unicode="&#xc9;" horiz-adv-x="954" 
d="M5 -1h588v226h-327v623h327v229h-327v487h327v228h-588v-1793zM675 1500h-238l156 266h342z" />
    <glyph glyph-name="Ecircumflex" unicode="&#xca;" horiz-adv-x="952" 
d="M5 -1h588v226h-327v623h327v229h-327v487h327v228h-588v-1793zM492 1500h-273l191 266h273l191 -266h-273l-55 108z" />
    <glyph glyph-name="Edieresis" unicode="&#xcb;" horiz-adv-x="952" 
d="M5 -1h588v226h-327v623h327v229h-327v487h327v228h-588v-1793zM597 1633q0 57 40 97t96 40q57 0 97 -40t40 -97q0 -56 -40 -96t-97 -40q-56 0 -96 40t-40 96zM164 1633q0 57 40 97t96 40q57 0 97 -40t40 -97q0 -56 -40 -96t-97 -40q-56 0 -96 40t-40 96z" />
    <glyph glyph-name="Igrave" unicode="&#xcc;" horiz-adv-x="635" 
d="M7 -2h228v1793h-228v-1793zM-136 1739v-1337h655v1337h-655zM533 388h-683v1365h683v-1365z" />
    <glyph glyph-name="Iacute" unicode="&#xcd;" horiz-adv-x="636" 
d="M7 -2h228v1793h-228v-1793zM405 1500h-238l156 266h342z" />
    <glyph glyph-name="Icircumflex" unicode="&#xce;" horiz-adv-x="735" 
d="M7 -2h228v1793h-228v-1793zM237 1500h-273l191 266h273l191 -266h-273l-55 108z" />
    <glyph glyph-name="Idieresis" unicode="&#xcf;" horiz-adv-x="786" 
d="M7 -2h228v1793h-228v-1793zM372 1633q0 57 40 97t96 40q57 0 97 -40t40 -97q0 -56 -40 -96t-97 -40q-56 0 -96 40t-40 96zM-61 1633q0 57 40 97t96 40q57 0 97 -40t40 -97q0 -56 -40 -96t-97 -40q-56 0 -96 40t-40 96z" />
    <glyph glyph-name="Ntilde" unicode="&#xd1;" horiz-adv-x="1139" 
d="M1 -2l-1 1794h390l152 -1374v1374h217l1 -1794l-391 2l-151 1372v-1374h-217zM853 1764l119 -156q-57 -55 -105 -78q-47 -22 -117 -22q-31 0 -59 5q-23 4 -104 27q-42 11 -68 11q-48 0 -110 -48l-118 154q89 101 214 101q57 0 109 -16l72 -20q32 -9 59 -9q30 0 54 12
q23 11 54 39z" />
    <glyph glyph-name="Ograve" unicode="&#xd2;" horiz-adv-x="1499" 
d="M86 54q55 -59 264 -59q199 0 256 59q57 64 57 296v1090q0 232 -55 293.5t-262 61.5q-205 0 -260 -59t-55 -296v-1090q0 -235 55 -296zM411 306q0 -42 -13 -58.5t-47 -16.5q-66 0 -66 75v1176q0 77 60 77q66 0 66 -77v-1176zM314 1739v-1337h655v1337h-655zM983 388h-683
v1365h683v-1365z" />
    <glyph glyph-name="Oacute" unicode="&#xd3;" horiz-adv-x="1499" 
d="M86 54q55 -59 264 -59q199 0 256 59q57 64 57 296v1090q0 232 -55 293.5t-262 61.5q-205 0 -260 -59t-55 -296v-1090q0 -235 55 -296zM411 306q0 -42 -13 -58.5t-47 -16.5q-66 0 -66 75v1176q0 77 60 77q66 0 66 -77v-1176zM853 1500h-238l156 266h342z" />
    <glyph glyph-name="Ocircumflex" unicode="&#xd4;" horiz-adv-x="1499" 
d="M86 54q55 -59 264 -59q199 0 256 59q57 64 57 296v1090q0 232 -55 293.5t-262 61.5q-205 0 -260 -59t-55 -296v-1090q0 -235 55 -296zM411 306q0 -42 -13 -58.5t-47 -16.5q-66 0 -66 75v1176q0 77 60 77q66 0 66 -77v-1176zM710 1500h-273l191 266h273l191 -266h-273
l-55 108z" />
    <glyph glyph-name="Otilde" unicode="&#xd5;" horiz-adv-x="1499" 
d="M86 54q55 -59 264 -59q199 0 256 59q57 64 57 296v1090q0 232 -55 293.5t-262 61.5q-205 0 -260 -59t-55 -296v-1090q0 -235 55 -296zM411 306q0 -42 -13 -58.5t-47 -16.5q-66 0 -66 75v1176q0 77 60 77q66 0 66 -77v-1176zM986 1764l119 -156q-57 -55 -105 -78
q-47 -22 -117 -22q-31 0 -59 5q-23 4 -104 27q-42 11 -68 11q-48 0 -110 -48l-118 154q89 101 214 101q57 0 109 -16l72 -20q32 -9 59 -9q30 0 54 12q23 11 54 39z" />
    <glyph glyph-name="Odieresis" unicode="&#xd6;" horiz-adv-x="1499" 
d="M86 54q55 -59 264 -59q199 0 256 59q57 64 57 296v1090q0 232 -55 293.5t-262 61.5q-205 0 -260 -59t-55 -296v-1090q0 -235 55 -296zM411 306q0 -42 -13 -58.5t-47 -16.5q-66 0 -66 75v1176q0 77 60 77q66 0 66 -77v-1176zM845 1633q0 57 40 97t96 40q57 0 97 -40
t40 -97q0 -56 -40 -96t-97 -40q-56 0 -96 40t-40 96zM412 1633q0 57 40 97t96 40q57 0 97 -40t40 -97q0 -56 -40 -96t-97 -40q-56 0 -96 40t-40 96z" />
    <glyph glyph-name="multiply" unicode="&#xd7;" horiz-adv-x="80" 
 />
    <glyph glyph-name="multiply" unicode="&#xfd;" horiz-adv-x="80" 
 />
    <glyph glyph-name="Oslash" unicode="&#xd8;" horiz-adv-x="1499" 
d="M764 1029q-94 0 -173 -46t-126 -127q-47 -80 -47 -173q0 -94 47 -174q47 -79 126 -126q80 -47 173 -47q94 0 174 47q81 47 127 126t46 174q0 94 -46 173q-47 80 -127 127q-79 46 -174 46zM71 216l92 91l-4 6q-104 173 -104 370q0 190 96 353q94 162 258 260
q162 96 351 96q98 0 202 -29q102 -28 182 -80l89 88l221 -219l-90 -91q53 -79 81 -180q29 -102 29 -199q0 -144 -55 -272q-55 -130 -153 -228t-228 -154q-129 -55 -274 -55q-204 0 -377 110l-94 -93z" />
    <glyph glyph-name="Ugrave" unicode="&#xd9;" horiz-adv-x="1139" 
d="M826 1792v-1105q0 -263 -9.5 -375.5t-50 -179.5t-120.5 -116.5t-182 -49.5q-113 0 -199 53t-128.5 138t-50.5 179.5t-8 397.5v1058h280v-1314q-3 -134 6 -171.5t86 -57.5q81 20 90 55.5t9 169.5v1318h277zM178 1739v-1337h655v1337h-655zM847 388h-683v1365h683v-1365z
" />
    <glyph glyph-name="Uacute" unicode="&#xda;" horiz-adv-x="1139" 
d="M826 1792v-1105q0 -263 -9.5 -375.5t-50 -179.5t-120.5 -116.5t-182 -49.5q-113 0 -199 53t-128.5 138t-50.5 179.5t-8 397.5v1058h280v-1314q-3 -134 6 -171.5t86 -57.5q81 20 90 55.5t9 169.5v1318h277zM744 1500h-238l156 266h342z" />
    <glyph glyph-name="Ucircumflex" unicode="&#xdb;" horiz-adv-x="1139" 
d="M826 1792v-1105q0 -263 -9.5 -375.5t-50 -179.5t-120.5 -116.5t-182 -49.5q-113 0 -199 53t-128.5 138t-50.5 179.5t-8 397.5v1058h280v-1314q-3 -134 6 -171.5t86 -57.5q81 20 90 55.5t9 169.5v1318h277zM577 1500h-273l191 266h273l191 -266h-273l-55 108z" />
    <glyph glyph-name="Udieresis" unicode="&#xdc;" horiz-adv-x="1139" 
d="M826 1792v-1105q0 -263 -9.5 -375.5t-50 -179.5t-120.5 -116.5t-182 -49.5q-113 0 -199 53t-128.5 138t-50.5 179.5t-8 397.5v1058h280v-1314q-3 -134 6 -171.5t86 -57.5q81 20 90 55.5t9 169.5v1318h277zM712 1633q0 57 40 97t96 40q57 0 97 -40t40 -97q0 -56 -40 -96
t-97 -40q-56 0 -96 40t-40 96zM279 1633q0 57 40 97t96 40q57 0 97 -40t40 -97q0 -56 -40 -96t-97 -40q-56 0 -96 40t-40 96z" />
    <glyph glyph-name="germandbls" unicode="&#xdf;" horiz-adv-x="1107" 
d="M430 791v-791h-334v783v44q0 140 24 228q22 87 81 161q43 56 100 92q60 39 130 58t148 19q99 0 180 -28q84 -29 141 -80q60 -54 92 -124q33 -73 33 -154t-27 -143q-29 -63 -93 -127q114 -53 166 -135t52 -207q0 -156 -94 -266q-45 -52 -96 -81q-51 -30 -115 -45t-146 -15
q-90 0 -181 20v328q63 -28 119 -28q79 0 125 42q46 40 46 110q0 85 -64 122q-65 38 -206 38h-20v198h37q173 0 173 119q0 55 -37 89t-97 34q-43 0 -73 -18q-32 -20 -48 -56q-16 -33 -16 -145v-42z" />
    <glyph glyph-name="agrave" unicode="&#xe0;" horiz-adv-x="1104" 
d="M8 0h228l49 489l208 2l36 -491h261l-196 1793h-390zM464 717h-151l73 722zM123 1351v-1337h655v1337h-655zM792 0h-683v1365h683v-1365z" />
    <glyph glyph-name="aacute" unicode="&#xe1;" horiz-adv-x="1104" 
d="M8 0h228l49 489l208 2l36 -491h261l-196 1793h-390zM464 717h-151l73 722zM662 1115h-238l156 266h342z" />
    <glyph glyph-name="acircumflex" unicode="&#xe2;" horiz-adv-x="1104" 
d="M8 0h228l49 489l208 2l36 -491h261l-196 1793h-390zM464 717h-151l73 722zM519 1115h-273l191 266h273l191 -266h-273l-55 108z" />
    <glyph glyph-name="atilde" unicode="&#xe3;" horiz-adv-x="1104" 
d="M8 0h228l49 489l208 2l36 -491h261l-196 1793h-390zM464 717h-151l73 722zM801 1379l119 -156q-57 -55 -105 -78q-47 -22 -117 -22q-31 0 -59 5q-23 4 -104 27q-42 11 -68 11q-48 0 -110 -48l-118 154q89 101 214 101q57 0 109 -16l72 -20q32 -9 59 -9q30 0 54 12
q23 11 54 39z" />
    <glyph glyph-name="adieresis" unicode="&#xe4;" horiz-adv-x="1104" 
d="M8 0h228l49 489l208 2l36 -491h261l-196 1793h-390zM464 717h-151l73 722zM652 1248q0 57 40 97t96 40q57 0 97 -40t40 -97q0 -56 -40 -96t-97 -40q-56 0 -96 40t-40 96zM219 1248q0 57 40 97t96 40q57 0 97 -40t40 -97q0 -56 -40 -96t-97 -40q-56 0 -96 40t-40 96z" />
    <glyph glyph-name="aring" unicode="&#xe5;" horiz-adv-x="1104" 
d="M8 0h228l49 489l208 2l36 -491h261l-196 1793h-390zM464 717h-151l73 722zM504 1248q0 -23 16 -39t38 -16q23 0 39 16t16 39q0 24 -16 39t-39 15q-21 0 -38 -15q-16 -15 -16 -39zM396 1248q0 67 48 113q47 46 114 46q69 0 116 -46q47 -47 47 -113t-48 -113
q-47 -46 -115 -46q-65 0 -114 47q-48 47 -48 112z" />
    <glyph glyph-name="ae" unicode="&#xe6;" horiz-adv-x="1721" 
d="M1091 412l233 252q-42 20 -79 20q-47 0 -88 -24q-42 -26 -65 -67q-25 -43 -25 -91q0 -46 24 -90zM1689 766l-416 -450q20 -6 39 -6q54 0 114 20q58 20 125 63l80 -327q-75 -41 -160 -64q-84 -22 -177 -22q-148 0 -273 63q-125 62 -200 173q-75 109 -84 247l-4 50
q-5 75 -50 119q-47 44 -120 44q-77 0 -131 -51q-54 -52 -54 -128q0 -79 55 -131q53 -52 135 -52q56 0 121 31v-345q-66 -21 -131 -21q-144 0 -261 66t-183 183q-66 116 -66 258q0 109 39 203q38 95 110 167q69 71 164 112q93 39 199 39q95 0 185 -34q87 -33 154 -94
q146 128 349 128q141 0 251 -61t190 -180z" />
    <glyph glyph-name="ccedilla" unicode="&#xe7;" horiz-adv-x="884" 
d="M407 -382l65 84q37 -22 63 -22q28 0 45 16q17 15 17 41q0 27 -19 45q-20 17 -46 17q-21 0 -60 -16v207q-121 23 -217 95q-98 74 -153 182q-55 109 -55 230q0 141 69 258t188 185t260 68q81 0 151 -21q68 -22 136 -69l-164 -294q-33 29 -60 41q-30 11 -67 11
q-49 0 -91 -24q-43 -24 -66 -65q-24 -42 -24 -91q0 -50 25 -91q24 -42 66 -66t91 -24q37 0 66 13q32 14 60 41l163 -293q-64 -44 -127 -66q-65 -23 -139 -27v-85q140 -15 140 -150q0 -77 -51 -128t-128 -51q-70 0 -138 49z" />
    <glyph glyph-name="egrave" unicode="&#xe8;" horiz-adv-x="1034" 
d="M5 -1h588v226h-327v623h327v229h-327v487h327v228h-588v-1793zM117 1351v-1337h655v1337h-655zM786 0h-683v1365h683v-1365z" />
    <glyph glyph-name="eacute" unicode="&#xe9;" horiz-adv-x="1034" 
d="M5 -1h588v226h-327v623h327v229h-327v487h327v228h-588v-1793zM667 1115h-238l156 266h342z" />
    <glyph glyph-name="ecircumflex" unicode="&#xea;" horiz-adv-x="1034" 
d="M5 -1h588v226h-327v623h327v229h-327v487h327v228h-588v-1793zM478 1115h-273l191 266h273l191 -266h-273l-55 108z" />
    <glyph glyph-name="edieresis" unicode="&#xeb;" horiz-adv-x="1034" 
d="M5 -1h588v226h-327v623h327v229h-327v487h327v228h-588v-1793zM625 1248q0 57 40 97t96 40q57 0 97 -40t40 -97q0 -56 -40 -96t-97 -40q-56 0 -96 40t-40 96zM192 1248q0 57 40 97t96 40q57 0 97 -40t40 -97q0 -56 -40 -96t-97 -40q-56 0 -96 40t-40 96z" />
    <glyph glyph-name="igrave" unicode="&#xec;" horiz-adv-x="612" 
d="M437 0h-335v991h335v-991zM-150 1351v-1337h655v1337h-655zM519 0h-683v1365h683v-1365z" />
    <glyph glyph-name="iacute" unicode="&#xed;" horiz-adv-x="613" 
d="M437 0h-335v991h335v-991zM375 1115h-238l156 266h342z" />
    <glyph glyph-name="icircumflex" unicode="&#xee;" horiz-adv-x="735" 
d="M437 0h-335v991h335v-991zM215 1115h-273l191 266h273l191 -266h-273l-55 108z" />
    <glyph glyph-name="idieresis" unicode="&#xef;" horiz-adv-x="786" 
d="M437 0h-335v991h335v-991zM350 1248q0 57 40 97t96 40q57 0 97 -40t40 -97q0 -56 -40 -96t-97 -40q-56 0 -96 40t-40 96zM-83 1248q0 57 40 97t96 40q57 0 97 -40t40 -97q0 -56 -40 -96t-97 -40q-56 0 -96 40t-40 96z" />
    <glyph glyph-name="ntilde" unicode="&#xf1;" horiz-adv-x="980" 
d="M1 -2l-1 1794h390l152 -1374v1374h217l1 -1794l-391 2l-151 1372v-1374h-217zM759 1379l119 -156q-57 -55 -105 -78q-47 -22 -117 -22q-31 0 -59 5q-23 4 -104 27q-42 11 -68 11q-48 0 -110 -48l-118 154q89 101 214 101q57 0 109 -16l72 -20q32 -9 59 -9q30 0 54 12
q23 11 54 39z" />
    <glyph glyph-name="ograve" unicode="&#xf2;" horiz-adv-x="1108" 
d="M86 54q55 -59 264 -59q199 0 256 59q57 64 57 296v1090q0 232 -55 293.5t-262 61.5q-205 0 -260 -59t-55 -296v-1090q0 -235 55 -296zM411 306q0 -42 -13 -58.5t-47 -16.5q-66 0 -66 75v1176q0 77 60 77q66 0 66 -77v-1176zM109 1351v-1337h655v1337h-655zM778 0h-683
v1365h683v-1365z" />
    <glyph glyph-name="oacute" unicode="&#xf3;" horiz-adv-x="1108" 
d="M86 54q55 -59 264 -59q199 0 256 59q57 64 57 296v1090q0 232 -55 293.5t-262 61.5q-205 0 -260 -59t-55 -296v-1090q0 -235 55 -296zM411 306q0 -42 -13 -58.5t-47 -16.5q-66 0 -66 75v1176q0 77 60 77q66 0 66 -77v-1176zM678 1115h-238l156 266h342z" />
    <glyph glyph-name="ocircumflex" unicode="&#xf4;" horiz-adv-x="1108" 
d="M86 54q55 -59 264 -59q199 0 256 59q57 64 57 296v1090q0 232 -55 293.5t-262 61.5q-205 0 -260 -59t-55 -296v-1090q0 -235 55 -296zM411 306q0 -42 -13 -58.5t-47 -16.5q-66 0 -66 75v1176q0 77 60 77q66 0 66 -77v-1176zM508 1115h-273l191 266h273l191 -266h-273
l-55 108z" />
    <glyph glyph-name="otilde" unicode="&#xf5;" horiz-adv-x="1108" 
d="M86 54q55 -59 264 -59q199 0 256 59q57 64 57 296v1090q0 232 -55 293.5t-262 61.5q-205 0 -260 -59t-55 -296v-1090q0 -235 55 -296zM411 306q0 -42 -13 -58.5t-47 -16.5q-66 0 -66 75v1176q0 77 60 77q66 0 66 -77v-1176zM783 1379l119 -156q-57 -55 -105 -78
q-47 -22 -117 -22q-31 0 -59 5q-23 4 -104 27q-42 11 -68 11q-48 0 -110 -48l-118 154q89 101 214 101q57 0 109 -16l72 -20q32 -9 59 -9q30 0 54 12q23 11 54 39z" />
    <glyph glyph-name="odieresis" unicode="&#xf6;" horiz-adv-x="1108" 
d="M86 54q55 -59 264 -59q199 0 256 59q57 64 57 296v1090q0 232 -55 293.5t-262 61.5q-205 0 -260 -59t-55 -296v-1090q0 -235 55 -296zM411 306q0 -42 -13 -58.5t-47 -16.5q-66 0 -66 75v1176q0 77 60 77q66 0 66 -77v-1176zM642 1248q0 57 40 97t96 40q57 0 97 -40
t40 -97q0 -56 -40 -96t-97 -40q-56 0 -96 40t-40 96zM209 1248q0 57 40 97t96 40q57 0 97 -40t40 -97q0 -56 -40 -96t-97 -40q-56 0 -96 40t-40 96z" />
    <glyph glyph-name="divide" unicode="&#xf7;" 
d="M82 1351v-1337h655v1337h-655zM751 0h-683v1365h683v-1365z" />
    <glyph glyph-name="oslash" unicode="&#xf8;" horiz-adv-x="1115" 
d="M562 674q-49 0 -90 -24q-42 -25 -66 -66q-25 -41 -25 -91t25 -90q24 -42 66 -66t90 -24q49 0 90 25q41 23 67 65q24 41 24 90t-24 91q-24 41 -66 66q-42 24 -91 24zM312 44l-56 -57l-212 208l62 62q-58 107 -58 238q0 140 69 257t186 186t257 69q128 0 240 -58l71 71
l208 -208l-68 -69q65 -122 65 -249q0 -106 -39 -199q-40 -94 -111 -165t-164 -110q-93 -40 -200 -40q-129 0 -250 64z" />
    <glyph glyph-name="ugrave" unicode="&#xf9;" horiz-adv-x="980" 
d="M826 1792v-1105q0 -263 -9.5 -375.5t-50 -179.5t-120.5 -116.5t-182 -49.5q-113 0 -199 53t-128.5 138t-50.5 179.5t-8 397.5v1058h280v-1314q-3 -134 6 -171.5t86 -57.5q81 20 90 55.5t9 169.5v1318h277zM107 1351v-1337h655v1337h-655zM776 0h-683v1365h683v-1365z" />
    <glyph glyph-name="uacute" unicode="&#xfa;" horiz-adv-x="980" 
d="M826 1792v-1105q0 -263 -9.5 -375.5t-50 -179.5t-120.5 -116.5t-182 -49.5q-113 0 -199 53t-128.5 138t-50.5 179.5t-8 397.5v1058h280v-1314q-3 -134 6 -171.5t86 -57.5q81 20 90 55.5t9 169.5v1318h277zM667 1115h-238l156 266h342z" />
    <glyph glyph-name="ucircumflex" unicode="&#xfb;" horiz-adv-x="980" 
d="M826 1792v-1105q0 -263 -9.5 -375.5t-50 -179.5t-120.5 -116.5t-182 -49.5q-113 0 -199 53t-128.5 138t-50.5 179.5t-8 397.5v1058h280v-1314q-3 -134 6 -171.5t86 -57.5q81 20 90 55.5t9 169.5v1318h277zM484 1115h-273l191 266h273l191 -266h-273l-55 108z" />
    <glyph glyph-name="udieresis" unicode="&#xfc;" horiz-adv-x="980" 
d="M826 1792v-1105q0 -263 -9.5 -375.5t-50 -179.5t-120.5 -116.5t-182 -49.5q-113 0 -199 53t-128.5 138t-50.5 179.5t-8 397.5v1058h280v-1314q-3 -134 6 -171.5t86 -57.5q81 20 90 55.5t9 169.5v1318h277zM624 1248q0 57 40 97t96 40q57 0 97 -40t40 -97q0 -56 -40 -96
t-97 -40q-56 0 -96 40t-40 96zM191 1248q0 57 40 97t96 40q57 0 97 -40t40 -97q0 -56 -40 -96t-97 -40q-56 0 -96 40t-40 96z" />
    <glyph glyph-name="ydieresis" unicode="&#xff;" horiz-adv-x="980" 
d="M735 1792h-289l-73 -691l-79 691h-296l216 -1068v-724h318v724zM622 1248q0 57 40 97t96 40q57 0 97 -40t40 -97q0 -56 -40 -96t-97 -40q-56 0 -96 40t-40 96zM189 1248q0 57 40 97t96 40q57 0 97 -40t40 -97q0 -56 -40 -96t-97 -40q-56 0 -96 40t-40 96z" />
    <glyph glyph-name="dotlessi" unicode="&#x131;" horiz-adv-x="415" 
d="M437 0h-335v991h335v-991z" />
    <glyph glyph-name="OE" unicode="&#x152;" horiz-adv-x="1916" 
d="M418 683q0 -94 47 -174q47 -79 126 -126q80 -47 173 -47q94 0 174 47q81 47 127 126t46 174t-46 174t-127 126q-79 46 -174 46q-94 0 -173 -46t-126 -126t-47 -174zM1460 1365h431v-308h-279q-82 0 -114 -13q-27 -11 -44 -38q-18 -28 -18 -58t18 -59q16 -28 44 -40
q27 -10 46 -11q20 -3 65 -3h282v-305h-282q-157 0 -157 -111q0 -30 18 -59q18 -28 44 -39q29 -13 98 -13h279v-308h-431q-115 0 -184 19q-72 20 -126 68q-175 -114 -385 -114q-193 0 -356 94q-81 48 -145.5 111t-113.5 146q-95 163 -95 353q0 194 97 358q96 163 260 261
q164 96 359 96q105 0 210 -32q99 -30 187 -94q54 51 127 76q72 23 165 23z" />
    <glyph glyph-name="oe" unicode="&#x153;" horiz-adv-x="1734" 
d="M1104 408l233 253q-39 19 -78 19q-48 0 -89 -24q-42 -26 -65 -67q-25 -43 -25 -91q0 -43 24 -90zM381 493q0 -50 25 -90q24 -42 66 -66t90 -24t90 24q41 24 67 66q24 41 24 90t-24 91q-25 41 -66 66q-42 24 -91 24t-90 -24q-42 -25 -66 -66q-25 -41 -25 -91zM1564 390
l81 -327q-154 -84 -330 -84q-120 0 -219 35t-180 107q-157 -142 -345 -142q-105 0 -197 40q-94 40 -167 112q-75 73 -116 166q-43 92 -43 194q0 134 73 252q37 59 85.5 107.5t108.5 84.5q122 72 255 72q186 0 339 -135q77 72 160 103q85 32 197 32q278 0 436 -245l-416 -450
q18 -5 42 -5q108 0 236 83z" />
    <glyph glyph-name="Ydieresis" unicode="&#x178;" horiz-adv-x="1139" 
d="M735 1792h-289l-73 -691l-79 691h-296l216 -1068v-724h318v724zM679 1633q0 57 40 97t96 40q57 0 97 -40t40 -97q0 -56 -40 -96t-97 -40q-56 0 -96 40t-40 96zM246 1633q0 57 40 97t96 40q57 0 97 -40t40 -97q0 -56 -40 -96t-97 -40q-56 0 -96 40t-40 96z" />
    <glyph glyph-name="florin" unicode="&#x192;" horiz-adv-x="1155" 
d="M362 628h-96l49 314h97l17 113q13 84 32 138q16 51 50 101q66 103 172 160q104 54 229 54q74 0 163 -23l-82 -353q-47 29 -81 29q-37 0 -68 -25q-32 -26 -48 -67q-15 -37 -32 -127h103l-49 -314h-103l-66 -422q-31 -203 -119 -312q-68 -83 -165 -128q-96 -46 -207 -46
q-74 0 -158 29l82 353q46 -28 81 -28q60 0 94 48q34 47 49 147l4 26z" />
    <glyph glyph-name="hungarumlaut" unicode="&#x2ba;" 
d="M82 1351v-1337h655v1337h-655zM751 0h-683v1365h683v-1365z" />
    <glyph glyph-name="circumflex" unicode="&#x2c6;" horiz-adv-x="735" 
d="M410 1115h-273l191 266h273l191 -266h-273l-55 108z" />
    <glyph glyph-name="caron" unicode="&#x2c7;" 
d="M82 1351v-1337h655v1337h-655zM751 0h-683v1365h683v-1365z" />
    <glyph glyph-name="breve" unicode="&#x2d8;" 
d="M82 1351v-1337h655v1337h-655zM751 0h-683v1365h683v-1365z" />
    <glyph glyph-name="dotaccent" unicode="&#x2d9;" 
d="M82 1351v-1337h655v1337h-655zM751 0h-683v1365h683v-1365z" />
    <glyph glyph-name="ring" unicode="&#x2da;" horiz-adv-x="405" 
d="M245 1248q0 -23 16 -39t38 -16q23 0 39 16t16 39q0 24 -16 39t-39 15q-21 0 -38 -15q-16 -15 -16 -39zM137 1248q0 67 48 113q47 46 114 46q69 0 116 -46q47 -47 47 -113t-48 -113q-47 -46 -115 -46q-65 0 -114 47q-48 47 -48 112z" />
    <glyph glyph-name="ogonek" unicode="&#x2db;" 
d="M82 1351v-1337h655v1337h-655zM751 0h-683v1365h683v-1365z" />
    <glyph glyph-name="tilde" unicode="&#x2dc;" horiz-adv-x="761" 
d="M699 1379l119 -156q-57 -55 -105 -78q-47 -22 -117 -22q-31 0 -59 5q-23 4 -104 27q-42 11 -68 11q-48 0 -110 -48l-118 154q89 101 214 101q57 0 109 -16l72 -20q32 -9 59 -9q30 0 54 12q23 11 54 39z" />
    <glyph glyph-name="summation" unicode="&#x3a3;" 
d="M82 1351v-1337h655v1337h-655zM751 0h-683v1365h683v-1365z" />
    <glyph glyph-name="Omega" unicode="&#x3a9;" 
d="M82 1351v-1337h655v1337h-655zM751 0h-683v1365h683v-1365z" />
    <glyph glyph-name="pi" unicode="&#x3c0;" 
d="M82 1351v-1337h655v1337h-655zM751 0h-683v1365h683v-1365z" />
    <glyph glyph-name="endash" unicode="&#x2013;" horiz-adv-x="862" 
d="M891 378h-782v301h782v-301z" />
    <glyph glyph-name="emdash" unicode="&#x2014;" horiz-adv-x="2128" 
d="M2157 378h-2048v301h2048v-301z" />
    <glyph glyph-name="quoteleft" unicode="&#x2018;" horiz-adv-x="437" 
d="M294 1365h173q-44 -70 -93 -176l-8 -17q118 -55 118 -171q0 -48 -24 -89q-24 -42 -66 -66t-90 -24q-47 0 -88 24t-65 65t-24 87q0 58 38 145q38 84 129 222z" />
    <glyph glyph-name="quoteright" unicode="&#x2019;" horiz-adv-x="437" 
d="M317 850h-173q47 76 92 176l9 17q-118 55 -118 171q0 49 24 89q22 39 66 65q42 24 90 24q47 0 88 -23q41 -24 65 -65q24 -42 24 -88q0 -40 -17 -93q-18 -52 -57 -122q-39 -69 -93 -151z" />
    <glyph glyph-name="quotesinglbase" unicode="&#x201a;" 
d="M82 1351v-1337h655v1337h-655zM751 0h-683v1365h683v-1365z" />
    <glyph glyph-name="quotedblleft" unicode="&#x201c;" horiz-adv-x="839" 
d="M696 1365h174q-38 -57 -93 -176l-9 -17q118 -55 118 -171q0 -73 -53 -126t-126 -53t-125 52q-53 53 -53 124q0 60 38 144q37 81 129 223zM294 1365h173q-44 -70 -93 -176l-8 -17q118 -55 118 -171q0 -48 -24 -89q-24 -42 -66 -66t-90 -24q-47 0 -88 24t-65 65t-24 87
q0 58 38 145q38 84 129 222z" />
    <glyph glyph-name="quotedblright" unicode="&#x201d;" horiz-adv-x="839" 
d="M719 850h-173q44 70 93 176l8 17q-118 55 -118 171q0 49 24 89q22 39 66 65q42 24 90 24q47 0 88 -23q41 -24 65 -65q24 -42 24 -88q0 -42 -16 -90q-15 -44 -53 -116q-45 -82 -98 -160zM317 850h-173q47 76 92 176l9 17q-118 55 -118 171q0 49 24 89q22 39 66 65
q42 24 90 24q47 0 88 -23q41 -24 65 -65q24 -42 24 -88q0 -40 -17 -93q-18 -52 -57 -122q-39 -69 -93 -151z" />
    <glyph glyph-name="quotedblbase" unicode="&#x201e;" horiz-adv-x="839" 
d="M719 -198h-173q44 70 93 176l8 17q-118 55 -118 172q0 47 24 89q24 41 66 65t90 24t88 -24q41 -24 65 -65q24 -40 24 -87q0 -60 -38 -145q-39 -86 -129 -222zM317 -198h-173q47 76 92 176l9 17q-118 55 -118 172q0 47 24 89q24 41 66 65t90 24t88 -24q41 -24 65 -65
q24 -40 24 -87q0 -59 -41 -149q-39 -85 -126 -218z" />
    <glyph glyph-name="dagger" unicode="&#x2020;" 
d="M82 1351v-1337h655v1337h-655zM751 0h-683v1365h683v-1365z" />
    <glyph glyph-name="daggerdbl" unicode="&#x2021;" 
d="M82 1351v-1337h655v1337h-655zM751 0h-683v1365h683v-1365z" />
    <glyph glyph-name="bullet" unicode="&#x2022;" horiz-adv-x="710" 
d="M68 696q0 85 43 158q42 72 115 115q72 42 157 42t158 -42q72 -43 115 -115q42 -73 42 -158t-42 -157q-43 -73 -115 -115q-73 -43 -158 -43q-86 0 -157 43q-73 42 -115 115q-43 71 -43 157z" />
    <glyph glyph-name="ellipsis" unicode="&#x2026;" horiz-adv-x="1865" 
d="M1496 183q0 87 62 149q61 61 148 61q59 0 106 -28q48 -28 76 -76q28 -47 28 -106q0 -87 -61 -148q-62 -62 -149 -62q-86 0 -148 62t-62 148zM814 183q0 87 62 149q61 61 148 61q59 0 106 -28q48 -28 76 -76q28 -47 28 -106q0 -87 -61 -148q-62 -62 -149 -62
q-86 0 -148 62t-62 148zM131 183q0 87 62 149q61 61 148 61q59 0 106 -28q48 -28 76 -76q28 -47 28 -106q0 -87 -61 -148q-62 -62 -149 -62q-86 0 -148 62t-62 148z" />
    <glyph glyph-name="perthousand" unicode="&#x2030;" horiz-adv-x="2308" 
d="M1853 311q0 -43 31 -74t74 -31q44 0 74 31q30 32 30 74q0 44 -30 74t-74 30q-42 0 -74 -30q-31 -30 -31 -74zM302 1054q0 -41 31 -72q30 -32 73 -32t74 31t31 73q0 43 -31 74t-74 31t-73 -31q-31 -31 -31 -74zM1115 311q0 -43 31 -74t73 -31q43 0 74 31t31 74
q0 44 -31 74t-74 30q-41 0 -73 -30q-31 -30 -31 -74zM1620 311q0 92 46 169q45 77 123 123q78 45 169 45q72 0 133 -27t107 -71q45 -46 71 -106q27 -61 27 -133q0 -91 -45 -169q-47 -78 -124 -123q-77 -46 -169 -46t-169 46q-78 45 -123 123q-46 77 -46 169zM68 1054
q0 92 46 169q45 77 123 124q78 45 169 45q73 0 134 -27q60 -26 106 -71q45 -46 71 -106q27 -61 27 -134q0 -91 -45 -168q-47 -78 -124 -123q-77 -46 -169 -46t-169 46q-78 45 -123 123q-46 76 -46 168zM882 311q0 92 46 169q45 77 123 123q77 45 168 45q73 0 134 -27
q60 -26 106 -71q45 -46 71 -106q27 -61 27 -133q0 -91 -45 -169q-47 -78 -124 -123q-77 -46 -169 -46t-168 46q-78 45 -123 123q-46 77 -46 169zM543 0h-329l864 1365h329z" />
    <glyph glyph-name="guilsinglleft" unicode="&#x2039;" horiz-adv-x="476" 
d="M505 134h-239l-157 378l157 366h239l-157 -366z" />
    <glyph glyph-name="guilsinglright" unicode="&#x203a;" horiz-adv-x="476" 
d="M505 512l-157 -378h-239l157 378l-157 366h239z" />
    <glyph glyph-name="trademark" unicode="&#x2122;" 
d="M82 1351v-1337h655v1337h-655zM751 0h-683v1365h683v-1365z" />
    <glyph glyph-name="partialdiff" unicode="&#x2202;" 
d="M82 1351v-1337h655v1337h-655zM751 0h-683v1365h683v-1365z" />
    <glyph glyph-name="Delta" unicode="&#x2206;" 
d="M82 1351v-1337h655v1337h-655zM751 0h-683v1365h683v-1365z" />
    <glyph glyph-name="product" unicode="&#x220f;" 
d="M82 1351v-1337h655v1337h-655zM751 0h-683v1365h683v-1365z" />
    <glyph glyph-name="fraction" unicode="&#x2215;" 
d="M82 1351v-1337h655v1337h-655zM751 0h-683v1365h683v-1365z" />
    <glyph glyph-name="radical" unicode="&#x221a;" 
d="M82 1351v-1337h655v1337h-655zM751 0h-683v1365h683v-1365z" />
    <glyph glyph-name="infinity" unicode="&#x221e;" 
d="M82 1351v-1337h655v1337h-655zM751 0h-683v1365h683v-1365z" />
    <glyph glyph-name="integral" unicode="&#x222b;" 
d="M82 1351v-1337h655v1337h-655zM751 0h-683v1365h683v-1365z" />
    <glyph glyph-name="approxequal" unicode="&#x2248;" 
d="M82 1351v-1337h655v1337h-655zM751 0h-683v1365h683v-1365z" />
    <glyph glyph-name="notequal" unicode="&#x2260;" 
d="M82 1351v-1337h655v1337h-655zM751 0h-683v1365h683v-1365z" />
    <glyph glyph-name="lessequal" unicode="&#x2264;" 
d="M82 1351v-1337h655v1337h-655zM751 0h-683v1365h683v-1365z" />
    <glyph glyph-name="greaterequal" unicode="&#x2265;" 
d="M82 1351v-1337h655v1337h-655zM751 0h-683v1365h683v-1365z" />
    <glyph glyph-name="lozenge" unicode="&#x25ca;" 
d="M82 1351v-1337h655v1337h-655zM751 0h-683v1365h683v-1365z" />
    <glyph glyph-name="apple" unicode="&#xf000;" 
d="M82 1351v-1337h655v1337h-655zM751 0h-683v1365h683v-1365z" />
    <glyph glyph-name="fi" unicode="&#xf001;" 
d="M82 1351v-1337h655v1337h-655zM751 0h-683v1365h683v-1365z" />
    <glyph glyph-name="fl" unicode="&#xf002;" 
d="M82 1351v-1337h655v1337h-655zM751 0h-683v1365h683v-1365z" />
    <glyph glyph-name="HT" horiz-adv-x="80" 
 />
    </font>
</defs>
</svg>
